<svg width="158" height="38" viewBox="0 0 158 38" fill="none" xmlns="http://www.w3.org/2000/svg">
  <path d="M9.52 26.96H7.08C6.88 26.96 5.88 27 5.88 27.68C5.88 27.96 8.48 29.28 8.48 29.8C8.48 30 8.28 30.12 8.16 30.16C7.56 30.48 7.36 30.56 7.08 30.88C3.24 35 0.36 36.08 0.36 35.92C0.36 35.8 2.08 33.56 2.36 33.2C4.6 30 5.08 28.6 5.08 28.32C5.08 28.28 5.08 28.16 4.96 28.16C4.92 28.16 4.24 28.32 4.12 28.32C3.28 28.32 3.16 27.48 3.16 26.8C3.16 26.32 3.4 22.92 3.4 22.2C3.6 15.64 3.6 13.72 3.6 11.4C3.6 7.56 3.48 6.12 3.44 5.16C3.4 4.8 3.08 3 3.08 2.6C3.08 2.48 3.08 2.12 3.4 2.12C4 2.12 4.32 2.28 5.64 3C6.32 3.36 6.84 3.36 7.36 3.36H9.4C9.76 3.36 10.24 3.36 10.76 2.76C11.28 2.2 11.4 2.08 11.72 2.08C12.2 2.08 14.92 3.68 14.92 4.44C14.92 4.68 14.68 4.88 14.56 4.96C14.44 5.04 13.72 5.56 13.68 5.64C13.48 6 13.4 12.16 13.4 13.04C13.4 13.48 13.52 25.12 13.52 25.84C13.52 26.52 13.52 28.24 11.4 28.24C10.88 28.24 10.76 27.92 10.64 27.56C10.44 27.04 10.08 26.96 9.52 26.96ZM9.72 12H7.36C6.12 12 6.12 12.28 6.12 16.32C6.12 18.08 6.12 18.68 7.32 18.68H9.72C10.92 18.68 10.92 18.16 10.92 16.2C10.92 15.76 10.92 12.84 10.84 12.56C10.6 12 9.96 12 9.72 12ZM9.72 4.4H7.4C6.16 4.4 6.16 4.64 6.16 8.6C6.16 10.36 6.16 10.92 7.4 10.92H9.72C10.92 10.92 10.92 10.44 10.92 8.52C10.92 4.64 10.92 4.4 9.72 4.4ZM9.64 19.72H7.32C6.08 19.72 6.08 20.04 6.08 23.8C6.08 25.32 6.08 25.92 7.28 25.92H9.6C10.84 25.92 10.84 25.68 10.84 21.36C10.84 20.44 10.84 19.72 9.64 19.72ZM21.96 3.8H28C29.84 3.8 29.92 3.8 30.64 2.68C31 2.16 31.84 1.12 32.24 1.12C32.52 1.12 33.16 1.72 34.84 3C35.92 3.84 36.04 3.96 36.04 4.28C36.04 4.84 35.84 4.84 33.92 4.84H22.04C21.08 4.84 20.8 5.24 20.8 6.08C20.8 6.6 20.8 11.16 20.84 11.4C20.96 11.96 21.32 12.2 22.12 12.2H28.56C29 12.2 29.76 12.2 30.12 11.64C30.6 10.88 30.72 10.64 31.12 10.64C31.56 10.64 35.08 12.64 35.08 13.12C35.08 13.56 33.2 14.64 33 15C32.96 15.12 30.56 22.28 30 23.64C29.8 24.12 28.64 26.28 28.64 26.76C28.64 27.88 32.2 30.84 34.8 32.24C35.64 32.68 37.12 33.2 38.04 33.6C38.12 33.64 38.44 33.8 38.44 33.92C38.44 34.12 37.6 34.2 37.04 34.24C35.44 34.36 34.6 34.84 33.72 35.56C33.4 35.8 33.28 35.88 33.16 35.88C32.68 35.88 29.8 33.32 27.64 30.28C27.4 29.92 27.16 29.56 26.76 29.56C26.36 29.56 26.12 29.88 25.96 30.08C23.36 33.2 20.36 34.84 17.88 35.8C17.04 36.12 16 36.48 15.8 36.48C15.68 36.48 15.64 36.4 15.64 36.36C15.64 36.24 15.68 36.2 16.12 35.92C22.4 31.72 24.96 27.68 24.96 26.8C24.96 26.32 23.88 23.64 23.68 23.04C22.84 20.48 22.76 19.84 22.08 14.08C22.04 13.84 21.96 13.24 21.4 13.24C20.8 13.24 20.76 13.96 20.76 14.44C20.68 18.16 20.52 28.64 15.56 33.96C14.28 35.32 12.72 36.24 12.52 36.24C12.36 36.24 12.4 36.16 13 35.4C16.32 31.2 18.2 26.36 18.2 13.68C18.2 12.6 18.2 7.16 17.92 4.8C17.88 4.44 17.56 2.92 17.56 2.6C17.56 2.36 17.8 2.36 17.92 2.36C18.56 2.36 19.12 2.68 20.4 3.4C21.04 3.76 21.52 3.8 21.96 3.8ZM29.04 13.24H23.92C23.36 13.24 23 13.36 23 13.96C23 16.68 25.88 24.48 26.84 24.48C27.88 24.48 30.04 14.64 30.04 14.12C30.04 13.24 29.32 13.24 29.04 13.24ZM9.08 27.8C9.28 27.56 10.84 28.72 11.04 28.88C12.48 29.96 13.88 31.04 13.88 33.04C13.88 34.52 12.64 34.76 12.36 34.76C11.6 34.76 11.48 34.48 10.8 31.92C10.48 30.8 9.76 29.08 9.24 28.36C9.08 28.08 9 27.88 9.08 27.8ZM61.36 12.28H64.2C65.96 12.28 66.12 12.24 66.8 11.28C67.16 10.72 67.76 10 68.24 10C68.8 10 72.12 12.48 72.12 12.88C72.12 13.36 71.32 13.36 70.04 13.36H52.4C48.92 13.36 47.76 13.44 47.36 13.44C47.24 13.48 46.64 13.56 46.52 13.56C46.36 13.56 46.28 13.44 46.16 13.28L45.4 12.36C45.24 12.2 45.2 12.16 45.2 12.12C45.2 12.04 45.28 12 45.36 12C45.64 12 46.88 12.12 47.12 12.16C49.08 12.24 50.72 12.28 52.6 12.28H56.04C57.04 12.28 57.24 11.88 57.24 9.56C57.24 8.48 57.24 7.84 56.08 7.84H49.64C47.04 7.84 45.6 7.88 44.56 7.96C44.44 7.96 43.84 8.04 43.72 8.04C43.6 8.04 43.52 7.96 43.36 7.76L42.6 6.88C42.44 6.68 42.44 6.64 42.44 6.6C42.44 6.52 42.48 6.52 42.56 6.52C42.84 6.52 44.08 6.64 44.32 6.64C46.28 6.72 47.96 6.8 49.84 6.8H56.04C57.28 6.8 57.28 6.48 57.28 3.96C57.28 3.48 57.08 1.48 57.08 1.08C57.08 0.799998 57.08 0.679997 57.4 0.679997C57.88 0.679997 59.88 1.28 60.28 1.4C61.24 1.64 61.64 2.04 61.64 2.32C61.64 2.56 60.84 3.32 60.76 3.52C60.56 3.84 60.44 4.32 60.44 4.92C60.44 6.2 60.44 6.8 61.56 6.8H67.24C69.04 6.8 69.24 6.8 69.88 5.8C70.24 5.28 70.88 4.36 71.4 4.36C71.72 4.36 75.64 6.76 75.64 7.28C75.64 7.84 74.84 7.84 73.48 7.84H61.52C60.32 7.84 60.32 8.04 60.32 11.04C60.32 11.48 60.32 12.28 61.36 12.28ZM70.6 17.96H47.72C46.92 17.96 46.92 18.12 46.8 19.36C46.6 21.24 45.08 24.16 43.04 24.16C42.36 24.16 41.44 23.76 41.44 22.64C41.44 21.92 41.64 21.68 43.12 19.56C44.08 18.2 44.24 16.8 44.24 16.16C44.24 16 44.04 15.2 44.04 15.04C44.04 14.76 44.28 14.6 44.48 14.6C44.92 14.6 46.08 16.32 46.4 16.6C46.72 16.92 47.28 16.92 47.64 16.92H69.12C70.4 16.92 70.68 16.92 71.12 16.64C71.36 16.48 72.4 15.6 72.68 15.6C73.12 15.6 76.84 17.84 76.84 18.56C76.84 19.32 75.68 19.44 75.24 19.48C74.44 19.56 73.52 19.64 71.84 20.36C71.56 20.48 70.28 21.32 69.96 21.32C69.84 21.32 69.64 21.28 69.64 21.08C69.64 20.92 71.2 18.64 71.2 18.24C71.2 18.24 71.2 17.96 70.6 17.96ZM53.16 19.52C53.72 19.72 55.52 20.44 56 20.6C56.44 20.76 56.84 20.92 56.84 21.24C56.84 21.48 56.04 22.24 56 22.44C55.8 23 55.56 25.68 55.48 26.2C53.8 35 45.52 36.96 42.44 36.96C42.12 36.96 41.88 36.84 41.88 36.6C41.88 36.4 42.12 36.36 42.52 36.24C43.68 35.96 45.6 35.24 47.44 33.88C52.64 30.12 52.64 25.36 52.64 22.4C52.64 21.64 52.6 20.96 52.52 20.6C52.48 20.48 52.28 19.84 52.28 19.68C52.28 19.44 52.52 19.4 52.64 19.4C52.8 19.4 53 19.44 53.16 19.52ZM61.96 19.48C62.44 19.6 64.44 19.8 64.84 19.92C65.12 20 65.6 20.16 65.6 20.52C65.6 20.76 64.8 21.56 64.68 21.76C64.36 22.24 64.36 24.6 64.36 25.52C64.36 30.16 64.44 31.12 64.72 31.76C65.08 32.6 66.32 32.92 69.48 32.92C73.72 32.92 73.84 32 74.44 27.24C74.48 26.88 74.68 25.28 74.84 25.28C75.04 25.28 75.08 25.8 75.52 30.16C75.6 30.88 75.8 31.2 76.04 31.56C76.68 32.4 77.12 33 77.12 33.32C77.12 34.48 75.28 35.2 75.04 35.28C74.04 35.64 72.48 35.84 69.92 35.84C61.36 35.84 61.36 34.72 61.36 29.36C61.36 28.16 61.28 22.84 61.28 21.76C61.28 21.48 61.24 20.32 61.24 20.08C61.24 19.4 61.48 19.4 61.96 19.48ZM89.08 6.36H96.84C97.28 6.36 98.08 6.36 98.08 5.32C98.08 5.16 97.96 3.88 97.84 2.84C97.8 2.56 97.4 1.36 97.4 1.12C97.4 0.879997 97.64 0.759999 97.88 0.759999C98.4 0.759999 101.76 0.959999 101.76 1.76C101.76 1.92 101.2 2.52 101.12 2.68C100.92 2.96 100.92 3.4 100.92 4.28C100.92 5.88 100.92 6.36 102.12 6.36H109.08C110.96 6.36 111.16 6.36 111.64 5.68C112.6 4.36 112.72 4.2 113.08 4.2C113.76 4.2 116.6 6.48 116.6 6.88C116.6 7.44 116.4 7.44 114.48 7.44H88.56C87.32 7.44 87.32 8.08 87.32 9.68C87.32 10.84 87.44 15.92 87.44 16.96C87.44 22.56 86.52 27.4 83.4 32.4C83 33 81.52 35.24 81.08 35.24C80.96 35.24 80.96 35.08 80.96 35C80.96 34.92 82.64 30.72 82.88 30.08C84.64 25.44 84.64 19.64 84.64 16.04C84.64 11.28 84.16 7.28 84.08 6.8C84.04 6.56 83.72 5.52 83.72 5.32C83.72 5.16 83.8 4.96 84.04 4.96C84.28 4.96 86.56 5.88 87.04 6.04C88.04 6.36 88.44 6.36 89.08 6.36ZM94.12 23.64H96.84C98.04 23.64 98.04 22.96 98.04 21.76C98.04 20.92 98.12 17.16 98.12 16.4C98.12 13.36 97.92 11.08 97.8 10.32C97.76 10.16 97.6 9.4 97.6 9.24C97.6 8.92 97.84 8.8 98.04 8.8C98.16 8.8 101.84 9.4 101.84 10.08C101.84 10.28 101.16 11 101.08 11.16C100.8 11.72 100.8 13.44 100.8 14.16C100.8 14.68 100.8 15.44 101.96 15.44H106.76C108.48 15.44 108.64 15.44 109.2 14.68C110.24 13.16 110.32 13.04 110.76 13.04C111.48 13.04 114.28 15.12 114.28 15.76C114.28 16.48 113.44 16.48 112.16 16.48H102C101.56 16.48 101.12 16.56 100.92 17.08C100.84 17.24 100.8 17.32 100.8 22.2C100.8 23 100.84 23.64 102 23.64H107.32C107.64 23.64 108.12 23.64 108.52 23.36C108.72 23.2 109.6 22.32 109.84 22.32C110.36 22.32 112.92 23.84 112.92 24.4C112.92 24.68 111.96 25.44 111.8 25.6C111.56 25.84 111.56 25.96 111.56 26.84C111.56 28 111.84 33.88 111.84 34.24C111.84 35 111.84 36.44 109.8 36.44C108.76 36.44 108.76 36.04 108.68 35.08C108.64 34.28 108.08 34.12 107.56 34.12H93.68C93.16 34.12 92.72 34.24 92.56 34.88C92.44 35.4 92.12 36.84 90.32 36.84C89.28 36.84 89.2 36.28 89.2 35.72C89.2 34.52 89.4 29.2 89.4 28.08C89.4 26.24 89.32 24.88 89.28 24.04C89.24 23.76 89.04 22.36 89.04 22.08C89.04 21.96 89.2 21.88 89.36 21.88C89.8 21.88 90.16 22.04 92.28 23.16C92.92 23.48 93.36 23.64 94.12 23.64ZM107.52 24.72H93.52C92.92 24.72 92.48 24.88 92.36 25.48C92.32 25.68 92.32 30.64 92.32 31.2C92.32 32.48 92.4 33.08 93.6 33.08H107.56C108.08 33.08 108.6 32.88 108.68 32.28V26.48C108.68 25.32 108.68 24.72 107.52 24.72ZM148.48 11.92H151.56C152.08 11.92 152.4 11.88 152.88 11.36C152.96 11.2 153.32 10.8 153.6 10.8C153.92 10.8 156.28 12.44 156.28 13C156.28 13.24 156.08 13.4 155.56 13.76C154.96 14.2 154.96 14.48 154.96 15.28C154.96 16.4 154.88 21.92 154.88 23.16C154.88 24.32 155 30 155 31.28C155 33.2 154.92 34.16 154.2 34.92C153.64 35.52 152.88 36.12 152.04 36.12C151.6 36.12 151.56 36.04 151 35.2C150.28 34.2 149.64 33.76 148.48 33.12C148.32 33.04 148.16 32.96 148.16 32.88C148.16 32.8 148.2 32.76 148.32 32.76C148.68 32.76 150.48 32.92 150.88 32.92C152.6 32.92 152.64 32.72 152.64 26.16C152.64 25.16 151.8 25.16 151.24 25.16H148.36C147.12 25.16 147.08 25.88 147.08 26.52C147.08 27.56 147.2 32.6 147.24 33.48C147.24 33.76 147.36 35.04 147.36 35.32C147.36 35.84 147.2 36.72 145.96 36.72C144.4 36.72 144.4 35.4 144.4 34.96C144.4 34.8 144.56 32.52 144.56 32.24C144.56 31.96 144.76 26.68 144.76 26.24C144.76 25.4 144.28 25.16 143.52 25.16H141.24C140.16 25.16 140.08 25.84 140.08 26.32C140.08 27.48 140.08 30.72 140.12 31.88C140.16 32.2 140.24 33.8 140.24 34.16C140.24 35.68 139.08 35.8 138.8 35.8C138.44 35.8 137.36 35.6 137.36 34.28C137.36 34.2 137.36 33.88 137.4 33.4C137.52 31 137.72 26.88 137.72 23.56C137.72 21.4 137.72 13.32 137.48 12.08C137.44 11.88 137.04 10.8 137.04 10.56C137.04 10.36 137.2 10.24 137.4 10.24C137.68 10.24 138.84 11 139.52 11.44C140.32 11.92 140.68 11.92 141.32 11.92H143.84C144.92 11.92 144.92 11.4 144.92 9.36C144.92 8.28 144.72 7.92 143.68 7.92C141.8 7.92 140 7.92 138.4 8C138.24 8 137.32 8.12 137.24 8.12C137.08 8.12 137 8 136.88 7.84L136.12 6.92C135.92 6.72 135.92 6.72 135.92 6.68C135.92 6.6 136 6.56 136.08 6.56C136.32 6.56 137.56 6.68 137.84 6.72C138.96 6.76 141.04 6.84 143.32 6.84C144.2 6.84 144.92 6.84 144.92 5.6C144.92 4.8 144.72 2.72 144.6 2.24C144.56 2.04 144.2 1.08 144.2 0.839998C144.2 0.559999 144.4 0.559999 144.56 0.559999C144.88 0.559999 147.28 1.2 147.8 1.36C148.04 1.44 148.48 1.56 148.48 1.96C148.48 2.16 147.68 2.92 147.56 3.08C147.28 3.48 147.28 4.88 147.28 5.4C147.28 6.2 147.28 6.84 148.56 6.84H151.24C152.92 6.84 153.08 6.84 153.44 6.56C153.64 6.36 154.64 5 154.96 5C155.52 5 157.32 6.72 157.32 7.36C157.32 7.92 156.52 7.92 155.16 7.92H148.52C147.2 7.92 147.16 8.28 147.16 10.56C147.16 11.52 147.28 11.92 148.48 11.92ZM141.36 18H143.56C144.92 18 144.92 17.96 144.92 14.24C144.92 13.04 144.36 13 143.6 13H141.36C140 13 140 13.44 140 15C140 17.68 140 18 141.36 18ZM141.36 24.12H143.56C144.84 24.12 144.88 23.8 144.88 21.68C144.88 19.36 144.88 19.04 143.56 19.04H141.36C140.16 19.04 140.04 19.24 140.04 21.52C140.04 23.88 140.12 24.12 141.36 24.12ZM148.4 24.12H151.32C151.72 24.12 152.28 24.12 152.52 23.64C152.64 23.36 152.64 20.8 152.64 20.44C152.64 19.48 152.48 19.04 151.32 19.04H148.4C148.04 19.04 147.72 19.04 147.4 19.28C147.08 19.56 147.08 19.88 147.08 22.72C147.08 23.68 147.24 24.12 148.4 24.12ZM148.4 18H151.28C152.56 18 152.56 17.56 152.56 16.12C152.56 13.32 152.56 13 151.24 13H148.4C147.08 13 147.08 13.4 147.08 15.4C147.08 17.64 147.08 18 148.4 18ZM130.24 33.24H127.4C126.16 33.24 126.16 33.6 126.16 35.36C126.16 37.04 124.52 37.24 124.12 37.24C123.04 37.24 123.04 36.64 123.04 36.24C123.04 36.08 123.2 34.56 123.24 34.32C123.4 32.6 123.52 30.24 123.52 29.08C123.52 28.48 123.52 26.12 123.24 24.8C123.2 24.64 122.92 23.68 122.92 23.48C122.92 23.2 123.04 23.08 123.4 23.08C123.6 23.08 123.72 23.16 124.84 23.68C125.88 24.2 126.12 24.32 127 24.32H130.76C131.04 24.32 131.32 24.32 131.68 24C131.8 23.92 132.44 23.2 132.6 23.2C132.76 23.2 135.24 24.56 135.24 25.2C135.24 25.32 134.72 25.88 134.68 25.88C134.24 26.36 134.24 26.72 134.24 29.76C134.24 30.4 134.44 33.6 134.44 33.72C134.44 35.08 133.12 35.6 132.56 35.6C131.68 35.6 131.6 35.04 131.48 34.04C131.36 33.28 130.92 33.24 130.24 33.24ZM127.32 32.2H130.44C130.84 32.2 131.44 32.2 131.68 31.68C131.76 31.44 131.76 29.2 131.76 28.76C131.76 26.2 131.76 25.92 131.52 25.68C131.24 25.36 130.84 25.36 130.44 25.36H127.32C126.92 25.36 126.32 25.36 126.08 25.88C126 26.12 126 28.36 126 28.76C126 31.36 126 31.64 126.24 31.88C126.52 32.2 126.92 32.2 127.32 32.2ZM133.68 10.8C133.08 10.8 133.04 10.56 132.52 8.44C131.96 6.16 130.56 4.2 130.04 4.2C129.76 4.2 129.52 4.6 129.44 4.68C128.16 6.8 126.76 8.8 125.28 10.76C124.2 12.16 121.24 15.76 120.16 15.76C120.12 15.76 120.08 15.76 120.08 15.68C120.08 15.56 120.44 15.2 120.52 15.08C125.24 8.92 128 1.6 128.04 1.44C128.12 0.759999 128.16 0.559999 128.44 0.559999C128.8 0.559999 131.32 2.28 131.32 2.76C131.32 2.96 131.16 3.04 131.08 3.12C130.84 3.28 130.68 3.4 130.68 3.52C130.68 3.64 131.32 4.04 131.44 4.12C132.96 5.08 135.24 6.68 135.24 8.84C135.24 9.76 134.72 10.8 133.68 10.8ZM154.52 3C154.6 3.48 154.4 4.68 153.24 4.68C152.6 4.68 152.44 4.4 151.96 3.4C151.64 2.72 151.16 2.04 149.8 0.839998C149.76 0.799998 149.72 0.759999 149.72 0.719999C149.72 0.639998 149.84 0.639998 149.88 0.639998C151.68 0.639998 154.28 0.959999 154.52 3ZM122.48 20.24L121.72 19.32C121.52 19.12 121.52 19.12 121.52 19.04C121.52 18.96 121.64 18.96 121.68 18.96C122.44 18.96 126.08 19.2 126.92 19.2C127.76 19.2 127.76 18.96 127.76 16.6C127.76 14.84 127.76 14.64 127.12 14.64C126.8 14.64 125.16 14.8 124.92 14.8C124.76 14.8 124.72 14.72 124.56 14.56L123.8 13.64C123.6 13.44 123.6 13.44 123.6 13.36C123.6 13.28 123.72 13.28 123.76 13.28C124.24 13.28 126.48 13.48 127 13.48C127.36 13.48 127.72 13.44 127.72 12.68C127.72 12.48 127.72 11.32 127.6 10.72C127.6 10.6 127.24 9.92 127.24 9.72C127.24 9.68 127.32 9.44 127.64 9.44C128.08 9.44 129.84 10.08 130.36 10.28C130.6 10.36 130.76 10.48 130.76 10.72C130.76 10.96 130.64 11.08 130.48 11.2C130.04 11.6 130 11.64 130 12.4C130 13 130 13.52 130.84 13.52C131.24 13.52 131.6 13.16 131.76 12.96C132.56 12.04 132.64 11.92 132.96 11.92C133.48 11.92 135.36 13.44 135.36 14.08C135.36 14.6 134.56 14.6 133.2 14.6H131C130.2 14.6 129.96 14.8 129.96 15.48C129.96 19.24 130.08 19.24 130.96 19.24C131.4 19.24 132.2 19.24 132.52 18.92C132.76 18.72 133.72 17.4 134.04 17.4C134.6 17.4 136.4 19.08 136.4 19.72C136.4 20.28 135.64 20.28 134.24 20.28H128.72C127.76 20.28 125.08 20.28 123.68 20.4C123.56 20.4 122.96 20.48 122.84 20.48C122.68 20.48 122.6 20.4 122.48 20.24Z" fill="white"/>
  </svg>
