<svg width="132" height="132" viewBox="0 0 132 132" fill="none" xmlns="http://www.w3.org/2000/svg">
  <circle cx="66" cy="66" r="66" fill="#781723"/>
  <path d="M27.54 55.26L27.22 54.8C27.16 54.7 27.14 54.68 27.14 54.66C27.14 54.62 27.16 54.6 27.2 54.6C27.24 54.6 27.7 54.66 27.8 54.66C28.3 54.7 29.44 54.76 29.9 54.76C30.2 54.76 30.62 54.76 31.2 53.24C31.24 53.14 31.36 52.68 31.4 52.56C31.42 52.5 31.5 52.46 31.56 52.46C31.64 52.46 33 53.02 33 53.38C33 53.58 32.88 53.64 32.46 53.82C32.36 53.94 32.04 54.4 32.04 54.58C32.04 54.76 32.24 54.76 32.48 54.76H34.54C35.06 54.76 35.2 54.76 35.38 54.34C35.58 53.92 35.7 53.82 35.88 53.82C36.14 53.82 37.38 54.78 37.38 55.04C37.38 55.3 37 55.3 36.5 55.3H34.6C34.56 55.3 34.48 55.3 34.48 55.36C34.48 55.42 35.26 56.22 35.26 56.42C35.26 56.56 34.56 56.74 34.5 56.84C34.42 56.94 33.8 58.02 33.8 58.12C33.8 58.24 33.86 58.28 34.4 58.6C35.18 59.04 35.72 59.5 35.72 60.04C35.72 60.42 35.44 60.66 35.06 60.66C34.66 60.66 34.54 60.54 33.4 59.44C33.12 59.16 33 59.12 32.9 59.12C32.82 59.12 32.48 59.38 32.38 59.44C31.62 59.98 30.46 60.6 28.74 60.86C28.58 60.88 28 60.98 27.86 60.98C27.82 60.98 27.7 60.98 27.7 60.9C27.7 60.8 27.88 60.74 28.2 60.64C30.62 59.94 31.86 58.66 31.86 58.42C31.86 58.12 30.5 57.58 30.3 57.58C30.14 57.58 30.1 57.64 29.82 58.12C29.66 58.42 29.52 58.64 29.1 58.64C28.76 58.64 28.44 58.38 28.44 58.12C28.44 57.82 29.98 55.82 29.98 55.44C29.98 55.3 29.78 55.3 29.72 55.3C29.14 55.3 28.34 55.3 28.06 55.34C28 55.34 27.72 55.4 27.68 55.4C27.62 55.4 27.6 55.36 27.54 55.26ZM32.96 55.3H32.06C31.52 55.3 31.48 55.38 31.22 55.78C31.08 56.02 30.48 56.98 30.48 57.08C30.48 57.24 30.54 57.26 31.06 57.38C31.28 57.42 32.2 57.68 32.36 57.68C32.74 57.68 33.44 55.8 33.44 55.5C33.44 55.34 33.36 55.3 32.96 55.3ZM39.08 48.06H41.9C42.64 48.06 42.72 48.06 42.94 47.72C43.4 47.06 43.44 46.98 43.64 46.98C43.86 46.98 45.22 48.08 45.22 48.3C45.22 48.54 45.1 48.58 44.36 48.58H42.48C42.24 48.58 42.2 48.6 42.2 48.66C42.2 48.78 43.46 49.38 43.46 49.62C43.46 49.74 43.02 50.12 42.96 50.22C42.78 50.48 42.5 51.82 42.42 52.08C41.94 53.78 41.44 54.76 41.06 55.5C40.9 55.84 40.84 56 40.84 56.12C40.84 56.5 42.12 58.32 43.96 59.44C44.14 59.54 45.06 60.04 45.06 60.08C45.06 60.18 44.2 60.36 44.06 60.42C43.96 60.48 43.14 61 43.06 61C42.78 61 41.2 59.36 40.36 57.8C40.24 57.6 40.16 57.48 40.04 57.48C39.94 57.48 39.48 58.04 39.34 58.2C38.7 58.98 37.84 60 36.06 61C35.92 61.08 35.42 61.32 35.28 61.32C35.2 61.32 35.12 61.3 35.12 61.22C35.12 61.22 35.4 60.98 35.58 60.86C38.42 58.74 39.44 56.32 39.44 56.04C39.44 55.9 39.42 55.8 39.14 54.98C38.48 53.02 38.24 51.36 38.24 48.92C38.24 48.84 38.24 48.74 38.16 48.74C38.08 48.74 37.06 50.8 36.82 51.18C36.68 51.4 36.1 52.22 35.96 52.22C35.88 52.22 35.84 52.18 35.84 52.12C35.84 52.04 36.7 50.04 36.84 49.66C37.26 48.58 38.36 45.7 38.36 43.9C38.36 43.5 38.36 43.46 38.56 43.46C38.76 43.46 40.38 44 40.38 44.28C40.38 44.4 39.92 44.66 39.86 44.72C39.74 44.92 38.56 47.86 38.56 47.88C38.56 48.06 38.82 48.06 39.08 48.06ZM41.08 48.58H39.26C38.88 48.58 38.62 48.6 38.62 49C38.62 50.06 39.62 54.74 40.08 54.74C40.4 54.74 41.66 50.76 41.66 49.08C41.66 48.6 41.28 48.58 41.08 48.58ZM29.12 44.32C29.78 44.66 30.8 45.26 30.8 46.44C30.8 46.9 30.48 47.28 30.12 47.28C29.68 47.28 29.58 46.86 29.48 46.18C29.38 45.62 29.16 45 29 44.7C28.98 44.68 28.82 44.36 28.82 44.34C28.82 44.3 28.84 44.26 28.9 44.26C28.94 44.26 29.04 44.28 29.12 44.32ZM36.32 45.5C36.32 45.62 36.08 45.74 35.78 45.88C35.6 45.96 33.8 47.26 33.74 47.26C33.72 47.26 33.7 47.24 33.7 47.22C33.7 47.16 34.54 45.7 34.7 45.4C34.76 45.3 35.2 44.44 35.24 44.44C35.38 44.44 36.32 45.3 36.32 45.5ZM27.8 47.88L27.48 47.42C27.42 47.34 27.4 47.32 27.4 47.3C27.4 47.26 27.42 47.24 27.46 47.24C27.56 47.24 27.98 47.3 28.06 47.3C28.78 47.36 29.78 47.38 30.42 47.38H31.36C32 47.38 32 47.1 32 46.68V46.04C32 45.66 31.86 43.84 31.86 43.6C31.86 43.54 31.86 43.48 31.92 43.48C32 43.48 32.8 43.68 32.96 43.72C33.28 43.8 33.58 43.96 33.58 44.12C33.58 44.22 33.2 44.52 33.18 44.62C33.08 44.88 33.08 46.22 33.08 46.6C33.08 47.08 33.1 47.38 33.68 47.38H34.24C34.98 47.38 35.12 47.38 35.34 46.94C35.46 46.7 35.6 46.52 35.8 46.52C36.16 46.52 37.08 47.48 37.08 47.66C37.08 47.92 36.7 47.92 36.22 47.92H33.56C33.28 47.92 33.08 47.92 33.08 48.28C33.08 48.58 33.34 48.66 33.6 48.74C35.22 49.22 35.94 50.08 35.94 50.8C35.94 51.14 35.64 51.42 35.26 51.42C34.96 51.42 34.9 51.32 34.34 50.3C34.12 49.92 33.52 49.2 33.26 49.2C33.08 49.2 33.08 49.48 33.08 49.62C33.08 49.92 33.14 51.24 33.14 51.5C33.14 52.1 32.74 52.4 32.2 52.4C31.86 52.4 31.84 52.18 31.84 51.96C31.84 51.56 31.94 49.72 31.94 49.36C31.94 49.2 31.94 49.04 31.8 49.04C31.74 49.04 31.34 49.48 31.28 49.56C30.28 50.72 29.42 51.52 28.12 52.24C27.86 52.4 27.54 52.58 27.34 52.58C27.32 52.58 27.3 52.56 27.3 52.54C27.3 52.48 27.62 52.22 27.66 52.18C29.72 50.4 30.62 48.46 30.62 48.14C30.62 47.92 30.36 47.92 30.18 47.92C29.16 47.92 28.52 47.94 28.28 47.96C28.22 47.98 27.98 48.02 27.94 48.02C27.88 48.02 27.86 47.98 27.8 47.88ZM59.66 56.52H57.3C56.9 56.52 56.7 56.68 56.7 57.08C56.7 57.74 56.7 58 57.34 58H60.2C61.12 58 61.22 58 61.46 57.62C61.84 57.06 61.88 57 62.06 57C62.38 57 63.4 57.94 63.4 58.28C63.4 58.52 63.28 58.52 62.18 58.52H57.28C57.14 58.52 56.7 58.52 56.7 59.08C56.7 59.84 56.7 60.06 57.3 60.06H61.4C62.22 60.06 62.32 60.06 62.48 59.92C62.64 59.76 63.28 58.98 63.46 58.98C63.74 58.98 65.06 60.06 65.06 60.34C65.06 60.58 64.8 60.58 64.28 60.58H50.52C48.76 60.58 48.18 60.62 48 60.64C47.92 60.64 47.62 60.68 47.56 60.68C47.5 60.68 47.46 60.64 47.4 60.56L47 60.1C46.92 60 46.92 60 46.92 59.96C46.92 59.92 46.94 59.92 46.98 59.92C47.12 59.92 47.74 59.98 47.88 59.98C48.84 60.02 49.68 60.06 50.62 60.06H54.74C55.3 60.06 55.32 59.68 55.32 59.52C55.32 58.74 55.32 58.52 54.7 58.52H52.14C50.38 58.52 49.8 58.56 49.62 58.58C49.54 58.58 49.24 58.62 49.18 58.62C49.12 58.62 49.08 58.58 49.02 58.5L48.62 58.04C48.54 57.94 48.54 57.94 48.54 57.9C48.54 57.88 48.56 57.86 48.6 57.86C48.74 57.86 49.36 57.92 49.5 57.92C50.48 57.96 51.3 58 52.24 58H54.72C54.92 58 55.32 58 55.32 57.44C55.32 56.82 55.32 56.52 54.76 56.52H52.36C52.22 56.52 52.1 56.52 51.92 56.7C51.54 57.12 51.42 57.24 50.98 57.24C50.4 57.24 50.38 56.9 50.38 56.56C50.38 56.4 50.48 54.54 50.48 54.14C50.48 53.36 50.42 52.44 50.4 52.32C50.4 52.22 50.3 51.72 50.3 51.62C50.3 51.46 50.42 51.4 50.56 51.4C50.8 51.4 50.96 51.46 51.82 51.9C52.26 52.12 52.58 52.12 52.76 52.12H59.3C59.48 52.12 59.72 52.12 60 51.84C60.34 51.5 60.42 51.44 60.58 51.44C60.74 51.44 62.2 52.22 62.2 52.66C62.2 52.84 62.18 52.86 61.72 53.24C61.52 53.42 61.5 53.64 61.5 54.04C61.5 54.38 61.56 55.88 61.56 56.2C61.56 56.38 61.56 57.1 60.68 57.1C60.44 57.1 60.42 57.08 60.1 56.74C59.9 56.52 59.78 56.52 59.66 56.52ZM59.58 52.64H57.22C57.1 52.64 56.7 52.66 56.7 53.14C56.7 53.72 56.7 54 57.22 54H59.58C59.7 54 60.08 54 60.08 53.52C60.08 52.94 60.08 52.64 59.58 52.64ZM59.6 54.52H57.18C56.88 54.52 56.7 54.7 56.7 54.98C56.7 55.74 56.7 55.98 57.18 55.98H59.6C59.9 55.98 60.08 55.8 60.08 55.52C60.08 54.78 60.08 54.52 59.6 54.52ZM54.8 54.52H52.42C52.08 54.52 51.92 54.68 51.92 55.02C51.92 55.78 51.92 55.98 52.42 55.98H54.8C54.96 55.98 55.32 55.98 55.32 55.52C55.32 54.72 55.32 54.52 54.8 54.52ZM54.82 52.64H52.42C52.28 52.64 51.92 52.64 51.92 53.06C51.92 53.82 51.92 54 52.42 54H54.82C55.3 54 55.32 53.74 55.32 53.32C55.32 52.9 55.28 52.64 54.82 52.64ZM59.74 48.82H52.38C52.18 48.82 51.98 48.82 51.72 49.14C51.42 49.48 51.26 49.68 50.7 49.68C50.4 49.68 50.04 49.58 50.04 49.14C50.04 49.1 50.04 49.02 50.14 48.28C50.24 47.44 50.24 47.08 50.24 46.36C50.24 45.86 50.24 45.34 50.22 45.14C50.2 44.94 50.04 43.96 50.04 43.72C50.04 43.56 50.18 43.5 50.32 43.5C50.54 43.5 51.28 43.88 51.68 44.08C52.04 44.26 52.24 44.26 52.44 44.26H59.42C59.76 44.26 60.08 44.16 60.24 43.88C60.34 43.7 60.46 43.48 60.66 43.48C60.76 43.48 62.46 44.32 62.46 44.86C62.46 45.02 62.44 45.04 62.04 45.36C61.84 45.52 61.82 45.72 61.82 46.1C61.82 46.5 61.88 48.58 61.88 48.74C61.88 48.98 61.88 49.66 60.94 49.66C60.58 49.66 60.52 49.54 60.34 49.16C60.2 48.82 59.92 48.82 59.74 48.82ZM59.82 44.8H52.24C52.06 44.8 51.72 44.8 51.72 45.24C51.72 46.04 51.72 46.22 52.24 46.22H59.82C60 46.22 60.34 46.22 60.34 45.78C60.34 44.98 60.34 44.8 59.82 44.8ZM59.82 46.76H52.24C52.08 46.76 51.72 46.76 51.72 47.22C51.72 48.1 51.72 48.3 52.24 48.3H59.82C59.98 48.3 60.34 48.3 60.34 47.84C60.34 46.94 60.34 46.76 59.82 46.76ZM50.98 50.14H61.4C62.3 50.14 62.4 50.14 62.66 49.76C63.04 49.2 63.08 49.14 63.24 49.14C63.56 49.14 64.58 50.08 64.58 50.4C64.58 50.66 64.46 50.66 63.36 50.66H50.88C49.12 50.66 48.56 50.7 48.36 50.72C48.28 50.72 48 50.76 47.94 50.76C47.86 50.76 47.82 50.72 47.76 50.64L47.38 50.18C47.3 50.08 47.28 50.08 47.28 50.04C47.28 50 47.32 50 47.36 50C47.5 50 48.12 50.06 48.24 50.06C49.22 50.1 50.04 50.14 50.98 50.14ZM77.14 44.7H81.48C81.64 44.7 81.84 44.68 82 44.44C82.24 44.1 82.3 44.04 82.48 44.04C82.7 44.04 83.96 45.02 84 45.1C84 45.12 84.02 45.16 84.02 45.18C84.02 45.3 83.86 45.4 83.54 45.6C83.38 45.7 83.36 45.84 83.36 46.04C83.36 46.92 83.38 50.76 83.38 51.54C83.38 51.82 83.38 52.7 82.36 52.7C82.02 52.7 82 52.46 81.96 52.04C81.94 51.76 81.62 51.76 81.46 51.76H79.52C79.24 51.76 79.06 51.8 79.06 52.18C79.06 52.92 80.38 56.04 80.76 56.04C81.02 56.04 82.58 54.22 82.82 53.64C82.98 53.24 83 53.2 83.1 53.2C83.2 53.2 84.68 53.98 84.68 54.38C84.68 54.66 84.54 54.68 84.08 54.76C83.82 54.88 81.8 55.96 81.38 56.16C81.04 56.32 80.98 56.36 80.98 56.52C80.98 56.6 81.86 58.16 84.02 59.34C84.26 59.48 85.54 60.04 85.54 60.12C85.54 60.28 84.8 60.32 84.68 60.36C84.3 60.46 83.76 60.68 83.56 60.88C83.26 61.16 83.22 61.2 83.14 61.2C82.92 61.2 82.02 60.32 80.94 58.78C80.5 58.14 80.44 58.08 80.22 58.08C79.84 58.08 74.08 60.4 74 60.46C73.84 60.56 73.32 61.26 73.16 61.26C72.82 61.26 72.04 59.14 72.04 59.08C72.04 58.92 72.16 58.9 72.24 58.9C72.32 58.9 72.92 58.96 73.04 58.96C73.16 58.96 75.12 58.86 75.26 58.42C75.34 58.14 75.34 55.48 75.34 54.88C75.34 51.78 75.34 47.28 75.26 45.1C75.26 44.96 75.16 44.32 75.16 44.2C75.16 44.08 75.24 44 75.36 44C75.5 44 76.1 44.32 76.34 44.44C76.54 44.54 76.78 44.7 77.14 44.7ZM77.12 51.24H81.46C82.04 51.24 82.04 51 82.04 49.9C82.04 48.62 82.04 48.48 81.44 48.48H77.14C76.76 48.48 76.52 48.6 76.52 49.1C76.52 50.66 76.52 50.84 76.6 50.98C76.72 51.24 77 51.24 77.12 51.24ZM81.52 45.22H77.04C76.54 45.22 76.54 45.64 76.54 45.86V47.5C76.6 47.94 76.96 47.94 77.12 47.94H81.44C81.96 47.94 82.06 47.7 82.06 47.16C82.06 45.44 82.06 45.22 81.52 45.22ZM78.12 51.76H77.12C76.54 51.76 76.54 52.14 76.54 52.34C76.54 53.14 76.6 57.06 76.6 57.96C76.6 58.18 76.64 58.32 76.9 58.32C77.02 58.32 78.92 57.96 79.22 57.9C79.98 57.74 80.06 57.74 80.06 57.46C80.06 57.4 79.74 56.64 79.7 56.56C79.16 55.22 78.84 54 78.72 52.74C78.64 51.86 78.64 51.76 78.12 51.76ZM71.32 44.8H69.88C69.32 44.8 69.3 45.16 69.3 45.34C69.3 45.48 69.16 51.52 69.16 52.04C69.16 52.26 69.22 56.88 69.28 58.6C69.28 58.78 69.34 59.58 69.34 59.74C69.34 60.34 69.3 60.78 69 61.06C68.82 61.22 68.48 61.38 68.28 61.38C67.86 61.38 67.76 60.9 67.76 60.72C67.76 60.4 67.9 59.04 67.92 58.76C67.94 58.38 68 56.64 68 56.58V45.62C68 45.4 67.86 44.08 67.86 43.94C67.86 43.86 67.86 43.66 68.12 43.66C68.34 43.66 69.2 44.12 69.38 44.18C69.56 44.24 69.74 44.26 69.98 44.26H71.48C71.74 44.26 71.92 44.24 72.1 43.96C72.26 43.7 72.32 43.64 72.42 43.64C72.48 43.64 73.94 44.32 73.94 44.62C73.94 44.78 73.88 44.84 73.58 45.08C73.32 45.26 73.28 45.36 72.04 47.48C71.58 48.28 71.48 48.44 71.2 48.86C71.14 48.94 70.86 49.36 70.86 49.42C70.86 49.56 71.16 49.76 71.32 49.86C72.54 50.56 73.2 51.7 73.54 52.42C73.74 52.84 73.9 53.34 73.9 54.46C73.9 57.32 72.28 57.94 71.92 57.94C71.56 57.94 71.46 57.8 71.32 57.42C71.24 57.22 71.1 56.88 70.56 56.36C70.54 56.34 70.34 56.16 70.34 56.12C70.34 56.04 70.44 56.02 70.52 56.02C70.62 56.02 71.02 56.06 71.1 56.06C71.84 56.06 72.52 56.06 72.52 54.56C72.52 53.22 72.32 51.42 70.98 50.2C70.56 49.82 70.42 49.68 70.42 49.42C70.42 49.08 71.8 45.64 71.8 45.16C71.8 45.04 71.72 44.8 71.32 44.8ZM94.8 50.72H93C91.24 50.72 90.68 50.76 90.48 50.78C90.4 50.78 90.12 50.82 90.06 50.82C89.98 50.82 89.94 50.78 89.88 50.7L89.5 50.24C89.42 50.14 89.4 50.14 89.4 50.1C89.4 50.08 89.44 50.06 89.48 50.06C89.62 50.06 90.24 50.12 90.36 50.12C91.34 50.16 92.16 50.2 93.1 50.2H98.52C99.38 50.2 99.58 50.2 99.8 49.86C100.28 49.14 100.32 49.06 100.52 49.06C100.86 49.06 102.24 50.06 102.24 50.42C102.24 50.72 101.88 50.72 101.16 50.72H97.3C96.74 50.72 96.74 50.92 96.74 52.58C96.74 54.14 96.74 54.3 97.3 54.3H98.68C99.54 54.3 99.72 54.3 99.94 53.96C100.32 53.38 100.36 53.3 100.54 53.3C100.78 53.3 101.98 54.32 101.98 54.58C101.98 54.7 101.86 54.8 101.68 54.82C101.48 54.84 101.44 54.84 100.94 54.84H97.36C96.74 54.84 96.74 54.96 96.74 56.16C96.74 56.84 96.74 59.1 96.8 59.2C96.88 59.36 97.04 59.36 97.28 59.38C97.44 59.4 98.48 59.46 99.5 59.46C101.66 59.46 104.2 59.04 104.84 58.84C104.94 58.8 105.36 58.62 105.46 58.62C105.48 58.62 105.52 58.62 105.52 58.7C105.52 58.82 104.3 59.68 104.1 59.92C104.02 60.02 103.82 60.62 103.78 60.72C103.64 60.98 102.84 61 102.56 61C94.54 61 93.58 59.86 92.28 58.34C91.78 57.76 91.56 57.26 91.42 56.9C91.38 56.78 91.34 56.72 91.28 56.72C91.2 56.72 91.16 56.8 90.98 57.08C89.12 60.06 87.38 60.5 87.24 60.5C87.16 60.5 87.12 60.46 87.12 60.42C87.12 60.4 87.42 60.1 87.46 60.06C89.8 57.56 90.8 54.46 90.88 53.02C90.94 52.12 90.94 52.04 91.08 52.04C91.2 52.04 92.8 52.5 92.8 52.78C92.8 52.9 92.4 53.22 92.36 53.3C92.22 53.6 91.88 54.98 91.78 55.26C91.78 55.28 91.44 56.28 91.44 56.32C91.44 57.32 94.02 59.08 95.1 59.08C95.36 59.08 95.36 58.8 95.36 58.66C95.36 57.54 95.4 52.52 95.4 51.5C95.4 51 95.4 50.72 94.8 50.72ZM101.42 47.1H90C89.74 47.1 89.62 47.12 89.5 47.46C89.12 48.66 88.5 49.12 88.02 49.12C87.7 49.12 87.36 48.96 87.36 48.56C87.36 48.28 87.44 48.18 87.94 47.66C88.34 47.22 88.76 46.46 88.94 45.88C89.02 45.64 89.06 45.54 89.14 45.54C89.28 45.54 89.44 45.86 89.56 46.24C89.64 46.54 89.76 46.58 90.02 46.58H94.78C95.26 46.58 95.32 46.3 95.32 45.96C95.32 45.64 95.28 44.76 95.26 44.44C95.24 44.28 95.12 43.54 95.12 43.38C95.12 43.28 95.18 43.28 95.2 43.28C95.22 43.28 96.56 43.58 97.24 43.74C97.3 43.76 97.38 43.86 97.38 43.94C97.38 44.04 96.92 44.4 96.86 44.52C96.76 44.7 96.76 45.58 96.76 45.8C96.76 46.52 96.92 46.58 97.38 46.58H101.3C101.84 46.58 101.94 46.54 102.2 46.34C102.46 46.12 102.68 45.92 102.9 45.92C103.04 45.92 104.74 46.94 104.74 47.48C104.74 47.88 104.28 47.88 104.16 47.88C104.02 47.88 103.3 47.82 103.12 47.82C102.52 47.82 102.1 48.04 101.98 48.1C101.88 48.16 101.5 48.4 101.4 48.4C101.36 48.4 101.34 48.38 101.34 48.34C101.34 48.18 101.82 47.44 101.82 47.24C101.82 47.1 101.7 47.1 101.42 47.1ZM51.26 84.48H50.04C49.94 84.48 49.44 84.5 49.44 84.84C49.44 84.98 50.74 85.64 50.74 85.9C50.74 86 50.64 86.06 50.58 86.08C50.28 86.24 50.18 86.28 50.04 86.44C48.12 88.5 46.68 89.04 46.68 88.96C46.68 88.9 47.54 87.78 47.68 87.6C48.8 86 49.04 85.3 49.04 85.16C49.04 85.14 49.04 85.08 48.98 85.08C48.96 85.08 48.62 85.16 48.56 85.16C48.14 85.16 48.08 84.74 48.08 84.4C48.08 84.16 48.2 82.46 48.2 82.1C48.3 78.82 48.3 77.86 48.3 76.7C48.3 74.78 48.24 74.06 48.22 73.58C48.2 73.4 48.04 72.5 48.04 72.3C48.04 72.24 48.04 72.06 48.2 72.06C48.5 72.06 48.66 72.14 49.32 72.5C49.66 72.68 49.92 72.68 50.18 72.68H51.2C51.38 72.68 51.62 72.68 51.88 72.38C52.14 72.1 52.2 72.04 52.36 72.04C52.6 72.04 53.96 72.84 53.96 73.22C53.96 73.34 53.84 73.44 53.78 73.48C53.72 73.52 53.36 73.78 53.34 73.82C53.24 74 53.2 77.08 53.2 77.52C53.2 77.74 53.26 83.56 53.26 83.92C53.26 84.26 53.26 85.12 52.2 85.12C51.94 85.12 51.88 84.96 51.82 84.78C51.72 84.52 51.54 84.48 51.26 84.48ZM51.36 77H50.18C49.56 77 49.56 77.14 49.56 79.16C49.56 80.04 49.56 80.34 50.16 80.34H51.36C51.96 80.34 51.96 80.08 51.96 79.1C51.96 78.88 51.96 77.42 51.92 77.28C51.8 77 51.48 77 51.36 77ZM51.36 73.2H50.2C49.58 73.2 49.58 73.32 49.58 75.3C49.58 76.18 49.58 76.46 50.2 76.46H51.36C51.96 76.46 51.96 76.22 51.96 75.26C51.96 73.32 51.96 73.2 51.36 73.2ZM51.32 80.86H50.16C49.54 80.86 49.54 81.02 49.54 82.9C49.54 83.66 49.54 83.96 50.14 83.96H51.3C51.92 83.96 51.92 83.84 51.92 81.68C51.92 81.22 51.92 80.86 51.32 80.86ZM57.48 72.9H60.5C61.42 72.9 61.46 72.9 61.82 72.34C62 72.08 62.42 71.56 62.62 71.56C62.76 71.56 63.08 71.86 63.92 72.5C64.46 72.92 64.52 72.98 64.52 73.14C64.52 73.42 64.42 73.42 63.46 73.42H57.52C57.04 73.42 56.9 73.62 56.9 74.04C56.9 74.3 56.9 76.58 56.92 76.7C56.98 76.98 57.16 77.1 57.56 77.1H60.78C61 77.1 61.38 77.1 61.56 76.82C61.8 76.44 61.86 76.32 62.06 76.32C62.28 76.32 64.04 77.32 64.04 77.56C64.04 77.78 63.1 78.32 63 78.5C62.98 78.56 61.78 82.14 61.5 82.82C61.4 83.06 60.82 84.14 60.82 84.38C60.82 84.94 62.6 86.42 63.9 87.12C64.32 87.34 65.06 87.6 65.52 87.8C65.56 87.82 65.72 87.9 65.72 87.96C65.72 88.06 65.3 88.1 65.02 88.12C64.22 88.18 63.8 88.42 63.36 88.78C63.2 88.9 63.14 88.94 63.08 88.94C62.84 88.94 61.4 87.66 60.32 86.14C60.2 85.96 60.08 85.78 59.88 85.78C59.68 85.78 59.56 85.94 59.48 86.04C58.18 87.6 56.68 88.42 55.44 88.9C55.02 89.06 54.5 89.24 54.4 89.24C54.34 89.24 54.32 89.2 54.32 89.18C54.32 89.12 54.34 89.1 54.56 88.96C57.7 86.86 58.98 84.84 58.98 84.4C58.98 84.16 58.44 82.82 58.34 82.52C57.92 81.24 57.88 80.92 57.54 78.04C57.52 77.92 57.48 77.62 57.2 77.62C56.9 77.62 56.88 77.98 56.88 78.22C56.84 80.08 56.76 85.32 54.28 87.98C53.64 88.66 52.86 89.12 52.76 89.12C52.68 89.12 52.7 89.08 53 88.7C54.66 86.6 55.6 84.18 55.6 77.84C55.6 77.3 55.6 74.58 55.46 73.4C55.44 73.22 55.28 72.46 55.28 72.3C55.28 72.18 55.4 72.18 55.46 72.18C55.78 72.18 56.06 72.34 56.7 72.7C57.02 72.88 57.26 72.9 57.48 72.9ZM61.02 77.62H58.46C58.18 77.62 58 77.68 58 77.98C58 79.34 59.44 83.24 59.92 83.24C60.44 83.24 61.52 78.32 61.52 78.06C61.52 77.62 61.16 77.62 61.02 77.62ZM51.04 84.9C51.14 84.78 51.92 85.36 52.02 85.44C52.74 85.98 53.44 86.52 53.44 87.52C53.44 88.26 52.82 88.38 52.68 88.38C52.3 88.38 52.24 88.24 51.9 86.96C51.74 86.4 51.38 85.54 51.12 85.18C51.04 85.04 51 84.94 51.04 84.9ZM77.18 77.14H78.6C79.48 77.14 79.56 77.12 79.9 76.64C80.08 76.36 80.38 76 80.62 76C80.9 76 82.56 77.24 82.56 77.44C82.56 77.68 82.16 77.68 81.52 77.68H72.7C70.96 77.68 70.38 77.72 70.18 77.72C70.12 77.74 69.82 77.78 69.76 77.78C69.68 77.78 69.64 77.72 69.58 77.64L69.2 77.18C69.12 77.1 69.1 77.08 69.1 77.06C69.1 77.02 69.14 77 69.18 77C69.32 77 69.94 77.06 70.06 77.08C71.04 77.12 71.86 77.14 72.8 77.14H74.52C75.02 77.14 75.12 76.94 75.12 75.78C75.12 75.24 75.12 74.92 74.54 74.92H71.32C70.02 74.92 69.3 74.94 68.78 74.98C68.72 74.98 68.42 75.02 68.36 75.02C68.3 75.02 68.26 74.98 68.18 74.88L67.8 74.44C67.72 74.34 67.72 74.32 67.72 74.3C67.72 74.26 67.74 74.26 67.78 74.26C67.92 74.26 68.54 74.32 68.66 74.32C69.64 74.36 70.48 74.4 71.42 74.4H74.52C75.14 74.4 75.14 74.24 75.14 72.98C75.14 72.74 75.04 71.74 75.04 71.54C75.04 71.4 75.04 71.34 75.2 71.34C75.44 71.34 76.44 71.64 76.64 71.7C77.12 71.82 77.32 72.02 77.32 72.16C77.32 72.28 76.92 72.66 76.88 72.76C76.78 72.92 76.72 73.16 76.72 73.46C76.72 74.1 76.72 74.4 77.28 74.4H80.12C81.02 74.4 81.12 74.4 81.44 73.9C81.62 73.64 81.94 73.18 82.2 73.18C82.36 73.18 84.32 74.38 84.32 74.64C84.32 74.92 83.92 74.92 83.24 74.92H77.26C76.66 74.92 76.66 75.02 76.66 76.52C76.66 76.74 76.66 77.14 77.18 77.14ZM81.8 79.98H70.36C69.96 79.98 69.96 80.06 69.9 80.68C69.8 81.62 69.04 83.08 68.02 83.08C67.68 83.08 67.22 82.88 67.22 82.32C67.22 81.96 67.32 81.84 68.06 80.78C68.54 80.1 68.62 79.4 68.62 79.08C68.62 79 68.52 78.6 68.52 78.52C68.52 78.38 68.64 78.3 68.74 78.3C68.96 78.3 69.54 79.16 69.7 79.3C69.86 79.46 70.14 79.46 70.32 79.46H81.06C81.7 79.46 81.84 79.46 82.06 79.32C82.18 79.24 82.7 78.8 82.84 78.8C83.06 78.8 84.92 79.92 84.92 80.28C84.92 80.66 84.34 80.72 84.12 80.74C83.72 80.78 83.26 80.82 82.42 81.18C82.28 81.24 81.64 81.66 81.48 81.66C81.42 81.66 81.32 81.64 81.32 81.54C81.32 81.46 82.1 80.32 82.1 80.12C82.1 80.12 82.1 79.98 81.8 79.98ZM73.08 80.76C73.36 80.86 74.26 81.22 74.5 81.3C74.72 81.38 74.92 81.46 74.92 81.62C74.92 81.74 74.52 82.12 74.5 82.22C74.4 82.5 74.28 83.84 74.24 84.1C73.4 88.5 69.26 89.48 67.72 89.48C67.56 89.48 67.44 89.42 67.44 89.3C67.44 89.2 67.56 89.18 67.76 89.12C68.34 88.98 69.3 88.62 70.22 87.94C72.82 86.06 72.82 83.68 72.82 82.2C72.82 81.82 72.8 81.48 72.76 81.3C72.74 81.24 72.64 80.92 72.64 80.84C72.64 80.72 72.76 80.7 72.82 80.7C72.9 80.7 73 80.72 73.08 80.76ZM77.48 80.74C77.72 80.8 78.72 80.9 78.92 80.96C79.06 81 79.3 81.08 79.3 81.26C79.3 81.38 78.9 81.78 78.84 81.88C78.68 82.12 78.68 83.3 78.68 83.76C78.68 86.08 78.72 86.56 78.86 86.88C79.04 87.3 79.66 87.46 81.24 87.46C83.36 87.46 83.42 87 83.72 84.62C83.74 84.44 83.84 83.64 83.92 83.64C84.02 83.64 84.04 83.9 84.26 86.08C84.3 86.44 84.4 86.6 84.52 86.78C84.84 87.2 85.06 87.5 85.06 87.66C85.06 88.24 84.14 88.6 84.02 88.64C83.52 88.82 82.74 88.92 81.46 88.92C77.18 88.92 77.18 88.36 77.18 85.68C77.18 85.08 77.14 82.42 77.14 81.88C77.14 81.74 77.12 81.16 77.12 81.04C77.12 80.7 77.24 80.7 77.48 80.74Z" fill="white"/>
  </svg>
