<svg width="243" height="17" viewBox="0 0 243 17" fill="none" xmlns="http://www.w3.org/2000/svg">
  <path d="M7.945 5.31C7.911 5.174 7.775 5.174 7.741 5.174C7.622 5.174 4.052 6.007 3.967 6.041C3.848 6.075 3.321 6.364 3.202 6.364C2.947 6.364 2.148 5.854 2.046 5.752C1.927 5.633 1.638 4.885 1.638 4.766C1.638 4.681 1.655 4.63 1.74 4.63C1.757 4.63 2.131 4.732 2.182 4.749C2.709 4.902 2.913 4.919 3.083 4.919C3.661 4.919 6.857 4.647 7.741 4.29C7.894 4.222 8.523 3.763 8.676 3.763C9.084 3.763 10.121 4.63 10.121 5.055C10.121 5.208 9.492 5.667 9.39 5.786C9.05 6.194 7.707 8.183 7.435 8.574C7.367 8.659 7.299 8.778 7.299 8.914C7.299 9.067 7.333 9.101 8.047 9.492C8.812 9.934 11.855 11.651 11.855 13.198C11.855 13.589 11.549 13.946 11.158 13.946C10.767 13.946 10.699 13.827 10.104 12.773C8.931 10.716 7.435 9.424 7.061 9.424C6.891 9.424 6.84 9.475 6.466 9.9C5.871 10.529 4.137 12.433 1.927 13.538C1.468 13.759 1.009 13.929 0.873 13.929C0.839 13.929 0.754 13.929 0.754 13.827C0.754 13.759 1.434 13.266 1.536 13.198C5.973 9.985 7.996 5.582 7.945 5.31ZM27.92 3.593C29.144 3.593 29.518 4.647 29.518 5.208C29.518 6.126 28.77 6.874 27.903 6.874C27.121 6.874 26.254 6.228 26.254 5.225C26.254 4.375 26.917 3.593 27.92 3.593ZM27.886 4.171C27.495 4.171 26.815 4.511 26.815 5.259C26.815 5.99 27.461 6.296 27.92 6.296C28.651 6.296 28.974 5.65 28.974 5.259C28.974 4.596 28.345 4.171 27.886 4.171ZM22.786 5.072C23.466 5.072 24.044 5.735 24.503 6.313C24.605 6.449 27.07 9.288 29.059 10.58C29.348 10.767 30.623 11.532 30.844 11.719C30.946 11.787 31.218 12.025 31.218 12.348C31.218 12.739 30.81 12.858 30.504 12.858C30.011 12.858 28.719 12.858 24.503 7.758C24.299 7.52 23.466 6.466 23.279 6.262C23.194 6.177 22.99 6.007 22.769 6.007C22.48 6.007 22.463 6.007 20.066 8.234C19.624 8.642 19.59 8.676 19.301 9.101C19.131 9.356 18.825 9.628 18.451 9.628C18.111 9.628 17.89 9.543 17.023 8.642C16.955 8.557 16.819 8.421 16.819 8.115C16.819 8.03 16.836 7.911 16.938 7.911C17.023 7.911 17.38 7.979 17.465 7.979C18.247 7.979 19.114 7.656 21.239 5.939C22.038 5.293 22.31 5.072 22.786 5.072ZM38.188 14.456C37.814 14.456 37.644 14.184 37.219 13.402C37.168 13.317 36.862 12.96 36.811 12.875C36.76 12.79 36.709 12.654 36.709 12.552C36.709 12.484 36.76 12.433 36.862 12.433C37.015 12.433 37.661 12.654 37.797 12.654C38.528 12.654 43.101 10.104 47.164 5.497C47.249 5.395 47.844 4.732 47.895 4.732C47.929 4.732 47.963 4.749 47.963 4.8C47.963 4.987 46.467 8.625 39.429 13.555C39.225 13.691 38.409 14.456 38.188 14.456ZM37.542 6.619C38.273 6.619 39.31 7.299 39.31 8.132C39.31 8.472 39.055 8.982 38.647 8.982C38.392 8.982 38.307 8.88 38.052 8.455C37.695 7.843 37.117 7.401 36.505 7.044C36.454 7.01 36.352 6.942 36.352 6.874C36.352 6.636 37.321 6.619 37.542 6.619ZM39.514 3.372C41.35 3.372 41.35 4.698 41.35 4.749C41.35 5.14 41.078 5.514 40.806 5.514C40.619 5.514 40.534 5.446 39.922 4.715C39.463 4.171 38.868 3.933 38.46 3.814C38.392 3.797 38.205 3.746 38.205 3.695C38.205 3.644 38.681 3.372 39.514 3.372ZM62.634 6.755C63.127 6.755 64.249 7.639 64.249 8.081C64.249 8.353 64.011 8.438 63.705 8.54C63.348 8.659 63.263 8.727 62.498 9.288C62.209 9.492 61.172 10.206 60.951 10.206C60.883 10.206 60.866 10.138 60.866 10.121C60.866 9.934 62.345 8.353 62.345 7.928C62.345 7.809 62.226 7.792 62.158 7.792C62.073 7.792 60.033 8.285 59.795 8.336C59.183 8.489 59.115 8.506 59.115 8.778C59.115 9.05 59.999 11.855 60.577 13.317C60.968 14.32 61.053 14.575 61.053 14.881C61.053 15.238 60.883 15.595 60.696 15.595C60.526 15.595 59.829 15.136 59.676 14.643C59.591 14.371 58.673 10.41 58.435 9.628C58.231 8.948 58.197 8.863 57.959 8.863C57.789 8.863 56.582 9.169 56.038 9.407C55.341 9.696 55.273 9.73 55.171 9.73C55.001 9.73 54.916 9.679 54.168 9.169C53.947 9.016 53.828 8.846 53.828 8.557C53.828 8.455 53.845 8.132 53.981 8.132C54.032 8.132 54.287 8.234 54.355 8.251C54.763 8.387 55.086 8.387 55.256 8.387C55.936 8.387 57.211 8.2 57.636 8.081C57.738 8.047 57.874 7.962 57.874 7.809C57.874 7.537 57.602 6.364 57.041 5.905C56.973 5.854 56.701 5.684 56.65 5.65C56.633 5.633 56.616 5.599 56.616 5.565C56.616 5.293 57.313 5.293 57.466 5.293C58.163 5.293 58.724 5.429 58.724 5.973C58.724 6.806 58.724 7.724 59.115 7.724C59.472 7.724 61.274 7.333 61.631 7.197C61.784 7.146 62.481 6.755 62.634 6.755ZM74.636 6.296C74.636 6.347 73.769 8.795 73.48 9.441C72.46 11.651 70.675 12.671 70.335 12.671C70.267 12.671 70.25 12.62 70.25 12.586C70.25 12.45 70.794 11.855 70.93 11.685C72.8 9.118 72.987 7.265 72.987 6.704C72.987 6.262 72.97 6.075 72.698 5.242C72.664 5.123 72.63 5.021 72.63 4.936C72.63 4.885 72.647 4.851 72.715 4.851C72.834 4.851 74.636 5.429 74.636 6.296ZM77.628 12.416C77.135 12.501 76.234 11.498 76.234 11.022C76.234 10.937 76.319 10.495 76.336 10.41C76.387 10.087 76.404 8.744 76.404 8.319C76.404 6.245 76.2 5.548 76.081 5.123C76.047 5.038 75.86 4.596 75.86 4.511C75.86 4.443 75.928 4.426 75.962 4.426C76.047 4.426 77.832 4.732 77.832 5.616C77.832 5.82 77.594 6.704 77.56 6.891C77.492 7.35 77.424 9.407 77.424 9.968C77.424 10.189 77.441 10.529 77.747 10.529C78.257 10.529 79.821 9.407 81.453 7.758C81.742 7.469 83.187 5.939 83.255 5.939C83.289 5.939 83.323 5.973 83.323 6.007C83.323 6.143 82.337 8.251 79.362 10.869C78.478 11.634 78.308 11.804 78.189 11.957C77.9 12.28 77.747 12.399 77.628 12.416ZM86.995 6.551C87.08 6.551 87.437 6.636 87.505 6.653C87.76 6.687 88.746 6.806 88.967 6.806C89.307 6.806 90.786 6.704 91.092 6.704C91.415 6.687 91.602 6.636 91.602 6.228C91.602 5.718 91.5 4.766 91.228 4.341C91.177 4.273 90.905 3.984 90.905 3.916C90.905 3.797 91.415 3.746 91.5 3.746C91.891 3.746 93.03 4.545 93.03 4.885C93.03 5.004 92.741 5.497 92.724 5.599C92.639 5.786 92.656 6.041 92.656 6.211C92.656 6.466 92.826 6.568 93.064 6.568C93.506 6.568 94.577 6.5 95.002 6.466C95.376 6.432 95.376 6.143 95.376 5.973C95.376 5.395 95.376 3.627 95.257 3.202C95.206 3.049 94.73 2.369 94.73 2.335C94.73 2.267 94.917 2.165 95.121 2.165C95.461 2.165 95.971 2.42 96.481 2.675C96.651 2.76 96.906 2.879 96.906 3.083C96.906 3.202 96.651 3.61 96.617 3.695C96.447 4.086 96.447 5.14 96.447 5.599C96.447 6.143 96.447 6.313 96.855 6.313C96.94 6.313 97.603 6.262 98.011 6.126C98.572 5.922 98.623 5.905 98.861 5.905C99.711 5.905 101.207 6.194 101.207 7.027C101.207 7.384 100.901 7.52 100.663 7.52C100.459 7.52 99.541 7.316 99.354 7.282C98.776 7.197 97.076 7.163 97.042 7.163C96.532 7.163 96.532 7.282 96.481 8.268C96.413 9.883 96.226 11.838 94.679 13.742C93.914 14.677 93.047 15.272 92.911 15.272C92.86 15.272 92.809 15.238 92.809 15.17C92.809 15.153 93.659 14.065 93.795 13.844C95.138 11.855 95.444 9.951 95.444 7.758C95.444 7.214 95.172 7.214 94.934 7.214C94.305 7.214 93.081 7.299 92.911 7.384C92.69 7.503 92.69 7.571 92.69 8.302C92.69 8.676 92.792 10.325 92.792 10.648C92.792 11.464 92.707 11.77 92.469 11.77C92.061 11.77 91.568 10.699 91.568 10.41C91.568 10.24 91.721 8.608 91.721 8.438C91.721 7.622 91.619 7.52 91.33 7.52C91.126 7.52 90.123 7.673 89.154 7.928C89.052 7.962 88.661 8.115 88.559 8.115C88.355 8.115 86.876 7.367 86.876 6.704C86.876 6.602 86.944 6.551 86.995 6.551ZM111.968 6.602C111.968 6.704 112.019 6.772 112.121 6.84C112.784 7.248 112.852 7.316 112.852 7.469C112.852 7.571 112.665 8.047 112.648 8.149C112.58 8.455 112.546 8.812 112.546 11.158C112.546 11.617 112.563 12.535 112.597 13.198C112.614 13.402 112.716 14.388 112.716 14.609C112.716 14.779 112.716 15.357 112.308 15.357C111.832 15.357 111.254 14.626 111.254 14.167C111.254 13.997 111.424 13.249 111.441 13.079C111.543 12.161 111.611 10.852 111.611 9.951C111.611 9.339 111.611 7.554 111.169 7.554C111.084 7.554 111.016 7.622 110.88 7.758C109.214 9.356 106.358 11.005 106.052 11.005C106.001 11.005 105.967 10.971 105.967 10.903C105.967 10.852 105.984 10.818 106.018 10.784C106.46 10.393 106.936 10.002 107.208 9.764C111.22 6.33 112.546 3.44 112.546 2.964C112.546 2.794 112.495 2.641 112.41 2.488C112.393 2.454 112.291 2.25 112.291 2.216C112.291 2.148 112.376 2.08 112.461 2.08C112.716 2.08 114.433 2.794 114.433 3.44C114.433 3.61 114.348 3.729 114.28 3.78C113.821 4.154 113.753 4.256 113.124 5.174C112.835 5.582 112.291 6.194 111.968 6.602ZM126.809 2.318C126.826 2.165 127.268 2.165 127.285 2.165C127.897 2.165 129.121 2.709 129.121 3.253C129.121 3.372 128.951 3.865 128.917 3.967C128.832 4.392 128.764 5.905 128.764 6.33C128.764 6.704 128.832 6.755 129.325 6.874C130.362 7.112 132.997 8.353 132.997 9.628C132.997 10.189 132.47 10.223 132.385 10.223C131.96 10.223 131.909 10.155 130.77 8.676C130.294 8.047 129.495 7.248 128.968 7.248C128.798 7.248 128.73 7.248 128.73 8.506C128.73 10.308 128.747 11.209 128.815 12.739C128.832 12.926 128.849 13.351 128.849 13.606C128.849 14.031 128.849 15.153 128.356 15.153C127.846 15.153 127.404 13.997 127.404 13.555C127.404 13.487 127.472 13.13 127.472 13.062C127.591 11.651 127.625 11.209 127.625 9.118C127.625 4.256 127.625 3.712 127.421 3.168C127.285 2.811 127.115 2.641 126.843 2.386L126.809 2.318ZM139.1 8.166L138.777 7.792C138.726 7.724 138.692 7.69 138.692 7.656C138.692 7.622 138.743 7.622 138.76 7.622C139.1 7.622 140.8 7.741 141.191 7.741C141.582 7.741 141.684 7.656 141.82 7.503C141.905 7.401 142.262 6.772 142.415 6.772C142.483 6.772 143.503 7.707 143.503 7.911C143.503 8.013 143.146 8.353 143.078 8.438C142.925 8.71 142.925 10.206 142.925 10.648C142.925 11.991 142.925 12.824 144.013 13.606C144.778 14.167 145.917 14.405 149.13 14.405C150.15 14.405 151.085 14.405 152.972 14.218C153.193 14.201 154.298 14.014 154.4 14.014C154.434 14.014 154.587 14.014 154.587 14.116C154.587 14.15 154.417 14.354 154.383 14.405C154.128 14.694 154.111 14.745 153.771 15.51C153.686 15.714 153.601 15.714 152.802 15.714C151.374 15.714 147.549 15.663 146.24 15.408C144.251 15.017 143.775 14.235 143.35 13.521C142.857 12.654 142.789 12.552 142.619 12.552C142.466 12.552 142.347 12.637 142.279 12.705C142.024 12.926 141.871 13.096 140.545 14.694C140.426 14.83 139.984 15.68 139.797 15.68C139.627 15.68 138.743 14.422 138.743 14.388C138.743 14.201 138.811 14.184 139.457 13.963C140.052 13.776 141.446 12.807 141.548 12.671C141.735 12.45 141.752 12.45 141.752 8.71C141.752 8.183 141.565 8.183 140.817 8.183C140.562 8.183 139.287 8.268 139.253 8.268C139.185 8.268 139.168 8.234 139.1 8.166ZM139.559 1.366C140.987 1.876 141.854 2.199 142.449 2.981C142.772 3.389 142.925 3.899 142.925 4.222C142.925 4.647 142.585 4.97 142.296 4.97C141.905 4.97 141.667 4.528 141.463 4.171C141.106 3.508 140.409 2.539 139.372 1.621C139.372 1.604 139.168 1.434 139.168 1.4C139.168 1.332 139.27 1.332 139.321 1.332C139.389 1.332 139.491 1.349 139.559 1.366ZM153.21 6.602H151.034C150.524 6.602 150.524 6.908 150.524 7.265C150.524 8.081 150.592 12.11 150.592 13.028C150.592 13.419 150.524 13.844 149.81 13.844C149.385 13.844 149.283 13.708 149.283 13.402C149.283 13.249 149.419 9.968 149.419 9.322C149.419 9.118 149.351 6.976 149.334 6.891C149.249 6.602 149.045 6.602 148.858 6.602H147.243C147.005 6.602 146.699 6.602 146.682 7.061C146.648 7.656 146.631 8.404 146.563 8.965C146.206 12.025 144.268 13.3 144.149 13.3C144.081 13.3 144.064 13.232 144.064 13.198C144.064 13.062 144.506 12.45 144.591 12.314C145.594 10.529 145.594 8.336 145.594 5.973C145.594 5.14 145.594 3.95 145.492 3.185C145.458 3.066 145.305 2.505 145.305 2.369C145.305 2.301 145.305 2.131 145.509 2.131C145.679 2.131 145.781 2.199 146.189 2.42C146.597 2.641 146.784 2.658 146.903 2.658C147.43 2.658 150.847 1.57 151.578 1.094C151.646 1.043 151.952 0.788 152.037 0.788C152.258 0.788 153.499 1.842 153.499 2.046C153.499 2.301 153.091 2.301 152.53 2.301C152.36 2.301 152.054 2.284 151.663 2.369C150.864 2.522 150.235 2.675 147.668 2.93C146.971 2.998 146.886 2.998 146.801 3.1C146.682 3.219 146.682 3.457 146.682 5.65C146.682 5.973 146.767 6.16 147.226 6.16H150.762C151.34 6.16 151.578 6.16 151.799 5.99C151.935 5.905 152.428 5.174 152.615 5.174C152.802 5.174 154.111 6.194 154.111 6.381C154.111 6.568 153.958 6.602 153.21 6.602ZM166.81 14.303H161.574C161.472 14.303 161.115 14.303 161.081 14.66C161.047 15.102 161.013 15.578 160.265 15.578C159.704 15.578 159.67 15.238 159.67 14.949C159.67 14.881 159.772 11.481 159.772 10.835C159.772 8.982 159.772 4.936 159.636 3.219C159.619 3.066 159.534 2.352 159.534 2.199C159.534 2.114 159.551 2.063 159.636 2.063C159.704 2.063 159.789 2.097 160.435 2.42C160.911 2.641 160.996 2.658 161.285 2.658H166.487C166.844 2.658 166.98 2.658 167.099 2.488C167.354 2.131 167.422 2.046 167.592 2.046C167.83 2.046 169.071 2.845 169.071 3.1C169.071 3.219 168.986 3.287 168.697 3.542C168.476 3.712 168.391 3.831 168.391 4.647C168.391 6.466 168.408 6.772 168.425 8.268C168.442 9.237 168.561 13.538 168.561 14.422C168.561 15.017 168.17 15.357 167.711 15.357C167.66 15.357 167.218 15.357 167.167 14.711C167.15 14.422 167.15 14.303 166.81 14.303ZM161.455 8.132H166.674C167.167 8.132 167.167 7.809 167.167 7.588C167.167 7.384 167.116 3.423 167.082 3.338C166.98 3.117 166.759 3.117 166.657 3.117H161.404C161.166 3.117 161.03 3.27 161.013 3.372C160.979 3.508 160.979 7.197 160.979 7.503C160.979 7.826 160.996 8.132 161.455 8.132ZM161.54 13.844H166.657C166.81 13.844 167.116 13.844 167.15 13.487C167.167 13.385 167.167 9.611 167.167 9.22C167.167 8.863 167.133 8.574 166.674 8.574H161.472C161.03 8.574 160.979 8.829 160.979 9.169C160.979 9.73 161.03 12.467 161.03 13.079C161.03 13.623 161.081 13.844 161.54 13.844ZM186.836 16.241C186.445 16.275 186.343 16.037 186.122 15.34C186.071 15.204 185.714 14.235 185.629 14.048C185.544 13.878 185.459 13.776 185.306 13.776C185.102 13.776 181.77 14.524 181.107 14.643C180.359 14.779 176.67 15.459 176.398 15.561C176.313 15.612 175.956 15.952 175.871 15.952C175.718 15.952 175.65 15.799 175.497 15.442C175.31 15.017 174.987 14.235 174.987 14.167C174.987 14.065 175.072 14.048 175.191 14.048C176.092 14.048 177.826 14.048 178.115 13.759C178.608 13.266 179.866 8.642 179.883 8.608C179.985 8.2 180.087 7.758 180.087 7.35C180.087 7.18 180.121 7.061 180.274 7.061C180.461 7.061 182.059 7.775 182.059 8.098C182.059 8.302 181.906 8.336 181.617 8.404C181.311 8.472 181.277 8.472 180.07 11.056C179.883 11.481 178.829 13.521 178.829 13.64C178.829 13.827 179.033 13.861 179.152 13.861C179.73 13.861 183.793 13.521 184.031 13.504C185.085 13.402 185.204 13.402 185.204 13.232C185.204 12.875 183.623 10.92 183.623 10.716C183.623 10.699 183.657 10.665 183.674 10.665C184.218 10.665 187.584 13.674 187.584 15.153C187.584 15.663 187.244 16.19 186.836 16.241ZM181.464 2.267L181.175 1.876C181.158 1.859 181.124 1.791 181.124 1.757C181.124 1.74 181.141 1.723 181.158 1.723C181.294 1.723 182.263 1.876 182.467 1.876C182.807 1.876 182.875 1.791 183.13 1.502C183.606 0.957999 183.674 0.889999 183.776 0.889999C183.98 0.889999 185.034 1.825 185.034 2.08C185.034 2.284 184.881 2.284 184.405 2.284C184.269 2.284 184.014 2.284 184.014 2.556C184.014 3.44 185.459 6.415 188.927 8.285C189.318 8.489 189.352 8.523 189.352 8.591C189.352 8.71 189.182 8.71 189.063 8.71C188.655 8.71 188.247 8.744 187.924 8.965C187.839 9.016 187.584 9.407 187.499 9.407C187.006 9.407 183.878 5.701 183.521 2.913C183.453 2.386 183.436 2.284 183.113 2.284C182.365 2.284 182.246 2.284 181.94 2.318C181.889 2.318 181.617 2.369 181.549 2.369C181.515 2.335 181.481 2.284 181.464 2.267ZM178.931 1.366C178.982 1.4 180.427 2.335 180.427 2.658C180.427 2.811 180.393 2.828 179.849 2.896C179.73 2.896 179.679 2.981 179.271 3.661C178.438 5.038 177.01 7.231 175.106 8.642C174.596 9.033 174.12 9.271 173.984 9.271C173.967 9.271 173.882 9.271 173.882 9.203C173.882 9.152 174.596 8.472 174.715 8.336C177.146 5.684 178.353 2.42 178.506 1.774C178.608 1.298 178.693 1.298 178.761 1.298C178.812 1.298 178.88 1.349 178.931 1.366ZM193.874 1.893H196.509C196.713 1.893 196.815 1.893 196.985 1.706C197.087 1.587 197.291 1.298 197.478 1.298C197.75 1.298 198.498 2.08 198.498 2.369C198.498 2.471 198.481 2.505 198.192 2.794C198.022 2.964 198.022 3.372 198.022 3.627C198.022 3.984 198.073 5.752 198.073 6.16C198.073 6.993 197.444 7.01 197.325 7.01C196.968 7.01 196.917 6.772 196.832 6.296C196.781 6.024 196.543 6.024 196.288 6.024H194.095C193.517 6.024 193.517 6.16 193.517 6.687C193.517 8.999 193.534 12.705 193.534 15.017C193.534 15.34 193.534 16.156 192.786 16.156C192.293 16.156 192.293 15.731 192.293 15.561C192.293 15.51 192.327 15.102 192.327 14.898C192.48 10.563 192.48 10.274 192.48 6.313C192.48 4.273 192.446 3.61 192.429 3.202C192.412 3.015 192.327 1.638 192.327 1.587C192.327 1.519 192.327 1.417 192.395 1.417C192.701 1.417 193.075 1.638 193.228 1.723C193.517 1.893 193.636 1.893 193.874 1.893ZM194.01 3.729H196.475C196.951 3.729 196.951 3.695 196.951 2.947C196.951 2.42 196.951 2.352 196.475 2.352H194.01C193.534 2.352 193.534 2.386 193.534 3.134C193.534 3.644 193.534 3.729 194.01 3.729ZM196.492 4.171H193.959C193.517 4.171 193.517 4.256 193.517 4.834C193.517 5.514 193.517 5.582 193.959 5.582H196.492C196.934 5.582 196.934 5.48 196.934 4.953C196.934 4.239 196.934 4.171 196.492 4.171ZM201.439 1.893H204.176C204.397 1.893 204.533 1.893 204.754 1.621C204.958 1.383 205.06 1.247 205.162 1.247C205.417 1.247 206.301 1.859 206.301 2.335C206.301 2.454 206.233 2.505 206.216 2.522C205.927 2.743 205.876 2.794 205.825 2.93C205.774 3.1 205.757 4.664 205.757 5.361C205.74 6.568 205.774 12.501 205.774 13.844C205.774 15.017 205.638 15.578 205.128 15.867C204.822 16.037 204.397 16.173 204.227 16.173C204.091 16.173 204.057 16.139 203.819 15.714C203.734 15.544 202.952 14.915 202.952 14.898C202.952 14.847 203.054 14.847 203.088 14.847C203.275 14.864 203.581 14.864 203.768 14.864C204.499 14.864 204.601 14.762 204.601 13.657C204.601 12.654 204.635 7.69 204.635 6.568C204.635 6.126 204.448 6.109 204.074 6.109H201.677C201.167 6.109 201.15 6.211 201.116 6.551C201.065 7.01 200.453 7.095 200.351 7.095C200.147 7.095 199.926 7.027 199.926 6.551V3.508C199.926 3.236 199.841 1.995 199.841 1.706C199.841 1.638 199.875 1.434 200.028 1.434C200.215 1.434 200.351 1.502 200.912 1.774C201.15 1.893 201.235 1.893 201.439 1.893ZM204.159 2.352H201.541C201.048 2.352 201.048 2.386 201.048 3.049C201.048 3.661 201.048 3.695 201.541 3.695H204.159C204.414 3.695 204.652 3.695 204.652 3.389C204.652 3.1 204.652 2.573 204.618 2.505C204.567 2.352 204.414 2.352 204.159 2.352ZM204.142 4.154H201.558C201.218 4.154 201.099 4.154 201.065 4.375C201.048 4.443 201.048 5.191 201.048 5.293C201.048 5.667 201.184 5.667 201.558 5.667H204.142C204.635 5.667 204.635 5.65 204.635 5.021C204.635 4.239 204.635 4.154 204.142 4.154ZM202.136 8.319H201.388C200.946 8.319 200.759 8.319 200.759 8.778V10.172C200.759 10.359 200.776 10.563 201.031 10.563H201.626C201.779 10.563 201.949 10.563 202.136 10.291C202.527 9.764 202.561 9.713 202.731 9.713C202.986 9.713 203.853 10.546 203.853 10.784C203.853 11.005 203.496 11.005 202.952 11.005H201.303C200.912 11.005 200.759 11.056 200.759 11.481V14.609C200.759 15.204 200.266 15.459 199.96 15.459C199.603 15.459 199.603 15.255 199.603 14.898C199.603 14.405 199.739 12.008 199.739 11.464C199.739 11.022 199.518 11.005 199.195 11.005H198.6C198.192 11.005 198.056 11.022 198.022 11.413C197.92 12.28 197.75 13.266 196.73 14.473C196.033 15.289 195.404 15.612 195.319 15.612C195.268 15.612 195.2 15.561 195.2 15.51C195.2 15.476 195.234 15.442 195.455 15.204C196.339 14.235 197.053 12.518 197.053 11.328C197.053 11.09 196.934 11.005 196.713 11.005C196.475 11.005 195.71 11.005 195.2 11.056C195.149 11.056 194.894 11.09 194.843 11.09C194.775 11.09 194.741 11.056 194.69 10.988L194.35 10.597C194.282 10.512 194.282 10.512 194.282 10.478C194.282 10.444 194.316 10.444 194.35 10.444C194.69 10.444 196.373 10.563 196.747 10.563C197.019 10.563 197.121 10.461 197.121 10.189V8.778C197.121 8.557 197.087 8.336 196.679 8.336C196.526 8.336 195.71 8.404 195.591 8.404C195.54 8.404 195.506 8.37 195.438 8.302L195.115 7.911C195.047 7.826 195.047 7.826 195.047 7.792C195.047 7.758 195.081 7.758 195.098 7.758C195.217 7.758 195.727 7.809 195.846 7.809C196.339 7.826 197.223 7.877 198.192 7.877H200.334C201.065 7.877 201.218 7.86 201.422 7.605C201.762 7.146 201.813 7.095 201.966 7.095C202.187 7.095 203.037 7.826 203.037 8.098C203.037 8.319 202.68 8.319 202.136 8.319ZM198.634 10.563H199.195C199.535 10.563 199.705 10.563 199.739 10.325V8.812C199.739 8.336 199.688 8.319 199.195 8.319H198.634C198.209 8.319 198.09 8.319 198.09 8.727V10.155C198.09 10.563 198.226 10.563 198.634 10.563ZM211.809 6.823H216.416C216.807 6.823 216.977 6.823 216.977 6.619C216.977 6.602 216.586 5.718 214.75 4.239C214.291 3.865 214.24 3.831 214.24 3.763C214.24 3.712 214.308 3.712 214.325 3.712C214.393 3.712 215.277 3.95 215.94 4.205C216.195 4.29 217.47 4.8 217.521 4.8C217.674 4.8 217.742 4.817 218.303 4.12C218.507 3.882 219.272 2.828 219.272 2.624C219.272 2.437 219.068 2.437 218.864 2.437H213.934C213.526 2.437 212.387 2.437 211.792 2.488C211.741 2.488 211.486 2.522 211.435 2.522C211.367 2.522 211.333 2.488 211.282 2.42L210.959 2.029C210.874 1.944 210.874 1.944 210.874 1.91C210.874 1.876 210.908 1.876 210.942 1.876C211.044 1.876 211.571 1.927 211.69 1.927C212.183 1.961 213.05 1.995 214.019 1.995H219.051C219.578 1.995 219.765 1.995 219.901 1.842C220.156 1.536 220.309 1.366 220.445 1.366C220.717 1.366 222.145 2.216 222.145 2.505C222.145 2.675 222.077 2.692 221.431 2.828C221.057 2.896 220.785 3.066 218.388 4.681C217.895 5.004 217.861 5.021 217.861 5.174C217.861 5.259 217.895 5.31 217.963 5.412C218.065 5.565 218.15 5.752 218.15 5.99C218.15 6.058 218.133 6.194 218.065 6.313C217.963 6.483 217.929 6.534 217.929 6.653C217.929 6.823 218.082 6.823 218.252 6.823H221.278C222.026 6.823 222.077 6.789 222.145 6.738C222.468 6.483 222.57 6.398 222.689 6.398C222.91 6.398 224.355 7.605 224.355 7.945C224.355 8.166 224.134 8.217 224.032 8.217C223.93 8.217 223.42 8.115 223.301 8.115C222.842 8.115 222.706 8.2 221.55 9.016C221.38 9.135 220.836 9.543 220.768 9.543C220.7 9.543 220.649 9.492 220.649 9.424C220.649 9.39 221.839 7.775 221.839 7.469C221.839 7.282 221.703 7.265 221.329 7.265H217.912C217.555 7.265 217.249 7.282 217.249 7.741C217.249 8.387 217.334 13.606 217.334 13.742C217.334 14.354 217.3 15.119 216.892 15.595C216.552 16.02 216.042 16.207 215.838 16.207C215.583 16.207 215.498 16.071 215.175 15.578C215.073 15.408 214.784 15.119 214.376 14.932C214.206 14.847 213.356 14.575 213.356 14.422C213.356 14.354 213.492 14.32 213.56 14.32C213.628 14.32 213.934 14.371 214.002 14.371C214.325 14.405 214.631 14.422 214.937 14.422C215.668 14.422 215.923 14.388 216.025 14.048C216.11 13.708 216.11 11.396 216.11 10.835C216.11 10.393 216.059 8.285 216.059 7.809C216.059 7.571 216.059 7.265 215.549 7.265H211.724C211.316 7.265 210.177 7.282 209.582 7.316C209.531 7.316 209.276 7.35 209.225 7.35C209.157 7.35 209.14 7.316 209.072 7.248L208.749 6.857C208.664 6.772 208.664 6.772 208.664 6.738C208.664 6.704 208.715 6.704 208.732 6.704C208.834 6.704 209.361 6.755 209.48 6.755C209.973 6.789 210.84 6.823 211.809 6.823ZM233.11 7.112H231.58C230.084 7.112 229.608 7.146 229.438 7.163C229.37 7.163 229.132 7.197 229.081 7.197C229.013 7.197 228.979 7.163 228.928 7.095L228.605 6.704C228.537 6.619 228.52 6.619 228.52 6.585C228.52 6.568 228.554 6.551 228.588 6.551C228.707 6.551 229.234 6.602 229.336 6.602C230.169 6.636 230.866 6.67 231.665 6.67H236.272C237.003 6.67 237.173 6.67 237.36 6.381C237.768 5.769 237.802 5.701 237.972 5.701C238.261 5.701 239.434 6.551 239.434 6.857C239.434 7.112 239.128 7.112 238.516 7.112H235.235C234.759 7.112 234.759 7.282 234.759 8.693C234.759 10.019 234.759 10.155 235.235 10.155H236.408C237.139 10.155 237.292 10.155 237.479 9.866C237.802 9.373 237.836 9.305 237.989 9.305C238.193 9.305 239.213 10.172 239.213 10.393C239.213 10.495 239.111 10.58 238.958 10.597C238.788 10.614 238.754 10.614 238.329 10.614H235.286C234.759 10.614 234.759 10.716 234.759 11.736C234.759 12.314 234.759 14.235 234.81 14.32C234.878 14.456 235.014 14.456 235.218 14.473C235.354 14.49 236.238 14.541 237.105 14.541C238.941 14.541 241.1 14.184 241.644 14.014C241.729 13.98 242.086 13.827 242.171 13.827C242.188 13.827 242.222 13.827 242.222 13.895C242.222 13.997 241.185 14.728 241.015 14.932C240.947 15.017 240.777 15.527 240.743 15.612C240.624 15.833 239.944 15.85 239.706 15.85C232.889 15.85 232.073 14.881 230.968 13.589C230.543 13.096 230.356 12.671 230.237 12.365C230.203 12.263 230.169 12.212 230.118 12.212C230.05 12.212 230.016 12.28 229.863 12.518C228.282 15.051 226.803 15.425 226.684 15.425C226.616 15.425 226.582 15.391 226.582 15.357C226.582 15.34 226.837 15.085 226.871 15.051C228.86 12.926 229.71 10.291 229.778 9.067C229.829 8.302 229.829 8.234 229.948 8.234C230.05 8.234 231.41 8.625 231.41 8.863C231.41 8.965 231.07 9.237 231.036 9.305C230.917 9.56 230.628 10.733 230.543 10.971C230.543 10.988 230.254 11.838 230.254 11.872C230.254 12.722 232.447 14.218 233.365 14.218C233.586 14.218 233.586 13.98 233.586 13.861C233.586 12.909 233.62 8.642 233.62 7.775C233.62 7.35 233.62 7.112 233.11 7.112ZM238.737 4.035H229.03C228.809 4.035 228.707 4.052 228.605 4.341C228.282 5.361 227.755 5.752 227.347 5.752C227.075 5.752 226.786 5.616 226.786 5.276C226.786 5.038 226.854 4.953 227.279 4.511C227.619 4.137 227.976 3.491 228.129 2.998C228.197 2.794 228.231 2.709 228.299 2.709C228.418 2.709 228.554 2.981 228.656 3.304C228.724 3.559 228.826 3.593 229.047 3.593H233.093C233.501 3.593 233.552 3.355 233.552 3.066C233.552 2.794 233.518 2.046 233.501 1.774C233.484 1.638 233.382 1.009 233.382 0.872999C233.382 0.788 233.433 0.788 233.45 0.788C233.467 0.788 234.606 1.043 235.184 1.179C235.235 1.196 235.303 1.281 235.303 1.349C235.303 1.434 234.912 1.74 234.861 1.842C234.776 1.995 234.776 2.743 234.776 2.93C234.776 3.542 234.912 3.593 235.303 3.593H238.635C239.094 3.593 239.179 3.559 239.4 3.389C239.621 3.202 239.808 3.032 239.995 3.032C240.114 3.032 241.559 3.899 241.559 4.358C241.559 4.698 241.168 4.698 241.066 4.698C240.947 4.698 240.335 4.647 240.182 4.647C239.672 4.647 239.315 4.834 239.213 4.885C239.128 4.936 238.805 5.14 238.72 5.14C238.686 5.14 238.669 5.123 238.669 5.089C238.669 4.953 239.077 4.324 239.077 4.154C239.077 4.035 238.975 4.035 238.737 4.035Z" fill="white"/>
  </svg>
