<svg width="254" height="135" viewBox="0 0 254 119" fill="none" xmlns="http://www.w3.org/2000/svg">
  <path d="M14.688 7.416H17.536C18.048 7.416 18.496 7.256 18.496 6.52C18.496 2.52 18.496 2.232 18.368 1.56C18.336 1.4 18.112 0.727999 18.112 0.599998C18.112 0.279999 18.4 0.279999 18.56 0.279999C19.04 0.279999 21.984 1.08 21.984 1.752C21.984 2.008 21.888 2.072 21.44 2.456C20.928 2.872 20.768 3 20.768 6.52C20.768 7.416 21.536 7.416 21.792 7.416H23.296C24.48 7.416 24.736 7.352 24.928 7.128C25.152 6.84 25.984 5.304 26.304 5.304C26.752 5.304 28.992 7.352 28.992 7.832C28.992 8.248 28.8 8.248 27.264 8.248H21.728C20.8 8.248 20.736 8.824 20.736 9.272C20.736 9.336 20.736 13.88 20.8 14.04C20.992 14.52 21.472 14.52 21.696 14.52H24.64C26.048 14.52 26.208 14.52 26.496 14.264C26.784 13.976 27.84 12.472 28.192 12.472C28.576 12.472 30.848 14.328 30.848 14.872C30.848 15.384 30.304 15.384 29.248 15.384H23.168C22.144 15.384 22.112 15.768 22.112 16.76C22.112 18.072 22.112 24.216 22.24 25.08C22.336 25.848 22.464 26.488 25.056 26.488C27.68 26.488 27.904 25.976 28.576 23.928C29.152 22.232 29.184 22.072 29.312 21.528C29.344 21.496 29.408 21.208 29.504 21.208C29.632 21.208 29.696 21.944 29.728 22.136C29.92 24.344 29.952 24.6 30.336 25.24C30.752 25.944 30.816 26.04 30.816 26.232C30.816 26.392 30.368 28.6 25.76 28.6C20.352 28.6 20 27.416 20 23.864V16.12C19.904 15.384 19.328 15.384 19.072 15.384H16.704C16.64 15.384 16.544 15.384 16.544 15.48C16.544 15.544 17.152 15.864 17.248 15.896C17.568 16.088 17.728 16.152 17.728 16.344C17.728 16.536 17.056 16.952 16.992 17.08C16.768 17.496 16.64 19.544 16.576 19.928C16.352 21.368 15.552 26.36 10.496 28.472C9.984 28.696 8.672 29.112 8.16 29.112C8.096 29.112 8.064 29.08 8.064 29.048C8.064 28.952 9.248 28.312 9.472 28.184C10.88 27.256 14.848 24.696 14.848 17.048C14.848 16.056 14.848 15.384 13.952 15.384C13.472 15.384 11.616 15.384 10.752 15.448C10.624 15.48 10.176 15.544 10.048 15.544C9.952 15.544 9.888 15.448 9.792 15.32L9.152 14.584C9.024 14.456 9.024 14.424 9.024 14.392C9.024 14.328 9.056 14.296 9.152 14.296C9.344 14.296 10.336 14.424 10.56 14.424C12.128 14.488 13.44 14.52 14.944 14.52H17.472C17.952 14.52 18.496 14.52 18.496 13.656V8.952C18.4 8.248 17.888 8.248 17.6 8.248H14.144C13.856 8.248 13.536 8.248 13.088 8.856C12.736 9.336 10.816 11.832 10.4 11.832C10.304 11.832 10.304 11.768 10.304 11.736C10.304 11.672 11.456 9.24 11.648 8.824C12.384 7.064 13.408 4.28 13.408 2.584C13.408 1.912 13.408 1.72 13.696 1.72C13.888 1.72 16.416 2.904 16.416 3.736C16.416 4.056 16.256 4.12 15.968 4.248C15.584 4.408 15.488 4.568 14.688 6.104C14.304 6.84 14.272 6.904 14.272 7C14.272 7.032 14.272 7.416 14.688 7.416ZM4.416 8.44C4.928 8.664 6.336 9.432 6.336 10.808C6.336 11.608 5.856 12.056 5.312 12.056C4.672 12.056 4.544 11.864 3.36 10.168C2.784 9.336 2.112 8.76 1.792 8.504C1.696 8.44 1.28 8.152 1.28 8.088C1.28 7.864 1.6 7.864 1.664 7.864C2.496 7.864 3.648 8.088 4.416 8.44ZM5.984 1.4C6.816 1.72 8.736 2.616 8.736 3.992C8.736 4.824 8.224 5.464 7.584 5.464C6.816 5.464 6.464 4.888 5.6 3.48C5.056 2.584 4.544 1.976 3.808 1.208C3.712 1.144 3.584 1.016 3.584 0.887999C3.584 0.759998 3.744 0.759998 3.808 0.759998C4.16 0.759998 5.6 1.24 5.984 1.4ZM5.664 28.952C4.512 28.952 4.288 27.8 4.288 27C4.288 24.504 4.288 22.136 2.464 20.984C2.208 20.824 2.016 20.792 1.792 20.696C1.728 20.696 1.664 20.664 1.664 20.632C1.664 20.504 3.136 20.024 3.392 19.864C4.224 19.32 5.28 17.208 8.448 10.936C8.96 9.88 9.024 9.752 9.184 9.752C9.248 9.752 9.248 9.848 9.248 9.88C9.248 10.008 7.904 14.008 7.712 14.584C5.984 19.704 5.952 19.768 5.952 21.272C5.952 21.784 5.984 22.36 6.432 23.576C7.232 25.72 7.232 26.168 7.232 26.648C7.232 26.968 7.232 28.952 5.664 28.952ZM48.704 8.888H51.2C51.936 8.888 52.128 8.568 52.128 7.8C52.128 5.752 52.032 5.592 51.168 5.592H49.728C47.424 5.592 46.336 5.624 45.696 5.688C45.6 5.688 45.12 5.752 45.024 5.752C44.896 5.752 44.832 5.688 44.736 5.528L44.128 4.792C44 4.664 43.968 4.632 43.968 4.6C43.968 4.536 44.032 4.536 44.096 4.536C44.32 4.536 45.312 4.632 45.504 4.632C47.072 4.696 48.384 4.728 49.888 4.728H51.168C51.52 4.728 51.968 4.728 51.968 4.024C51.968 3.672 51.872 2.04 51.872 1.688C51.84 1.464 51.552 0.567999 51.552 0.375999C51.552 0.247999 51.712 0.247999 51.808 0.247999C52.032 0.247999 53.792 0.695999 54.24 0.823999C54.816 0.983999 55.008 1.016 55.008 1.336C55.008 1.656 54.656 1.88 54.496 1.976C54.112 2.168 54.016 2.296 54.016 2.744C54.016 4.504 54.016 4.728 55.04 4.728H57.024C57.92 4.728 58.368 4.728 58.592 4.632C58.912 4.472 59.968 3.224 60.256 3.224C60.672 3.224 62.528 4.952 62.528 5.144C62.528 5.592 61.888 5.592 60.832 5.592H55.04C54.112 5.592 53.984 5.88 53.984 6.776C53.984 8.664 53.984 8.888 55.008 8.888H57.44C57.792 8.888 58.112 8.888 58.496 8.664C58.656 8.568 59.328 8.024 59.488 8.024C59.936 8.024 61.44 9.24 61.44 9.656C61.44 9.88 61.344 9.944 60.832 10.296C60.544 10.488 60.48 10.744 60.48 11.096C60.48 11.992 60.672 15.96 60.672 16.76C60.672 17.752 60.192 18.648 59.328 18.648C58.752 18.648 58.624 18.328 58.496 18.072C58.336 17.752 58.208 17.592 57.504 17.592H55.264C55.04 17.592 54.688 17.624 54.688 18.04C54.688 18.616 57.728 23.48 62.528 25.368C62.784 25.464 62.944 25.624 62.944 25.688C62.656 25.784 61.408 26.232 61.184 26.328C60.96 26.424 59.968 27.064 59.744 27.064C59.2 27.064 57.088 24.76 54.752 20.312C54.304 19.48 54.272 19.384 54.176 19.384C53.984 19.384 53.984 19.544 53.984 19.896C53.984 21.112 54.112 27.032 54.112 27.448C54.112 28.984 53.216 29.528 52.544 29.528C52.032 29.528 52.032 28.984 52.032 28.792C52.032 27.256 52.224 20.472 52.224 19.064C52.224 18.904 52.16 18.776 52.032 18.776C51.936 18.776 51.424 19.48 51.136 19.896C49.248 22.488 47.232 25.016 44.192 26.808C43.776 27.064 42.784 27.64 42.336 27.64C42.016 27.64 43.904 26.104 44.224 25.816C47.712 22.424 49.92 18.36 49.92 17.944C49.92 17.592 49.664 17.592 49.472 17.592H48.64C48.416 17.592 47.936 17.592 47.712 17.976C47.36 18.616 46.912 18.84 46.4 18.84C45.632 18.84 45.632 18.296 45.632 18.04C45.632 17.848 45.696 16.984 45.696 16.792C45.792 12.632 45.824 12.152 45.824 11.384C45.824 10.968 45.536 8.44 45.536 8.312C45.536 8.248 45.568 8.184 45.664 8.184C45.952 8.184 47.104 8.632 47.328 8.696C47.936 8.888 48.448 8.888 48.704 8.888ZM48.704 16.728H51.104C52.128 16.728 52.128 16.248 52.128 15.064C52.128 14.04 52.096 13.56 51.104 13.56H48.704C47.712 13.56 47.68 14.04 47.68 15.128C47.68 16.216 47.68 16.728 48.704 16.728ZM54.976 12.696H57.632C58.624 12.696 58.624 12.376 58.624 11.064C58.624 10.136 58.624 9.72 57.632 9.72H54.976C53.984 9.72 53.984 10.04 53.984 11.384C53.984 12.28 53.984 12.696 54.976 12.696ZM51.168 9.72H48.672C47.648 9.72 47.648 10.04 47.648 11.512C47.648 12.216 47.648 12.696 48.672 12.696H51.168C52.16 12.696 52.16 12.248 52.16 11.48C52.16 10.04 52.16 9.72 51.168 9.72ZM57.536 13.56H55.04C53.984 13.56 53.984 13.88 53.984 15.224C53.984 16.376 53.984 16.728 55.04 16.728H57.536C58.592 16.728 58.624 16.408 58.624 15.128C58.624 13.912 58.592 13.56 57.536 13.56ZM34.72 18.232C34.752 18.072 34.912 17.976 35.04 17.976C35.392 17.976 36.832 18.552 37.152 18.616C37.408 18.712 37.568 18.808 37.568 19C37.568 19.16 37.024 19.704 36.928 19.832C36.896 19.896 36.192 22.2 36.032 22.616C35.456 24.152 33.888 27.832 33.344 27.832C33.216 27.832 33.248 27.704 33.6 26.712C34.336 24.664 34.848 21.88 34.848 19.8C34.848 19.544 34.72 18.36 34.72 18.232ZM42.336 14.168C42.4 14.104 42.4 14.04 42.4 13.976C42.4 13.528 41.6 11.48 41.6 11.416C41.6 11.352 41.632 11.32 41.664 11.32C41.728 11.32 43.136 12.696 43.392 12.92C44.64 14.136 45.024 14.68 45.024 15.544C45.024 16.472 44.48 17.08 43.744 17.08C43.2 17.08 43.104 16.568 42.912 15.832C42.816 15.416 42.656 15.192 42.176 15.192C40.64 15.192 40.64 15.704 40.64 16.664C40.64 21.848 40.64 22.424 40.768 26.648C40.768 26.904 40.864 28.024 40.864 28.248C40.864 28.824 40.064 29.432 39.296 29.432C38.624 29.432 38.432 29.144 38.432 28.472C38.432 28.12 38.528 26.552 38.528 26.232C38.592 23.48 38.592 22.008 38.592 17.272C38.592 16.184 38.592 15.832 37.92 15.832C37.792 15.832 35.904 16.152 35.584 16.216C35.36 16.28 34.528 16.792 34.336 16.792C33.76 16.792 33.44 13.88 33.44 13.816C33.44 13.688 33.536 13.56 33.632 13.56C33.76 13.56 34.272 13.848 34.4 13.88C35.008 14.072 35.744 14.232 36.384 14.232C37.216 14.232 37.408 14.072 39.648 9.016C40.192 7.768 40.672 6.648 40.96 5.112C41.088 4.408 41.088 4.312 41.28 4.312C41.6 4.312 43.968 5.56 43.968 5.912C43.968 6.168 43.776 6.232 43.168 6.52C42.816 6.648 41.344 9.336 40.992 9.848C38.752 13.08 38.368 13.688 38.368 13.944C38.368 14.392 38.752 14.392 40.64 14.392C42.048 14.392 42.208 14.392 42.336 14.168ZM38.112 1.08C38.112 0.311998 38.112 0.247999 38.432 0.247999C38.944 0.247999 41.504 1.304 41.504 1.688C41.504 1.88 41.408 1.912 40.512 2.36C40.352 2.424 37.664 5.816 37.664 6.552C37.664 6.776 37.824 6.904 38.272 7.32C38.592 7.64 38.72 8.184 38.72 8.632C38.72 9.304 38.4 10.264 37.632 10.264C37.088 10.264 36.928 9.944 36.32 8.76C35.552 7.224 34.432 6.136 33.92 5.72C33.856 5.656 33.472 5.336 33.472 5.304C33.472 5.24 33.536 5.24 33.632 5.24C33.92 5.24 34.624 5.432 35.232 5.688C36.032 6.04 36.128 6.072 36.32 6.072C37.152 6.072 38.112 2.36 38.112 1.08ZM41.696 18.168C41.824 18.008 45.056 20.184 45.056 21.912C45.056 22.84 44.448 23.832 43.744 23.832C43.328 23.832 43.264 23.64 42.784 21.752C42.528 20.664 42.24 19.608 41.824 18.584C41.792 18.552 41.664 18.2 41.696 18.168ZM73.312 22.232C73.312 21.336 73.568 19.128 75.744 17.048C76.704 16.152 77.12 15.736 77.12 15.32C77.12 15.224 76.896 14.488 76.832 14.328C76.448 13.112 76.288 12.376 76.288 10.584C76.288 9.848 76.448 6.136 76.448 5.304C76.448 3.704 76 3.224 75.488 2.712C74.816 2.008 74.72 1.912 74.72 1.816C74.72 1.688 75.488 1.656 75.584 1.656C77.408 1.656 79.04 3.128 79.04 4.056C79.04 4.344 78.656 5.784 78.592 6.104C78.464 7 78.304 8.472 78.304 10.328C78.304 11.544 78.304 14.136 79.136 14.136C79.584 14.136 79.776 14.008 81.504 12.92C81.856 12.696 83.872 11.416 84.8 11.416C85.536 11.416 86.016 12.056 86.016 12.6C86.016 13.56 84.704 14.072 83.552 14.52C75.936 17.592 74.848 19.928 74.848 22.008C74.848 24.184 76.704 24.984 79.296 24.984C80.896 24.984 82.176 24.664 83.136 24.408C84.576 24.024 84.928 23.928 85.536 23.928C86.624 23.928 87.648 24.664 87.648 25.464C87.648 27.096 81.12 27.256 79.424 27.256C77.952 27.256 73.312 27.256 73.312 22.232ZM100.16 3.064C103.776 5.272 104.16 7.352 104.16 8.024C104.16 8.664 103.808 9.176 103.104 9.176C102.496 9.176 102.336 8.952 101.12 7.128C100.384 5.976 99.104 4.152 97.632 2.456C97.152 1.944 97.12 1.848 97.12 1.816C97.12 1.72 97.184 1.688 97.248 1.688C97.696 1.688 99.456 2.616 100.16 3.064ZM98.08 14.136L97.472 13.4C97.344 13.24 97.344 13.24 97.344 13.176C97.344 13.112 97.408 13.112 97.44 13.112C97.664 13.112 98.848 13.208 99.104 13.208C99.712 13.24 99.936 13.24 101.088 13.24C101.44 13.24 101.664 13.24 101.952 12.856C102.368 12.28 102.592 11.96 102.816 11.96C103.168 11.96 105.088 13.304 105.088 13.784C105.088 13.976 104.896 14.072 104.16 14.392C103.552 14.648 103.552 15.16 103.552 19.704C103.552 21.784 103.552 22.776 105.248 24.024C106.848 25.24 108.928 25.752 115.744 25.752C120.992 25.752 124.704 24.856 125.696 24.632C125.888 24.6 126.816 24.312 126.944 24.312C127.008 24.312 127.104 24.344 127.104 24.44C127.104 24.536 126.752 24.856 126.464 25.144C126.144 25.464 125.184 26.488 125.056 27.448C125.024 27.832 124.992 27.896 124.8 28.024C124.48 28.248 121.376 28.248 120.736 28.248C117.92 28.248 110.688 28.12 108.096 27.48C105.824 26.904 104.352 25.176 103.36 23.64C102.912 22.968 102.848 22.904 102.752 22.904C102.592 22.904 100.64 25.016 99.616 26.776C98.944 27.896 98.944 27.896 98.752 27.896C98.176 27.896 96.96 25.528 96.96 25.176C96.96 24.888 97.184 24.888 97.536 24.888C98.304 24.888 101.088 23.224 101.376 22.648C101.504 22.36 101.536 22.36 101.536 15.16C101.536 14.168 100.928 14.168 100.64 14.168C100.288 14.168 98.624 14.328 98.368 14.328C98.24 14.328 98.208 14.264 98.08 14.136ZM125.12 6.424H117.408C116.576 6.424 116.512 6.488 115.872 7.32C115.136 8.28 113.792 9.272 113.792 9.272C113.76 9.272 113.728 9.24 113.728 9.208C113.728 9.176 113.792 9.08 114.112 8.408C116.032 4.472 116.352 2.072 116.384 1.304C116.416 0.439999 116.416 0.375999 116.928 0.375999C117.184 0.375999 119.616 0.599998 119.616 1.4C119.616 1.624 119.552 1.688 119.008 2.168C118.688 2.488 117.312 5.112 117.312 5.24C117.312 5.56 117.696 5.56 118.048 5.56H120.512C121.344 5.56 121.856 5.56 122.08 5.464C122.4 5.304 123.456 3.768 123.84 3.768C124.16 3.768 126.432 5.464 126.432 5.944C126.432 6.424 126.016 6.424 125.12 6.424ZM113.088 5.976H110.848C110.496 5.976 110.272 5.976 110.272 6.168C110.272 6.232 110.432 6.52 110.432 6.584C110.432 6.776 109.888 7.512 109.824 7.704C109.76 8.472 109.6 10.072 109.6 10.168C109.6 10.744 109.856 10.744 110.272 10.744H110.88C111.232 10.744 111.36 10.744 111.584 10.36C111.968 9.72 112.064 9.56 112.384 9.56C112.608 9.56 114.272 10.264 114.272 10.968C114.272 11.16 114.144 11.288 114.048 11.352C113.632 11.736 113.504 11.8 113.472 12.12C113.344 13.592 113.28 16.632 113.12 18.2C112.576 23.928 110.048 24.184 109.76 24.184C109.28 24.184 109.12 23.864 109.056 23.608C108.832 22.68 108.8 22.488 108.32 21.912C108.256 21.816 107.84 21.496 107.84 21.368C107.84 21.304 107.872 21.304 107.904 21.304C108 21.304 108.352 21.432 108.448 21.464C108.896 21.528 109.472 21.624 109.696 21.624C110.912 21.624 111.424 20.152 111.584 17.592C111.68 15.96 111.808 13.592 111.808 12.408C111.808 11.704 111.488 11.576 110.976 11.576H110.176C109.696 11.576 109.472 11.64 109.344 12.28C108.512 16.984 108.448 17.4 107.584 19.416C106.688 21.528 104.928 23.032 104.672 23.032C104.64 23.032 104.608 23.032 104.608 22.968C104.608 22.936 105.248 21.784 105.376 21.528C107.84 16.792 107.968 8.216 107.968 6.84C107.968 6.52 107.904 6.008 107.2 6.008C106.944 6.008 105.632 6.136 105.44 6.136C105.344 6.136 105.28 6.072 105.152 5.944L104.544 5.208C104.416 5.048 104.416 5.048 104.416 4.984C104.416 4.92 104.48 4.92 104.512 4.92C104.896 4.92 106.688 5.048 107.072 5.048C108.16 5.048 108.16 4.888 108.16 3.448C108.16 2.968 108.128 2.36 108 1.656C107.968 1.496 107.712 0.759998 107.712 0.599998C107.712 0.375999 107.872 0.279999 108.256 0.279999C108.8 0.279999 110.88 0.439999 110.88 1.144C110.88 1.272 110.464 1.688 110.432 1.816C110.368 2.072 110.176 4.408 110.176 4.536C110.176 5.08 110.624 5.144 111.264 5.144C111.584 5.144 111.84 5.048 112.16 4.568C112.64 3.832 112.768 3.64 113.088 3.64C113.664 3.64 114.528 5.176 114.528 5.528C114.528 5.976 114.368 5.976 113.088 5.976ZM125.856 16.792H122.272C121.44 16.792 121.376 17.24 121.376 17.656C121.376 18.232 121.472 20.696 121.472 21.208C121.472 23.064 121.12 23.768 120.32 24.44C119.936 24.728 119.456 24.952 118.976 24.952C118.272 24.952 118.272 24.696 118.24 24.28C118.208 23.16 117.312 22.552 117.12 22.424C116.992 22.36 116.48 22.168 116.48 22.072C116.48 21.976 116.672 21.976 116.736 21.976C117.088 21.976 118.592 22.008 118.88 21.976C119.264 21.944 119.488 21.848 119.488 20.632C119.488 20.024 119.488 18.008 119.424 17.528C119.392 17.144 119.296 16.792 118.528 16.792C117.728 16.792 116.672 16.792 115.872 16.856C115.776 16.888 115.296 16.952 115.2 16.952C114.976 16.952 114.144 15.832 114.144 15.8C114.144 15.736 114.208 15.704 114.272 15.704C114.336 15.704 115.36 15.8 115.52 15.8C116.224 15.832 118.08 15.928 118.656 15.928C119.328 15.928 119.328 15.352 119.328 15C119.328 13.816 119.168 12.952 119.104 12.6C119.072 12.44 118.88 11.736 118.88 11.608C118.88 11.48 118.976 11.448 119.04 11.448C119.328 11.448 120.544 11.864 120.8 11.864C121.344 11.864 121.952 10.392 121.952 10.072C121.952 9.88 121.824 9.784 121.312 9.784H119.648C119.232 9.784 117.76 9.848 117.12 9.912C117.056 9.944 116.864 9.976 116.832 9.976C116.704 9.976 116.672 9.88 116.544 9.752L115.936 9.016C115.808 8.888 115.808 8.856 115.808 8.824C115.808 8.76 115.84 8.728 115.904 8.728C116.128 8.728 117.12 8.824 117.344 8.856C118.56 8.888 120 8.952 121.184 8.952H122.144C122.528 8.952 122.688 8.888 123.04 8.504C123.168 8.344 123.424 8.024 123.68 8.024C123.808 8.024 126.016 9.208 126.016 9.944C126.016 10.424 125.504 10.456 125.024 10.456C124.48 10.488 124.32 10.552 122.784 11.448C122.4 11.672 121.696 12.088 121.696 12.28C121.696 12.568 121.696 12.856 121.568 12.984C121.28 13.368 121.248 13.464 121.248 14.52C121.248 15.64 121.376 15.928 121.888 15.928C122.4 15.928 122.656 15.576 122.848 15.352C123.776 14.232 123.872 14.104 124.16 14.104C124.48 14.104 126.72 15.832 126.72 16.312C126.72 16.792 126.144 16.792 125.856 16.792ZM135.392 6.104C135.584 6.104 137.472 5.944 139.264 5.304C141.088 4.632 141.28 4.568 141.664 4.568C142.464 4.568 142.688 5.272 142.688 5.464C142.688 6.2 142.112 6.392 140.896 6.808C138.72 7.512 134.816 15.576 134.816 19.512C134.816 20.888 135.584 24.728 139.808 24.728C142.976 24.728 145.344 22.68 146.176 21.272C148.384 17.592 148.384 10.744 148.384 9.72C148.384 8.472 148.32 7.544 147.968 6.232C147.552 4.792 147.52 4.632 147.52 4.28C147.52 3.384 148.192 3.128 148.576 3.128C149.6 3.128 149.696 3.704 150.336 6.872C150.624 8.344 151.552 11.48 154.368 13.432C156.064 14.616 156.352 14.968 156.352 15.576C156.352 16.312 155.712 16.92 155.2 16.92C153.792 16.92 152.32 14.392 151.488 12.92C151.168 12.376 149.568 9.304 149.44 9.304C149.344 9.304 149.312 9.624 149.312 9.688C149.312 13.4 149.312 16.632 148.448 20.152C147.136 25.4 142.688 27.224 139.616 27.224C135.68 27.224 132.832 24.28 132.832 20.472C132.832 17.112 134.304 13.912 135.872 11.096C136 10.84 137.632 7.928 137.632 7.896C137.632 7.8 137.504 7.736 137.408 7.736C137.088 7.736 135.808 8.408 135.52 8.408C134.304 8.408 133.728 6.264 133.728 6.232C133.728 6.072 133.792 5.944 133.92 5.944C134.016 5.944 135.168 6.104 135.392 6.104ZM154.016 0.0239983C156.544 0.0239983 158.496 1.368 158.496 2.84C158.496 3.192 158.24 3.768 157.664 3.768C156.992 3.768 156.576 3.32 156 2.584C155.52 1.976 154.272 1.144 153.216 0.759998C152.896 0.631998 152.832 0.471998 152.832 0.407999C152.832 0.183998 153.44 0.0239983 154.016 0.0239983ZM151.36 2.552C153.472 2.552 155.872 4.216 155.872 5.752C155.872 6.168 155.456 6.968 154.88 6.968C154.368 6.968 154.112 6.648 153.28 5.4C152.8 4.728 152.448 4.344 151.2 3.288C151.072 3.192 150.784 2.936 150.784 2.808C150.784 2.648 151.072 2.552 151.36 2.552ZM166.464 11.416C166.752 11.416 167.072 13.464 167.072 14.648C167.072 18.232 165.408 20.664 163.456 20.664C162.976 20.664 162.176 20.504 162.176 19.512C162.176 19.16 162.24 18.84 163.264 17.88C165.248 16.056 166.144 12.504 166.208 12.056C166.24 11.64 166.368 11.416 166.464 11.416ZM173.504 0.631998C173.536 0.567999 173.696 0.567999 173.728 0.567999C176.224 0.567999 181.216 3.672 181.216 5.848C181.216 6.936 180.48 7.544 180.096 7.544C179.744 7.544 179.424 7.288 178.72 6.168C177.536 4.28 174.848 1.752 173.76 0.952C173.536 0.823999 173.472 0.664 173.504 0.631998ZM184.736 10.296C185.056 10.008 190.016 14.168 190.016 18.2C190.016 19.672 189.12 20.92 188.16 20.92C187.104 20.92 187.104 20.056 187.104 19.608C187.104 16.504 187.104 16.152 186.4 14.2C185.984 12.984 185.408 11.736 184.864 10.776C184.704 10.52 184.704 10.328 184.736 10.296ZM170.944 4.984C171.072 4.888 174.24 5.688 174.24 6.2C174.24 6.456 173.408 7.192 173.376 7.384C173.152 8.184 173.056 21.048 173.056 22.328C173.056 25.208 173.152 25.976 176.256 25.976C181.184 25.976 181.824 25.24 183.072 21.656C183.104 21.528 183.52 20.408 183.584 20.408C183.68 20.408 183.744 21.752 183.744 21.784C183.776 22.296 183.84 23.576 184.352 24.344C184.48 24.536 185.088 25.272 185.088 25.464C185.088 26.84 182.528 28.248 177.056 28.248C170.848 28.248 170.848 26.456 170.848 23.416C170.848 22.328 170.976 17.464 171.008 16.472C171.008 15.608 171.04 11.832 171.04 9.496C171.04 8.696 171.008 7 170.944 6.232C170.944 6.104 170.88 5.752 170.88 5.432C170.88 5.336 170.88 5.048 170.944 4.984ZM197.536 21.752C199.616 21.752 201.088 23.48 201.088 25.304C201.088 27.096 199.648 28.856 197.504 28.856C195.36 28.856 193.984 27.064 193.984 25.272C193.984 22.84 196.096 21.752 197.536 21.752ZM197.504 22.648C195.808 22.648 194.88 24.024 194.88 25.272C194.88 26.744 196.064 27.96 197.568 27.96C198.944 27.96 200.224 26.872 200.224 25.336C200.224 24.088 199.264 22.648 197.504 22.648ZM24.512 51.68H26.208C26.464 51.68 26.848 51.68 27.104 51.456C27.264 51.328 27.872 50.464 28.096 50.464C28.224 50.464 29.056 51.04 29.376 51.232C30.496 52 30.624 52.096 30.624 52.32C30.624 52.512 30.56 52.576 29.856 53.088C29.664 53.216 29.568 53.376 29.536 53.664C29.472 54.304 29.536 57.376 29.536 58.048C29.536 58.976 29.792 63.488 29.792 64.512C29.792 66.208 28.448 66.208 28.352 66.208C27.36 66.208 27.36 65.792 27.36 64.576C27.36 63.776 26.784 63.776 26.336 63.776H24.352C24.032 63.776 23.52 63.808 23.392 64.384V68.576C23.392 69.408 23.392 71.488 23.424 72.16C23.424 72.32 23.488 72.992 23.488 73.152C23.488 73.92 22.688 74.336 22.112 74.336C21.344 74.336 21.088 73.92 21.088 73.472C21.088 73.248 21.216 71.36 21.248 70.944C21.28 70.016 21.408 65.056 21.408 64.704C21.408 63.84 20.96 63.776 20.416 63.776H18.816C18.016 63.776 17.856 64.096 17.856 64.64C17.856 65.728 17.824 66.816 16.384 66.816C16.096 66.816 15.456 66.752 15.456 66.016C15.456 65.92 15.488 65.504 15.488 65.408C15.52 64.992 15.648 62.208 15.648 59.712C15.648 58.112 15.488 52.896 15.424 52.16C15.424 52 15.264 51.168 15.264 50.976C15.264 50.88 15.264 50.688 15.424 50.688C15.808 50.688 16.64 51.072 17.312 51.36C17.952 51.648 18.304 51.68 18.912 51.68H20.64C21.536 51.68 21.536 51.168 21.536 50.4C21.536 49.696 21.504 49.184 21.248 46.624C21.216 46.464 21.024 45.792 21.024 45.664C21.024 45.44 21.12 45.248 21.344 45.248C21.408 45.248 23.616 46.016 23.776 46.08C23.872 46.112 24.48 46.368 24.48 46.592C24.48 46.752 23.776 47.264 23.68 47.424C23.488 47.648 23.488 47.936 23.488 48.832C23.488 49.184 23.488 51.072 23.584 51.264C23.776 51.68 24.256 51.68 24.512 51.68ZM18.752 62.912H20.48C21.536 62.912 21.536 62.688 21.536 60.544C21.536 58.176 21.536 57.92 20.48 57.92H18.688C17.632 57.92 17.632 58.368 17.632 59.392C17.632 62.912 17.824 62.912 18.752 62.912ZM26.336 52.544H24.48C23.424 52.544 23.424 52.768 23.424 54.464C23.424 54.848 23.424 56.448 23.488 56.64C23.648 57.088 24.192 57.088 24.48 57.088H26.336C27.392 57.088 27.392 56.864 27.392 54.944C27.392 52.768 27.392 52.544 26.336 52.544ZM18.624 57.088H20.544C21.536 57.088 21.536 56.8 21.536 54.464C21.536 52.768 21.536 52.544 20.544 52.544H18.624C17.6 52.544 17.6 52.8 17.6 55.136C17.6 56.864 17.6 57.088 18.624 57.088ZM26.336 57.92H24.448C23.36 57.92 23.36 58.208 23.36 60.672C23.36 62.688 23.36 62.912 24.448 62.912H26.336C27.424 62.912 27.424 62.656 27.424 60.16C27.424 58.144 27.424 57.92 26.336 57.92ZM12.192 58.208C12.16 57.952 11.744 56.8 11.744 56.576C11.744 56.48 11.808 56.48 11.84 56.48C12.256 56.48 14.688 58.624 14.688 60.608C14.688 61.728 14.016 62.4 13.184 62.4C12.224 62.4 12.224 61.536 12.224 61.152C12.224 59.84 12.224 59.68 11.776 59.68C11.488 59.68 10.176 59.936 9.984 60.032C9.472 60.256 9.472 60.768 9.472 61.12C9.472 67.008 9.472 67.68 9.568 71.968C9.568 72.128 9.6 72.896 9.6 73.024C9.6 73.856 8.832 74.208 8.096 74.208C7.68 74.208 7.456 74.112 7.456 72.8C7.456 72.192 7.584 65.472 7.584 65.216V61.44C7.584 60.96 7.36 60.64 6.88 60.64C6.592 60.64 3.68 61.12 3.456 61.248C3.328 61.312 2.88 61.664 2.752 61.696C2.688 61.76 2.592 61.76 2.56 61.76C2.368 61.76 2.304 61.568 2.112 60.928C2.048 60.704 1.408 58.72 1.408 58.624C1.408 58.528 1.472 58.432 1.632 58.432C1.792 58.432 2.336 58.656 2.432 58.688C3.392 58.88 4.672 58.976 5.632 58.976C6.496 58.976 6.848 58.976 8.544 56.032C9.92 53.664 10.592 51.616 10.688 50.944C10.752 50.432 10.784 50.144 11.04 50.144C11.2 50.144 12.8 50.688 13.28 50.88C13.888 51.104 14.144 51.168 14.144 51.456C14.144 51.84 13.76 51.936 13.28 52.096C12.8 52.224 8.224 58.432 8.224 58.656C8.224 58.976 8.672 59.04 8.96 59.04C9.536 59.04 11.456 59.008 11.904 58.848C12.128 58.784 12.256 58.624 12.192 58.208ZM7.808 45.248C8.128 45.312 9.504 45.824 9.792 45.92C10.72 46.24 10.816 46.272 10.816 46.496C10.816 46.784 10.656 46.88 10.08 47.104C9.792 47.232 8.608 48.864 8.256 49.376C7.936 49.792 6.624 51.552 6.368 51.936C6.272 52.128 6.112 52.352 6.112 52.576C6.112 52.832 6.176 52.896 6.656 53.408C6.848 53.6 7.2 54.08 7.2 54.752C7.2 55.712 6.528 56.16 6.08 56.16C5.792 56.16 5.696 56 4.864 54.656C4.384 53.92 4.096 53.408 1.984 51.392C1.856 51.264 1.728 51.136 1.728 51.104C1.728 51.072 1.76 51.04 1.792 51.04C2.144 51.04 4.384 52.128 4.832 52.128C5.696 52.128 6.624 49.152 7.2 47.36C7.264 47.104 7.36 45.792 7.424 45.536C7.456 45.344 7.52 45.216 7.808 45.248ZM10.304 63.68C10.528 63.36 12.096 64.544 12.224 64.64C14.272 66.176 14.624 66.784 14.624 67.808C14.624 69.056 14.016 69.792 13.056 69.792C12.352 69.792 12.32 69.6 12.064 67.776C12 67.328 11.808 66.048 11.008 64.736C10.88 64.576 10.208 63.808 10.304 63.68ZM3.456 63.776C3.392 63.584 3.36 63.328 3.648 63.328C3.808 63.328 5.76 64.096 5.792 64.128C6.016 64.224 6.432 64.448 6.432 64.704C6.432 64.864 5.824 65.344 5.728 65.472C5.632 65.536 3.936 69.184 3.552 69.856C2.656 71.52 2.08 72.16 1.568 72.736C1.504 72.8 1.12 73.184 1.056 73.184C0.96 73.184 1.184 72.704 1.28 72.576C2.592 69.984 3.584 65.152 3.584 64.64C3.584 64.384 3.52 64.064 3.456 63.776ZM45.76 57.408H39.168C36.352 57.408 35.456 57.472 35.136 57.472C35.008 57.504 34.56 57.568 34.464 57.568C34.336 57.568 34.272 57.472 34.176 57.344L33.568 56.608C33.44 56.48 33.408 56.448 33.408 56.416C33.408 56.352 33.472 56.32 33.536 56.32C33.76 56.32 34.752 56.416 34.944 56.448C36.512 56.512 37.824 56.544 39.328 56.544H45.728C46.048 56.544 46.688 56.544 46.688 55.648C46.688 53.28 46.592 50.88 46.432 48.544C46.4 48.128 45.984 46.272 45.984 46.016C45.984 45.888 46.112 45.824 46.24 45.824C46.272 45.824 48.448 46.336 49.088 46.528C49.952 46.784 50.432 46.944 50.432 47.2C50.432 47.488 49.408 48.224 49.344 48.448C49.184 48.96 49.184 54.304 49.184 55.136C49.184 56.128 49.184 56.544 50.176 56.544H56.416C57.856 56.544 57.984 56.544 58.464 56C59.36 54.944 59.456 54.848 59.744 54.848C59.936 54.848 62.752 56.544 62.752 56.96C62.752 57.408 62.112 57.408 61.024 57.408H50.176C49.632 57.408 49.152 57.472 49.152 58.432V70.944C49.152 71.36 49.28 71.808 50.144 71.808H54.432C55.872 71.808 56.032 71.808 56.48 71.264C57.376 70.208 57.472 70.08 57.76 70.08C57.984 70.08 60.768 71.776 60.768 72.192C60.768 72.64 60.128 72.64 59.04 72.64H40.992C38.208 72.64 37.28 72.704 36.96 72.736C36.864 72.736 36.384 72.8 36.288 72.8C36.16 72.8 36.096 72.736 36 72.608L35.392 71.872C35.264 71.712 35.264 71.712 35.264 71.648C35.264 71.584 35.296 71.584 35.36 71.584C35.584 71.584 36.576 71.68 36.768 71.68C38.336 71.744 39.648 71.808 41.152 71.808H45.6C45.952 71.808 46.528 71.808 46.592 70.944C46.592 70.912 46.688 65.632 46.688 59.008C46.688 57.888 46.688 57.408 45.76 57.408ZM71.488 62.784C71.488 63.744 71.808 64.704 72.32 64.704C72.864 64.704 73.152 64.192 73.856 62.208C74.048 61.664 74.144 61.408 74.304 61.408C74.464 61.408 74.464 61.728 74.464 61.792C74.464 62.144 73.728 65.888 73.728 66.656C73.728 67.2 74.176 68.16 74.24 68.32C74.464 68.768 74.624 69.312 74.624 69.728C74.624 70.368 74.112 70.816 73.568 70.816C71.584 70.816 70.112 65.376 70.112 62.304C70.112 60.256 70.368 59.328 71.456 55.328C72 53.376 72 52.576 72 52C72 50.976 71.808 50.112 71.68 49.728C71.648 49.632 71.488 49.248 71.488 49.152C71.488 49.056 71.616 48.992 71.744 48.992C73.216 48.992 74.56 51.904 74.56 53.056C74.56 53.408 74.56 53.44 73.952 54.528C73.6 55.2 71.488 59.904 71.488 62.784ZM88.064 50.944C88.64 51.04 89.408 51.584 89.408 52.32C89.408 53.888 85.856 53.888 85.472 53.888C81.856 53.888 79.872 51.936 79.872 51.52C79.872 51.456 79.904 51.36 80.096 51.36C80.192 51.36 80.576 51.488 80.992 51.584C81.728 51.744 82.592 51.776 83.168 51.776C84.736 51.776 86.24 51.456 86.688 51.296C87.648 50.944 87.744 50.912 88.064 50.944ZM89.44 66.816C90.656 66.816 90.912 67.52 90.912 67.904C90.912 69.152 89.952 69.536 85.472 69.536C82.336 69.536 81.152 68.736 80.48 68.096C80.32 67.936 79.488 67.104 79.488 66.496C79.488 66.432 79.488 66.176 79.648 66.176C79.776 66.176 80.288 66.56 80.416 66.624C81.344 67.104 82.656 67.168 83.84 67.168C84.672 67.168 85.824 67.168 86.624 67.072C87.072 67.04 89.312 66.816 89.44 66.816ZM121.696 60.704H113.312C112.736 60.704 112.512 60.768 112.352 61.376C112.192 61.952 111.04 62.4 110.688 62.4C110.048 62.4 110.048 61.696 110.048 61.504C110.048 60.832 110.176 57.44 110.176 56.672C110.176 55.488 110.176 54.432 110.016 53.152C109.984 52.864 109.728 51.328 109.728 51.104C109.728 50.976 109.728 50.72 109.984 50.72C110.688 50.72 111.136 51.04 111.872 51.52C112.224 51.776 113.248 51.808 113.696 51.808H121.088C121.632 51.808 122.08 51.808 122.4 51.584C122.592 51.424 123.328 50.464 123.584 50.464C123.712 50.464 125.856 51.648 125.856 52.096C125.856 52.16 125.312 52.704 125.184 52.832C124.928 53.088 124.768 53.312 124.736 53.728C124.64 54.528 124.768 58.656 124.768 59.584C124.768 60.384 124.768 61.536 123.296 61.536C122.88 61.536 122.784 61.44 122.56 61.12C122.272 60.704 121.952 60.704 121.696 60.704ZM115.392 52.672H113.248C112.256 52.672 112.256 53.216 112.256 54.176C112.256 55.2 112.256 55.776 113.248 55.776H115.392C116.256 55.776 116.352 55.36 116.352 54.24C116.352 53.12 116.256 52.672 115.392 52.672ZM121.632 56.608H119.2C118.24 56.608 118.24 57.184 118.24 57.984C118.24 59.36 118.24 59.84 119.232 59.84H121.6C122.592 59.84 122.592 59.392 122.592 57.824C122.592 57.216 122.592 56.608 121.632 56.608ZM115.392 56.608H113.28C112.32 56.608 112.32 57.184 112.32 57.856C112.32 59.328 112.32 59.84 113.344 59.84H115.36C116.352 59.84 116.352 59.296 116.352 57.952C116.352 57.216 116.352 56.608 115.392 56.608ZM121.536 52.672H119.232C118.272 52.672 118.272 53.216 118.272 54.176C118.272 55.2 118.272 55.776 119.232 55.776H121.536C122.528 55.776 122.528 55.2 122.528 54.24C122.528 53.216 122.528 52.672 121.536 52.672ZM104.576 65.76H102.56C102.08 65.76 101.472 65.76 101.472 66.752C101.472 67.008 101.6 67.104 101.824 67.264C103.488 68.352 103.552 68.416 103.552 68.608C103.552 68.832 103.2 69.056 103.04 69.12C102.4 69.376 102.4 69.376 101.984 69.792C99.68 72.192 97.28 73.44 97.28 73.184C97.28 73.056 98.944 70.976 99.264 70.528C100.416 68.896 100.8 67.808 100.8 67.52C100.8 67.2 100.672 67.2 100.096 67.2C99.264 67.2 99.264 66.656 99.264 65.92C99.264 64.544 99.456 57.76 99.456 56.224C99.456 53.888 99.392 51.744 99.2 49.44C99.168 49.152 98.912 47.712 98.912 47.36C98.912 47.264 98.912 46.976 99.168 46.976C99.52 46.976 100.032 47.232 101.184 47.808C101.728 48.096 102.272 48.096 102.592 48.096H104.384C104.8 48.096 105.184 48.096 105.696 47.488C106.08 47.008 106.24 46.88 106.432 46.88C106.624 46.88 106.912 47.072 107.072 47.2C107.296 47.392 107.552 47.616 107.712 47.712C108.416 48.16 108.608 48.288 108.608 48.608C108.608 48.768 108.032 49.28 108 49.44C107.936 49.664 107.936 51.424 107.936 51.552C107.936 51.776 107.872 58.176 107.872 58.816C107.872 59.776 107.936 64.48 107.936 65.536C107.936 66.304 107.936 67.232 106.272 67.232C105.632 67.232 105.6 66.848 105.536 66.432C105.472 65.76 104.864 65.76 104.576 65.76ZM104.832 54.624H102.464C101.504 54.624 101.504 55.104 101.504 56.32C101.504 59.072 101.504 59.424 102.496 59.424H104.8C105.792 59.424 105.792 59.2 105.792 56.48C105.792 55.04 105.792 54.624 104.832 54.624ZM104.8 48.928H102.4C101.44 48.928 101.44 49.024 101.44 51.968C101.44 53.408 101.44 53.792 102.4 53.792H104.8C105.76 53.792 105.76 53.504 105.76 50.912C105.76 49.376 105.76 48.928 104.8 48.928ZM104.736 60.256H102.56C101.568 60.256 101.568 60.736 101.568 61.92C101.568 64.576 101.6 64.928 102.592 64.928H104.704C105.664 64.928 105.696 64.608 105.696 61.984C105.696 60.736 105.696 60.256 104.736 60.256ZM116.128 63.776H119.808C120.224 63.776 120.832 63.776 121.248 63.264C121.632 62.784 121.664 62.72 121.92 62.72C122.304 62.72 124.384 64.032 124.384 64.448C124.384 64.608 123.84 65.088 123.744 65.216C123.552 65.536 123.552 65.888 123.552 66.496C123.552 67.296 123.616 68.416 123.616 68.8C123.648 69.28 123.872 71.584 123.872 72.096C123.872 72.992 123.36 73.664 122.368 73.664C121.856 73.664 121.728 73.504 121.568 73.248C121.312 72.8 120.928 72.8 120.64 72.8H115.52C115.2 72.8 114.816 72.864 114.656 73.216C114.304 73.952 113.6 74.336 112.992 74.336C112.416 74.336 112.32 73.856 112.32 73.152C112.32 72.608 112.416 69.984 112.416 69.376C112.416 67.296 112.384 66.4 112.288 64.928C112.288 64.64 112.096 63.36 112.096 63.072C112.096 62.944 112.096 62.656 112.352 62.656C112.864 62.656 113.312 62.912 114.144 63.392C114.848 63.776 115.648 63.776 116.128 63.776ZM120.48 64.64H115.52C114.56 64.64 114.56 65.184 114.56 66.208C114.56 67.296 114.56 67.84 115.52 67.84H120.48C121.44 67.84 121.44 67.296 121.44 66.272C121.44 65.152 121.44 64.64 120.48 64.64ZM120.48 68.704H115.552C114.592 68.704 114.592 69.28 114.592 69.984C114.592 71.488 114.592 71.968 115.584 71.968H120.48C121.44 71.968 121.44 71.424 121.44 70.368C121.44 69.216 121.44 68.704 120.48 68.704ZM111.872 45.6C112.064 45.408 116.16 47.488 116.16 49.632C116.16 50.368 115.552 51.04 114.848 51.04C114.304 51.04 114.208 50.88 113.728 49.344C113.248 47.84 112.448 46.72 112.032 46.176C111.808 45.856 111.808 45.632 111.872 45.6ZM121.504 44.96C121.6 44.864 124.768 46.144 124.768 46.56C124.768 46.752 124.672 46.816 124.224 46.944C123.552 47.168 119.52 51.2 118.656 51.2C118.592 51.2 118.592 51.168 118.592 51.136C118.592 51.072 120.736 47.84 121.056 47.168C121.344 46.624 121.408 46.272 121.408 45.856C121.408 45.312 121.44 45.024 121.504 44.96ZM105.152 67.392C105.312 67.2 106.56 68.064 106.752 68.192C108.224 69.216 109.216 70.272 109.216 71.456C109.216 72.064 108.96 72.832 108.224 72.832C107.456 72.832 107.36 72.608 106.624 70.592C106.24 69.6 105.824 68.736 105.248 67.776C105.216 67.744 105.088 67.488 105.152 67.392ZM147.232 69.216C148.32 69.216 150.56 67.264 150.56 64.608C150.56 61.984 148.352 59.744 145.152 59.744C140.928 59.744 138.208 64.128 137.632 65.12C136.992 66.208 136.672 66.816 135.808 66.816C135.04 66.816 134.88 66.176 134.88 65.92C134.88 65.12 135.136 64.416 137.408 61.76C139.488 59.328 139.808 58.912 144.64 52.128C145.696 50.624 146.144 49.952 146.144 49.6C146.144 49.376 145.92 49.152 145.536 49.152C144.352 49.152 142.464 50.752 141.92 51.2C140.64 52.256 140.192 52.352 139.648 52.352C138.144 52.352 137.152 50.304 137.152 50.144C137.152 50.048 137.248 50.048 137.92 50.048C139.616 50.048 141.984 49.28 142.88 48.896C144.864 48.032 145.088 47.936 145.792 47.936C147.072 47.936 149.152 48.736 149.152 50.144C149.152 51.072 148.416 51.584 146.88 52.64C144.576 54.272 141.76 58.656 141.76 59.2C141.76 59.296 141.856 59.424 141.952 59.424C142.144 59.36 142.56 59.2 142.752 59.136C143.776 58.752 144.672 58.624 145.568 58.624C149.664 58.624 152.768 61.664 152.768 65.28C152.768 69.344 148.832 72.192 144.768 72.192C141.6 72.192 139.328 70.496 139.328 68.896C139.328 67.744 140.672 66.304 142.496 66.304C144 66.304 145.248 67.2 146.144 68.352C146.592 68.928 146.784 69.216 147.232 69.216ZM144.288 69.536C144.288 68.768 143.52 67.488 142.336 67.488C141.568 67.488 140.992 68.096 140.992 68.608C140.992 69.44 142.368 70.112 143.744 70.112C144.064 70.112 144.288 69.888 144.288 69.536ZM6.592 99.144C6.784 99.144 9.568 99.336 10.112 99.336C12.992 99.336 19.808 98.76 20.512 98.312C21.664 97.544 21.792 97.48 22.08 97.48C22.72 97.48 25.792 99.528 25.792 100.36C25.792 100.648 25.696 100.744 24.704 101.48C24.128 101.896 24 102.376 22.912 106.824C22.848 107.112 22.4 108.52 22.4 108.712C22.4 109.128 22.688 109.16 23.168 109.256C23.968 109.384 25.152 109.8 25.152 110.6C25.152 111.464 23.68 111.464 23.424 111.464C22.624 111.464 19.072 111.24 18.336 111.24C16.352 111.24 10.272 111.912 9.76 112.04C9.568 112.072 8.768 112.424 8.608 112.424C8.032 112.424 6.144 110.984 6.144 109.864C6.144 109.736 6.272 109.64 6.432 109.64C6.592 109.64 7.264 109.768 7.392 109.8C8.096 109.896 8.64 109.896 9.024 109.896C11.232 109.896 19.616 109.32 20.096 109.064C20.48 108.872 20.608 108.488 20.832 106.888C21.216 104.072 21.504 101.288 21.504 100.648C21.504 100.104 21.376 99.976 21.024 99.976C20.032 99.976 12.096 101.256 10.848 101.544C10.56 101.608 9.44 102.056 9.184 102.056C8.48 102.056 6.208 100.104 6.208 99.464C6.208 99.208 6.432 99.144 6.592 99.144ZM41.472 94.696C41.664 94.696 42.432 95.016 42.624 95.048C43.136 95.176 43.872 95.176 44.32 95.176C45.824 95.176 47.936 95.112 49.44 94.824C49.92 94.728 52.128 94.184 52.576 94.184C53.12 94.184 54.528 94.472 54.528 95.4C54.528 96.392 53.408 96.488 51.552 96.648C51.04 96.712 44.16 97.32 43.936 97.32C42.24 97.32 41.28 95.144 41.28 94.92C41.28 94.76 41.344 94.696 41.472 94.696ZM40.672 116.552C40.736 116.488 41.632 116.072 41.824 115.976C51.808 110.6 54.432 103.688 54.432 103.016C54.432 102.632 54.208 102.408 53.76 102.408C52.672 102.408 44.64 103.816 43.232 104.232C43.008 104.296 41.984 104.776 41.76 104.776C40.384 104.776 38.112 102.024 38.112 101.128C38.112 101.032 38.208 100.968 38.304 100.968C38.4 100.968 38.784 101.192 38.88 101.224C39.488 101.48 40.704 101.768 42.048 101.768C44.672 101.768 51.04 100.936 52.224 100.808C52.288 100.808 54.4 100.616 54.432 100.616C54.592 100.552 55.2 100.264 55.36 100.264C55.904 100.264 58.176 102.152 58.176 102.888C58.176 103.368 58.048 103.496 57.312 104.104C56.768 104.552 56.448 105.032 55.584 106.376C53.056 110.216 51.072 112.616 46.56 114.92C43.712 116.36 41.184 117 40.896 117C40.64 117 40.608 116.808 40.608 116.744C40.608 116.68 40.64 116.584 40.672 116.552ZM80.736 103.752C80.736 105.288 80.896 112.104 80.896 113.48C80.896 113.96 80.896 116.072 79.2 116.072C78.496 116.072 78.432 115.88 77.76 114.024C77.376 113 77.216 112.744 76.576 111.752C76.448 111.528 76.384 111.464 76.384 111.368C76.384 111.272 76.448 111.24 76.512 111.24C76.736 111.24 77.792 111.656 78.016 111.656C78.432 111.656 78.592 111.304 78.656 110.792C78.816 109.288 78.816 106.088 78.816 104.36C78.816 102.824 78.752 102.248 77.888 102.248C77.696 102.248 73.856 102.792 71.968 103.272C71.776 103.336 70.88 103.624 70.688 103.624C69.984 103.624 68.384 101.448 68.384 100.808C68.384 100.648 68.416 100.52 68.608 100.52C68.736 100.52 68.8 100.552 69.216 100.712C69.952 101.032 71.584 101.032 72.064 101.032C72.8 101.032 76.256 100.84 77.216 100.808C78.432 100.744 78.752 100.52 78.752 99.464C78.752 98.408 78.56 96.296 78.08 95.368C78.016 95.208 77.472 94.696 77.472 94.536C77.472 94.44 77.824 94.216 78.56 94.216C80.768 94.216 81.568 95.624 81.568 95.88C81.568 96.072 81.056 96.776 80.992 96.936C80.704 97.512 80.704 99.08 80.704 99.4C80.704 100.392 81.12 100.552 81.952 100.552C82.976 100.552 84.512 100.296 85.056 100.232C85.472 100.168 87.168 99.752 87.52 99.752C88.48 99.752 89.568 100.232 90.624 100.84C90.976 101.064 91.424 101.32 91.424 101.864C91.424 102.472 90.72 102.504 90.592 102.504C90.112 102.504 88.032 102.152 87.584 102.088C86.368 101.96 84.032 101.928 83.776 101.928C81.024 101.928 80.736 101.928 80.736 103.752ZM90.368 113.288C89.472 113.288 89.184 112.552 88.608 111.176C88.064 109.832 87.072 108.168 86.016 107.24C85.536 106.792 84.736 106.056 84.736 105.896C84.736 105.736 84.896 105.736 84.96 105.736C86.656 105.736 91.808 108.84 91.808 111.528C91.808 112.264 91.424 113.32 90.368 113.288ZM69.28 112.552C68.864 112.424 68.352 112.008 68.352 111.368C68.352 110.76 68.64 110.44 69.568 109.864C70.816 109.096 72.448 107.624 72.704 107.4C72.864 107.24 73.216 106.92 73.344 106.92C73.472 106.92 73.504 107.208 73.504 107.304C73.504 108.808 72 112.68 69.888 112.68C69.632 112.68 69.44 112.616 69.28 112.552ZM89.6 92.104C92.256 92.104 94.08 93.512 94.08 94.888C94.08 95.272 93.824 95.848 93.28 95.848C92.608 95.848 92.192 95.368 91.616 94.632C91.072 93.992 89.856 93.224 88.832 92.84C88.512 92.712 88.416 92.584 88.416 92.488C88.416 92.264 88.992 92.104 89.6 92.104ZM86.592 94.824C88.32 94.824 89.056 94.824 90.176 95.528C91.168 96.136 91.584 96.904 91.584 97.352C91.584 97.992 91.2 98.6 90.688 98.6C90.304 98.6 90.048 98.472 88.96 97.32C88.288 96.616 87.904 96.392 86.56 95.592C86.4 95.496 86.048 95.272 86.048 95.144C86.048 95.048 86.304 94.824 86.592 94.824ZM107.712 98.888C107.712 99.144 107.264 100.68 107.2 101.032C107.072 101.704 106.944 102.536 106.944 107.048C106.944 107.976 106.944 108.744 108 108.744C109.376 108.744 117.568 105.288 123.2 100.392C123.648 100.008 123.712 99.944 123.936 99.944C124.096 99.944 124.192 100.072 124.192 100.2C124.192 100.52 119.456 105.704 111.616 109.8C107.904 111.72 107.648 111.912 106.976 112.744C106.816 112.968 106.752 113 106.624 113C106.368 113 104.448 111.432 104.448 110.568C104.448 110.408 104.704 109.128 104.736 109.064C104.896 108.328 104.896 107.144 104.896 104.936C104.896 100.712 104.896 99.848 104.064 98.344C103.936 98.152 103.36 97.288 103.36 97.096C103.36 96.968 103.552 96.936 103.68 96.936C104.032 96.936 107.712 97.576 107.712 98.888ZM136.736 104.104C137.792 104.104 148.96 103.688 153.632 103.432C153.824 103.432 154.176 103.4 154.336 103.4C156.288 103.4 156.576 104.584 156.576 104.808C156.576 105.704 155.264 105.8 153.92 105.8C153.184 105.8 149.984 105.736 149.344 105.736C144.928 105.736 137.6 106.152 136.832 106.312C136.448 106.376 134.72 106.888 134.336 106.888C132.96 106.888 131.488 104.904 131.488 103.816C131.488 103.624 131.584 103.432 131.744 103.432C131.904 103.432 132.672 103.784 132.832 103.816C133.376 103.976 134.688 104.104 136.736 104.104ZM167.488 115.976C166.784 115.976 166.464 115.464 165.664 113.992C165.568 113.832 164.992 113.16 164.896 113C164.8 112.84 164.704 112.584 164.704 112.392C164.704 112.264 164.8 112.168 164.992 112.168C165.28 112.168 166.496 112.584 166.752 112.584C168.128 112.584 176.736 107.784 184.384 99.112C184.544 98.92 185.664 97.672 185.76 97.672C185.824 97.672 185.888 97.704 185.888 97.8C185.888 98.152 183.072 105 169.824 114.28C169.44 114.536 167.904 115.976 167.488 115.976ZM166.272 101.224C167.648 101.224 169.6 102.504 169.6 104.072C169.6 104.712 169.12 105.672 168.352 105.672C167.872 105.672 167.712 105.48 167.232 104.68C166.56 103.528 165.472 102.696 164.32 102.024C164.224 101.96 164.032 101.832 164.032 101.704C164.032 101.256 165.856 101.224 166.272 101.224ZM169.984 95.112C173.44 95.112 173.44 97.608 173.44 97.704C173.44 98.44 172.928 99.144 172.416 99.144C172.064 99.144 171.904 99.016 170.752 97.64C169.888 96.616 168.768 96.168 168 95.944C167.872 95.912 167.52 95.816 167.52 95.72C167.52 95.624 168.416 95.112 169.984 95.112ZM193.984 102.44C194.112 102.44 194.752 102.664 195.136 102.792C195.648 102.952 196.64 102.952 196.992 102.952C198.176 102.952 203.648 102.728 204.96 102.248C205.216 102.152 206.112 101.384 206.336 101.384C206.592 101.384 208.48 102.824 208.48 103.464C208.48 103.784 208.384 103.88 207.936 104.392C207.776 104.584 207.648 104.84 207.616 105.448C207.52 107.56 207.456 109.96 207.456 112.072C207.456 112.392 207.52 113.8 207.52 114.088C207.52 115.56 206.752 116.136 206.272 116.136C205.792 116.136 205.376 115.624 205.248 114.888C205.184 114.472 205.184 114.376 204.736 114.376C203.68 114.376 198.56 114.984 197.696 115.144C197.44 115.176 196.448 115.464 196.096 115.464C195.232 115.464 194.272 113.416 194.272 113.16C194.272 113.032 194.304 112.776 194.56 112.776C194.656 112.776 194.752 112.808 195.616 113.096C195.744 113.128 196.352 113.352 197.152 113.352C198.432 113.352 204.736 112.712 205.024 112.584C205.376 112.392 205.376 112.104 205.408 111.208C205.408 110.952 205.472 109.608 205.472 109.48C205.472 109.064 205.344 108.872 204.96 108.872C204.832 108.872 202.528 109.192 201.344 109.352C200.48 109.448 197.056 109.896 196.512 109.896C195.616 109.896 194.336 109 194.336 107.944C194.336 107.624 194.4 107.528 194.56 107.528C194.656 107.528 195.04 107.72 195.328 107.848C195.712 108.008 196.256 108.072 196.928 108.072C199.776 108.072 205.088 107.528 205.376 107.208C205.6 106.952 205.632 105.064 205.632 104.616C205.632 104.072 205.472 103.912 204.992 103.912C204.8 103.912 201.152 104.296 198.848 104.584C198.4 104.648 196.448 104.968 196.064 104.968C194.88 104.968 193.696 103.24 193.696 102.792C193.696 102.6 193.856 102.44 193.984 102.44ZM227.36 99.08C227.36 100.04 226.816 100.68 225.984 100.68C225.12 100.68 224.8 100.168 223.744 98.568C222.656 96.936 221.728 96.456 220.832 95.944C220.704 95.88 220.544 95.784 220.544 95.656C220.544 95.528 220.8 95.368 221.248 95.368C224.672 95.368 227.36 97.192 227.36 99.08ZM240.672 98.792C240.672 99.08 236.928 105.064 228.608 111.208C227.776 111.816 226.144 113.032 225.472 113.832C224.864 114.568 224.8 114.632 224.32 114.632C222.592 114.632 220.224 112.584 220.224 111.304C220.224 111.08 220.256 109.608 220.544 109.608C220.672 109.608 221.376 110.152 221.504 110.216C221.92 110.472 222.976 110.952 223.68 110.952C225.248 110.952 233.728 105.288 239.04 100.04C239.552 99.528 240.448 98.632 240.512 98.632C240.576 98.632 240.672 98.728 240.672 98.792ZM250.336 111.752C252.416 111.752 253.888 113.48 253.888 115.304C253.888 117.096 252.448 118.856 250.304 118.856C248.16 118.856 246.784 117.064 246.784 115.272C246.784 112.84 248.896 111.752 250.336 111.752ZM250.304 112.648C248.608 112.648 247.68 114.024 247.68 115.272C247.68 116.744 248.864 117.96 250.368 117.96C251.744 117.96 253.024 116.872 253.024 115.336C253.024 114.088 252.064 112.648 250.304 112.648Z" fill="white"/>
  </svg>
