<svg width="277" height="19" viewBox="0 0 277 19" fill="none" xmlns="http://www.w3.org/2000/svg">
  <path d="M8.7 5.6C8.66 5.44 8.5 5.44 8.46 5.44C8.32 5.44 4.12 6.42 4.02 6.46C3.88 6.5 3.26 6.84 3.12 6.84C2.82 6.84 1.88 6.24 1.76 6.12C1.62 5.98 1.28 5.1 1.28 4.96C1.28 4.86 1.3 4.8 1.4 4.8C1.42 4.8 1.86 4.92 1.92 4.94C2.54 5.12 2.78 5.14 2.98 5.14C3.66 5.14 7.42 4.82 8.46 4.4C8.64 4.32 9.38 3.78 9.56 3.78C10.04 3.78 11.26 4.8 11.26 5.3C11.26 5.48 10.52 6.02 10.4 6.16C10 6.64 8.42 8.98 8.1 9.44C8.02 9.54 7.94 9.68 7.94 9.84C7.94 10.02 7.98 10.06 8.82 10.52C9.72 11.04 13.3 13.06 13.3 14.88C13.3 15.34 12.94 15.76 12.48 15.76C12.02 15.76 11.94 15.62 11.24 14.38C9.86 11.96 8.1 10.44 7.66 10.44C7.46 10.44 7.4 10.5 6.96 11C6.26 11.74 4.22 13.98 1.62 15.28C1.08 15.54 0.54 15.74 0.38 15.74C0.34 15.74 0.24 15.74 0.24 15.62C0.24 15.54 1.04 14.96 1.16 14.88C6.38 11.1 8.76 5.92 8.7 5.6ZM31.6 3.58C33.04 3.58 33.48 4.82 33.48 5.48C33.48 6.56 32.6 7.44 31.58 7.44C30.66 7.44 29.64 6.68 29.64 5.5C29.64 4.5 30.42 3.58 31.6 3.58ZM31.56 4.26C31.1 4.26 30.3 4.66 30.3 5.54C30.3 6.4 31.06 6.76 31.6 6.76C32.46 6.76 32.84 6 32.84 5.54C32.84 4.76 32.1 4.26 31.56 4.26ZM25.56 5.32C26.36 5.32 27.04 6.1 27.58 6.78C27.7 6.94 30.6 10.28 32.94 11.8C33.28 12.02 34.78 12.92 35.04 13.14C35.16 13.22 35.48 13.5 35.48 13.88C35.48 14.34 35 14.48 34.64 14.48C34.06 14.48 32.54 14.48 27.58 8.48C27.34 8.2 26.36 6.96 26.14 6.72C26.04 6.62 25.8 6.42 25.54 6.42C25.2 6.42 25.18 6.42 22.36 9.04C21.84 9.52 21.8 9.56 21.46 10.06C21.26 10.36 20.9 10.68 20.46 10.68C20.06 10.68 19.8 10.58 18.78 9.52C18.7 9.42 18.54 9.26 18.54 8.9C18.54 8.8 18.56 8.66 18.68 8.66C18.78 8.66 19.2 8.74 19.3 8.74C20.22 8.74 21.24 8.36 23.74 6.34C24.68 5.58 25 5.32 25.56 5.32ZM43.08 16.36C42.64 16.36 42.44 16.04 41.94 15.12C41.88 15.02 41.52 14.6 41.46 14.5C41.4 14.4 41.34 14.24 41.34 14.12C41.34 14.04 41.4 13.98 41.52 13.98C41.7 13.98 42.46 14.24 42.62 14.24C43.48 14.24 48.86 11.24 53.64 5.82C53.74 5.7 54.44 4.92 54.5 4.92C54.54 4.92 54.58 4.94 54.58 5C54.58 5.22 52.82 9.5 44.54 15.3C44.3 15.46 43.34 16.36 43.08 16.36ZM42.32 7.14C43.18 7.14 44.4 7.94 44.4 8.92C44.4 9.32 44.1 9.92 43.62 9.92C43.32 9.92 43.22 9.8 42.92 9.3C42.5 8.58 41.82 8.06 41.1 7.64C41.04 7.6 40.92 7.52 40.92 7.44C40.92 7.16 42.06 7.14 42.32 7.14ZM44.64 3.32C46.8 3.32 46.8 4.88 46.8 4.94C46.8 5.4 46.48 5.84 46.16 5.84C45.94 5.84 45.84 5.76 45.12 4.9C44.58 4.26 43.88 3.98 43.4 3.84C43.32 3.82 43.1 3.76 43.1 3.7C43.1 3.64 43.66 3.32 44.64 3.32ZM71.24 7.3C71.82 7.3 73.14 8.34 73.14 8.86C73.14 9.18 72.86 9.28 72.5 9.4C72.08 9.54 71.98 9.62 71.08 10.28C70.74 10.52 69.52 11.36 69.26 11.36C69.18 11.36 69.16 11.28 69.16 11.26C69.16 11.04 70.9 9.18 70.9 8.68C70.9 8.54 70.76 8.52 70.68 8.52C70.58 8.52 68.18 9.1 67.9 9.16C67.18 9.34 67.1 9.36 67.1 9.68C67.1 10 68.14 13.3 68.82 15.02C69.28 16.2 69.38 16.5 69.38 16.86C69.38 17.28 69.18 17.7 68.96 17.7C68.76 17.7 67.94 17.16 67.76 16.58C67.66 16.26 66.58 11.6 66.3 10.68C66.06 9.88 66.02 9.78 65.74 9.78C65.54 9.78 64.12 10.14 63.48 10.42C62.66 10.76 62.58 10.8 62.46 10.8C62.26 10.8 62.16 10.74 61.28 10.14C61.02 9.96 60.88 9.76 60.88 9.42C60.88 9.3 60.9 8.92 61.06 8.92C61.12 8.92 61.42 9.04 61.5 9.06C61.98 9.22 62.36 9.22 62.56 9.22C63.36 9.22 64.86 9 65.36 8.86C65.48 8.82 65.64 8.72 65.64 8.54C65.64 8.22 65.32 6.84 64.66 6.3C64.58 6.24 64.26 6.04 64.2 6C64.18 5.98 64.16 5.94 64.16 5.9C64.16 5.58 64.98 5.58 65.16 5.58C65.98 5.58 66.64 5.74 66.64 6.38C66.64 7.36 66.64 8.44 67.1 8.44C67.52 8.44 69.64 7.98 70.06 7.82C70.24 7.76 71.06 7.3 71.24 7.3ZM84.76 6.76C84.76 6.82 83.74 9.7 83.4 10.46C82.2 13.06 80.1 14.26 79.7 14.26C79.62 14.26 79.6 14.2 79.6 14.16C79.6 14 80.24 13.3 80.4 13.1C82.6 10.08 82.82 7.9 82.82 7.24C82.82 6.72 82.8 6.5 82.48 5.52C82.44 5.38 82.4 5.26 82.4 5.16C82.4 5.1 82.42 5.06 82.5 5.06C82.64 5.06 84.76 5.74 84.76 6.76ZM88.28 13.96C87.7 14.06 86.64 12.88 86.64 12.32C86.64 12.22 86.74 11.7 86.76 11.6C86.82 11.22 86.84 9.64 86.84 9.14C86.84 6.7 86.6 5.88 86.46 5.38C86.42 5.28 86.2 4.76 86.2 4.66C86.2 4.58 86.28 4.56 86.32 4.56C86.42 4.56 88.52 4.92 88.52 5.96C88.52 6.2 88.24 7.24 88.2 7.46C88.12 8 88.04 10.42 88.04 11.08C88.04 11.34 88.06 11.74 88.42 11.74C89.02 11.74 90.86 10.42 92.78 8.48C93.12 8.14 94.82 6.34 94.9 6.34C94.94 6.34 94.98 6.38 94.98 6.42C94.98 6.58 93.82 9.06 90.32 12.14C89.28 13.04 89.08 13.24 88.94 13.42C88.6 13.8 88.42 13.94 88.28 13.96ZM98.7 7.06C98.8 7.06 99.22 7.16 99.3 7.18C99.6 7.22 100.76 7.36 101.02 7.36C101.42 7.36 103.16 7.24 103.52 7.24C103.9 7.22 104.12 7.16 104.12 6.68C104.12 6.08 104 4.96 103.68 4.46C103.62 4.38 103.3 4.04 103.3 3.96C103.3 3.82 103.9 3.76 104 3.76C104.46 3.76 105.8 4.7 105.8 5.1C105.8 5.24 105.46 5.82 105.44 5.94C105.34 6.16 105.36 6.46 105.36 6.66C105.36 6.96 105.56 7.08 105.84 7.08C106.36 7.08 107.62 7 108.12 6.96C108.56 6.92 108.56 6.58 108.56 6.38C108.56 5.7 108.56 3.62 108.42 3.12C108.36 2.94 107.8 2.14 107.8 2.1C107.8 2.02 108.02 1.9 108.26 1.9C108.66 1.9 109.26 2.2 109.86 2.5C110.06 2.6 110.36 2.74 110.36 2.98C110.36 3.12 110.06 3.6 110.02 3.7C109.82 4.16 109.82 5.4 109.82 5.94C109.82 6.58 109.82 6.78 110.3 6.78C110.4 6.78 111.18 6.72 111.66 6.56C112.32 6.32 112.38 6.3 112.66 6.3C113.66 6.3 115.42 6.64 115.42 7.62C115.42 8.04 115.06 8.2 114.78 8.2C114.54 8.2 113.46 7.96 113.24 7.92C112.56 7.82 110.56 7.78 110.52 7.78C109.92 7.78 109.92 7.92 109.86 9.08C109.78 10.98 109.56 13.28 107.74 15.52C106.84 16.62 105.82 17.32 105.66 17.32C105.6 17.32 105.54 17.28 105.54 17.2C105.54 17.18 106.54 15.9 106.7 15.64C108.28 13.3 108.64 11.06 108.64 8.48C108.64 7.84 108.32 7.84 108.04 7.84C107.3 7.84 105.86 7.94 105.66 8.04C105.4 8.18 105.4 8.26 105.4 9.12C105.4 9.56 105.52 11.5 105.52 11.88C105.52 12.84 105.42 13.2 105.14 13.2C104.66 13.2 104.08 11.94 104.08 11.6C104.08 11.4 104.26 9.48 104.26 9.28C104.26 8.32 104.14 8.2 103.8 8.2C103.56 8.2 102.38 8.38 101.24 8.68C101.12 8.72 100.66 8.9 100.54 8.9C100.3 8.9 98.56 8.02 98.56 7.24C98.56 7.12 98.64 7.06 98.7 7.06ZM127.48 7.12C127.48 7.24 127.54 7.32 127.66 7.4C128.44 7.88 128.52 7.96 128.52 8.14C128.52 8.26 128.3 8.82 128.28 8.94C128.2 9.3 128.16 9.72 128.16 12.48C128.16 13.02 128.18 14.1 128.22 14.88C128.24 15.12 128.36 16.28 128.36 16.54C128.36 16.74 128.36 17.42 127.88 17.42C127.32 17.42 126.64 16.56 126.64 16.02C126.64 15.82 126.84 14.94 126.86 14.74C126.98 13.66 127.06 12.12 127.06 11.06C127.06 10.34 127.06 8.24 126.54 8.24C126.44 8.24 126.36 8.32 126.2 8.48C124.24 10.36 120.88 12.3 120.52 12.3C120.46 12.3 120.42 12.26 120.42 12.18C120.42 12.12 120.44 12.08 120.48 12.04C121 11.58 121.56 11.12 121.88 10.84C126.6 6.8 128.16 3.4 128.16 2.84C128.16 2.64 128.1 2.46 128 2.28C127.98 2.24 127.86 2 127.86 1.96C127.86 1.88 127.96 1.8 128.06 1.8C128.36 1.8 130.38 2.64 130.38 3.4C130.38 3.6 130.28 3.74 130.2 3.8C129.66 4.24 129.58 4.36 128.84 5.44C128.5 5.92 127.86 6.64 127.48 7.12ZM144.34 2.08C144.36 1.9 144.88 1.9 144.9 1.9C145.62 1.9 147.06 2.54 147.06 3.18C147.06 3.32 146.86 3.9 146.82 4.02C146.72 4.52 146.64 6.3 146.64 6.8C146.64 7.24 146.72 7.3 147.3 7.44C148.52 7.72 151.62 9.18 151.62 10.68C151.62 11.34 151 11.38 150.9 11.38C150.4 11.38 150.34 11.3 149 9.56C148.44 8.82 147.5 7.88 146.88 7.88C146.68 7.88 146.6 7.88 146.6 9.36C146.6 11.48 146.62 12.54 146.7 14.34C146.72 14.56 146.74 15.06 146.74 15.36C146.74 15.86 146.74 17.18 146.16 17.18C145.56 17.18 145.04 15.82 145.04 15.3C145.04 15.22 145.12 14.8 145.12 14.72C145.26 13.06 145.3 12.54 145.3 10.08C145.3 4.36 145.3 3.72 145.06 3.08C144.9 2.66 144.7 2.46 144.38 2.16L144.34 2.08ZM158.2 8.96L157.82 8.52C157.76 8.44 157.72 8.4 157.72 8.36C157.72 8.32 157.78 8.32 157.8 8.32C158.2 8.32 160.2 8.46 160.66 8.46C161.12 8.46 161.24 8.36 161.4 8.18C161.5 8.06 161.92 7.32 162.1 7.32C162.18 7.32 163.38 8.42 163.38 8.66C163.38 8.78 162.96 9.18 162.88 9.28C162.7 9.6 162.7 11.36 162.7 11.88C162.7 13.46 162.7 14.44 163.98 15.36C164.88 16.02 166.22 16.3 170 16.3C171.2 16.3 172.3 16.3 174.52 16.08C174.78 16.06 176.08 15.84 176.2 15.84C176.24 15.84 176.42 15.84 176.42 15.96C176.42 16 176.22 16.24 176.18 16.3C175.88 16.64 175.86 16.7 175.46 17.6C175.36 17.84 175.26 17.84 174.32 17.84C172.64 17.84 168.14 17.78 166.6 17.48C164.26 17.02 163.7 16.1 163.2 15.26C162.62 14.24 162.54 14.12 162.34 14.12C162.16 14.12 162.02 14.22 161.94 14.3C161.64 14.56 161.46 14.76 159.9 16.64C159.76 16.8 159.24 17.8 159.02 17.8C158.82 17.8 157.78 16.32 157.78 16.28C157.78 16.06 157.86 16.04 158.62 15.78C159.32 15.56 160.96 14.42 161.08 14.26C161.3 14 161.32 14 161.32 9.6C161.32 8.98 161.1 8.98 160.22 8.98C159.92 8.98 158.42 9.08 158.38 9.08C158.3 9.08 158.28 9.04 158.2 8.96ZM158.74 0.959999C160.42 1.56 161.44 1.94 162.14 2.86C162.52 3.34 162.7 3.94 162.7 4.32C162.7 4.82 162.3 5.2 161.96 5.2C161.5 5.2 161.22 4.68 160.98 4.26C160.56 3.48 159.74 2.34 158.52 1.26C158.52 1.24 158.28 1.04 158.28 1C158.28 0.92 158.4 0.92 158.46 0.92C158.54 0.92 158.66 0.939999 158.74 0.959999ZM174.8 7.12H172.24C171.64 7.12 171.64 7.48 171.64 7.9C171.64 8.86 171.72 13.6 171.72 14.68C171.72 15.14 171.64 15.64 170.8 15.64C170.3 15.64 170.18 15.48 170.18 15.12C170.18 14.94 170.34 11.08 170.34 10.32C170.34 10.08 170.26 7.56 170.24 7.46C170.14 7.12 169.9 7.12 169.68 7.12H167.78C167.5 7.12 167.14 7.12 167.12 7.66C167.08 8.36 167.06 9.24 166.98 9.9C166.56 13.5 164.28 15 164.14 15C164.06 15 164.04 14.92 164.04 14.88C164.04 14.72 164.56 14 164.66 13.84C165.84 11.74 165.84 9.16 165.84 6.38C165.84 5.4 165.84 4 165.72 3.1C165.68 2.96 165.5 2.3 165.5 2.14C165.5 2.06 165.5 1.86 165.74 1.86C165.94 1.86 166.06 1.94 166.54 2.2C167.02 2.46 167.24 2.48 167.38 2.48C168 2.48 172.02 1.2 172.88 0.64C172.96 0.579999 173.32 0.279999 173.42 0.279999C173.68 0.279999 175.14 1.52 175.14 1.76C175.14 2.06 174.66 2.06 174 2.06C173.8 2.06 173.44 2.04 172.98 2.14C172.04 2.32 171.3 2.5 168.28 2.8C167.46 2.88 167.36 2.88 167.26 3C167.12 3.14 167.12 3.42 167.12 6C167.12 6.38 167.22 6.6 167.76 6.6H171.92C172.6 6.6 172.88 6.6 173.14 6.4C173.3 6.3 173.88 5.44 174.1 5.44C174.32 5.44 175.86 6.64 175.86 6.86C175.86 7.08 175.68 7.12 174.8 7.12ZM190.2 16.18H184.04C183.92 16.18 183.5 16.18 183.46 16.6C183.42 17.12 183.38 17.68 182.5 17.68C181.84 17.68 181.8 17.28 181.8 16.94C181.8 16.86 181.92 12.86 181.92 12.1C181.92 9.92 181.92 5.16 181.76 3.14C181.74 2.96 181.64 2.12 181.64 1.94C181.64 1.84 181.66 1.78 181.76 1.78C181.84 1.78 181.94 1.82 182.7 2.2C183.26 2.46 183.36 2.48 183.7 2.48H189.82C190.24 2.48 190.4 2.48 190.54 2.28C190.84 1.86 190.92 1.76 191.12 1.76C191.4 1.76 192.86 2.7 192.86 3C192.86 3.14 192.76 3.22 192.42 3.52C192.16 3.72 192.06 3.86 192.06 4.82C192.06 6.96 192.08 7.32 192.1 9.08C192.12 10.22 192.26 15.28 192.26 16.32C192.26 17.02 191.8 17.42 191.26 17.42C191.2 17.42 190.68 17.42 190.62 16.66C190.6 16.32 190.6 16.18 190.2 16.18ZM183.9 8.92H190.04C190.62 8.92 190.62 8.54 190.62 8.28C190.62 8.04 190.56 3.38 190.52 3.28C190.4 3.02 190.14 3.02 190.02 3.02H183.84C183.56 3.02 183.4 3.2 183.38 3.32C183.34 3.48 183.34 7.82 183.34 8.18C183.34 8.56 183.36 8.92 183.9 8.92ZM184 15.64H190.02C190.2 15.64 190.56 15.64 190.6 15.22C190.62 15.1 190.62 10.66 190.62 10.2C190.62 9.78 190.58 9.44 190.04 9.44H183.92C183.4 9.44 183.34 9.74 183.34 10.14C183.34 10.8 183.4 14.02 183.4 14.74C183.4 15.38 183.46 15.64 184 15.64ZM213.16 18.46C212.7 18.5 212.58 18.22 212.32 17.4C212.26 17.24 211.84 16.1 211.74 15.88C211.64 15.68 211.54 15.56 211.36 15.56C211.12 15.56 207.2 16.44 206.42 16.58C205.54 16.74 201.2 17.54 200.88 17.66C200.78 17.72 200.36 18.12 200.26 18.12C200.08 18.12 200 17.94 199.82 17.52C199.6 17.02 199.22 16.1 199.22 16.02C199.22 15.9 199.32 15.88 199.46 15.88C200.52 15.88 202.56 15.88 202.9 15.54C203.48 14.96 204.96 9.52 204.98 9.48C205.1 9 205.22 8.48 205.22 8C205.22 7.8 205.26 7.66 205.44 7.66C205.66 7.66 207.54 8.5 207.54 8.88C207.54 9.12 207.36 9.16 207.02 9.24C206.66 9.32 206.62 9.32 205.2 12.36C204.98 12.86 203.74 15.26 203.74 15.4C203.74 15.62 203.98 15.66 204.12 15.66C204.8 15.66 209.58 15.26 209.86 15.24C211.1 15.12 211.24 15.12 211.24 14.92C211.24 14.5 209.38 12.2 209.38 11.96C209.38 11.94 209.42 11.9 209.44 11.9C210.08 11.9 214.04 15.44 214.04 17.18C214.04 17.78 213.64 18.4 213.16 18.46ZM206.84 2.02L206.5 1.56C206.48 1.54 206.44 1.46 206.44 1.42C206.44 1.4 206.46 1.38 206.48 1.38C206.64 1.38 207.78 1.56 208.02 1.56C208.42 1.56 208.5 1.46 208.8 1.12C209.36 0.479999 209.44 0.399999 209.56 0.399999C209.8 0.399999 211.04 1.5 211.04 1.8C211.04 2.04 210.86 2.04 210.3 2.04C210.14 2.04 209.84 2.04 209.84 2.36C209.84 3.4 211.54 6.9 215.62 9.1C216.08 9.34 216.12 9.38 216.12 9.46C216.12 9.6 215.92 9.6 215.78 9.6C215.3 9.6 214.82 9.64 214.44 9.9C214.34 9.96 214.04 10.42 213.94 10.42C213.36 10.42 209.68 6.06 209.26 2.78C209.18 2.16 209.16 2.04 208.78 2.04C207.9 2.04 207.76 2.04 207.4 2.08C207.34 2.08 207.02 2.14 206.94 2.14C206.9 2.1 206.86 2.04 206.84 2.02ZM203.86 0.959999C203.92 1 205.62 2.1 205.62 2.48C205.62 2.66 205.58 2.68 204.94 2.76C204.8 2.76 204.74 2.86 204.26 3.66C203.28 5.28 201.6 7.86 199.36 9.52C198.76 9.98 198.2 10.26 198.04 10.26C198.02 10.26 197.92 10.26 197.92 10.18C197.92 10.12 198.76 9.32 198.9 9.16C201.76 6.04 203.18 2.2 203.36 1.44C203.48 0.879999 203.58 0.879999 203.66 0.879999C203.72 0.879999 203.8 0.939999 203.86 0.959999ZM220.84 1.58H223.94C224.18 1.58 224.3 1.58 224.5 1.36C224.62 1.22 224.86 0.879999 225.08 0.879999C225.4 0.879999 226.28 1.8 226.28 2.14C226.28 2.26 226.26 2.3 225.92 2.64C225.72 2.84 225.72 3.32 225.72 3.62C225.72 4.04 225.78 6.12 225.78 6.6C225.78 7.58 225.04 7.6 224.9 7.6C224.48 7.6 224.42 7.32 224.32 6.76C224.26 6.44 223.98 6.44 223.68 6.44H221.1C220.42 6.44 220.42 6.6 220.42 7.22C220.42 9.94 220.44 14.3 220.44 17.02C220.44 17.4 220.44 18.36 219.56 18.36C218.98 18.36 218.98 17.86 218.98 17.66C218.98 17.6 219.02 17.12 219.02 16.88C219.2 11.78 219.2 11.44 219.2 6.78C219.2 4.38 219.16 3.6 219.14 3.12C219.12 2.9 219.02 1.28 219.02 1.22C219.02 1.14 219.02 1.02 219.1 1.02C219.46 1.02 219.9 1.28 220.08 1.38C220.42 1.58 220.56 1.58 220.84 1.58ZM221 3.74H223.9C224.46 3.74 224.46 3.7 224.46 2.82C224.46 2.2 224.46 2.12 223.9 2.12H221C220.44 2.12 220.44 2.16 220.44 3.04C220.44 3.64 220.44 3.74 221 3.74ZM223.92 4.26H220.94C220.42 4.26 220.42 4.36 220.42 5.04C220.42 5.84 220.42 5.92 220.94 5.92H223.92C224.44 5.92 224.44 5.8 224.44 5.18C224.44 4.34 224.44 4.26 223.92 4.26ZM229.74 1.58H232.96C233.22 1.58 233.38 1.58 233.64 1.26C233.88 0.979999 234 0.82 234.12 0.82C234.42 0.82 235.46 1.54 235.46 2.1C235.46 2.24 235.38 2.3 235.36 2.32C235.02 2.58 234.96 2.64 234.9 2.8C234.84 3 234.82 4.84 234.82 5.66C234.8 7.08 234.84 14.06 234.84 15.64C234.84 17.02 234.68 17.68 234.08 18.02C233.72 18.22 233.22 18.38 233.02 18.38C232.86 18.38 232.82 18.34 232.54 17.84C232.44 17.64 231.52 16.9 231.52 16.88C231.52 16.82 231.64 16.82 231.68 16.82C231.9 16.84 232.26 16.84 232.48 16.84C233.34 16.84 233.46 16.72 233.46 15.42C233.46 14.24 233.5 8.4 233.5 7.08C233.5 6.56 233.28 6.54 232.84 6.54H230.02C229.42 6.54 229.4 6.66 229.36 7.06C229.3 7.6 228.58 7.7 228.46 7.7C228.22 7.7 227.96 7.62 227.96 7.06V3.48C227.96 3.16 227.86 1.7 227.86 1.36C227.86 1.28 227.9 1.04 228.08 1.04C228.3 1.04 228.46 1.12 229.12 1.44C229.4 1.58 229.5 1.58 229.74 1.58ZM232.94 2.12H229.86C229.28 2.12 229.28 2.16 229.28 2.94C229.28 3.66 229.28 3.7 229.86 3.7H232.94C233.24 3.7 233.52 3.7 233.52 3.34C233.52 3 233.52 2.38 233.48 2.3C233.42 2.12 233.24 2.12 232.94 2.12ZM232.92 4.24H229.88C229.48 4.24 229.34 4.24 229.3 4.5C229.28 4.58 229.28 5.46 229.28 5.58C229.28 6.02 229.44 6.02 229.88 6.02H232.92C233.5 6.02 233.5 6 233.5 5.26C233.5 4.34 233.5 4.24 232.92 4.24ZM230.56 9.14H229.68C229.16 9.14 228.94 9.14 228.94 9.68V11.32C228.94 11.54 228.96 11.78 229.26 11.78H229.96C230.14 11.78 230.34 11.78 230.56 11.46C231.02 10.84 231.06 10.78 231.26 10.78C231.56 10.78 232.58 11.76 232.58 12.04C232.58 12.3 232.16 12.3 231.52 12.3H229.58C229.12 12.3 228.94 12.36 228.94 12.86V16.54C228.94 17.24 228.36 17.54 228 17.54C227.58 17.54 227.58 17.3 227.58 16.88C227.58 16.3 227.74 13.48 227.74 12.84C227.74 12.32 227.48 12.3 227.1 12.3H226.4C225.92 12.3 225.76 12.32 225.72 12.78C225.6 13.8 225.4 14.96 224.2 16.38C223.38 17.34 222.64 17.72 222.54 17.72C222.48 17.72 222.4 17.66 222.4 17.6C222.4 17.56 222.44 17.52 222.7 17.24C223.74 16.1 224.58 14.08 224.58 12.68C224.58 12.4 224.44 12.3 224.18 12.3C223.9 12.3 223 12.3 222.4 12.36C222.34 12.36 222.04 12.4 221.98 12.4C221.9 12.4 221.86 12.36 221.8 12.28L221.4 11.82C221.32 11.72 221.32 11.72 221.32 11.68C221.32 11.64 221.36 11.64 221.4 11.64C221.8 11.64 223.78 11.78 224.22 11.78C224.54 11.78 224.66 11.66 224.66 11.34V9.68C224.66 9.42 224.62 9.16 224.14 9.16C223.96 9.16 223 9.24 222.86 9.24C222.8 9.24 222.76 9.2 222.68 9.12L222.3 8.66C222.22 8.56 222.22 8.56 222.22 8.52C222.22 8.48 222.26 8.48 222.28 8.48C222.42 8.48 223.02 8.54 223.16 8.54C223.74 8.56 224.78 8.62 225.92 8.62H228.44C229.3 8.62 229.48 8.6 229.72 8.3C230.12 7.76 230.18 7.7 230.36 7.7C230.62 7.7 231.62 8.56 231.62 8.88C231.62 9.14 231.2 9.14 230.56 9.14ZM226.44 11.78H227.1C227.5 11.78 227.7 11.78 227.74 11.5V9.72C227.74 9.16 227.68 9.14 227.1 9.14H226.44C225.94 9.14 225.8 9.14 225.8 9.62V11.3C225.8 11.78 225.96 11.78 226.44 11.78ZM241.34 7.38H246.76C247.22 7.38 247.42 7.38 247.42 7.14C247.42 7.12 246.96 6.08 244.8 4.34C244.26 3.9 244.2 3.86 244.2 3.78C244.2 3.72 244.28 3.72 244.3 3.72C244.38 3.72 245.42 4 246.2 4.3C246.5 4.4 248 5 248.06 5C248.24 5 248.32 5.02 248.98 4.2C249.22 3.92 250.12 2.68 250.12 2.44C250.12 2.22 249.88 2.22 249.64 2.22H243.84C243.36 2.22 242.02 2.22 241.32 2.28C241.26 2.28 240.96 2.32 240.9 2.32C240.82 2.32 240.78 2.28 240.72 2.2L240.34 1.74C240.24 1.64 240.24 1.64 240.24 1.6C240.24 1.56 240.28 1.56 240.32 1.56C240.44 1.56 241.06 1.62 241.2 1.62C241.78 1.66 242.8 1.7 243.94 1.7H249.86C250.48 1.7 250.7 1.7 250.86 1.52C251.16 1.16 251.34 0.959999 251.5 0.959999C251.82 0.959999 253.5 1.96 253.5 2.3C253.5 2.5 253.42 2.52 252.66 2.68C252.22 2.76 251.9 2.96 249.08 4.86C248.5 5.24 248.46 5.26 248.46 5.44C248.46 5.54 248.5 5.6 248.58 5.72C248.7 5.9 248.8 6.12 248.8 6.4C248.8 6.48 248.78 6.64 248.7 6.78C248.58 6.98 248.54 7.04 248.54 7.18C248.54 7.38 248.72 7.38 248.92 7.38H252.48C253.36 7.38 253.42 7.34 253.5 7.28C253.88 6.98 254 6.88 254.14 6.88C254.4 6.88 256.1 8.3 256.1 8.7C256.1 8.96 255.84 9.02 255.72 9.02C255.6 9.02 255 8.9 254.86 8.9C254.32 8.9 254.16 9 252.8 9.96C252.6 10.1 251.96 10.58 251.88 10.58C251.8 10.58 251.74 10.52 251.74 10.44C251.74 10.4 253.14 8.5 253.14 8.14C253.14 7.92 252.98 7.9 252.54 7.9H248.52C248.1 7.9 247.74 7.92 247.74 8.46C247.74 9.22 247.84 15.36 247.84 15.52C247.84 16.24 247.8 17.14 247.32 17.7C246.92 18.2 246.32 18.42 246.08 18.42C245.78 18.42 245.68 18.26 245.3 17.68C245.18 17.48 244.84 17.14 244.36 16.92C244.16 16.82 243.16 16.5 243.16 16.32C243.16 16.24 243.32 16.2 243.4 16.2C243.48 16.2 243.84 16.26 243.92 16.26C244.3 16.3 244.66 16.32 245.02 16.32C245.88 16.32 246.18 16.28 246.3 15.88C246.4 15.48 246.4 12.76 246.4 12.1C246.4 11.58 246.34 9.1 246.34 8.54C246.34 8.26 246.34 7.9 245.74 7.9H241.24C240.76 7.9 239.42 7.92 238.72 7.96C238.66 7.96 238.36 8 238.3 8C238.22 8 238.2 7.96 238.12 7.88L237.74 7.42C237.64 7.32 237.64 7.32 237.64 7.28C237.64 7.24 237.7 7.24 237.72 7.24C237.84 7.24 238.46 7.3 238.6 7.3C239.18 7.34 240.2 7.38 241.34 7.38ZM265.8 7.72H264C262.24 7.72 261.68 7.76 261.48 7.78C261.4 7.78 261.12 7.82 261.06 7.82C260.98 7.82 260.94 7.78 260.88 7.7L260.5 7.24C260.42 7.14 260.4 7.14 260.4 7.1C260.4 7.08 260.44 7.06 260.48 7.06C260.62 7.06 261.24 7.12 261.36 7.12C262.34 7.16 263.16 7.2 264.1 7.2H269.52C270.38 7.2 270.58 7.2 270.8 6.86C271.28 6.14 271.32 6.06 271.52 6.06C271.86 6.06 273.24 7.06 273.24 7.42C273.24 7.72 272.88 7.72 272.16 7.72H268.3C267.74 7.72 267.74 7.92 267.74 9.58C267.74 11.14 267.74 11.3 268.3 11.3H269.68C270.54 11.3 270.72 11.3 270.94 10.96C271.32 10.38 271.36 10.3 271.54 10.3C271.78 10.3 272.98 11.32 272.98 11.58C272.98 11.7 272.86 11.8 272.68 11.82C272.48 11.84 272.44 11.84 271.94 11.84H268.36C267.74 11.84 267.74 11.96 267.74 13.16C267.74 13.84 267.74 16.1 267.8 16.2C267.88 16.36 268.04 16.36 268.28 16.38C268.44 16.4 269.48 16.46 270.5 16.46C272.66 16.46 275.2 16.04 275.84 15.84C275.94 15.8 276.36 15.62 276.46 15.62C276.48 15.62 276.52 15.62 276.52 15.7C276.52 15.82 275.3 16.68 275.1 16.92C275.02 17.02 274.82 17.62 274.78 17.72C274.64 17.98 273.84 18 273.56 18C265.54 18 264.58 16.86 263.28 15.34C262.78 14.76 262.56 14.26 262.42 13.9C262.38 13.78 262.34 13.72 262.28 13.72C262.2 13.72 262.16 13.8 261.98 14.08C260.12 17.06 258.38 17.5 258.24 17.5C258.16 17.5 258.12 17.46 258.12 17.42C258.12 17.4 258.42 17.1 258.46 17.06C260.8 14.56 261.8 11.46 261.88 10.02C261.94 9.12 261.94 9.04 262.08 9.04C262.2 9.04 263.8 9.5 263.8 9.78C263.8 9.9 263.4 10.22 263.36 10.3C263.22 10.6 262.88 11.98 262.78 12.26C262.78 12.28 262.44 13.28 262.44 13.32C262.44 14.32 265.02 16.08 266.1 16.08C266.36 16.08 266.36 15.8 266.36 15.66C266.36 14.54 266.4 9.52 266.4 8.5C266.4 8 266.4 7.72 265.8 7.72ZM272.42 4.1H261C260.74 4.1 260.62 4.12 260.5 4.46C260.12 5.66 259.5 6.12 259.02 6.12C258.7 6.12 258.36 5.96 258.36 5.56C258.36 5.28 258.44 5.18 258.94 4.66C259.34 4.22 259.76 3.46 259.94 2.88C260.02 2.64 260.06 2.54 260.14 2.54C260.28 2.54 260.44 2.86 260.56 3.24C260.64 3.54 260.76 3.58 261.02 3.58H265.78C266.26 3.58 266.32 3.3 266.32 2.96C266.32 2.64 266.28 1.76 266.26 1.44C266.24 1.28 266.12 0.54 266.12 0.379999C266.12 0.279999 266.18 0.279999 266.2 0.279999C266.22 0.279999 267.56 0.579999 268.24 0.74C268.3 0.759999 268.38 0.859999 268.38 0.939999C268.38 1.04 267.92 1.4 267.86 1.52C267.76 1.7 267.76 2.58 267.76 2.8C267.76 3.52 267.92 3.58 268.38 3.58H272.3C272.84 3.58 272.94 3.54 273.2 3.34C273.46 3.12 273.68 2.92 273.9 2.92C274.04 2.92 275.74 3.94 275.74 4.48C275.74 4.88 275.28 4.88 275.16 4.88C275.02 4.88 274.3 4.82 274.12 4.82C273.52 4.82 273.1 5.04 272.98 5.1C272.88 5.16 272.5 5.4 272.4 5.4C272.36 5.4 272.34 5.38 272.34 5.34C272.34 5.18 272.82 4.44 272.82 4.24C272.82 4.1 272.7 4.1 272.42 4.1Z" fill="white"/>
  </svg>
