<svg width="21" height="20" viewBox="0 0 21 20" fill="none" xmlns="http://www.w3.org/2000/svg">
<g clip-path="url(#clip0_1_1557)">
<path fill-rule="evenodd" clip-rule="evenodd" d="M16.3755 9.90302C16.3755 9.45851 16.7392 9.09483 17.1837 9.09483H17.1918C17.6363 9.09483 18 9.45851 18 9.90302V15.0673C18 16.4089 16.9089 17.5 15.5673 17.5H5.43265C4.09106 17.5 3 16.4089 3 15.0673V4.93265C3 3.59106 4.09106 2.5 5.43265 2.5H10.4596C10.9041 2.5 11.2678 2.86369 11.2678 3.30819C11.2678 3.75269 10.9041 4.11638 10.4596 4.11638H5.43265C4.98006 4.11638 4.61638 4.48006 4.61638 4.93265V15.0673C4.61638 15.5199 4.98006 15.8836 5.43265 15.8836H15.5593C16.0119 15.8836 16.3755 15.5199 16.3755 15.0673V9.90302ZM15.2117 4.11638H13.8055C13.361 4.11638 12.9973 3.75269 12.9973 3.30819C12.9973 2.86369 13.361 2.5 13.8055 2.5H17.1676C17.2726 2.5 17.3777 2.52425 17.4747 2.56466C17.6686 2.64547 17.8303 2.80711 17.9111 3.00108C17.9515 3.09806 17.9758 3.20312 17.9758 3.30819V6.70259C17.9758 7.14709 17.6121 7.51078 17.1676 7.51078C16.7231 7.51078 16.3594 7.14709 16.3594 6.70259V5.25593L11.0496 10.5657C10.8879 10.7193 10.6859 10.8001 10.4758 10.8001C10.2656 10.8001 10.0636 10.7274 9.90194 10.5657C9.58674 10.2505 9.58674 9.74138 9.90194 9.42618L15.2117 4.11638Z" fill="currentColor"/>
</g>
<defs>
<clipPath id="clip0_1_1557">
<rect width="20" height="20" fill="white" transform="translate(0.5)"/>
</clipPath>
</defs>
</svg>
