<svg width="422" height="60" viewBox="0 0 422 60" fill="none" xmlns="http://www.w3.org/2000/svg">
  <path d="M416.919 45.632C416.919 42.92 415.887 41.456 414.759 41.456C413.631 41.456 412.599 42.896 412.599 45.632C412.599 48.392 413.655 49.808 414.759 49.808C415.887 49.808 416.919 48.344 416.919 45.632ZM415.815 32.048C415.983 32.048 416.151 32.216 416.151 32.408C416.151 32.504 416.031 32.672 415.839 32.96C415.719 33.176 404.775 49.808 404.727 49.88C404.367 50.384 404.343 50.456 404.175 50.456C403.983 50.456 403.815 50.288 403.815 50.12C403.815 49.976 405.351 47.672 405.591 47.312C406.647 45.728 415.095 32.864 415.215 32.672C415.599 32.12 415.647 32.048 415.815 32.048ZM407.367 36.872C407.367 34.184 406.359 32.72 405.207 32.72C404.031 32.744 403.047 34.232 403.047 36.896C403.047 39.56 404.055 41.072 405.207 41.072C406.359 41.072 407.367 39.584 407.367 36.872ZM418.839 45.632C418.839 48.872 416.295 50.456 414.759 50.456C413.223 50.456 410.703 48.872 410.703 45.632C410.703 42.368 413.223 40.808 414.759 40.808C416.295 40.808 418.839 42.368 418.839 45.632ZM409.263 36.872C409.263 40.112 406.791 41.72 405.207 41.72C403.647 41.72 401.151 40.112 401.151 36.896C401.151 33.656 403.647 32.048 405.207 32.048C406.791 32.072 409.263 33.656 409.263 36.872Z" fill="white"/>
  <path d="M410 11.812L406.112 15.712L405.728 15.328L409.628 11.44L405.728 7.552L406.112 7.168L410 11.068L413.888 7.168L414.272 7.552L410.372 11.44L414.272 15.328L413.888 15.712L410 11.812ZM413.264 10.444C413.828 10.444 414.272 10.9 414.272 11.44C414.272 11.98 413.828 12.436 413.264 12.436C412.724 12.436 412.268 11.992 412.268 11.44C412.268 10.888 412.724 10.444 413.264 10.444ZM406.736 10.444C407.288 10.444 407.732 10.9 407.732 11.44C407.732 11.98 407.288 12.436 406.736 12.436C406.184 12.436 405.728 11.992 405.728 11.44C405.728 10.888 406.184 10.444 406.736 10.444ZM410 7.168C410.564 7.168 410.996 7.624 410.996 8.176C410.996 8.704 410.564 9.172 410 9.172C409.448 9.172 409.004 8.716 409.004 8.176C409.004 7.612 409.46 7.168 410 7.168ZM410 13.708C410.564 13.708 410.996 14.164 410.996 14.704C410.996 15.244 410.564 15.712 410 15.712C409.448 15.712 409.004 15.256 409.004 14.704C409.004 14.152 409.46 13.708 410 13.708ZM420.812 16H417.176C416.912 16 416.9 15.844 416.9 15.808C416.9 15.616 417.08 15.616 417.512 15.616C418.16 15.616 418.472 15.58 418.616 15.244C418.7 15.04 418.7 12.928 418.7 12.508C418.7 11.932 418.676 9.136 418.676 8.5C418.676 7.936 418.508 7.936 417.5 7.936C417.212 7.936 417.092 7.936 417.092 7.78C417.092 7.624 417.212 7.612 417.584 7.588C417.872 7.576 418.472 7.456 418.94 7.288C419.024 7.264 419.432 7.024 419.528 7.024C419.66 7.024 419.66 7.06 419.66 7.6C419.66 7.924 419.636 9.472 419.636 9.832C419.636 10.384 419.648 14.992 419.684 15.124C419.768 15.472 419.936 15.616 420.824 15.616C420.932 15.616 421.112 15.616 421.112 15.832C421.112 16 420.92 16 420.812 16Z" fill="white"/>
  <path d="M339.14 36.98C334.4 36.98 327.68 32.6 327.68 23.66C327.68 16.22 332.54 8.12 340.4 8.12C349.82 8.12 354.32 19.4 354.32 28.76C354.32 41.84 346.22 54.14 337.28 54.14C333.38 54.14 329.3 51.44 329.3 48.2C329.3 46.34 330.8 44.78 332.78 44.78C335.6 44.78 335.84 47.42 335.96 49.52C336.02 50.18 336.14 52.22 338.72 52.22C339.8 52.22 343.52 51.56 346.46 45.02C347.9 41.84 348.8 37.28 348.8 33.98C348.8 33.62 348.74 32.84 348.26 32.84C347.9 32.84 347.36 33.32 347.18 33.5C344.12 36.38 341.78 36.98 339.14 36.98ZM340.94 34.34C343.28 34.34 348.86 32.42 348.86 26.48C348.86 22.16 347.12 9.98 340.52 9.98C335.54 9.98 333.2 16.64 333.2 22.88C333.2 30.74 336.86 34.34 340.94 34.34ZM380.06 53H361.88C360.56 53 360.5 52.22 360.5 52.04C360.5 51.08 361.4 51.08 363.56 51.08C366.8 51.08 368.36 50.9 369.08 49.22C369.5 48.2 369.5 37.64 369.5 35.54C369.5 32.66 369.38 18.68 369.38 15.5C369.38 12.68 368.54 12.68 363.5 12.68C362.06 12.68 361.46 12.68 361.46 11.9C361.46 11.12 362.06 11.06 363.92 10.94C365.36 10.88 368.36 10.28 370.7 9.44C371.12 9.32 373.16 8.12 373.64 8.12C374.3 8.12 374.3 8.3 374.3 11C374.3 12.62 374.18 20.36 374.18 22.16C374.18 24.92 374.24 47.96 374.42 48.62C374.84 50.36 375.68 51.08 380.12 51.08C380.66 51.08 381.56 51.08 381.56 52.16C381.56 53 380.6 53 380.06 53Z" fill="white"/>
  <path d="M307.2 36.056H302.28C301.752 36.056 301.584 36.128 301.392 36.416C300.84 37.28 299.496 39.368 299.064 39.368C298.944 39.368 298.896 39.296 298.896 39.2C298.896 39.152 299.784 37.448 299.928 37.112C300.936 34.952 301.992 31.688 301.992 30.392C301.992 30.344 301.968 30.104 301.968 30.056C301.968 29.984 301.992 29.912 302.064 29.912C302.136 29.912 304.68 30.68 304.68 31.16C304.68 31.4 304.392 31.544 304.032 31.712C303.648 31.88 302.136 35.24 302.136 35.264C302.136 35.408 302.328 35.408 302.544 35.408H306.936C307.584 35.408 307.608 35.408 307.872 35.192C308.304 34.784 308.352 34.736 308.52 34.736C308.808 34.736 310.416 35.624 310.416 36.104C310.416 36.272 310.344 36.296 309.816 36.728C309.624 36.872 309.624 37.904 309.624 38.528C309.576 42.944 308.928 48.176 307.584 50.264C306.96 51.248 305.64 51.776 304.992 51.776C304.68 51.776 304.608 51.584 304.392 51.008C304.176 50.408 303.624 49.88 303.072 49.496C302.736 49.28 302.688 49.256 302.688 49.136C302.688 49.04 302.76 49.04 302.784 49.04C302.832 49.04 303.432 49.256 303.552 49.28C304.2 49.472 304.68 49.64 305.064 49.64C306.096 49.64 306.624 48.632 306.912 47.48C307.68 44.576 307.992 41.6 307.992 38.6C307.992 38.216 307.992 36.488 307.92 36.368C307.776 36.056 307.464 36.056 307.2 36.056ZM293.784 37.616C293.784 38.096 293.52 38.648 292.968 38.648C292.632 38.648 292.44 38.504 292.176 37.88C292.08 37.616 291.552 36.488 290.568 35.312C290.328 35.024 290.304 35 290.304 34.928C290.304 34.856 290.352 34.784 290.496 34.784C290.784 34.784 292.056 35.384 292.224 35.384C292.536 35.384 293.376 32.408 293.688 30.488C293.76 30.104 293.808 30.104 293.904 30.104C294.072 30.104 296.064 30.92 296.064 31.208C296.064 31.352 295.464 31.736 295.368 31.832C295.08 32.144 292.968 35.432 292.968 35.768C292.968 35.984 293.064 36.104 293.184 36.224C293.472 36.536 293.784 37.184 293.784 37.616ZM292.104 43.856C292.44 44 293.112 44.312 293.112 44.576C293.112 44.72 292.704 45.104 292.632 45.2C292.224 45.776 290.592 48.368 290.184 48.848C290.016 49.064 289.512 49.616 289.32 49.616C289.248 49.616 289.224 49.592 289.224 49.52C289.224 49.496 289.944 47.768 290.064 47.432C290.496 46.208 290.928 44.984 290.952 44.312C290.976 43.616 290.976 43.544 291.168 43.544C291.312 43.544 291.936 43.784 292.104 43.856ZM299.184 42.776C298.656 42.776 298.344 42.584 298.2 41.792C298.152 41.576 298.104 41.432 297.864 41.432C297.648 41.432 296.52 41.672 296.256 41.696C295.608 41.792 295.608 41.984 295.608 42.896C295.608 43.952 295.632 49.184 295.632 50.36C295.632 51.512 294.624 51.68 294.408 51.68C293.88 51.68 293.88 51.272 293.88 51.104C293.88 50.792 294 49.328 294 48.992C294.048 47.24 294.12 44.288 294.12 42.56C294.12 42.248 294.072 41.984 293.64 41.984C293.208 41.984 291.384 42.152 290.832 42.344C290.736 42.392 290.256 42.704 290.136 42.704C289.704 42.704 289.56 40.784 289.56 40.664C289.56 40.544 289.56 40.304 289.776 40.304C289.8 40.304 290.376 40.472 290.424 40.496C290.928 40.664 291.768 40.832 292.824 40.832C293.592 40.832 293.688 40.76 293.904 40.4C295.128 38.384 296.52 35.144 296.808 33.68C296.928 33.104 296.928 33.056 297.12 33.056C297.24 33.056 299.448 33.944 299.448 34.448C299.448 34.664 299.28 34.736 299.088 34.76C298.872 34.808 298.656 34.832 298.224 35.264C297.576 35.912 294.504 40.616 294.504 40.736C294.504 40.808 294.552 40.832 294.576 40.856C294.672 40.88 296.088 40.88 296.256 40.88C296.616 40.88 297.384 40.832 297.648 40.808C297.768 40.808 297.864 40.76 297.864 40.592C297.864 40.304 297.192 38.936 297.192 38.888C297.192 38.792 297.264 38.792 297.288 38.792C297.672 38.792 299.928 40.088 299.928 41.816C299.928 42.344 299.616 42.776 299.184 42.776ZM303.84 41.768C304.512 42.416 304.896 43.088 304.896 43.808C304.896 44.72 304.32 45.344 303.744 45.344C303.144 45.344 303.072 45.056 302.784 43.496C302.568 42.344 302.184 41.36 302.064 41.12C301.896 40.76 301.872 40.688 301.872 40.616C301.872 40.544 301.872 40.472 301.944 40.472C302.328 40.472 303.456 41.384 303.84 41.768ZM298.608 45.224C299.304 45.92 299.904 46.856 299.904 47.528C299.904 48.224 299.376 48.752 298.92 48.752C298.44 48.752 298.392 48.56 298.032 46.88C297.816 45.92 297.744 45.776 297.264 44.816C297.216 44.696 297.12 44.48 297.12 44.384C297.12 44.288 297.192 44.264 297.24 44.264C297.456 44.264 298.2 44.816 298.608 45.224Z" fill="white"/>
  <path d="M9.624 50H2.352C1.824 50 1.8 49.688 1.8 49.616C1.8 49.232 2.16 49.232 3.024 49.232C4.32 49.232 4.944 49.16 5.232 48.488C5.4 48.08 5.4 43.856 5.4 43.016C5.4 41.864 5.352 36.272 5.352 35C5.352 33.872 5.016 33.872 3 33.872C2.424 33.872 2.184 33.872 2.184 33.56C2.184 33.248 2.424 33.224 3.168 33.176C3.744 33.152 4.944 32.912 5.88 32.576C6.048 32.528 6.864 32.048 7.056 32.048C7.32 32.048 7.32 32.12 7.32 33.2C7.32 33.848 7.272 36.944 7.272 37.664C7.272 38.768 7.296 47.984 7.368 48.248C7.536 48.944 7.872 49.232 9.648 49.232C9.864 49.232 10.224 49.232 10.224 49.664C10.224 50 9.84 50 9.624 50ZM23.4 41.264C23.4 45.512 21.864 50.456 18 50.456C14.208 50.456 12.6 45.68 12.6 41.264C12.6 36.8 14.232 32.048 18 32.048C21.888 32.072 23.4 37.04 23.4 41.264ZM21.24 41.264C21.24 40.256 21.24 32.84 18 32.84C14.808 32.84 14.76 40.04 14.76 41.264C14.76 42.248 14.76 49.688 18 49.664C21.192 49.664 21.24 42.512 21.24 41.264ZM39.84 49.016H32.448C32.304 49.016 31.8 49.016 31.752 49.52C31.704 50.144 31.656 50.816 30.6 50.816C29.808 50.816 29.76 50.336 29.76 49.928C29.76 49.832 29.904 45.032 29.904 44.12C29.904 41.504 29.904 35.792 29.712 33.368C29.688 33.152 29.568 32.144 29.568 31.928C29.568 31.808 29.592 31.736 29.712 31.736C29.808 31.736 29.928 31.784 30.84 32.24C31.512 32.552 31.632 32.576 32.04 32.576H39.384C39.888 32.576 40.08 32.576 40.248 32.336C40.608 31.832 40.704 31.712 40.944 31.712C41.28 31.712 43.032 32.84 43.032 33.2C43.032 33.368 42.912 33.464 42.504 33.824C42.192 34.064 42.072 34.232 42.072 35.384C42.072 37.952 42.096 38.384 42.12 40.496C42.144 41.864 42.312 47.936 42.312 49.184C42.312 50.024 41.76 50.504 41.112 50.504C41.04 50.504 40.416 50.504 40.344 49.592C40.32 49.184 40.32 49.016 39.84 49.016ZM32.28 40.304H39.648C40.344 40.304 40.344 39.848 40.344 39.536C40.344 39.248 40.272 33.656 40.224 33.536C40.08 33.224 39.768 33.224 39.624 33.224H32.208C31.872 33.224 31.68 33.44 31.656 33.584C31.608 33.776 31.608 38.984 31.608 39.416C31.608 39.872 31.632 40.304 32.28 40.304ZM32.4 48.368H39.624C39.84 48.368 40.272 48.368 40.32 47.864C40.344 47.72 40.344 42.392 40.344 41.84C40.344 41.336 40.296 40.928 39.648 40.928H32.304C31.68 40.928 31.608 41.288 31.608 41.768C31.608 42.56 31.68 46.424 31.68 47.288C31.68 48.056 31.752 48.368 32.4 48.368ZM52.776 31.496H56.328C56.592 31.496 56.736 31.496 57 31.232C57.24 30.968 57.432 30.776 57.648 30.776C57.912 30.776 59.112 31.664 59.112 32C59.112 32.12 58.728 32.48 58.656 32.576C58.488 32.792 58.488 32.984 58.488 33.632C58.488 34.256 58.608 37.304 58.608 38C58.608 39.32 57.936 39.56 57.6 39.56C57.024 39.56 56.952 39.104 56.904 38.72C56.832 38.216 56.568 38.216 56.112 38.216H53.136C52.752 38.216 52.368 38.216 52.248 38.528C52.176 38.696 52.176 39.8 52.176 40.232C52.176 41.336 52.176 45.392 52.2 46.304C52.224 46.832 52.296 49.376 52.296 49.952C52.296 50.384 52.296 51.68 51.048 51.68C50.424 51.68 50.424 51.008 50.424 50.84C50.424 50.768 50.448 50.192 50.448 49.88C50.688 42.752 50.688 41.168 50.688 38.528C50.688 37.064 50.688 33.464 50.664 33.152C50.64 32.96 50.52 30.968 50.52 30.944C50.52 30.848 50.52 30.704 50.616 30.704C50.952 30.704 51.6 31.064 51.744 31.136C52.368 31.472 52.44 31.496 52.776 31.496ZM56.328 32.144H52.896C52.344 32.144 52.2 32.144 52.2 32.744V34.04C52.2 34.544 52.416 34.544 52.896 34.544H56.328C56.88 34.544 57.024 34.544 57.024 33.92V32.624C57.024 32.144 56.808 32.144 56.328 32.144ZM56.28 35.168H52.896C52.416 35.168 52.176 35.168 52.176 35.648V37.04C52.176 37.568 52.368 37.568 52.896 37.568H56.28C56.76 37.568 57 37.568 57 37.088V35.72C57 35.192 56.808 35.168 56.28 35.168ZM63.312 31.448H67.416C67.656 31.448 67.728 31.448 67.92 31.256C68.208 30.944 68.304 30.872 68.448 30.872C68.64 30.872 70.008 31.64 70.008 32.096C70.008 32.24 69.888 32.36 69.744 32.48C69.36 32.816 69.36 32.888 69.36 33.752C69.36 35.96 69.408 46.856 69.408 49.328C69.408 50.288 69.288 50.864 68.448 51.296C67.968 51.536 67.44 51.68 67.32 51.68C67.056 51.68 66.888 51.44 66.648 51.032C66.504 50.792 66.36 50.552 65.976 50.336C65.808 50.24 64.8 49.976 64.8 49.76C64.8 49.64 65.688 49.592 65.928 49.592C67.488 49.52 67.728 49.4 67.8 48.728C67.824 48.488 67.872 42.464 67.872 39.032C67.872 38.288 67.536 38.288 66.936 38.288H63.816C63.264 38.288 63.192 38.408 63.12 38.792C63.048 39.32 62.448 39.56 62.016 39.56C61.872 39.56 61.56 39.56 61.44 39.104C61.416 38.96 61.416 34.232 61.416 33.872C61.416 33.512 61.296 31.736 61.296 31.328C61.296 31.208 61.344 30.92 61.56 30.92C61.872 30.92 62.328 31.136 62.688 31.304C62.976 31.448 63.048 31.448 63.312 31.448ZM63.672 34.424H67.2C67.632 34.424 67.872 34.424 67.872 33.896V32.432C67.8 32.072 67.584 32.072 67.2 32.072H63.672C63.264 32.072 63 32.072 63 32.624C63 32.984 63 33.968 63.024 34.064C63.072 34.424 63.336 34.424 63.672 34.424ZM63.72 37.664H67.2C67.656 37.664 67.872 37.664 67.872 37.16V35.576C67.872 35.072 67.68 35.072 67.2 35.072H63.72C63.24 35.072 63.024 35.072 63.024 35.552V37.136C63.024 37.664 63.216 37.664 63.72 37.664ZM57.888 41.168H61.632C61.944 41.168 62.04 41.12 62.184 40.952C62.376 40.736 62.64 40.472 62.856 40.472C63.096 40.472 64.272 41.264 64.272 41.696C64.272 41.84 64.176 41.936 64.128 42.008C63.888 42.32 63.816 42.392 63.792 42.728C63.72 43.352 63.792 47.144 63.792 47.72C63.792 48.368 63.792 48.68 63.576 48.944C63.264 49.304 62.808 49.472 62.568 49.472C62.04 49.472 62.04 48.968 62.04 48.608C62.04 48.032 61.728 48.032 61.248 48.032H58.272C57.72 48.032 57.6 48.128 57.552 48.584C57.456 49.304 57.048 49.712 56.448 49.712C56.136 49.712 55.896 49.592 55.896 48.848C55.896 48.68 55.92 48.032 55.944 47.816C56.016 46.568 56.04 45.848 56.04 44.84C56.04 44.72 56.04 42.416 55.968 41.552C55.968 41.456 55.896 40.928 55.896 40.808C55.896 40.616 55.992 40.592 56.112 40.592C56.376 40.592 57.6 41.168 57.888 41.168ZM61.536 41.816H58.152C57.576 41.816 57.528 41.864 57.528 42.584V43.784C57.6 44.12 57.792 44.12 58.152 44.12H61.536C61.896 44.12 62.088 44.12 62.16 43.784V42.416C62.16 41.816 61.992 41.816 61.536 41.816ZM61.488 44.768H58.2C57.744 44.768 57.528 44.768 57.528 45.272V46.928C57.528 47.384 57.768 47.384 58.2 47.384H61.488C62.016 47.384 62.16 47.384 62.16 46.76C62.16 46.544 62.16 45.224 62.136 45.104C62.064 44.768 61.968 44.768 61.488 44.768ZM75.192 35.792C75.288 35.672 75.984 35.888 76.128 35.888C77.136 35.888 77.496 35.792 80.784 34.856C82.92 34.256 88.416 32.696 90 32.696C90.864 32.696 91.944 33.032 91.944 33.848C91.944 34.472 91.32 34.736 90.96 34.736C90.648 34.736 89.28 34.472 89.016 34.472C85.968 34.472 82.56 37.28 82.56 43.472C82.56 47.504 84.072 47.768 85.488 47.768C85.848 47.768 87.552 47.624 87.768 47.624C88.512 47.624 88.944 47.936 88.944 48.512C88.944 49.784 86.304 49.784 86.16 49.784C81.264 49.784 81.264 45.776 81.264 44.648C81.264 43.592 81.288 38.504 84.744 35.408C84.84 35.336 85.344 34.952 85.344 34.904C85.344 34.856 85.248 34.856 85.2 34.856C83.808 34.856 78.84 36.968 78.048 37.424C77.736 37.592 77.496 37.736 77.232 37.736C76.032 37.736 74.88 36.128 75.192 35.792ZM91.728 37.4C93.144 37.856 94.368 38.888 94.368 40.04C94.368 40.664 93.984 40.928 93.672 40.928C93.096 40.928 92.832 40.232 92.592 39.656C92.376 39.128 91.656 38.264 91.008 37.736C90.888 37.64 90.792 37.544 90.792 37.424C90.792 37.28 91.056 37.28 91.128 37.28C91.32 37.28 91.584 37.352 91.728 37.4ZM88.632 38.384C90.672 38.936 91.464 40.424 91.464 41.192C91.464 41.744 91.008 42.176 90.624 42.176C90.192 42.176 89.976 41.72 89.592 40.784C89.328 40.112 89.16 39.896 88.392 38.912C88.32 38.816 88.152 38.576 88.152 38.48C88.152 38.36 88.416 38.336 88.632 38.384ZM108.528 33.68C108.048 33.68 108.024 33.872 108.024 34.016C108.024 34.088 108.072 34.184 108.072 34.28C108.168 35.048 108.312 35.816 108.312 36.872C108.312 38.48 107.952 40.712 105.84 43.904C103.92 46.832 102.696 47.408 101.736 47.408C100.152 47.408 98.736 44.936 98.736 42.008C98.736 40.736 99 38.312 101.4 35.888C104.448 32.768 107.664 32.768 109.056 32.768C111.24 32.768 112.248 33.2 112.92 33.536C115.512 34.808 117.096 37.376 117.096 40.52C117.096 43.64 115.296 47.48 111.048 48.968C109.008 49.688 107.424 49.856 107.064 49.856C106.968 49.856 106.824 49.832 106.824 49.688C106.824 49.616 106.872 49.592 107.472 49.352C109.968 48.368 115.176 46.304 115.176 40.328C115.176 39.392 115.08 33.68 108.528 33.68ZM107.184 33.752C104.904 33.752 100.224 36.848 100.224 41.384C100.224 42.944 100.848 45.08 102.312 45.08C103.008 45.08 103.584 44.792 105.24 42.296C106.512 40.352 107.592 37.688 107.592 35.312C107.592 33.872 107.496 33.752 107.184 33.752ZM138.96 41.864H136.464C135.816 41.864 135.792 42.008 135.72 43.352C135.672 44.312 135.408 45.728 135.168 46.76C135.288 47.168 138.816 48.8 142.416 48.8C143.136 48.8 143.328 48.8 143.328 48.92C143.328 48.992 143.04 49.184 142.968 49.256C142.296 49.952 142.008 50.264 141.792 50.696C141.576 51.152 141.552 51.2 141.432 51.2C141.168 51.2 139.056 50.816 135.984 49.016C135.744 48.872 134.832 48.176 134.592 48.176C134.424 48.176 133.944 48.824 133.632 49.112C132.72 49.976 131.256 51.032 128.088 51.536C127.968 51.56 127.584 51.608 127.464 51.608C127.368 51.608 127.272 51.536 127.272 51.488C127.272 51.344 127.296 51.32 128.04 51.104C132.288 49.88 133.248 47.384 133.248 47.144C133.248 47 133.032 46.784 132.624 46.352C131.208 44.936 130.752 43.256 130.752 42.992C130.752 42.8 130.872 42.752 130.944 42.752C131.088 42.752 131.16 42.896 131.304 43.208C131.976 44.744 133.464 45.968 133.632 45.968C133.896 45.968 134.112 43.664 134.112 42.728C134.112 42.368 134.064 41.864 133.344 41.864H130.992C130.56 41.864 130.512 41.984 130.32 42.488C130.2 42.824 129.864 43.04 129.168 43.04C129 43.04 128.544 43.04 128.544 42.344C128.544 41.912 128.616 40.04 128.616 39.656C128.616 39.176 128.544 37.04 128.544 36.608C128.544 36.32 128.592 36.248 128.784 36.248C128.976 36.248 129.744 36.68 129.912 36.752C130.296 36.944 130.512 36.992 131.136 36.992H133.368C134.064 36.992 134.064 36.512 134.064 36.416C134.064 34.304 134.064 34.04 133.32 34.04H132.264C131.712 34.04 130.08 34.04 129.24 34.112C129.144 34.112 128.808 34.16 128.736 34.16C128.64 34.16 128.592 34.112 128.52 34.016L128.04 33.464C127.968 33.368 127.944 33.344 127.944 33.32C127.944 33.272 127.968 33.248 128.04 33.248C128.208 33.248 128.952 33.32 129.096 33.344C130.2 33.392 131.256 33.416 132.384 33.416H133.272C133.776 33.416 133.944 33.2 133.944 32.792C133.944 32.36 133.896 31.832 133.872 31.544C133.848 31.352 133.704 30.464 133.704 30.272C133.704 29.984 133.848 29.936 134.064 29.936C134.328 29.936 136.224 30.2 136.224 30.728C136.224 30.848 135.888 31.208 135.864 31.304C135.768 31.616 135.744 31.952 135.744 32.84C135.744 33.416 136.224 33.416 136.464 33.416H138.312C139.392 33.416 139.512 33.416 139.848 33.008C140.52 32.216 140.592 32.12 140.832 32.12C141.144 32.12 142.68 33.44 142.68 33.704C142.68 34.04 142.176 34.04 141.384 34.04H136.464C136.32 34.04 135.744 34.04 135.744 34.664C135.744 36.92 135.744 36.992 136.44 36.992H138.864C139.464 36.992 139.584 36.92 139.848 36.584C140.088 36.272 140.256 36.2 140.4 36.2C140.76 36.2 142.08 37.064 142.08 37.328C142.08 37.472 142.056 37.496 141.72 37.76C141.288 38.096 141.288 38.264 141.288 39.776C141.288 40.184 141.336 42.104 141.288 42.392C141.264 42.728 140.808 43.256 140.232 43.256C139.656 43.256 139.608 42.848 139.56 42.344C139.536 42.152 139.512 41.864 138.96 41.864ZM133.368 37.616H131.088C130.32 37.616 130.32 37.808 130.32 39.416C130.32 41.072 130.32 41.24 131.088 41.24H133.368C134.136 41.24 134.136 41.072 134.136 39.44C134.136 37.808 134.136 37.616 133.368 37.616ZM136.464 41.24H138.936C139.44 41.24 139.608 41 139.608 40.544C139.608 40.256 139.608 38.192 139.584 38.096C139.56 37.88 139.464 37.616 138.936 37.616H136.464C136.128 37.616 135.768 37.688 135.768 38.288C135.768 38.624 135.768 40.688 135.792 40.784C135.84 41.048 135.984 41.24 136.464 41.24ZM125.568 35.96C125.592 36.08 125.736 36.2 125.832 36.248C126.264 36.512 126.312 36.536 126.312 36.68C126.312 36.8 125.88 37.232 125.832 37.352C125.664 37.688 125.664 40.4 125.664 41.024C125.664 41.912 125.688 47.168 125.76 48.8C125.76 49.016 125.856 50.024 125.856 50.24C125.856 51.368 125.064 51.8 124.632 51.8C124.032 51.8 124.032 51.2 124.032 50.888C124.032 49.472 124.128 42.488 124.128 40.928C124.128 40.448 124.128 40.184 124.08 39.032C124.08 38.912 124.056 38.36 123.792 38.36C123.648 38.36 123.504 38.528 123.144 38.912C123.024 39.032 121.152 40.928 120.816 40.928C120.72 40.928 120.672 40.88 120.672 40.784C120.672 40.712 120.72 40.64 120.84 40.496C121.656 39.392 122.616 37.856 123.36 36.656C125.232 33.584 125.976 30.968 126 30.68C126.072 29.96 126.072 29.864 126.264 29.864C126.6 29.864 128.688 31.04 128.688 31.424C128.688 31.616 128.568 31.664 128.184 31.88C127.896 32.024 125.496 35.552 125.568 35.96ZM154.392 43.52H150.096C149.4 43.52 149.4 43.712 149.304 44.576C148.896 48.776 146.232 51.344 145.872 51.344C145.776 51.344 145.728 51.272 145.728 51.224C145.728 51.2 146.304 50.264 146.4 50.072C147.384 48.032 147.792 45.92 147.792 39.944C147.792 38.048 147.744 34.112 147.576 32.336C147.552 32.072 147.384 30.704 147.384 30.656C147.384 30.512 147.408 30.464 147.552 30.464C147.816 30.464 148.488 30.752 148.752 30.872C149.592 31.304 149.88 31.424 150.648 31.424H162.384C162.912 31.424 163.056 31.304 163.224 31.136C163.632 30.704 163.656 30.656 163.824 30.656C164.016 30.656 165.768 31.64 165.768 32.024C165.768 32.24 165.576 32.384 165.384 32.48C164.832 32.768 164.76 32.792 164.76 35.072C164.76 37.04 164.904 45.896 164.904 47.936C164.904 48.992 164.904 51.656 162.672 51.656C162.456 51.656 162.432 51.608 162.264 51.128C161.928 50.264 160.464 49.76 160.248 49.712C160.176 49.688 159.816 49.616 159.816 49.472C159.816 49.376 159.984 49.328 160.104 49.328C160.416 49.328 161.928 49.448 162.264 49.448C163.2 49.448 163.224 49.184 163.224 46.136C163.224 45.824 163.224 44.144 163.176 43.952C163.08 43.52 162.72 43.52 162.456 43.52H157.584C156.936 43.52 156.816 43.76 156.84 44.456C156.864 46.184 156.864 48.152 156.864 50C156.864 50.456 156.792 50.624 156.624 50.792C156.408 50.984 155.976 51.224 155.496 51.224C155.016 51.224 154.992 50.912 154.992 50.6C154.992 49.712 155.136 45.296 155.136 44.288C155.136 43.76 154.968 43.52 154.392 43.52ZM150.12 36.896H154.464C155.184 36.896 155.184 36.896 155.184 34.472C155.184 32.144 155.184 32.072 154.464 32.072H150.096C149.376 32.072 149.376 32.168 149.376 34.16C149.376 36.896 149.4 36.896 150.12 36.896ZM150.096 42.872H154.464C154.68 42.872 154.968 42.848 155.088 42.584C155.184 42.392 155.184 40.088 155.184 39.776C155.184 37.64 155.184 37.544 154.464 37.544H150.096C149.832 37.544 149.52 37.592 149.424 37.976C149.4 38.096 149.4 41.48 149.4 42.032C149.4 42.416 149.4 42.872 150.096 42.872ZM162.408 37.544H157.56C156.816 37.544 156.816 37.616 156.816 39.824C156.816 40.208 156.816 42.368 156.912 42.56C157.032 42.872 157.392 42.872 157.56 42.872H162.456C163.176 42.872 163.176 42.704 163.176 41.12C163.176 37.592 163.152 37.544 162.408 37.544ZM162.288 32.072H157.56C157.248 32.072 156.936 32.12 156.84 32.504C156.816 32.648 156.816 35.408 156.816 35.984C156.816 36.488 156.816 36.896 157.56 36.896H162.336C163.08 36.896 163.08 36.632 163.08 35.264C163.08 32.072 163.056 32.072 162.288 32.072ZM177.336 42.848H176.232C175.8 42.848 175.68 43.064 175.608 43.208C175.416 43.736 175.296 44.048 174.72 44.048C173.904 44.048 173.904 43.352 173.904 42.968C173.904 42.656 173.976 41.144 173.976 40.808C173.976 40.472 173.88 38.888 173.88 38.528C173.88 38.36 173.904 38.192 174.192 38.192C174.336 38.192 175.296 38.6 175.32 38.6C175.848 38.816 175.992 38.816 176.28 38.816H177.456C177.6 38.816 177.792 38.816 177.984 38.672C178.056 38.6 178.44 38.12 178.56 38.12C178.8 38.12 180.096 38.912 180.096 39.296C180.096 39.416 180.072 39.464 179.688 39.872C179.568 39.992 179.544 40.208 179.544 40.52C179.544 40.808 179.688 42.248 179.688 42.56C179.688 43.448 178.8 43.472 178.68 43.472C178.32 43.472 178.272 43.4 178.008 43.064C177.864 42.872 177.504 42.848 177.336 42.848ZM177.216 39.44H176.232C175.464 39.44 175.464 39.8 175.464 40.352C175.464 42.032 175.464 42.224 176.232 42.224H177.216C177.984 42.224 177.984 42.056 177.984 40.496C177.984 39.752 177.984 39.44 177.216 39.44ZM178.824 36.776H177.768C175.68 36.776 174.984 36.824 174.744 36.848C174.672 36.848 174.312 36.896 174.24 36.896C174.144 36.896 174.096 36.848 174.024 36.752L173.568 36.2C173.472 36.08 173.448 36.08 173.448 36.032C173.448 35.984 173.496 35.984 173.544 35.984C173.688 35.984 174.288 36.032 174.408 36.056C175.368 36.128 175.872 36.152 176.52 36.152C177.48 36.152 177.576 36.152 177.792 35.96C177.936 35.816 178.512 35.048 178.704 35.048C179.04 35.048 180.12 36.08 180.12 36.44C180.12 36.776 179.664 36.776 178.824 36.776ZM173.4 46.592C173.4 48.224 173.4 50.672 171.096 50.672C170.88 50.672 170.208 50.672 170.208 50C170.208 49.568 170.304 49.472 171.216 48.584C171.96 47.864 172.512 46.808 172.896 45.8C172.92 45.728 173.064 45.368 173.112 45.368C173.352 45.368 173.4 46.496 173.4 46.592ZM181.176 44.792C182.016 44.96 183.504 45.272 183.504 46.664C183.504 47.264 183.144 47.648 182.76 47.648C182.448 47.648 182.376 47.576 181.776 46.952C181.416 46.592 179.4 44.768 179.4 44.696C179.4 44.648 179.496 44.624 179.544 44.624C180 44.624 180.696 44.696 181.176 44.792ZM188.64 46.064C189.912 46.712 190.584 47.6 190.584 48.44C190.584 49.16 190.08 49.448 189.648 49.448C189.096 49.448 188.928 49.136 188.256 47.72C188.136 47.456 187.032 45.608 187.032 45.584C187.032 45.512 187.128 45.512 187.152 45.512C187.464 45.512 188.424 45.944 188.64 46.064ZM184.824 30.152C186.528 30.728 186.864 31.544 186.864 32C186.864 32.456 186.432 32.792 186.048 32.792C185.496 32.792 185.184 32.408 184.464 31.184C183.984 30.368 183.792 30.272 183.648 30.176C183.6 30.152 183.504 30.104 183.504 30.008C183.504 29.936 183.6 29.912 183.672 29.912C184.032 29.912 184.488 30.032 184.824 30.152ZM189.24 33.824H183.144C182.88 33.824 182.496 33.824 182.496 34.232C182.496 34.688 182.856 35.912 183 36.416C183.168 36.992 183.672 38.72 184.128 38.72C184.512 38.72 185.592 36.632 185.688 35.6C185.736 34.976 185.736 34.832 185.856 34.832C186.168 34.832 188.04 35.936 188.04 36.32C188.04 36.416 188.016 36.464 187.968 36.536C187.92 36.608 187.536 36.776 187.464 36.824C187.344 36.944 186.264 38.456 185.688 39.296C185.232 39.92 185.184 39.992 185.184 40.184C185.184 40.832 187.152 42.08 187.872 42.08C188.376 42.08 189.096 41.072 189.528 40.424C190.344 39.128 190.632 38.672 190.752 38.672C190.824 38.672 190.824 38.768 190.824 38.816C190.824 39.008 189.864 41.912 189.864 42.536C189.864 42.728 190.08 43.688 190.08 43.904C190.08 44.192 189.888 44.624 189.288 44.624C188.496 44.624 186.024 43.52 184.488 42.008C184.224 41.744 184.104 41.672 183.912 41.672C183.72 41.672 183.576 41.792 183.48 41.864C182.04 42.992 181.872 43.112 181.368 43.424C181.08 43.592 180.48 43.808 180.48 43.736C180.48 43.616 183.024 41.168 183.024 40.52C183.024 40.352 182.952 40.208 182.88 40.04C181.872 38.216 181.416 36.92 180.984 34.832C180.816 34.016 180.768 33.824 180.192 33.824H173.448C173.232 33.824 172.872 33.824 172.752 34.112C172.704 34.232 172.704 35.384 172.704 35.576C172.704 41.84 171.408 43.808 170.472 45.128C170.232 45.464 169.392 46.52 169.176 46.52C169.152 46.52 169.104 46.496 169.104 46.448C169.104 46.352 169.392 45.968 169.44 45.872C170.088 44.456 171.072 42.344 171.072 36.272C171.072 35.048 171.048 34.064 170.784 33.008C170.736 32.912 170.52 32.408 170.52 32.288C170.52 32.168 170.64 32.168 170.688 32.168C171.096 32.168 172.104 32.672 172.464 32.864C173.04 33.152 173.304 33.176 173.592 33.176H179.952C180.216 33.176 180.528 33.152 180.528 32.696C180.528 32.528 180.192 30.896 180.144 30.752C180.12 30.656 179.904 30.272 179.904 30.176C179.904 29.96 180.168 29.936 180.48 29.936C181.008 29.936 181.008 29.936 181.92 30.056C182.112 30.08 182.568 30.152 182.568 30.584C182.568 30.752 182.544 30.776 182.232 31.04C182.136 31.136 182.088 31.328 182.088 31.616C182.088 33.176 182.472 33.176 182.976 33.176H186.24C186.504 33.176 187.272 33.176 187.464 33.08C187.704 32.96 188.448 31.712 188.736 31.712C189.048 31.712 190.512 33.128 190.512 33.512C190.512 33.824 190.392 33.824 189.24 33.824ZM176.64 44.648C176.808 44.72 177.552 44.984 177.696 45.056C177.84 45.104 177.984 45.224 177.984 45.392C177.984 45.584 177.864 45.68 177.6 45.848C177.384 46.016 177.312 46.088 177.312 47C177.312 48.824 177.312 48.896 177.432 49.064C177.768 49.496 180.192 49.496 180.984 49.496C184.344 49.496 184.584 48.968 185.328 46.952C185.352 46.904 185.472 46.544 185.544 46.544C185.736 46.544 185.832 48.488 186.048 48.8C186.456 49.328 186.48 49.4 186.48 49.64C186.48 50.216 185.904 50.456 185.616 50.576C184.92 50.84 182.88 51.08 180.72 51.08C179.616 51.08 177.48 50.984 176.52 50.6C175.68 50.264 175.632 49.688 175.632 48.104C175.632 47.768 175.704 46.376 175.704 46.088C175.704 45.728 175.608 45.128 175.512 44.792C175.512 44.768 175.44 44.6 175.44 44.576C175.44 44.456 175.56 44.408 175.68 44.408C175.968 44.408 176.592 44.624 176.64 44.648ZM202.32 39.608H205.032C205.584 39.608 205.752 39.344 205.752 39.008C205.752 38.72 205.728 37.568 205.728 37.448C205.704 36.92 205.248 36.944 205.056 36.944H202.68C200.568 36.944 199.872 36.992 199.632 36.992C199.56 37.016 199.2 37.064 199.128 37.064C199.056 37.064 199.008 36.992 198.912 36.896L198.456 36.344C198.408 36.272 198.36 36.224 198.36 36.2C198.36 36.152 198.384 36.128 198.432 36.128C198.696 36.128 199.92 36.248 200.184 36.248C200.352 36.248 201.768 36.296 202.128 36.296C202.56 36.296 202.824 36.056 202.824 35.648C202.824 33.824 202.824 33.656 202.152 33.656C201.888 33.656 200.4 33.752 200.208 33.752C200.112 33.752 200.064 33.704 199.992 33.608L199.512 33.056C199.44 32.984 199.416 32.936 199.416 32.888C199.416 32.84 199.44 32.84 199.512 32.84C199.92 32.84 201.744 32.984 202.128 32.984C202.512 32.984 202.8 32.792 202.8 32.384C202.8 31.832 202.776 31.328 202.68 30.776C202.656 30.656 202.464 30.176 202.464 30.08C202.464 29.912 202.68 29.912 202.728 29.912C203.064 29.912 204.96 30.104 204.96 30.632C204.96 30.8 204.912 30.824 204.624 31.088C204.408 31.256 204.384 31.448 204.384 32.144C204.384 32.528 204.384 33.008 205.104 33.008H207.72C208.368 33.008 208.416 32.528 208.416 32.336C208.416 31.232 208.416 30.968 208.344 30.488C208.344 30.416 208.272 30.176 208.272 30.056C208.272 29.84 208.512 29.816 208.68 29.816C208.968 29.816 210.24 30.224 210.408 30.296C210.576 30.392 210.648 30.56 210.648 30.68C210.648 30.8 210.216 31.136 210.168 31.256C210.096 31.472 210.072 32.12 210.072 32.384C210.072 33.008 210.6 33.008 210.888 33.008C211.824 33.008 211.896 32.936 212.016 32.816C212.184 32.672 212.76 31.904 212.928 31.904C213.288 31.904 214.344 32.936 214.344 33.296C214.344 33.632 213.888 33.632 213.072 33.632H210.744C210.24 33.632 210.048 33.896 210.048 34.328C210.048 36.128 210.048 36.32 210.72 36.32C211.68 36.32 211.8 36.32 212.136 35.912C212.808 35.096 212.88 35.024 213.096 35.024C213.264 35.024 215.352 36.296 215.352 36.608C215.352 36.944 214.872 36.944 214.056 36.944H207.936C207.72 36.944 207.192 36.944 207.192 37.592C207.192 39.488 207.192 39.608 207.936 39.608H210.96C211.656 39.608 211.896 39.224 211.944 39.152C212.304 38.552 212.376 38.432 212.688 38.432C213.168 38.432 214.32 39.32 214.32 39.704C214.32 39.848 213.792 40.352 213.72 40.448C213.576 40.712 213.576 41.096 213.576 41.336V45.608C213.576 46.088 213.72 48.392 213.72 48.896C213.72 50.024 213.552 50.792 212.952 51.344C212.52 51.728 212.04 51.896 211.776 51.896C211.488 51.896 211.416 51.8 210.72 50.984C210.552 50.768 209.856 50.288 209.664 50.192C209.496 50.096 209.448 50.072 209.448 50C209.448 49.928 209.568 49.928 209.616 49.928C211.848 49.928 212.112 49.928 212.112 49.184C212.112 47.864 212.136 42.104 212.136 40.928C212.136 40.256 211.656 40.256 211.416 40.256H207.888C207.336 40.256 207.192 40.568 207.192 40.88C207.192 41.384 207.192 46.328 207.24 46.496C207.336 46.88 207.744 46.88 207.888 46.88H208.296C208.968 46.88 208.968 46.496 208.968 45.656C208.968 45.032 208.992 42.704 208.92 42.296C208.92 42.224 208.824 41.912 208.824 41.792C208.824 41.672 208.896 41.672 209.016 41.672C209.16 41.672 211.032 42.056 211.032 42.416C211.032 42.536 210.624 42.944 210.6 43.064C210.504 43.352 210.48 44.36 210.48 44.72C210.48 45.152 210.648 47.024 210.648 47.384C210.648 48.92 209.544 49.016 209.472 49.016C208.968 49.016 208.944 48.416 208.944 48.152C208.92 47.912 208.848 47.528 208.296 47.528H204.864C204.264 47.528 204.192 47.816 204.144 48.08C204.024 48.584 203.808 49.136 203.256 49.136C202.68 49.136 202.512 48.584 202.512 47.84C202.512 47.6 202.56 46.544 202.56 46.304C202.56 45.608 202.56 42.824 202.464 42.248C202.464 42.176 202.392 41.912 202.392 41.792C202.392 41.672 202.536 41.648 202.704 41.648C202.872 41.648 204.672 41.888 204.672 42.416C204.672 42.56 204.168 43.016 204.12 43.136C204.024 43.4 204.024 43.616 204.024 45.248C204.024 46.856 204.12 46.88 205.08 46.88C205.512 46.88 205.752 46.64 205.752 46.232C205.752 45.488 205.752 40.76 205.728 40.64C205.608 40.256 205.2 40.256 205.032 40.256H201.984C201.504 40.256 201.384 40.352 201.288 40.472C201.12 40.688 201.144 42.224 201.144 42.632C201.144 43.856 201.192 49.28 201.192 50.384C201.192 50.648 201.168 51.872 200.112 51.872C199.944 51.872 199.488 51.8 199.488 51.152C199.488 50.528 199.512 49.808 199.536 49.184C199.68 45.92 199.68 45.464 199.68 41.288C199.68 40.16 199.68 40.04 199.656 39.776C199.632 39.632 199.464 38.96 199.464 38.816C199.464 38.624 199.56 38.576 199.752 38.576C200.28 38.576 200.736 38.912 201.24 39.272C201.336 39.344 201.696 39.608 202.32 39.608ZM207.744 33.632H205.056C204.384 33.632 204.384 34.088 204.384 34.64C204.384 36.032 204.384 36.296 205.056 36.296H207.744C208.416 36.296 208.416 35.84 208.416 35.408C208.416 33.824 208.416 33.632 207.744 33.632ZM196.296 30.464C197.064 30.848 198.12 31.616 198.12 32.48C198.12 33.08 197.616 33.608 197.136 33.608C196.656 33.608 196.584 33.464 195.984 32.144C195.576 31.232 195.384 30.872 194.88 30.272C194.856 30.248 194.784 30.152 194.784 30.128C194.784 30.032 194.88 30.032 194.928 30.032C195.048 30.032 195.936 30.296 196.296 30.464ZM194.832 35.552C195.24 35.792 196.224 36.512 196.224 37.568C196.224 38.432 195.504 38.624 195.24 38.624C194.832 38.624 194.76 38.504 194.184 37.208C193.776 36.32 193.152 35.528 192.816 35.24C192.552 35.024 192.528 35 192.528 34.928C192.528 34.856 192.624 34.856 192.648 34.856C192.816 34.856 193.992 35.072 194.832 35.552ZM197.496 37.688C197.544 37.568 197.856 36.704 197.952 36.704C198 36.704 198.024 36.776 198.024 36.824C198.024 37.496 196.632 43.76 196.632 45.104C196.632 45.728 196.752 46.616 196.944 47.432C197.448 49.448 197.52 49.664 197.52 50.096C197.52 51.248 196.68 51.584 196.272 51.584C195.36 51.584 195.36 50.552 195.36 50.168C195.36 49.856 195.384 48.512 195.384 48.224C195.384 46.4 194.736 45.296 193.56 45.008C192.912 44.84 192.84 44.816 192.84 44.744C192.84 44.552 194.328 44.312 194.592 44.216C195.12 44 195.408 43.424 195.696 42.728C195.96 42.104 196.896 39.392 197.496 37.688ZM227.04 37.952H223.32C223.008 37.952 222.696 37.976 222.576 38.312C222.432 38.792 222.024 38.96 221.568 38.96C220.752 38.96 220.752 38.528 220.752 38.12C220.752 37.64 220.944 34.304 220.944 33.584C220.944 32.528 220.872 31.592 220.824 31.16C220.8 31.064 220.752 30.752 220.752 30.68C220.752 30.608 220.776 30.56 220.896 30.56C221.184 30.56 221.592 30.752 222.288 31.112C222.816 31.376 223.32 31.4 223.68 31.4H232.176C232.536 31.4 232.848 31.4 233.208 31.112C233.328 31.016 233.76 30.392 233.904 30.392C234.072 30.392 235.8 31.472 235.8 31.76C235.8 31.928 235.632 32.072 235.368 32.192C234.936 32.408 234.912 32.576 234.912 33.104C234.912 33.8 234.936 36.872 234.936 37.52C234.936 37.808 234.936 38.864 233.76 38.864C233.232 38.864 233.184 38.72 233.088 38.336C232.968 37.952 232.608 37.952 232.368 37.952H230.136C229.392 37.952 229.368 38.336 229.368 38.888C229.368 40.088 229.368 42.248 229.44 42.44C229.56 42.752 229.944 42.752 230.136 42.752H232.44C233.208 42.752 233.376 42.704 233.472 42.584C233.64 42.416 234.216 41.456 234.432 41.456C234.552 41.456 236.184 42.752 236.184 43.04C236.184 43.376 235.8 43.376 235.176 43.376H230.136C229.368 43.376 229.368 43.568 229.368 45.296C229.368 45.824 229.368 48.416 229.392 48.728C229.464 49.496 229.968 49.568 231.072 49.568C232.992 49.568 236.04 49.424 237.816 48.92C238.056 48.848 239.208 48.488 239.304 48.488C239.328 48.488 239.352 48.488 239.352 48.536C239.352 48.632 238.776 49.184 238.68 49.328C238.128 50.024 237.984 50.528 237.984 51.032C237.984 51.104 237.984 51.248 237.912 51.296C237.72 51.392 236.112 51.392 235.8 51.392C228.192 51.392 225.408 50.648 223.032 46.64C222.888 46.376 222.744 46.184 222.552 46.184C222.384 46.184 222.312 46.304 221.64 47.192C219.408 50.24 216.936 51.512 216.672 51.512C216.624 51.512 216.6 51.464 216.6 51.44C216.6 51.416 217.68 50.336 217.896 50.096C221.856 45.68 222.816 41.528 222.816 41C222.816 40.52 222.816 40.472 223.008 40.472C223.248 40.472 225.072 41.216 225.24 41.288C225.36 41.36 225.576 41.528 225.576 41.72C225.576 42.008 225.408 42.056 224.832 42.272C224.616 42.344 224.568 42.392 224.448 42.608C223.944 43.592 223.704 43.976 223.296 44.672C223.176 44.84 223.08 45.056 223.08 45.32C223.08 46.736 226.032 49.04 227.232 49.04C227.76 49.04 227.76 48.872 227.76 47.336V38.6C227.76 37.952 227.4 37.952 227.04 37.952ZM232.44 32.024H223.32C222.528 32.024 222.528 32.072 222.528 34.28C222.528 34.664 222.528 36.8 222.6 36.992C222.744 37.328 223.152 37.328 223.32 37.328H232.416C233.232 37.328 233.232 37.28 233.232 34.088C233.232 32.24 233.232 32.024 232.44 32.024ZM245.856 36.992H248.52C248.784 36.992 249.216 36.992 249.216 36.248C249.216 36.032 249.024 35.024 249.024 34.856C249.024 34.736 249.144 34.616 249.384 34.616C249.456 34.616 250.368 34.784 250.56 34.808C251.04 34.904 251.304 34.928 251.304 35.192C251.304 35.312 251.232 35.408 251.04 35.648C250.896 35.816 250.848 35.888 250.848 36.056C250.848 36.728 250.968 36.992 251.616 36.992H253.872C254.568 36.992 254.592 36.56 254.592 36.2C254.592 35.984 254.352 34.928 254.352 34.856C254.352 34.736 254.472 34.592 254.736 34.592C254.856 34.592 256.68 34.784 256.68 35.192C256.68 35.336 256.68 35.336 256.416 35.72C256.32 35.84 256.32 35.984 256.32 36.344C256.32 36.848 256.608 36.992 257.016 36.992H258.072C258.912 36.992 259.224 36.992 259.632 36.512C260.208 35.792 260.256 35.72 260.568 35.72C260.952 35.72 262.584 36.824 262.584 37.28C262.584 37.64 262.464 37.64 261.336 37.64H257.04C256.344 37.64 256.344 38.072 256.344 38.384C256.344 38.744 256.368 40.304 256.344 40.64C256.272 41.6 255.192 41.72 255.024 41.72C254.544 41.72 254.496 41.456 254.496 41.216C254.496 40.688 254.304 40.616 253.776 40.616H251.736C251.376 40.616 251.088 40.64 251.04 40.952C250.968 41.456 250.944 41.768 250.08 41.768C249.288 41.768 249.288 41.24 249.288 41.048V38.096C249.192 37.64 248.784 37.64 248.592 37.64H245.832C245.16 37.64 245.136 38.072 245.136 38.384C245.136 42.128 245.112 45.008 243.624 48.104C242.76 49.88 241.392 51.56 241.2 51.56C241.128 51.56 241.056 51.488 241.056 51.392C241.152 51.176 241.608 50.168 241.776 49.784C243.072 46.616 243.504 43.736 243.504 39.416C243.504 38.432 243.48 34.904 243.192 33.44C243.12 33.2 242.952 32.84 242.952 32.6C242.952 32.48 243.072 32.36 243.216 32.36C243.264 32.36 244.656 32.888 244.944 32.96C245.184 33.032 245.592 33.104 246.024 33.104H250.464C250.92 33.104 251.184 32.936 251.184 32.48C251.184 32.096 251.088 31.592 251.016 31.256C250.992 31.088 250.8 30.344 250.8 30.272C250.8 30.128 250.944 30.032 251.088 30.032C251.136 30.032 252.312 30.248 252.504 30.272C253.44 30.44 253.536 30.44 253.536 30.728C253.536 30.872 253.488 30.92 253.272 31.184C253.104 31.376 253.008 31.496 253.008 32.432C253.008 33.104 253.464 33.104 253.728 33.104H257.688C258.6 33.104 258.792 33.104 259.2 32.528C259.416 32.24 259.8 31.688 260.136 31.688C260.424 31.688 262.2 32.912 262.2 33.392C262.2 33.752 262.056 33.752 260.928 33.752H245.856C245.568 33.752 245.136 33.752 245.136 34.4C245.136 36.968 245.136 36.992 245.856 36.992ZM253.896 37.64H251.64C251.136 37.64 250.968 37.856 250.968 38.408C250.968 39.68 250.968 39.992 251.664 39.992H253.872C254.592 39.992 254.592 39.704 254.592 38.672C254.592 38.024 254.592 37.64 253.896 37.64ZM247.224 43.448L246.744 42.896C246.648 42.8 246.648 42.776 246.648 42.728C246.648 42.68 246.672 42.68 246.744 42.68C246.912 42.68 247.632 42.752 247.8 42.752C248.976 42.8 249.96 42.848 251.088 42.848H255.624C256.128 42.848 256.344 42.848 256.656 42.608C256.824 42.488 257.52 41.84 257.712 41.84C258.168 41.84 259.44 42.992 259.44 43.328C259.44 43.712 258.984 43.88 258.6 44C258.168 44.144 258.024 44.312 256.632 45.68C255.528 46.76 255.312 46.952 255.048 47.192C254.976 47.264 254.76 47.408 254.76 47.6C254.76 47.912 256.32 48.392 256.824 48.56C257.616 48.8 259.608 49.448 262.68 49.448C263.04 49.448 263.256 49.448 263.256 49.568C263.256 49.64 262.272 50.312 262.104 50.456C261.936 50.6 261.288 51.32 261.144 51.464C261.048 51.56 260.904 51.584 260.76 51.584C260.472 51.584 257.592 51.032 254.616 49.304C254.448 49.208 253.464 48.632 253.344 48.632C253.128 48.632 251.544 49.568 251.208 49.736C250.56 50.024 248.04 51.224 244.032 51.224C243.816 51.224 243.576 51.176 243.576 51.032C243.576 50.888 244.032 50.816 244.272 50.792C247.608 50.312 249.528 49.28 250.104 48.968C250.56 48.728 252.024 47.912 252.024 47.6C252.024 47.504 250.824 46.088 250.608 45.776C250.416 45.488 249.672 44.096 249.504 43.808C249.408 43.64 249.216 43.496 248.856 43.496C248.64 43.496 247.584 43.592 247.44 43.592C247.344 43.592 247.296 43.544 247.224 43.448ZM255.552 43.472H250.968C250.344 43.472 250.128 43.472 250.128 43.784C250.128 44.36 252.24 46.832 253.032 46.832C253.608 46.832 255.936 44.096 255.936 43.712C255.936 43.472 255.744 43.472 255.552 43.472Z" fill="white"/>
  <rect y="57" width="264" height="1" fill="white"/>
  </svg>
