<svg width="180" height="80" viewBox="0 0 180 80" fill="none" xmlns="http://www.w3.org/2000/svg">
  <path d="M15.3978 53.1646L9.1562 63.4299V53.1646H3.5166V79.5566H9.1562V67.6438L15.9047 79.5566H22.1146L14.1305 65.4576L21.6077 53.1646H15.3978Z" fill="white"/>
  <path d="M43.8179 0.728516L32.0317 39.477H40.4278L42.8991 30.3206H53.8614L56.1109 39.477H65.0456L53.6397 0.728516H43.8179ZM44.61 23.8889L48.6337 8.96614L52.2773 23.8889H44.61Z" fill="white"/>
  <path d="M164.245 0C154.804 0 148.879 7.16039 148.879 20.0554C148.879 32.9505 154.74 40.0792 164.245 40.0792C173.75 40.0792 179.612 32.9822 179.612 20.0554C179.612 7.12871 173.687 0 164.245 0ZM164.245 33.5208C160.158 33.5208 157.718 28.8633 157.718 20.0554C157.718 11.2475 160.158 6.52673 164.245 6.52673C168.332 6.52673 170.772 11.2158 170.772 20.0554C170.772 28.895 168.332 33.5208 164.245 33.5208Z" fill="white"/>
  <path d="M174.352 53.1646H168.713V79.5566H174.352V53.1646Z" fill="white"/>
  <path d="M143.937 68.3091H149.957V79.5566H155.596V53.1646H149.957V63.5249H143.937V53.1646H138.266V79.5566H143.937V68.3091Z" fill="white"/>
  <path d="M136.586 33.0136H123.089V22.9067H135.382V16.475H123.089V7.1602H136.079V0.728516H114.788V39.4453H136.586V33.0136Z" fill="white"/>
  <path d="M84.5622 21.9562L94.4474 39.4453H103.54L91.8493 18.7562L102.843 0.728516H93.7503L84.5622 15.7463V0.728516H76.2612V39.4453H84.5622V21.9562Z" fill="white"/>
  <path d="M79.5879 53.1646V69.3546C79.5879 76.515 82.3443 79.9685 88.4592 79.9685C94.574 79.9685 97.3621 76.515 97.3621 69.3546V53.1646H91.9443V70.0517C91.9443 73.7903 91.279 75.5329 88.5859 75.5329C85.8928 75.5329 85.2909 73.7586 85.2909 70.0517V53.1646H79.5879Z" fill="white"/>
  <path d="M56.8393 53.1646H51.1997V79.5566H56.8393V67.6438L63.5561 79.5566H69.766L61.8136 65.4576L69.2908 53.1646H63.0809L56.8393 63.4299V53.1646Z" fill="white"/>
  <path d="M120.903 79.9999C122.962 79.9999 124.895 79.6514 126.701 78.891V73.8217C125.18 74.8039 123.406 75.3108 121.79 75.3108C117.608 75.3108 115.137 72.1425 115.137 66.3445C115.137 60.5464 117.513 57.5049 121.568 57.5049C123.279 57.5049 124.99 57.8851 126.542 58.8989V53.9564C124.578 53.1009 122.645 52.7207 120.713 52.7207C113.806 52.7207 109.148 57.9801 109.148 66.3445C109.148 74.7088 113.742 79.9999 120.903 79.9999Z" fill="white"/>
  <path d="M8.80792 39.4453H17.1089V7.73049H25.8218V0.728516H0V7.73049H8.80792V39.4453Z" fill="white"/>
  <path d="M37.9882 53.1646H32.3169V79.5566H37.9882V53.1646Z" fill="white"/>
  </svg>
