<svg width="144" height="271" viewBox="0 0 144 271" fill="none" xmlns="http://www.w3.org/2000/svg">
<path d="M59.7036 242.433C59.7036 242.433 59.7544 242.433 59.7713 242.467C59.7713 242.501 59.7544 242.535 59.7036 242.585C59.1957 243.11 58.9079 243.736 58.8402 244.429C58.8063 244.7 58.7894 245.089 58.7894 245.579V247C58.7894 247.338 58.7894 247.761 58.7894 248.302C58.7894 248.556 58.7894 248.996 58.8232 249.605C58.8571 250.231 58.891 250.637 58.9248 250.84C59.0603 251.77 59.4666 252.497 60.1269 253.022L60.0591 253.089C58.4846 253.039 57.2826 253.005 56.5038 253.005C55.505 253.005 54.6584 253.039 53.9474 253.089C54.0828 252.971 54.3198 252.683 54.6584 252.244C54.9801 251.652 55.1494 251.127 55.1494 250.687C55.1494 248.996 55.1325 247.592 55.0817 246.442C55.0817 246.391 55.0309 246.374 54.9463 246.374C54.4553 247.186 53.9474 248.083 53.4564 249.081C53.2702 249.436 53.0332 249.909 52.7453 250.501L52.2205 251.635C52.0851 251.922 51.9158 252.311 51.7126 252.785C51.5433 253.14 51.4417 253.343 51.4417 253.377C51.3232 253.191 51.2386 253.005 51.1539 252.819L50.8322 252.108C50.7984 252.007 50.6968 251.804 50.5275 251.482C50.3413 251.127 50.0535 250.552 49.6302 249.774C48.9699 248.59 48.2419 247.406 47.4293 246.239C47.4124 246.188 47.3785 246.154 47.3447 246.154C47.2939 246.154 47.26 246.188 47.2431 246.273C47.2431 246.273 47.2431 246.29 47.2431 246.323C47.2431 246.459 47.2431 246.763 47.2431 247.186C47.2431 248.319 47.3277 249.284 47.514 250.079C47.7171 251.009 48.0726 251.804 48.5806 252.497C48.7668 252.683 49.0207 252.886 49.3593 253.106C49.3593 253.106 49.3593 253.106 49.3255 253.123C49.2916 253.14 49.2916 253.123 49.2578 253.123C49.2408 253.123 49.2239 253.123 49.207 253.14C48.5805 253.089 47.8695 253.072 47.0399 253.072H44.8729C45.6178 252.48 46.1426 251.669 46.4304 250.637C46.6336 249.892 46.7352 248.911 46.7352 247.71C46.7352 247.355 46.7352 247 46.7352 246.679V245.664C46.7182 245.545 46.7013 245.342 46.7013 245.072C46.3796 244.514 45.8548 243.888 45.093 243.177C44.8898 242.974 44.6528 242.754 44.3988 242.518H46.9214C48.2927 242.518 49.2578 242.501 49.7995 242.467C49.7995 242.467 49.7995 242.484 49.8334 242.501C49.8503 242.501 49.8672 242.518 49.8672 242.535C50.1212 243.397 50.6122 244.361 51.3232 245.427C51.3571 245.478 51.5941 245.85 52.0343 246.51C52.2544 246.814 52.576 247.288 53.0162 247.93C53.0332 247.93 53.067 247.93 53.1009 247.964C53.1347 247.981 53.1686 248.015 53.1855 248.032L53.2363 248.066C53.2363 248.066 53.321 248.049 53.3718 247.998C53.6426 247.558 54.049 246.882 54.5738 245.985C54.9463 245.292 55.1325 244.632 55.1325 244.006C55.1325 243.786 55.1156 243.533 55.0648 243.279C55.0478 243.194 54.9801 243.076 54.8616 242.873C54.7431 242.687 54.6754 242.552 54.6415 242.484H56.5715C56.7578 242.501 57.1133 242.518 57.6551 242.518C58.5524 242.518 59.2465 242.501 59.7544 242.45L59.7036 242.433ZM61.8537 242.484C62.3786 242.484 63.0558 242.484 63.9023 242.535C64.9011 242.568 65.7646 242.585 66.5264 242.585C67.8978 242.585 69.303 242.552 70.7251 242.484V243.448C70.7251 243.82 70.742 244.158 70.7589 244.446C70.7589 244.734 70.7589 245.072 70.7589 245.444C70.7589 245.478 70.7589 245.495 70.7082 245.495C70.6574 245.495 70.5727 245.359 70.3865 245.072C70.3357 244.987 70.268 244.903 70.2003 244.818C70.1325 244.734 70.0987 244.666 70.0648 244.632C70.031 244.598 70.014 244.564 70.014 244.564C69.0829 243.549 68.1686 243.042 67.3052 243.042C67.1698 243.042 67.0343 243.042 66.882 243.093C66.6788 243.296 66.5772 243.668 66.5603 244.226C66.5603 244.598 66.5603 245.173 66.5603 245.968C66.5603 246.915 66.6111 247.389 66.7296 247.389C67.3729 247.389 68.0163 247.102 68.6596 246.526C68.9136 246.307 69.1675 246.036 69.4384 245.698C69.4723 245.698 69.4892 246.459 69.4892 247.998V249.368C69.1675 248.928 68.7781 248.573 68.2872 248.319C67.7962 248.066 67.2883 247.93 66.7465 247.93C66.628 247.947 66.5772 248.573 66.5772 249.808C66.5772 250.704 66.628 251.482 66.7296 252.108C66.7804 252.362 66.9666 252.497 67.2883 252.48H67.9655C68.8797 252.43 69.7262 251.888 70.505 250.874C70.7928 250.484 71.1314 249.994 71.47 249.402C71.47 249.757 71.47 250.095 71.47 250.383C71.47 250.671 71.47 251.009 71.47 251.364C71.47 251.77 71.47 252.345 71.5039 253.089L69.049 253.039H67.0513C65.3413 253.039 63.6652 253.072 62.0061 253.157C61.9214 253.14 61.8876 253.106 61.8876 253.072C61.8876 253.039 61.9045 252.971 61.9384 252.903C62.6325 252.091 62.9711 250.857 62.9711 249.182V248.387V248.066V246.51C62.9711 245.275 62.9034 244.429 62.768 243.939C62.6494 243.533 62.3616 243.042 61.8876 242.484H61.8537ZM78.6992 242.484C78.9531 242.484 79.0885 242.501 79.0885 242.585C79.0547 242.687 79.0377 242.822 79.0377 243.008C79.0547 243.363 79.1563 243.668 79.3256 243.905C79.461 244.108 79.7996 244.547 80.3244 245.224C80.8493 245.884 81.5603 246.729 82.4746 247.761C82.5931 247.88 82.6777 247.947 82.7624 247.947C82.8301 247.947 82.8639 247.897 82.8639 247.795C82.8639 246.408 82.7962 245.41 82.6777 244.801C82.4915 243.82 82.0852 243.127 81.4587 242.721C81.3402 242.636 81.2894 242.568 81.2894 242.535C81.2894 242.501 81.391 242.484 81.6111 242.484H84.54C84.6585 242.484 84.7262 242.484 84.7262 242.518C84.7262 242.552 84.6755 242.619 84.5739 242.687C83.9644 243.144 83.575 243.989 83.4226 245.207C83.3549 245.715 83.3211 246.307 83.3211 247C83.3211 247.102 83.3211 247.474 83.3549 248.15L83.4057 249.453C83.4226 249.791 83.4396 250.315 83.4565 250.992L83.4904 251.702C83.5242 252.311 83.5411 252.734 83.5411 253.005C83.5411 253.089 83.4396 253.14 83.2364 253.14H82.5931C82.1021 253.14 81.8312 253.106 81.7804 253.022C81.154 252.074 80.3244 250.958 79.2748 249.639C78.1066 248.15 77.0231 246.865 76.0073 245.782C75.9565 245.731 75.9057 245.715 75.8549 245.715C75.7702 245.715 75.7364 245.748 75.7195 245.799C75.7195 245.968 75.7195 246.323 75.7195 246.882C75.7195 248.269 75.838 249.368 76.0581 250.214C76.3967 251.449 77.0231 252.345 77.9034 252.903C78.005 252.971 78.0558 253.039 78.0558 253.089C78.0558 253.157 78.005 253.174 77.8865 253.157C77.1585 253.123 76.4644 253.106 75.821 253.106C75.3809 253.106 74.9745 253.106 74.619 253.106C74.2635 253.106 73.8741 253.106 73.4339 253.106C73.3662 253.106 73.3323 253.106 73.3323 253.072C73.3323 253.039 73.3831 252.988 73.4847 252.886C74.2127 252.227 74.7206 251.415 74.9745 250.468C75.093 250.011 75.1438 249.52 75.1608 248.962C75.1946 247.93 75.2115 247.237 75.2115 246.865C75.2115 246.019 75.1946 245.326 75.1608 244.784C74.5343 244.074 74.0264 243.583 73.654 243.279C73.4339 243.093 73.1122 242.873 72.689 242.602L72.6551 242.568C72.6551 242.568 72.7736 242.484 72.9768 242.501C74.6529 242.552 75.6348 242.568 75.9565 242.568C76.7691 242.568 77.6833 242.535 78.733 242.467L78.6992 242.484ZM87.1303 242.162C87.5874 242.162 87.9599 242.382 88.2646 242.822C88.4339 243.059 88.5017 243.33 88.5017 243.634C88.5017 244.209 88.2985 244.734 87.9091 245.19C87.6721 245.478 87.3166 245.698 86.8594 245.85C86.7409 245.85 86.6901 245.782 86.6901 245.647C86.9102 245.512 87.1642 245.342 87.4012 245.139C87.4859 245.055 87.5366 244.936 87.5366 244.801C87.452 244.767 87.2996 244.75 87.0626 244.75C86.961 244.75 86.8594 244.75 86.7917 244.717C86.1484 244.497 85.8267 244.091 85.8267 243.499C85.8267 243.11 85.9452 242.788 86.1822 242.535C86.4193 242.281 86.724 242.146 87.1134 242.146L87.1303 242.162ZM98.8798 242.535C98.8798 242.535 98.9983 242.433 99.0322 242.433C99.0829 242.433 99.0999 242.484 99.0999 242.568V243.465C99.0999 243.566 99.0999 243.803 99.0999 244.192C99.0999 244.734 99.1168 245.258 99.1676 245.782C98.9983 245.664 98.8121 245.495 98.6089 245.275C98.2872 244.92 98.1179 244.734 98.101 244.717C97.3053 243.922 96.4588 243.397 95.5954 243.177C95.3075 243.076 94.9859 243.042 94.6303 243.042C93.8177 243.042 93.1405 243.296 92.5987 243.786C92.3448 244.006 92.2093 244.243 92.1924 244.497C92.1416 244.717 92.1078 244.903 92.1078 245.004C92.1078 245.326 92.2093 245.579 92.3956 245.782C92.6326 246.104 93.0389 246.273 93.5976 246.273C93.6653 246.273 93.8516 246.273 94.1563 246.239C94.2917 246.239 94.7319 246.171 95.4938 246.053C96.0525 245.968 96.5096 245.918 96.8313 245.918C97.4069 245.918 97.864 246.036 98.2364 246.273C98.4057 246.374 98.592 246.526 98.7951 246.763C99.3538 247.406 99.6247 248.218 99.6247 249.182C99.6247 249.757 99.5231 250.265 99.32 250.671C99.0491 251.296 98.6089 251.838 98.0333 252.277C97.7285 252.514 97.4238 252.683 97.1191 252.785C97.0683 252.785 97.0005 252.819 96.9159 252.836C96.8312 252.853 96.7127 252.886 96.5434 252.937C96.3741 252.988 96.2387 253.022 96.1202 253.039C95.917 253.089 95.6461 253.123 95.3245 253.123C95.0028 253.123 94.6303 253.089 94.1902 253.022C93.513 252.92 93.1405 252.869 93.0728 252.853C92.9204 252.853 92.7003 252.853 92.4294 252.853C91.803 252.853 91.2613 252.988 90.8211 253.242C90.7195 253.242 90.6687 253.242 90.6687 253.208C90.7026 252.7 90.7195 252.074 90.7195 251.33C90.7195 250.755 90.7195 250.18 90.6687 249.622C90.6687 249.622 90.7195 249.622 90.7872 249.622C91.4475 250.535 92.1416 251.246 92.8865 251.77C93.75 252.362 94.6473 252.666 95.5784 252.666C96.3064 252.666 96.882 252.497 97.3222 252.159C97.5931 251.956 97.7624 251.702 97.864 251.432C97.9148 251.313 97.9317 251.144 97.9317 250.958C97.9317 250.603 97.8471 250.298 97.6777 250.062C97.4238 249.656 96.9159 249.453 96.154 249.47C95.9509 249.47 95.4768 249.537 94.7319 249.673C94.0039 249.825 93.4622 249.892 93.0897 249.892C92.2601 249.892 91.6337 249.639 91.1935 249.114C90.7195 248.556 90.4825 247.795 90.4825 246.831C90.4825 246.307 90.5841 245.782 90.7703 245.224C90.9565 244.717 91.1935 244.294 91.4813 243.989C92.1755 243.245 93.022 242.839 94.0209 242.755C94.2071 242.721 94.4102 242.704 94.6642 242.704C94.9181 242.704 95.3583 242.738 95.9847 242.822C96.6112 242.89 97.0513 242.941 97.3053 242.941C97.9148 242.941 98.4227 242.822 98.8459 242.585L98.8798 242.535ZM33.208 259.195C33.208 259.195 33.3266 259.094 33.3604 259.094C33.4112 259.094 33.4281 259.145 33.4281 259.229V260.126C33.4281 260.227 33.4281 260.464 33.4281 260.853C33.4281 261.394 33.4451 261.919 33.4959 262.443C33.3266 262.325 33.1403 262.156 32.9372 261.936C32.6155 261.58 32.4462 261.394 32.4293 261.377C31.6336 260.582 30.787 260.058 29.9236 259.838C29.6358 259.737 29.3141 259.703 28.9586 259.703C28.146 259.703 27.4688 259.957 26.927 260.447C26.673 260.667 26.5376 260.904 26.5207 261.158C26.4699 261.377 26.436 261.564 26.436 261.665C26.436 261.986 26.5376 262.24 26.7238 262.443C26.9609 262.764 27.3672 262.934 27.9259 262.934C27.9936 262.934 28.1798 262.934 28.4846 262.9C28.62 262.9 29.0602 262.832 29.822 262.714C30.3807 262.629 30.8378 262.578 31.1595 262.578C31.7351 262.578 32.1922 262.697 32.5647 262.934C32.734 263.035 32.9202 263.187 33.1234 263.424C33.6821 264.067 33.953 264.879 33.953 265.843C33.953 266.418 33.8514 266.925 33.6482 267.331C33.3773 267.957 32.9372 268.499 32.3615 268.938C32.0568 269.175 31.7521 269.344 31.4473 269.446C31.3965 269.446 31.3288 269.48 31.2442 269.496C31.1595 269.513 31.041 269.547 30.8717 269.598C30.7024 269.649 30.567 269.683 30.4484 269.699C30.2453 269.75 29.9744 269.784 29.6527 269.784C29.3311 269.784 28.9586 269.75 28.5184 269.683C27.8412 269.581 27.4688 269.53 27.401 269.513C27.2487 269.513 27.0286 269.513 26.7577 269.513C26.1313 269.513 25.5895 269.649 25.1493 269.902C25.0478 269.902 24.997 269.902 24.997 269.869C25.0308 269.361 25.0478 268.735 25.0478 267.991C25.0478 267.416 25.0478 266.841 24.997 266.283C24.997 266.283 25.0478 266.283 25.1155 266.283C25.7757 267.196 26.4699 267.907 27.2148 268.431C28.0782 269.023 28.9755 269.327 29.9067 269.327C30.6347 269.327 31.2103 269.158 31.6505 268.82C31.9214 268.617 32.0907 268.363 32.1922 268.093C32.243 267.974 32.26 267.805 32.26 267.619C32.26 267.264 32.1753 266.959 32.006 266.722C31.7521 266.317 31.2442 266.114 30.4823 266.13C30.2791 266.13 29.8051 266.198 29.0602 266.333C28.3322 266.486 27.7904 266.553 27.418 266.553C26.5884 266.553 25.962 266.3 25.5218 265.775C25.0478 265.217 24.8107 264.456 24.8107 263.492C24.8107 262.967 24.9123 262.443 25.0985 261.885C25.2848 261.377 25.5218 260.955 25.8096 260.65C26.5037 259.906 27.3502 259.5 28.3491 259.415C28.5353 259.382 28.7385 259.365 28.9925 259.365C29.2464 259.365 29.6866 259.398 30.313 259.483C30.9394 259.551 31.3796 259.601 31.6336 259.601C32.243 259.601 32.7509 259.483 33.1742 259.246L33.208 259.195ZM42.181 259.162H47.1415C47.0568 259.229 46.8537 259.331 46.5489 259.483C46.2442 259.618 46.041 259.737 45.9564 259.804C45.33 260.143 44.5681 260.718 43.6708 261.564L42.5196 262.629C42.2487 262.9 41.927 263.17 41.5715 263.458C41.5715 263.559 41.6223 263.61 41.7069 263.61C42.5873 263.458 43.2306 263.373 43.6539 263.373C44.3142 263.373 44.8559 263.526 45.2623 263.796C45.5162 263.965 45.7194 264.185 45.8548 264.439C46.041 264.743 46.1257 265.149 46.1257 265.674C46.1257 265.911 46.0918 266.266 46.041 266.722C45.9902 267.247 45.9733 267.602 45.9733 267.771C45.9733 267.94 45.9733 268.126 46.0241 268.312L46.0749 268.448C46.1257 268.566 46.1934 268.617 46.295 268.634C46.4981 268.634 46.6844 268.532 46.8537 268.312C46.8875 268.262 46.9553 268.008 47.0399 267.551C47.0738 267.433 47.1246 267.331 47.1923 267.23C47.3277 267.23 47.4124 267.281 47.4124 267.382C47.4124 268.397 47.023 269.141 46.2273 269.632C45.804 269.902 45.2961 270.038 44.6697 270.038C44.1449 270.038 43.6878 269.919 43.2984 269.716C42.7397 269.327 42.4688 268.718 42.4688 267.89C42.4688 267.636 42.4857 267.315 42.5196 266.942C42.5534 266.57 42.5704 266.232 42.5704 265.978C42.5704 265.471 42.4857 265.048 42.3164 264.727C42.0625 264.338 41.6562 264.151 41.1144 264.151C41.0805 264.151 40.962 264.151 40.7758 264.185C40.6911 264.185 40.5557 264.219 40.3864 264.27C40.3525 264.27 40.3187 264.321 40.2848 264.405C40.3017 265.251 40.3356 266.198 40.3864 267.23C40.471 268.177 40.7419 268.955 41.216 269.564C41.2668 269.632 41.2837 269.683 41.2837 269.699L41.2329 269.733C41.2329 269.733 41.1821 269.767 41.1821 269.784C40.0817 269.75 39.1505 269.733 38.3886 269.733C37.6268 269.733 36.7464 269.75 35.5783 269.784C35.5783 269.784 35.5783 269.767 35.5952 269.733C35.5952 269.716 35.629 269.683 35.646 269.649C35.6629 269.615 35.6798 269.581 35.6968 269.547C36.2893 268.786 36.5771 267.298 36.5771 265.082V264.151C36.5771 264.033 36.5771 263.779 36.5771 263.373C36.5771 262.849 36.5433 262.122 36.4755 261.225C36.357 260.532 36.12 259.923 35.7645 259.382C35.7137 259.314 35.6968 259.28 35.6968 259.246C35.6968 259.196 35.7476 259.162 35.8322 259.179C37.0004 259.212 37.813 259.229 38.2871 259.229H39.7092C39.8108 259.212 40.0817 259.195 40.5388 259.195C40.6573 259.195 40.725 259.212 40.725 259.28L40.6573 259.449C40.3864 259.94 40.234 260.769 40.234 261.919V262.697C40.234 262.934 40.234 263.204 40.234 263.492C40.234 263.543 40.2848 263.576 40.3695 263.576C41.1144 263.306 41.69 262.883 42.1133 262.308C42.5027 261.767 42.7058 261.191 42.7058 260.582C42.7058 260.312 42.655 260.041 42.5365 259.788C42.418 259.652 42.2826 259.432 42.1302 259.145L42.181 259.162ZM54.0659 259.162C54.0659 259.162 54.1336 259.162 54.1336 259.212C54.1336 259.263 54.0998 259.331 54.0151 259.415C53.6765 259.771 53.5072 260.38 53.5072 261.242V267.551C53.5072 268.025 53.6426 268.499 53.8966 268.989C53.9643 269.141 54.1675 269.378 54.4891 269.75C53.304 269.699 52.3898 269.666 51.7634 269.666C50.9677 269.666 50.0704 269.699 49.0715 269.75C49.0715 269.666 49.1562 269.581 49.3255 269.446C49.681 269.124 49.8672 268.6 49.8672 267.839V261.327C49.8672 260.853 49.8334 260.515 49.7657 260.312C49.681 260.041 49.5117 259.754 49.2239 259.466C49.1223 259.365 49.0885 259.297 49.0885 259.246C49.0885 259.212 49.0885 259.179 49.1392 259.162C50.3074 259.212 51.137 259.229 51.6449 259.229C52.339 259.229 53.1347 259.196 54.0659 259.128V259.162ZM62.04 259.162C62.2939 259.162 62.4294 259.179 62.4294 259.263C62.3955 259.365 62.3786 259.5 62.3786 259.686C62.3955 260.041 62.4971 260.346 62.6664 260.582C62.8018 260.785 63.1404 261.225 63.6652 261.902C64.1901 262.562 64.9011 263.407 65.8154 264.439C65.9339 264.557 66.0185 264.625 66.1032 264.625C66.1709 264.625 66.2048 264.574 66.2048 264.473C66.2048 263.086 66.137 262.088 66.0185 261.479C65.8323 260.498 65.426 259.804 64.7996 259.398C64.681 259.314 64.6303 259.246 64.6303 259.212C64.6303 259.179 64.7318 259.162 64.9519 259.162H67.8808C67.9993 259.162 68.0671 259.162 68.0671 259.195C68.0671 259.229 68.0163 259.297 67.9147 259.365C67.3052 259.821 66.9158 260.667 66.7634 261.885C66.6957 262.392 66.6619 262.984 66.6619 263.678C66.6619 263.779 66.6619 264.151 66.6957 264.828L66.7465 266.13C66.7635 266.469 66.7804 266.993 66.7973 267.67L66.8312 268.38C66.865 268.989 66.882 269.412 66.882 269.683C66.882 269.767 66.7804 269.818 66.5772 269.818H65.9339C65.4429 269.818 65.172 269.784 65.1212 269.699C64.4948 268.752 63.6652 267.636 62.6156 266.317C61.4474 264.828 60.3639 263.543 59.3481 262.46C59.2973 262.409 59.2465 262.392 59.1957 262.392C59.1111 262.392 59.0772 262.426 59.0603 262.477C59.0603 262.646 59.0603 263.001 59.0603 263.559C59.0603 264.946 59.1788 266.046 59.3989 266.892C59.7375 268.126 60.3639 269.023 61.2442 269.581C61.3458 269.649 61.3966 269.716 61.3966 269.767C61.3966 269.835 61.3458 269.852 61.2273 269.835C60.4993 269.801 59.8052 269.784 59.1618 269.784C58.7217 269.784 58.3153 269.784 57.9598 269.784C57.6043 269.784 57.2149 269.784 56.7747 269.784C56.707 269.784 56.6731 269.784 56.6731 269.75C56.6731 269.716 56.7239 269.666 56.8255 269.564C57.5535 268.904 58.0614 268.093 58.3153 267.145C58.4339 266.689 58.4846 266.198 58.5016 265.64C58.5354 264.608 58.5524 263.915 58.5524 263.543C58.5524 262.697 58.5354 262.003 58.5016 261.462C57.8752 260.752 57.3673 260.261 56.9948 259.957C56.7747 259.771 56.453 259.551 56.0298 259.28L55.9959 259.246C55.9959 259.246 56.1144 259.162 56.3176 259.179C57.9937 259.229 58.9756 259.246 59.2973 259.246C60.1099 259.246 61.0242 259.212 62.0738 259.145L62.04 259.162ZM81.8989 259.162C82.0174 259.162 82.0682 259.246 82.0682 259.415V260.109V260.921C82.0682 261.344 82.0682 261.75 82.0174 262.156C81.9159 261.902 81.7466 261.564 81.5095 261.175C80.8662 260.21 80.1043 259.72 79.1901 259.72C78.5129 259.804 78.0558 260.075 77.8018 260.566C77.7003 260.853 77.6156 261.191 77.5648 261.564C77.5648 261.614 77.5648 261.665 77.5648 261.733C77.5648 261.8 77.5479 261.868 77.531 261.953C77.531 262.037 77.514 262.105 77.4971 262.172V264.541C77.4632 265.589 77.4971 266.452 77.5648 267.145C77.7341 267.788 77.9542 268.262 78.1912 268.566C78.3436 268.752 78.5637 268.904 78.8346 269.023C79.1055 269.141 79.3764 269.209 79.6642 269.209C80.2906 269.209 80.8493 269.006 81.3233 268.617C81.5773 268.346 81.882 267.94 82.2375 267.399L82.3222 267.365C82.3222 267.365 82.4407 267.416 82.4407 267.534C82.2714 268.076 81.9328 268.549 81.4249 268.955C80.917 269.361 80.3752 269.598 79.8165 269.699C79.3764 269.767 78.987 269.818 78.6314 269.818C76.8538 269.818 75.4655 269.091 74.4836 267.619C74.1111 267.044 73.8571 266.401 73.7217 265.691C73.6709 265.335 73.6371 264.98 73.6371 264.625C73.6371 263.61 73.8571 262.68 74.2804 261.817C74.9407 260.549 75.9903 259.754 77.4463 259.415C77.9204 259.314 78.3775 259.263 78.8684 259.263C79.1224 259.263 79.3425 259.263 79.5457 259.314C80.0705 259.365 80.4768 259.398 80.7815 259.398C81.2217 259.398 81.5942 259.331 81.9159 259.179L81.8989 259.162ZM86.3177 259.162C87.2658 259.195 88.0445 259.195 88.654 259.195C89.0942 259.195 89.6868 259.195 90.4317 259.162C90.6179 259.162 90.7533 259.162 90.8041 259.229C90.8549 259.28 90.9057 259.415 90.9396 259.601L91.075 260.16C91.4475 261.242 91.9215 262.646 92.4802 264.371C93.0389 266.063 93.4622 267.264 93.733 267.957C93.9023 268.38 94.0716 268.735 94.2409 269.006C94.3256 269.124 94.4441 269.277 94.6134 269.463L94.7489 269.564C94.7489 269.564 94.8674 269.683 94.8674 269.699C94.8674 269.733 94.7827 269.75 94.6134 269.75C93.733 269.716 92.8527 269.699 91.9554 269.699C90.9904 269.699 90.11 269.716 89.3143 269.75C89.2804 269.75 89.2635 269.75 89.2635 269.699C89.2635 269.683 89.2635 269.666 89.2635 269.649C89.6698 269.361 89.8561 268.955 89.8561 268.448C89.8561 268.042 89.6698 267.382 89.2804 266.469C89.0942 265.978 88.9757 265.708 88.9588 265.623C88.891 265.505 88.8233 265.437 88.7387 265.437H86.7409C86.487 265.437 86.3515 265.741 86.3515 266.367V266.807C86.3515 267.264 86.3854 267.619 86.4531 267.856C86.5039 268.076 86.6393 268.414 86.8425 268.82C87.0118 269.175 87.2488 269.463 87.5536 269.716C86.8425 269.683 86.0468 269.666 85.1834 269.666C84.3199 269.666 83.5242 269.666 82.7454 269.716C82.6946 269.699 82.6608 269.683 82.6608 269.666C82.6608 269.632 82.7285 269.564 82.847 269.48C83.3718 269.158 83.8797 268.735 84.3369 268.211C85.0479 267.348 85.6405 266.3 86.1145 265.048C86.9949 262.511 87.4351 261.208 87.452 261.141C87.452 260.887 87.3335 260.582 87.0965 260.227C86.8933 259.906 86.6732 259.652 86.4362 259.449C86.2669 259.314 86.1992 259.212 86.1992 259.128C86.1992 259.094 86.233 259.077 86.3007 259.077L86.3177 259.162ZM87.9938 262.562C87.8922 262.308 87.8075 262.172 87.7398 262.172C87.6721 262.172 87.6044 262.257 87.5197 262.409C87.5197 262.409 87.5197 262.443 87.5028 262.494C87.5028 262.545 87.4689 262.578 87.4689 262.595C87.4351 262.697 87.3673 262.934 87.2319 263.323C87.0965 263.712 86.978 264.05 86.8933 264.338C86.8425 264.49 86.8086 264.625 86.8086 264.743C86.8086 264.93 86.8764 265.031 87.0287 265.031H88.5186C88.6879 265.031 88.7725 264.946 88.7725 264.777C88.7725 264.743 88.7725 264.727 88.7725 264.693C88.7725 264.659 88.7387 264.591 88.7048 264.473C88.671 264.371 88.6202 264.219 88.5524 264.033C88.4847 263.847 88.4339 263.661 88.3662 263.492C88.2816 263.255 88.1631 262.934 88.0276 262.545L87.9938 262.562ZM104.416 259.145C104.907 259.145 105.364 259.212 105.77 259.398C106.448 259.72 106.786 260.43 106.786 261.53C106.786 261.885 106.735 262.172 106.617 262.392C106.397 262.714 106.126 262.951 105.821 263.103C105.195 263.356 104.839 263.509 104.755 263.543C104.67 263.576 104.619 263.61 104.619 263.644C104.619 263.678 104.704 263.712 104.873 263.746C105.601 263.864 106.143 264.185 106.481 264.727C106.617 265.065 106.685 265.454 106.685 265.86C106.685 266.097 106.651 266.486 106.566 267.078C106.498 267.568 106.464 267.974 106.464 268.296C106.464 268.532 106.532 268.668 106.685 268.702C106.871 268.702 107.006 268.583 107.108 268.346C107.176 268.279 107.243 268.109 107.294 267.89C107.362 267.585 107.413 267.416 107.429 267.382C107.48 267.331 107.548 267.298 107.599 267.298C107.633 267.298 107.666 267.298 107.666 267.298C107.751 267.382 107.785 267.501 107.785 267.67C107.785 267.822 107.768 267.974 107.734 268.109C107.633 268.515 107.429 268.888 107.125 269.226C106.803 269.564 106.431 269.767 106.041 269.835C105.635 269.902 105.296 269.953 104.992 269.953C104.264 269.953 103.705 269.75 103.315 269.327C103.095 269.04 102.977 268.651 102.977 268.177C102.977 267.991 102.994 267.704 103.045 267.315C103.062 267.179 103.078 267.044 103.095 266.909C103.095 266.773 103.129 266.672 103.129 266.604C103.129 266.536 103.129 266.486 103.129 266.452C103.129 266.333 103.129 266.13 103.129 265.86C103.129 265.183 102.926 264.727 102.537 264.49C102.317 264.371 102.046 264.304 101.707 264.304C101.504 264.304 101.335 264.321 101.216 264.354C101.081 264.456 100.996 264.557 100.996 264.676V265.555C100.996 265.64 100.996 265.725 100.996 265.809C100.996 265.894 100.996 265.961 100.996 266.012V266.452C100.996 267.873 101.182 268.871 101.555 269.429C101.555 269.429 101.572 269.48 101.589 269.513C101.589 269.53 101.622 269.564 101.639 269.581C101.639 269.581 101.639 269.615 101.639 269.666C101.639 269.716 101.589 269.733 101.504 269.733C99.9972 269.649 99.1337 269.615 98.9137 269.615C98.2703 269.615 97.4577 269.649 96.4757 269.716C96.3403 269.716 96.2556 269.716 96.2556 269.666C96.2556 269.615 96.2895 269.564 96.3572 269.496C97.0683 268.769 97.4238 267.67 97.4238 266.232C97.4238 266.164 97.4238 265.826 97.3899 265.217C97.373 264.591 97.3561 264.236 97.3561 264.168C97.3561 264.084 97.3561 263.999 97.3561 263.898C97.3561 263.796 97.3561 263.661 97.3561 263.492C97.3561 262.984 97.3561 262.46 97.3053 261.953C97.2376 261.039 96.9328 260.278 96.4419 259.652C96.3911 259.585 96.3572 259.517 96.3572 259.449C96.3572 259.398 96.4757 259.365 96.6789 259.365C97.3391 259.415 98.0333 259.449 98.7782 259.449C99.6078 259.449 100.505 259.415 101.453 259.348C101.504 259.348 101.724 259.348 102.063 259.297C102.401 259.246 102.706 259.246 102.943 259.229C103.062 259.212 103.519 259.179 104.331 259.111L104.416 259.145ZM102.52 259.99C102.334 259.889 102.096 259.855 101.775 259.855C101.572 259.855 101.369 259.974 101.182 260.193C100.996 260.396 100.911 260.616 100.911 260.819C100.911 261.361 100.911 261.817 100.911 262.206C100.911 262.646 100.911 263.12 100.911 263.61C100.911 263.813 101.013 263.932 101.233 263.932C101.538 263.932 101.995 263.695 102.621 263.238C103.011 262.951 103.197 262.426 103.197 261.665C103.197 261.361 103.146 261.056 103.028 260.735C102.892 260.363 102.706 260.126 102.486 260.007L102.52 259.99ZM109.478 259.179C110.003 259.179 110.68 259.179 111.527 259.229C112.525 259.263 113.389 259.28 114.151 259.28C115.522 259.28 116.927 259.246 118.349 259.179V260.143C118.349 260.515 118.366 260.853 118.383 261.141C118.383 261.428 118.383 261.767 118.383 262.139C118.383 262.172 118.383 262.189 118.332 262.189C118.282 262.189 118.197 262.054 118.011 261.767C117.96 261.682 117.892 261.597 117.825 261.513C117.757 261.428 117.723 261.361 117.689 261.327C117.655 261.293 117.638 261.259 117.638 261.259C116.707 260.244 115.793 259.737 114.929 259.737C114.794 259.737 114.659 259.737 114.506 259.788C114.303 259.99 114.201 260.363 114.185 260.921C114.185 261.293 114.185 261.868 114.185 262.663C114.185 263.61 114.235 264.084 114.354 264.084C114.997 264.084 115.641 263.796 116.284 263.221C116.538 263.001 116.792 262.731 117.063 262.392C117.097 262.392 117.113 263.154 117.113 264.693V266.063C116.792 265.623 116.402 265.268 115.911 265.014C115.42 264.76 114.913 264.625 114.371 264.625C114.252 264.642 114.201 265.268 114.201 266.503C114.201 267.399 114.252 268.177 114.354 268.803C114.405 269.057 114.591 269.192 114.913 269.175H115.59C116.504 269.124 117.35 268.583 118.129 267.568C118.417 267.179 118.756 266.689 119.094 266.097C119.094 266.452 119.094 266.79 119.094 267.078C119.094 267.365 119.094 267.704 119.094 268.059C119.094 268.465 119.094 269.04 119.128 269.784L116.673 269.733H114.676C112.966 269.733 111.29 269.767 109.63 269.852C109.546 269.835 109.512 269.801 109.512 269.767C109.512 269.733 109.529 269.666 109.563 269.598C110.257 268.786 110.595 267.551 110.595 265.877V265.082V264.76V263.204C110.595 261.969 110.528 261.124 110.392 260.633C110.274 260.227 109.986 259.737 109.512 259.179H109.478ZM24.4044 211.073C24.6922 210.972 24.8615 210.938 24.8785 211.006C24.8954 211.073 24.8785 211.158 24.8107 211.293C24.1166 212.782 23.6426 214.845 23.3717 217.45C23.2362 218.753 23.1516 219.954 23.1008 221.053L22.9484 224.182C22.7791 226.922 22.7453 229.527 22.8807 231.98C22.9823 234.145 23.05 235.414 23.0839 235.786C23.1177 236.039 23.0839 236.209 23.05 236.276C22.9992 236.344 22.8468 236.428 22.5929 236.53L20.138 237.409C19.3085 237.714 18.5466 237.985 17.8694 238.255C17.6155 238.34 17.3784 238.272 17.1922 238.035C14.9574 235.16 12.1132 231.811 8.65945 227.971C8.50708 227.785 8.03304 227.261 7.23732 226.381C6.44161 225.502 5.84906 224.842 5.42581 224.351C4.0714 222.897 2.90323 221.797 1.90435 221.07C1.8197 220.985 1.46417 220.799 0.871617 220.512C0.312925 220.207 0.0251137 220.021 0.00818365 219.987C-0.0426066 219.869 0.143624 219.768 0.549946 219.649C1.44724 219.345 2.78471 218.871 4.5793 218.228C7.15267 217.315 9.31972 216.486 11.1143 215.759C11.1482 215.86 11.1143 216.215 11.0297 216.824C10.9619 217.027 10.9619 217.18 10.9958 217.298C10.9958 217.569 11.0804 217.924 11.2498 218.381C11.4698 218.973 11.7746 219.531 12.1809 220.055C12.3502 220.241 12.6719 220.579 13.1121 221.053C13.5522 221.527 13.8908 221.916 14.1109 222.169L16.2272 224.453C17.6493 225.992 18.4789 226.889 18.7328 227.159L20.883 229.426C21.0353 229.595 21.1877 229.646 21.3401 229.595C21.4755 229.544 21.5602 229.443 21.5602 229.274C21.7125 228.106 21.8141 226.618 21.831 224.842C21.8649 222.153 21.6279 220.106 21.12 218.685C20.7644 217.687 20.2565 216.824 19.5963 216.131C18.9021 215.353 18.0048 214.727 16.9552 214.236C16.7351 214.135 16.6166 214.05 16.5827 213.966C16.5658 213.898 16.5827 213.864 16.6674 213.831L24.3706 211.073H24.4044ZM33.1403 209.416C35.2058 209.094 36.9157 208.824 38.2363 208.587C39.1844 208.418 40.4541 208.147 42.0625 207.792C42.4688 207.691 42.7397 207.691 42.892 207.792C43.0444 207.877 43.1968 208.13 43.3492 208.553L43.8401 209.703C45.076 211.902 46.6336 214.761 48.5467 218.262C50.4259 221.713 51.8142 224.132 52.6946 225.519C53.2025 226.364 53.7273 227.058 54.2183 227.599C54.4553 227.836 54.777 228.123 55.2002 228.445L55.5557 228.597C55.742 228.732 55.8605 228.817 55.8605 228.868C55.8605 228.952 55.6912 229.02 55.3187 229.087C53.4056 229.358 51.4756 229.663 49.5456 230.018C47.4632 230.39 45.567 230.779 43.8401 231.185C43.7724 231.185 43.7385 231.185 43.7385 231.117C43.7385 231.083 43.7385 231.05 43.7385 231.016C44.5004 230.238 44.7713 229.29 44.5681 228.174C44.4158 227.311 43.7385 225.958 42.5534 224.132C41.944 223.15 41.6054 222.592 41.5038 222.44C41.3176 222.203 41.1313 222.102 40.962 222.119L36.6279 222.914C36.0692 223.015 35.9169 223.742 36.1539 225.079L36.3232 226.043C36.5094 227.024 36.7126 227.768 36.9496 228.259C37.1697 228.732 37.576 229.375 38.1686 230.204C38.6765 230.897 39.3198 231.456 40.0647 231.861C38.5072 232.081 36.7803 232.369 34.918 232.707C33.1065 233.046 31.3457 233.384 29.6358 233.773C29.5004 233.756 29.4326 233.739 29.4326 233.705C29.4326 233.621 29.5342 233.468 29.7543 233.232C30.787 232.335 31.6843 231.236 32.4631 229.899C33.6652 227.734 34.5286 225.231 35.0534 222.372C35.9507 216.52 36.4078 213.526 36.4248 213.408C36.3232 212.849 35.9507 212.241 35.2904 211.564C34.7148 210.972 34.1392 210.498 33.5636 210.16C33.1573 209.94 32.9372 209.737 32.9202 209.585C32.9202 209.5 32.971 209.45 33.1065 209.416H33.1403ZM38.1008 216.114C37.7961 215.59 37.5591 215.353 37.3898 215.387C37.2374 215.42 37.1189 215.623 37.0173 215.996C37.0173 216.013 37.0173 216.08 37.0173 216.182C37.0173 216.283 36.9835 216.368 36.9835 216.435C36.9665 216.655 36.8819 217.213 36.7464 218.11C36.611 219.006 36.4925 219.784 36.4078 220.444C36.3401 220.799 36.3401 221.104 36.3909 221.374C36.4586 221.78 36.6618 221.966 36.9665 221.916L40.1832 221.324C40.5557 221.256 40.7081 221.036 40.6403 220.664C40.6403 220.596 40.6065 220.546 40.5726 220.478C40.5388 220.393 40.4541 220.258 40.3356 220.038C40.2171 219.818 40.0478 219.531 39.8446 219.159C39.6415 218.787 39.4383 218.414 39.2352 218.042C38.9643 217.569 38.5918 216.926 38.1178 216.131L38.1008 216.114ZM76.1258 205.373C77.2093 205.339 78.2082 205.525 79.1224 205.914C80.6122 206.591 81.3741 208.147 81.408 210.583C81.408 211.361 81.2894 212.004 81.0524 212.511C80.5784 213.222 80.0028 213.763 79.3086 214.101C77.9373 214.676 77.1416 215.015 76.9553 215.099C76.7691 215.167 76.6675 215.234 76.6675 215.319C76.6675 215.404 76.8538 215.471 77.2432 215.539C78.8684 215.776 80.0536 216.486 80.8154 217.67C81.1201 218.414 81.2725 219.243 81.2725 220.157C81.2725 220.664 81.2048 221.544 81.0524 222.829C80.917 223.929 80.8493 224.808 80.8662 225.502C80.8662 226.026 81.0355 226.33 81.3402 226.415C81.7466 226.415 82.0344 226.144 82.2375 225.62C82.3899 225.451 82.5084 225.113 82.6439 224.605C82.7962 223.929 82.8978 223.556 82.9486 223.506C83.0671 223.387 83.2025 223.32 83.3211 223.32C83.4057 223.32 83.4565 223.32 83.4734 223.353C83.6427 223.523 83.7274 223.793 83.7274 224.165C83.7274 224.504 83.6935 224.825 83.6089 225.146C83.4057 226.026 82.9655 226.855 82.2883 227.616C81.5773 228.377 80.7985 228.834 79.9181 228.986C79.0377 229.155 78.259 229.257 77.5987 229.257C76.0073 229.257 74.7714 228.817 73.9079 227.903C73.4 227.261 73.1461 226.415 73.1292 225.366C73.1292 224.943 73.163 224.318 73.2646 223.472C73.2985 223.184 73.3323 222.88 73.3662 222.592C73.4 222.305 73.417 222.068 73.4339 221.916C73.4508 221.763 73.4678 221.645 73.4678 221.577C73.4847 221.307 73.4847 220.867 73.4847 220.292C73.4847 218.803 73.0276 217.805 72.1303 217.281C71.6393 217.01 71.0298 216.875 70.3018 216.892C69.8447 216.892 69.4892 216.943 69.2352 217.027C68.9305 217.264 68.7612 217.484 68.7781 217.721V218.753L68.7951 219.632C68.7951 219.818 68.7951 220.004 68.7951 220.19C68.7951 220.376 68.7951 220.529 68.7951 220.647C68.7951 220.766 68.7951 220.901 68.7951 221.002C68.7951 221.121 68.7951 221.205 68.7951 221.29C68.7951 221.358 68.7951 221.425 68.7951 221.493C68.7951 221.56 68.7951 221.594 68.7951 221.611C68.8289 224.74 69.2522 226.922 70.0817 228.174L70.1156 228.208C70.1156 228.208 70.1664 228.293 70.2003 228.343C70.2341 228.394 70.268 228.445 70.3188 228.479C70.3357 228.495 70.3526 228.563 70.3526 228.665C70.3526 228.766 70.251 228.817 70.0648 228.817C66.7465 228.682 64.8503 228.614 64.3763 228.614C62.9711 228.614 61.1765 228.715 58.9925 228.885C58.6709 228.901 58.5185 228.885 58.5185 228.766C58.5185 228.665 58.5862 228.529 58.7386 228.394C60.2962 226.77 61.058 224.351 61.0242 221.171C61.0242 221.019 60.9903 220.275 60.9395 218.939C60.8887 217.552 60.8549 216.791 60.8549 216.621C60.8549 216.435 60.8549 216.232 60.8887 216.029C60.9056 215.793 60.9226 215.505 60.9056 215.15C60.9056 214.017 60.8718 212.883 60.7702 211.75C60.584 209.737 59.9237 208.063 58.8063 206.709C58.6709 206.557 58.6201 206.422 58.6201 206.27C58.637 206.151 58.874 206.084 59.3142 206.067C60.7702 206.185 62.3108 206.219 63.9361 206.202C65.7815 206.185 67.7454 206.084 69.8109 205.931C69.9294 205.931 70.3865 205.898 71.1653 205.83C71.944 205.762 72.5874 205.695 73.1122 205.661C73.3662 205.61 74.382 205.525 76.1596 205.373H76.1258ZM71.961 207.268C71.5546 207.065 71.0129 206.963 70.3188 206.963C69.8616 206.963 69.4215 207.217 69.0321 207.724C68.6427 208.181 68.4395 208.655 68.4565 209.111C68.4565 210.278 68.4903 211.293 68.5242 212.156C68.558 213.12 68.575 214.152 68.5919 215.234C68.5919 215.691 68.8458 215.928 69.3199 215.911C69.9971 215.911 70.996 215.387 72.3504 214.338C73.1799 213.695 73.5863 212.545 73.5693 210.87C73.5693 210.194 73.4339 209.517 73.163 208.841C72.8413 208.029 72.435 207.488 71.944 207.251L71.961 207.268ZM107.209 209.67C108.073 210.228 108.902 210.921 109.681 211.733C110.358 212.494 110.951 213.441 111.425 214.524C112.305 216.469 112.542 218.634 112.153 221.036C111.764 223.438 110.866 225.468 109.444 227.125C108.073 228.766 106.414 229.916 104.484 230.559C102.621 231.151 100.624 231.269 98.4904 230.931C97.7285 230.813 96.9667 230.627 96.1879 230.373C94.2071 229.747 92.4633 228.614 90.9396 226.973C89.3651 225.316 88.4339 223.472 88.1461 221.459C87.9768 220.393 88.0107 219.125 88.2477 217.653C88.8741 213.746 90.8211 210.87 94.0547 209.01C96.3233 207.707 99.0152 207.301 102.13 207.809C104.111 208.13 105.804 208.756 107.209 209.686V209.67ZM102.046 208.672C100.285 208.384 99.066 208.942 98.3549 210.363C97.8809 211.276 97.5762 212.173 97.4069 213.036C96.9498 215.015 96.5942 216.824 96.3403 218.431C96.1202 219.801 95.8662 221.73 95.5954 224.233C95.3414 226.415 95.68 228.056 96.5773 229.138C97.0513 229.578 97.6777 229.849 98.4227 229.984C100.166 230.272 101.352 229.713 101.978 228.326C102.35 227.481 102.655 226.483 102.909 225.349C103.366 223.15 103.705 221.442 103.908 220.19C104.213 218.279 104.467 216.266 104.67 214.135C104.755 213.222 104.788 212.562 104.788 212.19C104.788 211.462 104.653 210.837 104.433 210.278C104.043 209.382 103.248 208.841 102.046 208.655V208.672ZM131.487 215.353C132.029 215.522 132.266 215.691 132.215 215.843C132.08 216.013 131.944 216.3 131.809 216.706C131.589 217.45 131.555 218.144 131.741 218.786C131.876 219.328 132.249 220.478 132.842 222.254C133.434 223.996 134.297 226.297 135.432 229.121C135.584 229.46 135.737 229.663 135.889 229.713C136.024 229.764 136.143 229.68 136.211 229.46C137.226 226.601 137.853 224.487 138.056 223.1C138.411 220.935 138.09 219.192 137.091 217.873C136.922 217.602 136.837 217.433 136.871 217.366C136.905 217.281 137.125 217.332 137.565 217.484L143.643 219.649C143.897 219.734 144.015 219.818 143.998 219.869C143.965 219.954 143.812 220.021 143.541 220.106C141.933 220.596 140.511 222.051 139.275 224.453C138.767 225.451 138.259 226.652 137.751 228.073C137.684 228.276 137.413 229.071 136.972 230.458L136.092 233.181C135.872 233.908 135.533 234.974 135.042 236.412L134.568 237.917C134.179 239.186 133.891 240.082 133.688 240.64C133.62 240.826 133.383 240.826 132.977 240.691L131.639 240.217C130.641 239.862 130.099 239.575 130.031 239.372C129.422 236.953 128.541 233.993 127.356 230.508C126.053 226.55 124.749 223.083 123.428 220.089C123.361 219.954 123.276 219.869 123.158 219.818C123.005 219.768 122.887 219.784 122.819 219.903C122.683 220.224 122.396 220.985 121.989 222.136C120.974 224.994 120.381 227.379 120.229 229.29C120.025 232.081 120.635 234.399 122.057 236.225C122.209 236.462 122.277 236.631 122.243 236.733C122.192 236.868 122.057 236.885 121.837 236.75C120.347 236.124 118.925 235.583 117.588 235.092C116.656 234.754 115.827 234.483 115.082 234.23C114.337 233.993 113.524 233.705 112.61 233.384C112.475 233.333 112.407 233.282 112.424 233.248C112.441 233.215 112.593 233.113 112.881 232.978C114.896 232.132 116.521 230.83 117.757 229.071C118.332 228.208 118.823 227.21 119.247 226.094C120.093 223.996 120.652 222.558 120.923 221.78C121.549 220.021 122.023 218.567 122.345 217.416C121.566 215.488 120.889 214.084 120.347 213.205C120.009 212.663 119.518 211.953 118.857 211.107L118.823 211.023C118.874 210.887 119.111 210.921 119.551 211.124C122.971 212.46 125.003 213.239 125.663 213.475C127.339 214.067 129.286 214.693 131.487 215.319V215.353ZM119.873 201.534C119.602 200.823 118.942 200.366 118.197 200.333C117.96 200.333 117.723 200.366 117.503 200.451C115.302 201.28 112.813 201.652 109.901 201.567C108.124 201.517 106.16 201.297 104.077 200.925C98.5581 199.91 94.4949 198.185 91.6507 195.664C91.329 195.377 90.9057 195.208 90.4655 195.191C89.9238 195.191 89.3989 195.411 89.0434 195.816C88.3662 196.578 88.4339 197.745 89.1958 198.421C92.5649 201.415 97.2206 203.411 103.417 204.561C105.686 204.984 107.836 205.221 109.8 205.272C113.186 205.356 116.132 204.917 118.79 203.919C119.247 203.749 119.619 203.411 119.822 202.954C120.025 202.515 120.042 202.007 119.873 201.551V201.534ZM104.518 198.066C107.277 198.574 109.986 198.692 112.576 198.489L112.746 198.523V198.472L113.406 191.503C113.829 189.017 112.153 186.615 109.664 186.158L103.756 185.076C101.284 184.619 98.9137 186.277 98.4904 188.763L96.7805 195.58L96.8482 195.613C99.1845 196.73 101.775 197.576 104.534 198.083L104.518 198.066Z" fill="white"/>
<path d="M44.001 97C46.1092 99.1082 82.2125 135.212 100.001 153" stroke="white"/>
<path d="M100 97C97.8918 99.1082 61.7885 135.212 44.0003 153" stroke="white"/>
<path d="M12.3448 42.6234L7.34077 50.8534V42.6234H2.81934V63.7827H7.34077V54.2318L12.7513 63.7827H17.7299L11.3288 52.4791L17.3235 42.6234H12.3448Z" fill="white"/>
<path d="M35.13 0.584229L25.6807 31.65H32.412L34.3933 24.3091H43.1822L44.9857 31.65H52.1488L43.0044 0.584229H35.13ZM35.765 19.1526L38.991 7.18857L41.9121 19.1526H35.765Z" fill="white"/>
<path d="M131.68 0C124.11 0 119.36 5.7407 119.36 16.079C119.36 26.4174 124.06 32.1327 131.68 32.1327C139.3 32.1327 144 26.4428 144 16.079C144 5.7153 139.25 0 131.68 0ZM131.68 26.8746C128.403 26.8746 126.447 23.1406 126.447 16.079C126.447 9.01747 128.403 5.23267 131.68 5.23267C134.957 5.23267 136.913 8.99207 136.913 16.079C136.913 23.166 134.957 26.8746 131.68 26.8746Z" fill="white"/>
<path d="M139.783 42.6234H135.262V63.7827H139.783V42.6234Z" fill="white"/>
<path d="M115.398 54.7652H120.225V63.7827H124.746V42.6234H120.225V50.9296H115.398V42.6234H110.852V63.7827H115.398V54.7652Z" fill="white"/>
<path d="M109.505 26.4682H98.6844V18.3652H108.54V13.2087H98.6844V5.7407H109.099V0.584229H92.0293V31.6246H109.505V26.4682Z" fill="white"/>
<path d="M67.7958 17.6031L75.721 31.6246H83.0112L73.6381 15.0376L82.4523 0.584229H75.1622L67.7958 12.6245V0.584229H61.1406V31.6246H67.7958V17.6031Z" fill="white"/>
<path d="M63.8086 42.6234V55.6035C63.8086 61.3442 66.0185 64.1129 70.921 64.1129C75.8234 64.1129 78.0587 61.3442 78.0587 55.6035V42.6234H73.7151V56.1623C73.7151 59.1597 73.1817 60.5567 71.0226 60.5567C68.8635 60.5567 68.3808 59.1343 68.3808 56.1623V42.6234H63.8086Z" fill="white"/>
<path d="M45.5703 42.6234H41.0488V63.7827H45.5703V54.2318L50.9553 63.7827H55.934L49.5583 52.4791L55.553 42.6234H50.5743L45.5703 50.8534V42.6234Z" fill="white"/>
<path d="M96.9317 64.1384C98.5828 64.1384 100.132 63.8589 101.58 63.2493V59.1851C100.361 59.9725 98.9384 60.379 97.6429 60.379C94.29 60.379 92.3087 57.8388 92.3087 53.1904C92.3087 48.542 94.2138 46.1034 97.4651 46.1034C98.8368 46.1034 100.208 46.4082 101.453 47.2211V43.2585C99.8782 42.5726 98.3288 42.2678 96.7793 42.2678C91.2418 42.2678 87.5078 46.4844 87.5078 53.1904C87.5078 59.8963 91.191 64.1384 96.9317 64.1384Z" fill="white"/>
<path d="M7.06157 31.6246H13.7167V6.19792H20.7021V0.584229H0V6.19792H7.06157V31.6246Z" fill="white"/>
<path d="M30.456 42.6234H25.9092V63.7827H30.456V42.6234Z" fill="white"/>
</svg>
