<svg width="317" height="192" viewBox="0 0 317 165" fill="none" xmlns="http://www.w3.org/2000/svg">
  <path d="M17.36 9.52H20.92C21.56 9.52 22.12 9.32 22.12 8.4C22.12 3.4 22.12 3.04 21.96 2.2C21.92 2 21.64 1.16 21.64 0.999998C21.64 0.599998 22 0.599998 22.2 0.599998C22.8 0.599998 26.48 1.6 26.48 2.44C26.48 2.76 26.36 2.84 25.8 3.32C25.16 3.84 24.96 4 24.96 8.4C24.96 9.52 25.92 9.52 26.24 9.52H28.12C29.6 9.52 29.92 9.44 30.16 9.16C30.44 8.8 31.48 6.88 31.88 6.88C32.44 6.88 35.24 9.44 35.24 10.04C35.24 10.56 35 10.56 33.08 10.56H26.16C25 10.56 24.92 11.28 24.92 11.84C24.92 11.92 24.92 17.6 25 17.8C25.24 18.4 25.84 18.4 26.12 18.4H29.8C31.56 18.4 31.76 18.4 32.12 18.08C32.48 17.72 33.8 15.84 34.24 15.84C34.72 15.84 37.56 18.16 37.56 18.84C37.56 19.48 36.88 19.48 35.56 19.48H27.96C26.68 19.48 26.64 19.96 26.64 21.2C26.64 22.84 26.64 30.52 26.8 31.6C26.92 32.56 27.08 33.36 30.32 33.36C33.6 33.36 33.88 32.72 34.72 30.16C35.44 28.04 35.48 27.84 35.64 27.16C35.68 27.12 35.76 26.76 35.88 26.76C36.04 26.76 36.12 27.68 36.16 27.92C36.4 30.68 36.44 31 36.92 31.8C37.44 32.68 37.52 32.8 37.52 33.04C37.52 33.24 36.96 36 31.2 36C24.44 36 24 34.52 24 30.08V20.4C23.88 19.48 23.16 19.48 22.84 19.48H19.88C19.8 19.48 19.68 19.48 19.68 19.6C19.68 19.68 20.44 20.08 20.56 20.12C20.96 20.36 21.16 20.44 21.16 20.68C21.16 20.92 20.32 21.44 20.24 21.6C19.96 22.12 19.8 24.68 19.72 25.16C19.44 26.96 18.44 33.2 12.12 35.84C11.48 36.12 9.84 36.64 9.2 36.64C9.12 36.64 9.08 36.6 9.08 36.56C9.08 36.44 10.56 35.64 10.84 35.48C12.6 34.32 17.56 31.12 17.56 21.56C17.56 20.32 17.56 19.48 16.44 19.48C15.84 19.48 13.52 19.48 12.44 19.56C12.28 19.6 11.72 19.68 11.56 19.68C11.44 19.68 11.36 19.56 11.24 19.4L10.44 18.48C10.28 18.32 10.28 18.28 10.28 18.24C10.28 18.16 10.32 18.12 10.44 18.12C10.68 18.12 11.92 18.28 12.2 18.28C14.16 18.36 15.8 18.4 17.68 18.4H20.84C21.44 18.4 22.12 18.4 22.12 17.32V11.44C22 10.56 21.36 10.56 21 10.56H16.68C16.32 10.56 15.92 10.56 15.36 11.32C14.92 11.92 12.52 15.04 12 15.04C11.88 15.04 11.88 14.96 11.88 14.92C11.88 14.84 13.32 11.8 13.56 11.28C14.48 9.08 15.76 5.6 15.76 3.48C15.76 2.64 15.76 2.4 16.12 2.4C16.36 2.4 19.52 3.88 19.52 4.92C19.52 5.32 19.32 5.4 18.96 5.56C18.48 5.76 18.36 5.96 17.36 7.88C16.88 8.8 16.84 8.88 16.84 9C16.84 9.04 16.84 9.52 17.36 9.52ZM4.52 10.8C5.16 11.08 6.92 12.04 6.92 13.76C6.92 14.76 6.32 15.32 5.64 15.32C4.84 15.32 4.68 15.08 3.2 12.96C2.48 11.92 1.64 11.2 1.24 10.88C1.12 10.8 0.6 10.44 0.6 10.36C0.6 10.08 1 10.08 1.08 10.08C2.12 10.08 3.56 10.36 4.52 10.8ZM6.48 2C7.52 2.4 9.92 3.52 9.92 5.24C9.92 6.28 9.28 7.08 8.48 7.08C7.52 7.08 7.08 6.36 6 4.6C5.32 3.48 4.68 2.72 3.76 1.76C3.64 1.68 3.48 1.52 3.48 1.36C3.48 1.2 3.68 1.2 3.76 1.2C4.2 1.2 6 1.8 6.48 2ZM6.08 36.44C4.64 36.44 4.36 35 4.36 34C4.36 30.88 4.36 27.92 2.08 26.48C1.76 26.28 1.52 26.24 1.24 26.12C1.16 26.12 1.08 26.08 1.08 26.04C1.08 25.88 2.92 25.28 3.24 25.08C4.28 24.4 5.6 21.76 9.56 13.92C10.2 12.6 10.28 12.44 10.48 12.44C10.56 12.44 10.56 12.56 10.56 12.6C10.56 12.76 8.88 17.76 8.64 18.48C6.48 24.88 6.44 24.96 6.44 26.84C6.44 27.48 6.48 28.2 7.04 29.72C8.04 32.4 8.04 32.96 8.04 33.56C8.04 33.96 8.04 36.44 6.08 36.44ZM59.88 11.36H63C63.92 11.36 64.16 10.96 64.16 10C64.16 7.44 64.04 7.24 62.96 7.24H61.16C58.28 7.24 56.92 7.28 56.12 7.36C56 7.36 55.4 7.44 55.28 7.44C55.12 7.44 55.04 7.36 54.92 7.16L54.16 6.24C54 6.08 53.96 6.04 53.96 6C53.96 5.92 54.04 5.92 54.12 5.92C54.4 5.92 55.64 6.04 55.88 6.04C57.84 6.12 59.48 6.16 61.36 6.16H62.96C63.4 6.16 63.96 6.16 63.96 5.28C63.96 4.84 63.84 2.8 63.84 2.36C63.8 2.08 63.44 0.959999 63.44 0.719999C63.44 0.559999 63.64 0.559999 63.76 0.559999C64.04 0.559999 66.24 1.12 66.8 1.28C67.52 1.48 67.76 1.52 67.76 1.92C67.76 2.32 67.32 2.6 67.12 2.72C66.64 2.96 66.52 3.12 66.52 3.68C66.52 5.88 66.52 6.16 67.8 6.16H70.28C71.4 6.16 71.96 6.16 72.24 6.04C72.64 5.84 73.96 4.28 74.32 4.28C74.84 4.28 77.16 6.44 77.16 6.68C77.16 7.24 76.36 7.24 75.04 7.24H67.8C66.64 7.24 66.48 7.6 66.48 8.72C66.48 11.08 66.48 11.36 67.76 11.36H70.8C71.24 11.36 71.64 11.36 72.12 11.08C72.32 10.96 73.16 10.28 73.36 10.28C73.92 10.28 75.8 11.8 75.8 12.32C75.8 12.6 75.68 12.68 75.04 13.12C74.68 13.36 74.6 13.68 74.6 14.12C74.6 15.24 74.84 20.2 74.84 21.2C74.84 22.44 74.24 23.56 73.16 23.56C72.44 23.56 72.28 23.16 72.12 22.84C71.92 22.44 71.76 22.24 70.88 22.24H68.08C67.8 22.24 67.36 22.28 67.36 22.8C67.36 23.52 71.16 29.6 77.16 31.96C77.48 32.08 77.68 32.28 77.68 32.36C77.32 32.48 75.76 33.04 75.48 33.16C75.2 33.28 73.96 34.08 73.68 34.08C73 34.08 70.36 31.2 67.44 25.64C66.88 24.6 66.84 24.48 66.72 24.48C66.48 24.48 66.48 24.68 66.48 25.12C66.48 26.64 66.64 34.04 66.64 34.56C66.64 36.48 65.52 37.16 64.68 37.16C64.04 37.16 64.04 36.48 64.04 36.24C64.04 34.32 64.28 25.84 64.28 24.08C64.28 23.88 64.2 23.72 64.04 23.72C63.92 23.72 63.28 24.6 62.92 25.12C60.56 28.36 58.04 31.52 54.24 33.76C53.72 34.08 52.48 34.8 51.92 34.8C51.52 34.8 53.88 32.88 54.28 32.52C58.64 28.28 61.4 23.2 61.4 22.68C61.4 22.24 61.08 22.24 60.84 22.24H59.8C59.52 22.24 58.92 22.24 58.64 22.72C58.2 23.52 57.64 23.8 57 23.8C56.04 23.8 56.04 23.12 56.04 22.8C56.04 22.56 56.12 21.48 56.12 21.24C56.24 16.04 56.28 15.44 56.28 14.48C56.28 13.96 55.92 10.8 55.92 10.64C55.92 10.56 55.96 10.48 56.08 10.48C56.44 10.48 57.88 11.04 58.16 11.12C58.92 11.36 59.56 11.36 59.88 11.36ZM59.88 21.16H62.88C64.16 21.16 64.16 20.56 64.16 19.08C64.16 17.8 64.12 17.2 62.88 17.2H59.88C58.64 17.2 58.6 17.8 58.6 19.16C58.6 20.52 58.6 21.16 59.88 21.16ZM67.72 16.12H71.04C72.28 16.12 72.28 15.72 72.28 14.08C72.28 12.92 72.28 12.4 71.04 12.4H67.72C66.48 12.4 66.48 12.8 66.48 14.48C66.48 15.6 66.48 16.12 67.72 16.12ZM62.96 12.4H59.84C58.56 12.4 58.56 12.8 58.56 14.64C58.56 15.52 58.56 16.12 59.84 16.12H62.96C64.2 16.12 64.2 15.56 64.2 14.6C64.2 12.8 64.2 12.4 62.96 12.4ZM70.92 17.2H67.8C66.48 17.2 66.48 17.6 66.48 19.28C66.48 20.72 66.48 21.16 67.8 21.16H70.92C72.24 21.16 72.28 20.76 72.28 19.16C72.28 17.64 72.24 17.2 70.92 17.2ZM42.4 23.04C42.44 22.84 42.64 22.72 42.8 22.72C43.24 22.72 45.04 23.44 45.44 23.52C45.76 23.64 45.96 23.76 45.96 24C45.96 24.2 45.28 24.88 45.16 25.04C45.12 25.12 44.24 28 44.04 28.52C43.32 30.44 41.36 35.04 40.68 35.04C40.52 35.04 40.56 34.88 41 33.64C41.92 31.08 42.56 27.6 42.56 25C42.56 24.68 42.4 23.2 42.4 23.04ZM51.92 17.96C52 17.88 52 17.8 52 17.72C52 17.16 51 14.6 51 14.52C51 14.44 51.04 14.4 51.08 14.4C51.16 14.4 52.92 16.12 53.24 16.4C54.8 17.92 55.28 18.6 55.28 19.68C55.28 20.84 54.6 21.6 53.68 21.6C53 21.6 52.88 20.96 52.64 20.04C52.52 19.52 52.32 19.24 51.72 19.24C49.8 19.24 49.8 19.88 49.8 21.08C49.8 27.56 49.8 28.28 49.96 33.56C49.96 33.88 50.08 35.28 50.08 35.56C50.08 36.28 49.08 37.04 48.12 37.04C47.28 37.04 47.04 36.68 47.04 35.84C47.04 35.4 47.16 33.44 47.16 33.04C47.24 29.6 47.24 27.76 47.24 21.84C47.24 20.48 47.24 20.04 46.4 20.04C46.24 20.04 43.88 20.44 43.48 20.52C43.2 20.6 42.16 21.24 41.92 21.24C41.2 21.24 40.8 17.6 40.8 17.52C40.8 17.36 40.92 17.2 41.04 17.2C41.2 17.2 41.84 17.56 42 17.6C42.76 17.84 43.68 18.04 44.48 18.04C45.52 18.04 45.76 17.84 48.56 11.52C49.24 9.96 49.84 8.56 50.2 6.64C50.36 5.76 50.36 5.64 50.6 5.64C51 5.64 53.96 7.2 53.96 7.64C53.96 7.96 53.72 8.04 52.96 8.4C52.52 8.56 50.68 11.92 50.24 12.56C47.44 16.6 46.96 17.36 46.96 17.68C46.96 18.24 47.44 18.24 49.8 18.24C51.56 18.24 51.76 18.24 51.92 17.96ZM46.64 1.6C46.64 0.639998 46.64 0.559999 47.04 0.559999C47.68 0.559999 50.88 1.88 50.88 2.36C50.88 2.6 50.76 2.64 49.64 3.2C49.44 3.28 46.08 7.52 46.08 8.44C46.08 8.72 46.28 8.88 46.84 9.4C47.24 9.8 47.4 10.48 47.4 11.04C47.4 11.88 47 13.08 46.04 13.08C45.36 13.08 45.16 12.68 44.4 11.2C43.44 9.28 42.04 7.92 41.4 7.4C41.32 7.32 40.84 6.92 40.84 6.88C40.84 6.8 40.92 6.8 41.04 6.8C41.4 6.8 42.28 7.04 43.04 7.36C44.04 7.8 44.16 7.84 44.4 7.84C45.44 7.84 46.64 3.2 46.64 1.6ZM51.12 22.96C51.28 22.76 55.32 25.48 55.32 27.64C55.32 28.8 54.56 30.04 53.68 30.04C53.16 30.04 53.08 29.8 52.48 27.44C52.16 26.08 51.8 24.76 51.28 23.48C51.24 23.44 51.08 23 51.12 22.96ZM90.64 28.04C90.64 26.92 90.96 24.16 93.68 21.56C94.88 20.44 95.4 19.92 95.4 19.4C95.4 19.28 95.12 18.36 95.04 18.16C94.56 16.64 94.36 15.72 94.36 13.48C94.36 12.56 94.56 7.92 94.56 6.88C94.56 4.88 94 4.28 93.36 3.64C92.52 2.76 92.4 2.64 92.4 2.52C92.4 2.36 93.36 2.32 93.48 2.32C95.76 2.32 97.8 4.16 97.8 5.32C97.8 5.68 97.32 7.48 97.24 7.88C97.08 9 96.88 10.84 96.88 13.16C96.88 14.68 96.88 17.92 97.92 17.92C98.48 17.92 98.72 17.76 100.88 16.4C101.32 16.12 103.84 14.52 105 14.52C105.92 14.52 106.52 15.32 106.52 16C106.52 17.2 104.88 17.84 103.44 18.4C93.92 22.24 92.56 25.16 92.56 27.76C92.56 30.48 94.88 31.48 98.12 31.48C100.12 31.48 101.72 31.08 102.92 30.76C104.72 30.28 105.16 30.16 105.92 30.16C107.28 30.16 108.56 31.08 108.56 32.08C108.56 34.12 100.4 34.32 98.28 34.32C96.44 34.32 90.64 34.32 90.64 28.04ZM124.2 4.08C128.72 6.84 129.2 9.44 129.2 10.28C129.2 11.08 128.76 11.72 127.88 11.72C127.12 11.72 126.92 11.44 125.4 9.16C124.48 7.72 122.88 5.44 121.04 3.32C120.44 2.68 120.4 2.56 120.4 2.52C120.4 2.4 120.48 2.36 120.56 2.36C121.12 2.36 123.32 3.52 124.2 4.08ZM121.6 17.92L120.84 17C120.68 16.8 120.68 16.8 120.68 16.72C120.68 16.64 120.76 16.64 120.8 16.64C121.08 16.64 122.56 16.76 122.88 16.76C123.64 16.8 123.92 16.8 125.36 16.8C125.8 16.8 126.08 16.8 126.44 16.32C126.96 15.6 127.24 15.2 127.52 15.2C127.96 15.2 130.36 16.88 130.36 17.48C130.36 17.72 130.12 17.84 129.2 18.24C128.44 18.56 128.44 19.2 128.44 24.88C128.44 27.48 128.44 28.72 130.56 30.28C132.56 31.8 135.16 32.44 143.68 32.44C150.24 32.44 154.88 31.32 156.12 31.04C156.36 31 157.52 30.64 157.68 30.64C157.76 30.64 157.88 30.68 157.88 30.8C157.88 30.92 157.44 31.32 157.08 31.68C156.68 32.08 155.48 33.36 155.32 34.56C155.28 35.04 155.24 35.12 155 35.28C154.6 35.56 150.72 35.56 149.92 35.56C146.4 35.56 137.36 35.4 134.12 34.6C131.28 33.88 129.44 31.72 128.2 29.8C127.64 28.96 127.56 28.88 127.44 28.88C127.24 28.88 124.8 31.52 123.52 33.72C122.68 35.12 122.68 35.12 122.44 35.12C121.72 35.12 120.2 32.16 120.2 31.72C120.2 31.36 120.48 31.36 120.92 31.36C121.88 31.36 125.36 29.28 125.72 28.56C125.88 28.2 125.92 28.2 125.92 19.2C125.92 17.96 125.16 17.96 124.8 17.96C124.36 17.96 122.28 18.16 121.96 18.16C121.8 18.16 121.76 18.08 121.6 17.92ZM155.4 8.28H145.76C144.72 8.28 144.64 8.36 143.84 9.4C142.92 10.6 141.24 11.84 141.24 11.84C141.2 11.84 141.16 11.8 141.16 11.76C141.16 11.72 141.24 11.6 141.64 10.76C144.04 5.84 144.44 2.84 144.48 1.88C144.52 0.799998 144.52 0.719999 145.16 0.719999C145.48 0.719999 148.52 0.999998 148.52 2C148.52 2.28 148.44 2.36 147.76 2.96C147.36 3.36 145.64 6.64 145.64 6.8C145.64 7.2 146.12 7.2 146.56 7.2H149.64C150.68 7.2 151.32 7.2 151.6 7.08C152 6.88 153.32 4.96 153.8 4.96C154.2 4.96 157.04 7.08 157.04 7.68C157.04 8.28 156.52 8.28 155.4 8.28ZM140.36 7.72H137.56C137.12 7.72 136.84 7.72 136.84 7.96C136.84 8.04 137.04 8.4 137.04 8.48C137.04 8.72 136.36 9.64 136.28 9.88C136.2 10.84 136 12.84 136 12.96C136 13.68 136.32 13.68 136.84 13.68H137.6C138.04 13.68 138.2 13.68 138.48 13.2C138.96 12.4 139.08 12.2 139.48 12.2C139.76 12.2 141.84 13.08 141.84 13.96C141.84 14.2 141.68 14.36 141.56 14.44C141.04 14.92 140.88 15 140.84 15.4C140.68 17.24 140.6 21.04 140.4 23C139.72 30.16 136.56 30.48 136.2 30.48C135.6 30.48 135.4 30.08 135.32 29.76C135.04 28.6 135 28.36 134.4 27.64C134.32 27.52 133.8 27.12 133.8 26.96C133.8 26.88 133.84 26.88 133.88 26.88C134 26.88 134.44 27.04 134.56 27.08C135.12 27.16 135.84 27.28 136.12 27.28C137.64 27.28 138.28 25.44 138.48 22.24C138.6 20.2 138.76 17.24 138.76 15.76C138.76 14.88 138.36 14.72 137.72 14.72H136.72C136.12 14.72 135.84 14.8 135.68 15.6C134.64 21.48 134.56 22 133.48 24.52C132.36 27.16 130.16 29.04 129.84 29.04C129.8 29.04 129.76 29.04 129.76 28.96C129.76 28.92 130.56 27.48 130.72 27.16C133.8 21.24 133.96 10.52 133.96 8.8C133.96 8.4 133.88 7.76 133 7.76C132.68 7.76 131.04 7.92 130.8 7.92C130.68 7.92 130.6 7.84 130.44 7.68L129.68 6.76C129.52 6.56 129.52 6.56 129.52 6.48C129.52 6.4 129.6 6.4 129.64 6.4C130.12 6.4 132.36 6.56 132.84 6.56C134.2 6.56 134.2 6.36 134.2 4.56C134.2 3.96 134.16 3.2 134 2.32C133.96 2.12 133.64 1.2 133.64 0.999998C133.64 0.719999 133.84 0.599998 134.32 0.599998C135 0.599998 137.6 0.799998 137.6 1.68C137.6 1.84 137.08 2.36 137.04 2.52C136.96 2.84 136.72 5.76 136.72 5.92C136.72 6.6 137.28 6.68 138.08 6.68C138.48 6.68 138.8 6.56 139.2 5.96C139.8 5.04 139.96 4.8 140.36 4.8C141.08 4.8 142.16 6.72 142.16 7.16C142.16 7.72 141.96 7.72 140.36 7.72ZM156.32 21.24H151.84C150.8 21.24 150.72 21.8 150.72 22.32C150.72 23.04 150.84 26.12 150.84 26.76C150.84 29.08 150.4 29.96 149.4 30.8C148.92 31.16 148.32 31.44 147.72 31.44C146.84 31.44 146.84 31.12 146.8 30.6C146.76 29.2 145.64 28.44 145.4 28.28C145.24 28.2 144.6 27.96 144.6 27.84C144.6 27.72 144.84 27.72 144.92 27.72C145.36 27.72 147.24 27.76 147.6 27.72C148.08 27.68 148.36 27.56 148.36 26.04C148.36 25.28 148.36 22.76 148.28 22.16C148.24 21.68 148.12 21.24 147.16 21.24C146.16 21.24 144.84 21.24 143.84 21.32C143.72 21.36 143.12 21.44 143 21.44C142.72 21.44 141.68 20.04 141.68 20C141.68 19.92 141.76 19.88 141.84 19.88C141.92 19.88 143.2 20 143.4 20C144.28 20.04 146.6 20.16 147.32 20.16C148.16 20.16 148.16 19.44 148.16 19C148.16 17.52 147.96 16.44 147.88 16C147.84 15.8 147.6 14.92 147.6 14.76C147.6 14.6 147.72 14.56 147.8 14.56C148.16 14.56 149.68 15.08 150 15.08C150.68 15.08 151.44 13.24 151.44 12.84C151.44 12.6 151.28 12.48 150.64 12.48H148.56C148.04 12.48 146.2 12.56 145.4 12.64C145.32 12.68 145.08 12.72 145.04 12.72C144.88 12.72 144.84 12.6 144.68 12.44L143.92 11.52C143.76 11.36 143.76 11.32 143.76 11.28C143.76 11.2 143.8 11.16 143.88 11.16C144.16 11.16 145.4 11.28 145.68 11.32C147.2 11.36 149 11.44 150.48 11.44H151.68C152.16 11.44 152.36 11.36 152.8 10.88C152.96 10.68 153.28 10.28 153.6 10.28C153.76 10.28 156.52 11.76 156.52 12.68C156.52 13.28 155.88 13.32 155.28 13.32C154.6 13.36 154.4 13.44 152.48 14.56C152 14.84 151.12 15.36 151.12 15.6C151.12 15.96 151.12 16.32 150.96 16.48C150.6 16.96 150.56 17.08 150.56 18.4C150.56 19.8 150.72 20.16 151.36 20.16C152 20.16 152.32 19.72 152.56 19.44C153.72 18.04 153.84 17.88 154.2 17.88C154.6 17.88 157.4 20.04 157.4 20.64C157.4 21.24 156.68 21.24 156.32 21.24ZM168.24 7.88C168.48 7.88 170.84 7.68 173.08 6.88C175.36 6.04 175.6 5.96 176.08 5.96C177.08 5.96 177.36 6.84 177.36 7.08C177.36 8 176.64 8.24 175.12 8.76C172.4 9.64 167.52 19.72 167.52 24.64C167.52 26.36 168.48 31.16 173.76 31.16C177.72 31.16 180.68 28.6 181.72 26.84C184.48 22.24 184.48 13.68 184.48 12.4C184.48 10.84 184.4 9.68 183.96 8.04C183.44 6.24 183.4 6.04 183.4 5.6C183.4 4.48 184.24 4.16 184.72 4.16C186 4.16 186.12 4.88 186.92 8.84C187.28 10.68 188.44 14.6 191.96 17.04C194.08 18.52 194.44 18.96 194.44 19.72C194.44 20.64 193.64 21.4 193 21.4C191.24 21.4 189.4 18.24 188.36 16.4C187.96 15.72 185.96 11.88 185.8 11.88C185.68 11.88 185.64 12.28 185.64 12.36C185.64 17 185.64 21.04 184.56 25.44C182.92 32 177.36 34.28 173.52 34.28C168.6 34.28 165.04 30.6 165.04 25.84C165.04 21.64 166.88 17.64 168.84 14.12C169 13.8 171.04 10.16 171.04 10.12C171.04 10 170.88 9.92 170.76 9.92C170.36 9.92 168.76 10.76 168.4 10.76C166.88 10.76 166.16 8.08 166.16 8.04C166.16 7.84 166.24 7.68 166.4 7.68C166.52 7.68 167.96 7.88 168.24 7.88ZM191.52 0.279998C194.68 0.279998 197.12 1.96 197.12 3.8C197.12 4.24 196.8 4.96 196.08 4.96C195.24 4.96 194.72 4.4 194 3.48C193.4 2.72 191.84 1.68 190.52 1.2C190.12 1.04 190.04 0.839998 190.04 0.759999C190.04 0.479998 190.8 0.279998 191.52 0.279998ZM188.2 3.44C190.84 3.44 193.84 5.52 193.84 7.44C193.84 7.96 193.32 8.96 192.6 8.96C191.96 8.96 191.64 8.56 190.6 7C190 6.16 189.56 5.68 188 4.36C187.84 4.24 187.48 3.92 187.48 3.76C187.48 3.56 187.84 3.44 188.2 3.44ZM207.08 14.52C207.44 14.52 207.84 17.08 207.84 18.56C207.84 23.04 205.76 26.08 203.32 26.08C202.72 26.08 201.72 25.88 201.72 24.64C201.72 24.2 201.8 23.8 203.08 22.6C205.56 20.32 206.68 15.88 206.76 15.32C206.8 14.8 206.96 14.52 207.08 14.52ZM215.88 1.04C215.92 0.959999 216.12 0.959999 216.16 0.959999C219.28 0.959999 225.52 4.84 225.52 7.56C225.52 8.92 224.6 9.68 224.12 9.68C223.68 9.68 223.28 9.36 222.4 7.96C220.92 5.6 217.56 2.44 216.2 1.44C215.92 1.28 215.84 1.08 215.88 1.04ZM229.92 13.12C230.32 12.76 236.52 17.96 236.52 23C236.52 24.84 235.4 26.4 234.2 26.4C232.88 26.4 232.88 25.32 232.88 24.76C232.88 20.88 232.88 20.44 232 18C231.48 16.48 230.76 14.92 230.08 13.72C229.88 13.4 229.88 13.16 229.92 13.12ZM212.68 6.48C212.84 6.36 216.8 7.36 216.8 8C216.8 8.32 215.76 9.24 215.72 9.48C215.44 10.48 215.32 26.56 215.32 28.16C215.32 31.76 215.44 32.72 219.32 32.72C225.48 32.72 226.28 31.8 227.84 27.32C227.88 27.16 228.4 25.76 228.48 25.76C228.6 25.76 228.68 27.44 228.68 27.48C228.72 28.12 228.8 29.72 229.44 30.68C229.6 30.92 230.36 31.84 230.36 32.08C230.36 33.8 227.16 35.56 220.32 35.56C212.56 35.56 212.56 33.32 212.56 29.52C212.56 28.16 212.72 22.08 212.76 20.84C212.76 19.76 212.8 15.04 212.8 12.12C212.8 11.12 212.76 9 212.68 8.04C212.68 7.88 212.6 7.44 212.6 7.04C212.6 6.92 212.6 6.56 212.68 6.48ZM245.92 27.44C248.52 27.44 250.36 29.6 250.36 31.88C250.36 34.12 248.56 36.32 245.88 36.32C243.2 36.32 241.48 34.08 241.48 31.84C241.48 28.8 244.12 27.44 245.92 27.44ZM245.88 28.56C243.76 28.56 242.6 30.28 242.6 31.84C242.6 33.68 244.08 35.2 245.96 35.2C247.68 35.2 249.28 33.84 249.28 31.92C249.28 30.36 248.08 28.56 245.88 28.56ZM29.64 72.6H31.76C32.08 72.6 32.56 72.6 32.88 72.32C33.08 72.16 33.84 71.08 34.12 71.08C34.28 71.08 35.32 71.8 35.72 72.04C37.12 73 37.28 73.12 37.28 73.4C37.28 73.64 37.2 73.72 36.32 74.36C36.08 74.52 35.96 74.72 35.92 75.08C35.84 75.88 35.92 79.72 35.92 80.56C35.92 81.72 36.24 87.36 36.24 88.64C36.24 90.76 34.56 90.76 34.44 90.76C33.2 90.76 33.2 90.24 33.2 88.72C33.2 87.72 32.48 87.72 31.92 87.72H29.44C29.04 87.72 28.4 87.76 28.24 88.48V93.72C28.24 94.76 28.24 97.36 28.28 98.2C28.28 98.4 28.36 99.24 28.36 99.44C28.36 100.4 27.36 100.92 26.64 100.92C25.68 100.92 25.36 100.4 25.36 99.84C25.36 99.56 25.52 97.2 25.56 96.68C25.6 95.52 25.76 89.32 25.76 88.88C25.76 87.8 25.2 87.72 24.52 87.72H22.52C21.52 87.72 21.32 88.12 21.32 88.8C21.32 90.16 21.28 91.52 19.48 91.52C19.12 91.52 18.32 91.44 18.32 90.52C18.32 90.4 18.36 89.88 18.36 89.76C18.4 89.24 18.56 85.76 18.56 82.64C18.56 80.64 18.36 74.12 18.28 73.2C18.28 73 18.08 71.96 18.08 71.72C18.08 71.6 18.08 71.36 18.28 71.36C18.76 71.36 19.8 71.84 20.64 72.2C21.44 72.56 21.88 72.6 22.64 72.6H24.8C25.92 72.6 25.92 71.96 25.92 71C25.92 70.12 25.88 69.48 25.56 66.28C25.52 66.08 25.28 65.24 25.28 65.08C25.28 64.8 25.4 64.56 25.68 64.56C25.76 64.56 28.52 65.52 28.72 65.6C28.84 65.64 29.6 65.96 29.6 66.24C29.6 66.44 28.72 67.08 28.6 67.28C28.36 67.56 28.36 67.92 28.36 69.04C28.36 69.48 28.36 71.84 28.48 72.08C28.72 72.6 29.32 72.6 29.64 72.6ZM22.44 86.64H24.6C25.92 86.64 25.92 86.36 25.92 83.68C25.92 80.72 25.92 80.4 24.6 80.4H22.36C21.04 80.4 21.04 80.96 21.04 82.24C21.04 86.64 21.28 86.64 22.44 86.64ZM31.92 73.68H29.6C28.28 73.68 28.28 73.96 28.28 76.08C28.28 76.56 28.28 78.56 28.36 78.8C28.56 79.36 29.24 79.36 29.6 79.36H31.92C33.24 79.36 33.24 79.08 33.24 76.68C33.24 73.96 33.24 73.68 31.92 73.68ZM22.28 79.36H24.68C25.92 79.36 25.92 79 25.92 76.08C25.92 73.96 25.92 73.68 24.68 73.68H22.28C21 73.68 21 74 21 76.92C21 79.08 21 79.36 22.28 79.36ZM31.92 80.4H29.56C28.2 80.4 28.2 80.76 28.2 83.84C28.2 86.36 28.2 86.64 29.56 86.64H31.92C33.28 86.64 33.28 86.32 33.28 83.2C33.28 80.68 33.28 80.4 31.92 80.4ZM14.24 80.76C14.2 80.44 13.68 79 13.68 78.72C13.68 78.6 13.76 78.6 13.8 78.6C14.32 78.6 17.36 81.28 17.36 83.76C17.36 85.16 16.52 86 15.48 86C14.28 86 14.28 84.92 14.28 84.44C14.28 82.8 14.28 82.6 13.72 82.6C13.36 82.6 11.72 82.92 11.48 83.04C10.84 83.32 10.84 83.96 10.84 84.4C10.84 91.76 10.84 92.6 10.96 97.96C10.96 98.16 11 99.12 11 99.28C11 100.32 10.04 100.76 9.12 100.76C8.6 100.76 8.32 100.64 8.32 99C8.32 98.24 8.48 89.84 8.48 89.52V84.8C8.48 84.2 8.2 83.8 7.6 83.8C7.24 83.8 3.6 84.4 3.32 84.56C3.16 84.64 2.6 85.08 2.44 85.12C2.36 85.2 2.24 85.2 2.2 85.2C1.96 85.2 1.88 84.96 1.64 84.16C1.56 83.88 0.76 81.4 0.76 81.28C0.76 81.16 0.84 81.04 1.04 81.04C1.24 81.04 1.92 81.32 2.04 81.36C3.24 81.6 4.84 81.72 6.04 81.72C7.12 81.72 7.56 81.72 9.68 78.04C11.4 75.08 12.24 72.52 12.36 71.68C12.44 71.04 12.48 70.68 12.8 70.68C13 70.68 15 71.36 15.6 71.6C16.36 71.88 16.68 71.96 16.68 72.32C16.68 72.8 16.2 72.92 15.6 73.12C15 73.28 9.28 81.04 9.28 81.32C9.28 81.72 9.84 81.8 10.2 81.8C10.92 81.8 13.32 81.76 13.88 81.56C14.16 81.48 14.32 81.28 14.24 80.76ZM8.76 64.56C9.16 64.64 10.88 65.28 11.24 65.4C12.4 65.8 12.52 65.84 12.52 66.12C12.52 66.48 12.32 66.6 11.6 66.88C11.24 67.04 9.76 69.08 9.32 69.72C8.92 70.24 7.28 72.44 6.96 72.92C6.84 73.16 6.64 73.44 6.64 73.72C6.64 74.04 6.72 74.12 7.32 74.76C7.56 75 8 75.6 8 76.44C8 77.64 7.16 78.2 6.6 78.2C6.24 78.2 6.12 78 5.08 76.32C4.48 75.4 4.12 74.76 1.48 72.24C1.32 72.08 1.16 71.92 1.16 71.88C1.16 71.84 1.2 71.8 1.24 71.8C1.68 71.8 4.48 73.16 5.04 73.16C6.12 73.16 7.28 69.44 8 67.2C8.08 66.88 8.2 65.24 8.28 64.92C8.32 64.68 8.4 64.52 8.76 64.56ZM11.88 87.6C12.16 87.2 14.12 88.68 14.28 88.8C16.84 90.72 17.28 91.48 17.28 92.76C17.28 94.32 16.52 95.24 15.32 95.24C14.44 95.24 14.4 95 14.08 92.72C14 92.16 13.76 90.56 12.76 88.92C12.6 88.72 11.76 87.76 11.88 87.6ZM3.32 87.72C3.24 87.48 3.2 87.16 3.56 87.16C3.76 87.16 6.2 88.12 6.24 88.16C6.52 88.28 7.04 88.56 7.04 88.88C7.04 89.08 6.28 89.68 6.16 89.84C6.04 89.92 3.92 94.48 3.44 95.32C2.32 97.4 1.6 98.2 0.96 98.92C0.88 99 0.4 99.48 0.32 99.48C0.2 99.48 0.48 98.88 0.6 98.72C2.24 95.48 3.48 89.44 3.48 88.8C3.48 88.48 3.4 88.08 3.32 87.72ZM56.2 79.76H47.96C44.44 79.76 43.32 79.84 42.92 79.84C42.76 79.88 42.2 79.96 42.08 79.96C41.92 79.96 41.84 79.84 41.72 79.68L40.96 78.76C40.8 78.6 40.76 78.56 40.76 78.52C40.76 78.44 40.84 78.4 40.92 78.4C41.2 78.4 42.44 78.52 42.68 78.56C44.64 78.64 46.28 78.68 48.16 78.68H56.16C56.56 78.68 57.36 78.68 57.36 77.56C57.36 74.6 57.24 71.6 57.04 68.68C57 68.16 56.48 65.84 56.48 65.52C56.48 65.36 56.64 65.28 56.8 65.28C56.84 65.28 59.56 65.92 60.36 66.16C61.44 66.48 62.04 66.68 62.04 67C62.04 67.36 60.76 68.28 60.68 68.56C60.48 69.2 60.48 75.88 60.48 76.92C60.48 78.16 60.48 78.68 61.72 78.68H69.52C71.32 78.68 71.48 78.68 72.08 78C73.2 76.68 73.32 76.56 73.68 76.56C73.92 76.56 77.44 78.68 77.44 79.2C77.44 79.76 76.64 79.76 75.28 79.76H61.72C61.04 79.76 60.44 79.84 60.44 81.04V96.68C60.44 97.2 60.6 97.76 61.68 97.76H67.04C68.84 97.76 69.04 97.76 69.6 97.08C70.72 95.76 70.84 95.6 71.2 95.6C71.48 95.6 74.96 97.72 74.96 98.24C74.96 98.8 74.16 98.8 72.8 98.8H50.24C46.76 98.8 45.6 98.88 45.2 98.92C45.08 98.92 44.48 99 44.36 99C44.2 99 44.12 98.92 44 98.76L43.24 97.84C43.08 97.64 43.08 97.64 43.08 97.56C43.08 97.48 43.12 97.48 43.2 97.48C43.48 97.48 44.72 97.6 44.96 97.6C46.92 97.68 48.56 97.76 50.44 97.76H56C56.44 97.76 57.16 97.76 57.24 96.68C57.24 96.64 57.36 90.04 57.36 81.76C57.36 80.36 57.36 79.76 56.2 79.76ZM88.36 86.48C88.36 87.68 88.76 88.88 89.4 88.88C90.08 88.88 90.44 88.24 91.32 85.76C91.56 85.08 91.68 84.76 91.88 84.76C92.08 84.76 92.08 85.16 92.08 85.24C92.08 85.68 91.16 90.36 91.16 91.32C91.16 92 91.72 93.2 91.8 93.4C92.08 93.96 92.28 94.64 92.28 95.16C92.28 95.96 91.64 96.52 90.96 96.52C88.48 96.52 86.64 89.72 86.64 85.88C86.64 83.32 86.96 82.16 88.32 77.16C89 74.72 89 73.72 89 73C89 71.72 88.76 70.64 88.6 70.16C88.56 70.04 88.36 69.56 88.36 69.44C88.36 69.32 88.52 69.24 88.68 69.24C90.52 69.24 92.2 72.88 92.2 74.32C92.2 74.76 92.2 74.8 91.44 76.16C91 77 88.36 82.88 88.36 86.48ZM109.08 71.68C109.8 71.8 110.76 72.48 110.76 73.4C110.76 75.36 106.32 75.36 105.84 75.36C101.32 75.36 98.84 72.92 98.84 72.4C98.84 72.32 98.88 72.2 99.12 72.2C99.24 72.2 99.72 72.36 100.24 72.48C101.16 72.68 102.24 72.72 102.96 72.72C104.92 72.72 106.8 72.32 107.36 72.12C108.56 71.68 108.68 71.64 109.08 71.68ZM110.8 91.52C112.32 91.52 112.64 92.4 112.64 92.88C112.64 94.44 111.44 94.92 105.84 94.92C101.92 94.92 100.44 93.92 99.6 93.12C99.4 92.92 98.36 91.88 98.36 91.12C98.36 91.04 98.36 90.72 98.56 90.72C98.72 90.72 99.36 91.2 99.52 91.28C100.68 91.88 102.32 91.96 103.8 91.96C104.84 91.96 106.28 91.96 107.28 91.84C107.84 91.8 110.64 91.52 110.8 91.52ZM151.12 83.88H140.64C139.92 83.88 139.64 83.96 139.44 84.72C139.24 85.44 137.8 86 137.36 86C136.56 86 136.56 85.12 136.56 84.88C136.56 84.04 136.72 79.8 136.72 78.84C136.72 77.36 136.72 76.04 136.52 74.44C136.48 74.08 136.16 72.16 136.16 71.88C136.16 71.72 136.16 71.4 136.48 71.4C137.36 71.4 137.92 71.8 138.84 72.4C139.28 72.72 140.56 72.76 141.12 72.76H150.36C151.04 72.76 151.6 72.76 152 72.48C152.24 72.28 153.16 71.08 153.48 71.08C153.64 71.08 156.32 72.56 156.32 73.12C156.32 73.2 155.64 73.88 155.48 74.04C155.16 74.36 154.96 74.64 154.92 75.16C154.8 76.16 154.96 81.32 154.96 82.48C154.96 83.48 154.96 84.92 153.12 84.92C152.6 84.92 152.48 84.8 152.2 84.4C151.84 83.88 151.44 83.88 151.12 83.88ZM143.24 73.84H140.56C139.32 73.84 139.32 74.52 139.32 75.72C139.32 77 139.32 77.72 140.56 77.72H143.24C144.32 77.72 144.44 77.2 144.44 75.8C144.44 74.4 144.32 73.84 143.24 73.84ZM151.04 78.76H148C146.8 78.76 146.8 79.48 146.8 80.48C146.8 82.2 146.8 82.8 148.04 82.8H151C152.24 82.8 152.24 82.24 152.24 80.28C152.24 79.52 152.24 78.76 151.04 78.76ZM143.24 78.76H140.6C139.4 78.76 139.4 79.48 139.4 80.32C139.4 82.16 139.4 82.8 140.68 82.8H143.2C144.44 82.8 144.44 82.12 144.44 80.44C144.44 79.52 144.44 78.76 143.24 78.76ZM150.92 73.84H148.04C146.84 73.84 146.84 74.52 146.84 75.72C146.84 77 146.84 77.72 148.04 77.72H150.92C152.16 77.72 152.16 77 152.16 75.8C152.16 74.52 152.16 73.84 150.92 73.84ZM129.72 90.2H127.2C126.6 90.2 125.84 90.2 125.84 91.44C125.84 91.76 126 91.88 126.28 92.08C128.36 93.44 128.44 93.52 128.44 93.76C128.44 94.04 128 94.32 127.8 94.4C127 94.72 127 94.72 126.48 95.24C123.6 98.24 120.6 99.8 120.6 99.48C120.6 99.32 122.68 96.72 123.08 96.16C124.52 94.12 125 92.76 125 92.4C125 92 124.84 92 124.12 92C123.08 92 123.08 91.32 123.08 90.4C123.08 88.68 123.32 80.2 123.32 78.28C123.32 75.36 123.24 72.68 123 69.8C122.96 69.44 122.64 67.64 122.64 67.2C122.64 67.08 122.64 66.72 122.96 66.72C123.4 66.72 124.04 67.04 125.48 67.76C126.16 68.12 126.84 68.12 127.24 68.12H129.48C130 68.12 130.48 68.12 131.12 67.36C131.6 66.76 131.8 66.6 132.04 66.6C132.28 66.6 132.64 66.84 132.84 67C133.12 67.24 133.44 67.52 133.64 67.64C134.52 68.2 134.76 68.36 134.76 68.76C134.76 68.96 134.04 69.6 134 69.8C133.92 70.08 133.92 72.28 133.92 72.44C133.92 72.72 133.84 80.72 133.84 81.52C133.84 82.72 133.92 88.6 133.92 89.92C133.92 90.88 133.92 92.04 131.84 92.04C131.04 92.04 131 91.56 130.92 91.04C130.84 90.2 130.08 90.2 129.72 90.2ZM130.04 76.28H127.08C125.88 76.28 125.88 76.88 125.88 78.4C125.88 81.84 125.88 82.28 127.12 82.28H130C131.24 82.28 131.24 82 131.24 78.6C131.24 76.8 131.24 76.28 130.04 76.28ZM130 69.16H127C125.8 69.16 125.8 69.28 125.8 72.96C125.8 74.76 125.8 75.24 127 75.24H130C131.2 75.24 131.2 74.88 131.2 71.64C131.2 69.72 131.2 69.16 130 69.16ZM129.92 83.32H127.2C125.96 83.32 125.96 83.92 125.96 85.4C125.96 88.72 126 89.16 127.24 89.16H129.88C131.08 89.16 131.12 88.76 131.12 85.48C131.12 83.92 131.12 83.32 129.92 83.32ZM144.16 87.72H148.76C149.28 87.72 150.04 87.72 150.56 87.08C151.04 86.48 151.08 86.4 151.4 86.4C151.88 86.4 154.48 88.04 154.48 88.56C154.48 88.76 153.8 89.36 153.68 89.52C153.44 89.92 153.44 90.36 153.44 91.12C153.44 92.12 153.52 93.52 153.52 94C153.56 94.6 153.84 97.48 153.84 98.12C153.84 99.24 153.2 100.08 151.96 100.08C151.32 100.08 151.16 99.88 150.96 99.56C150.64 99 150.16 99 149.8 99H143.4C143 99 142.52 99.08 142.32 99.52C141.88 100.44 141 100.92 140.24 100.92C139.52 100.92 139.4 100.32 139.4 99.44C139.4 98.76 139.52 95.48 139.52 94.72C139.52 92.12 139.48 91 139.36 89.16C139.36 88.8 139.12 87.2 139.12 86.84C139.12 86.68 139.12 86.32 139.44 86.32C140.08 86.32 140.64 86.64 141.68 87.24C142.56 87.72 143.56 87.72 144.16 87.72ZM149.6 88.8H143.4C142.2 88.8 142.2 89.48 142.2 90.76C142.2 92.12 142.2 92.8 143.4 92.8H149.6C150.8 92.8 150.8 92.12 150.8 90.84C150.8 89.44 150.8 88.8 149.6 88.8ZM149.6 93.88H143.44C142.24 93.88 142.24 94.6 142.24 95.48C142.24 97.36 142.24 97.96 143.48 97.96H149.6C150.8 97.96 150.8 97.28 150.8 95.96C150.8 94.52 150.8 93.88 149.6 93.88ZM138.84 65C139.08 64.76 144.2 67.36 144.2 70.04C144.2 70.96 143.44 71.8 142.56 71.8C141.88 71.8 141.76 71.6 141.16 69.68C140.56 67.8 139.56 66.4 139.04 65.72C138.76 65.32 138.76 65.04 138.84 65ZM150.88 64.2C151 64.08 154.96 65.68 154.96 66.2C154.96 66.44 154.84 66.52 154.28 66.68C153.44 66.96 148.4 72 147.32 72C147.24 72 147.24 71.96 147.24 71.92C147.24 71.84 149.92 67.8 150.32 66.96C150.68 66.28 150.76 65.84 150.76 65.32C150.76 64.64 150.8 64.28 150.88 64.2ZM130.44 92.24C130.64 92 132.2 93.08 132.44 93.24C134.28 94.52 135.52 95.84 135.52 97.32C135.52 98.08 135.2 99.04 134.28 99.04C133.32 99.04 133.2 98.76 132.28 96.24C131.8 95 131.28 93.92 130.56 92.72C130.52 92.68 130.36 92.36 130.44 92.24ZM183.04 94.52C184.4 94.52 187.2 92.08 187.2 88.76C187.2 85.48 184.44 82.68 180.44 82.68C175.16 82.68 171.76 88.16 171.04 89.4C170.24 90.76 169.84 91.52 168.76 91.52C167.8 91.52 167.6 90.72 167.6 90.4C167.6 89.4 167.92 88.52 170.76 85.2C173.36 82.16 173.76 81.64 179.8 73.16C181.12 71.28 181.68 70.44 181.68 70C181.68 69.72 181.4 69.44 180.92 69.44C179.44 69.44 177.08 71.44 176.4 72C174.8 73.32 174.24 73.44 173.56 73.44C171.68 73.44 170.44 70.88 170.44 70.68C170.44 70.56 170.56 70.56 171.4 70.56C173.52 70.56 176.48 69.6 177.6 69.12C180.08 68.04 180.36 67.92 181.24 67.92C182.84 67.92 185.44 68.92 185.44 70.68C185.44 71.84 184.52 72.48 182.6 73.8C179.72 75.84 176.2 81.32 176.2 82C176.2 82.12 176.32 82.28 176.44 82.28C176.68 82.2 177.2 82 177.44 81.92C178.72 81.44 179.84 81.28 180.96 81.28C186.08 81.28 189.96 85.08 189.96 89.6C189.96 94.68 185.04 98.24 179.96 98.24C176 98.24 173.16 96.12 173.16 94.12C173.16 92.68 174.84 90.88 177.12 90.88C179 90.88 180.56 92 181.68 93.44C182.24 94.16 182.48 94.52 183.04 94.52ZM179.36 94.92C179.36 93.96 178.4 92.36 176.92 92.36C175.96 92.36 175.24 93.12 175.24 93.76C175.24 94.8 176.96 95.64 178.68 95.64C179.08 95.64 179.36 95.36 179.36 94.92ZM7.24 139.68C7.48 139.68 10.96 139.92 11.64 139.92C15.24 139.92 23.76 139.2 24.64 138.64C26.08 137.68 26.24 137.6 26.6 137.6C27.4 137.6 31.24 140.16 31.24 141.2C31.24 141.56 31.12 141.68 29.88 142.6C29.16 143.12 29 143.72 27.64 149.28C27.56 149.64 27 151.4 27 151.64C27 152.16 27.36 152.2 27.96 152.32C28.96 152.48 30.44 153 30.44 154C30.44 155.08 28.6 155.08 28.28 155.08C27.28 155.08 22.84 154.8 21.92 154.8C19.44 154.8 11.84 155.64 11.2 155.8C10.96 155.84 9.96 156.28 9.76 156.28C9.04 156.28 6.68 154.48 6.68 153.08C6.68 152.92 6.84 152.8 7.04 152.8C7.24 152.8 8.08 152.96 8.24 153C9.12 153.12 9.8 153.12 10.28 153.12C13.04 153.12 23.52 152.4 24.12 152.08C24.6 151.84 24.76 151.36 25.04 149.36C25.52 145.84 25.88 142.36 25.88 141.56C25.88 140.88 25.72 140.72 25.28 140.72C24.04 140.72 14.12 142.32 12.56 142.68C12.2 142.76 10.8 143.32 10.48 143.32C9.6 143.32 6.76 140.88 6.76 140.08C6.76 139.76 7.04 139.68 7.24 139.68ZM50.84 134.12C51.08 134.12 52.04 134.52 52.28 134.56C52.92 134.72 53.84 134.72 54.4 134.72C56.28 134.72 58.92 134.64 60.8 134.28C61.4 134.16 64.16 133.48 64.72 133.48C65.4 133.48 67.16 133.84 67.16 135C67.16 136.24 65.76 136.36 63.44 136.56C62.8 136.64 54.2 137.4 53.92 137.4C51.8 137.4 50.6 134.68 50.6 134.4C50.6 134.2 50.68 134.12 50.84 134.12ZM49.84 161.44C49.92 161.36 51.04 160.84 51.28 160.72C63.76 154 67.04 145.36 67.04 144.52C67.04 144.04 66.76 143.76 66.2 143.76C64.84 143.76 54.8 145.52 53.04 146.04C52.76 146.12 51.48 146.72 51.2 146.72C49.48 146.72 46.64 143.28 46.64 142.16C46.64 142.04 46.76 141.96 46.88 141.96C47 141.96 47.48 142.24 47.6 142.28C48.36 142.6 49.88 142.96 51.56 142.96C54.84 142.96 62.8 141.92 64.28 141.76C64.36 141.76 67 141.52 67.04 141.52C67.24 141.44 68 141.08 68.2 141.08C68.88 141.08 71.72 143.44 71.72 144.36C71.72 144.96 71.56 145.12 70.64 145.88C69.96 146.44 69.56 147.04 68.48 148.72C65.32 153.52 62.84 156.52 57.2 159.4C53.64 161.2 50.48 162 50.12 162C49.8 162 49.76 161.76 49.76 161.68C49.76 161.6 49.8 161.48 49.84 161.44ZM99.92 145.44C99.92 147.36 100.12 155.88 100.12 157.6C100.12 158.2 100.12 160.84 98 160.84C97.12 160.84 97.04 160.6 96.2 158.28C95.72 157 95.52 156.68 94.72 155.44C94.56 155.16 94.48 155.08 94.48 154.96C94.48 154.84 94.56 154.8 94.64 154.8C94.92 154.8 96.24 155.32 96.52 155.32C97.04 155.32 97.24 154.88 97.32 154.24C97.52 152.36 97.52 148.36 97.52 146.2C97.52 144.28 97.44 143.56 96.36 143.56C96.12 143.56 91.32 144.24 88.96 144.84C88.72 144.92 87.6 145.28 87.36 145.28C86.48 145.28 84.48 142.56 84.48 141.76C84.48 141.56 84.52 141.4 84.76 141.4C84.92 141.4 85 141.44 85.52 141.64C86.44 142.04 88.48 142.04 89.08 142.04C90 142.04 94.32 141.8 95.52 141.76C97.04 141.68 97.44 141.4 97.44 140.08C97.44 138.76 97.2 136.12 96.6 134.96C96.52 134.76 95.84 134.12 95.84 133.92C95.84 133.8 96.28 133.52 97.2 133.52C99.96 133.52 100.96 135.28 100.96 135.6C100.96 135.84 100.32 136.72 100.24 136.92C99.88 137.64 99.88 139.6 99.88 140C99.88 141.24 100.4 141.44 101.44 141.44C102.72 141.44 104.64 141.12 105.32 141.04C105.84 140.96 107.96 140.44 108.4 140.44C109.6 140.44 110.96 141.04 112.28 141.8C112.72 142.08 113.28 142.4 113.28 143.08C113.28 143.84 112.4 143.88 112.24 143.88C111.64 143.88 109.04 143.44 108.48 143.36C106.96 143.2 104.04 143.16 103.72 143.16C100.28 143.16 99.92 143.16 99.92 145.44ZM111.96 157.36C110.84 157.36 110.48 156.44 109.76 154.72C109.08 153.04 107.84 150.96 106.52 149.8C105.92 149.24 104.92 148.32 104.92 148.12C104.92 147.92 105.12 147.92 105.2 147.92C107.32 147.92 113.76 151.8 113.76 155.16C113.76 156.08 113.28 157.4 111.96 157.36ZM85.6 156.44C85.08 156.28 84.44 155.76 84.44 154.96C84.44 154.2 84.8 153.8 85.96 153.08C87.52 152.12 89.56 150.28 89.88 150C90.08 149.8 90.52 149.4 90.68 149.4C90.84 149.4 90.88 149.76 90.88 149.88C90.88 151.76 89 156.6 86.36 156.6C86.04 156.6 85.8 156.52 85.6 156.44ZM111 130.88C114.32 130.88 116.6 132.64 116.6 134.36C116.6 134.84 116.28 135.56 115.6 135.56C114.76 135.56 114.24 134.96 113.52 134.04C112.84 133.24 111.32 132.28 110.04 131.8C109.64 131.64 109.52 131.48 109.52 131.36C109.52 131.08 110.24 130.88 111 130.88ZM107.24 134.28C109.4 134.28 110.32 134.28 111.72 135.16C112.96 135.92 113.48 136.88 113.48 137.44C113.48 138.24 113 139 112.36 139C111.88 139 111.56 138.84 110.2 137.4C109.36 136.52 108.88 136.24 107.2 135.24C107 135.12 106.56 134.84 106.56 134.68C106.56 134.56 106.88 134.28 107.24 134.28ZM133.64 139.36C133.64 139.68 133.08 141.6 133 142.04C132.84 142.88 132.68 143.92 132.68 149.56C132.68 150.72 132.68 151.68 134 151.68C135.72 151.68 145.96 147.36 153 141.24C153.56 140.76 153.64 140.68 153.92 140.68C154.12 140.68 154.24 140.84 154.24 141C154.24 141.4 148.32 147.88 138.52 153C133.88 155.4 133.56 155.64 132.72 156.68C132.52 156.96 132.44 157 132.28 157C131.96 157 129.56 155.04 129.56 153.96C129.56 153.76 129.88 152.16 129.92 152.08C130.12 151.16 130.12 149.68 130.12 146.92C130.12 141.64 130.12 140.56 129.08 138.68C128.92 138.44 128.2 137.36 128.2 137.12C128.2 136.96 128.44 136.92 128.6 136.92C129.04 136.92 133.64 137.72 133.64 139.36ZM169.92 145.88C171.24 145.88 185.2 145.36 191.04 145.04C191.28 145.04 191.72 145 191.92 145C194.36 145 194.72 146.48 194.72 146.76C194.72 147.88 193.08 148 191.4 148C190.48 148 186.48 147.92 185.68 147.92C180.16 147.92 171 148.44 170.04 148.64C169.56 148.72 167.4 149.36 166.92 149.36C165.2 149.36 163.36 146.88 163.36 145.52C163.36 145.28 163.48 145.04 163.68 145.04C163.88 145.04 164.84 145.48 165.04 145.52C165.72 145.72 167.36 145.88 169.92 145.88ZM208.36 160.72C207.48 160.72 207.08 160.08 206.08 158.24C205.96 158.04 205.24 157.2 205.12 157C205 156.8 204.88 156.48 204.88 156.24C204.88 156.08 205 155.96 205.24 155.96C205.6 155.96 207.12 156.48 207.44 156.48C209.16 156.48 219.92 150.48 229.48 139.64C229.68 139.4 231.08 137.84 231.2 137.84C231.28 137.84 231.36 137.88 231.36 138C231.36 138.44 227.84 147 211.28 158.6C210.8 158.92 208.88 160.72 208.36 160.72ZM206.84 142.28C208.56 142.28 211 143.88 211 145.84C211 146.64 210.4 147.84 209.44 147.84C208.84 147.84 208.64 147.6 208.04 146.6C207.2 145.16 205.84 144.12 204.4 143.28C204.28 143.2 204.04 143.04 204.04 142.88C204.04 142.32 206.32 142.28 206.84 142.28ZM211.48 134.64C215.8 134.64 215.8 137.76 215.8 137.88C215.8 138.8 215.16 139.68 214.52 139.68C214.08 139.68 213.88 139.52 212.44 137.8C211.36 136.52 209.96 135.96 209 135.68C208.84 135.64 208.4 135.52 208.4 135.4C208.4 135.28 209.52 134.64 211.48 134.64ZM241.48 143.8C241.64 143.8 242.44 144.08 242.92 144.24C243.56 144.44 244.8 144.44 245.24 144.44C246.72 144.44 253.56 144.16 255.2 143.56C255.52 143.44 256.64 142.48 256.92 142.48C257.24 142.48 259.6 144.28 259.6 145.08C259.6 145.48 259.48 145.6 258.92 146.24C258.72 146.48 258.56 146.8 258.52 147.56C258.4 150.2 258.32 153.2 258.32 155.84C258.32 156.24 258.4 158 258.4 158.36C258.4 160.2 257.44 160.92 256.84 160.92C256.24 160.92 255.72 160.28 255.56 159.36C255.48 158.84 255.48 158.72 254.92 158.72C253.6 158.72 247.2 159.48 246.12 159.68C245.8 159.72 244.56 160.08 244.12 160.08C243.04 160.08 241.84 157.52 241.84 157.2C241.84 157.04 241.88 156.72 242.2 156.72C242.32 156.72 242.44 156.76 243.52 157.12C243.68 157.16 244.44 157.44 245.44 157.44C247.04 157.44 254.92 156.64 255.28 156.48C255.72 156.24 255.72 155.88 255.76 154.76C255.76 154.44 255.84 152.76 255.84 152.6C255.84 152.08 255.68 151.84 255.2 151.84C255.04 151.84 252.16 152.24 250.68 152.44C249.6 152.56 245.32 153.12 244.64 153.12C243.52 153.12 241.92 152 241.92 150.68C241.92 150.28 242 150.16 242.2 150.16C242.32 150.16 242.8 150.4 243.16 150.56C243.64 150.76 244.32 150.84 245.16 150.84C248.72 150.84 255.36 150.16 255.72 149.76C256 149.44 256.04 147.08 256.04 146.52C256.04 145.84 255.84 145.64 255.24 145.64C255 145.64 250.44 146.12 247.56 146.48C247 146.56 244.56 146.96 244.08 146.96C242.6 146.96 241.12 144.8 241.12 144.24C241.12 144 241.32 143.8 241.48 143.8ZM283.2 139.6C283.2 140.8 282.52 141.6 281.48 141.6C280.4 141.6 280 140.96 278.68 138.96C277.32 136.92 276.16 136.32 275.04 135.68C274.88 135.6 274.68 135.48 274.68 135.32C274.68 135.16 275 134.96 275.56 134.96C279.84 134.96 283.2 137.24 283.2 139.6ZM299.84 139.24C299.84 139.6 295.16 147.08 284.76 154.76C283.72 155.52 281.68 157.04 280.84 158.04C280.08 158.96 280 159.04 279.4 159.04C277.24 159.04 274.28 156.48 274.28 154.88C274.28 154.6 274.32 152.76 274.68 152.76C274.84 152.76 275.72 153.44 275.88 153.52C276.4 153.84 277.72 154.44 278.6 154.44C280.56 154.44 291.16 147.36 297.8 140.8C298.44 140.16 299.56 139.04 299.64 139.04C299.72 139.04 299.84 139.16 299.84 139.24ZM311.92 155.44C314.52 155.44 316.36 157.6 316.36 159.88C316.36 162.12 314.56 164.32 311.88 164.32C309.2 164.32 307.48 162.08 307.48 159.84C307.48 156.8 310.12 155.44 311.92 155.44ZM311.88 156.56C309.76 156.56 308.6 158.28 308.6 159.84C308.6 161.68 310.08 163.2 311.96 163.2C313.68 163.2 315.28 161.84 315.28 159.92C315.28 158.36 314.08 156.56 311.88 156.56Z" fill="white"/>
  </svg>
