<svg width="290" height="60" viewBox="0 0 290 60" fill="none" xmlns="http://www.w3.org/2000/svg">
  <path d="M8.71113 37.1295L5.18042 42.9364V37.1295H1.99023V52.0589H5.18042V45.32L8.99789 52.0589H12.5107L7.99423 44.0834L12.2239 37.1295H8.71113Z" fill="white"/>
  <path d="M24.7863 7.46783L18.1191 29.3869H22.8686L24.2665 24.2073H30.4677L31.7401 29.3869H36.7943L30.3422 7.46783H24.7863ZM25.2343 20.5691L27.5105 12.1277L29.5715 20.5691H25.2343Z" fill="white"/>
  <path d="M92.9091 7.05566C87.5683 7.05566 84.2168 11.1061 84.2168 18.4005C84.2168 25.6949 87.5324 29.7275 92.9091 29.7275C98.2859 29.7275 101.601 25.7129 101.601 18.4005C101.601 11.0882 98.25 7.05566 92.9091 7.05566ZM92.9091 26.0175C90.5972 26.0175 89.2171 23.383 89.2171 18.4005C89.2171 13.4181 90.5972 10.7477 92.9091 10.7477C95.2211 10.7477 96.6012 13.4002 96.6012 18.4005C96.6012 23.4009 95.2211 26.0175 92.9091 26.0175Z" fill="white"/>
  <path d="M98.6277 37.1295H95.4375V52.0589H98.6277V37.1295Z" fill="white"/>
  <path d="M81.421 45.6964H84.8263V52.0589H88.0164V37.1295H84.8263V42.9901H81.421V37.1295H78.2129V52.0589H81.421V45.6964Z" fill="white"/>
  <path d="M77.2642 25.7307H69.6293V20.0135H76.5831V16.3753H69.6293V11.1061H76.9774V7.46783H64.9336V29.369H77.2642V25.7307Z" fill="white"/>
  <path d="M47.8343 19.4758L53.4261 29.369H58.5698L51.9565 17.6657L58.1755 7.46783H53.0318L47.8343 15.963V7.46783H43.1387V29.369H47.8343V19.4758Z" fill="white"/>
  <path d="M45.0215 37.1295V46.2879C45.0215 50.3383 46.5807 52.2919 50.0397 52.2919C53.4988 52.2919 55.0759 50.3383 55.0759 46.2879V37.1295H52.0112V46.6821C52.0112 48.797 51.6348 49.7827 50.1114 49.7827C48.588 49.7827 48.2475 48.7791 48.2475 46.6821V37.1295H45.0215Z" fill="white"/>
  <path d="M32.1531 37.1295H28.9629V52.0589H32.1531V45.32L35.9526 52.0589H39.4654L34.9669 44.0834L39.1966 37.1295H35.6838L32.1531 42.9364V37.1295Z" fill="white"/>
  <path d="M68.3914 52.3097C69.5563 52.3097 70.6496 52.1126 71.6712 51.6824V48.8148C70.8109 49.3704 69.8073 49.6572 68.8932 49.6572C66.5275 49.6572 65.1295 47.865 65.1295 44.5852C65.1295 41.3054 66.4737 39.5848 68.7678 39.5848C69.7356 39.5848 70.7034 39.7999 71.5816 40.3734V37.5775C70.4704 37.0936 69.3771 36.8785 68.2839 36.8785C64.3768 36.8785 61.7422 39.8537 61.7422 44.5852C61.7422 49.3167 64.3409 52.3097 68.3914 52.3097Z" fill="white"/>
  <path d="M4.98242 29.369H9.67809V11.4287H14.6067V7.46783H0V11.4287H4.98242V29.369Z" fill="white"/>
  <path d="M21.4894 37.1295H18.2812V52.0589H21.4894V37.1295Z" fill="white"/>
  <path d="M124.18 9.87799C125.72 11.4186 152.104 37.8019 165.103 50.801" stroke="white" stroke-width="1.28"/>
  <path d="M165.102 9.87799C163.561 11.4186 137.178 37.8019 124.179 50.801" stroke="white" stroke-width="1.28"/>
  <path d="M229.807 40.523C229.807 40.523 229.842 40.523 229.854 40.5469C229.854 40.5708 229.842 40.5946 229.807 40.6304C229.448 41.0004 229.245 41.442 229.197 41.9313C229.174 42.1222 229.162 42.3967 229.162 42.7428V43.7453C229.162 43.984 229.162 44.2824 229.162 44.6643C229.162 44.8433 229.162 45.1536 229.185 45.5832C229.209 46.0248 229.233 46.3112 229.257 46.4544C229.353 47.1108 229.639 47.624 230.105 47.994L230.057 48.0417C228.947 48.0059 228.098 47.982 227.549 47.982C226.844 47.982 226.247 48.0059 225.745 48.0417C225.841 47.9582 226.008 47.7553 226.247 47.445C226.474 47.0273 226.593 46.6573 226.593 46.347C226.593 45.1536 226.581 44.163 226.546 43.3515C226.546 43.3157 226.51 43.3037 226.45 43.3037C226.104 43.8766 225.745 44.5091 225.399 45.2133C225.267 45.4639 225.1 45.798 224.897 46.2157L224.527 47.0154C224.431 47.2182 224.312 47.4927 224.168 47.8269C224.049 48.0775 223.977 48.2207 223.977 48.2446C223.894 48.1133 223.834 47.982 223.774 47.8508L223.547 47.3495C223.523 47.2779 223.452 47.1347 223.332 46.9079C223.201 46.6573 222.998 46.2515 222.699 45.7026C222.233 44.8672 221.72 44.0317 221.146 43.2083C221.134 43.1725 221.11 43.1486 221.087 43.1486C221.051 43.1486 221.027 43.1725 221.015 43.2321C221.015 43.2321 221.015 43.2441 221.015 43.2679C221.015 43.3634 221.015 43.5782 221.015 43.8766C221.015 44.6762 221.075 45.3565 221.206 45.9174C221.349 46.5738 221.6 47.1347 221.959 47.624C222.09 47.7553 222.269 47.8985 222.508 48.0536C222.508 48.0536 222.508 48.0536 222.484 48.0656C222.46 48.0775 222.46 48.0656 222.436 48.0656C222.424 48.0656 222.412 48.0656 222.401 48.0775C221.959 48.0417 221.457 48.0298 220.872 48.0298H219.343C219.868 47.6121 220.238 47.0392 220.442 46.3112C220.585 45.7861 220.657 45.0939 220.657 44.2466C220.657 43.9959 220.657 43.7453 220.657 43.5186V42.8025C220.645 42.719 220.633 42.5757 220.633 42.3848C220.406 41.991 220.035 41.5494 219.498 41.0481C219.354 40.9049 219.187 40.7498 219.008 40.5827H220.788C221.755 40.5827 222.436 40.5708 222.819 40.5469C222.819 40.5469 222.819 40.5588 222.843 40.5708C222.854 40.5708 222.866 40.5827 222.866 40.5946C223.046 41.2033 223.392 41.8835 223.894 42.6354C223.918 42.6712 224.085 42.9338 224.395 43.3992C224.551 43.614 224.778 43.9482 225.088 44.4017C225.1 44.4017 225.124 44.4017 225.148 44.4256C225.172 44.4375 225.196 44.4614 225.208 44.4733L225.244 44.4972C225.244 44.4972 225.303 44.4853 225.339 44.4494C225.53 44.1392 225.817 43.6618 226.187 43.0293C226.45 42.5399 226.581 42.0745 226.581 41.6329C226.581 41.4778 226.569 41.2988 226.534 41.1197C226.522 41.0601 226.474 40.9765 226.39 40.8333C226.307 40.702 226.259 40.6066 226.235 40.5588H227.597C227.728 40.5708 227.979 40.5827 228.361 40.5827C228.994 40.5827 229.484 40.5708 229.842 40.535L229.807 40.523ZM231.324 40.5588C231.694 40.5588 232.172 40.5588 232.769 40.5946C233.474 40.6185 234.083 40.6304 234.621 40.6304C235.588 40.6304 236.58 40.6066 237.583 40.5588V41.2391C237.583 41.5016 237.595 41.7403 237.607 41.9432C237.607 42.1461 237.607 42.3848 237.607 42.6474C237.607 42.6712 237.607 42.6832 237.571 42.6832C237.535 42.6832 237.476 42.5877 237.344 42.3848C237.308 42.3251 237.261 42.2654 237.213 42.2058C237.165 42.1461 237.141 42.0984 237.117 42.0745C237.093 42.0506 237.081 42.0268 237.081 42.0268C236.424 41.3107 235.779 40.9527 235.17 40.9527C235.075 40.9527 234.979 40.9527 234.871 40.9885C234.728 41.1317 234.656 41.3942 234.645 41.7881C234.645 42.0506 234.645 42.4564 234.645 43.0173C234.645 43.6856 234.68 44.0198 234.764 44.0198C235.218 44.0198 235.672 43.8169 236.126 43.4112C236.305 43.256 236.484 43.0651 236.675 42.8264C236.699 42.8264 236.711 43.3634 236.711 44.4494V45.4161C236.484 45.1058 236.209 44.8552 235.863 44.6762C235.517 44.4972 235.158 44.4017 234.776 44.4017C234.692 44.4136 234.656 44.8552 234.656 45.7264C234.656 46.359 234.692 46.9079 234.764 47.3495C234.8 47.5285 234.931 47.624 235.158 47.6121H235.636C236.281 47.5763 236.878 47.1944 237.428 46.4783C237.631 46.2038 237.87 45.8577 238.109 45.44C238.109 45.6906 238.109 45.9293 238.109 46.1322C238.109 46.3351 238.109 46.5738 238.109 46.8244C238.109 47.1108 238.109 47.5166 238.133 48.0417L236.4 48.0059H234.991C233.784 48.0059 232.602 48.0298 231.431 48.0894C231.371 48.0775 231.348 48.0536 231.348 48.0298C231.348 48.0059 231.36 47.9582 231.383 47.9104C231.873 47.3376 232.112 46.4664 232.112 45.2849V44.7239V44.4972V43.3992C232.112 42.528 232.064 41.9313 231.969 41.5852C231.885 41.2988 231.682 40.9527 231.348 40.5588H231.324ZM243.209 40.5588C243.388 40.5588 243.484 40.5708 243.484 40.6304C243.46 40.702 243.448 40.7975 243.448 40.9288C243.46 41.1794 243.532 41.3942 243.651 41.5613C243.747 41.7045 243.986 42.0148 244.356 42.4922C244.726 42.9576 245.228 43.5544 245.873 44.2824C245.957 44.3659 246.016 44.4136 246.076 44.4136C246.124 44.4136 246.148 44.3778 246.148 44.3062C246.148 43.3276 246.1 42.6235 246.016 42.1938C245.885 41.5016 245.598 41.0123 245.156 40.7259C245.073 40.6662 245.037 40.6185 245.037 40.5946C245.037 40.5708 245.109 40.5588 245.264 40.5588H247.33C247.414 40.5588 247.462 40.5588 247.462 40.5827C247.462 40.6066 247.426 40.6543 247.354 40.702C246.924 41.0243 246.65 41.621 246.542 42.4803C246.494 42.8383 246.47 43.256 246.47 43.7453C246.47 43.8169 246.47 44.0795 246.494 44.5569L246.53 45.4758C246.542 45.7145 246.554 46.0845 246.566 46.5618L246.59 47.0631C246.614 47.4927 246.626 47.7911 246.626 47.982C246.626 48.0417 246.554 48.0775 246.411 48.0775H245.957C245.61 48.0775 245.419 48.0536 245.383 47.994C244.941 47.3256 244.356 46.538 243.615 45.6071C242.791 44.5569 242.027 43.6498 241.31 42.886C241.274 42.8502 241.238 42.8383 241.202 42.8383C241.143 42.8383 241.119 42.8622 241.107 42.898C241.107 43.0173 241.107 43.2679 241.107 43.6618C241.107 44.6404 241.191 45.4161 241.346 46.0129C241.585 46.8841 242.027 47.5166 242.648 47.9104C242.72 47.9582 242.755 48.0059 242.755 48.0417C242.755 48.0894 242.72 48.1014 242.636 48.0894C242.122 48.0656 241.633 48.0536 241.179 48.0536C240.868 48.0536 240.581 48.0536 240.33 48.0536C240.08 48.0536 239.805 48.0536 239.494 48.0536C239.447 48.0536 239.423 48.0536 239.423 48.0298C239.423 48.0059 239.458 47.9701 239.53 47.8985C240.044 47.4331 240.402 46.8602 240.581 46.1919C240.665 45.8696 240.701 45.5235 240.713 45.1297C240.737 44.4017 240.749 43.9124 240.749 43.6498C240.749 43.0531 240.737 42.5638 240.713 42.1819C240.271 41.6807 239.912 41.3346 239.65 41.1197C239.494 40.9885 239.267 40.8333 238.969 40.6424L238.945 40.6185C238.945 40.6185 239.028 40.5588 239.172 40.5708C240.354 40.6066 241.047 40.6185 241.274 40.6185C241.848 40.6185 242.493 40.5946 243.233 40.5469L243.209 40.5588ZM249.158 40.3321C249.481 40.3321 249.743 40.4872 249.958 40.7975C250.078 40.9646 250.126 41.1555 250.126 41.3704C250.126 41.7761 249.982 42.1461 249.708 42.4683C249.54 42.6712 249.289 42.8264 248.967 42.9338C248.883 42.9338 248.848 42.886 248.848 42.7906C249.003 42.6951 249.182 42.5757 249.349 42.4325C249.409 42.3729 249.445 42.2893 249.445 42.1938C249.385 42.17 249.278 42.158 249.11 42.158C249.039 42.158 248.967 42.158 248.919 42.1342C248.465 41.979 248.238 41.6926 248.238 41.2749C248.238 41.0004 248.322 40.7736 248.489 40.5946C248.656 40.4156 248.871 40.3201 249.146 40.3201L249.158 40.3321ZM257.448 40.5946C257.448 40.5946 257.532 40.523 257.556 40.523C257.591 40.523 257.603 40.5588 257.603 40.6185V41.251C257.603 41.3226 257.603 41.4897 257.603 41.7642C257.603 42.1461 257.615 42.5161 257.651 42.886C257.532 42.8025 257.4 42.6832 257.257 42.528C257.03 42.2774 256.911 42.1461 256.899 42.1342C256.337 41.5733 255.74 41.2033 255.131 41.0481C254.928 40.9765 254.701 40.9527 254.45 40.9527C253.876 40.9527 253.399 41.1317 253.016 41.4778C252.837 41.6329 252.742 41.8 252.73 41.979C252.694 42.1342 252.67 42.2654 252.67 42.3371C252.67 42.5638 252.742 42.7428 252.873 42.886C253.04 43.1128 253.327 43.2321 253.721 43.2321C253.769 43.2321 253.9 43.2321 254.115 43.2083C254.211 43.2083 254.522 43.1605 255.059 43.077C255.453 43.0173 255.776 42.9815 256.003 42.9815C256.409 42.9815 256.731 43.0651 256.994 43.2321C257.114 43.3037 257.245 43.4112 257.388 43.5782C257.783 44.0317 257.974 44.6046 257.974 45.2849C257.974 45.6906 257.902 46.0487 257.759 46.3351C257.568 46.7767 257.257 47.1586 256.851 47.4689C256.636 47.6359 256.421 47.7553 256.206 47.8269C256.17 47.8269 256.122 47.8508 256.062 47.8627C256.003 47.8746 255.919 47.8985 255.8 47.9343C255.68 47.9701 255.585 47.994 255.501 48.0059C255.358 48.0417 255.167 48.0656 254.94 48.0656C254.713 48.0656 254.45 48.0417 254.139 47.994C253.661 47.9224 253.399 47.8866 253.351 47.8746C253.243 47.8746 253.088 47.8746 252.897 47.8746C252.455 47.8746 252.073 47.9701 251.762 48.1491C251.69 48.1491 251.655 48.1491 251.655 48.1253C251.679 47.7672 251.69 47.3256 251.69 46.8005C251.69 46.3948 251.69 45.989 251.655 45.5952C251.655 45.5952 251.69 45.5952 251.738 45.5952C252.204 46.2396 252.694 46.7409 253.219 47.1108C253.829 47.5285 254.462 47.7433 255.119 47.7433C255.632 47.7433 256.039 47.624 256.349 47.3853C256.54 47.2421 256.66 47.0631 256.731 46.8721C256.767 46.7886 256.779 46.6693 256.779 46.538C256.779 46.2873 256.719 46.0725 256.6 45.9054C256.421 45.619 256.062 45.4758 255.525 45.4877C255.382 45.4877 255.047 45.5355 254.522 45.631C254.008 45.7384 253.626 45.7861 253.363 45.7861C252.778 45.7861 252.336 45.6071 252.025 45.2371C251.69 44.8433 251.523 44.3062 251.523 43.626C251.523 43.256 251.595 42.886 251.726 42.4922C251.858 42.1342 252.025 41.8358 252.228 41.621C252.718 41.0959 253.315 40.8095 254.02 40.7498C254.151 40.7259 254.295 40.714 254.474 40.714C254.653 40.714 254.964 40.7378 255.405 40.7975C255.847 40.8453 256.158 40.8811 256.337 40.8811C256.767 40.8811 257.126 40.7975 257.424 40.6304L257.448 40.5946ZM211.112 52.35C211.112 52.35 211.196 52.2784 211.22 52.2784C211.256 52.2784 211.267 52.3142 211.267 52.3739V53.0064C211.267 53.078 211.267 53.2451 211.267 53.5196C211.267 53.9015 211.279 54.2715 211.315 54.6414C211.196 54.5579 211.064 54.4386 210.921 54.2834C210.694 54.0328 210.575 53.9015 210.563 53.8896C210.001 53.3287 209.404 52.9587 208.795 52.8035C208.592 52.7319 208.365 52.7081 208.114 52.7081C207.541 52.7081 207.063 52.8871 206.68 53.2332C206.501 53.3883 206.406 53.5554 206.394 53.7344C206.358 53.8896 206.334 54.0209 206.334 54.0925C206.334 54.3192 206.406 54.4982 206.537 54.6414C206.704 54.8682 206.991 54.9875 207.385 54.9875C207.433 54.9875 207.564 54.9875 207.779 54.9637C207.875 54.9637 208.186 54.9159 208.723 54.8324C209.117 54.7727 209.44 54.7369 209.667 54.7369C210.073 54.7369 210.395 54.8205 210.658 54.9875C210.778 55.0592 210.909 55.1666 211.052 55.3336C211.447 55.7871 211.638 56.36 211.638 57.0403C211.638 57.446 211.566 57.8041 211.423 58.0905C211.232 58.5321 210.921 58.914 210.515 59.2243C210.3 59.3913 210.085 59.5107 209.87 59.5823C209.834 59.5823 209.786 59.6062 209.727 59.6181C209.667 59.63 209.583 59.6539 209.464 59.6897C209.344 59.7255 209.249 59.7494 209.165 59.7613C209.022 59.7971 208.831 59.821 208.604 59.821C208.377 59.821 208.114 59.7971 207.803 59.7494C207.326 59.6778 207.063 59.642 207.015 59.63C206.907 59.63 206.752 59.63 206.561 59.63C206.119 59.63 205.737 59.7255 205.426 59.9045C205.355 59.9045 205.319 59.9045 205.319 59.8807C205.343 59.5226 205.355 59.0811 205.355 58.5559C205.355 58.1502 205.355 57.7444 205.319 57.3506C205.319 57.3506 205.355 57.3506 205.402 57.3506C205.868 57.995 206.358 58.4963 206.884 58.8662C207.493 59.2839 208.126 59.4988 208.783 59.4988C209.297 59.4988 209.703 59.3794 210.013 59.1407C210.204 58.9975 210.324 58.8185 210.395 58.6275C210.431 58.544 210.443 58.4247 210.443 58.2934C210.443 58.0428 210.384 57.8279 210.264 57.6609C210.085 57.3744 209.727 57.2312 209.189 57.2431C209.046 57.2431 208.711 57.2909 208.186 57.3864C207.672 57.4938 207.29 57.5415 207.027 57.5415C206.442 57.5415 206 57.3625 205.689 56.9925C205.355 56.5987 205.187 56.0616 205.187 55.3814C205.187 55.0114 205.259 54.6414 205.39 54.2476C205.522 53.8896 205.689 53.5912 205.892 53.3764C206.382 52.8513 206.979 52.5649 207.684 52.5052C207.815 52.4813 207.959 52.4694 208.138 52.4694C208.317 52.4694 208.628 52.4933 209.07 52.5529C209.512 52.6007 209.822 52.6365 210.001 52.6365C210.431 52.6365 210.79 52.5529 211.088 52.3858L211.112 52.35ZM217.443 52.3262H220.943C220.883 52.3739 220.74 52.4455 220.525 52.5529C220.31 52.6484 220.167 52.7319 220.107 52.7797C219.665 53.0184 219.128 53.4241 218.494 54.0209L217.682 54.7727C217.491 54.9637 217.264 55.1546 217.013 55.3575C217.013 55.4291 217.049 55.4649 217.109 55.4649C217.73 55.3575 218.184 55.2978 218.482 55.2978C218.948 55.2978 219.331 55.4052 219.617 55.5962C219.796 55.7155 219.94 55.8707 220.035 56.0497C220.167 56.2645 220.226 56.551 220.226 56.9209C220.226 57.088 220.203 57.3386 220.167 57.6609C220.131 58.0308 220.119 58.2814 220.119 58.4008C220.119 58.5201 220.119 58.6514 220.155 58.7827L220.191 58.8782C220.226 58.9617 220.274 58.9975 220.346 59.0094C220.489 59.0094 220.621 58.9378 220.74 58.7827C220.764 58.7469 220.812 58.5679 220.872 58.2456C220.895 58.1621 220.931 58.0905 220.979 58.0189C221.075 58.0189 221.134 58.0547 221.134 58.1263C221.134 58.8424 220.86 59.3675 220.298 59.7136C220 59.9045 219.641 60 219.199 60C218.829 60 218.506 59.9165 218.232 59.7732C217.837 59.4988 217.646 59.0691 217.646 58.4843C217.646 58.3053 217.658 58.0786 217.682 57.816C217.706 57.5534 217.718 57.3148 217.718 57.1357C217.718 56.7777 217.658 56.4793 217.539 56.2526C217.36 55.9781 217.073 55.8468 216.691 55.8468C216.667 55.8468 216.583 55.8468 216.452 55.8707C216.392 55.8707 216.296 55.8946 216.177 55.9304C216.153 55.9304 216.129 55.9662 216.105 56.0258C216.117 56.6226 216.141 57.2909 216.177 58.0189C216.237 58.6872 216.428 59.2362 216.762 59.6658C216.798 59.7136 216.81 59.7494 216.81 59.7613L216.774 59.7852C216.774 59.7852 216.738 59.8091 216.738 59.821C215.962 59.7971 215.305 59.7852 214.767 59.7852C214.23 59.7852 213.609 59.7971 212.785 59.821C212.785 59.821 212.785 59.809 212.796 59.7852C212.796 59.7732 212.82 59.7494 212.832 59.7255C212.844 59.7016 212.856 59.6778 212.868 59.6539C213.286 59.1169 213.489 58.0666 213.489 56.5032V55.8468C213.489 55.7633 213.489 55.5843 213.489 55.2978C213.489 54.9279 213.465 54.4147 213.418 53.7822C213.334 53.2929 213.167 52.8632 212.916 52.4813C212.88 52.4336 212.868 52.4097 212.868 52.3858C212.868 52.35 212.904 52.3262 212.964 52.3381C213.788 52.362 214.361 52.3739 214.696 52.3739H215.699C215.771 52.362 215.962 52.35 216.285 52.35C216.368 52.35 216.416 52.362 216.416 52.4097L216.368 52.5291C216.177 52.8752 216.07 53.4599 216.07 54.2715V54.8205C216.07 54.9875 216.07 55.1785 216.07 55.3814C216.07 55.4172 216.105 55.4411 216.165 55.4411C216.691 55.2501 217.097 54.9517 217.395 54.546C217.67 54.1641 217.814 53.7583 217.814 53.3287C217.814 53.1377 217.778 52.9468 217.694 52.7677C217.61 52.6723 217.515 52.5171 217.407 52.3142L217.443 52.3262ZM225.829 52.3262C225.829 52.3262 225.877 52.3262 225.877 52.362C225.877 52.3978 225.853 52.4455 225.793 52.5052C225.554 52.7558 225.435 53.1854 225.435 53.7941V58.2456C225.435 58.5798 225.53 58.914 225.709 59.2601C225.757 59.3675 225.901 59.5346 226.127 59.7971C225.291 59.7613 224.646 59.7374 224.204 59.7374C223.643 59.7374 223.01 59.7613 222.305 59.7971C222.305 59.7374 222.365 59.6778 222.484 59.5823C222.735 59.3555 222.866 58.9856 222.866 58.4485V53.8538C222.866 53.5196 222.843 53.2809 222.795 53.1377C222.735 52.9468 222.616 52.7439 222.412 52.541C222.341 52.4694 222.317 52.4216 222.317 52.3858C222.317 52.362 222.317 52.3381 222.353 52.3262C223.177 52.362 223.762 52.3739 224.121 52.3739C224.61 52.3739 225.172 52.35 225.829 52.3023V52.3262ZM231.455 52.3262C231.634 52.3262 231.73 52.3381 231.73 52.3978C231.706 52.4694 231.694 52.5649 231.694 52.6961C231.706 52.9468 231.778 53.1616 231.897 53.3287C231.993 53.4719 232.232 53.7822 232.602 54.2595C232.972 54.725 233.474 55.3217 234.119 56.0497C234.203 56.1332 234.262 56.181 234.322 56.181C234.37 56.181 234.394 56.1452 234.394 56.0736C234.394 55.095 234.346 54.3908 234.262 53.9612C234.131 53.269 233.844 52.7797 233.402 52.4933C233.319 52.4336 233.283 52.3858 233.283 52.362C233.283 52.3381 233.354 52.3262 233.51 52.3262H235.576C235.66 52.3262 235.708 52.3262 235.708 52.35C235.708 52.3739 235.672 52.4216 235.6 52.4694C235.17 52.7916 234.895 53.3883 234.788 54.2476C234.74 54.6056 234.716 55.0233 234.716 55.5127C234.716 55.5843 234.716 55.8468 234.74 56.3242L234.776 57.2431C234.788 57.4818 234.8 57.8518 234.812 58.3292L234.836 58.8304C234.86 59.2601 234.871 59.5584 234.871 59.7494C234.871 59.809 234.8 59.8449 234.656 59.8449H234.203C233.856 59.8449 233.665 59.821 233.629 59.7613C233.187 59.093 232.602 58.3053 231.861 57.3744C231.037 56.3242 230.273 55.4172 229.556 54.6534C229.52 54.6176 229.484 54.6056 229.448 54.6056C229.389 54.6056 229.365 54.6295 229.353 54.6653C229.353 54.7847 229.353 55.0353 229.353 55.4291C229.353 56.4077 229.436 57.1835 229.592 57.7802C229.831 58.6514 230.273 59.2839 230.894 59.6778C230.965 59.7255 231.001 59.7732 231.001 59.809C231.001 59.8568 230.965 59.8687 230.882 59.8568C230.368 59.8329 229.878 59.821 229.424 59.821C229.114 59.821 228.827 59.821 228.576 59.821C228.325 59.821 228.051 59.821 227.74 59.821C227.692 59.821 227.668 59.821 227.668 59.7971C227.668 59.7732 227.704 59.7374 227.776 59.6658C228.29 59.2004 228.648 58.6275 228.827 57.9592C228.911 57.637 228.947 57.2909 228.959 56.8971C228.982 56.1691 228.994 55.6797 228.994 55.4172C228.994 54.8205 228.982 54.3312 228.959 53.9492C228.517 53.448 228.158 53.1019 227.895 52.8871C227.74 52.7558 227.513 52.6007 227.215 52.4097L227.191 52.3858C227.191 52.3858 227.274 52.3262 227.418 52.3381C228.6 52.3739 229.293 52.3858 229.52 52.3858C230.093 52.3858 230.738 52.362 231.479 52.3142L231.455 52.3262ZM245.467 52.3262C245.551 52.3262 245.586 52.3858 245.586 52.5052V52.9945V53.5673C245.586 53.8657 245.586 54.1521 245.551 54.4386C245.479 54.2595 245.359 54.0209 245.192 53.7464C244.738 53.0661 244.201 52.72 243.556 52.72C243.078 52.7797 242.755 52.9706 242.576 53.3167C242.505 53.5196 242.445 53.7583 242.409 54.0209C242.409 54.0567 242.409 54.0925 242.409 54.1402C242.409 54.1879 242.397 54.2357 242.385 54.2953C242.385 54.355 242.373 54.4028 242.361 54.4505V56.1213C242.337 56.8612 242.361 57.4699 242.409 57.9592C242.528 58.4127 242.684 58.7469 242.851 58.9617C242.958 59.093 243.114 59.2004 243.305 59.2839C243.496 59.3675 243.687 59.4152 243.89 59.4152C244.332 59.4152 244.726 59.272 245.061 58.9975C245.24 58.8066 245.455 58.5201 245.706 58.1382L245.766 58.1144C245.766 58.1144 245.849 58.1502 245.849 58.2337C245.73 58.6156 245.491 58.9498 245.133 59.2362C244.774 59.5226 244.392 59.6897 243.998 59.7613C243.687 59.8091 243.412 59.8449 243.162 59.8449C241.907 59.8449 240.928 59.3317 240.235 58.2934C239.972 57.8876 239.793 57.4341 239.697 56.9329C239.662 56.6822 239.638 56.4316 239.638 56.181C239.638 55.4649 239.793 54.8085 240.092 54.1999C240.557 53.3048 241.298 52.7439 242.325 52.5052C242.66 52.4336 242.982 52.3978 243.329 52.3978C243.508 52.3978 243.663 52.3978 243.807 52.4336C244.177 52.4694 244.464 52.4933 244.679 52.4933C244.989 52.4933 245.252 52.4455 245.479 52.3381L245.467 52.3262ZM248.585 52.3262C249.254 52.35 249.803 52.35 250.233 52.35C250.544 52.35 250.962 52.35 251.487 52.3262C251.619 52.3262 251.714 52.3262 251.75 52.3739C251.786 52.4097 251.822 52.5052 251.846 52.6365L251.941 53.0303C252.204 53.7941 252.539 54.7847 252.933 56.002C253.327 57.1954 253.626 58.0428 253.817 58.5321C253.936 58.8304 254.056 59.081 254.175 59.272C254.235 59.3555 254.318 59.4629 254.438 59.5942L254.533 59.6658C254.533 59.6658 254.617 59.7494 254.617 59.7613C254.617 59.7852 254.557 59.7971 254.438 59.7971C253.817 59.7732 253.196 59.7613 252.562 59.7613C251.882 59.7613 251.26 59.7732 250.699 59.7971C250.675 59.7971 250.663 59.7971 250.663 59.7613C250.663 59.7494 250.663 59.7374 250.663 59.7255C250.95 59.5226 251.081 59.2362 251.081 58.8782C251.081 58.5917 250.95 58.1263 250.675 57.4818C250.544 57.1357 250.46 56.9448 250.448 56.8851C250.4 56.8016 250.353 56.7538 250.293 56.7538H248.883C248.704 56.7538 248.609 56.9687 248.609 57.4102V57.7205C248.609 58.0428 248.632 58.2934 248.68 58.4605C248.716 58.6156 248.812 58.8543 248.955 59.1407C249.074 59.3913 249.242 59.5942 249.457 59.7732C248.955 59.7494 248.394 59.7374 247.784 59.7374C247.175 59.7374 246.614 59.7374 246.064 59.7732C246.028 59.7613 246.005 59.7494 246.005 59.7374C246.005 59.7136 246.052 59.6658 246.136 59.6062C246.506 59.3794 246.865 59.0811 247.187 58.7111C247.689 58.1024 248.107 57.3625 248.441 56.4793C249.063 54.6892 249.373 53.7702 249.385 53.7225C249.385 53.5435 249.301 53.3287 249.134 53.078C248.991 52.8513 248.836 52.6723 248.668 52.5291C248.549 52.4336 248.501 52.362 248.501 52.3023C248.501 52.2784 248.525 52.2665 248.573 52.2665L248.585 52.3262ZM249.767 54.725C249.696 54.546 249.636 54.4505 249.588 54.4505C249.54 54.4505 249.493 54.5102 249.433 54.6176C249.433 54.6176 249.433 54.6414 249.421 54.6772C249.421 54.7131 249.397 54.7369 249.397 54.7489C249.373 54.8205 249.325 54.9875 249.23 55.262C249.134 55.5365 249.051 55.7752 248.991 55.9781C248.955 56.0855 248.931 56.181 248.931 56.2645C248.931 56.3958 248.979 56.4674 249.086 56.4674H250.138C250.257 56.4674 250.317 56.4077 250.317 56.2884C250.317 56.2645 250.317 56.2526 250.317 56.2287C250.317 56.2049 250.293 56.1571 250.269 56.0736C250.245 56.002 250.209 55.8946 250.161 55.7633C250.114 55.632 250.078 55.5007 250.03 55.3814C249.97 55.2143 249.887 54.9875 249.791 54.7131L249.767 54.725ZM261.354 52.3142C261.701 52.3142 262.023 52.362 262.31 52.4933C262.788 52.72 263.027 53.2212 263.027 53.997C263.027 54.2476 262.991 54.4505 262.907 54.6056C262.752 54.8324 262.561 54.9995 262.346 55.1069C261.904 55.2859 261.653 55.3933 261.593 55.4172C261.533 55.4411 261.498 55.4649 261.498 55.4888C261.498 55.5127 261.557 55.5365 261.677 55.5604C262.19 55.6439 262.573 55.8707 262.812 56.2526C262.907 56.4913 262.955 56.7658 262.955 57.0522C262.955 57.2193 262.931 57.4938 262.871 57.9115C262.824 58.2576 262.8 58.544 262.8 58.7708C262.8 58.9378 262.847 59.0333 262.955 59.0572C263.086 59.0572 263.182 58.9736 263.254 58.8066C263.301 58.7588 263.349 58.6395 263.385 58.4843C263.433 58.2695 263.469 58.1502 263.481 58.1263C263.516 58.0905 263.564 58.0666 263.6 58.0666C263.624 58.0666 263.648 58.0666 263.648 58.0666C263.707 58.1263 263.731 58.2098 263.731 58.3292C263.731 58.4366 263.719 58.544 263.696 58.6395C263.624 58.9259 263.481 59.1885 263.266 59.4271C263.039 59.6658 262.776 59.809 262.501 59.8568C262.214 59.9045 261.975 59.9403 261.76 59.9403C261.247 59.9403 260.853 59.7971 260.578 59.4988C260.423 59.2959 260.339 59.0214 260.339 58.6872C260.339 58.5559 260.351 58.353 260.387 58.0786C260.399 57.9831 260.411 57.8876 260.423 57.7921C260.423 57.6967 260.446 57.625 260.446 57.5773C260.446 57.5296 260.446 57.4938 260.446 57.4699C260.446 57.3864 260.446 57.2431 260.446 57.0522C260.446 56.5748 260.303 56.2526 260.028 56.0855C259.873 56.002 259.682 55.9542 259.443 55.9542C259.3 55.9542 259.18 55.9662 259.097 55.99C259.001 56.0616 258.941 56.1332 258.941 56.2168V56.8374C258.941 56.8971 258.941 56.9567 258.941 57.0164C258.941 57.0761 258.941 57.1238 258.941 57.1596V57.4699C258.941 58.4724 259.073 59.1765 259.336 59.5704C259.336 59.5704 259.347 59.6062 259.359 59.63C259.359 59.642 259.383 59.6658 259.395 59.6778C259.395 59.6778 259.395 59.7016 259.395 59.7374C259.395 59.7732 259.359 59.7852 259.3 59.7852C258.237 59.7255 257.627 59.7016 257.472 59.7016C257.018 59.7016 256.445 59.7255 255.752 59.7732C255.656 59.7732 255.597 59.7732 255.597 59.7374C255.597 59.7016 255.621 59.6658 255.668 59.6181C256.17 59.1049 256.421 58.3292 256.421 57.3148C256.421 57.267 256.421 57.0283 256.397 56.5987C256.385 56.1571 256.373 55.9065 256.373 55.8588C256.373 55.7991 256.373 55.7394 256.373 55.6678C256.373 55.5962 256.373 55.5007 256.373 55.3814C256.373 55.0233 256.373 54.6534 256.337 54.2953C256.289 53.6509 256.074 53.1138 255.728 52.6723C255.692 52.6245 255.668 52.5768 255.668 52.5291C255.668 52.4932 255.752 52.4694 255.895 52.4694C256.361 52.5052 256.851 52.5291 257.376 52.5291C257.962 52.5291 258.595 52.5052 259.264 52.4574C259.3 52.4574 259.455 52.4574 259.694 52.4216C259.933 52.3858 260.148 52.3858 260.315 52.3739C260.399 52.362 260.721 52.3381 261.295 52.2904L261.354 52.3142ZM260.016 52.911C259.885 52.8393 259.718 52.8155 259.491 52.8155C259.347 52.8155 259.204 52.899 259.073 53.0542C258.941 53.1974 258.882 53.3525 258.882 53.4957C258.882 53.8776 258.882 54.1999 258.882 54.4744C258.882 54.7847 258.882 55.1188 258.882 55.4649C258.882 55.6081 258.953 55.6917 259.109 55.6917C259.324 55.6917 259.646 55.5246 260.088 55.2024C260.363 54.9995 260.494 54.6295 260.494 54.0925C260.494 53.8776 260.458 53.6628 260.375 53.4361C260.279 53.1735 260.148 53.0064 259.993 52.9229L260.016 52.911ZM264.926 52.3381C265.296 52.3381 265.774 52.3381 266.371 52.3739C267.076 52.3978 267.685 52.4097 268.223 52.4097C269.19 52.4097 270.182 52.3858 271.185 52.3381V53.0184C271.185 53.2809 271.197 53.5196 271.209 53.7225C271.209 53.9254 271.209 54.1641 271.209 54.4266C271.209 54.4505 271.209 54.4624 271.173 54.4624C271.137 54.4624 271.078 54.367 270.946 54.1641C270.911 54.1044 270.863 54.0447 270.815 53.9851C270.767 53.9254 270.743 53.8776 270.719 53.8538C270.696 53.8299 270.684 53.806 270.684 53.806C270.027 53.09 269.382 52.7319 268.772 52.7319C268.677 52.7319 268.581 52.7319 268.474 52.7677C268.33 52.911 268.259 53.1735 268.247 53.5673C268.247 53.8299 268.247 54.2357 268.247 54.7966C268.247 55.4649 268.283 55.7991 268.366 55.7991C268.82 55.7991 269.274 55.5962 269.728 55.1904C269.907 55.0353 270.086 54.8443 270.277 54.6056C270.301 54.6056 270.313 55.1427 270.313 56.2287V57.1954C270.086 56.8851 269.812 56.6345 269.465 56.4555C269.119 56.2765 268.76 56.181 268.378 56.181C268.295 56.1929 268.259 56.6345 268.259 57.5057C268.259 58.1382 268.295 58.6872 268.366 59.1288C268.402 59.3078 268.533 59.4033 268.76 59.3913H269.238C269.883 59.3555 270.48 58.9736 271.03 58.2576C271.233 57.9831 271.472 57.637 271.711 57.2193C271.711 57.4699 271.711 57.7086 271.711 57.9115C271.711 58.1144 271.711 58.3531 271.711 58.6037C271.711 58.8901 271.711 59.2959 271.735 59.821L270.003 59.7852H268.593C267.387 59.7852 266.204 59.809 265.033 59.8687C264.974 59.8568 264.95 59.8329 264.95 59.809C264.95 59.7852 264.962 59.7374 264.986 59.6897C265.475 59.1169 265.714 58.2456 265.714 57.0641V56.5032V56.2765V55.1785C265.714 54.3073 265.667 53.7106 265.571 53.3645C265.487 53.078 265.284 52.7319 264.95 52.3381H264.926ZM204.901 18.3966C205.104 18.325 205.223 18.3011 205.235 18.3489C205.247 18.3966 205.235 18.4563 205.187 18.5518C204.698 19.602 204.363 21.058 204.172 22.8959C204.076 23.8148 204.017 24.6622 203.981 25.4379L203.873 27.6458C203.754 29.5792 203.73 31.4171 203.826 33.1476C203.897 34.6752 203.945 35.5702 203.969 35.8328C203.993 36.0118 203.969 36.1312 203.945 36.1789C203.909 36.2266 203.802 36.2863 203.622 36.3579L201.89 36.9785C201.305 37.1933 200.768 37.3843 200.29 37.5752C200.111 37.6349 199.943 37.5872 199.812 37.4201C198.235 35.3912 196.228 33.0282 193.791 30.3191C193.684 30.1878 193.35 29.8178 192.788 29.1973C192.227 28.5767 191.809 28.1112 191.51 27.7651C190.554 26.7388 189.73 25.963 189.025 25.4499C188.966 25.3902 188.715 25.2589 188.297 25.056C187.902 24.8412 187.699 24.7099 187.687 24.686C187.652 24.6025 187.783 24.5309 188.07 24.4474C188.703 24.2325 189.646 23.8984 190.913 23.4449C192.728 22.8004 194.257 22.2156 195.524 21.7024C195.547 21.774 195.524 22.0247 195.464 22.4543C195.416 22.5975 195.416 22.7049 195.44 22.7885C195.44 22.9794 195.5 23.23 195.619 23.5523C195.774 23.97 195.989 24.3638 196.276 24.7338C196.396 24.8651 196.623 25.1038 196.933 25.4379C197.244 25.7721 197.483 26.0466 197.638 26.2256L199.131 27.8367C200.134 28.9228 200.72 29.5553 200.899 29.7462L202.416 31.3455C202.524 31.4648 202.631 31.5006 202.739 31.4648C202.834 31.429 202.894 31.3574 202.894 31.238C203.001 30.4146 203.073 29.3643 203.085 28.1112C203.109 26.2137 202.942 24.7696 202.583 23.7671C202.332 23.063 201.974 22.4543 201.508 21.965C201.018 21.416 200.385 20.9744 199.645 20.6283C199.489 20.5567 199.406 20.4971 199.382 20.4374C199.37 20.3897 199.382 20.3658 199.442 20.3419L204.877 18.3966H204.901ZM211.064 17.227C212.522 17.0003 213.728 16.8093 214.66 16.6423C215.329 16.5229 216.225 16.332 217.36 16.0813C217.646 16.0097 217.837 16.0097 217.945 16.0813C218.052 16.141 218.16 16.32 218.267 16.6184L218.614 17.4299C219.486 18.9814 220.585 20.9983 221.935 23.4687C223.261 25.9034 224.24 27.61 224.861 28.5886C225.22 29.1853 225.59 29.6746 225.936 30.0565C226.104 30.2236 226.331 30.4265 226.629 30.6533L226.88 30.7607C227.011 30.8561 227.095 30.9158 227.095 30.9516C227.095 31.0113 226.976 31.059 226.713 31.1068C225.363 31.2977 224.001 31.5125 222.639 31.7632C221.17 32.0257 219.832 32.3002 218.614 32.5866C218.566 32.5866 218.542 32.5866 218.542 32.5389C218.542 32.515 218.542 32.4912 218.542 32.4673C219.08 31.9183 219.271 31.25 219.128 30.4623C219.02 29.8537 218.542 28.8989 217.706 27.61C217.276 26.9178 217.037 26.5239 216.965 26.4165C216.834 26.2495 216.703 26.1779 216.583 26.1898L213.525 26.7507C213.131 26.8223 213.023 27.3355 213.191 28.2783L213.31 28.9586C213.442 29.6508 213.585 30.1759 213.752 30.522C213.907 30.8561 214.194 31.3097 214.612 31.8944C214.971 32.3838 215.424 32.7776 215.95 33.064C214.851 33.2192 213.633 33.422 212.319 33.6607C211.041 33.8994 209.798 34.1381 208.592 34.4126C208.496 34.4007 208.448 34.3887 208.448 34.3649C208.448 34.3052 208.52 34.1978 208.675 34.0307C209.404 33.3982 210.037 32.6224 210.587 31.6796C211.435 30.152 212.044 28.3857 212.414 26.3688C213.047 22.2395 213.37 20.1271 213.382 20.0436C213.31 19.6497 213.047 19.2201 212.581 18.7427C212.175 18.325 211.769 17.9908 211.363 17.7522C211.076 17.597 210.921 17.4538 210.909 17.3464C210.909 17.2867 210.945 17.2509 211.041 17.227H211.064ZM214.564 21.9531C214.349 21.5831 214.182 21.416 214.063 21.4399C213.955 21.4638 213.872 21.607 213.8 21.8695C213.8 21.8815 213.8 21.9292 213.8 22.0008C213.8 22.0724 213.776 22.1321 213.776 22.1798C213.764 22.335 213.704 22.7288 213.609 23.3613C213.513 23.9939 213.43 24.5428 213.37 25.0083C213.322 25.2589 213.322 25.4737 213.358 25.6647C213.406 25.9511 213.549 26.0824 213.764 26.0466L216.034 25.6289C216.296 25.5811 216.404 25.426 216.356 25.1634C216.356 25.1157 216.332 25.0799 216.308 25.0321C216.285 24.9725 216.225 24.877 216.141 24.7219C216.058 24.5667 215.938 24.3638 215.795 24.1013C215.651 23.8387 215.508 23.5761 215.365 23.3136C215.174 22.9794 214.911 22.5259 214.576 21.965L214.564 21.9531ZM241.394 14.3747C242.158 14.3508 242.863 14.4821 243.508 14.7566C244.559 15.234 245.097 16.332 245.121 18.0505C245.121 18.5995 245.037 19.053 244.87 19.411C244.535 19.9123 244.129 20.2942 243.639 20.5329C242.672 20.9386 242.11 21.1773 241.979 21.237C241.848 21.2847 241.776 21.3325 241.776 21.3921C241.776 21.4518 241.907 21.4996 242.182 21.5473C243.329 21.7144 244.165 22.2156 244.702 23.051C244.917 23.5761 245.025 24.1609 245.025 24.8054C245.025 25.1634 244.977 25.784 244.87 26.691C244.774 27.4668 244.726 28.0874 244.738 28.5767C244.738 28.9466 244.858 29.1615 245.073 29.2211C245.359 29.2211 245.563 29.0302 245.706 28.6602C245.813 28.5409 245.897 28.3022 245.993 27.9441C246.1 27.4668 246.172 27.2042 246.208 27.1684C246.291 27.0849 246.387 27.0371 246.47 27.0371C246.53 27.0371 246.566 27.0371 246.578 27.061C246.697 27.1803 246.757 27.3713 246.757 27.6339C246.757 27.8725 246.733 28.0993 246.673 28.326C246.53 28.9466 246.22 29.5314 245.742 30.0685C245.24 30.6055 244.691 30.9278 244.069 31.0352C243.448 31.1545 242.899 31.2261 242.433 31.2261C241.31 31.2261 240.438 30.9158 239.829 30.2714C239.47 29.8179 239.291 29.2211 239.279 28.4812C239.279 28.1828 239.303 27.7413 239.375 27.1445C239.399 26.9417 239.423 26.7268 239.447 26.5239C239.47 26.3211 239.482 26.154 239.494 26.0466C239.506 25.9392 239.518 25.8556 239.518 25.8079C239.53 25.6169 239.53 25.3066 239.53 24.9009C239.53 23.8506 239.208 23.1465 238.575 22.7765C238.228 22.5856 237.798 22.4901 237.284 22.5021C236.962 22.5021 236.711 22.5379 236.532 22.5975C236.317 22.7646 236.197 22.9198 236.209 23.0868V23.8148L236.221 24.4354C236.221 24.5667 236.221 24.698 236.221 24.8293C236.221 24.9605 236.221 25.0679 236.221 25.1515C236.221 25.235 236.221 25.3305 236.221 25.4021C236.221 25.4857 236.221 25.5453 236.221 25.605C236.221 25.6527 236.221 25.7005 236.221 25.7482C236.221 25.7959 236.221 25.8198 236.221 25.8318C236.245 28.0396 236.544 29.5792 237.129 30.4623L237.153 30.4862C237.153 30.4862 237.189 30.5458 237.213 30.5817C237.237 30.6175 237.261 30.6533 237.296 30.6771C237.308 30.6891 237.32 30.7368 237.32 30.8084C237.32 30.88 237.249 30.9158 237.117 30.9158C234.776 30.8203 233.438 30.7726 233.104 30.7726C232.112 30.7726 230.846 30.8442 229.305 30.9636C229.078 30.9755 228.97 30.9636 228.97 30.88C228.97 30.8084 229.018 30.7129 229.126 30.6175C230.225 29.4718 230.762 27.7651 230.738 25.5215C230.738 25.414 230.714 24.8889 230.679 23.9461C230.643 22.9675 230.619 22.4304 230.619 22.3111C230.619 22.1798 230.619 22.0366 230.643 21.8934C230.655 21.7263 230.667 21.5234 230.655 21.2728C230.655 20.4732 230.631 19.6736 230.559 18.874C230.428 17.4538 229.962 16.2723 229.174 15.3175C229.078 15.2101 229.042 15.1146 229.042 15.0072C229.054 14.9237 229.221 14.876 229.532 14.864C230.559 14.9476 231.646 14.9714 232.793 14.9595C234.095 14.9476 235.481 14.876 236.938 14.7685C237.022 14.7685 237.344 14.7447 237.894 14.6969C238.443 14.6492 238.897 14.6015 239.267 14.5776C239.447 14.5418 240.163 14.4821 241.418 14.3747H241.394ZM238.455 15.7114C238.168 15.5682 237.786 15.4965 237.296 15.4965C236.974 15.4965 236.663 15.6756 236.389 16.0336C236.114 16.3558 235.97 16.69 235.982 17.0122C235.982 17.8357 236.006 18.5518 236.03 19.1604C236.054 19.8407 236.066 20.5687 236.078 21.3325C236.078 21.6547 236.257 21.8218 236.592 21.8099C237.069 21.8099 237.774 21.4399 238.73 20.7C239.315 20.2464 239.602 19.4349 239.59 18.2534C239.59 17.776 239.494 17.2986 239.303 16.8213C239.076 16.2484 238.79 15.8665 238.443 15.6994L238.455 15.7114ZM263.325 17.4061C263.934 17.7999 264.52 18.2892 265.069 18.8621C265.547 19.3991 265.965 20.0674 266.3 20.8312C266.921 22.2037 267.088 23.7313 266.813 25.426C266.539 27.1207 265.905 28.5528 264.902 29.7224C263.934 30.88 262.764 31.6916 261.402 32.1451C260.088 32.5628 258.679 32.6463 257.173 32.4076C256.636 32.3241 256.098 32.1928 255.549 32.0138C254.151 31.5722 252.921 30.7726 251.846 29.615C250.735 28.4454 250.078 27.1445 249.875 25.7243C249.755 24.9725 249.779 24.0774 249.946 23.0391C250.388 20.2822 251.762 18.2534 254.044 16.9406C255.644 16.0217 257.544 15.7352 259.742 16.0933C261.139 16.32 262.334 16.7616 263.325 17.418V17.4061ZM259.682 16.7019C258.44 16.499 257.58 16.8929 257.078 17.8954C256.743 18.5398 256.528 19.1723 256.409 19.781C256.086 21.1773 255.836 22.4543 255.656 23.5881C255.501 24.5548 255.322 25.9153 255.131 27.6816C254.952 29.2211 255.19 30.3788 255.824 31.1426C256.158 31.4529 256.6 31.6438 257.126 31.7393C258.356 31.9422 259.192 31.5483 259.634 30.5697C259.897 29.973 260.112 29.2689 260.291 28.4693C260.614 26.9178 260.853 25.7124 260.996 24.8293C261.211 23.4807 261.39 22.0605 261.533 20.5567C261.593 19.9123 261.617 19.4468 261.617 19.1843C261.617 18.6711 261.521 18.2295 261.366 17.8357C261.091 17.2032 260.53 16.8213 259.682 16.69V16.7019ZM280.455 21.416C280.837 21.5354 281.004 21.6547 280.968 21.7621C280.873 21.8815 280.777 22.0843 280.682 22.3708C280.527 22.8959 280.503 23.3852 280.634 23.8387C280.73 24.2206 280.992 25.0321 281.41 26.2853C281.829 27.5145 282.438 29.1376 283.238 31.1306C283.346 31.3693 283.453 31.5125 283.561 31.5483C283.656 31.5841 283.74 31.5245 283.788 31.3693C284.504 29.3524 284.946 27.8606 285.09 26.882C285.34 25.3544 285.114 24.1251 284.409 23.1942C284.289 23.0033 284.23 22.8839 284.253 22.8362C284.277 22.7765 284.433 22.8123 284.743 22.9198L289.032 24.4474C289.211 24.507 289.294 24.5667 289.282 24.6025C289.259 24.6622 289.151 24.7099 288.96 24.7696C287.825 25.1157 286.822 26.142 285.95 27.8367C285.591 28.5409 285.233 29.3882 284.875 30.3907C284.827 30.5339 284.636 31.0948 284.325 32.0735L283.704 33.9949C283.549 34.5081 283.31 35.2599 282.963 36.2744L282.629 37.3365C282.354 38.2316 282.151 38.8641 282.008 39.258C281.96 39.3893 281.793 39.3893 281.506 39.2938L280.562 38.9596C279.858 38.709 279.475 38.5061 279.428 38.3629C278.998 36.6563 278.376 34.5677 277.54 32.1093C276.62 29.3166 275.701 26.87 274.769 24.7577C274.721 24.6622 274.661 24.6025 274.578 24.5667C274.47 24.5309 274.387 24.5428 274.339 24.6264C274.243 24.8531 274.04 25.3902 273.754 26.2017C273.037 28.2186 272.619 29.9014 272.511 31.25C272.368 33.2192 272.798 34.8542 273.801 36.1431C273.909 36.3102 273.957 36.4295 273.933 36.5011C273.897 36.5966 273.801 36.6085 273.646 36.5131C272.595 36.0715 271.591 35.6896 270.648 35.3435C269.991 35.1048 269.405 34.9138 268.88 34.7348C268.354 34.5677 267.781 34.3649 267.136 34.1381C267.04 34.1023 266.992 34.0665 267.004 34.0426C267.016 34.0188 267.124 33.9472 267.327 33.8517C268.748 33.255 269.895 32.336 270.767 31.0948C271.173 30.4862 271.52 29.782 271.818 28.9944C272.416 27.5145 272.81 26.5001 273.001 25.9511C273.443 24.7099 273.777 23.6836 274.004 22.872C273.455 21.5115 272.977 20.5209 272.595 19.9003C272.356 19.5184 272.009 19.0172 271.544 18.4205L271.52 18.3608C271.556 18.2653 271.723 18.2892 272.033 18.4324C274.446 19.3752 275.88 19.9242 276.346 20.0913C277.528 20.509 278.902 20.9506 280.455 21.3921V21.416ZM272.26 11.6656C272.069 11.1643 271.603 10.8421 271.078 10.8183C270.911 10.8183 270.743 10.8421 270.588 10.9018C269.035 11.4866 267.279 11.7491 265.225 11.6895C263.97 11.6537 262.585 11.4985 261.115 11.236C257.221 10.5199 254.354 9.30258 252.347 7.52435C252.121 7.32147 251.822 7.20212 251.511 7.19019C251.129 7.19019 250.759 7.34534 250.508 7.63176C250.03 8.16881 250.078 8.99229 250.615 9.46966C252.993 11.5821 256.278 12.9903 260.649 13.8019C262.25 14.1002 263.767 14.2673 265.153 14.3031C267.542 14.3628 269.62 14.0525 271.496 13.3483C271.818 13.229 272.081 12.9903 272.225 12.6681C272.368 12.3578 272.38 11.9998 272.26 11.6775V11.6656ZM261.426 9.21904C263.373 9.57707 265.284 9.66061 267.112 9.5174L267.231 9.54127V9.50547L267.697 4.58848C267.996 2.83412 266.813 1.13944 265.057 0.817207L260.888 0.053404C259.144 -0.268825 257.472 0.900748 257.173 2.65511L255.967 7.46468L256.015 7.48855C257.663 8.27622 259.491 8.87294 261.438 9.23097L261.426 9.21904Z" fill="white"/>
  </svg>
