<svg width="240" height="440" viewBox="0 0 240 440" fill="none" xmlns="http://www.w3.org/2000/svg">
<path d="M99.506 393.722C99.506 393.722 99.5907 393.722 99.6189 393.778C99.6189 393.835 99.5907 393.891 99.506 393.976C98.6595 394.85 98.1798 395.893 98.0669 397.048C98.0105 397.499 97.9823 398.148 97.9823 398.965V401.333C97.9823 401.897 97.9823 402.602 97.9823 403.504C97.9823 403.927 97.9823 404.66 98.0387 405.675C98.0952 406.718 98.1516 407.395 98.208 407.733C98.4338 409.283 99.111 410.496 100.211 411.369L100.099 411.482C97.4744 411.398 95.471 411.341 94.173 411.341C92.5082 411.341 91.0974 411.398 89.9123 411.482C90.138 411.285 90.5331 410.806 91.0974 410.073C91.6335 409.086 91.9157 408.212 91.9157 407.479C91.9157 404.66 91.8875 402.32 91.8028 400.403C91.8028 400.319 91.7182 400.29 91.5771 400.29C90.7588 401.644 89.9123 403.138 89.094 404.801C88.7836 405.393 88.3886 406.182 87.9089 407.169L87.0342 409.058C86.8084 409.537 86.5263 410.185 86.1877 410.975C85.9055 411.567 85.7362 411.905 85.7362 411.961C85.5387 411.651 85.3976 411.341 85.2565 411.031L84.7204 409.847C84.664 409.678 84.4947 409.34 84.2125 408.804C83.9021 408.212 83.4224 407.254 82.717 405.957C81.6166 403.983 80.4032 402.01 79.0488 400.065C79.0206 399.98 78.9642 399.924 78.9078 399.924C78.8231 399.924 78.7667 399.98 78.7384 400.121C78.7384 400.121 78.7384 400.149 78.7384 400.206C78.7384 400.431 78.7384 400.939 78.7384 401.644C78.7384 403.532 78.8795 405.139 79.1899 406.464C79.5285 408.015 80.1211 409.34 80.9676 410.496C81.278 410.806 81.7012 411.144 82.2655 411.51C82.2655 411.51 82.2655 411.51 82.2091 411.539C82.1527 411.567 82.1527 411.539 82.0963 411.539C82.068 411.539 82.0398 411.539 82.0116 411.567C80.9676 411.482 79.7825 411.454 78.3998 411.454H74.7881C76.0296 410.467 76.9044 409.114 77.384 407.395C77.7226 406.154 77.892 404.519 77.892 402.517C77.892 401.925 77.892 401.333 77.892 400.798V399.106C77.8637 398.909 77.8355 398.571 77.8355 398.12C77.2994 397.189 76.4247 396.146 75.1549 394.962C74.8163 394.624 74.4213 394.257 73.998 393.863H78.2023C80.4879 393.863 82.0962 393.835 82.9992 393.778C82.9992 393.778 82.9992 393.806 83.0556 393.835C83.0838 393.835 83.1121 393.863 83.1121 393.891C83.5353 395.329 84.3536 396.936 85.5387 398.712C85.5951 398.796 85.9902 399.416 86.7238 400.516C87.0906 401.023 87.6267 401.813 88.3604 402.884C88.3886 402.884 88.445 402.884 88.5015 402.94C88.5579 402.969 88.6143 403.025 88.6425 403.053L88.7272 403.109C88.7272 403.109 88.8683 403.081 88.9529 402.997C89.4044 402.264 90.0816 401.136 90.9563 399.642C91.5771 398.486 91.8875 397.387 91.8875 396.344C91.8875 395.977 91.8593 395.554 91.7746 395.131C91.7464 394.99 91.6335 394.793 91.436 394.455C91.2385 394.145 91.1256 393.919 91.0692 393.806H94.2859C94.5963 393.835 95.1888 393.863 96.0918 393.863C97.5873 393.863 98.7441 393.835 99.5907 393.75L99.506 393.722ZM103.09 393.806C103.964 393.806 105.093 393.806 106.504 393.891C108.169 393.947 109.608 393.976 110.877 393.976C113.163 393.976 115.505 393.919 117.875 393.806V395.413C117.875 396.034 117.903 396.597 117.932 397.077C117.932 397.556 117.932 398.12 117.932 398.74C117.932 398.796 117.932 398.824 117.847 398.824C117.762 398.824 117.621 398.599 117.311 398.12C117.226 397.979 117.113 397.838 117 397.697C116.888 397.556 116.831 397.443 116.775 397.387C116.718 397.33 116.69 397.274 116.69 397.274C115.138 395.582 113.614 394.737 112.175 394.737C111.95 394.737 111.724 394.737 111.47 394.821C111.131 395.16 110.962 395.78 110.934 396.71C110.934 397.33 110.934 398.289 110.934 399.614C110.934 401.192 111.018 401.982 111.216 401.982C112.288 401.982 113.36 401.503 114.433 400.544C114.856 400.178 115.279 399.727 115.731 399.163C115.787 399.163 115.815 400.431 115.815 402.997V405.28C115.279 404.547 114.63 403.955 113.812 403.532C112.994 403.109 112.147 402.884 111.244 402.884C111.047 402.912 110.962 403.955 110.962 406.013C110.962 407.507 111.047 408.804 111.216 409.847C111.301 410.27 111.611 410.496 112.147 410.467H113.276C114.8 410.383 116.21 409.481 117.508 407.789C117.988 407.141 118.552 406.323 119.117 405.337C119.117 405.929 119.117 406.492 119.117 406.972C119.117 407.451 119.117 408.015 119.117 408.607C119.117 409.283 119.117 410.242 119.173 411.482L115.082 411.398H111.752C108.902 411.398 106.109 411.454 103.343 411.595C103.202 411.567 103.146 411.51 103.146 411.454C103.146 411.398 103.174 411.285 103.231 411.172C104.388 409.819 104.952 407.761 104.952 404.97V403.645V403.109V400.516C104.952 398.458 104.839 397.048 104.613 396.231C104.416 395.554 103.936 394.737 103.146 393.806H103.09ZM131.165 393.806C131.588 393.806 131.814 393.835 131.814 393.976C131.758 394.145 131.73 394.37 131.73 394.68C131.758 395.272 131.927 395.78 132.209 396.174C132.435 396.513 132.999 397.246 133.874 398.373C134.749 399.473 135.934 400.882 137.458 402.602C137.655 402.799 137.796 402.912 137.937 402.912C138.05 402.912 138.107 402.828 138.107 402.658C138.107 400.347 137.994 398.683 137.796 397.669C137.486 396.034 136.809 394.878 135.765 394.201C135.567 394.06 135.482 393.947 135.482 393.891C135.482 393.835 135.652 393.806 136.019 393.806H140.9C141.098 393.806 141.21 393.806 141.21 393.863C141.21 393.919 141.126 394.032 140.956 394.145C139.941 394.906 139.292 396.315 139.038 398.345C138.925 399.191 138.868 400.178 138.868 401.333C138.868 401.503 138.868 402.123 138.925 403.25L139.009 405.421C139.038 405.985 139.066 406.859 139.094 407.987L139.151 409.171C139.207 410.185 139.235 410.89 139.235 411.341C139.235 411.482 139.066 411.567 138.727 411.567H137.655C136.837 411.567 136.385 411.51 136.301 411.369C135.257 409.791 133.874 407.93 132.125 405.731C130.178 403.25 128.372 401.108 126.679 399.304C126.594 399.219 126.509 399.191 126.425 399.191C126.284 399.191 126.227 399.247 126.199 399.332C126.199 399.614 126.199 400.206 126.199 401.136C126.199 403.448 126.397 405.28 126.763 406.69C127.328 408.748 128.372 410.242 129.839 411.172C130.008 411.285 130.093 411.398 130.093 411.482C130.093 411.595 130.008 411.623 129.811 411.595C128.598 411.539 127.441 411.51 126.368 411.51C125.635 411.51 124.958 411.51 124.365 411.51C123.772 411.51 123.123 411.51 122.39 411.51C122.277 411.51 122.221 411.51 122.221 411.454C122.221 411.398 122.305 411.313 122.474 411.144C123.688 410.044 124.534 408.691 124.958 407.113C125.155 406.351 125.24 405.534 125.268 404.604C125.324 402.884 125.353 401.728 125.353 401.108C125.353 399.698 125.324 398.543 125.268 397.64C124.224 396.456 123.377 395.639 122.757 395.131C122.39 394.821 121.854 394.455 121.148 394.004L121.092 393.947C121.092 393.947 121.289 393.806 121.628 393.835C124.421 393.919 126.058 393.947 126.594 393.947C127.949 393.947 129.472 393.891 131.222 393.778L131.165 393.806ZM145.217 393.271C145.979 393.271 146.6 393.637 147.108 394.37C147.39 394.765 147.503 395.216 147.503 395.723C147.503 396.682 147.164 397.556 146.515 398.317C146.12 398.796 145.528 399.163 144.766 399.416C144.568 399.416 144.484 399.304 144.484 399.078C144.85 398.853 145.274 398.571 145.669 398.232C145.81 398.091 145.894 397.894 145.894 397.669C145.753 397.612 145.499 397.584 145.104 397.584C144.935 397.584 144.766 397.584 144.653 397.528C143.581 397.161 143.044 396.485 143.044 395.498C143.044 394.85 143.242 394.314 143.637 393.891C144.032 393.468 144.54 393.243 145.189 393.243L145.217 393.271ZM164.8 393.891C164.8 393.891 164.997 393.722 165.054 393.722C165.138 393.722 165.166 393.806 165.166 393.947V395.442C165.166 395.611 165.166 396.005 165.166 396.654C165.166 397.556 165.195 398.43 165.279 399.304C164.997 399.106 164.687 398.824 164.348 398.458C163.812 397.866 163.53 397.556 163.502 397.528C162.175 396.203 160.765 395.329 159.326 394.962C158.846 394.793 158.31 394.737 157.717 394.737C156.363 394.737 155.234 395.16 154.331 395.977C153.908 396.344 153.682 396.738 153.654 397.161C153.569 397.528 153.513 397.838 153.513 398.007C153.513 398.543 153.682 398.965 153.993 399.304C154.388 399.839 155.065 400.121 155.996 400.121C156.109 400.121 156.419 400.121 156.927 400.065C157.153 400.065 157.887 399.952 159.156 399.755C160.087 399.614 160.849 399.529 161.385 399.529C162.345 399.529 163.107 399.727 163.727 400.121C164.01 400.29 164.32 400.544 164.659 400.939C165.59 402.01 166.041 403.363 166.041 404.97C166.041 405.929 165.872 406.774 165.533 407.451C165.082 408.494 164.348 409.396 163.389 410.129C162.881 410.524 162.373 410.806 161.865 410.975C161.78 410.975 161.668 411.031 161.526 411.059C161.385 411.088 161.188 411.144 160.906 411.228C160.624 411.313 160.398 411.369 160.2 411.398C159.862 411.482 159.41 411.539 158.874 411.539C158.338 411.539 157.717 411.482 156.984 411.369C155.855 411.2 155.234 411.116 155.121 411.088C154.867 411.088 154.501 411.088 154.049 411.088C153.005 411.088 152.102 411.313 151.368 411.736C151.199 411.736 151.115 411.736 151.115 411.68C151.171 410.834 151.199 409.791 151.199 408.55C151.199 407.592 151.199 406.633 151.115 405.703C151.115 405.703 151.199 405.703 151.312 405.703C152.412 407.225 153.569 408.409 154.811 409.283C156.25 410.27 157.745 410.777 159.297 410.777C160.511 410.777 161.47 410.496 162.204 409.932C162.655 409.593 162.937 409.171 163.107 408.719C163.191 408.522 163.219 408.24 163.219 407.93C163.219 407.338 163.078 406.831 162.796 406.436C162.373 405.759 161.526 405.421 160.257 405.449C159.918 405.449 159.128 405.562 157.887 405.788C156.673 406.041 155.77 406.154 155.15 406.154C153.767 406.154 152.723 405.731 151.989 404.857C151.199 403.927 150.804 402.658 150.804 401.052C150.804 400.178 150.973 399.304 151.284 398.373C151.594 397.528 151.989 396.823 152.469 396.315C153.626 395.075 155.037 394.398 156.701 394.258C157.012 394.201 157.35 394.173 157.774 394.173C158.197 394.173 158.931 394.229 159.975 394.37C161.019 394.483 161.752 394.568 162.175 394.568C163.191 394.568 164.038 394.37 164.743 393.976L164.8 393.891ZM55.3467 421.659C55.3467 421.659 55.5443 421.49 55.6007 421.49C55.6853 421.49 55.7136 421.575 55.7136 421.716V423.21C55.7136 423.379 55.7136 423.773 55.7136 424.422C55.7136 425.324 55.7418 426.198 55.8264 427.072C55.5443 426.875 55.2339 426.593 54.8953 426.226C54.3591 425.634 54.077 425.324 54.0488 425.296C52.7226 423.971 51.3117 423.097 49.8727 422.73C49.393 422.561 48.8569 422.505 48.2643 422.505C46.9099 422.505 45.7813 422.928 44.8783 423.745C44.4551 424.112 44.2293 424.506 44.2011 424.929C44.1165 425.296 44.06 425.606 44.06 425.775C44.06 426.311 44.2293 426.734 44.5397 427.072C44.9348 427.607 45.612 427.889 46.5431 427.889C46.656 427.889 46.9664 427.889 47.4743 427.833C47.7 427.833 48.4336 427.72 49.7034 427.523C50.6345 427.382 51.3964 427.297 51.9325 427.297C52.8919 427.297 53.6537 427.495 54.2745 427.889C54.5567 428.059 54.8671 428.312 55.2057 428.707C56.1368 429.778 56.5883 431.131 56.5883 432.738C56.5883 433.697 56.419 434.542 56.0804 435.219C55.6289 436.262 54.8953 437.164 53.9359 437.897C53.428 438.292 52.9201 438.574 52.4122 438.743C52.3275 438.743 52.2147 438.799 52.0736 438.827C51.9325 438.856 51.735 438.912 51.4528 438.997C51.1707 439.081 50.9449 439.138 50.7474 439.166C50.4088 439.25 49.9573 439.307 49.4212 439.307C48.8851 439.307 48.2643 439.25 47.5307 439.138C46.402 438.968 45.7813 438.884 45.6684 438.856C45.4144 438.856 45.0476 438.856 44.5962 438.856C43.5521 438.856 42.6492 439.081 41.9156 439.504C41.7463 439.504 41.6616 439.504 41.6616 439.448C41.718 438.602 41.7463 437.559 41.7463 436.318C41.7463 435.36 41.7463 434.402 41.6616 433.471C41.6616 433.471 41.7463 433.471 41.8591 433.471C42.9596 434.994 44.1165 436.178 45.358 437.051C46.7971 438.038 48.2925 438.546 49.8445 438.546C51.0578 438.546 52.0172 438.264 52.7508 437.7C53.2023 437.362 53.4844 436.939 53.6537 436.488C53.7384 436.29 53.7666 436.008 53.7666 435.698C53.7666 435.106 53.6255 434.599 53.3433 434.204C52.9201 433.528 52.0736 433.189 50.8038 433.217C50.4652 433.217 49.6752 433.33 48.4336 433.556C47.2203 433.809 46.3174 433.922 45.6966 433.922C44.314 433.922 43.27 433.499 42.5363 432.625C41.7463 431.695 41.3512 430.427 41.3512 428.82C41.3512 427.946 41.5205 427.072 41.8309 426.142C42.1413 425.296 42.5363 424.591 43.016 424.084C44.1729 422.843 45.5837 422.167 47.2485 422.026C47.5589 421.969 47.8975 421.941 48.3208 421.941C48.744 421.941 49.4776 421.997 50.5217 422.138C51.5657 422.251 52.2993 422.336 52.7226 422.336C53.7384 422.336 54.5849 422.138 55.2903 421.744L55.3467 421.659ZM70.3016 421.603H78.5692C78.4281 421.716 78.0895 421.885 77.5816 422.138C77.0737 422.364 76.7351 422.561 76.594 422.674C75.55 423.238 74.2802 424.196 72.7847 425.606L70.866 427.382C70.4145 427.833 69.8784 428.284 69.2858 428.763C69.2858 428.932 69.3705 429.017 69.5116 429.017C70.9788 428.763 72.0511 428.622 72.7565 428.622C73.8569 428.622 74.7599 428.876 75.4371 429.327C75.8603 429.609 76.1989 429.976 76.4247 430.398C76.7351 430.906 76.8761 431.582 76.8761 432.456C76.8761 432.851 76.8197 433.443 76.7351 434.204C76.6504 435.078 76.6222 435.67 76.6222 435.952C76.6222 436.234 76.6222 436.544 76.7068 436.854L76.7915 437.08C76.8761 437.277 76.989 437.362 77.1583 437.39C77.4969 437.39 77.8073 437.221 78.0895 436.854C78.1459 436.77 78.2588 436.347 78.3998 435.586C78.4563 435.388 78.5409 435.219 78.6538 435.05C78.8795 435.05 79.0206 435.134 79.0206 435.304C79.0206 436.995 78.3716 438.235 77.0454 439.053C76.34 439.504 75.4935 439.73 74.4495 439.73C73.5748 439.73 72.8129 439.532 72.1639 439.194C71.2328 438.546 70.7813 437.531 70.7813 436.149C70.7813 435.726 70.8095 435.191 70.866 434.571C70.9224 433.95 70.9506 433.387 70.9506 432.964C70.9506 432.118 70.8095 431.413 70.5274 430.878C70.1041 430.229 69.4269 429.919 68.524 429.919C68.4675 429.919 68.27 429.919 67.9596 429.976C67.8186 429.976 67.5928 430.032 67.3107 430.116C67.2542 430.116 67.1978 430.201 67.1413 430.342C67.1696 431.752 67.226 433.33 67.3107 435.05C67.4517 436.629 67.9032 437.925 68.6933 438.94C68.7779 439.053 68.8061 439.138 68.8061 439.166L68.7215 439.222C68.7215 439.222 68.6368 439.279 68.6368 439.307C66.8027 439.25 65.2508 439.222 63.9811 439.222C62.7113 439.222 61.244 439.25 59.2971 439.307C59.2971 439.307 59.2971 439.279 59.3253 439.222C59.3253 439.194 59.3817 439.138 59.41 439.081C59.4382 439.025 59.4664 438.968 59.4946 438.912C60.4822 437.643 60.9619 435.163 60.9619 431.47V429.919C60.9619 429.722 60.9619 429.299 60.9619 428.622C60.9619 427.748 60.9054 426.536 60.7926 425.042C60.5951 423.886 60.2 422.871 59.6075 421.969C59.5228 421.857 59.4946 421.8 59.4946 421.744C59.4946 421.659 59.5793 421.603 59.7203 421.631C61.6673 421.687 63.0217 421.716 63.8118 421.716H66.182C66.3513 421.687 66.8028 421.659 67.5646 421.659C67.7621 421.659 67.875 421.687 67.875 421.8L67.7621 422.082C67.3107 422.9 67.0567 424.281 67.0567 426.198V427.495C67.0567 427.889 67.0567 428.34 67.0567 428.82C67.0567 428.904 67.1414 428.961 67.2824 428.961C68.524 428.51 69.4833 427.805 70.1888 426.846C70.8378 425.944 71.1764 424.986 71.1764 423.971C71.1764 423.52 71.0917 423.069 70.8942 422.646C70.6967 422.42 70.4709 422.054 70.217 421.575L70.3016 421.603ZM90.1098 421.603C90.1098 421.603 90.2227 421.603 90.2227 421.687C90.2227 421.772 90.1662 421.885 90.0252 422.026C89.4608 422.618 89.1787 423.633 89.1787 425.07V435.586C89.1787 436.375 89.4044 437.164 89.8276 437.982C89.9405 438.235 90.2791 438.63 90.8152 439.25C88.8401 439.166 87.3164 439.109 86.2723 439.109C84.9461 439.109 83.4507 439.166 81.7859 439.25C81.7859 439.109 81.9269 438.968 82.2091 438.743C82.8017 438.207 83.1121 437.333 83.1121 436.065V425.211C83.1121 424.422 83.0556 423.858 82.9427 423.52C82.8017 423.069 82.5195 422.589 82.0398 422.11C81.8705 421.941 81.8141 421.828 81.8141 421.744C81.8141 421.687 81.8141 421.631 81.8987 421.603C83.8457 421.687 85.2283 421.716 86.0748 421.716C87.2317 421.716 88.5579 421.659 90.1098 421.546V421.603ZM103.4 421.603C103.823 421.603 104.049 421.631 104.049 421.772C103.992 421.941 103.964 422.167 103.964 422.477C103.992 423.069 104.162 423.576 104.444 423.971C104.67 424.309 105.234 425.042 106.109 426.17C106.983 427.269 108.169 428.679 109.692 430.398C109.89 430.596 110.031 430.708 110.172 430.708C110.285 430.708 110.341 430.624 110.341 430.455C110.341 428.143 110.228 426.48 110.031 425.465C109.72 423.83 109.043 422.674 107.999 421.997C107.802 421.857 107.717 421.744 107.717 421.687C107.717 421.631 107.886 421.603 108.253 421.603H113.135C113.332 421.603 113.445 421.603 113.445 421.659C113.445 421.716 113.36 421.828 113.191 421.941C112.175 422.702 111.526 424.112 111.272 426.142C111.16 426.987 111.103 427.974 111.103 429.13C111.103 429.299 111.103 429.919 111.16 431.047L111.244 433.217C111.272 433.781 111.301 434.655 111.329 435.783L111.385 436.967C111.442 437.982 111.47 438.687 111.47 439.138C111.47 439.279 111.301 439.363 110.962 439.363H109.89C109.071 439.363 108.62 439.307 108.535 439.166C107.491 437.587 106.109 435.726 104.359 433.528C102.412 431.047 100.606 428.904 98.9135 427.1C98.8288 427.015 98.7442 426.987 98.6595 426.987C98.5184 426.987 98.462 427.044 98.4338 427.128C98.4338 427.41 98.4338 428.002 98.4338 428.932C98.4338 431.244 98.6313 433.077 98.9981 434.486C99.5624 436.544 100.606 438.038 102.074 438.968C102.243 439.081 102.328 439.194 102.328 439.279C102.328 439.391 102.243 439.42 102.046 439.391C100.832 439.335 99.6753 439.307 98.6031 439.307C97.8694 439.307 97.1922 439.307 96.5997 439.307C96.0071 439.307 95.3581 439.307 94.6245 439.307C94.5116 439.307 94.4552 439.307 94.4552 439.25C94.4552 439.194 94.5398 439.109 94.7092 438.94C95.9225 437.841 96.769 436.488 97.1922 434.909C97.3897 434.148 97.4744 433.33 97.5026 432.4C97.5591 430.68 97.5873 429.524 97.5873 428.904C97.5873 427.495 97.5591 426.339 97.5026 425.437C96.4586 424.253 95.6121 423.435 94.9913 422.928C94.6245 422.618 94.0884 422.251 93.383 421.8L93.3265 421.744C93.3265 421.744 93.524 421.603 93.8626 421.631C96.6561 421.716 98.2927 421.744 98.8288 421.744C100.183 421.744 101.707 421.687 103.456 421.575L103.4 421.603ZM136.498 421.603C136.696 421.603 136.78 421.744 136.78 422.026V423.181V424.535C136.78 425.239 136.78 425.916 136.696 426.593C136.526 426.17 136.244 425.606 135.849 424.958C134.777 423.351 133.507 422.533 131.984 422.533C130.855 422.674 130.093 423.125 129.67 423.943C129.5 424.422 129.359 424.986 129.275 425.606C129.275 425.69 129.275 425.775 129.275 425.888C129.275 426.001 129.246 426.113 129.218 426.254C129.218 426.395 129.19 426.508 129.162 426.621V430.568C129.105 432.315 129.162 433.753 129.275 434.909C129.557 435.98 129.924 436.77 130.319 437.277C130.573 437.587 130.939 437.841 131.391 438.038C131.842 438.235 132.294 438.348 132.774 438.348C133.818 438.348 134.749 438.01 135.539 437.362C135.962 436.911 136.47 436.234 137.063 435.332L137.204 435.275C137.204 435.275 137.401 435.36 137.401 435.557C137.119 436.459 136.555 437.249 135.708 437.925C134.862 438.602 133.959 438.997 133.028 439.166C132.294 439.279 131.645 439.363 131.052 439.363C128.09 439.363 125.776 438.151 124.139 435.698C123.518 434.74 123.095 433.669 122.869 432.485C122.785 431.893 122.728 431.3 122.728 430.708C122.728 429.017 123.095 427.467 123.801 426.029C124.901 423.914 126.651 422.589 129.077 422.026C129.867 421.857 130.629 421.772 131.447 421.772C131.871 421.772 132.237 421.772 132.576 421.856C133.451 421.941 134.128 421.997 134.636 421.997C135.37 421.997 135.99 421.885 136.526 421.631L136.498 421.603ZM143.863 421.603C145.443 421.659 146.741 421.659 147.757 421.659C148.49 421.659 149.478 421.659 150.719 421.603C151.03 421.603 151.256 421.603 151.34 421.716C151.425 421.8 151.51 422.026 151.566 422.336L151.792 423.266C152.412 425.07 153.203 427.41 154.134 430.286C155.065 433.105 155.77 435.106 156.222 436.262C156.504 436.967 156.786 437.559 157.068 438.01C157.209 438.207 157.407 438.461 157.689 438.771L157.915 438.94C157.915 438.94 158.112 439.138 158.112 439.166C158.112 439.222 157.971 439.25 157.689 439.25C156.222 439.194 154.754 439.166 153.259 439.166C151.651 439.166 150.183 439.194 148.857 439.25C148.801 439.25 148.773 439.25 148.773 439.166C148.773 439.138 148.773 439.109 148.773 439.081C149.45 438.602 149.76 437.925 149.76 437.08C149.76 436.403 149.45 435.304 148.801 433.781C148.49 432.964 148.293 432.513 148.265 432.372C148.152 432.174 148.039 432.062 147.898 432.062H144.568C144.145 432.062 143.919 432.569 143.919 433.612V434.345C143.919 435.106 143.976 435.698 144.089 436.093C144.173 436.459 144.399 437.023 144.738 437.7C145.02 438.292 145.415 438.771 145.923 439.194C144.738 439.138 143.411 439.109 141.972 439.109C140.533 439.109 139.207 439.109 137.909 439.194C137.824 439.166 137.768 439.138 137.768 439.109C137.768 439.053 137.881 438.94 138.078 438.799C138.953 438.264 139.8 437.559 140.561 436.685C141.747 435.247 142.734 433.499 143.524 431.413C144.991 427.185 145.725 425.014 145.753 424.901C145.753 424.478 145.556 423.971 145.161 423.379C144.822 422.843 144.455 422.42 144.06 422.082C143.778 421.857 143.665 421.687 143.665 421.546C143.665 421.49 143.722 421.462 143.835 421.462L143.863 421.603ZM146.656 427.269C146.487 426.846 146.346 426.621 146.233 426.621C146.12 426.621 146.007 426.762 145.866 427.015C145.866 427.015 145.866 427.072 145.838 427.156C145.838 427.241 145.782 427.297 145.782 427.326C145.725 427.495 145.612 427.889 145.386 428.538C145.161 429.186 144.963 429.75 144.822 430.229C144.738 430.483 144.681 430.708 144.681 430.906C144.681 431.216 144.794 431.385 145.048 431.385H147.531C147.813 431.385 147.954 431.244 147.954 430.962C147.954 430.906 147.954 430.878 147.954 430.821C147.954 430.765 147.898 430.652 147.841 430.455C147.785 430.286 147.7 430.032 147.587 429.722C147.475 429.412 147.39 429.102 147.277 428.82C147.136 428.425 146.938 427.889 146.713 427.241L146.656 427.269ZM174.027 421.575C174.845 421.575 175.607 421.687 176.284 421.997C177.413 422.533 177.977 423.717 177.977 425.55C177.977 426.142 177.892 426.621 177.695 426.987C177.328 427.523 176.876 427.918 176.369 428.171C175.324 428.594 174.732 428.848 174.591 428.904C174.45 428.961 174.365 429.017 174.365 429.073C174.365 429.13 174.506 429.186 174.788 429.243C176.002 429.44 176.905 429.976 177.469 430.878C177.695 431.441 177.808 432.09 177.808 432.766C177.808 433.161 177.751 433.809 177.61 434.796C177.497 435.614 177.441 436.29 177.441 436.826C177.441 437.221 177.554 437.446 177.808 437.503C178.118 437.503 178.344 437.305 178.513 436.911C178.626 436.798 178.739 436.516 178.823 436.149C178.936 435.642 179.021 435.36 179.049 435.304C179.134 435.219 179.247 435.163 179.331 435.163C179.388 435.163 179.444 435.163 179.444 435.163C179.585 435.304 179.642 435.501 179.642 435.783C179.642 436.037 179.613 436.29 179.557 436.516C179.388 437.192 179.049 437.813 178.541 438.376C178.005 438.94 177.384 439.279 176.735 439.391C176.058 439.504 175.494 439.589 174.986 439.589C173.773 439.589 172.841 439.25 172.192 438.546C171.826 438.066 171.628 437.418 171.628 436.629C171.628 436.318 171.656 435.839 171.741 435.191C171.769 434.965 171.797 434.74 171.826 434.514C171.826 434.289 171.882 434.12 171.882 434.007C171.882 433.894 171.882 433.809 171.882 433.753C171.882 433.556 171.882 433.217 171.882 432.766C171.882 431.639 171.543 430.878 170.894 430.483C170.528 430.286 170.076 430.173 169.512 430.173C169.173 430.173 168.891 430.201 168.694 430.257C168.468 430.427 168.327 430.596 168.327 430.793V432.259C168.327 432.4 168.327 432.541 168.327 432.682C168.327 432.823 168.327 432.936 168.327 433.02V433.753C168.327 436.121 168.637 437.784 169.258 438.715C169.258 438.715 169.286 438.799 169.314 438.856C169.314 438.884 169.371 438.94 169.399 438.968C169.399 438.968 169.399 439.025 169.399 439.109C169.399 439.194 169.314 439.222 169.173 439.222C166.662 439.081 165.223 439.025 164.856 439.025C163.784 439.025 162.429 439.081 160.793 439.194C160.567 439.194 160.426 439.194 160.426 439.109C160.426 439.025 160.482 438.94 160.595 438.827C161.78 437.615 162.373 435.783 162.373 433.387C162.373 433.274 162.373 432.71 162.317 431.695C162.288 430.652 162.26 430.06 162.26 429.947C162.26 429.806 162.26 429.665 162.26 429.496C162.26 429.327 162.26 429.102 162.26 428.82C162.26 427.974 162.26 427.1 162.175 426.254C162.063 424.732 161.555 423.463 160.736 422.42C160.652 422.308 160.595 422.195 160.595 422.082C160.595 421.997 160.793 421.941 161.131 421.941C162.232 422.026 163.389 422.082 164.63 422.082C166.013 422.082 167.508 422.026 169.089 421.913C169.173 421.913 169.54 421.913 170.104 421.828C170.669 421.744 171.177 421.744 171.572 421.716C171.769 421.687 172.531 421.631 173.885 421.518L174.027 421.575ZM170.866 422.984C170.556 422.815 170.161 422.759 169.625 422.759C169.286 422.759 168.947 422.956 168.637 423.322C168.327 423.661 168.186 424.027 168.186 424.366C168.186 425.268 168.186 426.029 168.186 426.677C168.186 427.41 168.186 428.199 168.186 429.017C168.186 429.355 168.355 429.553 168.722 429.553C169.23 429.553 169.992 429.158 171.036 428.397C171.685 427.918 171.995 427.044 171.995 425.775C171.995 425.268 171.91 424.76 171.713 424.225C171.487 423.604 171.177 423.21 170.81 423.012L170.866 422.984ZM182.463 421.631C183.338 421.631 184.467 421.631 185.878 421.716C187.542 421.772 188.981 421.8 190.251 421.8C192.537 421.8 194.879 421.744 197.249 421.631V423.238C197.249 423.858 197.277 424.422 197.305 424.901C197.305 425.38 197.305 425.944 197.305 426.564C197.305 426.621 197.305 426.649 197.221 426.649C197.136 426.649 196.995 426.423 196.685 425.944C196.6 425.803 196.487 425.662 196.374 425.521C196.261 425.38 196.205 425.268 196.148 425.211C196.092 425.155 196.064 425.098 196.064 425.098C194.512 423.407 192.988 422.561 191.549 422.561C191.323 422.561 191.098 422.561 190.844 422.646C190.505 422.984 190.336 423.604 190.308 424.535C190.308 425.155 190.308 426.113 190.308 427.438C190.308 429.017 190.392 429.806 190.59 429.806C191.662 429.806 192.734 429.327 193.806 428.369C194.23 428.002 194.653 427.551 195.104 426.987C195.161 426.987 195.189 428.256 195.189 430.821V433.105C194.653 432.372 194.004 431.78 193.186 431.357C192.367 430.934 191.521 430.708 190.618 430.708C190.42 430.737 190.336 431.78 190.336 433.838C190.336 435.332 190.42 436.629 190.59 437.672C190.674 438.095 190.985 438.32 191.521 438.292H192.65C194.173 438.207 195.584 437.305 196.882 435.614C197.362 434.965 197.926 434.148 198.49 433.161C198.49 433.753 198.49 434.317 198.49 434.796C198.49 435.275 198.49 435.839 198.49 436.431C198.49 437.108 198.49 438.066 198.547 439.307L194.455 439.222H191.126C188.276 439.222 185.483 439.279 182.717 439.419C182.576 439.391 182.52 439.335 182.52 439.279C182.52 439.222 182.548 439.109 182.604 438.997C183.761 437.643 184.326 435.586 184.326 432.795V431.47V430.934V428.34C184.326 426.283 184.213 424.873 183.987 424.055C183.79 423.379 183.31 422.561 182.52 421.631H182.463ZM40.674 341.456C41.1537 341.287 41.4359 341.23 41.4641 341.343C41.4923 341.456 41.4641 341.597 41.3512 341.822C40.1943 344.303 39.4043 347.742 38.9528 352.084C38.7271 354.254 38.586 356.256 38.5013 358.088L38.2474 363.304C37.9652 367.871 37.9088 372.212 38.1345 376.3C38.3038 379.908 38.4167 382.023 38.4731 382.643C38.5295 383.066 38.4731 383.348 38.4167 383.46C38.332 383.573 38.0781 383.714 37.6548 383.883L33.5634 385.349C32.1808 385.857 30.911 386.308 29.7823 386.759C29.3591 386.9 28.9641 386.787 28.6537 386.392C24.9291 381.6 20.1886 376.018 14.4324 369.619C14.1785 369.308 13.3884 368.435 12.0622 366.969C10.736 365.503 9.74843 364.403 9.04301 363.586C6.78567 361.161 4.83871 359.329 3.17392 358.117C3.03283 357.976 2.44028 357.666 1.4527 357.186C0.521541 356.679 0.0418562 356.369 0.0136394 356.312C-0.0710109 356.115 0.239374 355.946 0.916576 355.749C2.41207 355.241 4.64119 354.452 7.63217 353.381C11.9211 351.858 15.5329 350.477 18.5238 349.265C18.5803 349.434 18.5238 350.026 18.3828 351.041C18.2699 351.379 18.2699 351.633 18.3263 351.83C18.3263 352.281 18.4674 352.873 18.7496 353.634C19.1164 354.621 19.6243 355.551 20.3015 356.425C20.5837 356.735 21.1198 357.299 21.8534 358.088C22.5871 358.878 23.1514 359.526 23.5182 359.949L27.0453 363.755C29.4155 366.32 30.7981 367.814 31.2214 368.265L34.8049 372.043C35.0589 372.325 35.3128 372.409 35.5668 372.325C35.7925 372.24 35.9336 372.071 35.9336 371.789C36.1875 369.844 36.3568 367.363 36.3851 364.403C36.4415 359.921 36.0465 356.51 35.2 354.142C34.6074 352.478 33.7609 351.041 32.6605 349.885C31.5036 348.588 30.0081 347.545 28.2586 346.727C27.8918 346.558 27.6943 346.417 27.6379 346.276C27.6096 346.164 27.6379 346.107 27.779 346.051L40.6176 341.456H40.674ZM55.2339 338.693C58.6763 338.157 61.5262 337.706 63.7271 337.312C65.3073 337.03 67.4235 336.579 70.1041 335.987C70.7813 335.818 71.2328 335.818 71.4867 335.987C71.7407 336.128 71.9946 336.551 72.2486 337.255L73.0669 339.172C75.1267 342.837 77.7226 347.601 80.9111 353.437C84.0432 359.188 86.357 363.219 87.8242 365.531C88.6708 366.94 89.5455 368.096 90.3638 368.998C90.7588 369.393 91.2949 369.872 92.0003 370.408L92.5929 370.662C92.9033 370.887 93.1008 371.028 93.1008 371.113C93.1008 371.254 92.8186 371.366 92.1979 371.479C89.0094 371.93 85.7926 372.438 82.5759 373.03C79.1053 373.65 75.945 374.298 73.0669 374.975C72.954 374.975 72.8976 374.975 72.8976 374.862C72.8976 374.806 72.8976 374.749 72.8976 374.693C74.1673 373.396 74.6188 371.817 74.2802 369.957C74.0262 368.519 72.8976 366.264 70.9224 363.219C69.9066 361.584 69.3423 360.654 69.173 360.4C68.8626 360.005 68.5522 359.836 68.27 359.864L61.0465 361.189C60.1154 361.359 59.8614 362.571 60.2565 364.798L60.5386 366.405C60.849 368.04 61.1876 369.28 61.5826 370.098C61.9495 370.887 62.6267 371.958 63.6143 373.34C64.4608 374.496 65.533 375.426 66.7745 376.102C64.1786 376.469 61.3005 376.948 58.1966 377.512C55.1774 378.076 52.2429 378.64 49.393 379.288C49.1673 379.26 49.0544 379.232 49.0544 379.175C49.0544 379.034 49.2237 378.781 49.5905 378.386C51.3117 376.892 52.8072 375.059 54.1052 372.832C56.1086 369.224 57.5476 365.052 58.4224 360.287C59.9179 350.533 60.6797 345.543 60.7079 345.346C60.5386 344.416 59.9179 343.401 58.8174 342.273C57.858 341.287 56.8987 340.497 55.9393 339.933C55.2621 339.567 54.8953 339.229 54.8671 338.975C54.8671 338.834 54.9517 338.749 55.1774 338.693H55.2339ZM63.5014 349.857C62.9935 348.983 62.5985 348.588 62.3163 348.644C62.0623 348.701 61.8648 349.039 61.6955 349.659C61.6955 349.688 61.6955 349.8 61.6955 349.969C61.6955 350.139 61.6391 350.28 61.6391 350.392C61.6109 350.759 61.4698 351.689 61.244 353.183C61.0183 354.677 60.8208 355.974 60.6797 357.074C60.5668 357.666 60.5668 358.173 60.6515 358.624C60.7644 359.301 61.103 359.611 61.6109 359.526L66.9721 358.539C67.5928 358.427 67.8468 358.06 67.7339 357.44C67.7339 357.327 67.6775 357.243 67.621 357.13C67.5646 356.989 67.4235 356.763 67.226 356.397C67.0285 356.03 66.7463 355.551 66.4077 354.931C66.0691 354.311 65.7305 353.691 65.3919 353.07C64.9404 352.281 64.3197 351.21 63.5296 349.885L63.5014 349.857ZM126.876 331.955C128.682 331.899 130.347 332.209 131.871 332.857C134.354 333.985 135.623 336.579 135.68 340.638C135.68 341.935 135.482 343.006 135.087 343.852C134.297 345.036 133.338 345.938 132.181 346.502C129.895 347.46 128.569 348.024 128.259 348.165C127.949 348.278 127.779 348.391 127.779 348.532C127.779 348.673 128.09 348.785 128.739 348.898C131.447 349.293 133.423 350.477 134.692 352.45C135.2 353.691 135.454 355.072 135.454 356.594C135.454 357.44 135.341 358.906 135.087 361.048C134.862 362.881 134.749 364.347 134.777 365.503C134.777 366.377 135.059 366.884 135.567 367.025C136.244 367.025 136.724 366.574 137.063 365.7C137.316 365.418 137.514 364.854 137.74 364.009C137.994 362.881 138.163 362.261 138.248 362.176C138.445 361.979 138.671 361.866 138.868 361.866C139.01 361.866 139.094 361.866 139.122 361.922C139.405 362.204 139.546 362.655 139.546 363.276C139.546 363.839 139.489 364.375 139.348 364.911C139.009 366.377 138.276 367.758 137.147 369.027C135.962 370.295 134.664 371.056 133.197 371.31C131.73 371.592 130.432 371.761 129.331 371.761C126.679 371.761 124.619 371.028 123.18 369.506C122.333 368.435 121.91 367.025 121.882 365.277C121.882 364.572 121.938 363.529 122.108 362.12C122.164 361.64 122.221 361.133 122.277 360.654C122.333 360.175 122.362 359.78 122.39 359.526C122.418 359.272 122.446 359.075 122.446 358.962C122.474 358.511 122.474 357.778 122.474 356.82C122.474 354.339 121.713 352.676 120.217 351.802C119.399 351.351 118.383 351.125 117.17 351.153C116.408 351.153 115.815 351.238 115.392 351.379C114.884 351.774 114.602 352.14 114.63 352.535V354.254L114.658 355.72C114.658 356.03 114.658 356.341 114.658 356.651C114.658 356.961 114.658 357.215 114.658 357.412C114.658 357.609 114.658 357.835 114.658 358.004C114.658 358.201 114.658 358.342 114.658 358.483C114.658 358.596 114.658 358.709 114.658 358.821C114.658 358.934 114.658 358.991 114.658 359.019C114.715 364.234 115.42 367.871 116.803 369.957L116.859 370.013C116.859 370.013 116.944 370.154 117 370.239C117.057 370.323 117.113 370.408 117.198 370.464C117.226 370.492 117.254 370.605 117.254 370.774C117.254 370.944 117.085 371.028 116.775 371.028C111.244 370.803 108.084 370.69 107.294 370.69C104.952 370.69 101.961 370.859 98.3209 371.141C97.7848 371.169 97.5308 371.141 97.5308 370.944C97.5308 370.774 97.6437 370.549 97.8977 370.323C100.494 367.617 101.763 363.586 101.707 358.286C101.707 358.032 101.65 356.792 101.566 354.565C101.481 352.253 101.425 350.984 101.425 350.702C101.425 350.392 101.425 350.054 101.481 349.716C101.509 349.321 101.538 348.842 101.509 348.25C101.509 346.361 101.453 344.472 101.284 342.583C100.973 339.229 99.8728 336.438 98.0105 334.182C97.7848 333.929 97.7001 333.703 97.7001 333.449C97.7284 333.252 98.1234 333.139 98.857 333.111C101.284 333.309 103.851 333.365 106.56 333.337C109.636 333.309 112.909 333.139 116.351 332.886C116.549 332.886 117.311 332.829 118.609 332.717C119.907 332.604 120.979 332.491 121.854 332.435C122.277 332.35 123.97 332.209 126.933 331.955H126.876ZM119.935 335.113C119.258 334.774 118.355 334.605 117.198 334.605C116.436 334.605 115.702 335.028 115.053 335.874C114.404 336.635 114.066 337.424 114.094 338.186C114.094 340.131 114.151 341.822 114.207 343.26C114.263 344.867 114.292 346.586 114.32 348.391C114.32 349.152 114.743 349.547 115.533 349.518C116.662 349.518 118.327 348.644 120.584 346.897C121.967 345.825 122.644 343.908 122.616 341.117C122.616 339.99 122.39 338.862 121.938 337.735C121.402 336.381 120.725 335.479 119.907 335.085L119.935 335.113ZM178.682 339.116C180.121 340.046 181.504 341.202 182.802 342.555C183.931 343.824 184.918 345.402 185.708 347.207C187.176 350.449 187.571 354.057 186.922 358.06C186.273 362.063 184.777 365.446 182.407 368.209C180.121 370.944 177.356 372.861 174.139 373.932C171.036 374.918 167.706 375.116 164.151 374.552C162.881 374.355 161.611 374.045 160.313 373.622C157.012 372.579 154.105 370.69 151.566 367.955C148.942 365.193 147.39 362.12 146.91 358.765C146.628 356.989 146.684 354.875 147.079 352.422C148.124 345.91 151.368 341.117 156.758 338.016C160.539 335.846 165.025 335.169 170.217 336.015C173.519 336.55 176.34 337.594 178.682 339.144V339.116ZM170.076 337.453C167.142 336.973 165.11 337.904 163.925 340.272C163.135 341.794 162.627 343.288 162.345 344.726C161.583 348.024 160.99 351.041 160.567 353.719C160.2 356.002 159.777 359.216 159.326 363.388C158.902 367.025 159.467 369.76 160.962 371.564C161.752 372.297 162.796 372.748 164.038 372.973C166.944 373.453 168.919 372.522 169.963 370.211C170.584 368.801 171.092 367.138 171.515 365.249C172.277 361.584 172.841 358.737 173.18 356.651C173.688 353.465 174.111 350.11 174.45 346.558C174.591 345.036 174.647 343.937 174.647 343.316C174.647 342.104 174.422 341.061 174.055 340.131C173.406 338.637 172.08 337.735 170.076 337.424V337.453ZM219.145 348.588C220.048 348.87 220.443 349.152 220.358 349.406C220.133 349.688 219.907 350.167 219.681 350.843C219.314 352.084 219.258 353.24 219.568 354.311C219.794 355.213 220.415 357.13 221.402 360.09C222.39 362.994 223.829 366.828 225.72 371.536C225.974 372.099 226.228 372.438 226.482 372.522C226.707 372.607 226.905 372.466 227.018 372.099C228.711 367.335 229.755 363.811 230.093 361.5C230.686 357.891 230.15 354.987 228.485 352.789C228.203 352.337 228.062 352.056 228.118 351.943C228.175 351.802 228.541 351.886 229.275 352.14L239.405 355.749C239.828 355.89 240.026 356.03 239.997 356.115C239.941 356.256 239.687 356.369 239.236 356.51C236.555 357.327 234.185 359.752 232.125 363.755C231.278 365.418 230.432 367.42 229.585 369.788C229.473 370.126 229.021 371.451 228.287 373.763L226.82 378.301C226.453 379.514 225.889 381.29 225.071 383.686L224.281 386.195C223.632 388.309 223.152 389.803 222.813 390.734C222.7 391.044 222.305 391.044 221.628 390.818L219.399 390.029C217.734 389.437 216.831 388.958 216.719 388.619C215.703 384.588 214.235 379.655 212.26 373.847C210.088 367.251 207.915 361.471 205.714 356.482C205.601 356.256 205.46 356.115 205.262 356.03C205.009 355.946 204.811 355.974 204.698 356.171C204.472 356.707 203.993 357.976 203.316 359.893C201.623 364.657 200.635 368.632 200.381 371.817C200.042 376.469 201.058 380.331 203.428 383.376C203.682 383.77 203.795 384.052 203.739 384.222C203.654 384.447 203.428 384.475 203.062 384.25C200.579 383.207 198.208 382.305 195.979 381.487C194.427 380.923 193.045 380.472 191.803 380.049C190.562 379.655 189.207 379.175 187.683 378.64C187.458 378.555 187.345 378.471 187.373 378.414C187.401 378.358 187.655 378.189 188.135 377.963C191.493 376.554 194.202 374.383 196.261 371.451C197.221 370.013 198.039 368.35 198.744 366.489C200.155 362.994 201.086 360.597 201.538 359.301C202.582 356.369 203.372 353.944 203.908 352.027C202.61 348.814 201.481 346.474 200.579 345.008C200.014 344.106 199.196 342.922 198.095 341.512L198.039 341.371C198.124 341.146 198.519 341.202 199.252 341.54C204.952 343.767 208.338 345.064 209.439 345.459C212.232 346.446 215.477 347.489 219.145 348.532V348.588ZM199.788 325.556C199.337 324.372 198.237 323.611 196.995 323.554C196.6 323.554 196.205 323.611 195.838 323.752C192.17 325.133 188.022 325.753 183.169 325.612C180.206 325.528 176.933 325.161 173.462 324.541C164.264 322.85 157.491 319.974 152.751 315.774C152.215 315.294 151.51 315.013 150.776 314.984C149.873 314.984 148.998 315.351 148.406 316.027C147.277 317.296 147.39 319.241 148.66 320.369C154.275 325.359 162.034 328.685 172.362 330.602C176.143 331.307 179.726 331.702 182.999 331.786C188.643 331.927 193.553 331.194 197.983 329.531C198.744 329.249 199.365 328.685 199.704 327.924C200.042 327.191 200.071 326.345 199.788 325.584V325.556ZM174.196 319.777C178.795 320.623 183.31 320.82 187.627 320.482L187.909 320.538V320.453L189.01 308.839C189.715 304.695 186.922 300.692 182.774 299.93L172.926 298.126C168.806 297.365 164.856 300.128 164.151 304.272L161.301 315.633L161.414 315.689C165.308 317.55 169.625 318.959 174.224 319.805L174.196 319.777Z" fill="white"/>
<path d="M71 153.583C74.6767 157.259 137.64 220.222 168.662 251.244" stroke="white"/>
<path d="M168.662 153.583C164.985 157.259 102.022 220.222 71 251.244" stroke="white"/>
<path d="M20.575 71.0389L12.2349 84.7557V71.0389H4.69922V106.304H12.2349V90.3863L21.2524 106.304H29.5502L18.8816 87.4651L28.8728 71.0389H20.575Z" fill="white"/>
<path d="M58.5498 0.973755L42.801 52.7501H54.0199L57.3221 40.5151H71.9702L74.976 52.7501H86.9146L71.6739 0.973755H58.5498ZM59.6082 31.921L64.9848 11.981L69.8534 31.921H59.6082Z" fill="white"/>
<path d="M219.467 0C206.851 0 198.935 9.56783 198.935 26.7984C198.935 44.0289 206.767 53.5544 219.467 53.5544C232.168 53.5544 240 44.0713 240 26.7984C240 9.52549 232.083 0 219.467 0ZM219.467 44.791C214.006 44.791 210.746 38.5677 210.746 26.7984C210.746 15.0291 214.006 8.72112 219.467 8.72112C224.929 8.72112 228.188 14.9868 228.188 26.7984C228.188 38.61 224.929 44.791 219.467 44.791Z" fill="white"/>
<path d="M232.972 71.0389H225.437V106.304H232.972V71.0389Z" fill="white"/>
<path d="M192.331 91.2753H200.374V106.304H207.91V71.0389H200.374V84.8827H192.331V71.0389H184.752V106.304H192.331V91.2753Z" fill="white"/>
<path d="M182.509 44.1137H164.474V30.6086H180.9V22.0145H164.474V9.56787H181.831V0.973755H153.382V52.7078H182.509V44.1137Z" fill="white"/>
<path d="M112.994 29.3386L126.202 52.7078H138.353L122.731 25.0627L137.421 0.973755H125.271L112.994 21.0408V0.973755H101.902V52.7078H112.994V29.3386Z" fill="white"/>
<path d="M106.347 71.0389V92.6724C106.347 102.24 110.03 106.855 118.201 106.855C126.371 106.855 130.097 102.24 130.097 92.6724V71.0389H122.858V93.6038C122.858 98.5994 121.968 100.928 118.37 100.928C114.771 100.928 113.967 98.557 113.967 93.6038V71.0389H106.347Z" fill="white"/>
<path d="M75.95 71.0389H68.4143V106.304H75.95V90.3863L84.9252 106.304H93.2229L82.5967 87.4651L92.5879 71.0389H84.2901L75.95 84.7557V71.0389Z" fill="white"/>
<path d="M161.552 106.897C164.304 106.897 166.887 106.432 169.3 105.416V98.6419C167.268 99.9543 164.897 100.632 162.738 100.632C157.15 100.632 153.847 96.3981 153.847 88.6507C153.847 80.9033 157.023 76.8391 162.441 76.8391C164.728 76.8391 167.014 77.3471 169.088 78.7018V72.0975C166.463 70.9544 163.881 70.4464 161.298 70.4464C152.069 70.4464 145.846 77.4741 145.846 88.6507C145.846 99.8273 151.985 106.897 161.552 106.897Z" fill="white"/>
<path d="M11.7693 52.7078H22.8612V10.3299H34.5035V0.973755H0V10.3299H11.7693V52.7078Z" fill="white"/>
<path d="M50.7604 71.0389H43.1824V106.304H50.7604V71.0389Z" fill="white"/>
</svg>
