<svg width="192" height="102" viewBox="0 0 192 102" fill="none" xmlns="http://www.w3.org/2000/svg">
<path d="M27.72 14.24H23.52C21.408 14.24 20.736 14.288 20.496 14.312C20.4 14.312 20.064 14.36 19.992 14.36C19.896 14.36 19.848 14.312 19.776 14.216L19.32 13.664C19.224 13.544 19.2 13.544 19.2 13.496C19.2 13.448 19.248 13.448 19.296 13.448C19.464 13.448 20.208 13.52 20.352 13.52C21.528 13.568 22.512 13.616 23.64 13.616H27.792C28.536 13.616 28.608 13.616 28.608 10.232C28.608 9.656 28.608 8.384 28.464 6.92C28.44 6.776 28.368 6.224 28.368 6.104C28.368 5.984 28.368 5.912 28.512 5.912C28.896 5.912 30.696 6.368 31.008 6.464C31.32 6.536 31.536 6.656 31.536 6.896C31.536 7.088 31.416 7.232 31.152 7.448C30.696 7.832 30.696 7.952 30.648 9.08C30.624 9.704 30.456 12.488 30.456 13.064C30.456 13.616 30.888 13.616 31.272 13.616H35.424C36.528 13.616 36.648 13.616 36.96 13.208C37.728 12.224 37.824 12.128 38.112 12.128C38.64 12.128 40.56 13.664 40.56 13.904C40.56 14.24 40.08 14.24 39.288 14.24H31.632C31.104 14.24 30.936 14.24 30.936 14.624C30.936 16.088 34.056 23.216 40.848 25.88C41.496 26.144 41.496 26.144 41.496 26.24C41.496 26.408 41.376 26.432 41.016 26.456C40.272 26.504 39.648 26.576 38.856 26.912C38.736 26.984 38.208 27.344 38.064 27.344C37.632 27.344 35.496 25.424 34.224 23.6C32.472 21.104 31.2 18.392 30.48 15.464C30.456 15.32 30.36 14.984 30.312 14.984C30.24 14.984 30.24 15.056 30.144 15.56C29.664 18.248 28.776 23.24 22.584 26.696C20.808 27.704 19.2 27.992 19.008 27.992C18.96 27.992 18.864 27.968 18.864 27.896C18.864 27.776 19.392 27.536 19.632 27.416C21.312 26.624 26.328 23.696 27.984 17.192C28.248 16.112 28.368 14.84 28.368 14.768C28.368 14.24 28.104 14.24 27.72 14.24ZM54.456 8.12C54.408 8.192 54.384 8.264 54.384 8.408C54.384 8.408 54.672 14.168 57.864 19.4C58.272 20.048 60.984 24.44 64.68 25.4C64.752 25.424 64.92 25.472 64.92 25.568C64.92 25.688 64.848 25.688 64.08 25.856C63.24 26.048 62.664 26.408 62.424 26.576C61.968 26.912 61.896 26.984 61.824 26.984C61.728 26.984 58.68 25.088 56.352 20C55.92 19.04 54.384 15.752 54.048 10.712C54.024 10.448 54.024 10.424 53.928 10.424C53.784 10.424 53.784 10.52 53.688 11.384C53.616 12.152 52.992 17.744 50.616 21.656C48.048 25.928 43.848 27.368 43.632 27.368C43.56 27.368 43.488 27.344 43.488 27.248C43.488 27.176 43.608 27.08 43.8 26.96C45.192 26.024 47.88 23.888 49.488 20.792C52.224 15.584 52.224 8.72 52.224 8.456C52.224 7.76 52.224 7.496 52.128 6.992C52.104 6.92 52.032 6.584 52.032 6.512C52.032 6.392 52.152 6.32 52.224 6.32C52.368 6.32 53.4 6.656 53.616 6.704C54.768 7.016 55.248 7.16 55.248 7.592C55.248 7.856 55.056 7.928 54.84 7.976C54.648 8 54.528 8.024 54.456 8.12ZM78.528 9.68C78.048 9.68 78.024 9.872 78.024 10.016C78.024 10.088 78.072 10.184 78.072 10.28C78.168 11.048 78.312 11.816 78.312 12.872C78.312 14.48 77.952 16.712 75.84 19.904C73.92 22.832 72.696 23.408 71.736 23.408C70.152 23.408 68.736 20.936 68.736 18.008C68.736 16.736 69 14.312 71.4 11.888C74.448 8.768 77.664 8.768 79.056 8.768C81.24 8.768 82.248 9.2 82.92 9.536C85.512 10.808 87.096 13.376 87.096 16.52C87.096 19.64 85.296 23.48 81.048 24.968C79.008 25.688 77.424 25.856 77.064 25.856C76.968 25.856 76.824 25.832 76.824 25.688C76.824 25.616 76.872 25.592 77.472 25.352C79.968 24.368 85.176 22.304 85.176 16.328C85.176 15.392 85.08 9.68 78.528 9.68ZM77.184 9.752C74.904 9.752 70.224 12.848 70.224 17.384C70.224 18.944 70.848 21.08 72.312 21.08C73.008 21.08 73.584 20.792 75.24 18.296C76.512 16.352 77.592 13.688 77.592 11.312C77.592 9.872 77.496 9.752 77.184 9.752ZM97.032 7.544H107.256C107.616 7.544 108 7.448 108.216 7.16C108.432 6.848 108.456 6.824 108.6 6.824C108.816 6.824 110.592 7.784 110.592 8.192C110.592 8.336 110.376 8.504 110.088 8.744C109.824 8.96 109.824 9.128 109.824 10.688C109.824 11.336 109.872 14.192 109.872 14.792C109.872 15.536 109.872 15.824 109.68 16.016C109.344 16.4 108.84 16.448 108.6 16.448C108.12 16.448 108.096 16.208 108 15.68C107.928 15.176 107.544 15.176 107.304 15.176H96.768C96.048 15.176 96.048 15.512 96.024 15.848C96 16.544 95.304 16.832 94.68 16.832C94.44 16.832 94.152 16.784 94.152 16.208C94.152 16.016 94.248 15.176 94.248 15.008C94.272 13.952 94.272 12.44 94.272 11.36C94.272 9.392 94.224 8.504 94.152 7.544C94.128 7.352 94.104 7.016 94.104 6.848C94.104 6.752 94.104 6.632 94.248 6.632C94.416 6.632 95.496 7.136 95.784 7.28C96.312 7.52 96.744 7.544 97.032 7.544ZM100.44 8.168H96.624C95.88 8.168 95.88 8.528 95.88 9.248C95.88 10.808 95.88 10.976 96.624 10.976H100.44C101.208 10.976 101.208 10.808 101.208 9.176C101.208 8.528 101.184 8.168 100.44 8.168ZM96.624 14.528H100.464C101.208 14.528 101.208 14.216 101.208 13.4C101.208 11.792 101.208 11.624 100.464 11.624H96.624C95.88 11.624 95.88 11.816 95.88 13.472C95.88 14.192 95.88 14.528 96.624 14.528ZM103.56 14.528H107.4C107.664 14.528 107.904 14.504 108.048 14.264C108.144 14.12 108.144 12.464 108.144 12.2C108.144 11.624 107.568 11.624 107.4 11.624H103.56C103.368 11.624 102.96 11.624 102.84 12.008C102.816 12.128 102.816 13.64 102.816 13.952C102.816 14.528 103.368 14.528 103.56 14.528ZM107.4 8.168H103.536C102.816 8.168 102.816 8.336 102.816 9.608C102.816 10.784 102.816 10.976 103.536 10.976H107.4C108.12 10.976 108.12 10.784 108.12 9.608C108.096 8.336 108.12 8.168 107.4 8.168ZM103.008 18.584H107.976C108.288 18.584 108.624 18.536 108.84 18.32C108.96 18.224 109.368 17.552 109.536 17.552C109.728 17.552 111.744 18.512 111.744 18.896C111.744 19.04 111.552 19.184 111.432 19.256C111.24 19.4 110.856 19.664 110.832 19.976C110.784 21.248 110.688 22.544 110.256 24.32C109.584 27.032 107.088 27.656 106.584 27.656C106.44 27.656 106.368 27.464 106.32 27.296C106.176 26.84 105.984 26.624 105.168 26.096C104.928 25.928 103.632 25.232 103.632 25.136C103.632 25.064 103.704 25.064 103.752 25.064C103.944 25.064 106.176 25.304 106.632 25.304C107.352 25.304 108.216 24.992 108.552 24.008C108.912 22.928 109.152 20.672 109.152 19.88C109.152 19.232 108.672 19.208 108.432 19.208H102.984C102.408 19.208 102.072 19.376 101.904 20C100.848 23.672 98.712 25.136 97.896 25.664C96.672 26.48 94.368 27.392 92.544 27.392C92.472 27.392 92.232 27.392 92.232 27.272C92.232 27.224 92.664 27.08 92.712 27.056C94.8 26.432 96.72 25.592 98.232 23.768C99.672 22.064 100.176 20 100.176 19.76C100.176 19.232 99.672 19.208 99.456 19.208H96.192C95.616 19.208 93.984 19.232 93.168 19.28C93.096 19.28 92.736 19.328 92.64 19.328C92.568 19.328 92.52 19.28 92.448 19.184L91.968 18.632C91.872 18.512 91.872 18.512 91.872 18.464C91.872 18.416 91.92 18.416 91.968 18.416C92.112 18.416 92.832 18.488 93 18.488C93.696 18.536 94.944 18.584 96.312 18.584H99.672C100.32 18.584 100.488 18.512 100.488 16.688C100.488 16.424 100.464 16.232 100.368 15.968C100.296 15.896 100.128 15.704 100.128 15.656C100.128 15.512 100.488 15.512 100.632 15.512C101.304 15.512 102.864 15.776 102.864 16.208C102.864 16.28 102.504 16.592 102.432 16.664C102.312 16.88 102.264 17.696 102.264 17.936C102.264 18.584 102.768 18.584 103.008 18.584ZM122.664 13.328C122.664 14.504 121.92 14.816 121.608 14.816C121.2 14.816 121.2 14.336 121.2 14.096C121.2 13.4 121.128 12.56 121.008 11.792C120.984 11.672 120.816 11.192 120.816 11.096C120.816 11.072 120.84 11.024 120.888 11.024C121.2 11.024 122.664 11.96 122.664 13.328ZM120.024 8.168C120.048 9.392 119.928 15.632 119.928 17.144V24.656C119.928 24.944 120 26.12 120 26.36C120 27.344 119.472 27.776 118.92 27.776C118.584 27.776 118.152 27.656 118.152 26.672C118.152 26.552 118.224 25.472 118.224 25.376C118.368 23.336 118.368 20.816 118.368 18.344C118.368 16.424 118.368 8.456 118.272 7.184C118.248 7.04 118.08 6.344 118.08 6.2C118.08 6.08 118.152 6.008 118.32 6.008C118.416 6.008 120.24 6.344 120.624 6.536C120.696 6.584 120.792 6.656 120.792 6.8C120.792 7.016 120.624 7.136 120.384 7.352C120.096 7.568 120.024 7.76 120.024 8.168ZM117.24 13.712C117.24 15.368 116.592 17.096 115.68 17.096C115.2 17.096 114.792 16.592 114.792 16.016C114.792 15.56 114.936 15.32 115.656 14.024C116.136 13.184 116.448 12.008 116.592 11.024C116.616 10.904 116.616 10.88 116.664 10.88C116.976 10.88 117.24 12.704 117.24 13.712ZM126.288 11.888H127.632C128.376 11.888 128.376 11.504 128.376 11.048C128.376 10.568 128.328 8.528 128.328 8.12C128.328 7.328 128.328 7.232 128.256 6.968C128.232 6.872 128.016 6.344 128.016 6.224C128.016 5.984 128.28 5.936 128.448 5.936C128.736 5.936 130.248 6.32 130.56 6.416C130.776 6.488 130.872 6.656 130.872 6.824C130.872 7.04 130.752 7.16 130.488 7.376C130.128 7.688 130.08 7.904 130.08 9.248V11.432C130.152 11.84 130.464 11.888 130.8 11.888H132.072C133.104 11.888 133.224 11.888 133.632 11.216C133.776 10.976 134.088 10.544 134.28 10.544C134.568 10.544 136.344 11.96 136.344 12.224C136.344 12.512 135.816 12.512 135.048 12.512H130.8C130.584 12.512 130.248 12.56 130.104 12.872C130.008 13.088 130.008 16.592 130.008 16.928C130.008 18.296 130.008 18.56 130.776 18.56H131.952C132.816 18.56 133.128 18.56 133.44 18.248C133.584 18.08 134.112 17.192 134.304 17.192C134.472 17.192 136.368 18.488 136.368 18.896C136.368 19.208 135.864 19.208 135.072 19.208H130.776C130.584 19.208 130.2 19.208 130.08 19.592C130.008 19.808 130.008 23.6 130.008 24.008C130.008 25.784 130.008 25.88 130.776 25.88H132.672C133.44 25.88 133.656 25.88 133.92 25.664C134.136 25.448 134.808 24.2 135.072 24.2C135.384 24.2 137.16 25.76 137.16 26.168C137.16 26.528 136.632 26.528 135.84 26.528H125.472C123.384 26.528 122.688 26.576 122.448 26.576C122.376 26.6 122.016 26.648 121.944 26.648C121.848 26.648 121.824 26.576 121.728 26.48L121.272 25.928C121.224 25.856 121.176 25.808 121.176 25.784C121.176 25.736 121.2 25.712 121.248 25.712C121.416 25.712 122.16 25.808 122.304 25.808C123.48 25.856 124.464 25.88 125.592 25.88H127.632C128.4 25.88 128.4 25.712 128.4 23.504C128.4 19.976 128.4 19.568 128.232 19.376C128.088 19.208 127.968 19.208 127.056 19.208C125.76 19.208 124.776 19.232 124.392 19.28C124.32 19.28 123.96 19.328 123.888 19.328C123.816 19.328 123.768 19.28 123.672 19.16L123.216 18.608C123.12 18.512 123.12 18.488 123.12 18.464C123.12 18.416 123.144 18.416 123.192 18.416C123.36 18.416 124.104 18.488 124.272 18.488C126.192 18.56 126.984 18.56 127.728 18.56C128.424 18.56 128.424 18.08 128.424 17.696C128.424 14.36 128.424 14 128.4 13.352C128.376 12.848 128.376 12.512 127.632 12.512H126.072C125.472 12.512 125.4 12.656 124.872 13.832C124.272 15.128 123.552 16.496 122.232 17.888C122.136 18.008 122.064 18.08 121.992 18.08C121.944 18.08 121.92 18.032 121.92 18.008C121.92 17.96 123.096 15.224 123.288 14.696C123.816 13.328 124.776 10.448 124.776 8.84C124.776 8.72 124.68 8.144 124.68 8.048C124.68 7.856 124.872 7.832 124.968 7.832C125.04 7.832 127.344 8.408 127.344 8.984C127.344 9.152 127.272 9.2 126.768 9.536C126.288 9.824 125.856 11.48 125.856 11.552C125.856 11.888 126.144 11.888 126.288 11.888ZM147.816 12.488C148.44 12.488 149.232 12.848 150.816 14.432C153.72 17.336 156.096 18.392 157.536 19.04C158.664 19.568 159.648 20.096 159.648 20.792C159.648 20.936 159.432 21.704 158.76 21.704C158.544 21.704 156.384 21.632 152.808 18.2C152.232 17.648 149.664 15.056 149.136 14.552C148.584 14.024 148.176 13.712 147.792 13.712C147 13.712 146.784 13.928 144.816 15.848C144.648 16.016 142.896 17.672 142.848 17.696C142.752 17.768 142.608 17.816 142.464 17.816C141.552 17.816 140.136 16.688 140.136 16.28C140.136 16.184 140.184 16.16 140.592 16.112C141.696 16.016 143.448 15.104 144.504 14.264C146.52 12.656 147 12.488 147.816 12.488ZM168.648 26.24C168.648 26.816 168.168 27.392 167.712 27.392C167.208 27.392 167.112 27.224 166.32 25.784C165.84 24.944 165.216 24.104 163.8 23.216C163.728 23.168 163.464 23 163.464 22.928C163.464 22.856 163.536 22.76 163.728 22.76C164.568 22.76 168.648 24.008 168.648 26.24ZM13.032 52.896C13.032 53.52 14.76 58.416 14.76 59.472C14.76 59.928 14.592 60.384 14.232 60.384C13.176 60.384 12.792 58.296 12.6 57.288C12.48 56.688 11.952 54.072 11.832 53.52C11.76 53.088 11.64 52.776 11.208 52.776C11.112 52.776 8.256 53.448 7.08 53.832C6.84 53.904 5.856 54.456 5.616 54.456C5.256 54.456 2.856 53.4 2.856 52.68C2.856 52.488 3.024 52.44 3.144 52.44C3.36 52.44 4.368 52.536 4.584 52.536C6.408 52.536 7.848 52.248 10.416 51.72C11.04 51.6 11.184 51.504 11.184 51.096C11.184 50.712 11.016 50.016 10.68 48.696C10.512 48.096 10.416 47.856 10.056 47.856C9.504 47.856 6.792 48.768 6.72 48.768C6.168 48.768 4.536 47.904 4.536 47.472C4.536 47.304 4.824 47.304 5.04 47.304C5.64 47.304 7.368 47.184 8.736 46.896C9.576 46.704 9.936 46.56 9.936 46.104C9.936 46.008 9.648 43.728 8.592 42.816C8.424 42.672 7.488 42.048 7.488 41.952C7.488 41.808 8.208 41.544 8.736 41.544C9.216 41.544 10.896 42.072 10.968 42.552C11.016 42.888 11.064 44.28 11.112 44.568C11.328 46.128 11.592 46.128 11.928 46.128C12.168 46.128 13.68 45.624 14.016 45.48C15.048 45.024 15.168 44.976 15.504 44.976C16.272 44.976 16.92 45.48 16.92 45.864C16.92 46.344 16.464 46.44 14.712 46.776C12.768 47.16 12.552 47.232 12.288 47.304C11.856 47.448 11.832 47.64 11.832 47.904C11.832 48.312 12.144 49.584 12.264 50.064C12.48 50.88 12.576 51.096 13.008 51.096C13.44 51.096 15.504 50.448 16.08 50.184C16.872 49.824 17.4 49.584 18.456 49.584C19.728 49.584 20.256 50.232 20.256 50.64C20.256 51.36 19.272 51.384 18.408 51.384C17.04 51.408 14.784 51.912 14.088 52.08C13.08 52.296 13.032 52.44 13.032 52.896ZM19.776 41.064C21.072 41.064 23.04 41.904 23.04 43.272C23.04 43.536 22.848 43.992 22.416 43.992C21.912 43.992 21.6 43.584 21.192 43.032C20.856 42.576 19.92 41.928 19.176 41.592C18.936 41.472 18.864 41.376 18.864 41.304C18.864 41.064 19.632 41.064 19.776 41.064ZM17.448 43.152C19.176 43.152 20.856 44.424 20.856 45.504C20.856 45.792 20.568 46.416 20.112 46.416C19.776 46.416 19.56 46.2 18.912 45.264C18.576 44.76 18.408 44.616 17.328 43.704C17.256 43.632 17.016 43.416 17.016 43.32C17.016 43.2 17.232 43.152 17.448 43.152ZM28.44 44.736C28.56 44.736 28.704 44.808 28.896 44.88C29.448 45.144 30.384 45.408 30.888 45.408C31.872 45.408 38.904 44.712 39.936 44.256C40.68 43.92 40.776 43.872 40.944 43.872C41.472 43.872 41.856 44.208 42.6 44.856C43.68 45.816 43.824 46.08 43.824 46.416C43.824 46.728 43.704 46.848 43.272 47.28C42.888 47.64 42.792 47.832 42.336 48.792C38.568 56.616 30.192 59.976 29.952 59.976C29.832 59.976 29.784 59.88 29.784 59.832C29.784 59.736 29.856 59.688 30.096 59.52C34.272 56.592 37.656 53.424 39.576 50.016C40.752 47.952 41.208 46.2 41.208 45.96C41.208 45.552 40.8 45.528 40.68 45.528C40.416 45.528 33.432 46.704 32.04 47.256C31.848 47.352 30.984 47.784 30.792 47.784C30.48 47.784 30.312 47.784 29.064 46.632C28.608 46.224 28.368 45.984 28.368 45.288C28.368 45.096 28.392 44.976 28.44 44.736ZM56.808 42.096C56.832 41.88 57.456 41.88 57.48 41.88C58.344 41.88 60.072 42.648 60.072 43.416C60.072 43.584 59.832 44.28 59.784 44.424C59.664 45.024 59.568 47.16 59.568 47.76C59.568 48.288 59.664 48.36 60.36 48.528C61.824 48.864 65.544 50.616 65.544 52.416C65.544 53.208 64.8 53.256 64.68 53.256C64.08 53.256 64.008 53.16 62.4 51.072C61.728 50.184 60.6 49.056 59.856 49.056C59.616 49.056 59.52 49.056 59.52 50.832C59.52 53.376 59.544 54.648 59.64 56.808C59.664 57.072 59.688 57.672 59.688 58.032C59.688 58.632 59.688 60.216 58.992 60.216C58.272 60.216 57.648 58.584 57.648 57.96C57.648 57.864 57.744 57.36 57.744 57.264C57.912 55.272 57.96 54.648 57.96 51.696C57.96 44.832 57.96 44.064 57.672 43.296C57.48 42.792 57.24 42.552 56.856 42.192L56.808 42.096ZM77.616 53.088C77.616 53.808 77.856 54.528 78.24 54.528C78.648 54.528 78.864 54.144 79.392 52.656C79.536 52.248 79.608 52.056 79.728 52.056C79.848 52.056 79.848 52.296 79.848 52.344C79.848 52.608 79.296 55.416 79.296 55.992C79.296 56.4 79.632 57.12 79.68 57.24C79.848 57.576 79.968 57.984 79.968 58.296C79.968 58.776 79.584 59.112 79.176 59.112C77.688 59.112 76.584 55.032 76.584 52.728C76.584 51.192 76.776 50.496 77.592 47.496C78 46.032 78 45.432 78 45C78 44.232 77.856 43.584 77.76 43.296C77.736 43.224 77.616 42.936 77.616 42.864C77.616 42.792 77.712 42.744 77.808 42.744C78.912 42.744 79.92 44.928 79.92 45.792C79.92 46.056 79.92 46.08 79.464 46.896C79.2 47.4 77.616 50.928 77.616 53.088ZM90.048 44.208C90.48 44.28 91.056 44.688 91.056 45.24C91.056 46.416 88.392 46.416 88.104 46.416C85.392 46.416 83.904 44.952 83.904 44.64C83.904 44.592 83.928 44.52 84.072 44.52C84.144 44.52 84.432 44.616 84.744 44.688C85.296 44.808 85.944 44.832 86.376 44.832C87.552 44.832 88.68 44.592 89.016 44.472C89.736 44.208 89.808 44.184 90.048 44.208ZM91.08 56.112C91.992 56.112 92.184 56.64 92.184 56.928C92.184 57.864 91.464 58.152 88.104 58.152C85.752 58.152 84.864 57.552 84.36 57.072C84.24 56.952 83.616 56.328 83.616 55.872C83.616 55.824 83.616 55.632 83.736 55.632C83.832 55.632 84.216 55.92 84.312 55.968C85.008 56.328 85.992 56.376 86.88 56.376C87.504 56.376 88.368 56.376 88.968 56.304C89.304 56.28 90.984 56.112 91.08 56.112ZM106.872 40.464C107.592 40.392 109.272 41.976 109.272 42.624C109.272 42.84 108.144 44.856 108.144 45.264C108.144 45.432 108.264 45.6 108.576 45.816C109.152 46.224 109.44 46.488 109.44 46.848C109.44 47.232 109.176 47.424 107.664 47.952C107.016 48.168 106.968 48.336 106.512 49.848C106.368 50.352 106.008 51.504 106.008 51.936C106.008 52.32 106.104 52.32 107.784 52.464C108.36 52.512 109.488 52.872 109.488 53.472C109.488 53.904 108.84 54.168 108.24 54.168C107.88 54.168 106.152 53.856 106.032 53.856C105.432 53.856 105.432 54.984 105.432 55.512C105.456 56.592 105.744 59.088 108.744 59.088C109.752 59.088 112.2 58.656 112.2 55.824C112.2 54.792 111.984 53.424 109.824 50.4C109.752 50.304 109.728 50.232 109.728 50.16C109.728 49.944 110.256 50.4 110.328 50.448C113.088 52.68 114.168 54.576 114.168 56.256C114.168 58.536 111.864 60.576 109.056 60.576C108.6 60.576 104.472 60.576 104.472 56.232C104.472 55.848 104.664 54.216 104.664 53.88C104.664 53.592 104.616 53.424 104.208 53.112C103.344 52.464 102.912 51.816 102.912 51.072C102.912 50.352 103.176 49.56 104.688 48.336C105.936 47.328 106.08 47.232 106.08 46.896C106.08 46.584 105.96 46.488 105.432 46.08C104.736 45.528 103.824 44.808 103.824 43.8C103.824 43.632 103.872 43.368 104.04 43.368C104.16 43.368 104.568 43.872 104.664 43.944C105.312 44.472 106.008 44.784 106.296 44.784C106.968 44.784 107.16 42.648 107.16 42.312C107.16 41.832 107.04 41.04 106.92 40.704C106.872 40.608 106.872 40.536 106.872 40.464ZM105.6 49.08C105.6 48.888 105.6 48.672 105.288 48.672C104.736 48.672 103.536 49.488 103.536 50.4C103.536 51.12 104.28 51.84 104.76 51.84C104.856 51.84 104.976 51.768 105.024 51.648C105.24 51.24 105.6 49.2 105.6 49.08ZM121.92 49.92L121.464 49.368C121.368 49.272 121.368 49.248 121.368 49.224C121.368 49.176 121.392 49.152 121.44 49.152C121.608 49.152 122.352 49.224 122.496 49.248C123.672 49.296 124.656 49.32 125.784 49.32H138.456C139.584 49.32 139.704 49.32 139.992 48.912C140.496 48.216 140.568 48.12 140.784 48.12C141.072 48.12 142.776 49.464 142.776 49.632C142.776 49.968 142.272 49.968 141.48 49.968H132.432C132.24 49.968 131.736 49.968 131.736 50.64C131.736 51.48 131.712 55.152 131.736 55.896C131.736 56.64 131.808 59.976 131.808 60.672C131.808 61.752 130.776 61.824 130.632 61.824C130.056 61.824 129.912 61.512 129.912 61.104C129.912 60.696 130.032 58.872 130.032 58.488C130.032 58.008 129.84 57.912 129.576 57.912C129.384 57.912 124.512 59.232 123.648 59.832C123.528 59.928 123.024 60.432 122.88 60.432C122.568 60.432 121.68 58.608 121.68 58.536C121.68 58.272 121.896 58.272 122.208 58.272C124.512 58.272 124.8 58.2 124.8 57.528V51.144C124.8 50.304 124.8 49.968 124.032 49.968C123.744 49.968 122.352 50.088 122.136 50.088C122.04 50.088 122.016 50.016 121.92 49.92ZM129.384 52.728H127.104C126.36 52.728 126.36 53.04 126.36 53.928C126.36 54.552 126.36 54.912 127.104 54.912H129.384C130.128 54.912 130.128 54.672 130.128 53.496C130.128 52.92 129.912 52.728 129.384 52.728ZM129.432 49.968H127.056C126.384 49.968 126.384 50.256 126.384 51.408C126.384 52.104 126.864 52.104 127.056 52.104H129.432C130.128 52.104 130.128 51.816 130.128 50.64C130.128 49.968 129.648 49.968 129.432 49.968ZM129.36 55.56H127.08C126.36 55.56 126.36 55.824 126.36 57.072C126.36 57.72 126.84 57.768 126.984 57.768C127.008 57.768 129.624 57.432 129.816 57.336C130.08 57.192 130.08 56.904 130.08 56.256C130.08 55.56 129.576 55.56 129.36 55.56ZM136.512 51.72H137.52C137.904 51.72 138.072 51.72 138.336 51.288C138.72 50.688 138.768 50.616 138.96 50.616C138.984 50.616 139.728 50.928 140.112 51.096C140.472 51.24 141.048 51.48 141.048 51.792C141.048 51.984 140.304 52.776 140.184 52.992C140.016 53.328 139.128 55.68 138.912 56.184C138.816 56.376 138.288 57.36 138.288 57.432C138.288 57.528 138.288 57.576 138.36 57.648C139.08 58.32 140.016 58.896 141.072 59.4C141.36 59.544 142.896 60.12 142.896 60.24C142.896 60.336 142.68 60.408 142.656 60.408C141.912 60.696 141.624 60.792 141.36 61.056C141.264 61.128 140.88 61.608 140.76 61.608C140.64 61.608 139.368 60.72 138.6 60.072C138.36 59.88 137.376 58.728 137.184 58.728C137.112 58.728 137.04 58.776 136.464 59.256C134.448 60.888 133.056 61.344 132.768 61.344C132.72 61.344 132.672 61.344 132.672 61.296C132.672 61.176 133.824 60.384 134.04 60.216C135.552 59.016 136.464 57.648 136.464 57.528C136.464 57.456 136.416 57.36 136.368 57.264C136.248 57.048 135.384 55.584 134.712 53.304C134.472 52.464 134.448 52.368 133.968 52.368C133.8 52.368 133.032 52.464 132.84 52.464C132.768 52.464 132.72 52.416 132.624 52.32L132.168 51.768C132.072 51.648 132.072 51.648 132.072 51.6C132.072 51.552 132.12 51.552 132.144 51.552C132.312 51.552 133.032 51.624 133.2 51.624C133.896 51.648 135.144 51.72 136.512 51.72ZM137.856 52.344H135.576C135.432 52.344 135.168 52.344 135.168 52.68C135.168 53.28 136.632 56.328 137.112 56.328C137.52 56.328 138.408 53.568 138.408 52.752C138.408 52.344 138.096 52.344 137.856 52.344ZM135.168 47.568H128.592C127.944 47.568 127.92 47.592 127.728 47.88C127.56 48.168 127.368 48.48 126.624 48.48C125.856 48.48 125.832 48.072 125.832 47.496C125.832 47.016 125.928 44.64 125.928 44.112C125.928 42.768 125.832 41.832 125.808 41.64C125.808 41.52 125.712 40.992 125.712 40.872C125.712 40.776 125.736 40.584 125.88 40.584C126.096 40.584 127.056 40.992 127.296 41.088C127.728 41.232 127.992 41.28 128.616 41.28H135.192C136.176 41.28 136.296 41.28 136.584 40.944C136.776 40.704 136.872 40.584 137.016 40.584C137.064 40.584 138.792 41.376 138.792 41.832C138.792 42 138.72 42.072 138.384 42.384C138.024 42.696 138.024 42.696 138.024 46.704C138.024 47.352 138.024 48.312 136.824 48.312C136.392 48.312 136.32 48.144 136.152 47.832C136.032 47.592 135.816 47.568 135.168 47.568ZM128.352 44.088H135.648C135.888 44.088 136.368 44.088 136.368 43.392C136.368 42.192 136.368 41.904 135.648 41.904H128.352C128.112 41.904 127.608 41.904 127.608 42.624C127.608 43.824 127.608 44.088 128.352 44.088ZM128.4 46.944H135.6C135.84 46.944 136.344 46.944 136.344 46.272C136.344 44.928 136.344 44.736 135.6 44.736H128.4C128.136 44.736 127.656 44.736 127.656 45.384C127.656 46.752 127.656 46.944 128.4 46.944ZM162.744 47.136H154.704C154.44 47.136 153.936 47.136 153.936 47.808V56.52C153.936 56.976 153.888 57.72 152.952 57.72C152.304 57.72 152.304 57.144 152.304 56.88C152.304 56.544 152.4 55.008 152.4 54.696C152.496 52.272 152.496 52.224 152.496 48.384C152.496 48.024 152.424 46.512 152.424 46.2C152.424 45.984 152.472 45.816 152.736 45.816C153 45.816 153.24 45.936 153.96 46.344C154.272 46.512 154.44 46.512 154.68 46.512H155.64C155.76 46.512 155.928 46.512 155.928 46.32C155.928 46.176 155.52 44.712 155.304 44.232C154.872 43.32 154.776 43.296 154.224 43.296C154.152 43.296 153 43.32 152.376 43.368C152.328 43.368 152.088 43.392 152.04 43.392C151.968 43.392 151.872 43.32 151.824 43.248L151.368 42.696C151.32 42.624 151.272 42.576 151.272 42.528C151.272 42.504 151.296 42.48 151.344 42.48C151.512 42.48 152.256 42.552 152.4 42.576C153.576 42.624 154.584 42.648 155.712 42.648H157.128C157.32 42.648 157.752 42.648 157.752 42.12C157.752 41.928 157.704 41.232 157.632 40.848C157.608 40.728 157.488 40.296 157.488 40.2C157.488 40.056 157.584 39.936 157.776 39.936C157.944 39.936 159.888 40.152 159.888 40.704C159.888 40.872 159.864 40.896 159.6 41.184C159.432 41.352 159.336 41.544 159.336 41.976C159.336 42.6 159.528 42.648 160.032 42.648H161.904C162.984 42.648 163.104 42.648 163.44 42.216C164.112 41.352 164.184 41.256 164.4 41.256C164.664 41.256 166.464 42.576 166.464 42.936C166.464 43.272 166.08 43.272 165.36 43.272H162.072C161.88 43.272 161.76 43.296 161.76 43.392C161.76 43.464 162.048 43.608 162.216 43.752C162.552 43.992 162.84 44.184 162.84 44.472C162.84 44.64 162.768 44.664 162.216 44.856C161.76 45 160.512 46.32 160.512 46.392C160.512 46.512 160.656 46.512 160.752 46.512H162.648C162.912 46.512 163.056 46.488 163.224 46.272C163.584 45.768 163.656 45.648 163.824 45.648C164.064 45.648 165.504 46.56 165.504 47.016C165.504 47.208 165.432 47.256 165.072 47.496C164.904 47.616 164.856 47.832 164.856 48.216V51.264C164.856 51.936 164.976 54.84 164.976 55.416C164.976 56.664 164.736 57.144 164.376 57.456C164.232 57.576 163.776 57.936 163.2 57.936C162.624 57.936 162.6 57.72 162.6 57.384C162.6 56.856 162.24 56.544 162.168 56.496C162.072 56.448 161.616 56.256 161.616 56.184C161.616 56.088 161.712 56.088 161.76 56.088C161.904 56.088 162.528 56.184 162.672 56.184C163.44 56.184 163.44 55.896 163.44 54.744C163.44 53.664 163.464 48.888 163.464 47.928C163.464 47.136 162.984 47.136 162.744 47.136ZM159.456 56.28H157.608C157.224 56.28 157.176 56.352 157.104 56.64C157.008 57.12 156.576 57.312 156.216 57.312C155.784 57.312 155.736 56.952 155.736 56.688C155.736 56.4 155.784 54.264 155.784 53.808C155.784 53.592 155.736 52.488 155.736 52.248C155.736 52.152 155.76 51.936 156.048 51.936C156.24 51.936 157.152 52.416 157.392 52.416C157.776 52.416 157.848 52.224 157.848 51.912C157.848 50.592 157.848 50.448 157.176 50.448C156.936 50.448 155.76 50.544 155.568 50.544C155.496 50.544 155.448 50.496 155.352 50.4L154.896 49.848C154.8 49.728 154.8 49.728 154.8 49.68C154.8 49.632 154.848 49.632 154.872 49.632C155.208 49.632 156.888 49.752 157.248 49.752C157.824 49.752 157.872 49.536 157.872 49.248C157.872 48.888 157.848 48.504 157.776 48.096C157.752 47.88 157.656 47.688 157.656 47.616C157.656 47.472 157.728 47.448 158.04 47.448C158.064 47.448 159.672 47.472 159.672 48.048C159.672 48.216 159.552 48.312 159.36 48.48C159.216 48.6 159.192 48.96 159.192 49.152C159.192 49.728 159.336 49.824 159.984 49.824C160.488 49.824 160.632 49.728 160.896 49.368C161.208 48.96 161.376 48.816 161.544 48.816C161.808 48.816 162.84 49.68 162.84 50.088C162.84 50.4 162.648 50.448 161.472 50.448H159.984C159.192 50.448 159.192 50.568 159.192 51.84C159.192 52.08 159.288 52.416 159.672 52.416C159.912 52.416 160.032 52.248 160.104 52.176C160.344 51.888 160.368 51.816 160.56 51.816C160.872 51.816 161.88 52.464 161.88 52.8C161.88 52.92 161.472 53.352 161.448 53.472C161.4 53.784 161.448 55.608 161.448 55.824C161.448 57.144 160.608 57.144 160.536 57.144C160.224 57.144 160.104 56.928 160.032 56.688C159.912 56.304 159.864 56.28 159.456 56.28ZM160.344 43.272H156.168C155.928 43.272 155.76 43.296 155.76 43.392C155.76 43.464 155.808 43.488 156.192 43.776C156.672 44.112 157.272 44.76 157.272 45.36C157.272 45.648 157.176 45.888 157.104 46.056C157.08 46.104 156.912 46.32 156.912 46.368C156.912 46.512 157.104 46.512 157.176 46.512H159.168C159.552 46.512 159.672 46.512 160.08 45.744C160.224 45.48 160.824 44.232 160.824 43.608C160.824 43.32 160.704 43.272 160.344 43.272ZM159.432 53.04H157.8C157.128 53.04 157.128 53.28 157.128 54.432C157.128 55.392 157.128 55.656 157.8 55.656H159.432C160.08 55.656 160.08 55.416 160.08 54.288C160.08 53.304 160.08 53.04 159.432 53.04ZM147.504 41.568C150.36 42.936 150.84 44.784 150.84 45.216C150.84 45.768 150.432 46.08 150.024 46.08C149.592 46.08 149.496 45.936 148.512 44.544C148.08 43.92 146.496 41.904 146.256 41.64C146.064 41.424 145.896 41.232 145.656 40.992C145.656 40.944 145.728 40.92 145.752 40.92C145.968 40.92 147.12 41.376 147.504 41.568ZM145.512 50.472L145.056 49.92C144.96 49.8 144.96 49.8 144.96 49.752C144.96 49.704 145.008 49.704 145.032 49.704C145.32 49.704 147.312 49.848 147.744 49.848C148.08 49.848 148.224 49.704 148.416 49.488C148.752 49.08 148.92 48.888 149.16 48.888C149.424 48.888 150.696 49.824 150.696 50.208C150.696 50.376 150.552 50.496 150.48 50.544C149.976 50.856 149.88 50.928 149.808 51.12C149.736 51.312 149.736 55.056 149.736 55.512C149.736 56.16 149.736 56.736 150.096 57.336C151.2 59.184 153.672 59.184 155.136 59.184C158.904 59.184 163.752 59.184 166.344 58.512C166.512 58.464 167.328 58.176 167.424 58.176C167.448 58.176 167.496 58.2 167.496 58.248C167.496 58.296 167.472 58.32 167.232 58.584C166.848 59.016 166.344 59.64 166.248 60.048C166.104 60.552 166.056 60.72 165.888 60.816C165.696 60.912 160.608 60.912 160.2 60.912C156.504 60.912 154.296 60.912 152.712 60.312C150.84 59.616 150.096 58.704 149.832 58.296C149.712 58.104 149.256 57.24 149.088 57.24C148.872 57.24 147.24 59.136 146.688 59.832C146.16 60.528 146.112 60.6 145.992 60.6C145.632 60.6 144.456 58.848 144.456 58.584C144.456 58.392 144.552 58.392 144.96 58.392C145.152 58.392 147.816 57.168 148.08 56.712C148.176 56.544 148.176 56.016 148.176 51.336C148.176 50.544 147.864 50.544 147.288 50.544C147.072 50.544 145.872 50.64 145.728 50.64C145.632 50.64 145.608 50.568 145.512 50.472ZM176.448 43.848C176.616 43.704 176.664 43.32 176.664 43.104C176.664 42.744 176.544 42.384 176.328 42.048C176.256 41.928 175.872 41.472 175.872 41.376C175.872 41.088 176.376 40.872 176.856 40.872C177.816 40.872 178.2 41.4 178.584 41.928C178.704 42.096 178.944 42.192 179.664 42.384C180.12 42.504 181.032 42.768 181.032 43.44C181.032 44.352 179.688 44.784 177.744 45.36C177.528 45.432 177.504 45.504 177.288 46.344C177 47.544 174.936 55.656 172.728 55.656C172.08 55.656 171.984 55.224 171.984 54.984C171.984 54.648 172.056 54.528 172.776 53.496C175.392 49.656 176.088 45.792 176.088 45.672C176.088 45.456 175.92 45.432 175.56 45.408C172.728 45.168 172.728 43.488 172.728 43.464C172.728 43.368 172.752 43.176 172.896 43.176C172.992 43.176 173.064 43.2 173.544 43.488C173.808 43.656 174.48 43.992 175.392 43.992C175.44 43.992 176.28 43.992 176.448 43.848ZM177.96 43.632C178.032 43.704 179.472 43.392 179.472 43.032C179.472 42.864 178.632 42.432 178.488 42.432C178.08 42.432 177.912 43.416 177.912 43.488C177.912 43.536 177.936 43.608 177.96 43.632ZM183.72 57.744C183.624 57.792 183.624 57.888 183.576 58.128C183.264 60.216 181.44 60.744 180.192 60.744C177.912 60.744 176.568 59.16 176.568 57.96C176.568 56.4 178.272 55.584 180.432 55.584C180.624 55.584 181.512 55.632 181.68 55.632C181.896 55.632 182.016 55.608 182.016 55.368C182.016 55.008 181.92 53.4 181.92 53.064C181.92 50.424 182.064 49.152 184.08 48C185.568 47.136 185.736 47.064 185.736 46.44C185.736 45.912 185.208 45.36 185.064 45.216C184.848 45.024 184.752 44.928 184.752 44.832C184.752 44.76 184.824 44.712 184.92 44.712C185.088 44.712 185.832 44.928 186.336 45.12C187.992 45.744 188.088 47.208 188.088 47.568C188.088 48.48 187.44 48.816 186.96 48.816C186.936 48.816 186.648 48.816 186.408 48.72C185.496 48.384 185.4 48.336 185.112 48.336C184.536 48.336 183.744 48.672 183.36 49.056C182.808 49.584 182.784 50.448 182.784 51.048C182.784 51.648 183.024 55.368 183.744 55.872C183.96 56.04 185.088 56.424 185.304 56.544C185.808 56.808 187.2 57.576 187.2 58.464C187.2 58.872 187.032 59.304 186.552 59.304C186.312 59.304 186.168 59.232 185.808 58.92C185.16 58.344 184.056 57.6 183.72 57.744ZM182.088 57.12C181.968 56.76 180.672 56.76 180.12 56.76C179.568 56.76 177.408 56.76 177.408 58.032C177.408 58.608 178.128 59.328 179.568 59.328C181.896 59.328 182.232 57.504 182.088 57.12ZM12.5022 94H4.99022C4.84622 94 4.29422 93.976 4.29422 93.64C4.29422 92.368 5.83022 90.52 6.38222 89.872C12.0462 83.128 12.5502 82.504 12.5502 80.224C12.5502 78.088 10.9902 76.84 9.35822 76.84C7.91822 76.84 6.67022 77.824 6.67022 78.856C6.67022 78.928 6.67022 79.24 6.91022 79.576C7.22222 80.032 7.41422 80.296 7.41422 80.728C7.41422 81.424 6.83822 82.024 6.11822 82.024C5.30222 82.024 4.75022 81.304 4.75022 80.392C4.75022 78.352 6.86222 76.048 9.91022 76.048C12.5022 76.048 14.7102 77.728 14.7102 80.56C14.7102 83.032 13.1982 84.4 11.1582 86.104C7.53422 89.128 6.23822 91.36 6.23822 91.816C6.23822 92.176 7.00622 92.176 7.10222 92.176H9.57422C11.9982 92.176 13.3902 91.504 14.0622 89.92C14.4462 89.032 14.4462 89.008 14.5902 89.008C14.8302 89.008 14.8302 89.296 14.8302 89.344C14.8302 89.536 14.0622 92.632 13.9422 93.136C13.7262 94 12.8862 94 12.5022 94ZM20.5662 84.256C19.1262 84.256 17.7822 82.888 17.7822 82.192C17.7822 81.928 17.9262 81.808 18.1422 81.808C18.3822 81.808 19.3902 82.096 19.6062 82.096C20.2062 82.096 20.5182 81.952 23.4702 80.752C24.6222 80.296 27.9102 78.952 30.1902 78.952C33.7182 78.952 36.3102 81.688 36.3102 84.88C36.3342 89.248 31.8462 91.84 26.6862 91.84C26.4702 91.84 26.1102 91.84 26.1102 91.528C26.1102 91.336 26.2062 91.336 27.0942 91.216C33.0222 90.376 34.4622 86.152 34.4622 84.016C34.4622 81.232 32.2062 80.008 30.5742 80.008C28.2942 80.008 24.8622 81.832 22.7742 83.272C21.5742 84.112 21.2142 84.256 20.5662 84.256ZM52.1022 77.68C51.6222 77.68 51.5982 77.872 51.5982 78.016C51.5982 78.088 51.6462 78.184 51.6462 78.28C51.7422 79.048 51.8862 79.816 51.8862 80.872C51.8862 82.48 51.5262 84.712 49.4142 87.904C47.4942 90.832 46.2702 91.408 45.3102 91.408C43.7262 91.408 42.3102 88.936 42.3102 86.008C42.3102 84.736 42.5742 82.312 44.9742 79.888C48.0222 76.768 51.2382 76.768 52.6302 76.768C54.8142 76.768 55.8222 77.2 56.4942 77.536C59.0862 78.808 60.6702 81.376 60.6702 84.52C60.6702 87.64 58.8702 91.48 54.6222 92.968C52.5822 93.688 50.9982 93.856 50.6382 93.856C50.5422 93.856 50.3982 93.832 50.3982 93.688C50.3982 93.616 50.4462 93.592 51.0462 93.352C53.5422 92.368 58.7502 90.304 58.7502 84.328C58.7502 83.392 58.6542 77.68 52.1022 77.68ZM50.7582 77.752C48.4782 77.752 43.7982 80.848 43.7982 85.384C43.7982 86.944 44.4222 89.08 45.8862 89.08C46.5822 89.08 47.1582 88.792 48.8142 86.296C50.0862 84.352 51.1662 81.688 51.1662 79.312C51.1662 77.872 51.0702 77.752 50.7582 77.752ZM64.8462 76.504H72.0942C74.7822 76.504 78.1902 77.392 78.1902 80.368C78.1902 82.24 76.7982 83.68 75.2862 84.256C75.1422 84.304 74.7102 84.472 74.7102 84.592C74.7102 84.712 75.7182 84.928 75.9102 85C77.9742 85.816 79.1982 87.496 79.1982 89.176C79.1982 91.456 77.1582 94 72.6702 94H64.6302C64.2702 94 63.9102 94 63.9102 93.616C63.9102 93.232 64.2702 93.232 64.6542 93.232C65.4462 93.232 66.5022 93.232 66.7182 91.984C66.8142 91.504 66.8622 84.736 66.8622 83.8C66.8622 82.744 66.8862 78.832 66.6462 78.184C66.3342 77.296 65.2062 77.296 64.9662 77.296C64.1742 77.296 63.9102 77.296 63.9102 76.888C63.9102 76.504 64.1502 76.504 64.8462 76.504ZM69.2862 84.352H71.8782C74.1342 84.352 75.9582 83.152 75.9582 80.704C75.9582 78.376 74.3502 77.296 72.0942 77.296H70.3902C68.6622 77.296 68.6622 78.376 68.6622 80.464C68.6622 81.664 68.6622 83.824 68.7342 84.04C68.8302 84.256 69.1422 84.352 69.2862 84.352ZM72.5502 85.12H69.2862C69.1182 85.12 68.8302 85.216 68.7342 85.432C68.6382 85.648 68.6382 89.056 68.6382 89.608C68.6382 92.224 68.6382 93.232 70.3902 93.232H72.4782C75.0702 93.232 76.9182 91.768 76.9182 89.248C76.9182 87.136 75.4782 85.12 72.5502 85.12ZM96.9479 85.264C96.9479 90.64 93.7559 94.456 89.1239 94.456C84.4919 94.456 81.2759 90.664 81.2759 85.264C81.2759 79.864 84.4679 76.048 89.1239 76.048C93.7319 76.048 96.9479 79.84 96.9479 85.264ZM89.1239 93.664C94.4759 93.664 94.6679 86.68 94.6679 85.048C94.6679 82.84 94.0439 76.84 89.1239 76.84C83.7479 76.84 83.5559 83.896 83.5559 85.48C83.5559 87.784 84.2519 93.664 89.1239 93.664ZM105.079 94H99.7028C99.4148 94 99.0548 94 99.0548 93.616C99.0548 93.256 99.3668 93.232 99.6788 93.208C101.239 93.088 102.727 90.832 104.167 88.624C104.455 88.192 105.655 86.368 105.919 85.984C105.967 85.912 106.183 85.576 106.183 85.336C106.183 85.12 106.111 85 105.463 83.92C102.415 78.976 102.079 78.424 101.623 77.992C100.951 77.344 100.471 77.32 99.8228 77.296C99.5348 77.272 99.4388 77.056 99.4388 76.912C99.4388 76.504 99.7988 76.504 99.9908 76.504H105.895C106.183 76.504 106.543 76.504 106.543 76.912C106.543 77.296 106.159 77.296 106.063 77.296C105.607 77.296 104.503 77.296 104.503 78.256C104.503 78.688 104.671 78.976 106.207 81.448C106.471 81.88 106.879 82.552 107.143 82.96C107.215 83.08 107.383 83.344 107.527 83.344C107.695 83.344 107.887 83.008 108.247 82.48C108.631 81.904 110.527 79.144 110.695 78.76C110.791 78.568 110.863 78.352 110.863 78.136C110.863 77.296 109.975 77.296 109.591 77.296C109.039 77.296 108.751 77.296 108.751 76.912C108.751 76.504 109.111 76.504 109.351 76.504H114.295C114.487 76.504 114.847 76.504 114.847 76.912C114.847 77.008 114.799 77.296 114.415 77.296C112.591 77.296 111.511 78.904 109.999 81.232C109.735 81.64 108.583 83.344 108.367 83.704C108.319 83.776 108.103 84.112 108.103 84.328C108.103 84.568 108.175 84.688 108.823 85.744C111.895 90.736 112.231 91.288 112.711 91.84C113.383 92.632 114.343 93.208 115.399 93.232C115.687 93.232 115.807 93.448 115.807 93.616C115.807 94 115.447 94 115.159 94H108.967C108.655 94 108.319 94 108.319 93.616C108.319 93.232 108.655 93.232 108.991 93.232C109.351 93.232 110.263 93.088 110.263 92.176C110.263 91.744 110.239 91.72 109.063 89.824C108.439 88.792 107.263 86.872 107.167 86.728C107.095 86.632 106.903 86.344 106.783 86.344C106.591 86.344 105.943 87.328 105.727 87.64C105.055 88.648 103.951 90.232 103.327 91.24C103.231 91.408 103.015 91.768 103.015 92.248C103.015 93.112 103.903 93.232 104.959 93.232C105.487 93.232 105.775 93.232 105.775 93.616C105.775 94 105.439 94 105.079 94ZM119.906 83.512C119.978 83.512 120.002 83.512 120.338 83.608C120.554 83.656 120.986 83.68 121.226 83.68C122.186 83.68 122.594 83.56 126.242 82.6C126.89 82.432 126.938 82.24 126.938 80.968C126.938 78.376 126.65 77.968 126.074 77.104C126.05 77.056 125.786 76.696 125.786 76.648C125.786 76.432 126.674 76.24 126.89 76.24C127.178 76.24 127.442 76.36 128.546 77.296C128.618 77.368 129.05 77.776 129.05 78.016C129.05 78.208 128.642 78.952 128.594 79.096C128.402 79.864 128.234 81.304 128.234 81.4C128.234 81.712 128.426 81.856 128.714 81.856C128.858 81.856 131.642 81.16 132.314 80.848C132.482 80.776 133.178 80.344 133.346 80.344C133.994 80.344 136.562 82.192 136.562 83.176C136.562 83.344 136.442 83.536 136.13 83.536C136.034 83.536 135.578 83.488 135.482 83.488C134.978 83.488 134.714 83.656 133.85 84.184C133.25 84.568 132.146 85.264 132.05 85.264C131.978 85.264 131.906 85.216 131.906 85.12C131.906 85.096 132.314 84.424 132.362 84.328C132.722 83.752 133.034 82.984 133.034 82.336C133.034 82.192 133.01 81.856 132.746 81.856C132.698 81.856 129.098 83.032 128.786 83.128C128.234 83.32 128.042 83.536 128.042 84.16C128.042 86.176 128.042 88.336 128.09 88.792C128.282 90.688 129.626 90.904 131.066 90.904C131.978 90.904 133.49 90.712 133.706 90.664C134.45 90.472 135.194 90.328 135.698 90.328C136.274 90.328 136.706 90.712 136.706 91.096C136.706 92.632 132.674 92.632 131.378 92.632C127.226 92.632 126.722 91.552 126.722 87.568C126.722 87.088 126.77 85 126.77 84.592C126.77 84.208 126.626 84.04 126.29 84.04C126.05 84.04 124.226 84.616 124.034 84.712C122.618 85.456 122.474 85.528 121.946 85.528C120.722 85.528 119.762 83.704 119.762 83.608C119.762 83.536 119.858 83.512 119.906 83.512ZM156.818 83.08C156.818 82.6 156.77 82.336 156.65 82.048C156.65 82.024 156.602 81.904 156.602 81.832C156.602 81.712 156.698 81.664 156.77 81.664C156.962 81.664 157.682 82.168 157.85 82.264C158.234 82.456 159.194 83.032 159.194 83.728C159.194 83.92 159.098 83.944 158.69 84.184C158.498 84.304 157.658 85.936 157.466 86.248C153.794 92.344 147.89 94.72 147.698 94.72C147.626 94.72 147.554 94.648 147.554 94.576C147.554 94.456 148.682 93.736 148.898 93.568C154.01 89.656 156.818 85.144 156.818 83.08ZM146.306 83.872C146.882 83.872 149.234 85.072 149.234 86.992C149.234 87.664 148.682 87.904 148.418 87.904C147.89 87.904 147.722 87.352 147.554 86.824C147.338 86.152 146.81 85.216 146.162 84.4C146.042 84.232 145.994 84.16 145.994 84.088C145.994 83.944 146.138 83.872 146.306 83.872ZM150.458 81.664C151.586 81.832 152.906 83.032 152.906 84.376C152.906 85.072 152.522 85.6 152.09 85.6C151.562 85.6 151.442 85 151.37 84.592C151.202 83.824 151.13 83.608 150.482 82.312C150.434 82.216 150.218 81.88 150.218 81.784C150.218 81.712 150.338 81.64 150.458 81.664ZM173.234 76.096C173.258 75.88 173.882 75.88 173.906 75.88C174.77 75.88 176.498 76.648 176.498 77.416C176.498 77.584 176.258 78.28 176.21 78.424C176.09 79.024 175.994 81.16 175.994 81.76C175.994 82.288 176.09 82.36 176.786 82.528C178.25 82.864 181.97 84.616 181.97 86.416C181.97 87.208 181.226 87.256 181.106 87.256C180.506 87.256 180.434 87.16 178.826 85.072C178.154 84.184 177.026 83.056 176.282 83.056C176.042 83.056 175.946 83.056 175.946 84.832C175.946 87.376 175.97 88.648 176.066 90.808C176.09 91.072 176.114 91.672 176.114 92.032C176.114 92.632 176.114 94.216 175.418 94.216C174.698 94.216 174.074 92.584 174.074 91.96C174.074 91.864 174.17 91.36 174.17 91.264C174.338 89.272 174.386 88.648 174.386 85.696C174.386 78.832 174.386 78.064 174.098 77.296C173.906 76.792 173.666 76.552 173.282 76.192L173.234 76.096Z" fill="white"/>
</svg>
