<svg width="301" height="71" viewBox="0 0 301 71" fill="none" xmlns="http://www.w3.org/2000/svg">
<path d="M7.19107 12.4808H10.8994C11.6761 12.4808 11.6761 12.1801 11.6761 10.9273C11.6761 9.19842 11.5759 8.44674 11.5258 7.99573C11.5007 7.87045 11.3253 7.31922 11.3253 7.19394C11.3253 7.06866 11.4255 7.01855 11.6009 7.01855C11.7763 7.01855 14.307 7.26911 14.307 7.89551C14.307 8.04584 13.7808 8.52191 13.7056 8.64719C13.5302 9.02303 13.4801 11.0025 13.4801 11.5286C13.4801 12.1801 13.5052 12.4808 14.2819 12.4808H17.5141C18.6667 12.4808 18.792 12.4808 19.1177 12.0548C19.8694 11.0275 19.9446 10.9273 20.1701 10.9273C20.4457 10.9273 22.4502 12.606 22.4502 12.8315C22.4502 13.1573 21.8739 13.1573 21.1222 13.1573H14.2569C13.9813 13.1573 13.6305 13.1573 13.5052 13.5832C13.4551 13.7837 13.4551 17.6924 13.4551 18.419C13.4551 19.1958 13.5052 19.4964 14.2819 19.4964H16.7625C17.9401 19.4964 18.0654 19.4964 18.3661 19.0705C19.1428 18.0432 19.218 17.943 19.4435 17.943C19.7191 17.943 21.7236 19.6217 21.7236 19.8472C21.7236 20.173 21.1473 20.173 20.3705 20.173H14.307C13.5804 20.173 13.5052 20.4235 13.5052 21.0249C13.5052 21.7765 13.5302 27.1636 13.5553 27.2889C13.6555 27.6647 13.9562 27.7148 14.3571 27.7148H18.9423C20.0949 27.7148 20.2202 27.7148 20.5459 27.2889C21.2976 26.2616 21.3728 26.1363 21.5983 26.1363C21.8739 26.1363 23.8784 27.815 23.8784 28.0405C23.8784 28.3663 23.3021 28.3663 22.5504 28.3663H5.91322C3.70829 28.3663 2.98166 28.4164 2.75616 28.4414C2.65594 28.4414 2.30515 28.4915 2.20493 28.4915C2.12976 28.4915 2.07965 28.4414 2.00448 28.3412L1.50336 27.7649C1.40314 27.6396 1.40314 27.6396 1.40314 27.5895C1.40314 27.5394 1.42819 27.5394 1.50336 27.5394C1.6537 27.5394 2.43043 27.6146 2.60582 27.6146C3.83357 27.6647 4.86086 27.7148 6.0385 27.7148H10.8242C11.2752 27.7148 11.651 27.7148 11.651 26.8128V20.7743C11.651 20.4736 11.5007 20.173 10.9244 20.173H7.99287C5.78794 20.173 5.06131 20.2231 4.83581 20.2231C4.73558 20.2481 4.3848 20.2982 4.30963 20.2982C4.20941 20.2982 4.1593 20.2231 4.08413 20.1228L3.58301 19.5465C3.50784 19.4463 3.48278 19.4213 3.48278 19.3962C3.48278 19.3461 3.50784 19.321 3.58301 19.321C3.7584 19.321 4.51008 19.3962 4.68547 19.4213C5.91322 19.4714 6.94051 19.4964 8.11815 19.4964H10.8994C11.651 19.4964 11.651 19.1206 11.651 18.7197V13.8087C11.6009 13.3327 11.3754 13.1573 10.9244 13.1573H6.79018C6.01344 13.1573 5.96333 13.2324 5.33693 14.2848C3.95885 16.5899 2.25504 18.6445 1.85414 18.6445C1.75392 18.6445 1.72886 18.5694 1.72886 18.4942C1.72886 18.4441 2.12976 17.6924 2.35526 17.2915C5.11143 12.2051 5.58749 8.97292 5.66266 8.4718C5.71277 7.99573 5.76288 7.94562 5.81299 7.94562C5.86311 7.94562 8.26848 8.9228 8.26848 9.34876C8.26848 9.5492 7.46669 10.1004 7.36647 10.2508C7.21613 10.4512 6.56467 11.9295 6.56467 12.155C6.56467 12.4808 6.86535 12.4808 7.19107 12.4808ZM37.9849 9.62437C37.9849 9.12325 37.6592 8.34652 37.5339 8.0709C37.5088 7.99573 37.3585 7.74517 37.3585 7.69506C37.3585 7.51967 37.8346 7.51967 37.9849 7.51967C38.6614 7.51967 40.0144 8.14607 40.0144 8.67224C40.0144 8.9228 39.4632 9.82482 39.388 10.0002C39.2126 10.4011 39.0122 11.2781 39.0122 11.6289C39.0122 11.679 39.0122 11.7792 39.1124 11.7792C39.1876 11.7792 39.2628 11.7541 39.814 11.5537C40.0395 11.4785 40.3903 11.3532 40.716 11.3532C40.9666 11.3532 41.4426 11.4284 41.4426 11.8293C41.4426 12.7564 39.7388 13.2575 39.0373 13.483C38.8368 13.5331 38.7867 13.5582 38.7616 13.934C38.7366 14.0092 38.6364 15.3371 38.6364 16.3644C38.6364 16.9407 38.6364 17.0911 38.9621 17.0911C39.2377 17.0911 41.0417 16.5899 41.0417 15.7881C41.0417 15.713 40.9415 15.4123 40.9415 15.3371C40.9415 15.262 41.0167 15.262 41.0668 15.262C41.1921 15.262 41.7182 15.3873 41.8435 15.3873C42.8708 15.4624 43.5223 15.5125 43.5223 16.0638C43.5223 16.9407 40.7411 18.0933 39.5885 18.4691C38.8118 18.7448 38.7366 18.7698 38.7366 19.0204C38.7366 19.4964 39.0122 22.3779 39.0373 22.6284C39.1375 23.4553 39.1375 23.5555 39.6637 23.756C41.618 24.5578 43.2216 25.8857 43.2216 27.0634C43.2216 27.7148 42.7706 28.1157 42.3697 28.1157C42.0189 28.1157 41.9187 27.9904 41.0167 26.913C40.5156 26.2866 39.5384 25.56 39.2628 25.56C39.1124 25.56 39.0623 25.6853 38.937 25.9609C38.4109 27.1385 36.7321 28.4915 34.6775 28.4915C32.3222 28.4915 31.4703 26.8128 31.4703 25.7855C31.4703 24.2821 32.9988 23.1296 35.9804 23.1296C36.2059 23.1296 37.133 23.2047 37.3084 23.2047C37.584 23.2047 37.584 23.1296 37.584 22.2777C37.584 21.7765 37.5589 20.0978 37.5339 19.4213C37.5339 19.1958 37.5339 19.0454 37.2833 19.0454C36.9326 19.0454 35.4292 19.1707 35.1035 19.1707C34.5272 19.1707 32.7733 19.1958 31.6457 18.1434C31.2949 17.7926 30.9191 17.1913 30.9191 16.9908C30.9191 16.9407 30.9191 16.8906 30.9943 16.8906C31.1446 16.8906 31.8211 17.1913 31.9464 17.2414C33.0739 17.6172 34.2014 17.6924 34.9782 17.6924C35.5795 17.6924 37.2583 17.6924 37.4337 17.2163C37.4587 17.1412 37.6592 13.8588 37.6592 13.8338C37.6592 13.7085 37.5339 13.7085 37.133 13.6834C35.354 13.5582 33.7755 12.2803 33.7755 11.3031C33.7755 11.253 33.8005 11.1277 33.8757 11.1277C33.9008 11.1277 34.5021 11.4785 34.5773 11.5286C35.6797 12.2051 36.6319 12.2051 37.0077 12.2051C37.5339 12.2051 37.7845 12.0799 37.8346 11.8293C37.9097 11.5787 37.9849 10.1505 37.9849 9.62437ZM37.3836 24.7582C37.2082 24.3322 35.4542 24.232 35.0032 24.232C34.9531 24.232 32.3222 24.232 32.3222 25.6602C32.3222 26.6123 33.6252 26.913 34.3267 26.913C35.1536 26.913 36.231 26.5121 36.8073 25.9859C37.2583 25.585 37.4838 24.9837 37.3836 24.7582ZM57.4284 8.44674C58.2552 8.44674 59.8087 9.67448 59.8087 10.1255C59.8087 10.3259 59.5832 11.4284 59.5581 11.6539C59.5331 11.8042 59.4328 12.8065 59.4328 13.4579C59.4328 13.9841 59.508 14.1094 59.959 14.3349C60.1845 14.4602 60.3349 14.5855 60.3349 14.836C60.3349 14.9112 60.3098 15.2119 60.1094 15.4875C59.5832 16.2141 59.508 16.3143 59.508 16.3895C59.508 16.4396 59.5331 16.4647 59.5832 16.4647C59.6333 16.4647 59.7085 16.4145 60.2096 15.9385C61.5125 14.6857 64.5443 11.8293 66.8745 11.8293C68.5783 11.8293 69.33 13.032 69.33 14.811C69.33 15.738 69.2047 16.8906 69.0293 18.0181C68.6535 20.5488 68.6284 20.9246 68.6284 21.7765C68.6284 22.7537 68.7787 24.1067 70.4825 24.1067C70.8834 24.1067 71.9608 24.1067 73.1134 22.8539C73.2888 22.6535 73.5143 22.428 73.6396 22.428C73.7398 22.428 73.7899 22.5533 73.7899 22.6284C73.7899 22.9792 72.4119 25.8857 69.7559 25.8857C66.7993 25.8857 66.7993 22.9041 66.7993 22.2275C66.7993 21.6262 66.8244 21.3506 67.1 19.8723C67.5259 17.5922 67.7765 15.262 67.7765 14.6356C67.7765 14.1846 67.7765 12.9067 66.223 12.9067C64.444 12.9067 62.3143 14.6857 60.6606 16.2392C58.9818 17.8177 58.7313 18.845 58.7313 21.3756C58.7313 22.5032 58.8064 23.9063 58.9317 24.6079C59.1823 26.2365 59.2324 26.437 59.2324 26.9381C59.2324 27.7649 59.0319 28.3412 58.2552 28.3412C57.4785 28.3412 57.3782 27.7649 57.1277 26.437C57.0776 26.1112 56.4011 23.6808 56.1505 23.6808C56.0503 23.6808 56.0252 23.756 55.8498 24.3573C55.6243 25.109 55.2234 25.7604 54.4718 25.7604C53.8955 25.7604 53.5697 25.2593 53.5697 24.8334C53.5697 23.9564 54.4216 22.4781 54.6722 22.0271C54.7724 21.8266 54.9979 21.4508 54.9979 21.2002C54.9979 20.9246 54.5469 19.6718 54.4216 19.321C53.8704 17.9179 53.8454 17.7425 53.8454 17.3166C53.8454 16.189 54.597 15.5125 55.0982 15.3622C56.827 14.836 57.7791 14.5604 58.0798 14.3349C58.2302 14.2347 58.2552 14.0593 58.2552 13.6083C58.2552 12.2553 58.1299 11.1027 57.6038 9.9501C57.5035 9.74965 56.8521 8.87269 56.8521 8.6973C56.8521 8.4718 57.253 8.44674 57.4284 8.44674ZM57.8293 16.0387C57.7791 15.9134 57.6539 15.8884 57.5536 15.8884C57.3532 15.8884 54.7474 16.4145 54.7474 17.6673C54.7474 18.5443 55.3487 20.4235 55.5742 20.4235C55.6744 20.4235 55.7997 20.2732 55.8498 20.173C55.8999 20.0477 57.253 17.4168 57.3782 17.1662C57.6038 16.7152 57.8794 16.164 57.8293 16.0387ZM57.3782 24.3322C57.5536 24.3322 57.5536 24.1569 57.5536 21.7014C57.5536 21.5761 57.6038 20.8745 57.6038 20.8244C57.6038 20.7492 57.6038 20.5989 57.4785 20.5989C57.2279 20.5989 56.5013 22.2526 56.5013 22.5282C56.5013 23.1546 57.3281 24.3322 57.3782 24.3322ZM90.2267 25.6602C91.0786 25.6602 92.8325 24.1318 92.8325 22.0522C92.8325 19.9976 91.1036 18.2436 88.598 18.2436C85.2906 18.2436 83.1609 21.6763 82.7099 22.453C82.2088 23.305 81.9582 23.781 81.2817 23.781C80.6803 23.781 80.5551 23.2799 80.5551 23.0794C80.5551 22.453 80.7555 21.9018 82.5345 19.8222C84.1631 17.9179 84.4137 17.5922 88.1971 12.2803C89.024 11.1027 89.3748 10.5765 89.3748 10.3009C89.3748 10.1255 89.1994 9.9501 88.8987 9.9501C87.9716 9.9501 86.4933 11.2029 86.0674 11.5537C85.0651 12.3805 84.7144 12.4557 84.2884 12.4557C83.1108 12.4557 82.334 10.8521 82.334 10.7268C82.334 10.6517 82.4092 10.6517 82.9354 10.6517C84.2633 10.6517 86.1175 10.0503 86.8191 9.74965C88.3725 9.07314 88.5479 8.99797 89.0992 8.99797C90.1014 8.99797 91.73 9.62437 91.73 10.7268C91.73 11.4535 91.1537 11.8544 89.9511 12.6812C88.147 13.9591 85.9421 17.3917 85.9421 17.8177C85.9421 17.8929 86.0173 17.9931 86.0924 17.9931C86.2428 17.943 86.5685 17.8177 86.7188 17.7676C87.5206 17.4669 88.2222 17.3667 88.9238 17.3667C92.1309 17.3667 94.5614 19.747 94.5614 22.5783C94.5614 25.7604 91.4795 27.9904 88.2974 27.9904C85.8168 27.9904 84.0378 26.6625 84.0378 25.4097C84.0378 24.5076 85.0902 23.3801 86.5184 23.3801C87.696 23.3801 88.6732 24.0817 89.3748 24.9837C89.7256 25.4347 89.8759 25.6602 90.2267 25.6602ZM87.9215 25.9108C87.9215 25.3094 87.3202 24.3072 86.3931 24.3072C85.7918 24.3072 85.3408 24.7833 85.3408 25.1842C85.3408 25.8356 86.4182 26.3618 87.4956 26.3618C87.7461 26.3618 87.9215 26.1864 87.9215 25.9108ZM110.472 14.385C111.123 14.385 111.95 14.7609 113.604 16.4145C116.661 19.4463 119.141 20.5738 120.62 21.2504C121.772 21.7515 122.825 22.3278 122.825 23.0544C122.825 23.2047 122.599 24.0065 121.897 24.0065C121.622 24.0065 119.367 23.8562 115.684 20.3483C115.082 19.7721 112.401 17.066 111.85 16.5398C111.274 15.9886 110.848 15.6629 110.447 15.6629C109.62 15.6629 109.395 15.8884 107.34 17.8929C107.165 18.0682 105.335 19.7971 105.285 19.8222C105.185 19.8973 105.035 19.9474 104.884 19.9474C103.932 19.9474 102.454 18.7698 102.454 18.3439C102.454 18.2436 102.504 18.2436 102.93 18.1685C103.03 18.1685 105.035 17.7926 107.014 16.2392C109.119 14.5604 109.595 14.385 110.472 14.385ZM120.093 10.5013C122.048 10.7769 123.276 11.9295 123.276 13.032C123.276 13.4579 123 13.8338 122.599 13.8338C122.048 13.8338 121.722 13.2825 121.371 12.7063C121.071 12.1801 120.169 11.4284 119.417 11.0025C119.166 10.8521 119.141 10.7519 119.141 10.7018C119.141 10.5013 119.642 10.4262 120.093 10.5013ZM116.861 12.9819C118.765 12.9819 120.469 14.3349 120.469 15.4123C120.469 15.7631 120.144 16.3644 119.693 16.3644C119.317 16.3644 119.091 16.1389 118.415 15.1868C118.014 14.6356 117.738 14.36 116.761 13.5582C116.661 13.483 116.435 13.2825 116.435 13.1823C116.435 13.057 116.661 12.9819 116.861 12.9819ZM137.983 7.89551C138.008 7.8454 138.084 7.8454 138.159 7.8454C138.76 7.8454 141.241 9.12325 141.241 10.0503C141.241 10.7268 134.526 17.2163 134.526 18.2938C134.526 18.7197 134.726 19.0955 135.277 19.6718C137.507 22.1023 140.915 25.7855 140.915 27.5144C140.915 28.3412 140.364 28.692 139.838 28.692C139.061 28.692 138.91 28.2159 138.384 26.7376C137.608 24.5327 134.876 21.2002 134.225 20.3985C133.448 19.4463 133.248 19.0705 133.248 18.5443C133.248 17.8678 133.574 17.1161 135.277 14.9864C137.758 11.8794 138.685 10.5765 138.685 9.64943C138.685 9.12325 138.459 8.74741 138.059 8.19618C137.983 8.0709 137.933 7.97068 137.983 7.89551ZM158.454 8.44674C159.757 8.44674 160.86 10.4763 160.86 11.0526C160.86 11.3031 160.434 12.2553 160.383 12.4557C160.033 13.7336 159.331 19.2709 159.331 21.3756C159.331 23.9063 159.807 26.1613 163.165 26.1613C164.392 26.1613 166.196 25.9108 168.426 24.8584C168.802 24.683 170.707 23.6307 170.807 23.6307C170.907 23.6307 170.932 23.7058 170.932 23.756C170.932 24.0316 167.224 28.0656 162.513 28.0656C159.256 28.0656 157.702 26.1864 157.702 21.1501C157.702 19.5967 157.753 19.0955 158.279 14.1846C158.379 13.3577 158.605 11.3031 158.605 10.6016C158.605 10.1505 158.529 9.7246 158.379 9.37381C158.354 9.29865 158.103 8.72236 158.103 8.6973C158.103 8.52191 158.304 8.44674 158.454 8.44674ZM179 13.0069C179.1 12.8817 179.852 13.1072 179.977 13.1072C181.055 13.1072 181.431 13.0069 184.863 12.0297C187.093 11.4033 192.806 9.77471 194.485 9.77471C195.362 9.77471 196.489 10.1255 196.489 10.9774C196.489 11.6289 195.838 11.9045 195.487 11.9045C195.161 11.9045 193.733 11.6289 193.432 11.6289C190.25 11.6289 186.692 14.5604 186.692 21.0249C186.692 25.2343 188.271 25.5099 189.749 25.5099C190.125 25.5099 191.929 25.3595 192.129 25.3595C192.906 25.3595 193.382 25.6853 193.382 26.2866C193.382 27.6146 190.626 27.6146 190.476 27.6146C185.339 27.6146 185.339 23.4302 185.339 22.2526C185.339 21.1501 185.364 15.8383 188.997 12.606C189.098 12.5309 189.599 12.13 189.599 12.0799C189.599 12.0297 189.499 12.0297 189.448 12.0297C188.02 12.0297 182.809 14.2597 182.007 14.7107C181.656 14.9112 181.405 15.0365 181.13 15.0365C179.877 15.0365 178.699 13.3577 179 13.0069ZM207.639 12.4808H211.347C212.124 12.4808 212.124 12.1801 212.124 10.9273C212.124 9.19842 212.024 8.44674 211.974 7.99573C211.949 7.87045 211.773 7.31922 211.773 7.19394C211.773 7.06866 211.874 7.01855 212.049 7.01855C212.224 7.01855 214.755 7.26911 214.755 7.89551C214.755 8.04584 214.229 8.52191 214.154 8.64719C213.978 9.02303 213.928 11.0025 213.928 11.5286C213.928 12.1801 213.953 12.4808 214.73 12.4808H217.962C219.115 12.4808 219.24 12.4808 219.566 12.0548C220.317 11.0275 220.393 10.9273 220.618 10.9273C220.894 10.9273 222.898 12.606 222.898 12.8315C222.898 13.1573 222.322 13.1573 221.57 13.1573H214.705C214.429 13.1573 214.078 13.1573 213.953 13.5832C213.903 13.7837 213.903 17.6924 213.903 18.419C213.903 19.1958 213.953 19.4964 214.73 19.4964H217.21C218.388 19.4964 218.513 19.4964 218.814 19.0705C219.591 18.0432 219.666 17.943 219.891 17.943C220.167 17.943 222.172 19.6217 222.172 19.8472C222.172 20.173 221.595 20.173 220.819 20.173H214.755C214.028 20.173 213.953 20.4235 213.953 21.0249C213.953 21.7765 213.978 27.1636 214.003 27.2889C214.104 27.6647 214.404 27.7148 214.805 27.7148H219.39C220.543 27.7148 220.668 27.7148 220.994 27.2889C221.746 26.2616 221.821 26.1363 222.046 26.1363C222.322 26.1363 224.326 27.815 224.326 28.0405C224.326 28.3663 223.75 28.3663 222.998 28.3663H206.361C204.156 28.3663 203.43 28.4164 203.204 28.4414C203.104 28.4414 202.753 28.4915 202.653 28.4915C202.578 28.4915 202.528 28.4414 202.453 28.3412L201.951 27.7649C201.851 27.6396 201.851 27.6396 201.851 27.5895C201.851 27.5394 201.876 27.5394 201.951 27.5394C202.102 27.5394 202.878 27.6146 203.054 27.6146C204.282 27.6647 205.309 27.7148 206.487 27.7148H211.272C211.723 27.7148 212.099 27.7148 212.099 26.8128V20.7743C212.099 20.4736 211.949 20.173 211.372 20.173H208.441C206.236 20.173 205.509 20.2231 205.284 20.2231C205.184 20.2481 204.833 20.2982 204.758 20.2982C204.657 20.2982 204.607 20.2231 204.532 20.1228L204.031 19.5465C203.956 19.4463 203.931 19.4213 203.931 19.3962C203.931 19.3461 203.956 19.321 204.031 19.321C204.206 19.321 204.958 19.3962 205.134 19.4213C206.361 19.4714 207.389 19.4964 208.566 19.4964H211.347C212.099 19.4964 212.099 19.1206 212.099 18.7197V13.8087C212.049 13.3327 211.823 13.1573 211.372 13.1573H207.238C206.461 13.1573 206.411 13.2324 205.785 14.2848C204.407 16.5899 202.703 18.6445 202.302 18.6445C202.202 18.6445 202.177 18.5694 202.177 18.4942C202.177 18.4441 202.578 17.6924 202.803 17.2915C205.559 12.2051 206.036 8.97292 206.111 8.4718C206.161 7.99573 206.211 7.94562 206.261 7.94562C206.311 7.94562 208.717 8.9228 208.717 9.34876C208.717 9.5492 207.915 10.1004 207.814 10.2508C207.664 10.4512 207.013 11.9295 207.013 12.155C207.013 12.4808 207.313 12.4808 207.639 12.4808ZM238.433 9.62437C238.433 9.12325 238.107 8.34652 237.982 8.0709C237.957 7.99573 237.807 7.74517 237.807 7.69506C237.807 7.51967 238.283 7.51967 238.433 7.51967C239.109 7.51967 240.462 8.14607 240.462 8.67224C240.462 8.9228 239.911 9.82482 239.836 10.0002C239.661 10.4011 239.46 11.2781 239.46 11.6289C239.46 11.679 239.46 11.7792 239.56 11.7792C239.636 11.7792 239.711 11.7541 240.262 11.5537C240.488 11.4785 240.838 11.3532 241.164 11.3532C241.415 11.3532 241.891 11.4284 241.891 11.8293C241.891 12.7564 240.187 13.2575 239.485 13.483C239.285 13.5331 239.235 13.5582 239.21 13.934C239.185 14.0092 239.084 15.3371 239.084 16.3644C239.084 16.9407 239.084 17.0911 239.41 17.0911C239.686 17.0911 241.49 16.5899 241.49 15.7881C241.49 15.713 241.39 15.4123 241.39 15.3371C241.39 15.262 241.465 15.262 241.515 15.262C241.64 15.262 242.166 15.3873 242.292 15.3873C243.319 15.4624 243.97 15.5125 243.97 16.0638C243.97 16.9407 241.189 18.0933 240.037 18.4691C239.26 18.7448 239.185 18.7698 239.185 19.0204C239.185 19.4964 239.46 22.3779 239.485 22.6284C239.586 23.4553 239.586 23.5555 240.112 23.756C242.066 24.5578 243.67 25.8857 243.67 27.0634C243.67 27.7148 243.219 28.1157 242.818 28.1157C242.467 28.1157 242.367 27.9904 241.465 26.913C240.964 26.2866 239.986 25.56 239.711 25.56C239.56 25.56 239.51 25.6853 239.385 25.9609C238.859 27.1385 237.18 28.4915 235.126 28.4915C232.77 28.4915 231.918 26.8128 231.918 25.7855C231.918 24.2821 233.447 23.1296 236.428 23.1296C236.654 23.1296 237.581 23.2047 237.756 23.2047C238.032 23.2047 238.032 23.1296 238.032 22.2777C238.032 21.7765 238.007 20.0978 237.982 19.4213C237.982 19.1958 237.982 19.0454 237.731 19.0454C237.381 19.0454 235.877 19.1707 235.551 19.1707C234.975 19.1707 233.221 19.1958 232.094 18.1434C231.743 17.7926 231.367 17.1913 231.367 16.9908C231.367 16.9407 231.367 16.8906 231.442 16.8906C231.593 16.8906 232.269 17.1913 232.394 17.2414C233.522 17.6172 234.649 17.6924 235.426 17.6924C236.028 17.6924 237.706 17.6924 237.882 17.2163C237.907 17.1412 238.107 13.8588 238.107 13.8338C238.107 13.7085 237.982 13.7085 237.581 13.6834C235.802 13.5582 234.224 12.2803 234.224 11.3031C234.224 11.253 234.249 11.1277 234.324 11.1277C234.349 11.1277 234.95 11.4785 235.025 11.5286C236.128 12.2051 237.08 12.2051 237.456 12.2051C237.982 12.2051 238.232 12.0799 238.283 11.8293C238.358 11.5787 238.433 10.1505 238.433 9.62437ZM237.832 24.7582C237.656 24.3322 235.902 24.232 235.451 24.232C235.401 24.232 232.77 24.232 232.77 25.6602C232.77 26.6123 234.073 26.913 234.775 26.913C235.602 26.913 236.679 26.5121 237.255 25.9859C237.706 25.585 237.932 24.9837 237.832 24.7582ZM257.876 8.44674C258.703 8.44674 260.257 9.67448 260.257 10.1255C260.257 10.3259 260.031 11.4284 260.006 11.6539C259.981 11.8042 259.881 12.8065 259.881 13.4579C259.881 13.9841 259.956 14.1094 260.407 14.3349C260.633 14.4602 260.783 14.5855 260.783 14.836C260.783 14.9112 260.758 15.2119 260.557 15.4875C260.031 16.2141 259.956 16.3143 259.956 16.3895C259.956 16.4396 259.981 16.4647 260.031 16.4647C260.081 16.4647 260.156 16.4145 260.658 15.9385C261.961 14.6857 264.992 11.8293 267.322 11.8293C269.026 11.8293 269.778 13.032 269.778 14.811C269.778 15.738 269.653 16.8906 269.477 18.0181C269.101 20.5488 269.076 20.9246 269.076 21.7765C269.076 22.7537 269.227 24.1067 270.931 24.1067C271.331 24.1067 272.409 24.1067 273.561 22.8539C273.737 22.6535 273.962 22.428 274.088 22.428C274.188 22.428 274.238 22.5533 274.238 22.6284C274.238 22.9792 272.86 25.8857 270.204 25.8857C267.247 25.8857 267.247 22.9041 267.247 22.2275C267.247 21.6262 267.272 21.3506 267.548 19.8723C267.974 17.5922 268.225 15.262 268.225 14.6356C268.225 14.1846 268.225 12.9067 266.671 12.9067C264.892 12.9067 262.762 14.6857 261.109 16.2392C259.43 17.8177 259.179 18.845 259.179 21.3756C259.179 22.5032 259.254 23.9063 259.38 24.6079C259.63 26.2365 259.68 26.437 259.68 26.9381C259.68 27.7649 259.48 28.3412 258.703 28.3412C257.926 28.3412 257.826 27.7649 257.576 26.437C257.526 26.1112 256.849 23.6808 256.599 23.6808C256.498 23.6808 256.473 23.756 256.298 24.3573C256.072 25.109 255.671 25.7604 254.92 25.7604C254.343 25.7604 254.018 25.2593 254.018 24.8334C254.018 23.9564 254.87 22.4781 255.12 22.0271C255.22 21.8266 255.446 21.4508 255.446 21.2002C255.446 20.9246 254.995 19.6718 254.87 19.321C254.318 17.9179 254.293 17.7425 254.293 17.3166C254.293 16.189 255.045 15.5125 255.546 15.3622C257.275 14.836 258.227 14.5604 258.528 14.3349C258.678 14.2347 258.703 14.0593 258.703 13.6083C258.703 12.2553 258.578 11.1027 258.052 9.9501C257.952 9.74965 257.3 8.87269 257.3 8.6973C257.3 8.4718 257.701 8.44674 257.876 8.44674ZM258.277 16.0387C258.227 15.9134 258.102 15.8884 258.002 15.8884C257.801 15.8884 255.195 16.4145 255.195 17.6673C255.195 18.5443 255.797 20.4235 256.022 20.4235C256.122 20.4235 256.248 20.2732 256.298 20.173C256.348 20.0477 257.701 17.4168 257.826 17.1662C258.052 16.7152 258.327 16.164 258.277 16.0387ZM257.826 24.3322C258.002 24.3322 258.002 24.1569 258.002 21.7014C258.002 21.5761 258.052 20.8745 258.052 20.8244C258.052 20.7492 258.052 20.5989 257.926 20.5989C257.676 20.5989 256.949 22.2526 256.949 22.5282C256.949 23.1546 257.776 24.3322 257.826 24.3322ZM279.249 26.1112C279.249 25.8106 279.374 25.56 280.151 24.1067C282.732 19.2208 283.459 14.9112 283.459 14.8861C283.459 14.6356 283.358 14.6356 282.557 14.6356C282.03 14.6356 281.153 14.6105 280.327 14.1846C279.525 13.7837 279.024 13.0821 279.024 12.8315C279.024 12.7564 279.099 12.7313 279.124 12.7313C279.224 12.7313 279.6 12.9318 279.7 12.9568C280.076 13.0821 281.103 13.2324 281.93 13.2324C282.306 13.2324 283.509 13.1823 283.709 13.0069C283.91 12.8315 283.985 11.1277 283.985 10.9523C283.985 10.7519 283.985 9.89999 283.684 9.39887C283.584 9.27359 282.982 8.64719 282.982 8.4718C282.982 8.22124 283.459 7.89551 284.11 7.89551C285.238 7.89551 286.114 8.9228 286.114 9.22348C286.114 9.34876 285.839 9.84988 285.839 9.97516C285.839 10.4512 287.843 10.8772 288.094 10.8772C288.194 10.8772 288.745 10.8271 288.871 10.8271C289.071 10.8271 289.698 10.8271 289.698 11.6038C289.698 13.0069 287.568 13.7336 285.914 14.1846C285.062 14.4101 284.962 14.4351 284.862 14.8861C283.584 20.3483 283.559 20.3734 283.033 22.002C281.304 27.2137 280.402 27.2137 279.926 27.2137C279.324 27.2137 279.249 26.3868 279.249 26.1112ZM285.338 12.3304C285.313 12.5058 285.288 12.6561 285.438 12.6561C285.563 12.6561 287.468 11.9796 287.468 11.6539C287.468 11.4033 286.114 10.8521 285.839 10.8521C285.689 10.8521 285.613 10.9022 285.563 11.1528C285.463 11.6539 285.463 11.7291 285.338 12.3304ZM288.194 15.8884C288.019 15.5626 290.199 14.5604 292.88 14.5604C295.26 14.5604 297.064 15.262 297.064 16.3644C297.064 16.9658 296.538 16.9658 296.337 16.9658C296.112 16.9658 295.135 16.8906 294.934 16.8906C294.483 16.8906 294.107 16.8906 293.08 17.2915C292.454 17.517 292.203 17.6172 292.028 17.6172C291.978 17.6172 291.902 17.6172 291.902 17.5421C291.902 17.3667 293.205 16.4145 293.205 16.1389C293.205 15.7631 291.426 15.738 291.051 15.738C290.499 15.738 289.823 15.7631 289.246 15.8383C289.096 15.8633 288.52 15.9385 288.42 15.9385C288.395 15.9385 288.219 15.9385 288.194 15.8884ZM287.067 22.5783C287.167 22.5783 287.317 23.2047 287.342 23.2799C287.868 25.4598 290.574 25.9358 292.479 25.9358C292.905 25.9358 294.809 25.7604 295.21 25.7604C296.062 25.7604 297.214 26.1864 297.214 27.0132C297.214 27.7399 296.287 27.8651 294.157 27.8651C290.098 27.8651 286.716 26.8378 286.716 23.6808C286.716 23.1045 286.866 22.5783 287.067 22.5783ZM5.16154 48.8588C5.31187 48.8588 7.49175 49.0092 7.9177 49.0092C10.1727 49.0092 15.5097 48.5582 16.0609 48.2074C16.9629 47.606 17.0631 47.5559 17.2886 47.5559C17.7898 47.5559 20.1951 49.1595 20.1951 49.811C20.1951 50.0365 20.12 50.1116 19.3432 50.6879C18.8922 51.0137 18.792 51.3895 17.9401 54.8723C17.89 55.0978 17.5392 56.2002 17.5392 56.3506C17.5392 56.6763 17.7647 56.7014 18.1405 56.7765C18.7669 56.8768 19.694 57.2025 19.694 57.8289C19.694 58.5054 18.5414 58.5054 18.341 58.5054C17.7146 58.5054 14.9334 58.33 14.3571 58.33C12.8036 58.33 8.04298 58.8562 7.64208 58.9564C7.49175 58.9815 6.86535 59.2571 6.74007 59.2571C6.28906 59.2571 4.81075 58.1296 4.81075 57.2526C4.81075 57.1524 4.91098 57.0772 5.03626 57.0772C5.16154 57.0772 5.68771 57.1774 5.78794 57.2025C6.33917 57.2777 6.76512 57.2777 7.06579 57.2777C8.79466 57.2777 15.3593 56.8266 15.7352 56.6262C16.0358 56.4759 16.1361 56.1752 16.3115 54.9224C16.6121 52.7175 16.8376 50.5376 16.8376 50.0365C16.8376 49.6105 16.7374 49.5103 16.4618 49.5103C15.6851 49.5103 9.47117 50.5125 8.49399 50.738C8.26848 50.7881 7.39152 51.1389 7.19107 51.1389C6.63984 51.1389 4.86086 49.6105 4.86086 49.1094C4.86086 48.9089 5.03626 48.8588 5.16154 48.8588ZM32.4726 45.3761C32.6229 45.3761 33.2243 45.6266 33.3746 45.6517C33.7755 45.7519 34.3518 45.7519 34.7026 45.7519C35.8802 45.7519 37.5339 45.7018 38.7115 45.4763C39.0874 45.4011 40.8162 44.9752 41.167 44.9752C41.593 44.9752 42.6954 45.2007 42.6954 45.9273C42.6954 46.704 41.8185 46.7792 40.3652 46.9045C39.9643 46.9546 34.5773 47.4306 34.4019 47.4306C33.0739 47.4306 32.3222 45.7268 32.3222 45.5514C32.3222 45.4262 32.3724 45.3761 32.4726 45.3761ZM31.8462 62.4893C31.8963 62.4392 32.5979 62.1135 32.7482 62.0383C40.5657 57.8289 42.6203 52.4168 42.6203 51.8906C42.6203 51.5899 42.4449 51.4145 42.0941 51.4145C41.2422 51.4145 34.9531 52.517 33.8507 52.8427C33.6753 52.8929 32.8735 53.2687 32.6981 53.2687C31.6207 53.2687 29.8417 51.1139 29.8417 50.4123C29.8417 50.3371 29.9169 50.287 29.992 50.287C30.0672 50.287 30.3679 50.4624 30.443 50.4875C30.9191 50.6879 31.8712 50.9134 32.9236 50.9134C34.9782 50.9134 39.9643 50.262 40.8914 50.1617C40.9415 50.1617 42.5952 50.0114 42.6203 50.0114C42.7455 49.9613 43.2216 49.7358 43.3469 49.7358C43.7728 49.7358 45.5518 51.2141 45.5518 51.7904C45.5518 52.1662 45.4516 52.2665 44.8753 52.7425C44.4494 53.0933 44.1988 53.4691 43.5223 54.5215C41.5429 57.5282 39.9894 59.4074 36.4565 61.2114C34.2265 62.339 32.2471 62.8401 32.0216 62.8401C31.8211 62.8401 31.7961 62.6898 31.7961 62.6396C31.7961 62.5895 31.8211 62.5144 31.8462 62.4893ZM63.2163 52.4669C63.2163 53.6696 63.3416 59.0065 63.3416 60.0839C63.3416 60.4598 63.3416 62.1135 62.0136 62.1135C61.4624 62.1135 61.4123 61.9631 60.8861 60.5099C60.5854 59.7081 60.4601 59.5076 59.959 58.7309C59.8588 58.5555 59.8087 58.5054 59.8087 58.4302C59.8087 58.3551 59.8588 58.33 59.9089 58.33C60.0843 58.33 60.9111 58.6557 61.0865 58.6557C61.4123 58.6557 61.5375 58.3801 61.5877 57.9792C61.7129 56.8016 61.7129 54.296 61.7129 52.943C61.7129 51.7403 61.6628 51.2893 60.9863 51.2893C60.836 51.2893 57.8293 51.7152 56.351 52.0911C56.2006 52.1412 55.499 52.3667 55.3487 52.3667C54.7975 52.3667 53.5447 50.6629 53.5447 50.1617C53.5447 50.0365 53.5697 49.9362 53.7201 49.9362C53.8203 49.9362 53.8704 49.9613 54.1961 50.0866C54.7724 50.3371 56.0503 50.3371 56.4261 50.3371C57.0024 50.3371 59.7085 50.1868 60.4601 50.1617C61.4123 50.1116 61.6628 49.9362 61.6628 49.1094C61.6628 48.2825 61.5125 46.6289 61.1366 45.9022C61.0865 45.7769 60.6606 45.3761 60.6606 45.2508C60.6606 45.1756 60.9362 45.0002 61.5125 45.0002C63.2414 45.0002 63.8678 46.1027 63.8678 46.3031C63.8678 46.4535 63.4669 47.0047 63.4167 47.13C63.1912 47.581 63.1912 48.8087 63.1912 49.0593C63.1912 49.836 63.517 49.9613 64.1684 49.9613C64.9702 49.9613 66.1729 49.7609 66.5989 49.7107C66.9246 49.6606 68.2526 49.3349 68.5282 49.3349C69.2799 49.3349 70.1318 49.7107 70.9586 50.1868C71.2342 50.3622 71.585 50.5626 71.585 50.9886C71.585 51.4647 71.0338 51.4897 70.9335 51.4897C70.5577 51.4897 68.9291 51.2141 68.5783 51.164C67.6262 51.0638 65.7971 51.0387 65.5966 51.0387C63.4418 51.0387 63.2163 51.0387 63.2163 52.4669ZM70.7582 59.9336C70.0566 59.9336 69.8311 59.3573 69.3801 58.2799C68.9541 57.2275 68.1774 55.9246 67.3505 55.198C66.9747 54.8472 66.3483 54.2709 66.3483 54.1457C66.3483 54.0204 66.4736 54.0204 66.5237 54.0204C67.8517 54.0204 71.8857 56.4508 71.8857 58.5555C71.8857 59.1318 71.585 59.9586 70.7582 59.9336ZM54.2462 59.3573C53.9205 59.2571 53.5196 58.9314 53.5196 58.4302C53.5196 57.9542 53.7451 57.7036 54.4718 57.2526C55.4489 56.6513 56.7268 55.4987 56.9272 55.3233C57.0525 55.198 57.3281 54.9474 57.4284 54.9474C57.5286 54.9474 57.5536 55.173 57.5536 55.2481C57.5536 56.4258 56.376 59.4575 54.7223 59.4575C54.5219 59.4575 54.3715 59.4074 54.2462 59.3573ZM70.1568 43.3465C72.2365 43.3465 73.6647 44.449 73.6647 45.5264C73.6647 45.8271 73.4642 46.2781 73.0383 46.2781C72.5121 46.2781 72.1863 45.9022 71.7353 45.3259C71.3094 44.8248 70.3573 44.2235 69.5555 43.9228C69.3049 43.8226 69.2297 43.7224 69.2297 43.6472C69.2297 43.4718 69.6807 43.3465 70.1568 43.3465ZM67.8015 45.4763C69.1546 45.4763 69.7309 45.4763 70.6078 46.0275C71.3846 46.5036 71.7103 47.1049 71.7103 47.4557C71.7103 47.9568 71.4096 48.4329 71.0087 48.4329C70.708 48.4329 70.5076 48.3327 69.6557 47.4306C69.1295 46.8794 68.8288 46.704 67.7765 46.0776C67.6512 46.0025 67.3756 45.8271 67.3756 45.7268C67.3756 45.6517 67.576 45.4763 67.8015 45.4763ZM84.3385 48.6584C84.3385 48.8588 83.9877 50.0615 83.9376 50.3371C83.8374 50.8633 83.7372 51.5148 83.7372 55.0477C83.7372 55.7743 83.7372 56.3756 84.564 56.3756C85.6414 56.3756 92.0558 53.6696 96.4656 49.836C96.8164 49.5353 96.8665 49.4852 97.0419 49.4852C97.1672 49.4852 97.2424 49.5855 97.2424 49.6857C97.2424 49.9362 93.5341 53.9953 87.3953 57.2025C84.4888 58.7058 84.2884 58.8562 83.7622 59.5076C83.6369 59.683 83.5868 59.7081 83.4866 59.7081C83.2862 59.7081 81.7828 58.4803 81.7828 57.8038C81.7828 57.6786 81.9832 56.6763 82.0083 56.6262C82.1336 56.0499 82.1336 55.1228 82.1336 53.394C82.1336 50.0866 82.1336 49.4101 81.4821 48.2324C81.3819 48.0821 80.9309 47.4056 80.9309 47.2553C80.9309 47.155 81.0812 47.13 81.1815 47.13C81.4571 47.13 84.3385 47.6311 84.3385 48.6584ZM107.064 52.7425C107.891 52.7425 116.636 52.4168 120.294 52.2163C120.444 52.2163 120.72 52.1913 120.845 52.1913C122.374 52.1913 122.599 53.1184 122.599 53.2938C122.599 53.9953 121.572 54.0705 120.519 54.0705C119.943 54.0705 117.437 54.0204 116.936 54.0204C113.479 54.0204 107.741 54.3461 107.139 54.4714C106.839 54.5215 105.486 54.9224 105.185 54.9224C104.108 54.9224 102.955 53.3689 102.955 52.517C102.955 52.3667 103.03 52.2163 103.156 52.2163C103.281 52.2163 103.882 52.492 104.007 52.517C104.433 52.6423 105.461 52.7425 107.064 52.7425ZM132.897 62.0383C132.346 62.0383 132.095 61.6374 131.469 60.4848C131.394 60.3595 130.943 59.8334 130.868 59.7081C130.792 59.5828 130.717 59.3824 130.717 59.232C130.717 59.1318 130.792 59.0566 130.943 59.0566C131.168 59.0566 132.12 59.3824 132.321 59.3824C133.398 59.3824 140.138 55.624 146.127 48.8338C146.252 48.6834 147.129 47.7063 147.204 47.7063C147.254 47.7063 147.304 47.7313 147.304 47.8065C147.304 48.0821 145.099 53.4441 134.726 60.7103C134.425 60.9108 133.223 62.0383 132.897 62.0383ZM131.945 50.4875C133.022 50.4875 134.551 51.4897 134.551 52.7175C134.551 53.2186 134.175 53.9703 133.574 53.9703C133.198 53.9703 133.072 53.8199 132.697 53.1935C132.17 52.2915 131.319 51.6401 130.416 51.1139C130.341 51.0638 130.191 50.9635 130.191 50.8633C130.191 50.5125 131.619 50.4875 131.945 50.4875ZM134.851 45.7018C137.557 45.7018 137.557 47.6561 137.557 47.7313C137.557 48.3076 137.157 48.8588 136.756 48.8588C136.48 48.8588 136.355 48.7586 135.453 47.6812C134.776 46.8794 133.899 46.5286 133.298 46.3532C133.198 46.3282 132.922 46.253 132.922 46.1778C132.922 46.1027 133.624 45.7018 134.851 45.7018ZM157.151 51.4396C157.251 51.4396 157.753 51.615 158.053 51.7152C158.454 51.8405 159.231 51.8405 159.507 51.8405C160.434 51.8405 164.718 51.6651 165.745 51.2893C165.946 51.2141 166.647 50.6128 166.823 50.6128C167.023 50.6128 168.502 51.7403 168.502 52.2414C168.502 52.492 168.426 52.5671 168.076 52.968C167.95 53.1184 167.85 53.3188 167.825 53.7949C167.75 55.4486 167.7 57.3278 167.7 58.9815C167.7 59.232 167.75 60.3345 167.75 60.56C167.75 61.7126 167.149 62.1636 166.773 62.1636C166.397 62.1636 166.071 61.7627 165.971 61.1864C165.921 60.8607 165.921 60.7855 165.57 60.7855C164.743 60.7855 160.734 61.2616 160.058 61.3868C159.857 61.4119 159.081 61.6374 158.805 61.6374C158.128 61.6374 157.377 60.0338 157.377 59.8334C157.377 59.7331 157.402 59.5327 157.602 59.5327C157.677 59.5327 157.753 59.5578 158.429 59.7833C158.529 59.8083 159.005 59.9837 159.632 59.9837C160.634 59.9837 165.57 59.4826 165.796 59.3824C166.071 59.232 166.071 59.0065 166.096 58.305C166.096 58.1045 166.146 57.0522 166.146 56.9519C166.146 56.6262 166.046 56.4759 165.745 56.4759C165.645 56.4759 163.841 56.7264 162.914 56.8517C162.238 56.9269 159.557 57.2777 159.131 57.2777C158.429 57.2777 157.427 56.5761 157.427 55.7492C157.427 55.4987 157.477 55.4235 157.602 55.4235C157.677 55.4235 157.978 55.5738 158.204 55.6741C158.504 55.7994 158.93 55.8495 159.456 55.8495C161.686 55.8495 165.846 55.4235 166.071 55.173C166.247 54.9725 166.272 53.4942 166.272 53.1434C166.272 52.7175 166.146 52.5922 165.771 52.5922C165.62 52.5922 162.764 52.8929 160.96 53.1184C160.609 53.1685 159.081 53.419 158.78 53.419C157.853 53.419 156.926 52.066 156.926 51.7152C156.926 51.5649 157.051 51.4396 157.151 51.4396ZM186.793 48.8087C186.793 49.5604 186.367 50.0615 185.715 50.0615C185.039 50.0615 184.788 49.6606 183.961 48.4078C183.109 47.13 182.383 46.7541 181.681 46.3532C181.581 46.3031 181.456 46.228 181.456 46.1277C181.456 46.0275 181.656 45.9022 182.007 45.9022C184.688 45.9022 186.793 47.3304 186.793 48.8087ZM197.216 48.5832C197.216 48.8087 194.284 53.4942 187.77 58.305C187.118 58.781 185.84 59.7331 185.314 60.3595C184.838 60.9358 184.788 60.9859 184.412 60.9859C183.059 60.9859 181.205 59.3824 181.205 58.3801C181.205 58.2047 181.23 57.0522 181.456 57.0522C181.556 57.0522 182.107 57.4781 182.207 57.5282C182.533 57.7287 183.36 58.1045 183.911 58.1045C185.139 58.1045 191.779 53.6696 195.938 49.5604C196.339 49.1595 197.04 48.4579 197.091 48.4579C197.141 48.4579 197.216 48.5331 197.216 48.5832Z" fill="white"/>
</svg>
