<svg width="464" height="90" viewBox="0 0 464 90" fill="none" xmlns="http://www.w3.org/2000/svg">
<path d="M12.96 19.32H7.36C4.544 19.32 3.648 19.384 3.328 19.416C3.2 19.416 2.752 19.48 2.656 19.48C2.528 19.48 2.464 19.416 2.368 19.288L1.76 18.552C1.632 18.392 1.6 18.392 1.6 18.328C1.6 18.264 1.664 18.264 1.728 18.264C1.952 18.264 2.944 18.36 3.136 18.36C4.704 18.424 6.016 18.488 7.52 18.488H13.056C14.048 18.488 14.144 18.488 14.144 13.976C14.144 13.208 14.144 11.512 13.952 9.56C13.92 9.368 13.824 8.632 13.824 8.472C13.824 8.312 13.824 8.216 14.016 8.216C14.528 8.216 16.928 8.824 17.344 8.952C17.76 9.048 18.048 9.208 18.048 9.528C18.048 9.784 17.888 9.976 17.536 10.264C16.928 10.776 16.928 10.936 16.864 12.44C16.832 13.272 16.608 16.984 16.608 17.752C16.608 18.488 17.184 18.488 17.696 18.488H23.232C24.704 18.488 24.864 18.488 25.28 17.944C26.304 16.632 26.432 16.504 26.816 16.504C27.52 16.504 30.08 18.552 30.08 18.872C30.08 19.32 29.44 19.32 28.384 19.32H18.176C17.472 19.32 17.248 19.32 17.248 19.832C17.248 21.784 21.408 31.288 30.464 34.84C31.328 35.192 31.328 35.192 31.328 35.32C31.328 35.544 31.168 35.576 30.688 35.608C29.696 35.672 28.864 35.768 27.808 36.216C27.648 36.312 26.944 36.792 26.752 36.792C26.176 36.792 23.328 34.232 21.632 31.8C19.296 28.472 17.6 24.856 16.64 20.952C16.608 20.76 16.48 20.312 16.416 20.312C16.32 20.312 16.32 20.408 16.192 21.08C15.552 24.664 14.368 31.32 6.112 35.928C3.744 37.272 1.6 37.656 1.344 37.656C1.28 37.656 1.152 37.624 1.152 37.528C1.152 37.368 1.856 37.048 2.176 36.888C4.416 35.832 11.104 31.928 13.312 23.256C13.664 21.816 13.824 20.12 13.824 20.024C13.824 19.32 13.472 19.32 12.96 19.32ZM48.608 11.16C48.544 11.256 48.512 11.352 48.512 11.544C48.512 11.544 48.896 19.224 53.152 26.2C53.696 27.064 57.312 32.92 62.24 34.2C62.336 34.232 62.56 34.296 62.56 34.424C62.56 34.584 62.464 34.584 61.44 34.808C60.32 35.064 59.552 35.544 59.232 35.768C58.624 36.216 58.528 36.312 58.432 36.312C58.304 36.312 54.24 33.784 51.136 27C50.56 25.72 48.512 21.336 48.064 14.616C48.032 14.264 48.032 14.232 47.904 14.232C47.712 14.232 47.712 14.36 47.584 15.512C47.488 16.536 46.656 23.992 43.488 29.208C40.064 34.904 34.464 36.824 34.176 36.824C34.08 36.824 33.984 36.792 33.984 36.664C33.984 36.568 34.144 36.44 34.4 36.28C36.256 35.032 39.84 32.184 41.984 28.056C45.632 21.112 45.632 11.96 45.632 11.608C45.632 10.68 45.632 10.328 45.504 9.656C45.472 9.56 45.376 9.112 45.376 9.016C45.376 8.856 45.536 8.76 45.632 8.76C45.824 8.76 47.2 9.208 47.488 9.272C49.024 9.688 49.664 9.88 49.664 10.456C49.664 10.808 49.408 10.904 49.12 10.968C48.864 11 48.704 11.032 48.608 11.16ZM80.704 13.24C80.064 13.24 80.032 13.496 80.032 13.688C80.032 13.784 80.096 13.912 80.096 14.04C80.224 15.064 80.416 16.088 80.416 17.496C80.416 19.64 79.936 22.616 77.12 26.872C74.56 30.776 72.928 31.544 71.648 31.544C69.536 31.544 67.648 28.248 67.648 24.344C67.648 22.648 68 19.416 71.2 16.184C75.264 12.024 79.552 12.024 81.408 12.024C84.32 12.024 85.664 12.6 86.56 13.048C90.016 14.744 92.128 18.168 92.128 22.36C92.128 26.52 89.728 31.64 84.064 33.624C81.344 34.584 79.232 34.808 78.752 34.808C78.624 34.808 78.432 34.776 78.432 34.584C78.432 34.488 78.496 34.456 79.296 34.136C82.624 32.824 89.568 30.072 89.568 22.104C89.568 20.856 89.44 13.24 80.704 13.24ZM78.912 13.336C75.872 13.336 69.632 17.464 69.632 23.512C69.632 25.592 70.464 28.44 72.416 28.44C73.344 28.44 74.112 28.056 76.32 24.728C78.016 22.136 79.456 18.584 79.456 15.416C79.456 13.496 79.328 13.336 78.912 13.336ZM105.376 10.392H119.008C119.488 10.392 120 10.264 120.288 9.88C120.576 9.464 120.608 9.432 120.8 9.432C121.088 9.432 123.456 10.712 123.456 11.256C123.456 11.448 123.168 11.672 122.784 11.992C122.432 12.28 122.432 12.504 122.432 14.584C122.432 15.448 122.496 19.256 122.496 20.056C122.496 21.048 122.496 21.432 122.24 21.688C121.792 22.2 121.12 22.264 120.8 22.264C120.16 22.264 120.128 21.944 120 21.24C119.904 20.568 119.392 20.568 119.072 20.568H105.024C104.064 20.568 104.064 21.016 104.032 21.464C104 22.392 103.072 22.776 102.24 22.776C101.92 22.776 101.536 22.712 101.536 21.944C101.536 21.688 101.664 20.568 101.664 20.344C101.696 18.936 101.696 16.92 101.696 15.48C101.696 12.856 101.632 11.672 101.536 10.392C101.504 10.136 101.472 9.688 101.472 9.464C101.472 9.336 101.472 9.176 101.664 9.176C101.888 9.176 103.328 9.848 103.712 10.04C104.416 10.36 104.992 10.392 105.376 10.392ZM109.92 11.224H104.832C103.84 11.224 103.84 11.704 103.84 12.664C103.84 14.744 103.84 14.968 104.832 14.968H109.92C110.944 14.968 110.944 14.744 110.944 12.568C110.944 11.704 110.912 11.224 109.92 11.224ZM104.832 19.704H109.952C110.944 19.704 110.944 19.288 110.944 18.2C110.944 16.056 110.944 15.832 109.952 15.832H104.832C103.84 15.832 103.84 16.088 103.84 18.296C103.84 19.256 103.84 19.704 104.832 19.704ZM114.08 19.704H119.2C119.552 19.704 119.872 19.672 120.064 19.352C120.192 19.16 120.192 16.952 120.192 16.6C120.192 15.832 119.424 15.832 119.2 15.832H114.08C113.824 15.832 113.28 15.832 113.12 16.344C113.088 16.504 113.088 18.52 113.088 18.936C113.088 19.704 113.824 19.704 114.08 19.704ZM119.2 11.224H114.048C113.088 11.224 113.088 11.448 113.088 13.144C113.088 14.712 113.088 14.968 114.048 14.968H119.2C120.16 14.968 120.16 14.712 120.16 13.144C120.128 11.448 120.16 11.224 119.2 11.224ZM113.344 25.112H119.968C120.384 25.112 120.832 25.048 121.12 24.76C121.28 24.632 121.824 23.736 122.048 23.736C122.304 23.736 124.992 25.016 124.992 25.528C124.992 25.72 124.736 25.912 124.576 26.008C124.32 26.2 123.808 26.552 123.776 26.968C123.712 28.664 123.584 30.392 123.008 32.76C122.112 36.376 118.784 37.208 118.112 37.208C117.92 37.208 117.824 36.952 117.76 36.728C117.568 36.12 117.312 35.832 116.224 35.128C115.904 34.904 114.176 33.976 114.176 33.848C114.176 33.752 114.272 33.752 114.336 33.752C114.592 33.752 117.568 34.072 118.176 34.072C119.136 34.072 120.288 33.656 120.736 32.344C121.216 30.904 121.536 27.896 121.536 26.84C121.536 25.976 120.896 25.944 120.576 25.944H113.312C112.544 25.944 112.096 26.168 111.872 27C110.464 31.896 107.616 33.848 106.528 34.552C104.896 35.64 101.824 36.856 99.392 36.856C99.296 36.856 98.976 36.856 98.976 36.696C98.976 36.632 99.552 36.44 99.616 36.408C102.4 35.576 104.96 34.456 106.976 32.024C108.896 29.752 109.568 27 109.568 26.68C109.568 25.976 108.896 25.944 108.608 25.944H104.256C103.488 25.944 101.312 25.976 100.224 26.04C100.128 26.04 99.648 26.104 99.52 26.104C99.424 26.104 99.36 26.04 99.264 25.912L98.624 25.176C98.496 25.016 98.496 25.016 98.496 24.952C98.496 24.888 98.56 24.888 98.624 24.888C98.816 24.888 99.776 24.984 100 24.984C100.928 25.048 102.592 25.112 104.416 25.112H108.896C109.76 25.112 109.984 25.016 109.984 22.584C109.984 22.232 109.952 21.976 109.824 21.624C109.728 21.528 109.504 21.272 109.504 21.208C109.504 21.016 109.984 21.016 110.176 21.016C111.072 21.016 113.152 21.368 113.152 21.944C113.152 22.04 112.672 22.456 112.576 22.552C112.416 22.84 112.352 23.928 112.352 24.248C112.352 25.112 113.024 25.112 113.344 25.112ZM139.552 18.104C139.552 19.672 138.56 20.088 138.144 20.088C137.6 20.088 137.6 19.448 137.6 19.128C137.6 18.2 137.504 17.08 137.344 16.056C137.312 15.896 137.088 15.256 137.088 15.128C137.088 15.096 137.12 15.032 137.184 15.032C137.6 15.032 139.552 16.28 139.552 18.104ZM136.032 11.224C136.064 12.856 135.904 21.176 135.904 23.192V33.208C135.904 33.592 136 35.16 136 35.48C136 36.792 135.296 37.368 134.56 37.368C134.112 37.368 133.536 37.208 133.536 35.896C133.536 35.736 133.632 34.296 133.632 34.168C133.824 31.448 133.824 28.088 133.824 24.792C133.824 22.232 133.824 11.608 133.696 9.912C133.664 9.72 133.44 8.792 133.44 8.6C133.44 8.44 133.536 8.344 133.76 8.344C133.888 8.344 136.32 8.792 136.832 9.048C136.928 9.112 137.056 9.208 137.056 9.4C137.056 9.688 136.832 9.848 136.512 10.136C136.128 10.424 136.032 10.68 136.032 11.224ZM132.32 18.616C132.32 20.824 131.456 23.128 130.24 23.128C129.6 23.128 129.056 22.456 129.056 21.688C129.056 21.08 129.248 20.76 130.208 19.032C130.848 17.912 131.264 16.344 131.456 15.032C131.488 14.872 131.488 14.84 131.552 14.84C131.968 14.84 132.32 17.272 132.32 18.616ZM144.384 16.184H146.176C147.168 16.184 147.168 15.672 147.168 15.064C147.168 14.424 147.104 11.704 147.104 11.16C147.104 10.104 147.104 9.976 147.008 9.624C146.976 9.496 146.688 8.792 146.688 8.632C146.688 8.312 147.04 8.248 147.264 8.248C147.648 8.248 149.664 8.76 150.08 8.888C150.368 8.984 150.496 9.208 150.496 9.432C150.496 9.72 150.336 9.88 149.984 10.168C149.504 10.584 149.44 10.872 149.44 12.664V15.576C149.536 16.12 149.952 16.184 150.4 16.184H152.096C153.472 16.184 153.632 16.184 154.176 15.288C154.368 14.968 154.784 14.392 155.04 14.392C155.424 14.392 157.792 16.28 157.792 16.632C157.792 17.016 157.088 17.016 156.064 17.016H150.4C150.112 17.016 149.664 17.08 149.472 17.496C149.344 17.784 149.344 22.456 149.344 22.904C149.344 24.728 149.344 25.08 150.368 25.08H151.936C153.088 25.08 153.504 25.08 153.92 24.664C154.112 24.44 154.816 23.256 155.072 23.256C155.296 23.256 157.824 24.984 157.824 25.528C157.824 25.944 157.152 25.944 156.096 25.944H150.368C150.112 25.944 149.6 25.944 149.44 26.456C149.344 26.744 149.344 31.8 149.344 32.344C149.344 34.712 149.344 34.84 150.368 34.84H152.896C153.92 34.84 154.208 34.84 154.56 34.552C154.848 34.264 155.744 32.6 156.096 32.6C156.512 32.6 158.88 34.68 158.88 35.224C158.88 35.704 158.176 35.704 157.12 35.704H143.296C140.512 35.704 139.584 35.768 139.264 35.768C139.168 35.8 138.688 35.864 138.592 35.864C138.464 35.864 138.432 35.768 138.304 35.64L137.696 34.904C137.632 34.808 137.568 34.744 137.568 34.712C137.568 34.648 137.6 34.616 137.664 34.616C137.888 34.616 138.88 34.744 139.072 34.744C140.64 34.808 141.952 34.84 143.456 34.84H146.176C147.2 34.84 147.2 34.616 147.2 31.672C147.2 26.968 147.2 26.424 146.976 26.168C146.784 25.944 146.624 25.944 145.408 25.944C143.68 25.944 142.368 25.976 141.856 26.04C141.76 26.04 141.28 26.104 141.184 26.104C141.088 26.104 141.024 26.04 140.896 25.88L140.288 25.144C140.16 25.016 140.16 24.984 140.16 24.952C140.16 24.888 140.192 24.888 140.256 24.888C140.48 24.888 141.472 24.984 141.696 24.984C144.256 25.08 145.312 25.08 146.304 25.08C147.232 25.08 147.232 24.44 147.232 23.928C147.232 19.48 147.232 19 147.2 18.136C147.168 17.464 147.168 17.016 146.176 17.016H144.096C143.296 17.016 143.2 17.208 142.496 18.776C141.696 20.504 140.736 22.328 138.976 24.184C138.848 24.344 138.752 24.44 138.656 24.44C138.592 24.44 138.56 24.376 138.56 24.344C138.56 24.28 140.128 20.632 140.384 19.928C141.088 18.104 142.368 14.264 142.368 12.12C142.368 11.96 142.24 11.192 142.24 11.064C142.24 10.808 142.496 10.776 142.624 10.776C142.72 10.776 145.792 11.544 145.792 12.312C145.792 12.536 145.696 12.6 145.024 13.048C144.384 13.432 143.808 15.64 143.808 15.736C143.808 16.184 144.192 16.184 144.384 16.184ZM173.088 16.984C173.92 16.984 174.976 17.464 177.088 19.576C180.96 23.448 184.128 24.856 186.048 25.72C187.552 26.424 188.864 27.128 188.864 28.056C188.864 28.248 188.576 29.272 187.68 29.272C187.392 29.272 184.512 29.176 179.744 24.6C178.976 23.864 175.552 20.408 174.848 19.736C174.112 19.032 173.568 18.616 173.056 18.616C172 18.616 171.712 18.904 169.088 21.464C168.864 21.688 166.528 23.896 166.464 23.928C166.336 24.024 166.144 24.088 165.952 24.088C164.736 24.088 162.848 22.584 162.848 22.04C162.848 21.912 162.912 21.88 163.456 21.816C164.928 21.688 167.264 20.472 168.672 19.352C171.36 17.208 172 16.984 173.088 16.984ZM200.864 35.32C200.864 36.088 200.224 36.856 199.616 36.856C198.944 36.856 198.816 36.632 197.76 34.712C197.12 33.592 196.288 32.472 194.4 31.288C194.304 31.224 193.952 31 193.952 30.904C193.952 30.808 194.048 30.68 194.304 30.68C195.424 30.68 200.864 32.344 200.864 35.32ZM225.376 25.528C225.376 26.36 227.68 32.888 227.68 34.296C227.68 34.904 227.456 35.512 226.976 35.512C225.568 35.512 225.056 32.728 224.8 31.384C224.64 30.584 223.936 27.096 223.776 26.36C223.68 25.784 223.52 25.368 222.944 25.368C222.816 25.368 219.008 26.264 217.44 26.776C217.12 26.872 215.808 27.608 215.488 27.608C215.008 27.608 211.808 26.2 211.808 25.24C211.808 24.984 212.032 24.92 212.192 24.92C212.48 24.92 213.824 25.048 214.112 25.048C216.544 25.048 218.464 24.664 221.888 23.96C222.72 23.8 222.912 23.672 222.912 23.128C222.912 22.616 222.688 21.688 222.24 19.928C222.016 19.128 221.888 18.808 221.408 18.808C220.672 18.808 217.056 20.024 216.96 20.024C216.224 20.024 214.048 18.872 214.048 18.296C214.048 18.072 214.432 18.072 214.72 18.072C215.52 18.072 217.824 17.912 219.648 17.528C220.768 17.272 221.248 17.08 221.248 16.472C221.248 16.344 220.864 13.304 219.456 12.088C219.232 11.896 217.984 11.064 217.984 10.936C217.984 10.744 218.944 10.392 219.648 10.392C220.288 10.392 222.528 11.096 222.624 11.736C222.688 12.184 222.752 14.04 222.816 14.424C223.104 16.504 223.456 16.504 223.904 16.504C224.224 16.504 226.24 15.832 226.688 15.64C228.064 15.032 228.224 14.968 228.672 14.968C229.696 14.968 230.56 15.64 230.56 16.152C230.56 16.792 229.952 16.92 227.616 17.368C225.024 17.88 224.736 17.976 224.384 18.072C223.808 18.264 223.776 18.52 223.776 18.872C223.776 19.416 224.192 21.112 224.352 21.752C224.64 22.84 224.768 23.128 225.344 23.128C225.92 23.128 228.672 22.264 229.44 21.912C230.496 21.432 231.2 21.112 232.608 21.112C234.304 21.112 235.008 21.976 235.008 22.52C235.008 23.48 233.696 23.512 232.544 23.512C230.72 23.544 227.712 24.216 226.784 24.44C225.44 24.728 225.376 24.92 225.376 25.528ZM234.368 9.752C236.096 9.752 238.72 10.872 238.72 12.696C238.72 13.048 238.464 13.656 237.888 13.656C237.216 13.656 236.8 13.112 236.256 12.376C235.808 11.768 234.56 10.904 233.568 10.456C233.248 10.296 233.152 10.168 233.152 10.072C233.152 9.752 234.176 9.752 234.368 9.752ZM231.264 12.536C233.568 12.536 235.808 14.232 235.808 15.672C235.808 16.056 235.424 16.888 234.816 16.888C234.368 16.888 234.08 16.6 233.216 15.352C232.768 14.68 232.544 14.488 231.104 13.272C231.008 13.176 230.688 12.888 230.688 12.76C230.688 12.6 230.976 12.536 231.264 12.536ZM245.92 14.648C246.08 14.648 246.272 14.744 246.528 14.84C247.264 15.192 248.512 15.544 249.184 15.544C250.496 15.544 259.872 14.616 261.248 14.008C262.24 13.56 262.368 13.496 262.592 13.496C263.296 13.496 263.808 13.944 264.8 14.808C266.24 16.088 266.432 16.44 266.432 16.888C266.432 17.304 266.272 17.464 265.696 18.04C265.184 18.52 265.056 18.776 264.448 20.056C259.424 30.488 248.256 34.968 247.936 34.968C247.776 34.968 247.712 34.84 247.712 34.776C247.712 34.648 247.808 34.584 248.128 34.36C253.696 30.456 258.208 26.232 260.768 21.688C262.336 18.936 262.944 16.6 262.944 16.28C262.944 15.736 262.4 15.704 262.24 15.704C261.888 15.704 252.576 17.272 250.72 18.008C250.464 18.136 249.312 18.712 249.056 18.712C248.64 18.712 248.416 18.712 246.752 17.176C246.144 16.632 245.824 16.312 245.824 15.384C245.824 15.128 245.856 14.968 245.92 14.648ZM283.744 11.128C283.776 10.84 284.608 10.84 284.64 10.84C285.792 10.84 288.096 11.864 288.096 12.888C288.096 13.112 287.776 14.04 287.712 14.232C287.552 15.032 287.424 17.88 287.424 18.68C287.424 19.384 287.552 19.48 288.48 19.704C290.432 20.152 295.392 22.488 295.392 24.888C295.392 25.944 294.4 26.008 294.24 26.008C293.44 26.008 293.344 25.88 291.2 23.096C290.304 21.912 288.8 20.408 287.808 20.408C287.488 20.408 287.36 20.408 287.36 22.776C287.36 26.168 287.392 27.864 287.52 30.744C287.552 31.096 287.584 31.896 287.584 32.376C287.584 33.176 287.584 35.288 286.656 35.288C285.696 35.288 284.864 33.112 284.864 32.28C284.864 32.152 284.992 31.48 284.992 31.352C285.216 28.696 285.28 27.864 285.28 23.928C285.28 14.776 285.28 13.752 284.896 12.728C284.64 12.056 284.32 11.736 283.808 11.256L283.744 11.128ZM311.488 25.784C311.488 26.744 311.808 27.704 312.32 27.704C312.864 27.704 313.152 27.192 313.856 25.208C314.048 24.664 314.144 24.408 314.304 24.408C314.464 24.408 314.464 24.728 314.464 24.792C314.464 25.144 313.728 28.888 313.728 29.656C313.728 30.2 314.176 31.16 314.24 31.32C314.464 31.768 314.624 32.312 314.624 32.728C314.624 33.368 314.112 33.816 313.568 33.816C311.584 33.816 310.112 28.376 310.112 25.304C310.112 23.256 310.368 22.328 311.456 18.328C312 16.376 312 15.576 312 15C312 13.976 311.808 13.112 311.68 12.728C311.648 12.632 311.488 12.248 311.488 12.152C311.488 12.056 311.616 11.992 311.744 11.992C313.216 11.992 314.56 14.904 314.56 16.056C314.56 16.408 314.56 16.44 313.952 17.528C313.6 18.2 311.488 22.904 311.488 25.784ZM328.064 13.944C328.64 14.04 329.408 14.584 329.408 15.32C329.408 16.888 325.856 16.888 325.472 16.888C321.856 16.888 319.872 14.936 319.872 14.52C319.872 14.456 319.904 14.36 320.096 14.36C320.192 14.36 320.576 14.488 320.992 14.584C321.728 14.744 322.592 14.776 323.168 14.776C324.736 14.776 326.24 14.456 326.688 14.296C327.648 13.944 327.744 13.912 328.064 13.944ZM329.44 29.816C330.656 29.816 330.912 30.52 330.912 30.904C330.912 32.152 329.952 32.536 325.472 32.536C322.336 32.536 321.152 31.736 320.48 31.096C320.32 30.936 319.488 30.104 319.488 29.496C319.488 29.432 319.488 29.176 319.648 29.176C319.776 29.176 320.288 29.56 320.416 29.624C321.344 30.104 322.656 30.168 323.84 30.168C324.672 30.168 325.824 30.168 326.624 30.072C327.072 30.04 329.312 29.816 329.44 29.816ZM350.496 8.952C351.456 8.856 353.696 10.968 353.696 11.832C353.696 12.12 352.192 14.808 352.192 15.352C352.192 15.576 352.352 15.8 352.768 16.088C353.536 16.632 353.92 16.984 353.92 17.464C353.92 17.976 353.568 18.232 351.552 18.936C350.688 19.224 350.624 19.448 350.016 21.464C349.824 22.136 349.344 23.672 349.344 24.248C349.344 24.76 349.472 24.76 351.712 24.952C352.48 25.016 353.984 25.496 353.984 26.296C353.984 26.872 353.12 27.224 352.32 27.224C351.84 27.224 349.536 26.808 349.376 26.808C348.576 26.808 348.576 28.312 348.576 29.016C348.608 30.456 348.992 33.784 352.992 33.784C354.336 33.784 357.6 33.208 357.6 29.432C357.6 28.056 357.312 26.232 354.432 22.2C354.336 22.072 354.304 21.976 354.304 21.88C354.304 21.592 355.008 22.2 355.104 22.264C358.784 25.24 360.224 27.768 360.224 30.008C360.224 33.048 357.152 35.768 353.408 35.768C352.8 35.768 347.296 35.768 347.296 29.976C347.296 29.464 347.552 27.288 347.552 26.84C347.552 26.456 347.488 26.232 346.944 25.816C345.792 24.952 345.216 24.088 345.216 23.096C345.216 22.136 345.568 21.08 347.584 19.448C349.248 18.104 349.44 17.976 349.44 17.528C349.44 17.112 349.28 16.984 348.576 16.44C347.648 15.704 346.432 14.744 346.432 13.4C346.432 13.176 346.496 12.824 346.72 12.824C346.88 12.824 347.424 13.496 347.552 13.592C348.416 14.296 349.344 14.712 349.728 14.712C350.624 14.712 350.88 11.864 350.88 11.416C350.88 10.776 350.72 9.72 350.56 9.272C350.496 9.144 350.496 9.048 350.496 8.952ZM348.8 20.44C348.8 20.184 348.8 19.896 348.384 19.896C347.648 19.896 346.048 20.984 346.048 22.2C346.048 23.16 347.04 24.12 347.68 24.12C347.808 24.12 347.968 24.024 348.032 23.864C348.32 23.32 348.8 20.6 348.8 20.44ZM370.56 21.56L369.952 20.824C369.824 20.696 369.824 20.664 369.824 20.632C369.824 20.568 369.856 20.536 369.92 20.536C370.144 20.536 371.136 20.632 371.328 20.664C372.896 20.728 374.208 20.76 375.712 20.76H392.608C394.112 20.76 394.272 20.76 394.656 20.216C395.328 19.288 395.424 19.16 395.712 19.16C396.096 19.16 398.368 20.952 398.368 21.176C398.368 21.624 397.696 21.624 396.64 21.624H384.576C384.32 21.624 383.648 21.624 383.648 22.52C383.648 23.64 383.616 28.536 383.648 29.528C383.648 30.52 383.744 34.968 383.744 35.896C383.744 37.336 382.368 37.432 382.176 37.432C381.408 37.432 381.216 37.016 381.216 36.472C381.216 35.928 381.376 33.496 381.376 32.984C381.376 32.344 381.12 32.216 380.768 32.216C380.512 32.216 374.016 33.976 372.864 34.776C372.704 34.904 372.032 35.576 371.84 35.576C371.424 35.576 370.24 33.144 370.24 33.048C370.24 32.696 370.528 32.696 370.944 32.696C374.016 32.696 374.4 32.6 374.4 31.704V23.192C374.4 22.072 374.4 21.624 373.376 21.624C372.992 21.624 371.136 21.784 370.848 21.784C370.72 21.784 370.688 21.688 370.56 21.56ZM380.512 25.304H377.472C376.48 25.304 376.48 25.72 376.48 26.904C376.48 27.736 376.48 28.216 377.472 28.216H380.512C381.504 28.216 381.504 27.896 381.504 26.328C381.504 25.56 381.216 25.304 380.512 25.304ZM380.576 21.624H377.408C376.512 21.624 376.512 22.008 376.512 23.544C376.512 24.472 377.152 24.472 377.408 24.472H380.576C381.504 24.472 381.504 24.088 381.504 22.52C381.504 21.624 380.864 21.624 380.576 21.624ZM380.48 29.08H377.44C376.48 29.08 376.48 29.432 376.48 31.096C376.48 31.96 377.12 32.024 377.312 32.024C377.344 32.024 380.832 31.576 381.088 31.448C381.44 31.256 381.44 30.872 381.44 30.008C381.44 29.08 380.768 29.08 380.48 29.08ZM390.016 23.96H391.36C391.872 23.96 392.096 23.96 392.448 23.384C392.96 22.584 393.024 22.488 393.28 22.488C393.312 22.488 394.304 22.904 394.816 23.128C395.296 23.32 396.064 23.64 396.064 24.056C396.064 24.312 395.072 25.368 394.912 25.656C394.688 26.104 393.504 29.24 393.216 29.912C393.088 30.168 392.384 31.48 392.384 31.576C392.384 31.704 392.384 31.768 392.48 31.864C393.44 32.76 394.688 33.528 396.096 34.2C396.48 34.392 398.528 35.16 398.528 35.32C398.528 35.448 398.24 35.544 398.208 35.544C397.216 35.928 396.832 36.056 396.48 36.408C396.352 36.504 395.84 37.144 395.68 37.144C395.52 37.144 393.824 35.96 392.8 35.096C392.48 34.84 391.168 33.304 390.912 33.304C390.816 33.304 390.72 33.368 389.952 34.008C387.264 36.184 385.408 36.792 385.024 36.792C384.96 36.792 384.896 36.792 384.896 36.728C384.896 36.568 386.432 35.512 386.72 35.288C388.736 33.688 389.952 31.864 389.952 31.704C389.952 31.608 389.888 31.48 389.824 31.352C389.664 31.064 388.512 29.112 387.616 26.072C387.296 24.952 387.264 24.824 386.624 24.824C386.4 24.824 385.376 24.952 385.12 24.952C385.024 24.952 384.96 24.888 384.832 24.76L384.224 24.024C384.096 23.864 384.096 23.864 384.096 23.8C384.096 23.736 384.16 23.736 384.192 23.736C384.416 23.736 385.376 23.832 385.6 23.832C386.528 23.864 388.192 23.96 390.016 23.96ZM391.808 24.792H388.768C388.576 24.792 388.224 24.792 388.224 25.24C388.224 26.04 390.176 30.104 390.816 30.104C391.36 30.104 392.544 26.424 392.544 25.336C392.544 24.792 392.128 24.792 391.808 24.792ZM388.224 18.424H379.456C378.592 18.424 378.56 18.456 378.304 18.84C378.08 19.224 377.824 19.64 376.832 19.64C375.808 19.64 375.776 19.096 375.776 18.328C375.776 17.688 375.904 14.52 375.904 13.816C375.904 12.024 375.776 10.776 375.744 10.52C375.744 10.36 375.616 9.656 375.616 9.496C375.616 9.368 375.648 9.112 375.84 9.112C376.128 9.112 377.408 9.656 377.728 9.784C378.304 9.976 378.656 10.04 379.488 10.04H388.256C389.568 10.04 389.728 10.04 390.112 9.592C390.368 9.272 390.496 9.112 390.688 9.112C390.752 9.112 393.056 10.168 393.056 10.776C393.056 11 392.96 11.096 392.512 11.512C392.032 11.928 392.032 11.928 392.032 17.272C392.032 18.136 392.032 19.416 390.432 19.416C389.856 19.416 389.76 19.192 389.536 18.776C389.376 18.456 389.088 18.424 388.224 18.424ZM379.136 13.784H388.864C389.184 13.784 389.824 13.784 389.824 12.856C389.824 11.256 389.824 10.872 388.864 10.872H379.136C378.816 10.872 378.144 10.872 378.144 11.832C378.144 13.432 378.144 13.784 379.136 13.784ZM379.2 17.592H388.8C389.12 17.592 389.792 17.592 389.792 16.696C389.792 14.904 389.792 14.648 388.8 14.648H379.2C378.848 14.648 378.208 14.648 378.208 15.512C378.208 17.336 378.208 17.592 379.2 17.592ZM424.992 17.848H414.272C413.92 17.848 413.248 17.848 413.248 18.744V30.36C413.248 30.968 413.184 31.96 411.936 31.96C411.072 31.96 411.072 31.192 411.072 30.84C411.072 30.392 411.2 28.344 411.2 27.928C411.328 24.696 411.328 24.632 411.328 19.512C411.328 19.032 411.232 17.016 411.232 16.6C411.232 16.312 411.296 16.088 411.648 16.088C412 16.088 412.32 16.248 413.28 16.792C413.696 17.016 413.92 17.016 414.24 17.016H415.52C415.68 17.016 415.904 17.016 415.904 16.76C415.904 16.568 415.36 14.616 415.072 13.976C414.496 12.76 414.368 12.728 413.632 12.728C413.536 12.728 412 12.76 411.168 12.824C411.104 12.824 410.784 12.856 410.72 12.856C410.624 12.856 410.496 12.76 410.432 12.664L409.824 11.928C409.76 11.832 409.696 11.768 409.696 11.704C409.696 11.672 409.728 11.64 409.792 11.64C410.016 11.64 411.008 11.736 411.2 11.768C412.768 11.832 414.112 11.864 415.616 11.864H417.504C417.76 11.864 418.336 11.864 418.336 11.16C418.336 10.904 418.272 9.976 418.176 9.464C418.144 9.304 417.984 8.728 417.984 8.6C417.984 8.408 418.112 8.248 418.368 8.248C418.592 8.248 421.184 8.536 421.184 9.272C421.184 9.496 421.152 9.528 420.8 9.912C420.576 10.136 420.448 10.392 420.448 10.968C420.448 11.8 420.704 11.864 421.376 11.864H423.872C425.312 11.864 425.472 11.864 425.92 11.288C426.816 10.136 426.912 10.008 427.2 10.008C427.552 10.008 429.952 11.768 429.952 12.248C429.952 12.696 429.44 12.696 428.48 12.696H424.096C423.84 12.696 423.68 12.728 423.68 12.856C423.68 12.952 424.064 13.144 424.288 13.336C424.736 13.656 425.12 13.912 425.12 14.296C425.12 14.52 425.024 14.552 424.288 14.808C423.68 15 422.016 16.76 422.016 16.856C422.016 17.016 422.208 17.016 422.336 17.016H424.864C425.216 17.016 425.408 16.984 425.632 16.696C426.112 16.024 426.208 15.864 426.432 15.864C426.752 15.864 428.672 17.08 428.672 17.688C428.672 17.944 428.576 18.008 428.096 18.328C427.872 18.488 427.808 18.776 427.808 19.288V23.352C427.808 24.248 427.968 28.12 427.968 28.888C427.968 30.552 427.648 31.192 427.168 31.608C426.976 31.768 426.368 32.248 425.6 32.248C424.832 32.248 424.8 31.96 424.8 31.512C424.8 30.808 424.32 30.392 424.224 30.328C424.096 30.264 423.488 30.008 423.488 29.912C423.488 29.784 423.616 29.784 423.68 29.784C423.872 29.784 424.704 29.912 424.896 29.912C425.92 29.912 425.92 29.528 425.92 27.992C425.92 26.552 425.952 20.184 425.952 18.904C425.952 17.848 425.312 17.848 424.992 17.848ZM420.608 30.04H418.144C417.632 30.04 417.568 30.136 417.472 30.52C417.344 31.16 416.768 31.416 416.288 31.416C415.712 31.416 415.648 30.936 415.648 30.584C415.648 30.2 415.712 27.352 415.712 26.744C415.712 26.456 415.648 24.984 415.648 24.664C415.648 24.536 415.68 24.248 416.064 24.248C416.32 24.248 417.536 24.888 417.856 24.888C418.368 24.888 418.464 24.632 418.464 24.216C418.464 22.456 418.464 22.264 417.568 22.264C417.248 22.264 415.68 22.392 415.424 22.392C415.328 22.392 415.264 22.328 415.136 22.2L414.528 21.464C414.4 21.304 414.4 21.304 414.4 21.24C414.4 21.176 414.464 21.176 414.496 21.176C414.944 21.176 417.184 21.336 417.664 21.336C418.432 21.336 418.496 21.048 418.496 20.664C418.496 20.184 418.464 19.672 418.368 19.128C418.336 18.84 418.208 18.584 418.208 18.488C418.208 18.296 418.304 18.264 418.72 18.264C418.752 18.264 420.896 18.296 420.896 19.064C420.896 19.288 420.736 19.416 420.48 19.64C420.288 19.8 420.256 20.28 420.256 20.536C420.256 21.304 420.448 21.432 421.312 21.432C421.984 21.432 422.176 21.304 422.528 20.824C422.944 20.28 423.168 20.088 423.392 20.088C423.744 20.088 425.12 21.24 425.12 21.784C425.12 22.2 424.864 22.264 423.296 22.264H421.312C420.256 22.264 420.256 22.424 420.256 24.12C420.256 24.44 420.384 24.888 420.896 24.888C421.216 24.888 421.376 24.664 421.472 24.568C421.792 24.184 421.824 24.088 422.08 24.088C422.496 24.088 423.84 24.952 423.84 25.4C423.84 25.56 423.296 26.136 423.264 26.296C423.2 26.712 423.264 29.144 423.264 29.432C423.264 31.192 422.144 31.192 422.048 31.192C421.632 31.192 421.472 30.904 421.376 30.584C421.216 30.072 421.152 30.04 420.608 30.04ZM421.792 12.696H416.224C415.904 12.696 415.68 12.728 415.68 12.856C415.68 12.952 415.744 12.984 416.256 13.368C416.896 13.816 417.696 14.68 417.696 15.48C417.696 15.864 417.568 16.184 417.472 16.408C417.44 16.472 417.216 16.76 417.216 16.824C417.216 17.016 417.472 17.016 417.568 17.016H420.224C420.736 17.016 420.896 17.016 421.44 15.992C421.632 15.64 422.432 13.976 422.432 13.144C422.432 12.76 422.272 12.696 421.792 12.696ZM420.576 25.72H418.4C417.504 25.72 417.504 26.04 417.504 27.576C417.504 28.856 417.504 29.208 418.4 29.208H420.576C421.44 29.208 421.44 28.888 421.44 27.384C421.44 26.072 421.44 25.72 420.576 25.72ZM404.672 10.424C408.48 12.248 409.12 14.712 409.12 15.288C409.12 16.024 408.576 16.44 408.032 16.44C407.456 16.44 407.328 16.248 406.016 14.392C405.44 13.56 403.328 10.872 403.008 10.52C402.752 10.232 402.528 9.976 402.208 9.656C402.208 9.592 402.304 9.56 402.336 9.56C402.624 9.56 404.16 10.168 404.672 10.424ZM402.016 22.296L401.408 21.56C401.28 21.4 401.28 21.4 401.28 21.336C401.28 21.272 401.344 21.272 401.376 21.272C401.76 21.272 404.416 21.464 404.992 21.464C405.44 21.464 405.632 21.272 405.888 20.984C406.336 20.44 406.56 20.184 406.88 20.184C407.232 20.184 408.928 21.432 408.928 21.944C408.928 22.168 408.736 22.328 408.64 22.392C407.968 22.808 407.84 22.904 407.744 23.16C407.648 23.416 407.648 28.408 407.648 29.016C407.648 29.88 407.648 30.648 408.128 31.448C409.6 33.912 412.896 33.912 414.848 33.912C419.872 33.912 426.336 33.912 429.792 33.016C430.016 32.952 431.104 32.568 431.232 32.568C431.264 32.568 431.328 32.6 431.328 32.664C431.328 32.728 431.296 32.76 430.976 33.112C430.464 33.688 429.792 34.52 429.664 35.064C429.472 35.736 429.408 35.96 429.184 36.088C428.928 36.216 422.144 36.216 421.6 36.216C416.672 36.216 413.728 36.216 411.616 35.416C409.12 34.488 408.128 33.272 407.776 32.728C407.616 32.472 407.008 31.32 406.784 31.32C406.496 31.32 404.32 33.848 403.584 34.776C402.88 35.704 402.816 35.8 402.656 35.8C402.176 35.8 400.608 33.464 400.608 33.112C400.608 32.856 400.736 32.856 401.28 32.856C401.536 32.856 405.088 31.224 405.44 30.616C405.568 30.392 405.568 29.688 405.568 23.448C405.568 22.392 405.152 22.392 404.384 22.392C404.096 22.392 402.496 22.52 402.304 22.52C402.176 22.52 402.144 22.424 402.016 22.296ZM443.264 13.464C443.488 13.272 443.552 12.76 443.552 12.472C443.552 11.992 443.392 11.512 443.104 11.064C443.008 10.904 442.496 10.296 442.496 10.168C442.496 9.784 443.168 9.496 443.808 9.496C445.088 9.496 445.6 10.2 446.112 10.904C446.272 11.128 446.592 11.256 447.552 11.512C448.16 11.672 449.376 12.024 449.376 12.92C449.376 14.136 447.584 14.712 444.992 15.48C444.704 15.576 444.672 15.672 444.384 16.792C444 18.392 441.248 29.208 438.304 29.208C437.44 29.208 437.312 28.632 437.312 28.312C437.312 27.864 437.408 27.704 438.368 26.328C441.856 21.208 442.784 16.056 442.784 15.896C442.784 15.608 442.56 15.576 442.08 15.544C438.304 15.224 438.304 12.984 438.304 12.952C438.304 12.824 438.336 12.568 438.528 12.568C438.656 12.568 438.752 12.6 439.392 12.984C439.744 13.208 440.64 13.656 441.856 13.656C441.92 13.656 443.04 13.656 443.264 13.464ZM445.28 13.176C445.376 13.272 447.296 12.856 447.296 12.376C447.296 12.152 446.176 11.576 445.984 11.576C445.44 11.576 445.216 12.888 445.216 12.984C445.216 13.048 445.248 13.144 445.28 13.176ZM452.96 31.992C452.832 32.056 452.832 32.184 452.768 32.504C452.352 35.288 449.92 35.992 448.256 35.992C445.216 35.992 443.424 33.88 443.424 32.28C443.424 30.2 445.696 29.112 448.576 29.112C448.832 29.112 450.016 29.176 450.24 29.176C450.528 29.176 450.688 29.144 450.688 28.824C450.688 28.344 450.56 26.2 450.56 25.752C450.56 22.232 450.752 20.536 453.44 19C455.424 17.848 455.648 17.752 455.648 16.92C455.648 16.216 454.944 15.48 454.752 15.288C454.464 15.032 454.336 14.904 454.336 14.776C454.336 14.68 454.432 14.616 454.56 14.616C454.784 14.616 455.776 14.904 456.448 15.16C458.656 15.992 458.784 17.944 458.784 18.424C458.784 19.64 457.92 20.088 457.28 20.088C457.248 20.088 456.864 20.088 456.544 19.96C455.328 19.512 455.2 19.448 454.816 19.448C454.048 19.448 452.992 19.896 452.48 20.408C451.744 21.112 451.712 22.264 451.712 23.064C451.712 23.864 452.032 28.824 452.992 29.496C453.28 29.72 454.784 30.232 455.072 30.392C455.744 30.744 457.6 31.768 457.6 32.952C457.6 33.496 457.376 34.072 456.736 34.072C456.416 34.072 456.224 33.976 455.744 33.56C454.88 32.792 453.408 31.8 452.96 31.992ZM450.784 31.16C450.624 30.68 448.896 30.68 448.16 30.68C447.424 30.68 444.544 30.68 444.544 32.376C444.544 33.144 445.504 34.104 447.424 34.104C450.528 34.104 450.976 31.672 450.784 31.16ZM11.904 80H1.888C1.696 80 0.96 79.968 0.96 79.52C0.96 77.824 3.008 75.36 3.744 74.496C11.296 65.504 11.968 64.672 11.968 61.632C11.968 58.784 9.888 57.12 7.712 57.12C5.792 57.12 4.128 58.432 4.128 59.808C4.128 59.904 4.128 60.32 4.448 60.768C4.864 61.376 5.12 61.728 5.12 62.304C5.12 63.232 4.352 64.032 3.392 64.032C2.304 64.032 1.568 63.072 1.568 61.856C1.568 59.136 4.384 56.064 8.448 56.064C11.904 56.064 14.848 58.304 14.848 62.08C14.848 65.376 12.832 67.2 10.112 69.472C5.28 73.504 3.552 76.48 3.552 77.088C3.552 77.568 4.576 77.568 4.704 77.568H8C11.232 77.568 13.088 76.672 13.984 74.56C14.496 73.376 14.496 73.344 14.688 73.344C15.008 73.344 15.008 73.728 15.008 73.792C15.008 74.048 13.984 78.176 13.824 78.848C13.536 80 12.416 80 11.904 80ZM22.656 67.008C20.736 67.008 18.944 65.184 18.944 64.256C18.944 63.904 19.136 63.744 19.424 63.744C19.744 63.744 21.088 64.128 21.376 64.128C22.176 64.128 22.592 63.936 26.528 62.336C28.064 61.728 32.448 59.936 35.488 59.936C40.192 59.936 43.648 63.584 43.648 67.84C43.68 73.664 37.696 77.12 30.816 77.12C30.528 77.12 30.048 77.12 30.048 76.704C30.048 76.448 30.176 76.448 31.36 76.288C39.264 75.168 41.184 69.536 41.184 66.688C41.184 62.976 38.176 61.344 36 61.344C32.96 61.344 28.384 63.776 25.6 65.696C24 66.816 23.52 67.008 22.656 67.008ZM64.704 58.24C64.064 58.24 64.032 58.496 64.032 58.688C64.032 58.784 64.096 58.912 64.096 59.04C64.224 60.064 64.416 61.088 64.416 62.496C64.416 64.64 63.936 67.616 61.12 71.872C58.56 75.776 56.928 76.544 55.648 76.544C53.536 76.544 51.648 73.248 51.648 69.344C51.648 67.648 52 64.416 55.2 61.184C59.264 57.024 63.552 57.024 65.408 57.024C68.32 57.024 69.664 57.6 70.56 58.048C74.016 59.744 76.128 63.168 76.128 67.36C76.128 71.52 73.728 76.64 68.064 78.624C65.344 79.584 63.232 79.808 62.752 79.808C62.624 79.808 62.432 79.776 62.432 79.584C62.432 79.488 62.496 79.456 63.296 79.136C66.624 77.824 73.568 75.072 73.568 67.104C73.568 65.856 73.44 58.24 64.704 58.24ZM62.912 58.336C59.872 58.336 53.632 62.464 53.632 68.512C53.632 70.592 54.464 73.44 56.416 73.44C57.344 73.44 58.112 73.056 60.32 69.728C62.016 67.136 63.456 63.584 63.456 60.416C63.456 58.496 63.328 58.336 62.912 58.336ZM81.696 56.672H91.36C94.944 56.672 99.488 57.856 99.488 61.824C99.488 64.32 97.632 66.24 95.616 67.008C95.424 67.072 94.848 67.296 94.848 67.456C94.848 67.616 96.192 67.904 96.448 68C99.2 69.088 100.832 71.328 100.832 73.568C100.832 76.608 98.112 80 92.128 80H81.408C80.928 80 80.448 80 80.448 79.488C80.448 78.976 80.928 78.976 81.44 78.976C82.496 78.976 83.904 78.976 84.192 77.312C84.32 76.672 84.384 67.648 84.384 66.4C84.384 64.992 84.416 59.776 84.096 58.912C83.68 57.728 82.176 57.728 81.856 57.728C80.8 57.728 80.448 57.728 80.448 57.184C80.448 56.672 80.768 56.672 81.696 56.672ZM87.616 67.136H91.072C94.08 67.136 96.512 65.536 96.512 62.272C96.512 59.168 94.368 57.728 91.36 57.728H89.088C86.784 57.728 86.784 59.168 86.784 61.952C86.784 63.552 86.784 66.432 86.88 66.72C87.008 67.008 87.424 67.136 87.616 67.136ZM91.968 68.16H87.616C87.392 68.16 87.008 68.288 86.88 68.576C86.752 68.864 86.752 73.408 86.752 74.144C86.752 77.632 86.752 78.976 89.088 78.976H91.872C95.328 78.976 97.792 77.024 97.792 73.664C97.792 70.848 95.872 68.16 91.968 68.16ZM124.498 68.352C124.498 75.52 120.242 80.608 114.066 80.608C107.89 80.608 103.602 75.552 103.602 68.352C103.602 61.152 107.858 56.064 114.066 56.064C120.21 56.064 124.498 61.12 124.498 68.352ZM114.066 79.552C121.202 79.552 121.458 70.24 121.458 68.064C121.458 65.12 120.626 57.12 114.066 57.12C106.898 57.12 106.642 66.528 106.642 68.64C106.642 71.712 107.57 79.552 114.066 79.552ZM135.34 80H128.172C127.788 80 127.308 80 127.308 79.488C127.308 79.008 127.724 78.976 128.14 78.944C130.22 78.784 132.204 75.776 134.124 72.832C134.508 72.256 136.108 69.824 136.46 69.312C136.524 69.216 136.812 68.768 136.812 68.448C136.812 68.16 136.716 68 135.852 66.56C131.788 59.968 131.34 59.232 130.732 58.656C129.836 57.792 129.196 57.76 128.332 57.728C127.948 57.696 127.82 57.408 127.82 57.216C127.82 56.672 128.299 56.672 128.556 56.672H136.428C136.812 56.672 137.292 56.672 137.292 57.216C137.292 57.728 136.78 57.728 136.652 57.728C136.044 57.728 134.572 57.728 134.572 59.008C134.572 59.584 134.796 59.968 136.844 63.264C137.196 63.84 137.74 64.736 138.092 65.28C138.188 65.44 138.412 65.792 138.604 65.792C138.828 65.792 139.084 65.344 139.564 64.64C140.076 63.872 142.604 60.192 142.828 59.68C142.956 59.424 143.052 59.136 143.052 58.848C143.052 57.728 141.868 57.728 141.356 57.728C140.62 57.728 140.236 57.728 140.236 57.216C140.236 56.672 140.716 56.672 141.036 56.672H147.628C147.884 56.672 148.364 56.672 148.364 57.216C148.364 57.344 148.3 57.728 147.788 57.728C145.356 57.728 143.916 59.872 141.9 62.976C141.548 63.52 140.012 65.792 139.724 66.272C139.66 66.368 139.372 66.816 139.372 67.104C139.372 67.424 139.468 67.584 140.332 68.992C144.428 75.648 144.876 76.384 145.516 77.12C146.412 78.176 147.692 78.944 149.1 78.976C149.484 78.976 149.644 79.264 149.644 79.488C149.644 80 149.164 80 148.78 80H140.524C140.108 80 139.66 80 139.66 79.488C139.66 78.976 140.108 78.976 140.556 78.976C141.036 78.976 142.252 78.784 142.252 77.568C142.252 76.992 142.22 76.96 140.652 74.432C139.82 73.056 138.252 70.496 138.124 70.304C138.028 70.176 137.772 69.792 137.612 69.792C137.356 69.792 136.492 71.104 136.204 71.52C135.308 72.864 133.836 74.976 133.004 76.32C132.876 76.544 132.588 77.024 132.588 77.664C132.588 78.816 133.772 78.976 135.18 78.976C135.884 78.976 136.268 78.976 136.268 79.488C136.268 80 135.82 80 135.34 80ZM155.109 66.016C155.205 66.016 155.237 66.016 155.685 66.144C155.973 66.208 156.549 66.24 156.869 66.24C158.149 66.24 158.693 66.08 163.557 64.8C164.421 64.576 164.485 64.32 164.485 62.624C164.485 59.168 164.101 58.624 163.333 57.472C163.301 57.408 162.949 56.928 162.949 56.864C162.949 56.576 164.133 56.32 164.421 56.32C164.805 56.32 165.157 56.48 166.629 57.728C166.725 57.824 167.301 58.368 167.301 58.688C167.301 58.944 166.757 59.936 166.693 60.128C166.437 61.152 166.213 63.072 166.213 63.2C166.213 63.616 166.469 63.808 166.853 63.808C167.045 63.808 170.757 62.88 171.653 62.464C171.877 62.368 172.805 61.792 173.029 61.792C173.893 61.792 177.317 64.256 177.317 65.568C177.317 65.792 177.157 66.048 176.741 66.048C176.613 66.048 176.005 65.984 175.877 65.984C175.205 65.984 174.853 66.208 173.701 66.912C172.901 67.424 171.429 68.352 171.301 68.352C171.205 68.352 171.109 68.288 171.109 68.16C171.109 68.128 171.653 67.232 171.717 67.104C172.197 66.336 172.613 65.312 172.613 64.448C172.613 64.256 172.581 63.808 172.229 63.808C172.165 63.808 167.365 65.376 166.949 65.504C166.213 65.76 165.957 66.048 165.957 66.88C165.957 69.568 165.957 72.448 166.021 73.056C166.277 75.584 168.069 75.872 169.989 75.872C171.205 75.872 173.221 75.616 173.509 75.552C174.501 75.296 175.493 75.104 176.165 75.104C176.933 75.104 177.509 75.616 177.509 76.128C177.509 78.176 172.133 78.176 170.405 78.176C164.869 78.176 164.197 76.736 164.197 71.424C164.197 70.784 164.261 68 164.261 67.456C164.261 66.944 164.069 66.72 163.621 66.72C163.301 66.72 160.869 67.488 160.613 67.616C158.725 68.608 158.533 68.704 157.829 68.704C156.197 68.704 154.917 66.272 154.917 66.144C154.917 66.048 155.045 66.016 155.109 66.016ZM204.325 65.44C204.325 64.8 204.261 64.448 204.101 64.064C204.101 64.032 204.037 63.872 204.037 63.776C204.037 63.616 204.165 63.552 204.261 63.552C204.517 63.552 205.477 64.224 205.701 64.352C206.213 64.608 207.493 65.376 207.493 66.304C207.493 66.56 207.365 66.592 206.821 66.912C206.565 67.072 205.445 69.248 205.189 69.664C200.293 77.792 192.421 80.96 192.165 80.96C192.069 80.96 191.973 80.864 191.973 80.768C191.973 80.608 193.477 79.648 193.765 79.424C200.581 74.208 204.325 68.192 204.325 65.44ZM190.309 66.496C191.077 66.496 194.213 68.096 194.213 70.656C194.213 71.552 193.477 71.872 193.125 71.872C192.421 71.872 192.197 71.136 191.973 70.432C191.685 69.536 190.981 68.288 190.117 67.2C189.957 66.976 189.893 66.88 189.893 66.784C189.893 66.592 190.085 66.496 190.309 66.496ZM195.845 63.552C197.349 63.776 199.109 65.376 199.109 67.168C199.109 68.096 198.597 68.8 198.021 68.8C197.317 68.8 197.157 68 197.061 67.456C196.837 66.432 196.741 66.144 195.877 64.416C195.813 64.288 195.525 63.84 195.525 63.712C195.525 63.616 195.685 63.52 195.845 63.552ZM226.213 56.128C226.245 55.84 227.077 55.84 227.109 55.84C228.261 55.84 230.565 56.864 230.565 57.888C230.565 58.112 230.245 59.04 230.181 59.232C230.021 60.032 229.893 62.88 229.893 63.68C229.893 64.384 230.021 64.48 230.949 64.704C232.901 65.152 237.861 67.488 237.861 69.888C237.861 70.944 236.869 71.008 236.709 71.008C235.909 71.008 235.813 70.88 233.669 68.096C232.773 66.912 231.269 65.408 230.277 65.408C229.957 65.408 229.829 65.408 229.829 67.776C229.829 71.168 229.861 72.864 229.989 75.744C230.021 76.096 230.053 76.896 230.053 77.376C230.053 78.176 230.053 80.288 229.125 80.288C228.165 80.288 227.333 78.112 227.333 77.28C227.333 77.152 227.461 76.48 227.461 76.352C227.685 73.696 227.749 72.864 227.749 68.928C227.749 59.776 227.749 58.752 227.365 57.728C227.109 57.056 226.789 56.736 226.277 56.256L226.213 56.128Z" fill="white"/>
</svg>
