<svg width="410" height="86" viewBox="0 0 410 86" fill="none" xmlns="http://www.w3.org/2000/svg">
<path d="M12.3448 52.6235L7.34077 60.8535V52.6235H2.81934V73.7828H7.34077V64.2319L12.7513 73.7828H17.7299L11.3288 62.4792L17.3235 52.6235H12.3448Z" fill="white"/>
<path d="M35.13 10.5842L25.6807 41.65H32.412L34.3933 34.309H43.1822L44.9857 41.65H52.1488L43.0044 10.5842H35.13ZM35.765 29.1525L38.991 17.1885L41.9121 29.1525H35.765Z" fill="white"/>
<path d="M131.68 10C124.111 10 119.361 15.7407 119.361 26.079C119.361 36.4174 124.06 42.1327 131.68 42.1327C139.301 42.1327 144 36.4428 144 26.079C144 15.7153 139.25 10 131.68 10ZM131.68 36.8746C128.404 36.8746 126.448 33.1406 126.448 26.079C126.448 19.0175 128.404 15.2327 131.68 15.2327C134.957 15.2327 136.913 18.9921 136.913 26.079C136.913 33.166 134.957 36.8746 131.68 36.8746Z" fill="white"/>
<path d="M139.784 52.6235H135.262V73.7828H139.784V52.6235Z" fill="white"/>
<path d="M115.398 64.7653H120.225V73.7828H124.746V52.6235H120.225V60.9297H115.398V52.6235H110.852V73.7828H115.398V64.7653Z" fill="white"/>
<path d="M109.505 36.4681H98.684V28.3651H108.54V23.2086H98.684V15.7406H109.098V10.5842H92.0288V41.6246H109.505V36.4681Z" fill="white"/>
<path d="M67.7963 27.6031L75.7215 41.6246H83.0116L73.6386 25.0375L82.4528 10.5842H75.1626L67.7963 22.6244V10.5842H61.1411V41.6246H67.7963V27.6031Z" fill="white"/>
<path d="M63.8081 52.6235V65.6035C63.8081 71.3442 66.018 74.113 70.9205 74.113C75.8229 74.113 78.0582 71.3442 78.0582 65.6035V52.6235H73.7146V66.1624C73.7146 69.1597 73.1812 70.5568 71.0221 70.5568C68.863 70.5568 68.3803 69.1343 68.3803 66.1624V52.6235H63.8081Z" fill="white"/>
<path d="M45.5698 52.6235H41.0483V73.7828H45.5698V64.2319L50.9549 73.7828H55.9335L49.5578 62.4792L55.5525 52.6235H50.5738L45.5698 60.8535V52.6235Z" fill="white"/>
<path d="M96.9312 74.1384C98.5823 74.1384 100.132 73.8589 101.58 73.2493V69.1851C100.36 69.9725 98.9379 70.379 97.6424 70.379C94.2895 70.379 92.3082 67.8388 92.3082 63.1904C92.3082 58.542 94.2133 56.1034 97.4646 56.1034C98.8363 56.1034 100.208 56.4082 101.453 57.2211V53.2585C99.8778 52.5726 98.3283 52.2678 96.7788 52.2678C91.2413 52.2678 87.5073 56.4844 87.5073 63.1904C87.5073 69.8963 91.1905 74.1384 96.9312 74.1384Z" fill="white"/>
<path d="M7.06157 41.6246H13.7167V16.1979H20.7021V10.5842H0V16.1979H7.06157V41.6246Z" fill="white"/>
<path d="M30.456 52.6235H25.9092V73.7828H30.456V52.6235Z" fill="white"/>
<path d="M176 14C178.184 16.1835 215.576 53.5765 234 72" stroke="white" stroke-width="1.28"/>
<path d="M234 14C231.816 16.1835 194.424 53.5765 176 72" stroke="white" stroke-width="1.28"/>
<path d="M325.704 57.4331C325.704 57.4331 325.754 57.4331 325.771 57.4669C325.771 57.5008 325.754 57.5346 325.704 57.5854C325.196 58.1097 324.908 58.7355 324.84 59.429C324.806 59.6997 324.789 60.0887 324.789 60.5792V62.0001C324.789 62.3384 324.789 62.7612 324.789 63.3025C324.789 63.5562 324.789 63.996 324.823 64.6049C324.857 65.2308 324.891 65.6367 324.925 65.8397C325.06 66.77 325.467 67.4973 326.127 68.0217L326.059 68.0893C324.485 68.0386 323.283 68.0048 322.504 68.0048C321.505 68.0048 320.658 68.0386 319.947 68.0893C320.083 67.9709 320.32 67.6834 320.658 67.2436C320.98 66.6516 321.149 66.1272 321.149 65.6874C321.149 63.996 321.132 62.5921 321.082 61.4419C321.082 61.3911 321.031 61.3742 320.946 61.3742C320.455 62.1861 319.947 63.0826 319.456 64.0806C319.27 64.4358 319.033 64.9094 318.745 65.5014L318.221 66.6347C318.085 66.9222 317.916 67.3113 317.713 67.7849C317.543 68.1401 317.442 68.343 317.442 68.3769C317.323 68.1908 317.239 68.0047 317.154 67.8187L316.832 67.1083C316.798 67.0068 316.697 66.8038 316.528 66.4824C316.341 66.1272 316.053 65.5521 315.63 64.7741C314.97 63.59 314.242 62.406 313.429 61.2389C313.412 61.1882 313.379 61.1543 313.345 61.1543C313.294 61.1543 313.26 61.1882 313.243 61.2727C313.243 61.2727 313.243 61.2896 313.243 61.3235C313.243 61.4588 313.243 61.7633 313.243 62.1861C313.243 63.3194 313.328 64.2835 313.514 65.0785C313.717 66.0088 314.073 66.8038 314.581 67.4973C314.767 67.6834 315.021 67.8864 315.359 68.1062C315.359 68.1062 315.359 68.1062 315.325 68.1232C315.292 68.1401 315.292 68.1232 315.258 68.1232C315.241 68.1232 315.224 68.1232 315.207 68.1401C314.581 68.0893 313.869 68.0724 313.04 68.0724H310.873C311.618 67.4804 312.143 66.6685 312.43 65.6367C312.634 64.8925 312.735 63.9114 312.735 62.7105C312.735 62.3553 312.735 62.0001 312.735 61.6787V60.6638C312.718 60.5454 312.701 60.3424 312.701 60.0718C312.38 59.5136 311.855 58.8878 311.093 58.1774C310.89 57.9744 310.653 57.7545 310.399 57.5177H312.921C314.293 57.5177 315.258 57.5008 315.8 57.4669C315.8 57.4669 315.8 57.4839 315.833 57.5008C315.85 57.5008 315.867 57.5177 315.867 57.5346C316.121 58.3973 316.612 59.3614 317.323 60.427C317.357 60.4777 317.594 60.8499 318.034 61.5095C318.254 61.814 318.576 62.2876 319.016 62.9304C319.033 62.9304 319.067 62.9304 319.101 62.9642C319.135 62.9811 319.169 63.0149 319.186 63.0319L319.236 63.0657C319.236 63.0657 319.321 63.0488 319.372 62.998C319.643 62.5582 320.049 61.8817 320.574 60.9852C320.946 60.2917 321.132 59.632 321.132 59.0062C321.132 58.7863 321.116 58.5326 321.065 58.2789C321.048 58.1943 320.98 58.0759 320.862 57.8729C320.743 57.6868 320.675 57.5515 320.642 57.4839H322.572C322.758 57.5008 323.113 57.5177 323.655 57.5177C324.552 57.5177 325.246 57.5008 325.754 57.45L325.704 57.4331ZM327.854 57.4839C328.379 57.4839 329.056 57.4839 329.902 57.5346C330.901 57.5684 331.765 57.5854 332.526 57.5854C333.898 57.5854 335.303 57.5515 336.725 57.4839V58.448C336.725 58.8201 336.742 59.1584 336.759 59.446C336.759 59.7335 336.759 60.0718 336.759 60.4439C336.759 60.4778 336.759 60.4947 336.708 60.4947C336.657 60.4947 336.573 60.3593 336.386 60.0718C336.336 59.9872 336.268 59.9027 336.2 59.8181C336.133 59.7335 336.099 59.6658 336.065 59.632C336.031 59.5982 336.014 59.5644 336.014 59.5644C335.083 58.5495 334.169 58.042 333.305 58.042C333.17 58.042 333.034 58.042 332.882 58.0928C332.679 58.2958 332.577 58.6679 332.56 59.2261C332.56 59.5982 332.56 60.1733 332.56 60.9683C332.56 61.9155 332.611 62.3891 332.73 62.3891C333.373 62.3891 334.016 62.1016 334.66 61.5265C334.914 61.3066 335.168 61.0359 335.438 60.6976C335.472 60.6976 335.489 61.4588 335.489 62.998V64.3681C335.168 63.9283 334.778 63.5731 334.287 63.3194C333.796 63.0657 333.288 62.9304 332.747 62.9304C332.628 62.9473 332.577 63.5731 332.577 64.8079C332.577 65.7044 332.628 66.4824 332.73 67.1083C332.78 67.362 332.967 67.4973 333.288 67.4804H333.965C334.88 67.4297 335.726 66.8884 336.505 65.8735C336.793 65.4845 337.131 64.994 337.47 64.4019C337.47 64.7571 337.47 65.0954 337.47 65.383C337.47 65.6705 337.47 66.0088 337.47 66.364C337.47 66.77 337.47 67.3451 337.504 68.0893L335.049 68.0386H333.051C331.341 68.0386 329.665 68.0724 328.006 68.157C327.921 68.1401 327.888 68.1062 327.888 68.0724C327.888 68.0386 327.905 67.9709 327.938 67.9033C328.633 67.0914 328.971 65.8566 328.971 64.1821V63.3871V63.0657V61.5095C328.971 60.2748 328.903 59.429 328.768 58.9385C328.649 58.5326 328.362 58.042 327.888 57.4839H327.854ZM344.699 57.4839C344.953 57.4839 345.089 57.5008 345.089 57.5854C345.055 57.6868 345.038 57.8222 345.038 58.0082C345.055 58.3634 345.156 58.6679 345.326 58.9047C345.461 59.1077 345.8 59.5474 346.324 60.224C346.849 60.8837 347.56 61.7294 348.475 62.7612C348.593 62.8796 348.678 62.9473 348.762 62.9473C348.83 62.9473 348.864 62.8965 348.864 62.7951C348.864 61.4081 348.796 60.4101 348.678 59.8012C348.491 58.8201 348.085 58.1266 347.459 57.7207C347.34 57.6361 347.289 57.5684 347.289 57.5346C347.289 57.5008 347.391 57.4839 347.611 57.4839H350.54C350.659 57.4839 350.726 57.4839 350.726 57.5177C350.726 57.5515 350.675 57.6192 350.574 57.6868C349.964 58.1435 349.575 58.9893 349.423 60.2071C349.355 60.7146 349.321 61.3066 349.321 62.0001C349.321 62.1016 349.321 62.4737 349.355 63.1503L349.406 64.4527C349.423 64.791 349.44 65.3153 349.456 65.9919L349.49 66.7023C349.524 67.3112 349.541 67.7341 349.541 68.0048C349.541 68.0893 349.44 68.1401 349.236 68.1401H348.593C348.102 68.1401 347.831 68.1062 347.78 68.0217C347.154 67.0744 346.324 65.9581 345.275 64.6387C344.107 63.1503 343.023 61.8647 342.007 60.7822C341.956 60.7315 341.906 60.7146 341.855 60.7146C341.77 60.7146 341.736 60.7484 341.719 60.7991C341.719 60.9683 341.719 61.3235 341.719 61.8817C341.719 63.2687 341.838 64.3681 342.058 65.2138C342.397 66.4486 343.023 67.3451 343.903 67.9033C344.005 67.9709 344.056 68.0386 344.056 68.0893C344.056 68.157 344.005 68.1739 343.886 68.157C343.159 68.1232 342.464 68.1062 341.821 68.1062C341.381 68.1062 340.975 68.1062 340.619 68.1062C340.263 68.1062 339.874 68.1062 339.434 68.1062C339.366 68.1062 339.332 68.1062 339.332 68.0724C339.332 68.0386 339.383 67.9878 339.485 67.8863C340.213 67.2267 340.721 66.4148 340.975 65.4676C341.093 65.0109 341.144 64.5203 341.161 63.9622C341.195 62.9304 341.212 62.2369 341.212 61.8647C341.212 61.019 341.195 60.3255 341.161 59.7842C340.534 59.0738 340.026 58.5833 339.654 58.2789C339.434 58.0928 339.112 57.8729 338.689 57.6023L338.655 57.5684C338.655 57.5684 338.774 57.4839 338.977 57.5008C340.653 57.5515 341.635 57.5684 341.956 57.5684C342.769 57.5684 343.683 57.5346 344.733 57.4669L344.699 57.4839ZM353.13 57.1625C353.587 57.1625 353.96 57.3824 354.265 57.8222C354.434 58.059 354.502 58.3296 354.502 58.6341C354.502 59.2092 354.298 59.7335 353.909 60.1902C353.672 60.4778 353.317 60.6976 352.859 60.8499C352.741 60.8499 352.69 60.7822 352.69 60.6469C352.91 60.5116 353.164 60.3424 353.401 60.1395C353.486 60.0549 353.537 59.9365 353.537 59.8012C353.452 59.7673 353.3 59.7504 353.063 59.7504C352.961 59.7504 352.859 59.7504 352.792 59.7166C352.148 59.4967 351.827 59.0908 351.827 58.4987C351.827 58.1097 351.945 57.7883 352.182 57.5346C352.419 57.2809 352.724 57.1456 353.113 57.1456L353.13 57.1625ZM364.88 57.5346C364.88 57.5346 364.998 57.4331 365.032 57.4331C365.083 57.4331 365.1 57.4839 365.1 57.5684V58.4649C365.1 58.5664 365.1 58.8032 365.1 59.1922C365.1 59.7335 365.117 60.2579 365.168 60.7822C364.998 60.6638 364.812 60.4947 364.609 60.2748C364.287 59.9196 364.118 59.7335 364.101 59.7166C363.305 58.9216 362.459 58.3973 361.595 58.1774C361.308 58.0759 360.986 58.042 360.63 58.042C359.818 58.042 359.14 58.2958 358.599 58.7863C358.345 59.0062 358.209 59.243 358.192 59.4967C358.142 59.7166 358.108 59.9027 358.108 60.0041C358.108 60.3255 358.209 60.5792 358.396 60.7822C358.633 61.1036 359.039 61.2727 359.598 61.2727C359.665 61.2727 359.852 61.2727 360.156 61.2389C360.292 61.2389 360.732 61.1712 361.494 61.0528C362.052 60.9683 362.51 60.9175 362.831 60.9175C363.407 60.9175 363.864 61.0359 364.236 61.2727C364.406 61.3742 364.592 61.5265 364.795 61.7633C365.354 62.406 365.625 63.2179 365.625 64.1821C365.625 64.7571 365.523 65.2646 365.32 65.6705C365.049 66.2964 364.609 66.8376 364.033 67.2774C363.729 67.5142 363.424 67.6834 363.119 67.7849C363.068 67.7849 363.001 67.8187 362.916 67.8356C362.831 67.8525 362.713 67.8863 362.543 67.9371C362.374 67.9878 362.239 68.0217 362.12 68.0386C361.917 68.0893 361.646 68.1232 361.324 68.1232C361.003 68.1232 360.63 68.0893 360.19 68.0217C359.513 67.9202 359.14 67.8694 359.073 67.8525C358.92 67.8525 358.7 67.8525 358.429 67.8525C357.803 67.8525 357.261 67.9878 356.821 68.2416C356.719 68.2416 356.669 68.2416 356.669 68.2077C356.703 67.7003 356.719 67.0744 356.719 66.3302C356.719 65.7551 356.719 65.18 356.669 64.6218C356.669 64.6218 356.719 64.6218 356.787 64.6218C357.447 65.5352 358.142 66.2456 358.887 66.77C359.75 67.362 360.647 67.6665 361.578 67.6665C362.306 67.6665 362.882 67.4973 363.322 67.159C363.593 66.956 363.762 66.7023 363.864 66.4317C363.915 66.3133 363.932 66.1441 363.932 65.9581C363.932 65.6029 363.847 65.2984 363.678 65.0616C363.424 64.6557 362.916 64.4527 362.154 64.4696C361.951 64.4696 361.477 64.5373 360.732 64.6726C360.004 64.8248 359.462 64.8925 359.09 64.8925C358.26 64.8925 357.634 64.6387 357.194 64.1144C356.719 63.5562 356.482 62.7951 356.482 61.8309C356.482 61.3066 356.584 60.7822 356.77 60.224C356.957 59.7166 357.194 59.2937 357.481 58.9893C358.175 58.245 359.022 57.8391 360.021 57.7545C360.207 57.7207 360.41 57.7038 360.664 57.7038C360.918 57.7038 361.358 57.7376 361.985 57.8222C362.611 57.8898 363.051 57.9406 363.305 57.9406C363.915 57.9406 364.423 57.8222 364.846 57.5854L364.88 57.5346ZM299.208 74.1955C299.208 74.1955 299.327 74.094 299.36 74.094C299.411 74.094 299.428 74.1448 299.428 74.2293V75.1258C299.428 75.2273 299.428 75.4641 299.428 75.8531C299.428 76.3944 299.445 76.9187 299.496 77.4431C299.327 77.3247 299.14 77.1556 298.937 76.9357C298.615 76.5805 298.446 76.3944 298.429 76.3775C297.634 75.5825 296.787 75.0581 295.924 74.8382C295.636 74.7368 295.314 74.7029 294.959 74.7029C294.146 74.7029 293.469 74.9567 292.927 75.4472C292.673 75.6671 292.538 75.9039 292.521 76.1576C292.47 76.3775 292.436 76.5635 292.436 76.665C292.436 76.9864 292.538 77.2401 292.724 77.4431C292.961 77.7645 293.367 77.9336 293.926 77.9336C293.994 77.9336 294.18 77.9336 294.485 77.8998C294.62 77.8998 295.06 77.8321 295.822 77.7137C296.381 77.6292 296.838 77.5784 297.16 77.5784C297.735 77.5784 298.192 77.6968 298.565 77.9336C298.734 78.0351 298.92 78.1873 299.123 78.4241C299.682 79.0669 299.953 79.8788 299.953 80.8429C299.953 81.418 299.851 81.9255 299.648 82.3314C299.377 82.9573 298.937 83.4985 298.362 83.9383C298.057 84.1751 297.752 84.3443 297.447 84.4457C297.397 84.4457 297.329 84.4796 297.244 84.4965C297.16 84.5134 297.041 84.5472 296.872 84.598C296.702 84.6487 296.567 84.6826 296.448 84.6995C296.245 84.7502 295.974 84.784 295.653 84.784C295.331 84.784 294.959 84.7502 294.518 84.6826C293.841 84.5811 293.469 84.5303 293.401 84.5134C293.249 84.5134 293.029 84.5134 292.758 84.5134C292.131 84.5134 291.59 84.6487 291.149 84.9024C291.048 84.9024 290.997 84.9024 290.997 84.8686C291.031 84.3612 291.048 83.7353 291.048 82.9911C291.048 82.416 291.048 81.8409 290.997 81.2827C290.997 81.2827 291.048 81.2827 291.115 81.2827C291.776 82.1961 292.47 82.9065 293.215 83.4309C294.078 84.0229 294.976 84.3273 295.907 84.3273C296.635 84.3273 297.21 84.1582 297.65 83.8199C297.921 83.6169 298.091 83.3632 298.192 83.0926C298.243 82.9742 298.26 82.805 298.26 82.619C298.26 82.2638 298.175 81.9593 298.006 81.7225C297.752 81.3165 297.244 81.1136 296.482 81.1305C296.279 81.1305 295.805 81.1981 295.06 81.3335C294.332 81.4857 293.79 81.5534 293.418 81.5534C292.588 81.5534 291.962 81.2996 291.522 80.7753C291.048 80.2171 290.811 79.4559 290.811 78.4918C290.811 77.9675 290.912 77.4431 291.099 76.8849C291.285 76.3775 291.522 75.9546 291.81 75.6502C292.504 74.9059 293.35 74.5 294.349 74.4154C294.535 74.3816 294.739 74.3646 294.992 74.3646C295.246 74.3646 295.687 74.3985 296.313 74.483C296.939 74.5507 297.38 74.6014 297.634 74.6014C298.243 74.6014 298.751 74.483 299.174 74.2462L299.208 74.1955ZM308.181 74.1617H313.141C313.057 74.2293 312.854 74.3308 312.549 74.483C312.244 74.6184 312.041 74.7368 311.956 74.8044C311.33 75.1427 310.568 75.7178 309.671 76.5635L308.52 77.6292C308.249 77.8998 307.927 78.1704 307.571 78.458C307.571 78.5595 307.622 78.6102 307.707 78.6102C308.587 78.458 309.231 78.3734 309.654 78.3734C310.314 78.3734 310.856 78.5256 311.262 78.7963C311.516 78.9654 311.719 79.1853 311.855 79.439C312.041 79.7435 312.126 80.1494 312.126 80.6738C312.126 80.9106 312.092 81.2658 312.041 81.7225C311.99 82.2468 311.973 82.6021 311.973 82.7712C311.973 82.9403 311.973 83.1264 312.024 83.3125L312.075 83.4478C312.126 83.5662 312.193 83.6169 312.295 83.6339C312.498 83.6339 312.684 83.5324 312.854 83.3125C312.888 83.2617 312.955 83.008 313.04 82.5513C313.074 82.4329 313.125 82.3314 313.192 82.2299C313.328 82.2299 313.412 82.2807 313.412 82.3822C313.412 83.397 313.023 84.1413 312.227 84.6318C311.804 84.9024 311.296 85.0378 310.67 85.0378C310.145 85.0378 309.688 84.9194 309.298 84.7164C308.74 84.3273 308.469 83.7184 308.469 82.8896C308.469 82.6359 308.486 82.3145 308.52 81.9424C308.553 81.5703 308.57 81.232 308.57 80.9783C308.57 80.4708 308.486 80.048 308.316 79.7266C308.062 79.3375 307.656 79.1515 307.114 79.1515C307.081 79.1515 306.962 79.1515 306.776 79.1853C306.691 79.1853 306.556 79.2191 306.386 79.2699C306.353 79.2699 306.319 79.3206 306.285 79.4052C306.302 80.2509 306.336 81.1981 306.386 82.2299C306.471 83.1772 306.742 83.9552 307.216 84.5641C307.267 84.6318 307.284 84.6826 307.284 84.6995L307.233 84.7333C307.233 84.7333 307.182 84.7671 307.182 84.784C306.082 84.7502 305.151 84.7333 304.389 84.7333C303.627 84.7333 302.746 84.7502 301.578 84.784C301.578 84.784 301.578 84.7671 301.595 84.7333C301.595 84.7164 301.629 84.6826 301.646 84.6487C301.663 84.6149 301.68 84.5811 301.697 84.5472C302.289 83.7861 302.577 82.2976 302.577 80.0818V79.1515C302.577 79.0331 302.577 78.7794 302.577 78.3734C302.577 77.8491 302.543 77.1217 302.476 76.2253C302.357 75.5318 302.12 74.9228 301.764 74.3816C301.714 74.3139 301.697 74.2801 301.697 74.2462C301.697 74.1955 301.748 74.1617 301.832 74.1786C303 74.2124 303.813 74.2293 304.287 74.2293H305.709C305.811 74.2124 306.082 74.1955 306.539 74.1955C306.657 74.1955 306.725 74.2124 306.725 74.2801L306.657 74.4492C306.386 74.9397 306.234 75.7686 306.234 76.9187V77.6968C306.234 77.9336 306.234 78.2043 306.234 78.4918C306.234 78.5425 306.285 78.5764 306.369 78.5764C307.114 78.3057 307.69 77.8829 308.113 77.3078C308.503 76.7665 308.706 76.1914 308.706 75.5825C308.706 75.3119 308.655 75.0412 308.537 74.7875C308.418 74.6522 308.283 74.4323 308.13 74.1448L308.181 74.1617ZM320.066 74.1617C320.066 74.1617 320.134 74.1617 320.134 74.2124C320.134 74.2632 320.1 74.3308 320.015 74.4154C319.676 74.7706 319.507 75.3795 319.507 76.2422V82.5513C319.507 83.0249 319.643 83.4985 319.897 83.9891C319.964 84.1413 320.167 84.3781 320.489 84.7502C319.304 84.6995 318.39 84.6656 317.763 84.6656C316.968 84.6656 316.07 84.6995 315.072 84.7502C315.072 84.6656 315.156 84.5811 315.325 84.4457C315.681 84.1244 315.867 83.6 315.867 82.8389V76.3267C315.867 75.8531 315.833 75.5148 315.766 75.3119C315.681 75.0412 315.512 74.7537 315.224 74.4661C315.122 74.3646 315.088 74.297 315.088 74.2462C315.088 74.2124 315.088 74.1786 315.139 74.1617C316.307 74.2124 317.137 74.2293 317.645 74.2293C318.339 74.2293 319.135 74.1955 320.066 74.1278V74.1617ZM328.04 74.1617C328.294 74.1617 328.429 74.1786 328.429 74.2632C328.395 74.3646 328.379 74.5 328.379 74.686C328.395 75.0412 328.497 75.3457 328.666 75.5825C328.802 75.7855 329.14 76.2253 329.665 76.9018C330.19 77.5615 330.901 78.4072 331.815 79.439C331.934 79.5574 332.019 79.6251 332.103 79.6251C332.171 79.6251 332.205 79.5743 332.205 79.4729C332.205 78.0859 332.137 77.0879 332.019 76.479C331.832 75.4979 331.426 74.8044 330.8 74.3985C330.681 74.3139 330.63 74.2462 330.63 74.2124C330.63 74.1786 330.732 74.1617 330.952 74.1617H333.881C333.999 74.1617 334.067 74.1617 334.067 74.1955C334.067 74.2293 334.016 74.297 333.915 74.3646C333.305 74.8213 332.916 75.6671 332.763 76.8849C332.696 77.3924 332.662 77.9844 332.662 78.6779C332.662 78.7794 332.662 79.1515 332.696 79.8281L332.747 81.1305C332.763 81.4688 332.78 81.9931 332.797 82.6697L332.831 83.3801C332.865 83.9891 332.882 84.4119 332.882 84.6826C332.882 84.7671 332.78 84.8179 332.577 84.8179H331.934C331.443 84.8179 331.172 84.784 331.121 84.6995C330.495 83.7523 329.665 82.6359 328.616 81.3166C327.447 79.8281 326.364 78.5425 325.348 77.46C325.297 77.4093 325.246 77.3924 325.196 77.3924C325.111 77.3924 325.077 77.4262 325.06 77.4769C325.06 77.6461 325.06 78.0013 325.06 78.5595C325.06 79.9465 325.179 81.0459 325.399 81.8916C325.737 83.1264 326.364 84.0229 327.244 84.5811C327.346 84.6487 327.397 84.7164 327.397 84.7671C327.397 84.8348 327.346 84.8517 327.227 84.8348C326.499 84.801 325.805 84.784 325.162 84.784C324.722 84.784 324.315 84.784 323.96 84.784C323.604 84.784 323.215 84.784 322.775 84.784C322.707 84.784 322.673 84.784 322.673 84.7502C322.673 84.7164 322.724 84.6656 322.825 84.5641C323.553 83.9045 324.061 83.0926 324.315 82.1454C324.434 81.6887 324.485 81.1981 324.502 80.64C324.535 79.6082 324.552 78.9147 324.552 78.5425C324.552 77.6968 324.535 77.0033 324.502 76.4621C323.875 75.7516 323.367 75.2611 322.995 74.9567C322.775 74.7706 322.453 74.5507 322.03 74.2801L321.996 74.2462C321.996 74.2462 322.114 74.1617 322.318 74.1786C323.994 74.2293 324.976 74.2462 325.297 74.2462C326.11 74.2462 327.024 74.2124 328.074 74.1448L328.04 74.1617ZM347.899 74.1617C348.017 74.1617 348.068 74.2462 348.068 74.4154V75.1089V75.9208C348.068 76.3437 348.068 76.7496 348.017 77.1555C347.916 76.9018 347.747 76.5635 347.51 76.1745C346.866 75.2104 346.104 74.7198 345.19 74.7198C344.513 74.8044 344.056 75.0751 343.802 75.5656C343.7 75.8531 343.616 76.1914 343.565 76.5635C343.565 76.6143 343.565 76.665 343.565 76.7327C343.565 76.8003 343.548 76.868 343.531 76.9526C343.531 77.0371 343.514 77.1048 343.497 77.1725V79.5405C343.463 80.5892 343.497 81.4519 343.565 82.1454C343.734 82.7881 343.954 83.2617 344.191 83.5662C344.344 83.7523 344.564 83.9045 344.835 84.0229C345.105 84.1413 345.376 84.2089 345.664 84.2089C346.291 84.2089 346.849 84.006 347.323 83.6169C347.577 83.3463 347.882 82.9404 348.238 82.3991L348.322 82.3653C348.322 82.3653 348.441 82.416 348.441 82.5344C348.271 83.0757 347.933 83.5493 347.425 83.9552C346.917 84.3612 346.375 84.598 345.817 84.6995C345.376 84.7671 344.987 84.8179 344.631 84.8179C342.854 84.8179 341.465 84.0905 340.484 82.619C340.111 82.0439 339.857 81.4011 339.722 80.6907C339.671 80.3355 339.637 79.9803 339.637 79.6251C339.637 78.6102 339.857 77.6799 340.28 76.8173C340.941 75.5487 341.99 74.7537 343.446 74.4154C343.92 74.3139 344.377 74.2632 344.868 74.2632C345.122 74.2632 345.342 74.2632 345.546 74.3139C346.07 74.3646 346.477 74.3985 346.782 74.3985C347.222 74.3985 347.594 74.3308 347.916 74.1786L347.899 74.1617ZM352.318 74.1617C353.266 74.1955 354.045 74.1955 354.654 74.1955C355.094 74.1955 355.687 74.1955 356.432 74.1617C356.618 74.1617 356.753 74.1617 356.804 74.2293C356.855 74.2801 356.906 74.4154 356.94 74.6014L357.075 75.1596C357.447 76.2422 357.922 77.6461 358.48 79.3714C359.039 81.0628 359.462 82.2638 359.733 82.9573C359.902 83.3801 360.072 83.7353 360.241 84.006C360.326 84.1244 360.444 84.2766 360.613 84.4627L360.749 84.5641C360.749 84.5641 360.867 84.6826 360.867 84.6995C360.867 84.7333 360.783 84.7502 360.613 84.7502C359.733 84.7164 358.853 84.6995 357.955 84.6995C356.99 84.6995 356.11 84.7164 355.314 84.7502C355.28 84.7502 355.264 84.7502 355.264 84.6995C355.264 84.6826 355.264 84.6656 355.264 84.6487C355.67 84.3612 355.856 83.9552 355.856 83.4478C355.856 83.0418 355.67 82.3822 355.28 81.4688C355.094 80.9782 354.976 80.7076 354.959 80.623C354.891 80.5046 354.823 80.437 354.739 80.437H352.741C352.487 80.437 352.352 80.7414 352.352 81.3673V81.8071C352.352 82.2638 352.385 82.619 352.453 82.8558C352.504 83.0757 352.639 83.414 352.843 83.8199C353.012 84.1751 353.249 84.4627 353.554 84.7164C352.843 84.6826 352.047 84.6656 351.183 84.6656C350.32 84.6656 349.524 84.6656 348.745 84.7164C348.695 84.6995 348.661 84.6826 348.661 84.6656C348.661 84.6318 348.729 84.5642 348.847 84.4796C349.372 84.1582 349.88 83.7353 350.337 83.211C351.048 82.3483 351.64 81.2996 352.115 80.048C352.995 77.5108 353.435 76.2083 353.452 76.1407C353.452 75.887 353.333 75.5825 353.096 75.2273C352.893 74.9059 352.673 74.6522 352.436 74.4492C352.267 74.3139 352.199 74.2124 352.199 74.1278C352.199 74.094 352.233 74.0771 352.301 74.0771L352.318 74.1617ZM353.994 77.5615C353.892 77.3078 353.808 77.1725 353.74 77.1725C353.672 77.1725 353.604 77.257 353.52 77.4093C353.52 77.4093 353.52 77.4431 353.503 77.4938C353.503 77.5446 353.469 77.5784 353.469 77.5953C353.435 77.6968 353.367 77.9336 353.232 78.3227C353.096 78.7117 352.978 79.05 352.893 79.3375C352.843 79.4898 352.809 79.6251 352.809 79.7435C352.809 79.9296 352.876 80.031 353.029 80.031H354.519C354.688 80.031 354.773 79.9465 354.773 79.7773C354.773 79.7435 354.773 79.7266 354.773 79.6927C354.773 79.6589 354.739 79.5913 354.705 79.4729C354.671 79.3714 354.62 79.2191 354.552 79.0331C354.485 78.847 354.434 78.6609 354.366 78.4918C354.282 78.255 354.163 77.9336 354.028 77.5446L353.994 77.5615ZM370.416 74.1448C370.907 74.1448 371.364 74.2124 371.77 74.3985C372.448 74.7199 372.786 75.4303 372.786 76.5297C372.786 76.8849 372.735 77.1725 372.617 77.3924C372.397 77.7137 372.126 77.9505 371.821 78.1028C371.195 78.3565 370.839 78.5087 370.755 78.5425C370.67 78.5764 370.619 78.6102 370.619 78.644C370.619 78.6779 370.704 78.7117 370.873 78.7455C371.601 78.8639 372.143 79.1853 372.481 79.7266C372.617 80.0649 372.685 80.4539 372.685 80.8599C372.685 81.0967 372.651 81.4857 372.566 82.0777C372.498 82.5682 372.464 82.9742 372.464 83.2956C372.464 83.5324 372.532 83.6677 372.685 83.7015C372.871 83.7015 373.006 83.5831 373.108 83.3463C373.176 83.2786 373.243 83.1095 373.294 82.8896C373.362 82.5851 373.413 82.416 373.429 82.3822C373.48 82.3314 373.548 82.2976 373.599 82.2976C373.633 82.2976 373.666 82.2976 373.666 82.2976C373.751 82.3822 373.785 82.5006 373.785 82.6697C373.785 82.8219 373.768 82.9742 373.734 83.1095C373.633 83.5154 373.429 83.8876 373.125 84.2259C372.803 84.5641 372.431 84.7671 372.041 84.8348C371.635 84.9024 371.296 84.9532 370.992 84.9532C370.264 84.9532 369.705 84.7502 369.315 84.3273C369.095 84.0398 368.977 83.6508 368.977 83.1772C368.977 82.9911 368.994 82.7035 369.045 82.3145C369.062 82.1792 369.078 82.0439 369.095 81.9086C369.095 81.7732 369.129 81.6718 369.129 81.6041C369.129 81.5364 369.129 81.4857 369.129 81.4519C369.129 81.3335 369.129 81.1305 369.129 80.8599C369.129 80.1833 368.926 79.7266 368.537 79.4898C368.317 79.3714 368.046 79.3037 367.707 79.3037C367.504 79.3037 367.335 79.3206 367.216 79.3544C367.081 79.4559 366.996 79.5574 366.996 79.6758V80.5554C366.996 80.64 366.996 80.7245 366.996 80.8091C366.996 80.8937 366.996 80.9613 366.996 81.0121V81.4519C366.996 82.8727 367.182 83.8707 367.555 84.4288C367.555 84.4288 367.572 84.4796 367.589 84.5134C367.589 84.5303 367.622 84.5641 367.639 84.5811C367.639 84.5811 367.639 84.6149 367.639 84.6656C367.639 84.7164 367.589 84.7333 367.504 84.7333C365.997 84.6487 365.134 84.6149 364.914 84.6149C364.27 84.6149 363.458 84.6487 362.476 84.7164C362.34 84.7164 362.256 84.7164 362.256 84.6656C362.256 84.6149 362.289 84.5641 362.357 84.4965C363.068 83.7692 363.424 82.6697 363.424 81.232C363.424 81.1643 363.424 80.826 363.39 80.2171C363.373 79.5913 363.356 79.2361 363.356 79.1684C363.356 79.0838 363.356 78.9992 363.356 78.8978C363.356 78.7963 363.356 78.6609 363.356 78.4918C363.356 77.9844 363.356 77.46 363.305 76.9526C363.238 76.0392 362.933 75.278 362.442 74.6522C362.391 74.5845 362.357 74.5169 362.357 74.4492C362.357 74.3985 362.476 74.3646 362.679 74.3646C363.339 74.4154 364.033 74.4492 364.778 74.4492C365.608 74.4492 366.505 74.4154 367.453 74.3477C367.504 74.3477 367.724 74.3477 368.063 74.297C368.401 74.2462 368.706 74.2462 368.943 74.2293C369.062 74.2124 369.519 74.1786 370.331 74.1109L370.416 74.1448ZM368.52 74.9905C368.334 74.889 368.096 74.8552 367.775 74.8552C367.572 74.8552 367.369 74.9736 367.182 75.1935C366.996 75.3964 366.911 75.6163 366.911 75.8193C366.911 76.3606 366.911 76.8173 366.911 77.2063C366.911 77.6461 366.911 78.1197 366.911 78.6102C366.911 78.8132 367.013 78.9316 367.233 78.9316C367.538 78.9316 367.995 78.6948 368.621 78.2381C369.011 77.9505 369.197 77.4262 369.197 76.665C369.197 76.3606 369.146 76.0561 369.028 75.7347C368.892 75.3626 368.706 75.1258 368.486 75.0074L368.52 74.9905ZM375.478 74.1786C376.003 74.1786 376.68 74.1786 377.527 74.2293C378.525 74.2632 379.389 74.2801 380.151 74.2801C381.522 74.2801 382.927 74.2462 384.349 74.1786V75.1427C384.349 75.5148 384.366 75.8531 384.383 76.1407C384.383 76.4282 384.383 76.7665 384.383 77.1386C384.383 77.1725 384.383 77.1894 384.332 77.1894C384.282 77.1894 384.197 77.0541 384.011 76.7665C383.96 76.6819 383.892 76.5974 383.825 76.5128C383.757 76.4282 383.723 76.3606 383.689 76.3267C383.655 76.2929 383.638 76.2591 383.638 76.2591C382.707 75.2442 381.793 74.7368 380.929 74.7368C380.794 74.7368 380.659 74.7368 380.506 74.7875C380.303 74.9905 380.201 75.3626 380.185 75.9208C380.185 76.2929 380.185 76.868 380.185 77.663C380.185 78.6102 380.235 79.0838 380.354 79.0838C380.997 79.0838 381.641 78.7963 382.284 78.2212C382.538 78.0013 382.792 77.7306 383.063 77.3924C383.097 77.3924 383.113 78.1535 383.113 79.6927V81.0628C382.792 80.623 382.402 80.2678 381.911 80.0141C381.42 79.7604 380.913 79.6251 380.371 79.6251C380.252 79.642 380.201 80.2678 380.201 81.5026C380.201 82.3991 380.252 83.1772 380.354 83.803C380.405 84.0567 380.591 84.192 380.913 84.1751H381.59C382.504 84.1244 383.35 83.5831 384.129 82.5682C384.417 82.1792 384.756 81.6887 385.094 81.0967C385.094 81.4519 385.094 81.7902 385.094 82.0777C385.094 82.3652 385.094 82.7035 385.094 83.0588C385.094 83.4647 385.094 84.0398 385.128 84.784L382.673 84.7333H380.676C378.966 84.7333 377.29 84.7671 375.63 84.8517C375.546 84.8348 375.512 84.801 375.512 84.7671C375.512 84.7333 375.529 84.6656 375.563 84.598C376.257 83.7861 376.595 82.5513 376.595 80.8768V80.0818V79.7604V78.2043C376.595 76.9695 376.528 76.1238 376.392 75.6332C376.274 75.2273 375.986 74.7368 375.512 74.1786H375.478ZM290.404 26.0734C290.692 25.972 290.862 25.9381 290.878 26.0058C290.895 26.0734 290.878 26.158 290.811 26.2933C290.117 27.7818 289.643 29.8454 289.372 32.4502C289.236 33.7527 289.152 34.9536 289.101 36.0531L288.948 39.1823C288.779 41.9224 288.745 44.5273 288.881 46.9799C288.982 49.145 289.05 50.4136 289.084 50.7857C289.118 51.0394 289.084 51.2085 289.05 51.2762C288.999 51.3439 288.847 51.4284 288.593 51.5299L286.138 52.4095C285.308 52.7139 284.547 52.9846 283.869 53.2552C283.615 53.3398 283.378 53.2721 283.192 53.0353C280.957 50.1598 278.113 46.8107 274.659 42.9711C274.507 42.7851 274.033 42.2607 273.237 41.3812C272.442 40.5016 271.849 39.8419 271.426 39.3514C270.071 37.8968 268.903 36.7973 267.904 36.07C267.82 35.9854 267.464 35.7993 266.872 35.5118C266.313 35.2073 266.025 35.0213 266.008 34.9874C265.957 34.869 266.144 34.7675 266.55 34.6491C267.447 34.3447 268.785 33.8711 270.579 33.2283C273.153 32.3149 275.32 31.4861 277.114 30.7588C277.148 30.8603 277.114 31.2155 277.03 31.8244C276.962 32.0274 276.962 32.1796 276.996 32.298C276.996 32.5686 277.08 32.9239 277.25 33.3806C277.47 33.9726 277.775 34.5307 278.181 35.0551C278.35 35.2412 278.672 35.5794 279.112 36.0531C279.552 36.5267 279.891 36.9157 280.111 37.1694L282.227 39.4529C283.649 40.9921 284.479 41.8886 284.733 42.1592L286.883 44.4258C287.035 44.5949 287.188 44.6457 287.34 44.5949C287.476 44.5442 287.56 44.4427 287.56 44.2736C287.713 43.1064 287.814 41.618 287.831 39.8419C287.865 37.1525 287.628 35.1058 287.12 33.685C286.764 32.687 286.257 31.8244 285.596 31.1309C284.902 30.3528 284.005 29.727 282.955 29.2365C282.735 29.135 282.617 29.0504 282.583 28.9658C282.566 28.8982 282.583 28.8643 282.667 28.8305L290.371 26.0734H290.404ZM299.14 24.4158C301.206 24.0944 302.916 23.8238 304.236 23.587C305.184 23.4178 306.454 23.1472 308.062 22.792C308.469 22.6905 308.74 22.6905 308.892 22.792C309.044 22.8766 309.197 23.1303 309.349 23.5532L309.84 24.7034C311.076 26.9023 312.634 29.7608 314.547 33.2621C316.426 36.7127 317.814 39.1315 318.695 40.5185C319.202 41.3642 319.727 42.0577 320.218 42.599C320.455 42.8358 320.777 43.1234 321.2 43.4447L321.556 43.597C321.742 43.7323 321.86 43.8169 321.86 43.8676C321.86 43.9522 321.691 44.0198 321.319 44.0875C319.406 44.3581 317.476 44.6626 315.546 45.0178C313.463 45.3899 311.567 45.779 309.84 46.1849C309.772 46.1849 309.739 46.1849 309.739 46.1172C309.739 46.0834 309.739 46.0496 309.739 46.0158C310.5 45.2377 310.771 44.2905 310.568 43.1741C310.416 42.3115 309.739 40.9583 308.553 39.1315C307.944 38.1505 307.605 37.5923 307.504 37.4401C307.318 37.2033 307.131 37.1018 306.962 37.1187L302.628 37.9137C302.069 38.0152 301.917 38.7425 302.154 40.0787L302.323 41.0429C302.509 42.0239 302.713 42.7682 302.95 43.2587C303.17 43.7323 303.576 44.375 304.169 45.2039C304.676 45.8974 305.32 46.4555 306.065 46.8615C304.507 47.0814 302.78 47.3689 300.918 47.7072C299.106 48.0455 297.346 48.3838 295.636 48.7728C295.5 48.7559 295.433 48.739 295.433 48.7052C295.433 48.6206 295.534 48.4684 295.754 48.2316C296.787 47.3351 297.684 46.2356 298.463 44.8994C299.665 42.7343 300.529 40.231 301.053 37.3724C301.951 31.5199 302.408 28.5261 302.425 28.4077C302.323 27.8495 301.951 27.2405 301.29 26.564C300.715 25.972 300.139 25.4983 299.564 25.1601C299.157 24.9402 298.937 24.7372 298.92 24.585C298.92 24.5004 298.971 24.4496 299.106 24.4158H299.14ZM304.101 31.114C303.796 30.5896 303.559 30.3528 303.39 30.3867C303.237 30.4205 303.119 30.6235 303.017 30.9956C303.017 31.0125 303.017 31.0802 303.017 31.1817C303.017 31.2831 302.983 31.3677 302.983 31.4354C302.967 31.6553 302.882 32.2134 302.746 33.1099C302.611 34.0064 302.492 34.7845 302.408 35.4441C302.34 35.7993 302.34 36.1038 302.391 36.3744C302.459 36.7804 302.662 36.9664 302.967 36.9157L306.183 36.3237C306.556 36.256 306.708 36.0361 306.64 35.664C306.64 35.5964 306.606 35.5456 306.573 35.478C306.539 35.3934 306.454 35.2581 306.336 35.0382C306.217 34.8183 306.048 34.5307 305.845 34.1586C305.641 33.7865 305.438 33.4144 305.235 33.0423C304.964 32.5686 304.592 31.9259 304.118 31.1309L304.101 31.114ZM342.126 20.3732C343.209 20.3394 344.208 20.5254 345.122 20.9145C346.612 21.5911 347.374 23.1472 347.408 25.5829C347.408 26.361 347.289 27.0037 347.052 27.5112C346.578 28.2216 346.003 28.7629 345.309 29.1012C343.937 29.6762 343.142 30.0145 342.955 30.0991C342.769 30.1668 342.668 30.2344 342.668 30.319C342.668 30.4036 342.854 30.4712 343.243 30.5389C344.868 30.7757 346.054 31.4861 346.815 32.6701C347.12 33.4144 347.273 34.2432 347.273 35.1566C347.273 35.664 347.205 36.5436 347.052 37.8291C346.917 38.9285 346.849 39.8081 346.866 40.5016C346.866 41.026 347.035 41.3304 347.34 41.415C347.747 41.415 348.034 41.1444 348.238 40.62C348.39 40.4509 348.508 40.1126 348.644 39.6051C348.796 38.9285 348.898 38.5564 348.949 38.5057C349.067 38.3873 349.203 38.3196 349.321 38.3196C349.406 38.3196 349.456 38.3196 349.473 38.3534C349.643 38.5226 349.727 38.7932 349.727 39.1653C349.727 39.5036 349.694 39.825 349.609 40.1464C349.406 41.026 348.966 41.8548 348.288 42.6159C347.577 43.3771 346.798 43.8338 345.918 43.986C345.038 44.1552 344.259 44.2566 343.599 44.2566C342.007 44.2566 340.771 43.8169 339.908 42.9035C339.4 42.2607 339.146 41.415 339.129 40.3663C339.129 39.9434 339.163 39.3176 339.265 38.4718C339.298 38.1843 339.332 37.8798 339.366 37.5923C339.4 37.3047 339.417 37.0679 339.434 36.9157C339.451 36.7635 339.468 36.6451 339.468 36.5774C339.485 36.3068 339.485 35.867 339.485 35.2919C339.485 33.8034 339.028 32.8055 338.13 32.2811C337.639 32.0105 337.03 31.8752 336.302 31.8921C335.845 31.8921 335.489 31.9428 335.235 32.0274C334.93 32.2642 334.761 32.4841 334.778 32.7209V33.7527L334.795 34.6322C334.795 34.8183 334.795 35.0044 334.795 35.1904C334.795 35.3765 334.795 35.5287 334.795 35.6471C334.795 35.7655 334.795 35.9008 334.795 36.0023C334.795 36.1207 334.795 36.2053 334.795 36.2899C334.795 36.3575 334.795 36.4252 334.795 36.4928C334.795 36.5605 334.795 36.5943 334.795 36.6112C334.829 39.7404 335.252 41.9224 336.082 43.1741L336.116 43.2079C336.116 43.2079 336.166 43.2925 336.2 43.3433C336.234 43.394 336.268 43.4447 336.319 43.4786C336.336 43.4955 336.353 43.5631 336.353 43.6646C336.353 43.7661 336.251 43.8169 336.065 43.8169C332.747 43.6815 330.85 43.6139 330.376 43.6139C328.971 43.6139 327.177 43.7154 324.993 43.8845C324.671 43.9014 324.519 43.8845 324.519 43.7661C324.519 43.6646 324.586 43.5293 324.739 43.394C326.296 41.7702 327.058 39.3514 327.024 36.1715C327.024 36.0192 326.99 35.275 326.94 33.9387C326.889 32.5517 326.855 31.7906 326.855 31.6214C326.855 31.4354 326.855 31.2324 326.889 31.0294C326.906 30.7926 326.923 30.5051 326.906 30.1499C326.906 29.0166 326.872 27.8833 326.77 26.75C326.584 24.7372 325.924 23.0626 324.806 21.7095C324.671 21.5572 324.62 21.4219 324.62 21.2697C324.637 21.1513 324.874 21.0836 325.314 21.0667C326.77 21.1851 328.311 21.2189 329.936 21.202C331.782 21.1851 333.745 21.0836 335.811 20.9314C335.929 20.9314 336.386 20.8976 337.165 20.8299C337.944 20.7623 338.587 20.6946 339.112 20.6608C339.366 20.61 340.382 20.5254 342.16 20.3732H342.126ZM337.961 22.2677C337.555 22.0647 337.013 21.9632 336.319 21.9632C335.862 21.9632 335.421 22.2169 335.032 22.7243C334.643 23.181 334.44 23.6547 334.456 24.1113C334.456 25.2785 334.49 26.2933 334.524 27.156C334.558 28.1201 334.575 29.1519 334.592 30.2344C334.592 30.6911 334.846 30.9279 335.32 30.911C335.997 30.911 336.996 30.3867 338.35 29.338C339.18 28.6952 339.586 27.545 339.569 25.8705C339.569 25.1939 339.434 24.5173 339.163 23.8407C338.841 23.0288 338.435 22.4875 337.944 22.2507L337.961 22.2677ZM373.209 24.6695C374.073 25.2277 374.902 25.9212 375.681 26.7331C376.358 27.4943 376.951 28.4415 377.425 29.524C378.305 31.4692 378.542 33.6343 378.153 36.0361C377.764 38.438 376.866 40.4678 375.444 42.1254C374.073 43.7661 372.414 44.9163 370.484 45.5591C368.621 46.1511 366.624 46.2695 364.49 45.9312C363.729 45.8128 362.967 45.6267 362.188 45.373C360.207 44.7472 358.463 43.6139 356.94 41.9732C355.365 40.3155 354.434 38.4718 354.146 36.459C353.977 35.3934 354.011 34.1248 354.248 32.6532C354.874 28.7459 356.821 25.8705 360.055 24.0099C362.323 22.7074 365.015 22.3015 368.13 22.8089C370.111 23.1303 371.804 23.7561 373.209 24.6864V24.6695ZM368.046 23.6716C366.285 23.384 365.066 23.9422 364.355 25.363C363.881 26.2764 363.576 27.1729 363.407 28.0355C362.95 30.0145 362.594 31.8244 362.34 33.4313C362.12 34.8014 361.866 36.7296 361.595 39.233C361.341 41.415 361.68 43.0557 362.577 44.1382C363.051 44.578 363.678 44.8487 364.423 44.984C366.166 45.2715 367.352 44.7133 367.978 43.3263C368.35 42.4806 368.655 41.4826 368.909 40.3494C369.366 38.1505 369.705 36.4421 369.908 35.1904C370.213 33.2791 370.467 31.2662 370.67 29.135C370.755 28.2216 370.788 27.5619 370.788 27.1898C370.788 26.4625 370.653 25.8366 370.433 25.2785C370.043 24.382 369.248 23.8407 368.046 23.6547V23.6716ZM397.487 30.3528C398.029 30.522 398.266 30.6911 398.215 30.8434C398.08 31.0125 397.944 31.3001 397.809 31.706C397.589 32.4502 397.555 33.1437 397.741 33.7865C397.876 34.3278 398.249 35.478 398.842 37.254C399.434 38.9962 400.297 41.2966 401.432 44.1213C401.584 44.4596 401.737 44.6626 401.889 44.7133C402.024 44.7641 402.143 44.6795 402.211 44.4596C403.226 41.6011 403.853 39.4867 404.056 38.0997C404.411 35.9347 404.09 34.1925 403.091 32.8731C402.922 32.6025 402.837 32.4333 402.871 32.3657C402.905 32.2811 403.125 32.3318 403.565 32.4841L409.643 34.6491C409.897 34.7337 410.015 34.8183 409.998 34.869C409.965 34.9536 409.812 35.0213 409.541 35.1058C407.933 35.5964 406.511 37.051 405.275 39.4529C404.767 40.4509 404.259 41.6518 403.751 43.0726C403.684 43.2756 403.413 44.0706 402.972 45.4576L402.092 48.1808C401.872 48.9082 401.533 49.9738 401.042 51.4115L400.568 52.9169C400.179 54.1855 399.891 55.082 399.688 55.6402C399.62 55.8262 399.383 55.8262 398.977 55.6909L397.639 55.2173C396.641 54.8621 396.099 54.5746 396.031 54.3716C395.422 51.9528 394.541 48.9927 393.356 45.5083C392.053 41.5503 390.749 38.0828 389.428 35.0889C389.361 34.9536 389.276 34.869 389.158 34.8183C389.005 34.7675 388.887 34.7845 388.819 34.9029C388.683 35.2242 388.396 35.9854 387.989 37.1356C386.974 39.9942 386.381 42.3791 386.229 44.2905C386.025 47.0814 386.635 49.3987 388.057 51.2255C388.209 51.4623 388.277 51.6314 388.243 51.7329C388.192 51.8682 388.057 51.8851 387.837 51.7498C386.347 51.124 384.925 50.5827 383.588 50.0922C382.656 49.7539 381.827 49.4833 381.082 49.2295C380.337 48.9927 379.524 48.7052 378.61 48.3838C378.475 48.3331 378.407 48.2823 378.424 48.2485C378.441 48.2147 378.593 48.1132 378.881 47.9779C380.896 47.1321 382.521 45.8297 383.757 44.0706C384.332 43.2079 384.823 42.21 385.247 41.0936C386.093 38.9962 386.652 37.5585 386.923 36.7804C387.549 35.0213 388.023 33.5666 388.345 32.4164C387.566 30.4882 386.889 29.0842 386.347 28.2047C386.009 27.6634 385.518 26.953 384.857 26.1073L384.823 26.0227C384.874 25.8874 385.111 25.9212 385.551 26.1242C388.971 27.4604 391.003 28.2385 391.663 28.4753C393.339 29.0673 395.286 29.6932 397.487 30.319V30.3528ZM385.873 16.5336C385.602 15.8232 384.942 15.3665 384.197 15.3327C383.96 15.3327 383.723 15.3665 383.503 15.4511C381.302 16.2799 378.813 16.652 375.901 16.5674C374.124 16.5167 372.16 16.2968 370.077 15.9247C364.558 14.9098 360.495 13.1845 357.651 10.6642C357.329 10.3767 356.906 10.2075 356.466 10.1906C355.924 10.1906 355.399 10.4105 355.043 10.8165C354.366 11.5776 354.434 12.7447 355.196 13.4213C358.565 16.4152 363.221 18.4111 369.417 19.5613C371.686 19.9842 373.836 20.221 375.8 20.2717C379.186 20.3563 382.132 19.9165 384.79 18.9186C385.247 18.7494 385.619 18.4111 385.822 17.9544C386.025 17.5147 386.042 17.0072 385.873 16.5505V16.5336ZM370.518 13.0661C373.277 13.5735 375.986 13.6919 378.576 13.489L378.746 13.5228V13.4721L379.406 6.50324C379.829 4.01679 378.153 1.61492 375.664 1.15822L369.756 0.0756893C367.284 -0.381005 364.914 1.27663 364.49 3.76307L362.78 10.5797L362.848 10.6135C365.185 11.7299 367.775 12.5756 370.534 13.083L370.518 13.0661Z" fill="white"/>
</svg>
