<svg width="826" height="40" viewBox="0 0 826 40" fill="none" xmlns="http://www.w3.org/2000/svg">
<path d="M18.36 10.52H21.92C22.56 10.52 23.12 10.32 23.12 9.4C23.12 4.4 23.12 4.04 22.96 3.2C22.92 3 22.64 2.16 22.64 2C22.64 1.6 23 1.6 23.2 1.6C23.8 1.6 27.48 2.6 27.48 3.44C27.48 3.76 27.36 3.84 26.8 4.32C26.16 4.84 25.96 5 25.96 9.4C25.96 10.52 26.92 10.52 27.24 10.52H29.12C30.6 10.52 30.92 10.44 31.16 10.16C31.44 9.8 32.48 7.88 32.88 7.88C33.44 7.88 36.24 10.44 36.24 11.04C36.24 11.56 36 11.56 34.08 11.56H27.16C26 11.56 25.92 12.28 25.92 12.84C25.92 12.92 25.92 18.6 26 18.8C26.24 19.4 26.84 19.4 27.12 19.4H30.8C32.56 19.4 32.76 19.4 33.12 19.08C33.48 18.72 34.8 16.84 35.24 16.84C35.72 16.84 38.56 19.16 38.56 19.84C38.56 20.48 37.88 20.48 36.56 20.48H28.96C27.68 20.48 27.64 20.96 27.64 22.2C27.64 23.84 27.64 31.52 27.8 32.6C27.92 33.56 28.08 34.36 31.32 34.36C34.6 34.36 34.88 33.72 35.72 31.16C36.44 29.04 36.48 28.84 36.64 28.16C36.68 28.12 36.76 27.76 36.88 27.76C37.04 27.76 37.12 28.68 37.16 28.92C37.4 31.68 37.44 32 37.92 32.8C38.44 33.68 38.52 33.8 38.52 34.04C38.52 34.24 37.96 37 32.2 37C25.44 37 25 35.52 25 31.08V21.4C24.88 20.48 24.16 20.48 23.84 20.48H20.88C20.8 20.48 20.68 20.48 20.68 20.6C20.68 20.68 21.44 21.08 21.56 21.12C21.96 21.36 22.16 21.44 22.16 21.68C22.16 21.92 21.32 22.44 21.24 22.6C20.96 23.12 20.8 25.68 20.72 26.16C20.44 27.96 19.44 34.2 13.12 36.84C12.48 37.12 10.84 37.64 10.2 37.64C10.12 37.64 10.08 37.6 10.08 37.56C10.08 37.44 11.56 36.64 11.84 36.48C13.6 35.32 18.56 32.12 18.56 22.56C18.56 21.32 18.56 20.48 17.44 20.48C16.84 20.48 14.52 20.48 13.44 20.56C13.28 20.6 12.72 20.68 12.56 20.68C12.44 20.68 12.36 20.56 12.24 20.4L11.44 19.48C11.28 19.32 11.28 19.28 11.28 19.24C11.28 19.16 11.32 19.12 11.44 19.12C11.68 19.12 12.92 19.28 13.2 19.28C15.16 19.36 16.8 19.4 18.68 19.4H21.84C22.44 19.4 23.12 19.4 23.12 18.32V12.44C23 11.56 22.36 11.56 22 11.56H17.68C17.32 11.56 16.92 11.56 16.36 12.32C15.92 12.92 13.52 16.04 13 16.04C12.88 16.04 12.88 15.96 12.88 15.92C12.88 15.84 14.32 12.8 14.56 12.28C15.48 10.08 16.76 6.6 16.76 4.48C16.76 3.64 16.76 3.4 17.12 3.4C17.36 3.4 20.52 4.88 20.52 5.92C20.52 6.32 20.32 6.4 19.96 6.56C19.48 6.76 19.36 6.96 18.36 8.88C17.88 9.8 17.84 9.88 17.84 10C17.84 10.04 17.84 10.52 18.36 10.52ZM5.52 11.8C6.16 12.08 7.92 13.04 7.92 14.76C7.92 15.76 7.32 16.32 6.64 16.32C5.84 16.32 5.68 16.08 4.2 13.96C3.48 12.92 2.64 12.2 2.24 11.88C2.12 11.8 1.6 11.44 1.6 11.36C1.6 11.08 2 11.08 2.08 11.08C3.12 11.08 4.56 11.36 5.52 11.8ZM7.48 3C8.52 3.4 10.92 4.52 10.92 6.24C10.92 7.28 10.28 8.08 9.48 8.08C8.52 8.08 8.08 7.36 7 5.6C6.32 4.48 5.68 3.72 4.76 2.76C4.64 2.68 4.48 2.52 4.48 2.36C4.48 2.2 4.68 2.2 4.76 2.2C5.2 2.2 7 2.8 7.48 3ZM7.08 37.44C5.64 37.44 5.36 36 5.36 35C5.36 31.88 5.36 28.92 3.08 27.48C2.76 27.28 2.52 27.24 2.24 27.12C2.16 27.12 2.08 27.08 2.08 27.04C2.08 26.88 3.92 26.28 4.24 26.08C5.28 25.4 6.6 22.76 10.56 14.92C11.2 13.6 11.28 13.44 11.48 13.44C11.56 13.44 11.56 13.56 11.56 13.6C11.56 13.76 9.88 18.76 9.64 19.48C7.48 25.88 7.44 25.96 7.44 27.84C7.44 28.48 7.48 29.2 8.04 30.72C9.04 33.4 9.04 33.96 9.04 34.56C9.04 34.96 9.04 37.44 7.08 37.44ZM60.88 12.36H64C64.92 12.36 65.16 11.96 65.16 11C65.16 8.44 65.04 8.24 63.96 8.24H62.16C59.28 8.24 57.92 8.28 57.12 8.36C57 8.36 56.4 8.44 56.28 8.44C56.12 8.44 56.04 8.36 55.92 8.16L55.16 7.24C55 7.08 54.96 7.04 54.96 7C54.96 6.92 55.04 6.92 55.12 6.92C55.4 6.92 56.64 7.04 56.88 7.04C58.84 7.12 60.48 7.16 62.36 7.16H63.96C64.4 7.16 64.96 7.16 64.96 6.28C64.96 5.84 64.84 3.8 64.84 3.36C64.8 3.08 64.44 1.96 64.44 1.72C64.44 1.56 64.64 1.56 64.76 1.56C65.04 1.56 67.24 2.12 67.8 2.28C68.52 2.48 68.76 2.52 68.76 2.92C68.76 3.32 68.32 3.6 68.12 3.72C67.64 3.96 67.52 4.12 67.52 4.68C67.52 6.88 67.52 7.16 68.8 7.16H71.28C72.4 7.16 72.96 7.16 73.24 7.04C73.64 6.84 74.96 5.28 75.32 5.28C75.84 5.28 78.16 7.44 78.16 7.68C78.16 8.24 77.36 8.24 76.04 8.24H68.8C67.64 8.24 67.48 8.6 67.48 9.72C67.48 12.08 67.48 12.36 68.76 12.36H71.8C72.24 12.36 72.64 12.36 73.12 12.08C73.32 11.96 74.16 11.28 74.36 11.28C74.92 11.28 76.8 12.8 76.8 13.32C76.8 13.6 76.68 13.68 76.04 14.12C75.68 14.36 75.6 14.68 75.6 15.12C75.6 16.24 75.84 21.2 75.84 22.2C75.84 23.44 75.24 24.56 74.16 24.56C73.44 24.56 73.28 24.16 73.12 23.84C72.92 23.44 72.76 23.24 71.88 23.24H69.08C68.8 23.24 68.36 23.28 68.36 23.8C68.36 24.52 72.16 30.6 78.16 32.96C78.48 33.08 78.68 33.28 78.68 33.36C78.32 33.48 76.76 34.04 76.48 34.16C76.2 34.28 74.96 35.08 74.68 35.08C74 35.08 71.36 32.2 68.44 26.64C67.88 25.6 67.84 25.48 67.72 25.48C67.48 25.48 67.48 25.68 67.48 26.12C67.48 27.64 67.64 35.04 67.64 35.56C67.64 37.48 66.52 38.16 65.68 38.16C65.04 38.16 65.04 37.48 65.04 37.24C65.04 35.32 65.28 26.84 65.28 25.08C65.28 24.88 65.2 24.72 65.04 24.72C64.92 24.72 64.28 25.6 63.92 26.12C61.56 29.36 59.04 32.52 55.24 34.76C54.72 35.08 53.48 35.8 52.92 35.8C52.52 35.8 54.88 33.88 55.28 33.52C59.64 29.28 62.4 24.2 62.4 23.68C62.4 23.24 62.08 23.24 61.84 23.24H60.8C60.52 23.24 59.92 23.24 59.64 23.72C59.2 24.52 58.64 24.8 58 24.8C57.04 24.8 57.04 24.12 57.04 23.8C57.04 23.56 57.12 22.48 57.12 22.24C57.24 17.04 57.28 16.44 57.28 15.48C57.28 14.96 56.92 11.8 56.92 11.64C56.92 11.56 56.96 11.48 57.08 11.48C57.44 11.48 58.88 12.04 59.16 12.12C59.92 12.36 60.56 12.36 60.88 12.36ZM60.88 22.16H63.88C65.16 22.16 65.16 21.56 65.16 20.08C65.16 18.8 65.12 18.2 63.88 18.2H60.88C59.64 18.2 59.6 18.8 59.6 20.16C59.6 21.52 59.6 22.16 60.88 22.16ZM68.72 17.12H72.04C73.28 17.12 73.28 16.72 73.28 15.08C73.28 13.92 73.28 13.4 72.04 13.4H68.72C67.48 13.4 67.48 13.8 67.48 15.48C67.48 16.6 67.48 17.12 68.72 17.12ZM63.96 13.4H60.84C59.56 13.4 59.56 13.8 59.56 15.64C59.56 16.52 59.56 17.12 60.84 17.12H63.96C65.2 17.12 65.2 16.56 65.2 15.6C65.2 13.8 65.2 13.4 63.96 13.4ZM71.92 18.2H68.8C67.48 18.2 67.48 18.6 67.48 20.28C67.48 21.72 67.48 22.16 68.8 22.16H71.92C73.24 22.16 73.28 21.76 73.28 20.16C73.28 18.64 73.24 18.2 71.92 18.2ZM43.4 24.04C43.44 23.84 43.64 23.72 43.8 23.72C44.24 23.72 46.04 24.44 46.44 24.52C46.76 24.64 46.96 24.76 46.96 25C46.96 25.2 46.28 25.88 46.16 26.04C46.12 26.12 45.24 29 45.04 29.52C44.32 31.44 42.36 36.04 41.68 36.04C41.52 36.04 41.56 35.88 42 34.64C42.92 32.08 43.56 28.6 43.56 26C43.56 25.68 43.4 24.2 43.4 24.04ZM52.92 18.96C53 18.88 53 18.8 53 18.72C53 18.16 52 15.6 52 15.52C52 15.44 52.04 15.4 52.08 15.4C52.16 15.4 53.92 17.12 54.24 17.4C55.8 18.92 56.28 19.6 56.28 20.68C56.28 21.84 55.6 22.6 54.68 22.6C54 22.6 53.88 21.96 53.64 21.04C53.52 20.52 53.32 20.24 52.72 20.24C50.8 20.24 50.8 20.88 50.8 22.08C50.8 28.56 50.8 29.28 50.96 34.56C50.96 34.88 51.08 36.28 51.08 36.56C51.08 37.28 50.08 38.04 49.12 38.04C48.28 38.04 48.04 37.68 48.04 36.84C48.04 36.4 48.16 34.44 48.16 34.04C48.24 30.6 48.24 28.76 48.24 22.84C48.24 21.48 48.24 21.04 47.4 21.04C47.24 21.04 44.88 21.44 44.48 21.52C44.2 21.6 43.16 22.24 42.92 22.24C42.2 22.24 41.8 18.6 41.8 18.52C41.8 18.36 41.92 18.2 42.04 18.2C42.2 18.2 42.84 18.56 43 18.6C43.76 18.84 44.68 19.04 45.48 19.04C46.52 19.04 46.76 18.84 49.56 12.52C50.24 10.96 50.84 9.56 51.2 7.64C51.36 6.76 51.36 6.64 51.6 6.64C52 6.64 54.96 8.2 54.96 8.64C54.96 8.96 54.72 9.04 53.96 9.4C53.52 9.56 51.68 12.92 51.24 13.56C48.44 17.6 47.96 18.36 47.96 18.68C47.96 19.24 48.44 19.24 50.8 19.24C52.56 19.24 52.76 19.24 52.92 18.96ZM47.64 2.6C47.64 1.64 47.64 1.56 48.04 1.56C48.68 1.56 51.88 2.88 51.88 3.36C51.88 3.6 51.76 3.64 50.64 4.2C50.44 4.28 47.08 8.52 47.08 9.44C47.08 9.72 47.28 9.88 47.84 10.4C48.24 10.8 48.4 11.48 48.4 12.04C48.4 12.88 48 14.08 47.04 14.08C46.36 14.08 46.16 13.68 45.4 12.2C44.44 10.28 43.04 8.92 42.4 8.4C42.32 8.32 41.84 7.92 41.84 7.88C41.84 7.8 41.92 7.8 42.04 7.8C42.4 7.8 43.28 8.04 44.04 8.36C45.04 8.8 45.16 8.84 45.4 8.84C46.44 8.84 47.64 4.2 47.64 2.6ZM52.12 23.96C52.28 23.76 56.32 26.48 56.32 28.64C56.32 29.8 55.56 31.04 54.68 31.04C54.16 31.04 54.08 30.8 53.48 28.44C53.16 27.08 52.8 25.76 52.28 24.48C52.24 24.44 52.08 24 52.12 23.96ZM91.64 29.04C91.64 27.92 91.96 25.16 94.68 22.56C95.88 21.44 96.4 20.92 96.4 20.4C96.4 20.28 96.12 19.36 96.04 19.16C95.56 17.64 95.36 16.72 95.36 14.48C95.36 13.56 95.56 8.92 95.56 7.88C95.56 5.88 95 5.28 94.36 4.64C93.52 3.76 93.4 3.64 93.4 3.52C93.4 3.36 94.36 3.32 94.48 3.32C96.76 3.32 98.8 5.16 98.8 6.32C98.8 6.68 98.32 8.48 98.24 8.88C98.08 10 97.88 11.84 97.88 14.16C97.88 15.68 97.88 18.92 98.92 18.92C99.48 18.92 99.72 18.76 101.88 17.4C102.32 17.12 104.84 15.52 106 15.52C106.92 15.52 107.52 16.32 107.52 17C107.52 18.2 105.88 18.84 104.44 19.4C94.92 23.24 93.56 26.16 93.56 28.76C93.56 31.48 95.88 32.48 99.12 32.48C101.12 32.48 102.72 32.08 103.92 31.76C105.72 31.28 106.16 31.16 106.92 31.16C108.28 31.16 109.56 32.08 109.56 33.08C109.56 35.12 101.4 35.32 99.28 35.32C97.44 35.32 91.64 35.32 91.64 29.04ZM125.2 5.08C129.72 7.84 130.2 10.44 130.2 11.28C130.2 12.08 129.76 12.72 128.88 12.72C128.12 12.72 127.92 12.44 126.4 10.16C125.48 8.72 123.88 6.44 122.04 4.32C121.44 3.68 121.4 3.56 121.4 3.52C121.4 3.4 121.48 3.36 121.56 3.36C122.12 3.36 124.32 4.52 125.2 5.08ZM122.6 18.92L121.84 18C121.68 17.8 121.68 17.8 121.68 17.72C121.68 17.64 121.76 17.64 121.8 17.64C122.08 17.64 123.56 17.76 123.88 17.76C124.64 17.8 124.92 17.8 126.36 17.8C126.8 17.8 127.08 17.8 127.44 17.32C127.96 16.6 128.24 16.2 128.52 16.2C128.96 16.2 131.36 17.88 131.36 18.48C131.36 18.72 131.12 18.84 130.2 19.24C129.44 19.56 129.44 20.2 129.44 25.88C129.44 28.48 129.44 29.72 131.56 31.28C133.56 32.8 136.16 33.44 144.68 33.44C151.24 33.44 155.88 32.32 157.12 32.04C157.36 32 158.52 31.64 158.68 31.64C158.76 31.64 158.88 31.68 158.88 31.8C158.88 31.92 158.44 32.32 158.08 32.68C157.68 33.08 156.48 34.36 156.32 35.56C156.28 36.04 156.24 36.12 156 36.28C155.6 36.56 151.72 36.56 150.92 36.56C147.4 36.56 138.36 36.4 135.12 35.6C132.28 34.88 130.44 32.72 129.2 30.8C128.64 29.96 128.56 29.88 128.44 29.88C128.24 29.88 125.8 32.52 124.52 34.72C123.68 36.12 123.68 36.12 123.44 36.12C122.72 36.12 121.2 33.16 121.2 32.72C121.2 32.36 121.48 32.36 121.92 32.36C122.88 32.36 126.36 30.28 126.72 29.56C126.88 29.2 126.92 29.2 126.92 20.2C126.92 18.96 126.16 18.96 125.8 18.96C125.36 18.96 123.28 19.16 122.96 19.16C122.8 19.16 122.76 19.08 122.6 18.92ZM156.4 9.28H146.76C145.72 9.28 145.64 9.36 144.84 10.4C143.92 11.6 142.24 12.84 142.24 12.84C142.2 12.84 142.16 12.8 142.16 12.76C142.16 12.72 142.24 12.6 142.64 11.76C145.04 6.84 145.44 3.84 145.48 2.88C145.52 1.8 145.52 1.72 146.16 1.72C146.48 1.72 149.52 2 149.52 3C149.52 3.28 149.44 3.36 148.76 3.96C148.36 4.36 146.64 7.64 146.64 7.8C146.64 8.2 147.12 8.2 147.56 8.2H150.64C151.68 8.2 152.32 8.2 152.6 8.08C153 7.88 154.32 5.96 154.8 5.96C155.2 5.96 158.04 8.08 158.04 8.68C158.04 9.28 157.52 9.28 156.4 9.28ZM141.36 8.72H138.56C138.12 8.72 137.84 8.72 137.84 8.96C137.84 9.04 138.04 9.4 138.04 9.48C138.04 9.72 137.36 10.64 137.28 10.88C137.2 11.84 137 13.84 137 13.96C137 14.68 137.32 14.68 137.84 14.68H138.6C139.04 14.68 139.2 14.68 139.48 14.2C139.96 13.4 140.08 13.2 140.48 13.2C140.76 13.2 142.84 14.08 142.84 14.96C142.84 15.2 142.68 15.36 142.56 15.44C142.04 15.92 141.88 16 141.84 16.4C141.68 18.24 141.6 22.04 141.4 24C140.72 31.16 137.56 31.48 137.2 31.48C136.6 31.48 136.4 31.08 136.32 30.76C136.04 29.6 136 29.36 135.4 28.64C135.32 28.52 134.8 28.12 134.8 27.96C134.8 27.88 134.84 27.88 134.88 27.88C135 27.88 135.44 28.04 135.56 28.08C136.12 28.16 136.84 28.28 137.12 28.28C138.64 28.28 139.28 26.44 139.48 23.24C139.6 21.2 139.76 18.24 139.76 16.76C139.76 15.88 139.36 15.72 138.72 15.72H137.72C137.12 15.72 136.84 15.8 136.68 16.6C135.64 22.48 135.56 23 134.48 25.52C133.36 28.16 131.16 30.04 130.84 30.04C130.8 30.04 130.76 30.04 130.76 29.96C130.76 29.92 131.56 28.48 131.72 28.16C134.8 22.24 134.96 11.52 134.96 9.8C134.96 9.4 134.88 8.76 134 8.76C133.68 8.76 132.04 8.92 131.8 8.92C131.68 8.92 131.6 8.84 131.44 8.68L130.68 7.76C130.52 7.56 130.52 7.56 130.52 7.48C130.52 7.4 130.6 7.4 130.64 7.4C131.12 7.4 133.36 7.56 133.84 7.56C135.2 7.56 135.2 7.36 135.2 5.56C135.2 4.96 135.16 4.2 135 3.32C134.96 3.12 134.64 2.2 134.64 2C134.64 1.72 134.84 1.6 135.32 1.6C136 1.6 138.6 1.8 138.6 2.68C138.6 2.84 138.08 3.36 138.04 3.52C137.96 3.84 137.72 6.76 137.72 6.92C137.72 7.6 138.28 7.68 139.08 7.68C139.48 7.68 139.8 7.56 140.2 6.96C140.8 6.04 140.96 5.8 141.36 5.8C142.08 5.8 143.16 7.72 143.16 8.16C143.16 8.72 142.96 8.72 141.36 8.72ZM157.32 22.24H152.84C151.8 22.24 151.72 22.8 151.72 23.32C151.72 24.04 151.84 27.12 151.84 27.76C151.84 30.08 151.4 30.96 150.4 31.8C149.92 32.16 149.32 32.44 148.72 32.44C147.84 32.44 147.84 32.12 147.8 31.6C147.76 30.2 146.64 29.44 146.4 29.28C146.24 29.2 145.6 28.96 145.6 28.84C145.6 28.72 145.84 28.72 145.92 28.72C146.36 28.72 148.24 28.76 148.6 28.72C149.08 28.68 149.36 28.56 149.36 27.04C149.36 26.28 149.36 23.76 149.28 23.16C149.24 22.68 149.12 22.24 148.16 22.24C147.16 22.24 145.84 22.24 144.84 22.32C144.72 22.36 144.12 22.44 144 22.44C143.72 22.44 142.68 21.04 142.68 21C142.68 20.92 142.76 20.88 142.84 20.88C142.92 20.88 144.2 21 144.4 21C145.28 21.04 147.6 21.16 148.32 21.16C149.16 21.16 149.16 20.44 149.16 20C149.16 18.52 148.96 17.44 148.88 17C148.84 16.8 148.6 15.92 148.6 15.76C148.6 15.6 148.72 15.56 148.8 15.56C149.16 15.56 150.68 16.08 151 16.08C151.68 16.08 152.44 14.24 152.44 13.84C152.44 13.6 152.28 13.48 151.64 13.48H149.56C149.04 13.48 147.2 13.56 146.4 13.64C146.32 13.68 146.08 13.72 146.04 13.72C145.88 13.72 145.84 13.6 145.68 13.44L144.92 12.52C144.76 12.36 144.76 12.32 144.76 12.28C144.76 12.2 144.8 12.16 144.88 12.16C145.16 12.16 146.4 12.28 146.68 12.32C148.2 12.36 150 12.44 151.48 12.44H152.68C153.16 12.44 153.36 12.36 153.8 11.88C153.96 11.68 154.28 11.28 154.6 11.28C154.76 11.28 157.52 12.76 157.52 13.68C157.52 14.28 156.88 14.32 156.28 14.32C155.6 14.36 155.4 14.44 153.48 15.56C153 15.84 152.12 16.36 152.12 16.6C152.12 16.96 152.12 17.32 151.96 17.48C151.6 17.96 151.56 18.08 151.56 19.4C151.56 20.8 151.72 21.16 152.36 21.16C153 21.16 153.32 20.72 153.56 20.44C154.72 19.04 154.84 18.88 155.2 18.88C155.6 18.88 158.4 21.04 158.4 21.64C158.4 22.24 157.68 22.24 157.32 22.24ZM169.24 8.88C169.48 8.88 171.84 8.68 174.08 7.88C176.36 7.04 176.6 6.96 177.08 6.96C178.08 6.96 178.36 7.84 178.36 8.08C178.36 9 177.64 9.24 176.12 9.76C173.4 10.64 168.52 20.72 168.52 25.64C168.52 27.36 169.48 32.16 174.76 32.16C178.72 32.16 181.68 29.6 182.72 27.84C185.48 23.24 185.48 14.68 185.48 13.4C185.48 11.84 185.4 10.68 184.96 9.04C184.44 7.24 184.4 7.04 184.4 6.6C184.4 5.48 185.24 5.16 185.72 5.16C187 5.16 187.12 5.88 187.92 9.84C188.28 11.68 189.44 15.6 192.96 18.04C195.08 19.52 195.44 19.96 195.44 20.72C195.44 21.64 194.64 22.4 194 22.4C192.24 22.4 190.4 19.24 189.36 17.4C188.96 16.72 186.96 12.88 186.8 12.88C186.68 12.88 186.64 13.28 186.64 13.36C186.64 18 186.64 22.04 185.56 26.44C183.92 33 178.36 35.28 174.52 35.28C169.6 35.28 166.04 31.6 166.04 26.84C166.04 22.64 167.88 18.64 169.84 15.12C170 14.8 172.04 11.16 172.04 11.12C172.04 11 171.88 10.92 171.76 10.92C171.36 10.92 169.76 11.76 169.4 11.76C167.88 11.76 167.16 9.08 167.16 9.04C167.16 8.84 167.24 8.68 167.4 8.68C167.52 8.68 168.96 8.88 169.24 8.88ZM192.52 1.28C195.68 1.28 198.12 2.96 198.12 4.8C198.12 5.24 197.8 5.96 197.08 5.96C196.24 5.96 195.72 5.4 195 4.48C194.4 3.72 192.84 2.68 191.52 2.2C191.12 2.04 191.04 1.84 191.04 1.76C191.04 1.48 191.8 1.28 192.52 1.28ZM189.2 4.44C191.84 4.44 194.84 6.52 194.84 8.44C194.84 8.96 194.32 9.96 193.6 9.96C192.96 9.96 192.64 9.56 191.6 8C191 7.16 190.56 6.68 189 5.36C188.84 5.24 188.48 4.92 188.48 4.76C188.48 4.56 188.84 4.44 189.2 4.44ZM208.08 15.52C208.44 15.52 208.84 18.08 208.84 19.56C208.84 24.04 206.76 27.08 204.32 27.08C203.72 27.08 202.72 26.88 202.72 25.64C202.72 25.2 202.8 24.8 204.08 23.6C206.56 21.32 207.68 16.88 207.76 16.32C207.8 15.8 207.96 15.52 208.08 15.52ZM216.88 2.04C216.92 1.96 217.12 1.96 217.16 1.96C220.28 1.96 226.52 5.84 226.52 8.56C226.52 9.92 225.6 10.68 225.12 10.68C224.68 10.68 224.28 10.36 223.4 8.96C221.92 6.6 218.56 3.44 217.2 2.44C216.92 2.28 216.84 2.08 216.88 2.04ZM230.92 14.12C231.32 13.76 237.52 18.96 237.52 24C237.52 25.84 236.4 27.4 235.2 27.4C233.88 27.4 233.88 26.32 233.88 25.76C233.88 21.88 233.88 21.44 233 19C232.48 17.48 231.76 15.92 231.08 14.72C230.88 14.4 230.88 14.16 230.92 14.12ZM213.68 7.48C213.84 7.36 217.8 8.36 217.8 9C217.8 9.32 216.76 10.24 216.72 10.48C216.44 11.48 216.32 27.56 216.32 29.16C216.32 32.76 216.44 33.72 220.32 33.72C226.48 33.72 227.28 32.8 228.84 28.32C228.88 28.16 229.4 26.76 229.48 26.76C229.6 26.76 229.68 28.44 229.68 28.48C229.72 29.12 229.8 30.72 230.44 31.68C230.6 31.92 231.36 32.84 231.36 33.08C231.36 34.8 228.16 36.56 221.32 36.56C213.56 36.56 213.56 34.32 213.56 30.52C213.56 29.16 213.72 23.08 213.76 21.84C213.76 20.76 213.8 16.04 213.8 13.12C213.8 12.12 213.76 10 213.68 9.04C213.68 8.88 213.6 8.44 213.6 8.04C213.6 7.92 213.6 7.56 213.68 7.48ZM246.92 28.44C249.52 28.44 251.36 30.6 251.36 32.88C251.36 35.12 249.56 37.32 246.88 37.32C244.2 37.32 242.48 35.08 242.48 32.84C242.48 29.8 245.12 28.44 246.92 28.44ZM246.88 29.56C244.76 29.56 243.6 31.28 243.6 32.84C243.6 34.68 245.08 36.2 246.96 36.2C248.68 36.2 250.28 34.84 250.28 32.92C250.28 31.36 249.08 29.56 246.88 29.56ZM310.64 9.6H312.76C313.08 9.6 313.56 9.6 313.88 9.32C314.08 9.16 314.84 8.08 315.12 8.08C315.28 8.08 316.32 8.8 316.72 9.04C318.12 10 318.28 10.12 318.28 10.4C318.28 10.64 318.2 10.72 317.32 11.36C317.08 11.52 316.96 11.72 316.92 12.08C316.84 12.88 316.92 16.72 316.92 17.56C316.92 18.72 317.24 24.36 317.24 25.64C317.24 27.76 315.56 27.76 315.44 27.76C314.2 27.76 314.2 27.24 314.2 25.72C314.2 24.72 313.48 24.72 312.92 24.72H310.44C310.04 24.72 309.4 24.76 309.24 25.48V30.72C309.24 31.76 309.24 34.36 309.28 35.2C309.28 35.4 309.36 36.24 309.36 36.44C309.36 37.4 308.36 37.92 307.64 37.92C306.68 37.92 306.36 37.4 306.36 36.84C306.36 36.56 306.52 34.2 306.56 33.68C306.6 32.52 306.76 26.32 306.76 25.88C306.76 24.8 306.2 24.72 305.52 24.72H303.52C302.52 24.72 302.32 25.12 302.32 25.8C302.32 27.16 302.28 28.52 300.48 28.52C300.12 28.52 299.32 28.44 299.32 27.52C299.32 27.4 299.36 26.88 299.36 26.76C299.4 26.24 299.56 22.76 299.56 19.64C299.56 17.64 299.36 11.12 299.28 10.2C299.28 10 299.08 8.96 299.08 8.72C299.08 8.6 299.08 8.36 299.28 8.36C299.76 8.36 300.8 8.84 301.64 9.2C302.44 9.56 302.88 9.6 303.64 9.6H305.8C306.92 9.6 306.92 8.96 306.92 8C306.92 7.12 306.88 6.48 306.56 3.28C306.52 3.08 306.28 2.24 306.28 2.08C306.28 1.8 306.4 1.56 306.68 1.56C306.76 1.56 309.52 2.52 309.72 2.6C309.84 2.64 310.6 2.96 310.6 3.24C310.6 3.44 309.72 4.08 309.6 4.28C309.36 4.56 309.36 4.92 309.36 6.04C309.36 6.48 309.36 8.84 309.48 9.08C309.72 9.6 310.32 9.6 310.64 9.6ZM303.44 23.64H305.6C306.92 23.64 306.92 23.36 306.92 20.68C306.92 17.72 306.92 17.4 305.6 17.4H303.36C302.04 17.4 302.04 17.96 302.04 19.24C302.04 23.64 302.28 23.64 303.44 23.64ZM312.92 10.68H310.6C309.28 10.68 309.28 10.96 309.28 13.08C309.28 13.56 309.28 15.56 309.36 15.8C309.56 16.36 310.24 16.36 310.6 16.36H312.92C314.24 16.36 314.24 16.08 314.24 13.68C314.24 10.96 314.24 10.68 312.92 10.68ZM303.28 16.36H305.68C306.92 16.36 306.92 16 306.92 13.08C306.92 10.96 306.92 10.68 305.68 10.68H303.28C302 10.68 302 11 302 13.92C302 16.08 302 16.36 303.28 16.36ZM312.92 17.4H310.56C309.2 17.4 309.2 17.76 309.2 20.84C309.2 23.36 309.2 23.64 310.56 23.64H312.92C314.28 23.64 314.28 23.32 314.28 20.2C314.28 17.68 314.28 17.4 312.92 17.4ZM295.24 17.76C295.2 17.44 294.68 16 294.68 15.72C294.68 15.6 294.76 15.6 294.8 15.6C295.32 15.6 298.36 18.28 298.36 20.76C298.36 22.16 297.52 23 296.48 23C295.28 23 295.28 21.92 295.28 21.44C295.28 19.8 295.28 19.6 294.72 19.6C294.36 19.6 292.72 19.92 292.48 20.04C291.84 20.32 291.84 20.96 291.84 21.4C291.84 28.76 291.84 29.6 291.96 34.96C291.96 35.16 292 36.12 292 36.28C292 37.32 291.04 37.76 290.12 37.76C289.6 37.76 289.32 37.64 289.32 36C289.32 35.24 289.48 26.84 289.48 26.52V21.8C289.48 21.2 289.2 20.8 288.6 20.8C288.24 20.8 284.6 21.4 284.32 21.56C284.16 21.64 283.6 22.08 283.44 22.12C283.36 22.2 283.24 22.2 283.2 22.2C282.96 22.2 282.88 21.96 282.64 21.16C282.56 20.88 281.76 18.4 281.76 18.28C281.76 18.16 281.84 18.04 282.04 18.04C282.24 18.04 282.92 18.32 283.04 18.36C284.24 18.6 285.84 18.72 287.04 18.72C288.12 18.72 288.56 18.72 290.68 15.04C292.4 12.08 293.24 9.52 293.36 8.68C293.44 8.04 293.48 7.68 293.8 7.68C294 7.68 296 8.36 296.6 8.6C297.36 8.88 297.68 8.96 297.68 9.32C297.68 9.8 297.2 9.92 296.6 10.12C296 10.28 290.28 18.04 290.28 18.32C290.28 18.72 290.84 18.8 291.2 18.8C291.92 18.8 294.32 18.76 294.88 18.56C295.16 18.48 295.32 18.28 295.24 17.76ZM289.76 1.56C290.16 1.64 291.88 2.28 292.24 2.4C293.4 2.8 293.52 2.84 293.52 3.12C293.52 3.48 293.32 3.6 292.6 3.88C292.24 4.04 290.76 6.08 290.32 6.72C289.92 7.24 288.28 9.44 287.96 9.92C287.84 10.16 287.64 10.44 287.64 10.72C287.64 11.04 287.72 11.12 288.32 11.76C288.56 12 289 12.6 289 13.44C289 14.64 288.16 15.2 287.6 15.2C287.24 15.2 287.12 15 286.08 13.32C285.48 12.4 285.12 11.76 282.48 9.24C282.32 9.08 282.16 8.92 282.16 8.88C282.16 8.84 282.2 8.8 282.24 8.8C282.68 8.8 285.48 10.16 286.04 10.16C287.12 10.16 288.28 6.44 289 4.2C289.08 3.88 289.2 2.24 289.28 1.92C289.32 1.68 289.4 1.52 289.76 1.56ZM292.88 24.6C293.16 24.2 295.12 25.68 295.28 25.8C297.84 27.72 298.28 28.48 298.28 29.76C298.28 31.32 297.52 32.24 296.32 32.24C295.44 32.24 295.4 32 295.08 29.72C295 29.16 294.76 27.56 293.76 25.92C293.6 25.72 292.76 24.76 292.88 24.6ZM284.32 24.72C284.24 24.48 284.2 24.16 284.56 24.16C284.76 24.16 287.2 25.12 287.24 25.16C287.52 25.28 288.04 25.56 288.04 25.88C288.04 26.08 287.28 26.68 287.16 26.84C287.04 26.92 284.92 31.48 284.44 32.32C283.32 34.4 282.6 35.2 281.96 35.92C281.88 36 281.4 36.48 281.32 36.48C281.2 36.48 281.48 35.88 281.6 35.72C283.24 32.48 284.48 26.44 284.48 25.8C284.48 25.48 284.4 25.08 284.32 24.72ZM337.2 16.76H328.96C325.44 16.76 324.32 16.84 323.92 16.84C323.76 16.88 323.2 16.96 323.08 16.96C322.92 16.96 322.84 16.84 322.72 16.68L321.96 15.76C321.8 15.6 321.76 15.56 321.76 15.52C321.76 15.44 321.84 15.4 321.92 15.4C322.2 15.4 323.44 15.52 323.68 15.56C325.64 15.64 327.28 15.68 329.16 15.68H337.16C337.56 15.68 338.36 15.68 338.36 14.56C338.36 11.6 338.24 8.6 338.04 5.68C338 5.16 337.48 2.84 337.48 2.52C337.48 2.36 337.64 2.28 337.8 2.28C337.84 2.28 340.56 2.92 341.36 3.16C342.44 3.48 343.04 3.68 343.04 4C343.04 4.36 341.76 5.28 341.68 5.56C341.48 6.2 341.48 12.88 341.48 13.92C341.48 15.16 341.48 15.68 342.72 15.68H350.52C352.32 15.68 352.48 15.68 353.08 15C354.2 13.68 354.32 13.56 354.68 13.56C354.92 13.56 358.44 15.68 358.44 16.2C358.44 16.76 357.64 16.76 356.28 16.76H342.72C342.04 16.76 341.44 16.84 341.44 18.04V33.68C341.44 34.2 341.6 34.76 342.68 34.76H348.04C349.84 34.76 350.04 34.76 350.6 34.08C351.72 32.76 351.84 32.6 352.2 32.6C352.48 32.6 355.96 34.72 355.96 35.24C355.96 35.8 355.16 35.8 353.8 35.8H331.24C327.76 35.8 326.6 35.88 326.2 35.92C326.08 35.92 325.48 36 325.36 36C325.2 36 325.12 35.92 325 35.76L324.24 34.84C324.08 34.64 324.08 34.64 324.08 34.56C324.08 34.48 324.12 34.48 324.2 34.48C324.48 34.48 325.72 34.6 325.96 34.6C327.92 34.68 329.56 34.76 331.44 34.76H337C337.44 34.76 338.16 34.76 338.24 33.68C338.24 33.64 338.36 27.04 338.36 18.76C338.36 17.36 338.36 16.76 337.2 16.76ZM369.36 23.48C369.36 24.68 369.76 25.88 370.4 25.88C371.08 25.88 371.44 25.24 372.32 22.76C372.56 22.08 372.68 21.76 372.88 21.76C373.08 21.76 373.08 22.16 373.08 22.24C373.08 22.68 372.16 27.36 372.16 28.32C372.16 29 372.72 30.2 372.8 30.4C373.08 30.96 373.28 31.64 373.28 32.16C373.28 32.96 372.64 33.52 371.96 33.52C369.48 33.52 367.64 26.72 367.64 22.88C367.64 20.32 367.96 19.16 369.32 14.16C370 11.72 370 10.72 370 10C370 8.72 369.76 7.64 369.6 7.16C369.56 7.04 369.36 6.56 369.36 6.44C369.36 6.32 369.52 6.24 369.68 6.24C371.52 6.24 373.2 9.88 373.2 11.32C373.2 11.76 373.2 11.8 372.44 13.16C372 14 369.36 19.88 369.36 23.48ZM390.08 8.68C390.8 8.8 391.76 9.48 391.76 10.4C391.76 12.36 387.32 12.36 386.84 12.36C382.32 12.36 379.84 9.92 379.84 9.4C379.84 9.32 379.88 9.2 380.12 9.2C380.24 9.2 380.72 9.36 381.24 9.48C382.16 9.68 383.24 9.72 383.96 9.72C385.92 9.72 387.8 9.32 388.36 9.12C389.56 8.68 389.68 8.64 390.08 8.68ZM391.8 28.52C393.32 28.52 393.64 29.4 393.64 29.88C393.64 31.44 392.44 31.92 386.84 31.92C382.92 31.92 381.44 30.92 380.6 30.12C380.4 29.92 379.36 28.88 379.36 28.12C379.36 28.04 379.36 27.72 379.56 27.72C379.72 27.72 380.36 28.2 380.52 28.28C381.68 28.88 383.32 28.96 384.8 28.96C385.84 28.96 387.28 28.96 388.28 28.84C388.84 28.8 391.64 28.52 391.8 28.52ZM432.12 20.88H421.64C420.92 20.88 420.64 20.96 420.44 21.72C420.24 22.44 418.8 23 418.36 23C417.56 23 417.56 22.12 417.56 21.88C417.56 21.04 417.72 16.8 417.72 15.84C417.72 14.36 417.72 13.04 417.52 11.44C417.48 11.08 417.16 9.16 417.16 8.88C417.16 8.72 417.16 8.4 417.48 8.4C418.36 8.4 418.92 8.8 419.84 9.4C420.28 9.72 421.56 9.76 422.12 9.76H431.36C432.04 9.76 432.6 9.76 433 9.48C433.24 9.28 434.16 8.08 434.48 8.08C434.64 8.08 437.32 9.56 437.32 10.12C437.32 10.2 436.64 10.88 436.48 11.04C436.16 11.36 435.96 11.64 435.92 12.16C435.8 13.16 435.96 18.32 435.96 19.48C435.96 20.48 435.96 21.92 434.12 21.92C433.6 21.92 433.48 21.8 433.2 21.4C432.84 20.88 432.44 20.88 432.12 20.88ZM424.24 10.84H421.56C420.32 10.84 420.32 11.52 420.32 12.72C420.32 14 420.32 14.72 421.56 14.72H424.24C425.32 14.72 425.44 14.2 425.44 12.8C425.44 11.4 425.32 10.84 424.24 10.84ZM432.04 15.76H429C427.8 15.76 427.8 16.48 427.8 17.48C427.8 19.2 427.8 19.8 429.04 19.8H432C433.24 19.8 433.24 19.24 433.24 17.28C433.24 16.52 433.24 15.76 432.04 15.76ZM424.24 15.76H421.6C420.4 15.76 420.4 16.48 420.4 17.32C420.4 19.16 420.4 19.8 421.68 19.8H424.2C425.44 19.8 425.44 19.12 425.44 17.44C425.44 16.52 425.44 15.76 424.24 15.76ZM431.92 10.84H429.04C427.84 10.84 427.84 11.52 427.84 12.72C427.84 14 427.84 14.72 429.04 14.72H431.92C433.16 14.72 433.16 14 433.16 12.8C433.16 11.52 433.16 10.84 431.92 10.84ZM410.72 27.2H408.2C407.6 27.2 406.84 27.2 406.84 28.44C406.84 28.76 407 28.88 407.28 29.08C409.36 30.44 409.44 30.52 409.44 30.76C409.44 31.04 409 31.32 408.8 31.4C408 31.72 408 31.72 407.48 32.24C404.6 35.24 401.6 36.8 401.6 36.48C401.6 36.32 403.68 33.72 404.08 33.16C405.52 31.12 406 29.76 406 29.4C406 29 405.84 29 405.12 29C404.08 29 404.08 28.32 404.08 27.4C404.08 25.68 404.32 17.2 404.32 15.28C404.32 12.36 404.24 9.68 404 6.8C403.96 6.44 403.64 4.64 403.64 4.2C403.64 4.08 403.64 3.72 403.96 3.72C404.4 3.72 405.04 4.04 406.48 4.76C407.16 5.12 407.84 5.12 408.24 5.12H410.48C411 5.12 411.48 5.12 412.12 4.36C412.6 3.76 412.8 3.6 413.04 3.6C413.28 3.6 413.64 3.84 413.84 4C414.12 4.24 414.44 4.52 414.64 4.64C415.52 5.2 415.76 5.36 415.76 5.76C415.76 5.96 415.04 6.6 415 6.8C414.92 7.08 414.92 9.28 414.92 9.44C414.92 9.72 414.84 17.72 414.84 18.52C414.84 19.72 414.92 25.6 414.92 26.92C414.92 27.88 414.92 29.04 412.84 29.04C412.04 29.04 412 28.56 411.92 28.04C411.84 27.2 411.08 27.2 410.72 27.2ZM411.04 13.28H408.08C406.88 13.28 406.88 13.88 406.88 15.4C406.88 18.84 406.88 19.28 408.12 19.28H411C412.24 19.28 412.24 19 412.24 15.6C412.24 13.8 412.24 13.28 411.04 13.28ZM411 6.16H408C406.8 6.16 406.8 6.28 406.8 9.96C406.8 11.76 406.8 12.24 408 12.24H411C412.2 12.24 412.2 11.88 412.2 8.64C412.2 6.72 412.2 6.16 411 6.16ZM410.92 20.32H408.2C406.96 20.32 406.96 20.92 406.96 22.4C406.96 25.72 407 26.16 408.24 26.16H410.88C412.08 26.16 412.12 25.76 412.12 22.48C412.12 20.92 412.12 20.32 410.92 20.32ZM425.16 24.72H429.76C430.28 24.72 431.04 24.72 431.56 24.08C432.04 23.48 432.08 23.4 432.4 23.4C432.88 23.4 435.48 25.04 435.48 25.56C435.48 25.76 434.8 26.36 434.68 26.52C434.44 26.92 434.44 27.36 434.44 28.12C434.44 29.12 434.52 30.52 434.52 31C434.56 31.6 434.84 34.48 434.84 35.12C434.84 36.24 434.2 37.08 432.96 37.08C432.32 37.08 432.16 36.88 431.96 36.56C431.64 36 431.16 36 430.8 36H424.4C424 36 423.52 36.08 423.32 36.52C422.88 37.44 422 37.92 421.24 37.92C420.52 37.92 420.4 37.32 420.4 36.44C420.4 35.76 420.52 32.48 420.52 31.72C420.52 29.12 420.48 28 420.36 26.16C420.36 25.8 420.12 24.2 420.12 23.84C420.12 23.68 420.12 23.32 420.44 23.32C421.08 23.32 421.64 23.64 422.68 24.24C423.56 24.72 424.56 24.72 425.16 24.72ZM430.6 25.8H424.4C423.2 25.8 423.2 26.48 423.2 27.76C423.2 29.12 423.2 29.8 424.4 29.8H430.6C431.8 29.8 431.8 29.12 431.8 27.84C431.8 26.44 431.8 25.8 430.6 25.8ZM430.6 30.88H424.44C423.24 30.88 423.24 31.6 423.24 32.48C423.24 34.36 423.24 34.96 424.48 34.96H430.6C431.8 34.96 431.8 34.28 431.8 32.96C431.8 31.52 431.8 30.88 430.6 30.88ZM419.84 2C420.08 1.76 425.2 4.36 425.2 7.04C425.2 7.96 424.44 8.8 423.56 8.8C422.88 8.8 422.76 8.6 422.16 6.68C421.56 4.8 420.56 3.4 420.04 2.72C419.76 2.32 419.76 2.04 419.84 2ZM431.88 1.2C432 1.08 435.96 2.68 435.96 3.2C435.96 3.44 435.84 3.52 435.28 3.68C434.44 3.96 429.4 9 428.32 9C428.24 9 428.24 8.96 428.24 8.92C428.24 8.84 430.92 4.8 431.32 3.96C431.68 3.28 431.76 2.84 431.76 2.32C431.76 1.64 431.8 1.28 431.88 1.2ZM411.44 29.24C411.64 29 413.2 30.08 413.44 30.24C415.28 31.52 416.52 32.84 416.52 34.32C416.52 35.08 416.2 36.04 415.28 36.04C414.32 36.04 414.2 35.76 413.28 33.24C412.8 32 412.28 30.92 411.56 29.72C411.52 29.68 411.36 29.36 411.44 29.24ZM464.04 31.52C465.4 31.52 468.2 29.08 468.2 25.76C468.2 22.48 465.44 19.68 461.44 19.68C456.16 19.68 452.76 25.16 452.04 26.4C451.24 27.76 450.84 28.52 449.76 28.52C448.8 28.52 448.6 27.72 448.6 27.4C448.6 26.4 448.92 25.52 451.76 22.2C454.36 19.16 454.76 18.64 460.8 10.16C462.12 8.28 462.68 7.44 462.68 7C462.68 6.72 462.4 6.44 461.92 6.44C460.44 6.44 458.08 8.44 457.4 9C455.8 10.32 455.24 10.44 454.56 10.44C452.68 10.44 451.44 7.88 451.44 7.68C451.44 7.56 451.56 7.56 452.4 7.56C454.52 7.56 457.48 6.6 458.6 6.12C461.08 5.04 461.36 4.92 462.24 4.92C463.84 4.92 466.44 5.92 466.44 7.68C466.44 8.84 465.52 9.48 463.6 10.8C460.72 12.84 457.2 18.32 457.2 19C457.2 19.12 457.32 19.28 457.44 19.28C457.68 19.2 458.2 19 458.44 18.92C459.72 18.44 460.84 18.28 461.96 18.28C467.08 18.28 470.96 22.08 470.96 26.6C470.96 31.68 466.04 35.24 460.96 35.24C457 35.24 454.16 33.12 454.16 31.12C454.16 29.68 455.84 27.88 458.12 27.88C460 27.88 461.56 29 462.68 30.44C463.24 31.16 463.48 31.52 464.04 31.52ZM460.36 31.92C460.36 30.96 459.4 29.36 457.92 29.36C456.96 29.36 456.24 30.12 456.24 30.76C456.24 31.8 457.96 32.64 459.68 32.64C460.08 32.64 460.36 32.36 460.36 31.92ZM488.24 12.68C488.48 12.68 491.96 12.92 492.64 12.92C496.24 12.92 504.76 12.2 505.64 11.64C507.08 10.68 507.24 10.6 507.6 10.6C508.4 10.6 512.24 13.16 512.24 14.2C512.24 14.56 512.12 14.68 510.88 15.6C510.16 16.12 510 16.72 508.64 22.28C508.56 22.64 508 24.4 508 24.64C508 25.16 508.36 25.2 508.96 25.32C509.96 25.48 511.44 26 511.44 27C511.44 28.08 509.6 28.08 509.28 28.08C508.28 28.08 503.84 27.8 502.92 27.8C500.44 27.8 492.84 28.64 492.2 28.8C491.96 28.84 490.96 29.28 490.76 29.28C490.04 29.28 487.68 27.48 487.68 26.08C487.68 25.92 487.84 25.8 488.04 25.8C488.24 25.8 489.08 25.96 489.24 26C490.12 26.12 490.8 26.12 491.28 26.12C494.04 26.12 504.52 25.4 505.12 25.08C505.6 24.84 505.76 24.36 506.04 22.36C506.52 18.84 506.88 15.36 506.88 14.56C506.88 13.88 506.72 13.72 506.28 13.72C505.04 13.72 495.12 15.32 493.56 15.68C493.2 15.76 491.8 16.32 491.48 16.32C490.6 16.32 487.76 13.88 487.76 13.08C487.76 12.76 488.04 12.68 488.24 12.68ZM531.84 7.12C532.08 7.12 533.04 7.52 533.28 7.56C533.92 7.72 534.84 7.72 535.4 7.72C537.28 7.72 539.92 7.64 541.8 7.28C542.4 7.16 545.16 6.48 545.72 6.48C546.4 6.48 548.16 6.84 548.16 8C548.16 9.24 546.76 9.36 544.44 9.56C543.8 9.64 535.2 10.4 534.92 10.4C532.8 10.4 531.6 7.68 531.6 7.4C531.6 7.2 531.68 7.12 531.84 7.12ZM530.84 34.44C530.92 34.36 532.04 33.84 532.28 33.72C544.76 27 548.04 18.36 548.04 17.52C548.04 17.04 547.76 16.76 547.2 16.76C545.84 16.76 535.8 18.52 534.04 19.04C533.76 19.12 532.48 19.72 532.2 19.72C530.48 19.72 527.64 16.28 527.64 15.16C527.64 15.04 527.76 14.96 527.88 14.96C528 14.96 528.48 15.24 528.6 15.28C529.36 15.6 530.88 15.96 532.56 15.96C535.84 15.96 543.8 14.92 545.28 14.76C545.36 14.76 548 14.52 548.04 14.52C548.24 14.44 549 14.08 549.2 14.08C549.88 14.08 552.72 16.44 552.72 17.36C552.72 17.96 552.56 18.12 551.64 18.88C550.96 19.44 550.56 20.04 549.48 21.72C546.32 26.52 543.84 29.52 538.2 32.4C534.64 34.2 531.48 35 531.12 35C530.8 35 530.76 34.76 530.76 34.68C530.76 34.6 530.8 34.48 530.84 34.44ZM580.92 18.44C580.92 20.36 581.12 28.88 581.12 30.6C581.12 31.2 581.12 33.84 579 33.84C578.12 33.84 578.04 33.6 577.2 31.28C576.72 30 576.52 29.68 575.72 28.44C575.56 28.16 575.48 28.08 575.48 27.96C575.48 27.84 575.56 27.8 575.64 27.8C575.92 27.8 577.24 28.32 577.52 28.32C578.04 28.32 578.24 27.88 578.32 27.24C578.52 25.36 578.52 21.36 578.52 19.2C578.52 17.28 578.44 16.56 577.36 16.56C577.12 16.56 572.32 17.24 569.96 17.84C569.72 17.92 568.6 18.28 568.36 18.28C567.48 18.28 565.48 15.56 565.48 14.76C565.48 14.56 565.52 14.4 565.76 14.4C565.92 14.4 566 14.44 566.52 14.64C567.44 15.04 569.48 15.04 570.08 15.04C571 15.04 575.32 14.8 576.52 14.76C578.04 14.68 578.44 14.4 578.44 13.08C578.44 11.76 578.2 9.12 577.6 7.96C577.52 7.76 576.84 7.12 576.84 6.92C576.84 6.8 577.28 6.52 578.2 6.52C580.96 6.52 581.96 8.28 581.96 8.6C581.96 8.84 581.32 9.72 581.24 9.92C580.88 10.64 580.88 12.6 580.88 13C580.88 14.24 581.4 14.44 582.44 14.44C583.72 14.44 585.64 14.12 586.32 14.04C586.84 13.96 588.96 13.44 589.4 13.44C590.6 13.44 591.96 14.04 593.28 14.8C593.72 15.08 594.28 15.4 594.28 16.08C594.28 16.84 593.4 16.88 593.24 16.88C592.64 16.88 590.04 16.44 589.48 16.36C587.96 16.2 585.04 16.16 584.72 16.16C581.28 16.16 580.92 16.16 580.92 18.44ZM592.96 30.36C591.84 30.36 591.48 29.44 590.76 27.72C590.08 26.04 588.84 23.96 587.52 22.8C586.92 22.24 585.92 21.32 585.92 21.12C585.92 20.92 586.12 20.92 586.2 20.92C588.32 20.92 594.76 24.8 594.76 28.16C594.76 29.08 594.28 30.4 592.96 30.36ZM566.6 29.44C566.08 29.28 565.44 28.76 565.44 27.96C565.44 27.2 565.8 26.8 566.96 26.08C568.52 25.12 570.56 23.28 570.88 23C571.08 22.8 571.52 22.4 571.68 22.4C571.84 22.4 571.88 22.76 571.88 22.88C571.88 24.76 570 29.6 567.36 29.6C567.04 29.6 566.8 29.52 566.6 29.44ZM592 3.88C595.32 3.88 597.6 5.64 597.6 7.36C597.6 7.84 597.28 8.56 596.6 8.56C595.76 8.56 595.24 7.96 594.52 7.04C593.84 6.24 592.32 5.28 591.04 4.8C590.64 4.64 590.52 4.48 590.52 4.36C590.52 4.08 591.24 3.88 592 3.88ZM588.24 7.28C590.4 7.28 591.32 7.28 592.72 8.16C593.96 8.92 594.48 9.88 594.48 10.44C594.48 11.24 594 12 593.36 12C592.88 12 592.56 11.84 591.2 10.4C590.36 9.52 589.88 9.24 588.2 8.24C588 8.12 587.56 7.84 587.56 7.68C587.56 7.56 587.88 7.28 588.24 7.28ZM614.64 12.36C614.64 12.68 614.08 14.6 614 15.04C613.84 15.88 613.68 16.92 613.68 22.56C613.68 23.72 613.68 24.68 615 24.68C616.72 24.68 626.96 20.36 634 14.24C634.56 13.76 634.64 13.68 634.92 13.68C635.12 13.68 635.24 13.84 635.24 14C635.24 14.4 629.32 20.88 619.52 26C614.88 28.4 614.56 28.64 613.72 29.68C613.52 29.96 613.44 30 613.28 30C612.96 30 610.56 28.04 610.56 26.96C610.56 26.76 610.88 25.16 610.92 25.08C611.12 24.16 611.12 22.68 611.12 19.92C611.12 14.64 611.12 13.56 610.08 11.68C609.92 11.44 609.2 10.36 609.2 10.12C609.2 9.96 609.44 9.92 609.6 9.92C610.04 9.92 614.64 10.72 614.64 12.36ZM650.92 18.88C652.24 18.88 666.2 18.36 672.04 18.04C672.28 18.04 672.72 18 672.92 18C675.36 18 675.72 19.48 675.72 19.76C675.72 20.88 674.08 21 672.4 21C671.48 21 667.48 20.92 666.68 20.92C661.16 20.92 652 21.44 651.04 21.64C650.56 21.72 648.4 22.36 647.92 22.36C646.2 22.36 644.36 19.88 644.36 18.52C644.36 18.28 644.48 18.04 644.68 18.04C644.88 18.04 645.84 18.48 646.04 18.52C646.72 18.72 648.36 18.88 650.92 18.88ZM689.36 33.72C688.48 33.72 688.08 33.08 687.08 31.24C686.96 31.04 686.24 30.2 686.12 30C686 29.8 685.88 29.48 685.88 29.24C685.88 29.08 686 28.96 686.24 28.96C686.6 28.96 688.12 29.48 688.44 29.48C690.16 29.48 700.92 23.48 710.48 12.64C710.68 12.4 712.08 10.84 712.2 10.84C712.28 10.84 712.36 10.88 712.36 11C712.36 11.44 708.84 20 692.28 31.6C691.8 31.92 689.88 33.72 689.36 33.72ZM687.84 15.28C689.56 15.28 692 16.88 692 18.84C692 19.64 691.4 20.84 690.44 20.84C689.84 20.84 689.64 20.6 689.04 19.6C688.2 18.16 686.84 17.12 685.4 16.28C685.28 16.2 685.04 16.04 685.04 15.88C685.04 15.32 687.32 15.28 687.84 15.28ZM692.48 7.64C696.8 7.64 696.8 10.76 696.8 10.88C696.8 11.8 696.16 12.68 695.52 12.68C695.08 12.68 694.88 12.52 693.44 10.8C692.36 9.52 690.96 8.96 690 8.68C689.84 8.64 689.4 8.52 689.4 8.4C689.4 8.28 690.52 7.64 692.48 7.64ZM722.48 16.8C722.64 16.8 723.44 17.08 723.92 17.24C724.56 17.44 725.8 17.44 726.24 17.44C727.72 17.44 734.56 17.16 736.2 16.56C736.52 16.44 737.64 15.48 737.92 15.48C738.24 15.48 740.6 17.28 740.6 18.08C740.6 18.48 740.48 18.6 739.92 19.24C739.72 19.48 739.56 19.8 739.52 20.56C739.4 23.2 739.32 26.2 739.32 28.84C739.32 29.24 739.4 31 739.4 31.36C739.4 33.2 738.44 33.92 737.84 33.92C737.24 33.92 736.72 33.28 736.56 32.36C736.48 31.84 736.48 31.72 735.92 31.72C734.6 31.72 728.2 32.48 727.12 32.68C726.8 32.72 725.56 33.08 725.12 33.08C724.04 33.08 722.84 30.52 722.84 30.2C722.84 30.04 722.88 29.72 723.2 29.72C723.32 29.72 723.44 29.76 724.52 30.12C724.68 30.16 725.44 30.44 726.44 30.44C728.04 30.44 735.92 29.64 736.28 29.48C736.72 29.24 736.72 28.88 736.76 27.76C736.76 27.44 736.84 25.76 736.84 25.6C736.84 25.08 736.68 24.84 736.2 24.84C736.04 24.84 733.16 25.24 731.68 25.44C730.6 25.56 726.32 26.12 725.64 26.12C724.52 26.12 722.92 25 722.92 23.68C722.92 23.28 723 23.16 723.2 23.16C723.32 23.16 723.8 23.4 724.16 23.56C724.64 23.76 725.32 23.84 726.16 23.84C729.72 23.84 736.36 23.16 736.72 22.76C737 22.44 737.04 20.08 737.04 19.52C737.04 18.84 736.84 18.64 736.24 18.64C736 18.64 731.44 19.12 728.56 19.48C728 19.56 725.56 19.96 725.08 19.96C723.6 19.96 722.12 17.8 722.12 17.24C722.12 17 722.32 16.8 722.48 16.8ZM764.2 12.6C764.2 13.8 763.52 14.6 762.48 14.6C761.4 14.6 761 13.96 759.68 11.96C758.32 9.92 757.16 9.32 756.04 8.68C755.88 8.6 755.68 8.48 755.68 8.32C755.68 8.16 756 7.96 756.56 7.96C760.84 7.96 764.2 10.24 764.2 12.6ZM780.84 12.24C780.84 12.6 776.16 20.08 765.76 27.76C764.72 28.52 762.68 30.04 761.84 31.04C761.08 31.96 761 32.04 760.4 32.04C758.24 32.04 755.28 29.48 755.28 27.88C755.28 27.6 755.32 25.76 755.68 25.76C755.84 25.76 756.72 26.44 756.88 26.52C757.4 26.84 758.72 27.44 759.6 27.44C761.56 27.44 772.16 20.36 778.8 13.8C779.44 13.16 780.56 12.04 780.64 12.04C780.72 12.04 780.84 12.16 780.84 12.24ZM792.92 28.44C795.52 28.44 797.36 30.6 797.36 32.88C797.36 35.12 795.56 37.32 792.88 37.32C790.2 37.32 788.48 35.08 788.48 32.84C788.48 29.8 791.12 28.44 792.92 28.44ZM792.88 29.56C790.76 29.56 789.6 31.28 789.6 32.84C789.6 34.68 791.08 36.2 792.96 36.2C794.68 36.2 796.28 34.84 796.28 32.92C796.28 31.36 795.08 29.56 792.88 29.56Z" fill="white"/>
</svg>
