<svg width="833" height="38" viewBox="0 0 833 38" fill="none" xmlns="http://www.w3.org/2000/svg">
  <path d="M15.2 14.4H8.2C4.68 14.4 3.56 14.48 3.16 14.52C3 14.52 2.44 14.6 2.32 14.6C2.16 14.6 2.08 14.52 1.96 14.36L1.2 13.44C1.04 13.24 1 13.24 1 13.16C1 13.08 1.08 13.08 1.16 13.08C1.44 13.08 2.68 13.2 2.92 13.2C4.88 13.28 6.52 13.36 8.4 13.36H15.32C16.56 13.36 16.68 13.36 16.68 7.72C16.68 6.76 16.68 4.64 16.44 2.2C16.4 1.96 16.28 1.04 16.28 0.839998C16.28 0.639998 16.28 0.52 16.52 0.52C17.16 0.52 20.16 1.28 20.68 1.44C21.2 1.56 21.56 1.76 21.56 2.16C21.56 2.48 21.36 2.72 20.92 3.08C20.16 3.72 20.16 3.92 20.08 5.8C20.04 6.84 19.76 11.48 19.76 12.44C19.76 13.36 20.48 13.36 21.12 13.36H28.04C29.88 13.36 30.08 13.36 30.6 12.68C31.88 11.04 32.04 10.88 32.52 10.88C33.4 10.88 36.6 13.44 36.6 13.84C36.6 14.4 35.8 14.4 34.48 14.4H21.72C20.84 14.4 20.56 14.4 20.56 15.04C20.56 17.48 25.76 29.36 37.08 33.8C38.16 34.24 38.16 34.24 38.16 34.4C38.16 34.68 37.96 34.72 37.36 34.76C36.12 34.84 35.08 34.96 33.76 35.52C33.56 35.64 32.68 36.24 32.44 36.24C31.72 36.24 28.16 33.04 26.04 30C23.12 25.84 21 21.32 19.8 16.44C19.76 16.2 19.6 15.64 19.52 15.64C19.4 15.64 19.4 15.76 19.24 16.6C18.44 21.08 16.96 29.4 6.64 35.16C3.68 36.84 1 37.32 0.68 37.32C0.6 37.32 0.44 37.28 0.44 37.16C0.44 36.96 1.32 36.56 1.72 36.36C4.52 35.04 12.88 30.16 15.64 19.32C16.08 17.52 16.28 15.4 16.28 15.28C16.28 14.4 15.84 14.4 15.2 14.4ZM59.76 4.2C59.68 4.32 59.64 4.44 59.64 4.68C59.64 4.68 60.12 14.28 65.44 23C66.12 24.08 70.64 31.4 76.8 33C76.92 33.04 77.2 33.12 77.2 33.28C77.2 33.48 77.08 33.48 75.8 33.76C74.4 34.08 73.44 34.68 73.04 34.96C72.28 35.52 72.16 35.64 72.04 35.64C71.88 35.64 66.8 32.48 62.92 24C62.2 22.4 59.64 16.92 59.08 8.52C59.04 8.08 59.04 8.04 58.88 8.04C58.64 8.04 58.64 8.2 58.48 9.64C58.36 10.92 57.32 20.24 53.36 26.76C49.08 33.88 42.08 36.28 41.72 36.28C41.6 36.28 41.48 36.24 41.48 36.08C41.48 35.96 41.68 35.8 42 35.6C44.32 34.04 48.8 30.48 51.48 25.32C56.04 16.64 56.04 5.2 56.04 4.76C56.04 3.6 56.04 3.16 55.88 2.32C55.84 2.2 55.72 1.64 55.72 1.52C55.72 1.32 55.92 1.2 56.04 1.2C56.28 1.2 58 1.76 58.36 1.84C60.28 2.36 61.08 2.6 61.08 3.32C61.08 3.76 60.76 3.88 60.4 3.96C60.08 4 59.88 4.04 59.76 4.2ZM99.88 6.8C99.08 6.8 99.04 7.12 99.04 7.36C99.04 7.48 99.12 7.64 99.12 7.8C99.28 9.08 99.52 10.36 99.52 12.12C99.52 14.8 98.92 18.52 95.4 23.84C92.2 28.72 90.16 29.68 88.56 29.68C85.92 29.68 83.56 25.56 83.56 20.68C83.56 18.56 84 14.52 88 10.48C93.08 5.28 98.44 5.28 100.76 5.28C104.4 5.28 106.08 6 107.2 6.56C111.52 8.68 114.16 12.96 114.16 18.2C114.16 23.4 111.16 29.8 104.08 32.28C100.68 33.48 98.04 33.76 97.44 33.76C97.28 33.76 97.04 33.72 97.04 33.48C97.04 33.36 97.12 33.32 98.12 32.92C102.28 31.28 110.96 27.84 110.96 17.88C110.96 16.32 110.8 6.8 99.88 6.8ZM97.64 6.92C93.84 6.92 86.04 12.08 86.04 19.64C86.04 22.24 87.08 25.8 89.52 25.8C90.68 25.8 91.64 25.32 94.4 21.16C96.52 17.92 98.32 13.48 98.32 9.52C98.32 7.12 98.16 6.92 97.64 6.92ZM130.72 3.24H147.76C148.36 3.24 149 3.08 149.36 2.6C149.72 2.08 149.76 2.04 150 2.04C150.36 2.04 153.32 3.64 153.32 4.32C153.32 4.56 152.96 4.84 152.48 5.24C152.04 5.6 152.04 5.88 152.04 8.48C152.04 9.56 152.12 14.32 152.12 15.32C152.12 16.56 152.12 17.04 151.8 17.36C151.24 18 150.4 18.08 150 18.08C149.2 18.08 149.16 17.68 149 16.8C148.88 15.96 148.24 15.96 147.84 15.96H130.28C129.08 15.96 129.08 16.52 129.04 17.08C129 18.24 127.84 18.72 126.8 18.72C126.4 18.72 125.92 18.64 125.92 17.68C125.92 17.36 126.08 15.96 126.08 15.68C126.12 13.92 126.12 11.4 126.12 9.6C126.12 6.32 126.04 4.84 125.92 3.24C125.88 2.92 125.84 2.36 125.84 2.08C125.84 1.92 125.84 1.72 126.08 1.72C126.36 1.72 128.16 2.56 128.64 2.8C129.52 3.2 130.24 3.24 130.72 3.24ZM136.4 4.28H130.04C128.8 4.28 128.8 4.88 128.8 6.08C128.8 8.68 128.8 8.96 130.04 8.96H136.4C137.68 8.96 137.68 8.68 137.68 5.96C137.68 4.88 137.64 4.28 136.4 4.28ZM130.04 14.88H136.44C137.68 14.88 137.68 14.36 137.68 13C137.68 10.32 137.68 10.04 136.44 10.04H130.04C128.8 10.04 128.8 10.36 128.8 13.12C128.8 14.32 128.8 14.88 130.04 14.88ZM141.6 14.88H148C148.44 14.88 148.84 14.84 149.08 14.44C149.24 14.2 149.24 11.44 149.24 11C149.24 10.04 148.28 10.04 148 10.04H141.6C141.28 10.04 140.6 10.04 140.4 10.68C140.36 10.88 140.36 13.4 140.36 13.92C140.36 14.88 141.28 14.88 141.6 14.88ZM148 4.28H141.56C140.36 4.28 140.36 4.56 140.36 6.68C140.36 8.64 140.36 8.96 141.56 8.96H148C149.2 8.96 149.2 8.64 149.2 6.68C149.16 4.56 149.2 4.28 148 4.28ZM140.68 21.64H148.96C149.48 21.64 150.04 21.56 150.4 21.2C150.6 21.04 151.28 19.92 151.56 19.92C151.88 19.92 155.24 21.52 155.24 22.16C155.24 22.4 154.92 22.64 154.72 22.76C154.4 23 153.76 23.44 153.72 23.96C153.64 26.08 153.48 28.24 152.76 31.2C151.64 35.72 147.48 36.76 146.64 36.76C146.4 36.76 146.28 36.44 146.2 36.16C145.96 35.4 145.64 35.04 144.28 34.16C143.88 33.88 141.72 32.72 141.72 32.56C141.72 32.44 141.84 32.44 141.92 32.44C142.24 32.44 145.96 32.84 146.72 32.84C147.92 32.84 149.36 32.32 149.92 30.68C150.52 28.88 150.92 25.12 150.92 23.8C150.92 22.72 150.12 22.68 149.72 22.68H140.64C139.68 22.68 139.12 22.96 138.84 24C137.08 30.12 133.52 32.56 132.16 33.44C130.12 34.8 126.28 36.32 123.24 36.32C123.12 36.32 122.72 36.32 122.72 36.12C122.72 36.04 123.44 35.8 123.52 35.76C127 34.72 130.2 33.32 132.72 30.28C135.12 27.44 135.96 24 135.96 23.6C135.96 22.72 135.12 22.68 134.76 22.68H129.32C128.36 22.68 125.64 22.72 124.28 22.8C124.16 22.8 123.56 22.88 123.4 22.88C123.28 22.88 123.2 22.8 123.08 22.64L122.28 21.72C122.12 21.52 122.12 21.52 122.12 21.44C122.12 21.36 122.2 21.36 122.28 21.36C122.52 21.36 123.72 21.48 124 21.48C125.16 21.56 127.24 21.64 129.52 21.64H135.12C136.2 21.64 136.48 21.52 136.48 18.48C136.48 18.04 136.44 17.72 136.28 17.28C136.16 17.16 135.88 16.84 135.88 16.76C135.88 16.52 136.48 16.52 136.72 16.52C137.84 16.52 140.44 16.96 140.44 17.68C140.44 17.8 139.84 18.32 139.72 18.44C139.52 18.8 139.44 20.16 139.44 20.56C139.44 21.64 140.28 21.64 140.68 21.64ZM173.44 12.88C173.44 14.84 172.2 15.36 171.68 15.36C171 15.36 171 14.56 171 14.16C171 13 170.88 11.6 170.68 10.32C170.64 10.12 170.36 9.32 170.36 9.16C170.36 9.12 170.4 9.04 170.48 9.04C171 9.04 173.44 10.6 173.44 12.88ZM169.04 4.28C169.08 6.32 168.88 16.72 168.88 19.24V31.76C168.88 32.24 169 34.2 169 34.6C169 36.24 168.12 36.96 167.2 36.96C166.64 36.96 165.92 36.76 165.92 35.12C165.92 34.92 166.04 33.12 166.04 32.96C166.28 29.56 166.28 25.36 166.28 21.24C166.28 18.04 166.28 4.76 166.12 2.64C166.08 2.4 165.8 1.24 165.8 0.999998C165.8 0.799998 165.92 0.679997 166.2 0.679997C166.36 0.679997 169.4 1.24 170.04 1.56C170.16 1.64 170.32 1.76 170.32 2C170.32 2.36 170.04 2.56 169.64 2.92C169.16 3.28 169.04 3.6 169.04 4.28ZM164.4 13.52C164.4 16.28 163.32 19.16 161.8 19.16C161 19.16 160.32 18.32 160.32 17.36C160.32 16.6 160.56 16.2 161.76 14.04C162.56 12.64 163.08 10.68 163.32 9.04C163.36 8.84 163.36 8.8 163.44 8.8C163.96 8.8 164.4 11.84 164.4 13.52ZM179.48 10.48H181.72C182.96 10.48 182.96 9.84 182.96 9.08C182.96 8.28 182.88 4.88 182.88 4.2C182.88 2.88 182.88 2.72 182.76 2.28C182.72 2.12 182.36 1.24 182.36 1.04C182.36 0.639998 182.8 0.559999 183.08 0.559999C183.56 0.559999 186.08 1.2 186.6 1.36C186.96 1.48 187.12 1.76 187.12 2.04C187.12 2.4 186.92 2.6 186.48 2.96C185.88 3.48 185.8 3.84 185.8 6.08V9.72C185.92 10.4 186.44 10.48 187 10.48H189.12C190.84 10.48 191.04 10.48 191.72 9.36C191.96 8.96 192.48 8.24 192.8 8.24C193.28 8.24 196.24 10.6 196.24 11.04C196.24 11.52 195.36 11.52 194.08 11.52H187C186.64 11.52 186.08 11.6 185.84 12.12C185.68 12.48 185.68 18.32 185.68 18.88C185.68 21.16 185.68 21.6 186.96 21.6H188.92C190.36 21.6 190.88 21.6 191.4 21.08C191.64 20.8 192.52 19.32 192.84 19.32C193.12 19.32 196.28 21.48 196.28 22.16C196.28 22.68 195.44 22.68 194.12 22.68H186.96C186.64 22.68 186 22.68 185.8 23.32C185.68 23.68 185.68 30 185.68 30.68C185.68 33.64 185.68 33.8 186.96 33.8H190.12C191.4 33.8 191.76 33.8 192.2 33.44C192.56 33.08 193.68 31 194.12 31C194.64 31 197.6 33.6 197.6 34.28C197.6 34.88 196.72 34.88 195.4 34.88H178.12C174.64 34.88 173.48 34.96 173.08 34.96C172.96 35 172.36 35.08 172.24 35.08C172.08 35.08 172.04 34.96 171.88 34.8L171.12 33.88C171.04 33.76 170.96 33.68 170.96 33.64C170.96 33.56 171 33.52 171.08 33.52C171.36 33.52 172.6 33.68 172.84 33.68C174.8 33.76 176.44 33.8 178.32 33.8H181.72C183 33.8 183 33.52 183 29.84C183 23.96 183 23.28 182.72 22.96C182.48 22.68 182.28 22.68 180.76 22.68C178.6 22.68 176.96 22.72 176.32 22.8C176.2 22.8 175.6 22.88 175.48 22.88C175.36 22.88 175.28 22.8 175.12 22.6L174.36 21.68C174.2 21.52 174.2 21.48 174.2 21.44C174.2 21.36 174.24 21.36 174.32 21.36C174.6 21.36 175.84 21.48 176.12 21.48C179.32 21.6 180.64 21.6 181.88 21.6C183.04 21.6 183.04 20.8 183.04 20.16C183.04 14.6 183.04 14 183 12.92C182.96 12.08 182.96 11.52 181.72 11.52H179.12C178.12 11.52 178 11.76 177.12 13.72C176.12 15.88 174.92 18.16 172.72 20.48C172.56 20.68 172.44 20.8 172.32 20.8C172.24 20.8 172.2 20.72 172.2 20.68C172.2 20.6 174.16 16.04 174.48 15.16C175.36 12.88 176.96 8.08 176.96 5.4C176.96 5.2 176.8 4.24 176.8 4.08C176.8 3.76 177.12 3.72 177.28 3.72C177.4 3.72 181.24 4.68 181.24 5.64C181.24 5.92 181.12 6 180.28 6.56C179.48 7.04 178.76 9.8 178.76 9.92C178.76 10.48 179.24 10.48 179.48 10.48ZM219.88 6.8C219.08 6.8 219.04 7.12 219.04 7.36C219.04 7.48 219.12 7.64 219.12 7.8C219.28 9.08 219.52 10.36 219.52 12.12C219.52 14.8 218.92 18.52 215.4 23.84C212.2 28.72 210.16 29.68 208.56 29.68C205.92 29.68 203.56 25.56 203.56 20.68C203.56 18.56 204 14.52 208 10.48C213.08 5.28 218.44 5.28 220.76 5.28C224.4 5.28 226.08 6 227.2 6.56C231.52 8.68 234.16 12.96 234.16 18.2C234.16 23.4 231.16 29.8 224.08 32.28C220.68 33.48 218.04 33.76 217.44 33.76C217.28 33.76 217.04 33.72 217.04 33.48C217.04 33.36 217.12 33.32 218.12 32.92C222.28 31.28 230.96 27.84 230.96 17.88C230.96 16.32 230.8 6.8 219.88 6.8ZM217.64 6.92C213.84 6.92 206.04 12.08 206.04 19.64C206.04 22.24 207.08 25.8 209.52 25.8C210.68 25.8 211.64 25.32 214.4 21.16C216.52 17.92 218.32 13.48 218.32 9.52C218.32 7.12 218.16 6.92 217.64 6.92ZM244.8 31.24C244.8 30.76 245 30.36 246.24 28.04C250.36 20.24 251.52 13.36 251.52 13.32C251.52 12.92 251.36 12.92 250.08 12.92C249.24 12.92 247.84 12.88 246.52 12.2C245.24 11.56 244.44 10.44 244.44 10.04C244.44 9.92 244.56 9.88 244.6 9.88C244.76 9.88 245.36 10.2 245.52 10.24C246.12 10.44 247.76 10.68 249.08 10.68C249.68 10.68 251.6 10.6 251.92 10.32C252.24 10.04 252.36 7.32 252.36 7.04C252.36 6.72 252.36 5.36 251.88 4.56C251.72 4.36 250.76 3.36 250.76 3.08C250.76 2.68 251.52 2.16 252.56 2.16C254.36 2.16 255.76 3.8 255.76 4.28C255.76 4.48 255.32 5.28 255.32 5.48C255.32 6.24 258.52 6.92 258.92 6.92C259.08 6.92 259.96 6.84 260.16 6.84C260.48 6.84 261.48 6.84 261.48 8.08C261.48 10.32 258.08 11.48 255.44 12.2C254.08 12.56 253.92 12.6 253.76 13.32C251.72 22.04 251.68 22.08 250.84 24.68C248.08 33 246.64 33 245.88 33C244.92 33 244.8 31.68 244.8 31.24ZM254.52 9.24C254.48 9.52 254.44 9.76 254.68 9.76C254.88 9.76 257.92 8.68 257.92 8.16C257.92 7.76 255.76 6.88 255.32 6.88C255.08 6.88 254.96 6.96 254.88 7.36C254.72 8.16 254.72 8.28 254.52 9.24ZM259.08 14.92C258.8 14.4 262.28 12.8 266.56 12.8C270.36 12.8 273.24 13.92 273.24 15.68C273.24 16.64 272.4 16.64 272.08 16.64C271.72 16.64 270.16 16.52 269.84 16.52C269.12 16.52 268.52 16.52 266.88 17.16C265.88 17.52 265.48 17.68 265.2 17.68C265.12 17.68 265 17.68 265 17.56C265 17.28 267.08 15.76 267.08 15.32C267.08 14.72 264.24 14.68 263.64 14.68C262.76 14.68 261.68 14.72 260.76 14.84C260.52 14.88 259.6 15 259.44 15C259.4 15 259.12 15 259.08 14.92ZM257.28 25.6C257.44 25.6 257.68 26.6 257.72 26.72C258.56 30.2 262.88 30.96 265.92 30.96C266.6 30.96 269.64 30.68 270.28 30.68C271.64 30.68 273.48 31.36 273.48 32.68C273.48 33.84 272 34.04 268.6 34.04C262.12 34.04 256.72 32.4 256.72 27.36C256.72 26.44 256.96 25.6 257.28 25.6ZM313.68 20.92C313.68 29.48 304.76 33.76 297.64 33.76C296.96 33.76 296.88 33.76 296.88 33.56C296.88 33.44 297 33.36 298.04 33.04C303.32 31.32 310.64 27.84 310.64 20.6C310.64 14.36 304.68 12.44 302.88 12.44C302.28 12.44 302.2 12.68 301.16 15.12C300 17.84 299.32 18.92 298.12 20.84C297.96 21.12 297.92 21.24 297.92 21.4C297.92 21.88 298.24 22.04 298.52 22.16C299.88 22.88 300.32 23.2 300.32 24.16C300.32 25.2 299.48 25.44 298.84 25.44C297.92 25.44 297.48 25.24 296.6 24.76C296.04 24.48 296 24.44 295.76 24.44C295.36 24.44 295.28 24.52 294.56 25.28C291.32 28.68 288.68 29.68 287.56 29.68C284.96 29.68 284.52 25.6 284.52 24C284.52 19.84 287.04 16.64 288.72 14.96C289.08 14.64 289.16 14.28 289.16 13.92C289.16 13.56 287.56 8.76 287.36 8.2C287.24 7.88 286.52 6.44 286.52 6.32C286.52 6.28 286.52 6.2 286.6 6.2C287.88 6.2 289.68 7.6 289.84 8.36C290.32 10.92 290.72 12.04 290.88 12.32C291 12.56 291.28 12.76 291.6 12.76C291.92 12.76 293.24 12.04 293.52 11.92C295.8 10.92 297.8 10.68 299.76 10.48C300.12 10.48 300.52 10.4 300.76 9.96C301.04 9.48 301.32 7.8 301.32 7C301.32 6.8 301.32 5.44 300.48 3.68C300.44 3.6 300.4 3.52 300.4 3.48C300.4 3.36 300.72 3.36 300.8 3.36C302.6 3.36 304.76 4.84 304.76 5.8C304.76 5.96 303.36 9.24 303.36 9.92C303.36 10.56 303.8 10.64 304.12 10.68C309.72 11.64 313.68 15.64 313.68 20.92ZM299.8 12.72C299.8 12.24 299.4 12.24 299.24 12.24C296.56 12.24 294.44 13.04 293.16 13.72C292.48 14.12 292.08 14.4 292.08 14.96C292.08 15.64 294.36 20.04 295.44 20.04C295.84 20.04 296 19.96 296.84 18.6C299.04 15.04 299.8 12.92 299.8 12.72ZM293.44 22.76C293.44 22.4 293.36 22.28 293.16 22.04C292 20.72 290.92 18.76 290.44 17.44C290.24 16.88 290.08 16.48 289.72 16.48C289.2 16.48 286.48 19.24 286.48 23.28C286.48 25.44 287.28 26.88 288.2 26.88C289.68 26.88 293.44 23.6 293.44 22.76ZM339.88 6.8C339.08 6.8 339.04 7.12 339.04 7.36C339.04 7.48 339.12 7.64 339.12 7.8C339.28 9.08 339.52 10.36 339.52 12.12C339.52 14.8 338.92 18.52 335.4 23.84C332.2 28.72 330.16 29.68 328.56 29.68C325.92 29.68 323.56 25.56 323.56 20.68C323.56 18.56 324 14.52 328 10.48C333.08 5.28 338.44 5.28 340.76 5.28C344.4 5.28 346.08 6 347.2 6.56C351.52 8.68 354.16 12.96 354.16 18.2C354.16 23.4 351.16 29.8 344.08 32.28C340.68 33.48 338.04 33.76 337.44 33.76C337.28 33.76 337.04 33.72 337.04 33.48C337.04 33.36 337.12 33.32 338.12 32.92C342.28 31.28 350.96 27.84 350.96 17.88C350.96 16.32 350.8 6.8 339.88 6.8ZM337.64 6.92C333.84 6.92 326.04 12.08 326.04 19.64C326.04 22.24 327.08 25.8 329.52 25.8C330.68 25.8 331.64 25.32 334.4 21.16C336.52 17.92 338.32 13.48 338.32 9.52C338.32 7.12 338.16 6.92 337.64 6.92ZM366.04 13.08C366.28 13.08 367.36 13.44 367.56 13.48C368.84 13.72 370.52 13.72 370.84 13.72C373 13.72 378.92 13.16 379.52 13.04C380.12 12.92 380.4 12.68 380.4 12.08C380.4 6.92 379.32 5.64 378.84 5.12C378.68 4.96 377.96 4.28 377.96 4.08C377.96 3.72 379.84 3.72 380.2 3.72C382.16 3.72 383.36 4.96 383.36 5.36C383.36 5.6 382.92 6.64 382.84 6.84C382.76 7.32 382.72 9.52 382.72 10.12C382.72 12.04 382.76 12.48 383.56 12.48C384.36 12.48 386.84 12.04 387.8 11.88C388.08 11.84 389.36 11.44 389.6 11.44C389.96 11.44 392.08 11.96 392.08 13.16C392.08 14.24 390.12 14.24 389.6 14.24C389.08 14.24 386.84 14.08 386.36 14.08C382.84 14.08 382.84 14.68 382.84 15.52C382.84 16.12 383.28 25.44 383.36 26.32C383.44 27.04 383.84 30.04 383.84 30.64C383.84 32.76 382.52 34.36 381.44 34.36C380.52 34.36 380.32 33.68 379.96 32.36C379.6 31.12 378.44 29.8 377.64 29.08C377.52 28.96 376.76 28.24 376.76 28.16C376.76 28.08 376.88 28.04 376.92 28.04C377 28.04 380.04 29.2 380.48 29.2C381 29.2 381 28.56 381 28.24C381 23.84 380.8 18.8 380.72 18.6C380.68 18.44 380.52 18.36 380.36 18.36C380.16 18.36 380.08 18.44 379.4 19.28C373.64 26.4 367.28 30.16 366.44 30.16C366.32 30.16 366.2 30.08 366.2 30C366.2 29.8 368.36 27.96 368.76 27.6C374.4 22.32 378.48 16.72 378.48 15.52C378.48 15.28 378.32 15.08 378.04 15.08C377.32 15.08 372.6 15.68 371.88 15.84C371.48 15.96 369.84 16.6 369.48 16.6C368.28 16.6 365.8 13.88 365.8 13.28C365.8 13.12 366 13.08 366.04 13.08ZM409.92 17.88C411.24 17.88 425.2 17.36 431.04 17.04C431.28 17.04 431.72 17 431.92 17C434.36 17 434.72 18.48 434.72 18.76C434.72 19.88 433.08 20 431.4 20C430.48 20 426.48 19.92 425.68 19.92C420.16 19.92 411 20.44 410.04 20.64C409.56 20.72 407.4 21.36 406.92 21.36C405.2 21.36 403.36 18.88 403.36 17.52C403.36 17.28 403.48 17.04 403.68 17.04C403.88 17.04 404.84 17.48 405.04 17.52C405.72 17.72 407.36 17.88 409.92 17.88ZM454.52 13.52C454.52 13.64 452.48 19.4 451.8 20.92C449.4 26.12 445.2 28.52 444.4 28.52C444.24 28.52 444.2 28.4 444.2 28.32C444.2 28 445.48 26.6 445.8 26.2C450.2 20.16 450.64 15.8 450.64 14.48C450.64 13.44 450.6 13 449.96 11.04C449.88 10.76 449.8 10.52 449.8 10.32C449.8 10.2 449.84 10.12 450 10.12C450.28 10.12 454.52 11.48 454.52 13.52ZM461.56 27.92C460.4 28.12 458.28 25.76 458.28 24.64C458.28 24.44 458.48 23.4 458.52 23.2C458.64 22.44 458.68 19.28 458.68 18.28C458.68 13.4 458.2 11.76 457.92 10.76C457.84 10.56 457.4 9.52 457.4 9.32C457.4 9.16 457.56 9.12 457.64 9.12C457.84 9.12 462.04 9.84 462.04 11.92C462.04 12.4 461.48 14.48 461.4 14.92C461.24 16 461.08 20.84 461.08 22.16C461.08 22.68 461.12 23.48 461.84 23.48C463.04 23.48 466.72 20.84 470.56 16.96C471.24 16.28 474.64 12.68 474.8 12.68C474.88 12.68 474.96 12.76 474.96 12.84C474.96 13.16 472.64 18.12 465.64 24.28C463.56 26.08 463.16 26.48 462.88 26.84C462.2 27.6 461.84 27.88 461.56 27.92ZM499.96 14.24C499.96 14.48 500.08 14.64 500.32 14.8C501.88 15.76 502.04 15.92 502.04 16.28C502.04 16.52 501.6 17.64 501.56 17.88C501.4 18.6 501.32 19.44 501.32 24.96C501.32 26.04 501.36 28.2 501.44 29.76C501.48 30.24 501.72 32.56 501.72 33.08C501.72 33.48 501.72 34.84 500.76 34.84C499.64 34.84 498.28 33.12 498.28 32.04C498.28 31.64 498.68 29.88 498.72 29.48C498.96 27.32 499.12 24.24 499.12 22.12C499.12 20.68 499.12 16.48 498.08 16.48C497.88 16.48 497.72 16.64 497.4 16.96C493.48 20.72 486.76 24.6 486.04 24.6C485.92 24.6 485.84 24.52 485.84 24.36C485.84 24.24 485.88 24.16 485.96 24.08C487 23.16 488.12 22.24 488.76 21.68C498.2 13.6 501.32 6.8 501.32 5.68C501.32 5.28 501.2 4.92 501 4.56C500.96 4.48 500.72 4 500.72 3.92C500.72 3.76 500.92 3.6 501.12 3.6C501.72 3.6 505.76 5.28 505.76 6.8C505.76 7.2 505.56 7.48 505.4 7.6C504.32 8.48 504.16 8.72 502.68 10.88C502 11.84 500.72 13.28 499.96 14.24ZM537.2 11.6C537.2 12.8 536.52 13.6 535.48 13.6C534.4 13.6 534 12.96 532.68 10.96C531.32 8.92 530.16 8.32 529.04 7.68C528.88 7.6 528.68 7.48 528.68 7.32C528.68 7.16 529 6.96 529.56 6.96C533.84 6.96 537.2 9.24 537.2 11.6ZM553.84 11.24C553.84 11.6 549.16 19.08 538.76 26.76C537.72 27.52 535.68 29.04 534.84 30.04C534.08 30.96 534 31.04 533.4 31.04C531.24 31.04 528.28 28.48 528.28 26.88C528.28 26.6 528.32 24.76 528.68 24.76C528.84 24.76 529.72 25.44 529.88 25.52C530.4 25.84 531.72 26.44 532.6 26.44C534.56 26.44 545.16 19.36 551.8 12.8C552.44 12.16 553.56 11.04 553.64 11.04C553.72 11.04 553.84 11.16 553.84 11.24ZM587.24 11.52C587.24 11.08 587.24 10.72 586.52 10.72C585.96 10.72 575.8 11.96 573.2 12.36C571.52 12.6 571.52 12.8 571.52 15.24C571.52 16.2 571.96 20.52 571.96 21.4C571.96 21.92 571.96 24.36 570.92 24.36C570 24.36 568.64 22.16 568.64 20.72C568.64 20.28 568.68 20.12 568.92 18.92C569.04 18.32 569.04 17.44 569.04 17.12C569.04 14.88 568.64 12.32 567.76 10.76C567.68 10.6 567.04 9.8 567.04 9.6C567.04 9.32 567.84 9 568.48 9C569.08 9 569.36 9.16 570.56 9.88C570.84 10.08 571.16 10.28 572.68 10.28C573.88 10.28 585.56 8.8 586.6 8.36C586.84 8.28 587.68 7.56 587.88 7.56C588.4 7.56 591.8 10.2 591.8 11.04C591.8 11.4 590.76 12.64 590.6 12.96C590.16 13.92 588.36 18.4 587.96 19.32C586.6 22.36 583.48 28.76 577.44 32.6C576.84 32.96 575.88 33.52 575.64 33.52C575.48 33.52 575.4 33.4 575.4 33.28C575.4 33.12 576.16 32.36 576.6 31.92C578.68 29.8 582.76 25.44 585.24 18.76C586.36 15.8 587.24 12.12 587.24 11.52ZM617.2 11.6C617.2 12.8 616.52 13.6 615.48 13.6C614.4 13.6 614 12.96 612.68 10.96C611.32 8.92 610.16 8.32 609.04 7.68C608.88 7.6 608.68 7.48 608.68 7.32C608.68 7.16 609 6.96 609.56 6.96C613.84 6.96 617.2 9.24 617.2 11.6ZM633.84 11.24C633.84 11.6 629.16 19.08 618.76 26.76C617.72 27.52 615.68 29.04 614.84 30.04C614.08 30.96 614 31.04 613.4 31.04C611.24 31.04 608.28 28.48 608.28 26.88C608.28 26.6 608.32 24.76 608.68 24.76C608.84 24.76 609.72 25.44 609.88 25.52C610.4 25.84 611.72 26.44 612.6 26.44C614.56 26.44 625.16 19.36 631.8 12.8C632.44 12.16 633.56 11.04 633.64 11.04C633.72 11.04 633.84 11.16 633.84 11.24ZM662.4 11.2C662.32 10.88 662 10.88 661.92 10.88C661.64 10.88 653.24 12.84 653.04 12.92C652.76 13 651.52 13.68 651.24 13.68C650.64 13.68 648.76 12.48 648.52 12.24C648.24 11.96 647.56 10.2 647.56 9.92C647.56 9.72 647.6 9.6 647.8 9.6C647.84 9.6 648.72 9.84 648.84 9.88C650.08 10.24 650.56 10.28 650.96 10.28C652.32 10.28 659.84 9.64 661.92 8.8C662.28 8.64 663.76 7.56 664.12 7.56C665.08 7.56 667.52 9.6 667.52 10.6C667.52 10.96 666.04 12.04 665.8 12.32C665 13.28 661.84 17.96 661.2 18.88C661.04 19.08 660.88 19.36 660.88 19.68C660.88 20.04 660.96 20.12 662.64 21.04C664.44 22.08 671.6 26.12 671.6 29.76C671.6 30.68 670.88 31.52 669.96 31.52C669.04 31.52 668.88 31.24 667.48 28.76C664.72 23.92 661.2 20.88 660.32 20.88C659.92 20.88 659.8 21 658.92 22C657.52 23.48 653.44 27.96 648.24 30.56C647.16 31.08 646.08 31.48 645.76 31.48C645.68 31.48 645.48 31.48 645.48 31.24C645.48 31.08 647.08 29.92 647.32 29.76C657.76 22.2 662.52 11.84 662.4 11.2ZM701.52 22.16C701.52 23.2 704.4 31.36 704.4 33.12C704.4 33.88 704.12 34.64 703.52 34.64C701.76 34.64 701.12 31.16 700.8 29.48C700.6 28.48 699.72 24.12 699.56 23.2C699.4 22.48 699.2 21.96 698.48 21.96C698.32 21.96 693.56 23.08 691.6 23.72C691.2 23.84 689.56 24.76 689.16 24.76C688.56 24.76 684.56 23 684.56 21.8C684.56 21.48 684.84 21.4 685.04 21.4C685.4 21.4 687.08 21.56 687.44 21.56C690.48 21.56 692.88 21.08 697.16 20.2C698.2 20 698.48 19.84 698.48 19.16C698.48 18.52 698.16 17.36 697.6 15.16C697.36 14.16 697.16 13.76 696.56 13.76C695.64 13.76 691.12 15.28 691.04 15.28C690.08 15.28 687.4 13.84 687.4 13.12C687.4 12.84 687.84 12.84 688.2 12.84C689.2 12.84 692.08 12.64 694.36 12.16C695.76 11.84 696.4 11.6 696.4 10.84C696.4 10.68 695.88 6.88 694.12 5.36C693.84 5.12 692.28 4.08 692.28 3.92C692.28 3.68 693.48 3.24 694.36 3.24C695.16 3.24 697.96 4.12 698.08 4.92C698.16 5.48 698.24 7.8 698.32 8.28C698.68 10.88 699.12 10.88 699.68 10.88C700.08 10.88 702.6 10.04 703.16 9.8C704.88 9.04 705.08 8.96 705.64 8.96C706.92 8.96 708.04 9.8 708.04 10.44C708.04 11.24 707.24 11.4 704.32 11.96C701.08 12.6 700.72 12.68 700.28 12.84C699.6 13.04 699.52 13.4 699.52 13.84C699.52 14.52 700.04 16.64 700.24 17.44C700.6 18.8 700.76 19.16 701.48 19.16C702.2 19.16 705.64 18.08 706.6 17.64C707.92 17.04 708.8 16.64 710.56 16.64C712.68 16.64 713.56 17.72 713.56 18.4C713.56 19.6 711.92 19.64 710.48 19.64C708.2 19.68 704.44 20.52 703.28 20.8C701.6 21.16 701.52 21.4 701.52 22.16ZM737.2 11.6C737.2 12.8 736.52 13.6 735.48 13.6C734.4 13.6 734 12.96 732.68 10.96C731.32 8.92 730.16 8.32 729.04 7.68C728.88 7.6 728.68 7.48 728.68 7.32C728.68 7.16 729 6.96 729.56 6.96C733.84 6.96 737.2 9.24 737.2 11.6ZM753.84 11.24C753.84 11.6 749.16 19.08 738.76 26.76C737.72 27.52 735.68 29.04 734.84 30.04C734.08 30.96 734 31.04 733.4 31.04C731.24 31.04 728.28 28.48 728.28 26.88C728.28 26.6 728.32 24.76 728.68 24.76C728.84 24.76 729.72 25.44 729.88 25.52C730.4 25.84 731.72 26.44 732.6 26.44C734.56 26.44 745.16 19.36 751.8 12.8C752.44 12.16 753.56 11.04 753.64 11.04C753.72 11.04 753.84 11.16 753.84 11.24ZM773.28 5.08C774.76 5.08 775.16 5.52 776.44 6.92C777.08 7.64 777.72 8.32 777.72 8.64C777.72 8.88 777.6 9.04 777 9.68C776.04 10.64 774.76 12.68 774.76 13.04C774.76 13.52 775.28 13.8 776.6 13.8C778.8 13.8 783.76 13.2 785.56 12.84C786.08 12.72 788.32 11.96 788.8 11.96C789 11.96 792.76 12.6 792.76 14.36C792.76 14.96 792.12 15.44 791.44 15.44C791 15.44 789.24 15.16 788.88 15.12C788.04 15.04 787 14.92 786 14.92C785.6 14.92 782.92 14.96 782.92 15.52C782.92 15.76 783.64 16.64 783.64 16.88C783.64 17.08 783.04 17.92 782.96 18.08C782.76 18.56 782.08 20.64 781.88 21.04C778.08 30.24 770.44 34 769.6 34C769.52 34 769.36 34 769.36 33.76C769.36 33.6 769.4 33.52 769.92 33.08C772.12 31.12 774.84 28.56 776.88 25.48C778.76 22.56 779.8 19.4 779.8 17.76C779.8 16.92 779.6 15.52 778.36 15.52C777.96 15.52 777.28 15.64 776.8 15.72C776.56 15.76 775.4 16.16 775.16 16.16C774.84 16.16 774.52 15.84 774.4 15.68C773.88 15.16 773.84 15.12 773.68 15.12C773.36 15.12 773.16 15.48 773 15.68C770.12 20.08 765.76 22.8 765.16 22.8C765 22.8 764.96 22.64 764.96 22.56C764.96 22.44 768.76 17.84 769.44 16.96C772.88 12.32 773.28 8.76 773.28 7.88C773.28 7.28 773.2 6.6 773 6C772.96 5.92 772.72 5.44 772.72 5.36C772.72 5.08 773.2 5.08 773.28 5.08ZM805.24 8.96C805.36 8.96 806.96 9.32 807.28 9.36C808.08 9.48 808.96 9.52 809.8 9.52C813.36 9.52 825.24 7.64 826.36 7.2C826.64 7.08 827.76 6.28 828 6.28C828.92 6.28 832.72 10.12 832.72 11.48C832.72 11.76 832.72 12.2 831.32 12.52C829.92 12.8 823.8 15.04 822.96 16.16C822.48 16.84 822.32 17.32 820.92 21.28C820.2 23.36 817.92 29.72 810.84 33.64C809.52 34.36 808.36 34.8 808.08 34.8C807.92 34.8 807.84 34.72 807.84 34.6C807.84 34.48 807.92 34.4 808.64 33.84C810.88 32.2 813.64 29.84 815.8 26.4C818 22.88 818.8 19.48 818.8 17.64C818.8 16.76 818.64 16 818.28 15.28C817.96 14.64 817.92 14.56 817.92 14.4C817.92 14.08 818.52 14.04 818.76 14.04C819.44 14.04 819.92 14.08 820.92 14.4C821.16 14.48 822.24 14.92 822.48 14.92C823.6 14.92 827.44 11.08 827.44 10.04C827.44 9.76 827.2 9.44 826.68 9.44C826.04 9.44 818.8 10 812.4 11.92C811.84 12.08 809.56 13.08 809.04 13.08C808.08 13.08 804.96 10.52 804.96 9.12C804.96 9.04 805.04 8.96 805.24 8.96Z" fill="white"/>
  </svg>
