<svg width="328" height="64" viewBox="0 0 328 64" fill="none" xmlns="http://www.w3.org/2000/svg">
  <path d="M49.34 10.28H44.44C41.976 10.28 41.192 10.336 40.912 10.364C40.8 10.364 40.408 10.42 40.324 10.42C40.212 10.42 40.156 10.364 40.072 10.252L39.54 9.608C39.428 9.468 39.4 9.468 39.4 9.412C39.4 9.356 39.456 9.356 39.512 9.356C39.708 9.356 40.576 9.44 40.744 9.44C42.116 9.496 43.264 9.552 44.58 9.552H49.424C50.292 9.552 50.376 9.552 50.376 5.604C50.376 4.932 50.376 3.448 50.208 1.74C50.18 1.572 50.096 0.927998 50.096 0.787998C50.096 0.647999 50.096 0.564 50.264 0.564C50.712 0.564 52.812 1.096 53.176 1.208C53.54 1.292 53.792 1.432 53.792 1.712C53.792 1.936 53.652 2.104 53.344 2.356C52.812 2.804 52.812 2.944 52.756 4.26C52.728 4.988 52.532 8.236 52.532 8.908C52.532 9.552 53.036 9.552 53.484 9.552H58.328C59.616 9.552 59.756 9.552 60.12 9.076C61.016 7.928 61.128 7.816 61.464 7.816C62.08 7.816 64.32 9.608 64.32 9.888C64.32 10.28 63.76 10.28 62.836 10.28H53.904C53.288 10.28 53.092 10.28 53.092 10.728C53.092 12.436 56.732 20.752 64.656 23.86C65.412 24.168 65.412 24.168 65.412 24.28C65.412 24.476 65.272 24.504 64.852 24.532C63.984 24.588 63.256 24.672 62.332 25.064C62.192 25.148 61.576 25.568 61.408 25.568C60.904 25.568 58.412 23.328 56.928 21.2C54.884 18.288 53.4 15.124 52.56 11.708C52.532 11.54 52.42 11.148 52.364 11.148C52.28 11.148 52.28 11.232 52.168 11.82C51.608 14.956 50.572 20.78 43.348 24.812C41.276 25.988 39.4 26.324 39.176 26.324C39.12 26.324 39.008 26.296 39.008 26.212C39.008 26.072 39.624 25.792 39.904 25.652C41.864 24.728 47.716 21.312 49.648 13.724C49.956 12.464 50.096 10.98 50.096 10.896C50.096 10.28 49.788 10.28 49.34 10.28ZM80.532 3.14C80.476 3.224 80.448 3.308 80.448 3.476C80.448 3.476 80.784 10.196 84.508 16.3C84.984 17.056 88.148 22.18 92.46 23.3C92.544 23.328 92.74 23.384 92.74 23.496C92.74 23.636 92.656 23.636 91.76 23.832C90.78 24.056 90.108 24.476 89.828 24.672C89.296 25.064 89.212 25.148 89.128 25.148C89.016 25.148 85.46 22.936 82.744 17C82.24 15.88 80.448 12.044 80.056 6.164C80.028 5.856 80.028 5.828 79.916 5.828C79.748 5.828 79.748 5.94 79.636 6.948C79.552 7.844 78.824 14.368 76.052 18.932C73.056 23.916 68.156 25.596 67.904 25.596C67.82 25.596 67.736 25.568 67.736 25.456C67.736 25.372 67.876 25.26 68.1 25.12C69.724 24.028 72.86 21.536 74.736 17.924C77.928 11.848 77.928 3.84 77.928 3.532C77.928 2.72 77.928 2.412 77.816 1.824C77.788 1.74 77.704 1.348 77.704 1.264C77.704 1.124 77.844 1.04 77.928 1.04C78.096 1.04 79.3 1.432 79.552 1.488C80.896 1.852 81.456 2.02 81.456 2.524C81.456 2.832 81.232 2.916 80.98 2.972C80.756 3 80.616 3.028 80.532 3.14ZM108.616 4.96C108.056 4.96 108.028 5.184 108.028 5.352C108.028 5.436 108.084 5.548 108.084 5.66C108.196 6.556 108.364 7.452 108.364 8.684C108.364 10.56 107.944 13.164 105.48 16.888C103.24 20.304 101.812 20.976 100.692 20.976C98.844 20.976 97.192 18.092 97.192 14.676C97.192 13.192 97.5 10.364 100.3 7.536C103.856 3.896 107.608 3.896 109.232 3.896C111.78 3.896 112.956 4.4 113.74 4.792C116.764 6.276 118.612 9.272 118.612 12.94C118.612 16.58 116.512 21.06 111.556 22.796C109.176 23.636 107.328 23.832 106.908 23.832C106.796 23.832 106.628 23.804 106.628 23.636C106.628 23.552 106.684 23.524 107.384 23.244C110.296 22.096 116.372 19.688 116.372 12.716C116.372 11.624 116.26 4.96 108.616 4.96ZM107.048 5.044C104.388 5.044 98.928 8.656 98.928 13.948C98.928 15.768 99.656 18.26 101.364 18.26C102.176 18.26 102.848 17.924 104.78 15.012C106.264 12.744 107.524 9.636 107.524 6.864C107.524 5.184 107.412 5.044 107.048 5.044ZM130.204 2.468H142.132C142.552 2.468 143 2.356 143.252 2.02C143.504 1.656 143.532 1.628 143.7 1.628C143.952 1.628 146.024 2.748 146.024 3.224C146.024 3.392 145.772 3.588 145.436 3.868C145.128 4.12 145.128 4.316 145.128 6.136C145.128 6.892 145.184 10.224 145.184 10.924C145.184 11.792 145.184 12.128 144.96 12.352C144.568 12.8 143.98 12.856 143.7 12.856C143.14 12.856 143.112 12.576 143 11.96C142.916 11.372 142.468 11.372 142.188 11.372H129.896C129.056 11.372 129.056 11.764 129.028 12.156C129 12.968 128.188 13.304 127.46 13.304C127.18 13.304 126.844 13.248 126.844 12.576C126.844 12.352 126.956 11.372 126.956 11.176C126.984 9.944 126.984 8.18 126.984 6.92C126.984 4.624 126.928 3.588 126.844 2.468C126.816 2.244 126.788 1.852 126.788 1.656C126.788 1.544 126.788 1.404 126.956 1.404C127.152 1.404 128.412 1.992 128.748 2.16C129.364 2.44 129.868 2.468 130.204 2.468ZM134.18 3.196H129.728C128.86 3.196 128.86 3.616 128.86 4.456C128.86 6.276 128.86 6.472 129.728 6.472H134.18C135.076 6.472 135.076 6.276 135.076 4.372C135.076 3.616 135.048 3.196 134.18 3.196ZM129.728 10.616H134.208C135.076 10.616 135.076 10.252 135.076 9.3C135.076 7.424 135.076 7.228 134.208 7.228H129.728C128.86 7.228 128.86 7.452 128.86 9.384C128.86 10.224 128.86 10.616 129.728 10.616ZM137.82 10.616H142.3C142.608 10.616 142.888 10.588 143.056 10.308C143.168 10.14 143.168 8.208 143.168 7.9C143.168 7.228 142.496 7.228 142.3 7.228H137.82C137.596 7.228 137.12 7.228 136.98 7.676C136.952 7.816 136.952 9.58 136.952 9.944C136.952 10.616 137.596 10.616 137.82 10.616ZM142.3 3.196H137.792C136.952 3.196 136.952 3.392 136.952 4.876C136.952 6.248 136.952 6.472 137.792 6.472H142.3C143.14 6.472 143.14 6.248 143.14 4.876C143.112 3.392 143.14 3.196 142.3 3.196ZM137.176 15.348H142.972C143.336 15.348 143.728 15.292 143.98 15.04C144.12 14.928 144.596 14.144 144.792 14.144C145.016 14.144 147.368 15.264 147.368 15.712C147.368 15.88 147.144 16.048 147.004 16.132C146.78 16.3 146.332 16.608 146.304 16.972C146.248 18.456 146.136 19.968 145.632 22.04C144.848 25.204 141.936 25.932 141.348 25.932C141.18 25.932 141.096 25.708 141.04 25.512C140.872 24.98 140.648 24.728 139.696 24.112C139.416 23.916 137.904 23.104 137.904 22.992C137.904 22.908 137.988 22.908 138.044 22.908C138.268 22.908 140.872 23.188 141.404 23.188C142.244 23.188 143.252 22.824 143.644 21.676C144.064 20.416 144.344 17.784 144.344 16.86C144.344 16.104 143.784 16.076 143.504 16.076H137.148C136.476 16.076 136.084 16.272 135.888 17C134.656 21.284 132.164 22.992 131.212 23.608C129.784 24.56 127.096 25.624 124.968 25.624C124.884 25.624 124.604 25.624 124.604 25.484C124.604 25.428 125.108 25.26 125.164 25.232C127.6 24.504 129.84 23.524 131.604 21.396C133.284 19.408 133.872 17 133.872 16.72C133.872 16.104 133.284 16.076 133.032 16.076H129.224C128.552 16.076 126.648 16.104 125.696 16.16C125.612 16.16 125.192 16.216 125.08 16.216C124.996 16.216 124.94 16.16 124.856 16.048L124.296 15.404C124.184 15.264 124.184 15.264 124.184 15.208C124.184 15.152 124.24 15.152 124.296 15.152C124.464 15.152 125.304 15.236 125.5 15.236C126.312 15.292 127.768 15.348 129.364 15.348H133.284C134.04 15.348 134.236 15.264 134.236 13.136C134.236 12.828 134.208 12.604 134.096 12.296C134.012 12.212 133.816 11.988 133.816 11.932C133.816 11.764 134.236 11.764 134.404 11.764C135.188 11.764 137.008 12.072 137.008 12.576C137.008 12.66 136.588 13.024 136.504 13.108C136.364 13.36 136.308 14.312 136.308 14.592C136.308 15.348 136.896 15.348 137.176 15.348ZM160.108 9.216C160.108 10.588 159.24 10.952 158.876 10.952C158.4 10.952 158.4 10.392 158.4 10.112C158.4 9.3 158.316 8.32 158.176 7.424C158.148 7.284 157.952 6.724 157.952 6.612C157.952 6.584 157.98 6.528 158.036 6.528C158.4 6.528 160.108 7.62 160.108 9.216ZM157.028 3.196C157.056 4.624 156.916 11.904 156.916 13.668V22.432C156.916 22.768 157 24.14 157 24.42C157 25.568 156.384 26.072 155.74 26.072C155.348 26.072 154.844 25.932 154.844 24.784C154.844 24.644 154.928 23.384 154.928 23.272C155.096 20.892 155.096 17.952 155.096 15.068C155.096 12.828 155.096 3.532 154.984 2.048C154.956 1.88 154.76 1.068 154.76 0.899999C154.76 0.759999 154.844 0.675998 155.04 0.675998C155.152 0.675998 157.28 1.068 157.728 1.292C157.812 1.348 157.924 1.432 157.924 1.6C157.924 1.852 157.728 1.992 157.448 2.244C157.112 2.496 157.028 2.72 157.028 3.196ZM153.78 9.664C153.78 11.596 153.024 13.612 151.96 13.612C151.4 13.612 150.924 13.024 150.924 12.352C150.924 11.82 151.092 11.54 151.932 10.028C152.492 9.048 152.856 7.676 153.024 6.528C153.052 6.388 153.052 6.36 153.108 6.36C153.472 6.36 153.78 8.488 153.78 9.664ZM164.336 7.536H165.904C166.772 7.536 166.772 7.088 166.772 6.556C166.772 5.996 166.716 3.616 166.716 3.14C166.716 2.216 166.716 2.104 166.632 1.796C166.604 1.684 166.352 1.068 166.352 0.927998C166.352 0.647999 166.66 0.591999 166.856 0.591999C167.192 0.591999 168.956 1.04 169.32 1.152C169.572 1.236 169.684 1.432 169.684 1.628C169.684 1.88 169.544 2.02 169.236 2.272C168.816 2.636 168.76 2.888 168.76 4.456V7.004C168.844 7.48 169.208 7.536 169.6 7.536H171.084C172.288 7.536 172.428 7.536 172.904 6.752C173.072 6.472 173.436 5.968 173.66 5.968C173.996 5.968 176.068 7.62 176.068 7.928C176.068 8.264 175.452 8.264 174.556 8.264H169.6C169.348 8.264 168.956 8.32 168.788 8.684C168.676 8.936 168.676 13.024 168.676 13.416C168.676 15.012 168.676 15.32 169.572 15.32H170.944C171.952 15.32 172.316 15.32 172.68 14.956C172.848 14.76 173.464 13.724 173.688 13.724C173.884 13.724 176.096 15.236 176.096 15.712C176.096 16.076 175.508 16.076 174.584 16.076H169.572C169.348 16.076 168.9 16.076 168.76 16.524C168.676 16.776 168.676 21.2 168.676 21.676C168.676 23.748 168.676 23.86 169.572 23.86H171.784C172.68 23.86 172.932 23.86 173.24 23.608C173.492 23.356 174.276 21.9 174.584 21.9C174.948 21.9 177.02 23.72 177.02 24.196C177.02 24.616 176.404 24.616 175.48 24.616H163.384C160.948 24.616 160.136 24.672 159.856 24.672C159.772 24.7 159.352 24.756 159.268 24.756C159.156 24.756 159.128 24.672 159.016 24.56L158.484 23.916C158.428 23.832 158.372 23.776 158.372 23.748C158.372 23.692 158.4 23.664 158.456 23.664C158.652 23.664 159.52 23.776 159.688 23.776C161.06 23.832 162.208 23.86 163.524 23.86H165.904C166.8 23.86 166.8 23.664 166.8 21.088C166.8 16.972 166.8 16.496 166.604 16.272C166.436 16.076 166.296 16.076 165.232 16.076C163.72 16.076 162.572 16.104 162.124 16.16C162.04 16.16 161.62 16.216 161.536 16.216C161.452 16.216 161.396 16.16 161.284 16.02L160.752 15.376C160.64 15.264 160.64 15.236 160.64 15.208C160.64 15.152 160.668 15.152 160.724 15.152C160.92 15.152 161.788 15.236 161.984 15.236C164.224 15.32 165.148 15.32 166.016 15.32C166.828 15.32 166.828 14.76 166.828 14.312C166.828 10.42 166.828 10 166.8 9.244C166.772 8.656 166.772 8.264 165.904 8.264H164.084C163.384 8.264 163.3 8.432 162.684 9.804C161.984 11.316 161.144 12.912 159.604 14.536C159.492 14.676 159.408 14.76 159.324 14.76C159.268 14.76 159.24 14.704 159.24 14.676C159.24 14.62 160.612 11.428 160.836 10.812C161.452 9.216 162.572 5.856 162.572 3.98C162.572 3.84 162.46 3.168 162.46 3.056C162.46 2.832 162.684 2.804 162.796 2.804C162.88 2.804 165.568 3.476 165.568 4.148C165.568 4.344 165.484 4.4 164.896 4.792C164.336 5.128 163.832 7.06 163.832 7.144C163.832 7.536 164.168 7.536 164.336 7.536ZM192.616 4.96C192.056 4.96 192.028 5.184 192.028 5.352C192.028 5.436 192.084 5.548 192.084 5.66C192.196 6.556 192.364 7.452 192.364 8.684C192.364 10.56 191.944 13.164 189.48 16.888C187.24 20.304 185.812 20.976 184.692 20.976C182.844 20.976 181.192 18.092 181.192 14.676C181.192 13.192 181.5 10.364 184.3 7.536C187.856 3.896 191.608 3.896 193.232 3.896C195.78 3.896 196.956 4.4 197.74 4.792C200.764 6.276 202.612 9.272 202.612 12.94C202.612 16.58 200.512 21.06 195.556 22.796C193.176 23.636 191.328 23.832 190.908 23.832C190.796 23.832 190.628 23.804 190.628 23.636C190.628 23.552 190.684 23.524 191.384 23.244C194.296 22.096 200.372 19.688 200.372 12.716C200.372 11.624 200.26 4.96 192.616 4.96ZM191.048 5.044C188.388 5.044 182.928 8.656 182.928 13.948C182.928 15.768 183.656 18.26 185.364 18.26C186.176 18.26 186.848 17.924 188.78 15.012C190.264 12.744 191.524 9.636 191.524 6.864C191.524 5.184 191.412 5.044 191.048 5.044ZM210.06 22.068C210.06 21.732 210.2 21.452 211.068 19.828C213.952 14.368 214.764 9.552 214.764 9.524C214.764 9.244 214.652 9.244 213.756 9.244C213.168 9.244 212.188 9.216 211.264 8.74C210.368 8.292 209.808 7.508 209.808 7.228C209.808 7.144 209.892 7.116 209.92 7.116C210.032 7.116 210.452 7.34 210.564 7.368C210.984 7.508 212.132 7.676 213.056 7.676C213.476 7.676 214.82 7.62 215.044 7.424C215.268 7.228 215.352 5.324 215.352 5.128C215.352 4.904 215.352 3.952 215.016 3.392C214.904 3.252 214.232 2.552 214.232 2.356C214.232 2.076 214.764 1.712 215.492 1.712C216.752 1.712 217.732 2.86 217.732 3.196C217.732 3.336 217.424 3.896 217.424 4.036C217.424 4.568 219.664 5.044 219.944 5.044C220.056 5.044 220.672 4.988 220.812 4.988C221.036 4.988 221.736 4.988 221.736 5.856C221.736 7.424 219.356 8.236 217.508 8.74C216.556 8.992 216.444 9.02 216.332 9.524C214.904 15.628 214.876 15.656 214.288 17.476C212.356 23.3 211.348 23.3 210.816 23.3C210.144 23.3 210.06 22.376 210.06 22.068ZM216.864 6.668C216.836 6.864 216.808 7.032 216.976 7.032C217.116 7.032 219.244 6.276 219.244 5.912C219.244 5.632 217.732 5.016 217.424 5.016C217.256 5.016 217.172 5.072 217.116 5.352C217.004 5.912 217.004 5.996 216.864 6.668ZM220.056 10.644C219.86 10.28 222.296 9.16 225.292 9.16C227.952 9.16 229.968 9.944 229.968 11.176C229.968 11.848 229.38 11.848 229.156 11.848C228.904 11.848 227.812 11.764 227.588 11.764C227.084 11.764 226.664 11.764 225.516 12.212C224.816 12.464 224.536 12.576 224.34 12.576C224.284 12.576 224.2 12.576 224.2 12.492C224.2 12.296 225.656 11.232 225.656 10.924C225.656 10.504 223.668 10.476 223.248 10.476C222.632 10.476 221.876 10.504 221.232 10.588C221.064 10.616 220.42 10.7 220.308 10.7C220.28 10.7 220.084 10.7 220.056 10.644ZM218.796 18.12C218.908 18.12 219.076 18.82 219.104 18.904C219.692 21.34 222.716 21.872 224.844 21.872C225.32 21.872 227.448 21.676 227.896 21.676C228.848 21.676 230.136 22.152 230.136 23.076C230.136 23.888 229.1 24.028 226.72 24.028C222.184 24.028 218.404 22.88 218.404 19.352C218.404 18.708 218.572 18.12 218.796 18.12ZM258.276 14.844C258.276 20.836 252.032 23.832 247.048 23.832C246.572 23.832 246.516 23.832 246.516 23.692C246.516 23.608 246.6 23.552 247.328 23.328C251.024 22.124 256.148 19.688 256.148 14.62C256.148 10.252 251.976 8.908 250.716 8.908C250.296 8.908 250.24 9.076 249.512 10.784C248.7 12.688 248.224 13.444 247.384 14.788C247.272 14.984 247.244 15.068 247.244 15.18C247.244 15.516 247.468 15.628 247.664 15.712C248.616 16.216 248.924 16.44 248.924 17.112C248.924 17.84 248.336 18.008 247.888 18.008C247.244 18.008 246.936 17.868 246.32 17.532C245.928 17.336 245.9 17.308 245.732 17.308C245.452 17.308 245.396 17.364 244.892 17.896C242.624 20.276 240.776 20.976 239.992 20.976C238.172 20.976 237.864 18.12 237.864 17C237.864 14.088 239.628 11.848 240.804 10.672C241.056 10.448 241.112 10.196 241.112 9.944C241.112 9.692 239.992 6.332 239.852 5.94C239.768 5.716 239.264 4.708 239.264 4.624C239.264 4.596 239.264 4.54 239.32 4.54C240.216 4.54 241.476 5.52 241.588 6.052C241.924 7.844 242.204 8.628 242.316 8.824C242.4 8.992 242.596 9.132 242.82 9.132C243.044 9.132 243.968 8.628 244.164 8.544C245.76 7.844 247.16 7.676 248.532 7.536C248.784 7.536 249.064 7.48 249.232 7.172C249.428 6.836 249.624 5.66 249.624 5.1C249.624 4.96 249.624 4.008 249.036 2.776C249.008 2.72 248.98 2.664 248.98 2.636C248.98 2.552 249.204 2.552 249.26 2.552C250.52 2.552 252.032 3.588 252.032 4.26C252.032 4.372 251.052 6.668 251.052 7.144C251.052 7.592 251.36 7.648 251.584 7.676C255.504 8.348 258.276 11.148 258.276 14.844ZM248.56 9.104C248.56 8.768 248.28 8.768 248.168 8.768C246.292 8.768 244.808 9.328 243.912 9.804C243.436 10.084 243.156 10.28 243.156 10.672C243.156 11.148 244.752 14.228 245.508 14.228C245.788 14.228 245.9 14.172 246.488 13.22C248.028 10.728 248.56 9.244 248.56 9.104ZM244.108 16.132C244.108 15.88 244.052 15.796 243.912 15.628C243.1 14.704 242.344 13.332 242.008 12.408C241.868 12.016 241.756 11.736 241.504 11.736C241.14 11.736 239.236 13.668 239.236 16.496C239.236 18.008 239.796 19.016 240.44 19.016C241.476 19.016 244.108 16.72 244.108 16.132ZM276.616 4.96C276.056 4.96 276.028 5.184 276.028 5.352C276.028 5.436 276.084 5.548 276.084 5.66C276.196 6.556 276.364 7.452 276.364 8.684C276.364 10.56 275.944 13.164 273.48 16.888C271.24 20.304 269.812 20.976 268.692 20.976C266.844 20.976 265.192 18.092 265.192 14.676C265.192 13.192 265.5 10.364 268.3 7.536C271.856 3.896 275.608 3.896 277.232 3.896C279.78 3.896 280.956 4.4 281.74 4.792C284.764 6.276 286.612 9.272 286.612 12.94C286.612 16.58 284.512 21.06 279.556 22.796C277.176 23.636 275.328 23.832 274.908 23.832C274.796 23.832 274.628 23.804 274.628 23.636C274.628 23.552 274.684 23.524 275.384 23.244C278.296 22.096 284.372 19.688 284.372 12.716C284.372 11.624 284.26 4.96 276.616 4.96ZM275.048 5.044C272.388 5.044 266.928 8.656 266.928 13.948C266.928 15.768 267.656 18.26 269.364 18.26C270.176 18.26 270.848 17.924 272.78 15.012C274.264 12.744 275.524 9.636 275.524 6.864C275.524 5.184 275.412 5.044 275.048 5.044ZM0.928 48.356C1.096 48.356 1.852 48.608 1.992 48.636C2.888 48.804 4.064 48.804 4.288 48.804C5.8 48.804 9.944 48.412 10.364 48.328C10.784 48.244 10.98 48.076 10.98 47.656C10.98 44.044 10.224 43.148 9.888 42.784C9.776 42.672 9.272 42.196 9.272 42.056C9.272 41.804 10.588 41.804 10.84 41.804C12.212 41.804 13.052 42.672 13.052 42.952C13.052 43.12 12.744 43.848 12.688 43.988C12.632 44.324 12.604 45.864 12.604 46.284C12.604 47.628 12.632 47.936 13.192 47.936C13.752 47.936 15.488 47.628 16.16 47.516C16.356 47.488 17.252 47.208 17.42 47.208C17.672 47.208 19.156 47.572 19.156 48.412C19.156 49.168 17.784 49.168 17.42 49.168C17.056 49.168 15.488 49.056 15.152 49.056C12.688 49.056 12.688 49.476 12.688 50.064C12.688 50.484 12.996 57.008 13.052 57.624C13.108 58.128 13.388 60.228 13.388 60.648C13.388 62.132 12.464 63.252 11.708 63.252C11.064 63.252 10.924 62.776 10.672 61.852C10.42 60.984 9.608 60.06 9.048 59.556C8.964 59.472 8.432 58.968 8.432 58.912C8.432 58.856 8.516 58.828 8.544 58.828C8.6 58.828 10.728 59.64 11.036 59.64C11.4 59.64 11.4 59.192 11.4 58.968C11.4 55.888 11.26 52.36 11.204 52.22C11.176 52.108 11.064 52.052 10.952 52.052C10.812 52.052 10.756 52.108 10.28 52.696C6.248 57.68 1.796 60.312 1.208 60.312C1.124 60.312 1.04 60.256 1.04 60.2C1.04 60.06 2.552 58.772 2.832 58.52C6.78 54.824 9.636 50.904 9.636 50.064C9.636 49.896 9.524 49.756 9.328 49.756C8.824 49.756 5.52 50.176 5.016 50.288C4.736 50.372 3.588 50.82 3.336 50.82C2.496 50.82 0.76 48.916 0.76 48.496C0.76 48.384 0.9 48.356 0.928 48.356ZM31.644 51.716C32.568 51.716 42.34 51.352 46.428 51.128C46.596 51.128 46.904 51.1 47.044 51.1C48.752 51.1 49.004 52.136 49.004 52.332C49.004 53.116 47.856 53.2 46.68 53.2C46.036 53.2 43.236 53.144 42.676 53.144C38.812 53.144 32.4 53.508 31.728 53.648C31.392 53.704 29.88 54.152 29.544 54.152C28.34 54.152 27.052 52.416 27.052 51.464C27.052 51.296 27.136 51.128 27.276 51.128C27.416 51.128 28.088 51.436 28.228 51.464C28.704 51.604 29.852 51.716 31.644 51.716ZM62.864 48.664C62.864 48.748 61.436 52.78 60.96 53.844C59.28 57.484 56.34 59.164 55.78 59.164C55.668 59.164 55.64 59.08 55.64 59.024C55.64 58.8 56.536 57.82 56.76 57.54C59.84 53.312 60.148 50.26 60.148 49.336C60.148 48.608 60.12 48.3 59.672 46.928C59.616 46.732 59.56 46.564 59.56 46.424C59.56 46.34 59.588 46.284 59.7 46.284C59.896 46.284 62.864 47.236 62.864 48.664ZM67.792 58.744C66.98 58.884 65.496 57.232 65.496 56.448C65.496 56.308 65.636 55.58 65.664 55.44C65.748 54.908 65.776 52.696 65.776 51.996C65.776 48.58 65.44 47.432 65.244 46.732C65.188 46.592 64.88 45.864 64.88 45.724C64.88 45.612 64.992 45.584 65.048 45.584C65.188 45.584 68.128 46.088 68.128 47.544C68.128 47.88 67.736 49.336 67.68 49.644C67.568 50.4 67.456 53.788 67.456 54.712C67.456 55.076 67.484 55.636 67.988 55.636C68.828 55.636 71.404 53.788 74.092 51.072C74.568 50.596 76.948 48.076 77.06 48.076C77.116 48.076 77.172 48.132 77.172 48.188C77.172 48.412 75.548 51.884 70.648 56.196C69.192 57.456 68.912 57.736 68.716 57.988C68.24 58.52 67.988 58.716 67.792 58.744ZM94.672 49.168C94.672 49.336 94.756 49.448 94.924 49.56C96.016 50.232 96.128 50.344 96.128 50.596C96.128 50.764 95.82 51.548 95.792 51.716C95.68 52.22 95.624 52.808 95.624 56.672C95.624 57.428 95.652 58.94 95.708 60.032C95.736 60.368 95.904 61.992 95.904 62.356C95.904 62.636 95.904 63.588 95.232 63.588C94.448 63.588 93.496 62.384 93.496 61.628C93.496 61.348 93.776 60.116 93.804 59.836C93.972 58.324 94.084 56.168 94.084 54.684C94.084 53.676 94.084 50.736 93.356 50.736C93.216 50.736 93.104 50.848 92.88 51.072C90.136 53.704 85.432 56.42 84.928 56.42C84.844 56.42 84.788 56.364 84.788 56.252C84.788 56.168 84.816 56.112 84.872 56.056C85.6 55.412 86.384 54.768 86.832 54.376C93.44 48.72 95.624 43.96 95.624 43.176C95.624 42.896 95.54 42.644 95.4 42.392C95.372 42.336 95.204 42 95.204 41.944C95.204 41.832 95.344 41.72 95.484 41.72C95.904 41.72 98.732 42.896 98.732 43.96C98.732 44.24 98.592 44.436 98.48 44.52C97.724 45.136 97.612 45.304 96.576 46.816C96.1 47.488 95.204 48.496 94.672 49.168ZM120.74 47.32C120.74 48.16 120.264 48.72 119.536 48.72C118.78 48.72 118.5 48.272 117.576 46.872C116.624 45.444 115.812 45.024 115.028 44.576C114.916 44.52 114.776 44.436 114.776 44.324C114.776 44.212 115 44.072 115.392 44.072C118.388 44.072 120.74 45.668 120.74 47.32ZM132.388 47.068C132.388 47.32 129.112 52.556 121.832 57.932C121.104 58.464 119.676 59.528 119.088 60.228C118.556 60.872 118.5 60.928 118.08 60.928C116.568 60.928 114.496 59.136 114.496 58.016C114.496 57.82 114.524 56.532 114.776 56.532C114.888 56.532 115.504 57.008 115.616 57.064C115.98 57.288 116.904 57.708 117.52 57.708C118.892 57.708 126.312 52.752 130.96 48.16C131.408 47.712 132.192 46.928 132.248 46.928C132.304 46.928 132.388 47.012 132.388 47.068ZM155.768 47.264C155.768 46.956 155.768 46.704 155.264 46.704C154.872 46.704 147.76 47.572 145.94 47.852C144.764 48.02 144.764 48.16 144.764 49.868C144.764 50.54 145.072 53.564 145.072 54.18C145.072 54.544 145.072 56.252 144.344 56.252C143.7 56.252 142.748 54.712 142.748 53.704C142.748 53.396 142.776 53.284 142.944 52.444C143.028 52.024 143.028 51.408 143.028 51.184C143.028 49.616 142.748 47.824 142.132 46.732C142.076 46.62 141.628 46.06 141.628 45.92C141.628 45.724 142.188 45.5 142.636 45.5C143.056 45.5 143.252 45.612 144.092 46.116C144.288 46.256 144.512 46.396 145.576 46.396C146.416 46.396 154.592 45.36 155.32 45.052C155.488 44.996 156.076 44.492 156.216 44.492C156.58 44.492 158.96 46.34 158.96 46.928C158.96 47.18 158.232 48.048 158.12 48.272C157.812 48.944 156.552 52.08 156.272 52.724C155.32 54.852 153.136 59.332 148.908 62.02C148.488 62.272 147.816 62.664 147.648 62.664C147.536 62.664 147.48 62.58 147.48 62.496C147.48 62.384 148.012 61.852 148.32 61.544C149.776 60.06 152.632 57.008 154.368 52.332C155.152 50.26 155.768 47.684 155.768 47.264ZM176.74 47.32C176.74 48.16 176.264 48.72 175.536 48.72C174.78 48.72 174.5 48.272 173.576 46.872C172.624 45.444 171.812 45.024 171.028 44.576C170.916 44.52 170.776 44.436 170.776 44.324C170.776 44.212 171 44.072 171.392 44.072C174.388 44.072 176.74 45.668 176.74 47.32ZM188.388 47.068C188.388 47.32 185.112 52.556 177.832 57.932C177.104 58.464 175.676 59.528 175.088 60.228C174.556 60.872 174.5 60.928 174.08 60.928C172.568 60.928 170.496 59.136 170.496 58.016C170.496 57.82 170.524 56.532 170.776 56.532C170.888 56.532 171.504 57.008 171.616 57.064C171.98 57.288 172.904 57.708 173.52 57.708C174.892 57.708 182.312 52.752 186.96 48.16C187.408 47.712 188.192 46.928 188.248 46.928C188.304 46.928 188.388 47.012 188.388 47.068ZM208.38 47.04C208.324 46.816 208.1 46.816 208.044 46.816C207.848 46.816 201.968 48.188 201.828 48.244C201.632 48.3 200.764 48.776 200.568 48.776C200.148 48.776 198.832 47.936 198.664 47.768C198.468 47.572 197.992 46.34 197.992 46.144C197.992 46.004 198.02 45.92 198.16 45.92C198.188 45.92 198.804 46.088 198.888 46.116C199.756 46.368 200.092 46.396 200.372 46.396C201.324 46.396 206.588 45.948 208.044 45.36C208.296 45.248 209.332 44.492 209.584 44.492C210.256 44.492 211.964 45.92 211.964 46.62C211.964 46.872 210.928 47.628 210.76 47.824C210.2 48.496 207.988 51.772 207.54 52.416C207.428 52.556 207.316 52.752 207.316 52.976C207.316 53.228 207.372 53.284 208.548 53.928C209.808 54.656 214.82 57.484 214.82 60.032C214.82 60.676 214.316 61.264 213.672 61.264C213.028 61.264 212.916 61.068 211.936 59.332C210.004 55.944 207.54 53.816 206.924 53.816C206.644 53.816 206.56 53.9 205.944 54.6C204.964 55.636 202.108 58.772 198.468 60.592C197.712 60.956 196.956 61.236 196.732 61.236C196.676 61.236 196.536 61.236 196.536 61.068C196.536 60.956 197.656 60.144 197.824 60.032C205.132 54.74 208.464 47.488 208.38 47.04ZM235.764 54.712C235.764 55.44 237.78 61.152 237.78 62.384C237.78 62.916 237.584 63.448 237.164 63.448C235.932 63.448 235.484 61.012 235.26 59.836C235.12 59.136 234.504 56.084 234.392 55.44C234.28 54.936 234.14 54.572 233.636 54.572C233.524 54.572 230.192 55.356 228.82 55.804C228.54 55.888 227.392 56.532 227.112 56.532C226.692 56.532 223.892 55.3 223.892 54.46C223.892 54.236 224.088 54.18 224.228 54.18C224.48 54.18 225.656 54.292 225.908 54.292C228.036 54.292 229.716 53.956 232.712 53.34C233.44 53.2 233.636 53.088 233.636 52.612C233.636 52.164 233.412 51.352 233.02 49.812C232.852 49.112 232.712 48.832 232.292 48.832C231.648 48.832 228.484 49.896 228.428 49.896C227.756 49.896 225.88 48.888 225.88 48.384C225.88 48.188 226.188 48.188 226.44 48.188C227.14 48.188 229.156 48.048 230.752 47.712C231.732 47.488 232.18 47.32 232.18 46.788C232.18 46.676 231.816 44.016 230.584 42.952C230.388 42.784 229.296 42.056 229.296 41.944C229.296 41.776 230.136 41.468 230.752 41.468C231.312 41.468 233.272 42.084 233.356 42.644C233.412 43.036 233.468 44.66 233.524 44.996C233.776 46.816 234.084 46.816 234.476 46.816C234.756 46.816 236.52 46.228 236.912 46.06C238.116 45.528 238.256 45.472 238.648 45.472C239.544 45.472 240.328 46.06 240.328 46.508C240.328 47.068 239.768 47.18 237.724 47.572C235.456 48.02 235.204 48.076 234.896 48.188C234.42 48.328 234.364 48.58 234.364 48.888C234.364 49.364 234.728 50.848 234.868 51.408C235.12 52.36 235.232 52.612 235.736 52.612C236.24 52.612 238.648 51.856 239.32 51.548C240.244 51.128 240.86 50.848 242.092 50.848C243.576 50.848 244.192 51.604 244.192 52.08C244.192 52.92 243.044 52.948 242.036 52.948C240.44 52.976 237.808 53.564 236.996 53.76C235.82 54.012 235.764 54.18 235.764 54.712ZM260.74 47.32C260.74 48.16 260.264 48.72 259.536 48.72C258.78 48.72 258.5 48.272 257.576 46.872C256.624 45.444 255.812 45.024 255.028 44.576C254.916 44.52 254.776 44.436 254.776 44.324C254.776 44.212 255 44.072 255.392 44.072C258.388 44.072 260.74 45.668 260.74 47.32ZM272.388 47.068C272.388 47.32 269.112 52.556 261.832 57.932C261.104 58.464 259.676 59.528 259.088 60.228C258.556 60.872 258.5 60.928 258.08 60.928C256.568 60.928 254.496 59.136 254.496 58.016C254.496 57.82 254.524 56.532 254.776 56.532C254.888 56.532 255.504 57.008 255.616 57.064C255.98 57.288 256.904 57.708 257.52 57.708C258.892 57.708 266.312 52.752 270.96 48.16C271.408 47.712 272.192 46.928 272.248 46.928C272.304 46.928 272.388 47.012 272.388 47.068ZM285.996 42.756C287.032 42.756 287.312 43.064 288.208 44.044C288.656 44.548 289.104 45.024 289.104 45.248C289.104 45.416 289.02 45.528 288.6 45.976C287.928 46.648 287.032 48.076 287.032 48.328C287.032 48.664 287.396 48.86 288.32 48.86C289.86 48.86 293.332 48.44 294.592 48.188C294.956 48.104 296.524 47.572 296.86 47.572C297 47.572 299.632 48.02 299.632 49.252C299.632 49.672 299.184 50.008 298.708 50.008C298.4 50.008 297.168 49.812 296.916 49.784C296.328 49.728 295.6 49.644 294.9 49.644C294.62 49.644 292.744 49.672 292.744 50.064C292.744 50.232 293.248 50.848 293.248 51.016C293.248 51.156 292.828 51.744 292.772 51.856C292.632 52.192 292.156 53.648 292.016 53.928C289.356 60.368 284.008 63 283.42 63C283.364 63 283.252 63 283.252 62.832C283.252 62.72 283.28 62.664 283.644 62.356C285.184 60.984 287.088 59.192 288.516 57.036C289.832 54.992 290.56 52.78 290.56 51.632C290.56 51.044 290.42 50.064 289.552 50.064C289.272 50.064 288.796 50.148 288.46 50.204C288.292 50.232 287.48 50.512 287.312 50.512C287.088 50.512 286.864 50.288 286.78 50.176C286.416 49.812 286.388 49.784 286.276 49.784C286.052 49.784 285.912 50.036 285.8 50.176C283.784 53.256 280.732 55.16 280.312 55.16C280.2 55.16 280.172 55.048 280.172 54.992C280.172 54.908 282.832 51.688 283.308 51.072C285.716 47.824 285.996 45.332 285.996 44.716C285.996 44.296 285.94 43.82 285.8 43.4C285.772 43.344 285.604 43.008 285.604 42.952C285.604 42.756 285.94 42.756 285.996 42.756ZM308.368 45.472C308.452 45.472 309.572 45.724 309.796 45.752C310.356 45.836 310.972 45.864 311.56 45.864C314.052 45.864 322.368 44.548 323.152 44.24C323.348 44.156 324.132 43.596 324.3 43.596C324.944 43.596 327.604 46.284 327.604 47.236C327.604 47.432 327.604 47.74 326.624 47.964C325.644 48.16 321.36 49.728 320.772 50.512C320.436 50.988 320.324 51.324 319.344 54.096C318.84 55.552 317.244 60.004 312.288 62.748C311.364 63.252 310.552 63.56 310.356 63.56C310.244 63.56 310.188 63.504 310.188 63.42C310.188 63.336 310.244 63.28 310.748 62.888C312.316 61.74 314.248 60.088 315.76 57.68C317.3 55.216 317.86 52.836 317.86 51.548C317.86 50.932 317.748 50.4 317.496 49.896C317.272 49.448 317.244 49.392 317.244 49.28C317.244 49.056 317.664 49.028 317.832 49.028C318.308 49.028 318.644 49.056 319.344 49.28C319.512 49.336 320.268 49.644 320.436 49.644C321.22 49.644 323.908 46.956 323.908 46.228C323.908 46.032 323.74 45.808 323.376 45.808C322.928 45.808 317.86 46.2 313.38 47.544C312.988 47.656 311.392 48.356 311.028 48.356C310.356 48.356 308.172 46.564 308.172 45.584C308.172 45.528 308.228 45.472 308.368 45.472Z" fill="white"/>
  </svg>
