<svg width="220" height="101" viewBox="0 0 220 101" fill="none" xmlns="http://www.w3.org/2000/svg">
  <path d="M171.919 86.632C171.919 83.92 170.887 82.456 169.759 82.456C168.631 82.456 167.599 83.896 167.599 86.632C167.599 89.392 168.655 90.808 169.759 90.808C170.887 90.808 171.919 89.344 171.919 86.632ZM170.815 73.048C170.983 73.048 171.151 73.216 171.151 73.408C171.151 73.504 171.031 73.672 170.839 73.96C170.719 74.176 159.775 90.808 159.727 90.88C159.367 91.384 159.343 91.456 159.175 91.456C158.983 91.456 158.815 91.288 158.815 91.12C158.815 90.976 160.351 88.672 160.591 88.312C161.647 86.728 170.095 73.864 170.215 73.672C170.599 73.12 170.647 73.048 170.815 73.048ZM162.367 77.872C162.367 75.184 161.359 73.72 160.207 73.72C159.031 73.744 158.047 75.232 158.047 77.896C158.047 80.56 159.055 82.072 160.207 82.072C161.359 82.072 162.367 80.584 162.367 77.872ZM173.839 86.632C173.839 89.872 171.295 91.456 169.759 91.456C168.223 91.456 165.703 89.872 165.703 86.632C165.703 83.368 168.223 81.808 169.759 81.808C171.295 81.808 173.839 83.368 173.839 86.632ZM164.263 77.872C164.263 81.112 161.791 82.72 160.207 82.72C158.647 82.72 156.151 81.112 156.151 77.896C156.151 74.656 158.647 73.048 160.207 73.048C161.791 73.072 164.263 74.656 164.263 77.872Z" fill="white"/>
  <path d="M165 52.812L161.112 56.712L160.728 56.328L164.628 52.44L160.728 48.552L161.112 48.168L165 52.068L168.888 48.168L169.272 48.552L165.372 52.44L169.272 56.328L168.888 56.712L165 52.812ZM168.264 51.444C168.828 51.444 169.272 51.9 169.272 52.44C169.272 52.98 168.828 53.436 168.264 53.436C167.724 53.436 167.268 52.992 167.268 52.44C167.268 51.888 167.724 51.444 168.264 51.444ZM161.736 51.444C162.288 51.444 162.732 51.9 162.732 52.44C162.732 52.98 162.288 53.436 161.736 53.436C161.184 53.436 160.728 52.992 160.728 52.44C160.728 51.888 161.184 51.444 161.736 51.444ZM165 48.168C165.564 48.168 165.996 48.624 165.996 49.176C165.996 49.704 165.564 50.172 165 50.172C164.448 50.172 164.004 49.716 164.004 49.176C164.004 48.612 164.46 48.168 165 48.168ZM165 54.708C165.564 54.708 165.996 55.164 165.996 55.704C165.996 56.244 165.564 56.712 165 56.712C164.448 56.712 164.004 56.256 164.004 55.704C164.004 55.152 164.46 54.708 165 54.708ZM175.812 57H172.176C171.912 57 171.9 56.844 171.9 56.808C171.9 56.616 172.08 56.616 172.512 56.616C173.16 56.616 173.472 56.58 173.616 56.244C173.7 56.04 173.7 53.928 173.7 53.508C173.7 52.932 173.676 50.136 173.676 49.5C173.676 48.936 173.508 48.936 172.5 48.936C172.212 48.936 172.092 48.936 172.092 48.78C172.092 48.624 172.212 48.612 172.584 48.588C172.872 48.576 173.472 48.456 173.94 48.288C174.024 48.264 174.432 48.024 174.528 48.024C174.66 48.024 174.66 48.06 174.66 48.6C174.66 48.924 174.636 50.472 174.636 50.832C174.636 51.384 174.648 55.992 174.684 56.124C174.768 56.472 174.936 56.616 175.824 56.616C175.932 56.616 176.112 56.616 176.112 56.832C176.112 57 175.92 57 175.812 57Z" fill="white"/>
  <path d="M94.14 77.98C89.4 77.98 82.68 73.6 82.68 64.66C82.68 57.22 87.54 49.12 95.4 49.12C104.82 49.12 109.32 60.4 109.32 69.76C109.32 82.84 101.22 95.14 92.28 95.14C88.38 95.14 84.3 92.44 84.3 89.2C84.3 87.34 85.8 85.78 87.78 85.78C90.6 85.78 90.84 88.42 90.96 90.52C91.02 91.18 91.14 93.22 93.72 93.22C94.8 93.22 98.52 92.56 101.46 86.02C102.9 82.84 103.8 78.28 103.8 74.98C103.8 74.62 103.74 73.84 103.26 73.84C102.9 73.84 102.36 74.32 102.18 74.5C99.12 77.38 96.78 77.98 94.14 77.98ZM95.94 75.34C98.28 75.34 103.86 73.42 103.86 67.48C103.86 63.16 102.12 50.98 95.52 50.98C90.54 50.98 88.2 57.64 88.2 63.88C88.2 71.74 91.86 75.34 95.94 75.34ZM135.06 94H116.88C115.56 94 115.5 93.22 115.5 93.04C115.5 92.08 116.4 92.08 118.56 92.08C121.8 92.08 123.36 91.9 124.08 90.22C124.5 89.2 124.5 78.64 124.5 76.54C124.5 73.66 124.38 59.68 124.38 56.5C124.38 53.68 123.54 53.68 118.5 53.68C117.06 53.68 116.46 53.68 116.46 52.9C116.46 52.12 117.06 52.06 118.92 51.94C120.36 51.88 123.36 51.28 125.7 50.44C126.12 50.32 128.16 49.12 128.64 49.12C129.3 49.12 129.3 49.3 129.3 52C129.3 53.62 129.18 61.36 129.18 63.16C129.18 65.92 129.24 88.96 129.42 89.62C129.84 91.36 130.68 92.08 135.12 92.08C135.66 92.08 136.56 92.08 136.56 93.16C136.56 94 135.6 94 135.06 94Z" fill="white"/>
  <path d="M62.2 77.056H57.28C56.752 77.056 56.584 77.128 56.392 77.416C55.84 78.28 54.496 80.368 54.064 80.368C53.944 80.368 53.896 80.296 53.896 80.2C53.896 80.152 54.784 78.448 54.928 78.112C55.936 75.952 56.992 72.688 56.992 71.392C56.992 71.344 56.968 71.104 56.968 71.056C56.968 70.984 56.992 70.912 57.064 70.912C57.136 70.912 59.68 71.68 59.68 72.16C59.68 72.4 59.392 72.544 59.032 72.712C58.648 72.88 57.136 76.24 57.136 76.264C57.136 76.408 57.328 76.408 57.544 76.408H61.936C62.584 76.408 62.608 76.408 62.872 76.192C63.304 75.784 63.352 75.736 63.52 75.736C63.808 75.736 65.416 76.624 65.416 77.104C65.416 77.272 65.344 77.296 64.816 77.728C64.624 77.872 64.624 78.904 64.624 79.528C64.576 83.944 63.928 89.176 62.584 91.264C61.96 92.248 60.64 92.776 59.992 92.776C59.68 92.776 59.608 92.584 59.392 92.008C59.176 91.408 58.624 90.88 58.072 90.496C57.736 90.28 57.688 90.256 57.688 90.136C57.688 90.04 57.76 90.04 57.784 90.04C57.832 90.04 58.432 90.256 58.552 90.28C59.2 90.472 59.68 90.64 60.064 90.64C61.096 90.64 61.624 89.632 61.912 88.48C62.68 85.576 62.992 82.6 62.992 79.6C62.992 79.216 62.992 77.488 62.92 77.368C62.776 77.056 62.464 77.056 62.2 77.056ZM48.784 78.616C48.784 79.096 48.52 79.648 47.968 79.648C47.632 79.648 47.44 79.504 47.176 78.88C47.08 78.616 46.552 77.488 45.568 76.312C45.328 76.024 45.304 76 45.304 75.928C45.304 75.856 45.352 75.784 45.496 75.784C45.784 75.784 47.056 76.384 47.224 76.384C47.536 76.384 48.376 73.408 48.688 71.488C48.76 71.104 48.808 71.104 48.904 71.104C49.072 71.104 51.064 71.92 51.064 72.208C51.064 72.352 50.464 72.736 50.368 72.832C50.08 73.144 47.968 76.432 47.968 76.768C47.968 76.984 48.064 77.104 48.184 77.224C48.472 77.536 48.784 78.184 48.784 78.616ZM47.104 84.856C47.44 85 48.112 85.312 48.112 85.576C48.112 85.72 47.704 86.104 47.632 86.2C47.224 86.776 45.592 89.368 45.184 89.848C45.016 90.064 44.512 90.616 44.32 90.616C44.248 90.616 44.224 90.592 44.224 90.52C44.224 90.496 44.944 88.768 45.064 88.432C45.496 87.208 45.928 85.984 45.952 85.312C45.976 84.616 45.976 84.544 46.168 84.544C46.312 84.544 46.936 84.784 47.104 84.856ZM54.184 83.776C53.656 83.776 53.344 83.584 53.2 82.792C53.152 82.576 53.104 82.432 52.864 82.432C52.648 82.432 51.52 82.672 51.256 82.696C50.608 82.792 50.608 82.984 50.608 83.896C50.608 84.952 50.632 90.184 50.632 91.36C50.632 92.512 49.624 92.68 49.408 92.68C48.88 92.68 48.88 92.272 48.88 92.104C48.88 91.792 49 90.328 49 89.992C49.048 88.24 49.12 85.288 49.12 83.56C49.12 83.248 49.072 82.984 48.64 82.984C48.208 82.984 46.384 83.152 45.832 83.344C45.736 83.392 45.256 83.704 45.136 83.704C44.704 83.704 44.56 81.784 44.56 81.664C44.56 81.544 44.56 81.304 44.776 81.304C44.8 81.304 45.376 81.472 45.424 81.496C45.928 81.664 46.768 81.832 47.824 81.832C48.592 81.832 48.688 81.76 48.904 81.4C50.128 79.384 51.52 76.144 51.808 74.68C51.928 74.104 51.928 74.056 52.12 74.056C52.24 74.056 54.448 74.944 54.448 75.448C54.448 75.664 54.28 75.736 54.088 75.76C53.872 75.808 53.656 75.832 53.224 76.264C52.576 76.912 49.504 81.616 49.504 81.736C49.504 81.808 49.552 81.832 49.576 81.856C49.672 81.88 51.088 81.88 51.256 81.88C51.616 81.88 52.384 81.832 52.648 81.808C52.768 81.808 52.864 81.76 52.864 81.592C52.864 81.304 52.192 79.936 52.192 79.888C52.192 79.792 52.264 79.792 52.288 79.792C52.672 79.792 54.928 81.088 54.928 82.816C54.928 83.344 54.616 83.776 54.184 83.776ZM58.84 82.768C59.512 83.416 59.896 84.088 59.896 84.808C59.896 85.72 59.32 86.344 58.744 86.344C58.144 86.344 58.072 86.056 57.784 84.496C57.568 83.344 57.184 82.36 57.064 82.12C56.896 81.76 56.872 81.688 56.872 81.616C56.872 81.544 56.872 81.472 56.944 81.472C57.328 81.472 58.456 82.384 58.84 82.768ZM53.608 86.224C54.304 86.92 54.904 87.856 54.904 88.528C54.904 89.224 54.376 89.752 53.92 89.752C53.44 89.752 53.392 89.56 53.032 87.88C52.816 86.92 52.744 86.776 52.264 85.816C52.216 85.696 52.12 85.48 52.12 85.384C52.12 85.288 52.192 85.264 52.24 85.264C52.456 85.264 53.2 85.816 53.608 86.224Z" fill="white"/>
  <rect y="24" width="220" height="1" fill="white"/>
  <path d="M8.02 18H1.96C1.52 18 1.5 17.74 1.5 17.68C1.5 17.36 1.8 17.36 2.52 17.36C3.6 17.36 4.12 17.3 4.36 16.74C4.5 16.4 4.5 12.88 4.5 12.18C4.5 11.22 4.46 6.56 4.46 5.5C4.46 4.56 4.18 4.56 2.5 4.56C2.02 4.56 1.82 4.56 1.82 4.3C1.82 4.04 2.02 4.02 2.64 3.98C3.12 3.96 4.12 3.76 4.9 3.48C5.04 3.44 5.72 3.04 5.88 3.04C6.1 3.04 6.1 3.1 6.1 4C6.1 4.54 6.06 7.12 6.06 7.72C6.06 8.64 6.08 16.32 6.14 16.54C6.28 17.12 6.56 17.36 8.04 17.36C8.22 17.36 8.52 17.36 8.52 17.72C8.52 18 8.2 18 8.02 18ZM19.5 10.72C19.5 14.26 18.22 18.38 15 18.38C11.84 18.38 10.5 14.4 10.5 10.72C10.5 7 11.86 3.04 15 3.04C18.24 3.06 19.5 7.2 19.5 10.72ZM17.7 10.72C17.7 9.88 17.7 3.7 15 3.7C12.34 3.7 12.3 9.7 12.3 10.72C12.3 11.54 12.3 17.74 15 17.72C17.66 17.72 17.7 11.76 17.7 10.72ZM33.2 17.18H27.04C26.92 17.18 26.5 17.18 26.46 17.6C26.42 18.12 26.38 18.68 25.5 18.68C24.84 18.68 24.8 18.28 24.8 17.94C24.8 17.86 24.92 13.86 24.92 13.1C24.92 10.92 24.92 6.16 24.76 4.14C24.74 3.96 24.64 3.12 24.64 2.94C24.64 2.84 24.66 2.78 24.76 2.78C24.84 2.78 24.94 2.82 25.7 3.2C26.26 3.46 26.36 3.48 26.7 3.48H32.82C33.24 3.48 33.4 3.48 33.54 3.28C33.84 2.86 33.92 2.76 34.12 2.76C34.4 2.76 35.86 3.7 35.86 4C35.86 4.14 35.76 4.22 35.42 4.52C35.16 4.72 35.06 4.86 35.06 5.82C35.06 7.96 35.08 8.32 35.1 10.08C35.12 11.22 35.26 16.28 35.26 17.32C35.26 18.02 34.8 18.42 34.26 18.42C34.2 18.42 33.68 18.42 33.62 17.66C33.6 17.32 33.6 17.18 33.2 17.18ZM26.9 9.92H33.04C33.62 9.92 33.62 9.54 33.62 9.28C33.62 9.04 33.56 4.38 33.52 4.28C33.4 4.02 33.14 4.02 33.02 4.02H26.84C26.56 4.02 26.4 4.2 26.38 4.32C26.34 4.48 26.34 8.82 26.34 9.18C26.34 9.56 26.36 9.92 26.9 9.92ZM27 16.64H33.02C33.2 16.64 33.56 16.64 33.6 16.22C33.62 16.1 33.62 11.66 33.62 11.2C33.62 10.78 33.58 10.44 33.04 10.44H26.92C26.4 10.44 26.34 10.74 26.34 11.14C26.34 11.8 26.4 15.02 26.4 15.74C26.4 16.38 26.46 16.64 27 16.64ZM43.98 2.58H46.94C47.16 2.58 47.28 2.58 47.5 2.36C47.7 2.14 47.86 1.98 48.04 1.98C48.26 1.98 49.26 2.72 49.26 3C49.26 3.1 48.94 3.4 48.88 3.48C48.74 3.66 48.74 3.82 48.74 4.36C48.74 4.88 48.84 7.42 48.84 8C48.84 9.1 48.28 9.3 48 9.3C47.52 9.3 47.46 8.92 47.42 8.6C47.36 8.18 47.14 8.18 46.76 8.18H44.28C43.96 8.18 43.64 8.18 43.54 8.44C43.48 8.58 43.48 9.5 43.48 9.86C43.48 10.78 43.48 14.16 43.5 14.92C43.52 15.36 43.58 17.48 43.58 17.96C43.58 18.32 43.58 19.4 42.54 19.4C42.02 19.4 42.02 18.84 42.02 18.7C42.02 18.64 42.04 18.16 42.04 17.9C42.24 11.96 42.24 10.64 42.24 8.44C42.24 7.22 42.24 4.22 42.22 3.96C42.2 3.8 42.1 2.14 42.1 2.12C42.1 2.04 42.1 1.92 42.18 1.92C42.46 1.92 43 2.22 43.12 2.28C43.64 2.56 43.7 2.58 43.98 2.58ZM46.94 3.12H44.08C43.62 3.12 43.5 3.12 43.5 3.62V4.7C43.5 5.12 43.68 5.12 44.08 5.12H46.94C47.4 5.12 47.52 5.12 47.52 4.6V3.52C47.52 3.12 47.34 3.12 46.94 3.12ZM46.9 5.64H44.08C43.68 5.64 43.48 5.64 43.48 6.04V7.2C43.48 7.64 43.64 7.64 44.08 7.64H46.9C47.3 7.64 47.5 7.64 47.5 7.24V6.1C47.5 5.66 47.34 5.64 46.9 5.64ZM52.76 2.54H56.18C56.38 2.54 56.44 2.54 56.6 2.38C56.84 2.12 56.92 2.06 57.04 2.06C57.2 2.06 58.34 2.7 58.34 3.08C58.34 3.2 58.24 3.3 58.12 3.4C57.8 3.68 57.8 3.74 57.8 4.46C57.8 6.3 57.84 15.38 57.84 17.44C57.84 18.24 57.74 18.72 57.04 19.08C56.64 19.28 56.2 19.4 56.1 19.4C55.88 19.4 55.74 19.2 55.54 18.86C55.42 18.66 55.3 18.46 54.98 18.28C54.84 18.2 54 17.98 54 17.8C54 17.7 54.74 17.66 54.94 17.66C56.24 17.6 56.44 17.5 56.5 16.94C56.52 16.74 56.56 11.72 56.56 8.86C56.56 8.24 56.28 8.24 55.78 8.24H53.18C52.72 8.24 52.66 8.34 52.6 8.66C52.54 9.1 52.04 9.3 51.68 9.3C51.56 9.3 51.3 9.3 51.2 8.92C51.18 8.8 51.18 4.86 51.18 4.56C51.18 4.26 51.08 2.78 51.08 2.44C51.08 2.34 51.12 2.1 51.3 2.1C51.56 2.1 51.94 2.28 52.24 2.42C52.48 2.54 52.54 2.54 52.76 2.54ZM53.06 5.02H56C56.36 5.02 56.56 5.02 56.56 4.58V3.36C56.5 3.06 56.32 3.06 56 3.06H53.06C52.72 3.06 52.5 3.06 52.5 3.52C52.5 3.82 52.5 4.64 52.52 4.72C52.56 5.02 52.78 5.02 53.06 5.02ZM53.1 7.72H56C56.38 7.72 56.56 7.72 56.56 7.3V5.98C56.56 5.56 56.4 5.56 56 5.56H53.1C52.7 5.56 52.52 5.56 52.52 5.96V7.28C52.52 7.72 52.68 7.72 53.1 7.72ZM48.24 10.64H51.36C51.62 10.64 51.7 10.6 51.82 10.46C51.98 10.28 52.2 10.06 52.38 10.06C52.58 10.06 53.56 10.72 53.56 11.08C53.56 11.2 53.48 11.28 53.44 11.34C53.24 11.6 53.18 11.66 53.16 11.94C53.1 12.46 53.16 15.62 53.16 16.1C53.16 16.64 53.16 16.9 52.98 17.12C52.72 17.42 52.34 17.56 52.14 17.56C51.7 17.56 51.7 17.14 51.7 16.84C51.7 16.36 51.44 16.36 51.04 16.36H48.56C48.1 16.36 48 16.44 47.96 16.82C47.88 17.42 47.54 17.76 47.04 17.76C46.78 17.76 46.58 17.66 46.58 17.04C46.58 16.9 46.6 16.36 46.62 16.18C46.68 15.14 46.7 14.54 46.7 13.7C46.7 13.6 46.7 11.68 46.64 10.96C46.64 10.88 46.58 10.44 46.58 10.34C46.58 10.18 46.66 10.16 46.76 10.16C46.98 10.16 48 10.64 48.24 10.64ZM51.28 11.18H48.46C47.98 11.18 47.94 11.22 47.94 11.82V12.82C48 13.1 48.16 13.1 48.46 13.1H51.28C51.58 13.1 51.74 13.1 51.8 12.82V11.68C51.8 11.18 51.66 11.18 51.28 11.18ZM51.24 13.64H48.5C48.12 13.64 47.94 13.64 47.94 14.06V15.44C47.94 15.82 48.14 15.82 48.5 15.82H51.24C51.68 15.82 51.8 15.82 51.8 15.3C51.8 15.12 51.8 14.02 51.78 13.92C51.72 13.64 51.64 13.64 51.24 13.64ZM62.66 6.16C62.74 6.06 63.32 6.24 63.44 6.24C64.28 6.24 64.58 6.16 67.32 5.38C69.1 4.88 73.68 3.58 75 3.58C75.72 3.58 76.62 3.86 76.62 4.54C76.62 5.06 76.1 5.28 75.8 5.28C75.54 5.28 74.4 5.06 74.18 5.06C71.64 5.06 68.8 7.4 68.8 12.56C68.8 15.92 70.06 16.14 71.24 16.14C71.54 16.14 72.96 16.02 73.14 16.02C73.76 16.02 74.12 16.28 74.12 16.76C74.12 17.82 71.92 17.82 71.8 17.82C67.72 17.82 67.72 14.48 67.72 13.54C67.72 12.66 67.74 8.42 70.62 5.84C70.7 5.78 71.12 5.46 71.12 5.42C71.12 5.38 71.04 5.38 71 5.38C69.84 5.38 65.7 7.14 65.04 7.52C64.78 7.66 64.58 7.78 64.36 7.78C63.36 7.78 62.4 6.44 62.66 6.16ZM76.44 7.5C77.62 7.88 78.64 8.74 78.64 9.7C78.64 10.22 78.32 10.44 78.06 10.44C77.58 10.44 77.36 9.86 77.16 9.38C76.98 8.94 76.38 8.22 75.84 7.78C75.74 7.7 75.66 7.62 75.66 7.52C75.66 7.4 75.88 7.4 75.94 7.4C76.1 7.4 76.32 7.46 76.44 7.5ZM73.86 8.32C75.56 8.78 76.22 10.02 76.22 10.66C76.22 11.12 75.84 11.48 75.52 11.48C75.16 11.48 74.98 11.1 74.66 10.32C74.44 9.76 74.3 9.58 73.66 8.76C73.6 8.68 73.46 8.48 73.46 8.4C73.46 8.3 73.68 8.28 73.86 8.32ZM90.44 4.4C90.04 4.4 90.02 4.56 90.02 4.68C90.02 4.74 90.06 4.82 90.06 4.9C90.14 5.54 90.26 6.18 90.26 7.06C90.26 8.4 89.96 10.26 88.2 12.92C86.6 15.36 85.58 15.84 84.78 15.84C83.46 15.84 82.28 13.78 82.28 11.34C82.28 10.28 82.5 8.26 84.5 6.24C87.04 3.64 89.72 3.64 90.88 3.64C92.7 3.64 93.54 4 94.1 4.28C96.26 5.34 97.58 7.48 97.58 10.1C97.58 12.7 96.08 15.9 92.54 17.14C90.84 17.74 89.52 17.88 89.22 17.88C89.14 17.88 89.02 17.86 89.02 17.74C89.02 17.68 89.06 17.66 89.56 17.46C91.64 16.64 95.98 14.92 95.98 9.94C95.98 9.16 95.9 4.4 90.44 4.4ZM89.32 4.46C87.42 4.46 83.52 7.04 83.52 10.82C83.52 12.12 84.04 13.9 85.26 13.9C85.84 13.9 86.32 13.66 87.7 11.58C88.76 9.96 89.66 7.74 89.66 5.76C89.66 4.56 89.58 4.46 89.32 4.46ZM115.8 11.22H113.72C113.18 11.22 113.16 11.34 113.1 12.46C113.06 13.26 112.84 14.44 112.64 15.3C112.74 15.64 115.68 17 118.68 17C119.28 17 119.44 17 119.44 17.1C119.44 17.16 119.2 17.32 119.14 17.38C118.58 17.96 118.34 18.22 118.16 18.58C117.98 18.96 117.96 19 117.86 19C117.64 19 115.88 18.68 113.32 17.18C113.12 17.06 112.36 16.48 112.16 16.48C112.02 16.48 111.62 17.02 111.36 17.26C110.6 17.98 109.38 18.86 106.74 19.28C106.64 19.3 106.32 19.34 106.22 19.34C106.14 19.34 106.06 19.28 106.06 19.24C106.06 19.12 106.08 19.1 106.7 18.92C110.24 17.9 111.04 15.82 111.04 15.62C111.04 15.5 110.86 15.32 110.52 14.96C109.34 13.78 108.96 12.38 108.96 12.16C108.96 12 109.06 11.96 109.12 11.96C109.24 11.96 109.3 12.08 109.42 12.34C109.98 13.62 111.22 14.64 111.36 14.64C111.58 14.64 111.76 12.72 111.76 11.94C111.76 11.64 111.72 11.22 111.12 11.22H109.16C108.8 11.22 108.76 11.32 108.6 11.74C108.5 12.02 108.22 12.2 107.64 12.2C107.5 12.2 107.12 12.2 107.12 11.62C107.12 11.26 107.18 9.7 107.18 9.38C107.18 8.98 107.12 7.2 107.12 6.84C107.12 6.6 107.16 6.54 107.32 6.54C107.48 6.54 108.12 6.9 108.26 6.96C108.58 7.12 108.76 7.16 109.28 7.16H111.14C111.72 7.16 111.72 6.76 111.72 6.68C111.72 4.92 111.72 4.7 111.1 4.7H110.22C109.76 4.7 108.4 4.7 107.7 4.76C107.62 4.76 107.34 4.8 107.28 4.8C107.2 4.8 107.16 4.76 107.1 4.68L106.7 4.22C106.64 4.14 106.62 4.12 106.62 4.1C106.62 4.06 106.64 4.04 106.7 4.04C106.84 4.04 107.46 4.1 107.58 4.12C108.5 4.16 109.38 4.18 110.32 4.18H111.06C111.48 4.18 111.62 4 111.62 3.66C111.62 3.3 111.58 2.86 111.56 2.62C111.54 2.46 111.42 1.72 111.42 1.56C111.42 1.32 111.54 1.28 111.72 1.28C111.94 1.28 113.52 1.5 113.52 1.94C113.52 2.04 113.24 2.34 113.22 2.42C113.14 2.68 113.12 2.96 113.12 3.7C113.12 4.18 113.52 4.18 113.72 4.18H115.26C116.16 4.18 116.26 4.18 116.54 3.84C117.1 3.18 117.16 3.1 117.36 3.1C117.62 3.1 118.9 4.2 118.9 4.42C118.9 4.7 118.48 4.7 117.82 4.7H113.72C113.6 4.7 113.12 4.7 113.12 5.22C113.12 7.1 113.12 7.16 113.7 7.16H115.72C116.22 7.16 116.32 7.1 116.54 6.82C116.74 6.56 116.88 6.5 117 6.5C117.3 6.5 118.4 7.22 118.4 7.44C118.4 7.56 118.38 7.58 118.1 7.8C117.74 8.08 117.74 8.22 117.74 9.48C117.74 9.82 117.78 11.42 117.74 11.66C117.72 11.94 117.34 12.38 116.86 12.38C116.38 12.38 116.34 12.04 116.3 11.62C116.28 11.46 116.26 11.22 115.8 11.22ZM111.14 7.68H109.24C108.6 7.68 108.6 7.84 108.6 9.18C108.6 10.56 108.6 10.7 109.24 10.7H111.14C111.78 10.7 111.78 10.56 111.78 9.2C111.78 7.84 111.78 7.68 111.14 7.68ZM113.72 10.7H115.78C116.2 10.7 116.34 10.5 116.34 10.12C116.34 9.88 116.34 8.16 116.32 8.08C116.3 7.9 116.22 7.68 115.78 7.68H113.72C113.44 7.68 113.14 7.74 113.14 8.24C113.14 8.52 113.14 10.24 113.16 10.32C113.2 10.54 113.32 10.7 113.72 10.7ZM104.64 6.3C104.66 6.4 104.78 6.5 104.86 6.54C105.22 6.76 105.26 6.78 105.26 6.9C105.26 7 104.9 7.36 104.86 7.46C104.72 7.74 104.72 10 104.72 10.52C104.72 11.26 104.74 15.64 104.8 17C104.8 17.18 104.88 18.02 104.88 18.2C104.88 19.14 104.22 19.5 103.86 19.5C103.36 19.5 103.36 19 103.36 18.74C103.36 17.56 103.44 11.74 103.44 10.44C103.44 10.04 103.44 9.82 103.4 8.86C103.4 8.76 103.38 8.3 103.16 8.3C103.04 8.3 102.92 8.44 102.62 8.76C102.52 8.86 100.96 10.44 100.68 10.44C100.6 10.44 100.56 10.4 100.56 10.32C100.56 10.26 100.6 10.2 100.7 10.08C101.38 9.16 102.18 7.88 102.8 6.88C104.36 4.32 104.98 2.14 105 1.9C105.06 1.3 105.06 1.22 105.22 1.22C105.5 1.22 107.24 2.2 107.24 2.52C107.24 2.68 107.14 2.72 106.82 2.9C106.58 3.02 104.58 5.96 104.64 6.3ZM128.66 12.6H125.08C124.5 12.6 124.5 12.76 124.42 13.48C124.08 16.98 121.86 19.12 121.56 19.12C121.48 19.12 121.44 19.06 121.44 19.02C121.44 19 121.92 18.22 122 18.06C122.82 16.36 123.16 14.6 123.16 9.62C123.16 8.04 123.12 4.76 122.98 3.28C122.96 3.06 122.82 1.92 122.82 1.88C122.82 1.76 122.84 1.72 122.96 1.72C123.18 1.72 123.74 1.96 123.96 2.06C124.66 2.42 124.9 2.52 125.54 2.52H135.32C135.76 2.52 135.88 2.42 136.02 2.28C136.36 1.92 136.38 1.88 136.52 1.88C136.68 1.88 138.14 2.7 138.14 3.02C138.14 3.2 137.98 3.32 137.82 3.4C137.36 3.64 137.3 3.66 137.3 5.56C137.3 7.2 137.42 14.58 137.42 16.28C137.42 17.16 137.42 19.38 135.56 19.38C135.38 19.38 135.36 19.34 135.22 18.94C134.94 18.22 133.72 17.8 133.54 17.76C133.48 17.74 133.18 17.68 133.18 17.56C133.18 17.48 133.32 17.44 133.42 17.44C133.68 17.44 134.94 17.54 135.22 17.54C136 17.54 136.02 17.32 136.02 14.78C136.02 14.52 136.02 13.12 135.98 12.96C135.9 12.6 135.6 12.6 135.38 12.6H131.32C130.78 12.6 130.68 12.8 130.7 13.38C130.72 14.82 130.72 16.46 130.72 18C130.72 18.38 130.66 18.52 130.52 18.66C130.34 18.82 129.98 19.02 129.58 19.02C129.18 19.02 129.16 18.76 129.16 18.5C129.16 17.76 129.28 14.08 129.28 13.24C129.28 12.8 129.14 12.6 128.66 12.6ZM125.1 7.08H128.72C129.32 7.08 129.32 7.08 129.32 5.06C129.32 3.12 129.32 3.06 128.72 3.06H125.08C124.48 3.06 124.48 3.14 124.48 4.8C124.48 7.08 124.5 7.08 125.1 7.08ZM125.08 12.06H128.72C128.9 12.06 129.14 12.04 129.24 11.82C129.32 11.66 129.32 9.74 129.32 9.48C129.32 7.7 129.32 7.62 128.72 7.62H125.08C124.86 7.62 124.6 7.66 124.52 7.98C124.5 8.08 124.5 10.9 124.5 11.36C124.5 11.68 124.5 12.06 125.08 12.06ZM135.34 7.62H131.3C130.68 7.62 130.68 7.68 130.68 9.52C130.68 9.84 130.68 11.64 130.76 11.8C130.86 12.06 131.16 12.06 131.3 12.06H135.38C135.98 12.06 135.98 11.92 135.98 10.6C135.98 7.66 135.96 7.62 135.34 7.62ZM135.24 3.06H131.3C131.04 3.06 130.78 3.1 130.7 3.42C130.68 3.54 130.68 5.84 130.68 6.32C130.68 6.74 130.68 7.08 131.3 7.08H135.28C135.9 7.08 135.9 6.86 135.9 5.72C135.9 3.06 135.88 3.06 135.24 3.06ZM147.78 12.04H146.86C146.5 12.04 146.4 12.22 146.34 12.34C146.18 12.78 146.08 13.04 145.6 13.04C144.92 13.04 144.92 12.46 144.92 12.14C144.92 11.88 144.98 10.62 144.98 10.34C144.98 10.06 144.9 8.74 144.9 8.44C144.9 8.3 144.92 8.16 145.16 8.16C145.28 8.16 146.08 8.5 146.1 8.5C146.54 8.68 146.66 8.68 146.9 8.68H147.88C148 8.68 148.16 8.68 148.32 8.56C148.38 8.5 148.7 8.1 148.8 8.1C149 8.1 150.08 8.76 150.08 9.08C150.08 9.18 150.06 9.22 149.74 9.56C149.64 9.66 149.62 9.84 149.62 10.1C149.62 10.34 149.74 11.54 149.74 11.8C149.74 12.54 149 12.56 148.9 12.56C148.6 12.56 148.56 12.5 148.34 12.22C148.22 12.06 147.92 12.04 147.78 12.04ZM147.68 9.2H146.86C146.22 9.2 146.22 9.5 146.22 9.96C146.22 11.36 146.22 11.52 146.86 11.52H147.68C148.32 11.52 148.32 11.38 148.32 10.08C148.32 9.46 148.32 9.2 147.68 9.2ZM149.02 6.98H148.14C146.4 6.98 145.82 7.02 145.62 7.04C145.56 7.04 145.26 7.08 145.2 7.08C145.12 7.08 145.08 7.04 145.02 6.96L144.64 6.5C144.56 6.4 144.54 6.4 144.54 6.36C144.54 6.32 144.58 6.32 144.62 6.32C144.74 6.32 145.24 6.36 145.34 6.38C146.14 6.44 146.56 6.46 147.1 6.46C147.9 6.46 147.98 6.46 148.16 6.3C148.28 6.18 148.76 5.54 148.92 5.54C149.2 5.54 150.1 6.4 150.1 6.7C150.1 6.98 149.72 6.98 149.02 6.98ZM144.5 15.16C144.5 16.52 144.5 18.56 142.58 18.56C142.4 18.56 141.84 18.56 141.84 18C141.84 17.64 141.92 17.56 142.68 16.82C143.3 16.22 143.76 15.34 144.08 14.5C144.1 14.44 144.22 14.14 144.26 14.14C144.46 14.14 144.5 15.08 144.5 15.16ZM150.98 13.66C151.68 13.8 152.92 14.06 152.92 15.22C152.92 15.72 152.62 16.04 152.3 16.04C152.04 16.04 151.98 15.98 151.48 15.46C151.18 15.16 149.5 13.64 149.5 13.58C149.5 13.54 149.58 13.52 149.62 13.52C150 13.52 150.58 13.58 150.98 13.66ZM157.2 14.72C158.26 15.26 158.82 16 158.82 16.7C158.82 17.3 158.4 17.54 158.04 17.54C157.58 17.54 157.44 17.28 156.88 16.1C156.78 15.88 155.86 14.34 155.86 14.32C155.86 14.26 155.94 14.26 155.96 14.26C156.22 14.26 157.02 14.62 157.2 14.72ZM154.02 1.46C155.44 1.94 155.72 2.62 155.72 3C155.72 3.38 155.36 3.66 155.04 3.66C154.58 3.66 154.32 3.34 153.72 2.32C153.32 1.64 153.16 1.56 153.04 1.48C153 1.46 152.92 1.42 152.92 1.34C152.92 1.28 153 1.26 153.06 1.26C153.36 1.26 153.74 1.36 154.02 1.46ZM157.7 4.52H152.62C152.4 4.52 152.08 4.52 152.08 4.86C152.08 5.24 152.38 6.26 152.5 6.68C152.64 7.16 153.06 8.6 153.44 8.6C153.76 8.6 154.66 6.86 154.74 6C154.78 5.48 154.78 5.36 154.88 5.36C155.14 5.36 156.7 6.28 156.7 6.6C156.7 6.68 156.68 6.72 156.64 6.78C156.6 6.84 156.28 6.98 156.22 7.02C156.12 7.12 155.22 8.38 154.74 9.08C154.36 9.6 154.32 9.66 154.32 9.82C154.32 10.36 155.96 11.4 156.56 11.4C156.98 11.4 157.58 10.56 157.94 10.02C158.62 8.94 158.86 8.56 158.96 8.56C159.02 8.56 159.02 8.64 159.02 8.68C159.02 8.84 158.22 11.26 158.22 11.78C158.22 11.94 158.4 12.74 158.4 12.92C158.4 13.16 158.24 13.52 157.74 13.52C157.08 13.52 155.02 12.6 153.74 11.34C153.52 11.12 153.42 11.06 153.26 11.06C153.1 11.06 152.98 11.16 152.9 11.22C151.7 12.16 151.56 12.26 151.14 12.52C150.9 12.66 150.4 12.84 150.4 12.78C150.4 12.68 152.52 10.64 152.52 10.1C152.52 9.96 152.46 9.84 152.4 9.7C151.56 8.18 151.18 7.1 150.82 5.36C150.68 4.68 150.64 4.52 150.16 4.52H144.54C144.36 4.52 144.06 4.52 143.96 4.76C143.92 4.86 143.92 5.82 143.92 5.98C143.92 11.2 142.84 12.84 142.06 13.94C141.86 14.22 141.16 15.1 140.98 15.1C140.96 15.1 140.92 15.08 140.92 15.04C140.92 14.96 141.16 14.64 141.2 14.56C141.74 13.38 142.56 11.62 142.56 6.56C142.56 5.54 142.54 4.72 142.32 3.84C142.28 3.76 142.1 3.34 142.1 3.24C142.1 3.14 142.2 3.14 142.24 3.14C142.58 3.14 143.42 3.56 143.72 3.72C144.2 3.96 144.42 3.98 144.66 3.98H149.96C150.18 3.98 150.44 3.96 150.44 3.58C150.44 3.44 150.16 2.08 150.12 1.96C150.1 1.88 149.92 1.56 149.92 1.48C149.92 1.3 150.14 1.28 150.4 1.28C150.84 1.28 150.84 1.28 151.6 1.38C151.76 1.4 152.14 1.46 152.14 1.82C152.14 1.96 152.12 1.98 151.86 2.2C151.78 2.28 151.74 2.44 151.74 2.68C151.74 3.98 152.06 3.98 152.48 3.98H155.2C155.42 3.98 156.06 3.98 156.22 3.9C156.42 3.8 157.04 2.76 157.28 2.76C157.54 2.76 158.76 3.94 158.76 4.26C158.76 4.52 158.66 4.52 157.7 4.52ZM147.2 13.54C147.34 13.6 147.96 13.82 148.08 13.88C148.2 13.92 148.32 14.02 148.32 14.16C148.32 14.32 148.22 14.4 148 14.54C147.82 14.68 147.76 14.74 147.76 15.5C147.76 17.02 147.76 17.08 147.86 17.22C148.14 17.58 150.16 17.58 150.82 17.58C153.62 17.58 153.82 17.14 154.44 15.46C154.46 15.42 154.56 15.12 154.62 15.12C154.78 15.12 154.86 16.74 155.04 17C155.38 17.44 155.4 17.5 155.4 17.7C155.4 18.18 154.92 18.38 154.68 18.48C154.1 18.7 152.4 18.9 150.6 18.9C149.68 18.9 147.9 18.82 147.1 18.5C146.4 18.22 146.36 17.74 146.36 16.42C146.36 16.14 146.42 14.98 146.42 14.74C146.42 14.44 146.34 13.94 146.26 13.66C146.26 13.64 146.2 13.5 146.2 13.48C146.2 13.38 146.3 13.34 146.4 13.34C146.64 13.34 147.16 13.52 147.2 13.54ZM168.6 9.34H170.86C171.32 9.34 171.46 9.12 171.46 8.84C171.46 8.6 171.44 7.64 171.44 7.54C171.42 7.1 171.04 7.12 170.88 7.12H168.9C167.14 7.12 166.56 7.16 166.36 7.16C166.3 7.18 166 7.22 165.94 7.22C165.88 7.22 165.84 7.16 165.76 7.08L165.38 6.62C165.34 6.56 165.3 6.52 165.3 6.5C165.3 6.46 165.32 6.44 165.36 6.44C165.58 6.44 166.6 6.54 166.82 6.54C166.96 6.54 168.14 6.58 168.44 6.58C168.8 6.58 169.02 6.38 169.02 6.04C169.02 4.52 169.02 4.38 168.46 4.38C168.24 4.38 167 4.46 166.84 4.46C166.76 4.46 166.72 4.42 166.66 4.34L166.26 3.88C166.2 3.82 166.18 3.78 166.18 3.74C166.18 3.7 166.2 3.7 166.26 3.7C166.6 3.7 168.12 3.82 168.44 3.82C168.76 3.82 169 3.66 169 3.32C169 2.86 168.98 2.44 168.9 1.98C168.88 1.88 168.72 1.48 168.72 1.4C168.72 1.26 168.9 1.26 168.94 1.26C169.22 1.26 170.8 1.42 170.8 1.86C170.8 2 170.76 2.02 170.52 2.24C170.34 2.38 170.32 2.54 170.32 3.12C170.32 3.44 170.32 3.84 170.92 3.84H173.1C173.64 3.84 173.68 3.44 173.68 3.28C173.68 2.36 173.68 2.14 173.62 1.74C173.62 1.68 173.56 1.48 173.56 1.38C173.56 1.2 173.76 1.18 173.9 1.18C174.14 1.18 175.2 1.52 175.34 1.58C175.48 1.66 175.54 1.8 175.54 1.9C175.54 2 175.18 2.28 175.14 2.38C175.08 2.56 175.06 3.1 175.06 3.32C175.06 3.84 175.5 3.84 175.74 3.84C176.52 3.84 176.58 3.78 176.68 3.68C176.82 3.56 177.3 2.92 177.44 2.92C177.74 2.92 178.62 3.78 178.62 4.08C178.62 4.36 178.24 4.36 177.56 4.36H175.62C175.2 4.36 175.04 4.58 175.04 4.94C175.04 6.44 175.04 6.6 175.6 6.6C176.4 6.6 176.5 6.6 176.78 6.26C177.34 5.58 177.4 5.52 177.58 5.52C177.72 5.52 179.46 6.58 179.46 6.84C179.46 7.12 179.06 7.12 178.38 7.12H173.28C173.1 7.12 172.66 7.12 172.66 7.66C172.66 9.24 172.66 9.34 173.28 9.34H175.8C176.38 9.34 176.58 9.02 176.62 8.96C176.92 8.46 176.98 8.36 177.24 8.36C177.64 8.36 178.6 9.1 178.6 9.42C178.6 9.54 178.16 9.96 178.1 10.04C177.98 10.26 177.98 10.58 177.98 10.78V14.34C177.98 14.74 178.1 16.66 178.1 17.08C178.1 18.02 177.96 18.66 177.46 19.12C177.1 19.44 176.7 19.58 176.48 19.58C176.24 19.58 176.18 19.5 175.6 18.82C175.46 18.64 174.88 18.24 174.72 18.16C174.58 18.08 174.54 18.06 174.54 18C174.54 17.94 174.64 17.94 174.68 17.94C176.54 17.94 176.76 17.94 176.76 17.32C176.76 16.22 176.78 11.42 176.78 10.44C176.78 9.88 176.38 9.88 176.18 9.88H173.24C172.78 9.88 172.66 10.14 172.66 10.4C172.66 10.82 172.66 14.94 172.7 15.08C172.78 15.4 173.12 15.4 173.24 15.4H173.58C174.14 15.4 174.14 15.08 174.14 14.38C174.14 13.86 174.16 11.92 174.1 11.58C174.1 11.52 174.02 11.26 174.02 11.16C174.02 11.06 174.08 11.06 174.18 11.06C174.3 11.06 175.86 11.38 175.86 11.68C175.86 11.78 175.52 12.12 175.5 12.22C175.42 12.46 175.4 13.3 175.4 13.6C175.4 13.96 175.54 15.52 175.54 15.82C175.54 17.1 174.62 17.18 174.56 17.18C174.14 17.18 174.12 16.68 174.12 16.46C174.1 16.26 174.04 15.94 173.58 15.94H170.72C170.22 15.94 170.16 16.18 170.12 16.4C170.02 16.82 169.84 17.28 169.38 17.28C168.9 17.28 168.76 16.82 168.76 16.2C168.76 16 168.8 15.12 168.8 14.92C168.8 14.34 168.8 12.02 168.72 11.54C168.72 11.48 168.66 11.26 168.66 11.16C168.66 11.06 168.78 11.04 168.92 11.04C169.06 11.04 170.56 11.24 170.56 11.68C170.56 11.8 170.14 12.18 170.1 12.28C170.02 12.5 170.02 12.68 170.02 14.04C170.02 15.38 170.1 15.4 170.9 15.4C171.26 15.4 171.46 15.2 171.46 14.86C171.46 14.24 171.46 10.3 171.44 10.2C171.34 9.88 171 9.88 170.86 9.88H168.32C167.92 9.88 167.82 9.96 167.74 10.06C167.6 10.24 167.62 11.52 167.62 11.86C167.62 12.88 167.66 17.4 167.66 18.32C167.66 18.54 167.64 19.56 166.76 19.56C166.62 19.56 166.24 19.5 166.24 18.96C166.24 18.44 166.26 17.84 166.28 17.32C166.4 14.6 166.4 14.22 166.4 10.74C166.4 9.8 166.4 9.7 166.38 9.48C166.36 9.36 166.22 8.8 166.22 8.68C166.22 8.52 166.3 8.48 166.46 8.48C166.9 8.48 167.28 8.76 167.7 9.06C167.78 9.12 168.08 9.34 168.6 9.34ZM173.12 4.36H170.88C170.32 4.36 170.32 4.74 170.32 5.2C170.32 6.36 170.32 6.58 170.88 6.58H173.12C173.68 6.58 173.68 6.2 173.68 5.84C173.68 4.52 173.68 4.36 173.12 4.36ZM163.58 1.72C164.22 2.04 165.1 2.68 165.1 3.4C165.1 3.9 164.68 4.34 164.28 4.34C163.88 4.34 163.82 4.22 163.32 3.12C162.98 2.36 162.82 2.06 162.4 1.56C162.38 1.54 162.32 1.46 162.32 1.44C162.32 1.36 162.4 1.36 162.44 1.36C162.54 1.36 163.28 1.58 163.58 1.72ZM162.36 5.96C162.7 6.16 163.52 6.76 163.52 7.64C163.52 8.36 162.92 8.52 162.7 8.52C162.36 8.52 162.3 8.42 161.82 7.34C161.48 6.6 160.96 5.94 160.68 5.7C160.46 5.52 160.44 5.5 160.44 5.44C160.44 5.38 160.52 5.38 160.54 5.38C160.68 5.38 161.66 5.56 162.36 5.96ZM164.58 7.74C164.62 7.64 164.88 6.92 164.96 6.92C165 6.92 165.02 6.98 165.02 7.02C165.02 7.58 163.86 12.8 163.86 13.92C163.86 14.44 163.96 15.18 164.12 15.86C164.54 17.54 164.6 17.72 164.6 18.08C164.6 19.04 163.9 19.32 163.56 19.32C162.8 19.32 162.8 18.46 162.8 18.14C162.8 17.88 162.82 16.76 162.82 16.52C162.82 15 162.28 14.08 161.3 13.84C160.76 13.7 160.7 13.68 160.7 13.62C160.7 13.46 161.94 13.26 162.16 13.18C162.6 13 162.84 12.52 163.08 11.94C163.3 11.42 164.08 9.16 164.58 7.74ZM189.2 7.96H186.1C185.84 7.96 185.58 7.98 185.48 8.26C185.36 8.66 185.02 8.8 184.64 8.8C183.96 8.8 183.96 8.44 183.96 8.1C183.96 7.7 184.12 4.92 184.12 4.32C184.12 3.44 184.06 2.66 184.02 2.3C184 2.22 183.96 1.96 183.96 1.9C183.96 1.84 183.98 1.8 184.08 1.8C184.32 1.8 184.66 1.96 185.24 2.26C185.68 2.48 186.1 2.5 186.4 2.5H193.48C193.78 2.5 194.04 2.5 194.34 2.26C194.44 2.18 194.8 1.66 194.92 1.66C195.06 1.66 196.5 2.56 196.5 2.8C196.5 2.94 196.36 3.06 196.14 3.16C195.78 3.34 195.76 3.48 195.76 3.92C195.76 4.5 195.78 7.06 195.78 7.6C195.78 7.84 195.78 8.72 194.8 8.72C194.36 8.72 194.32 8.6 194.24 8.28C194.14 7.96 193.84 7.96 193.64 7.96H191.78C191.16 7.96 191.14 8.28 191.14 8.74C191.14 9.74 191.14 11.54 191.2 11.7C191.3 11.96 191.62 11.96 191.78 11.96H193.7C194.34 11.96 194.48 11.92 194.56 11.82C194.7 11.68 195.18 10.88 195.36 10.88C195.46 10.88 196.82 11.96 196.82 12.2C196.82 12.48 196.5 12.48 195.98 12.48H191.78C191.14 12.48 191.14 12.64 191.14 14.08C191.14 14.52 191.14 16.68 191.16 16.94C191.22 17.58 191.64 17.64 192.56 17.64C194.16 17.64 196.7 17.52 198.18 17.1C198.38 17.04 199.34 16.74 199.42 16.74C199.44 16.74 199.46 16.74 199.46 16.78C199.46 16.86 198.98 17.32 198.9 17.44C198.44 18.02 198.32 18.44 198.32 18.86C198.32 18.92 198.32 19.04 198.26 19.08C198.1 19.16 196.76 19.16 196.5 19.16C190.16 19.16 187.84 18.54 185.86 15.2C185.74 14.98 185.62 14.82 185.46 14.82C185.32 14.82 185.26 14.92 184.7 15.66C182.84 18.2 180.78 19.26 180.56 19.26C180.52 19.26 180.5 19.22 180.5 19.2C180.5 19.18 181.4 18.28 181.58 18.08C184.88 14.4 185.68 10.94 185.68 10.5C185.68 10.1 185.68 10.06 185.84 10.06C186.04 10.06 187.56 10.68 187.7 10.74C187.8 10.8 187.98 10.94 187.98 11.1C187.98 11.34 187.84 11.38 187.36 11.56C187.18 11.62 187.14 11.66 187.04 11.84C186.62 12.66 186.42 12.98 186.08 13.56C185.98 13.7 185.9 13.88 185.9 14.1C185.9 15.28 188.36 17.2 189.36 17.2C189.8 17.2 189.8 17.06 189.8 15.78V8.5C189.8 7.96 189.5 7.96 189.2 7.96ZM193.7 3.02H186.1C185.44 3.02 185.44 3.06 185.44 4.9C185.44 5.22 185.44 7 185.5 7.16C185.62 7.44 185.96 7.44 186.1 7.44H193.68C194.36 7.44 194.36 7.4 194.36 4.74C194.36 3.2 194.36 3.02 193.7 3.02ZM204.88 7.16H207.1C207.32 7.16 207.68 7.16 207.68 6.54C207.68 6.36 207.52 5.52 207.52 5.38C207.52 5.28 207.62 5.18 207.82 5.18C207.88 5.18 208.64 5.32 208.8 5.34C209.2 5.42 209.42 5.44 209.42 5.66C209.42 5.76 209.36 5.84 209.2 6.04C209.08 6.18 209.04 6.24 209.04 6.38C209.04 6.94 209.14 7.16 209.68 7.16H211.56C212.14 7.16 212.16 6.8 212.16 6.5C212.16 6.32 211.96 5.44 211.96 5.38C211.96 5.28 212.06 5.16 212.28 5.16C212.38 5.16 213.9 5.32 213.9 5.66C213.9 5.78 213.9 5.78 213.68 6.1C213.6 6.2 213.6 6.32 213.6 6.62C213.6 7.04 213.84 7.16 214.18 7.16H215.06C215.76 7.16 216.02 7.16 216.36 6.76C216.84 6.16 216.88 6.1 217.14 6.1C217.46 6.1 218.82 7.02 218.82 7.4C218.82 7.7 218.72 7.7 217.78 7.7H214.2C213.62 7.7 213.62 8.06 213.62 8.32C213.62 8.62 213.64 9.92 213.62 10.2C213.56 11 212.66 11.1 212.52 11.1C212.12 11.1 212.08 10.88 212.08 10.68C212.08 10.24 211.92 10.18 211.48 10.18H209.78C209.48 10.18 209.24 10.2 209.2 10.46C209.14 10.88 209.12 11.14 208.4 11.14C207.74 11.14 207.74 10.7 207.74 10.54V8.08C207.66 7.7 207.32 7.7 207.16 7.7H204.86C204.3 7.7 204.28 8.06 204.28 8.32C204.28 11.44 204.26 13.84 203.02 16.42C202.3 17.9 201.16 19.3 201 19.3C200.94 19.3 200.88 19.24 200.88 19.16C200.96 18.98 201.34 18.14 201.48 17.82C202.56 15.18 202.92 12.78 202.92 9.18C202.92 8.36 202.9 5.42 202.66 4.2C202.6 4 202.46 3.7 202.46 3.5C202.46 3.4 202.56 3.3 202.68 3.3C202.72 3.3 203.88 3.74 204.12 3.8C204.32 3.86 204.66 3.92 205.02 3.92H208.72C209.1 3.92 209.32 3.78 209.32 3.4C209.32 3.08 209.24 2.66 209.18 2.38C209.16 2.24 209 1.62 209 1.56C209 1.44 209.12 1.36 209.24 1.36C209.28 1.36 210.26 1.54 210.42 1.56C211.2 1.7 211.28 1.7 211.28 1.94C211.28 2.06 211.24 2.1 211.06 2.32C210.92 2.48 210.84 2.58 210.84 3.36C210.84 3.92 211.22 3.92 211.44 3.92H214.74C215.5 3.92 215.66 3.92 216 3.44C216.18 3.2 216.5 2.74 216.78 2.74C217.02 2.74 218.5 3.76 218.5 4.16C218.5 4.46 218.38 4.46 217.44 4.46H204.88C204.64 4.46 204.28 4.46 204.28 5C204.28 7.14 204.28 7.16 204.88 7.16ZM211.58 7.7H209.7C209.28 7.7 209.14 7.88 209.14 8.34C209.14 9.4 209.14 9.66 209.72 9.66H211.56C212.16 9.66 212.16 9.42 212.16 8.56C212.16 8.02 212.16 7.7 211.58 7.7ZM206.02 12.54L205.62 12.08C205.54 12 205.54 11.98 205.54 11.94C205.54 11.9 205.56 11.9 205.62 11.9C205.76 11.9 206.36 11.96 206.5 11.96C207.48 12 208.3 12.04 209.24 12.04H213.02C213.44 12.04 213.62 12.04 213.88 11.84C214.02 11.74 214.6 11.2 214.76 11.2C215.14 11.2 216.2 12.16 216.2 12.44C216.2 12.76 215.82 12.9 215.5 13C215.14 13.12 215.02 13.26 213.86 14.4C212.94 15.3 212.76 15.46 212.54 15.66C212.48 15.72 212.3 15.84 212.3 16C212.3 16.26 213.6 16.66 214.02 16.8C214.68 17 216.34 17.54 218.9 17.54C219.2 17.54 219.38 17.54 219.38 17.64C219.38 17.7 218.56 18.26 218.42 18.38C218.28 18.5 217.74 19.1 217.62 19.22C217.54 19.3 217.42 19.32 217.3 19.32C217.06 19.32 214.66 18.86 212.18 17.42C212.04 17.34 211.22 16.86 211.12 16.86C210.94 16.86 209.62 17.64 209.34 17.78C208.8 18.02 206.7 19.02 203.36 19.02C203.18 19.02 202.98 18.98 202.98 18.86C202.98 18.74 203.36 18.68 203.56 18.66C206.34 18.26 207.94 17.4 208.42 17.14C208.8 16.94 210.02 16.26 210.02 16C210.02 15.92 209.02 14.74 208.84 14.48C208.68 14.24 208.06 13.08 207.92 12.84C207.84 12.7 207.68 12.58 207.38 12.58C207.2 12.58 206.32 12.66 206.2 12.66C206.12 12.66 206.08 12.62 206.02 12.54ZM212.96 12.56H209.14C208.62 12.56 208.44 12.56 208.44 12.82C208.44 13.3 210.2 15.36 210.86 15.36C211.34 15.36 213.28 13.08 213.28 12.76C213.28 12.56 213.12 12.56 212.96 12.56Z" fill="white"/>
  </svg>
