<svg width="288" height="68" viewBox="0 0 288 68" fill="none" xmlns="http://www.w3.org/2000/svg">
<path d="M6.888 11.288H10.44C11.184 11.288 11.184 11 11.184 9.8C11.184 8.144 11.088 7.424 11.04 6.992C11.016 6.872 10.848 6.344 10.848 6.224C10.848 6.104 10.944 6.056 11.112 6.056C11.28 6.056 13.704 6.296 13.704 6.896C13.704 7.04 13.2 7.496 13.128 7.616C12.96 7.976 12.912 9.872 12.912 10.376C12.912 11 12.936 11.288 13.68 11.288H16.776C17.88 11.288 18 11.288 18.312 10.88C19.032 9.896 19.104 9.8 19.32 9.8C19.584 9.8 21.504 11.408 21.504 11.624C21.504 11.936 20.952 11.936 20.232 11.936H13.656C13.392 11.936 13.056 11.936 12.936 12.344C12.888 12.536 12.888 16.28 12.888 16.976C12.888 17.72 12.936 18.008 13.68 18.008H16.056C17.184 18.008 17.304 18.008 17.592 17.6C18.336 16.616 18.408 16.52 18.624 16.52C18.888 16.52 20.808 18.128 20.808 18.344C20.808 18.656 20.256 18.656 19.512 18.656H13.704C13.008 18.656 12.936 18.896 12.936 19.472C12.936 20.192 12.96 25.352 12.984 25.472C13.08 25.832 13.368 25.88 13.752 25.88H18.144C19.248 25.88 19.368 25.88 19.68 25.472C20.4 24.488 20.472 24.368 20.688 24.368C20.952 24.368 22.872 25.976 22.872 26.192C22.872 26.504 22.32 26.504 21.6 26.504H5.664C3.552 26.504 2.856 26.552 2.64 26.576C2.544 26.576 2.208 26.624 2.112 26.624C2.04 26.624 1.992 26.576 1.92 26.48L1.44 25.928C1.344 25.808 1.344 25.808 1.344 25.76C1.344 25.712 1.368 25.712 1.44 25.712C1.584 25.712 2.328 25.784 2.496 25.784C3.672 25.832 4.656 25.88 5.784 25.88H10.368C10.8 25.88 11.16 25.88 11.16 25.016V19.232C11.16 18.944 11.016 18.656 10.464 18.656H7.656C5.544 18.656 4.848 18.704 4.632 18.704C4.536 18.728 4.2 18.776 4.128 18.776C4.032 18.776 3.984 18.704 3.912 18.608L3.432 18.056C3.36 17.96 3.336 17.936 3.336 17.912C3.336 17.864 3.36 17.84 3.432 17.84C3.6 17.84 4.32 17.912 4.488 17.936C5.664 17.984 6.648 18.008 7.776 18.008H10.44C11.16 18.008 11.16 17.648 11.16 17.264V12.56C11.112 12.104 10.896 11.936 10.464 11.936H6.504C5.76 11.936 5.712 12.008 5.112 13.016C3.792 15.224 2.16 17.192 1.776 17.192C1.68 17.192 1.656 17.12 1.656 17.048C1.656 17 2.04 16.28 2.256 15.896C4.896 11.024 5.352 7.928 5.424 7.448C5.472 6.992 5.52 6.944 5.568 6.944C5.616 6.944 7.92 7.88 7.92 8.288C7.92 8.48 7.152 9.008 7.056 9.152C6.912 9.344 6.288 10.76 6.288 10.976C6.288 11.288 6.576 11.288 6.888 11.288ZM36.384 8.552C36.384 8.072 36.072 7.328 35.952 7.064C35.928 6.992 35.784 6.752 35.784 6.704C35.784 6.536 36.24 6.536 36.384 6.536C37.032 6.536 38.328 7.136 38.328 7.64C38.328 7.88 37.8 8.744 37.728 8.912C37.56 9.296 37.368 10.136 37.368 10.472C37.368 10.52 37.368 10.616 37.464 10.616C37.536 10.616 37.608 10.592 38.136 10.4C38.352 10.328 38.688 10.208 39 10.208C39.24 10.208 39.696 10.28 39.696 10.664C39.696 11.552 38.064 12.032 37.392 12.248C37.2 12.296 37.152 12.32 37.128 12.68C37.104 12.752 37.008 14.024 37.008 15.008C37.008 15.56 37.008 15.704 37.32 15.704C37.584 15.704 39.312 15.224 39.312 14.456C39.312 14.384 39.216 14.096 39.216 14.024C39.216 13.952 39.288 13.952 39.336 13.952C39.456 13.952 39.96 14.072 40.08 14.072C41.064 14.144 41.688 14.192 41.688 14.72C41.688 15.56 39.024 16.664 37.92 17.024C37.176 17.288 37.104 17.312 37.104 17.552C37.104 18.008 37.368 20.768 37.392 21.008C37.488 21.8 37.488 21.896 37.992 22.088C39.864 22.856 41.4 24.128 41.4 25.256C41.4 25.88 40.968 26.264 40.584 26.264C40.248 26.264 40.152 26.144 39.288 25.112C38.808 24.512 37.872 23.816 37.608 23.816C37.464 23.816 37.416 23.936 37.296 24.2C36.792 25.328 35.184 26.624 33.216 26.624C30.96 26.624 30.144 25.016 30.144 24.032C30.144 22.592 31.608 21.488 34.464 21.488C34.68 21.488 35.568 21.56 35.736 21.56C36 21.56 36 21.488 36 20.672C36 20.192 35.976 18.584 35.952 17.936C35.952 17.72 35.952 17.576 35.712 17.576C35.376 17.576 33.936 17.696 33.624 17.696C33.072 17.696 31.392 17.72 30.312 16.712C29.976 16.376 29.616 15.8 29.616 15.608C29.616 15.56 29.616 15.512 29.688 15.512C29.832 15.512 30.48 15.8 30.6 15.848C31.68 16.208 32.76 16.28 33.504 16.28C34.08 16.28 35.688 16.28 35.856 15.824C35.88 15.752 36.072 12.608 36.072 12.584C36.072 12.464 35.952 12.464 35.568 12.44C33.864 12.32 32.352 11.096 32.352 10.16C32.352 10.112 32.376 9.992 32.448 9.992C32.472 9.992 33.048 10.328 33.12 10.376C34.176 11.024 35.088 11.024 35.448 11.024C35.952 11.024 36.192 10.904 36.24 10.664C36.312 10.424 36.384 9.056 36.384 8.552ZM35.808 23.048C35.64 22.64 33.96 22.544 33.528 22.544C33.48 22.544 30.96 22.544 30.96 23.912C30.96 24.824 32.208 25.112 32.88 25.112C33.672 25.112 34.704 24.728 35.256 24.224C35.688 23.84 35.904 23.264 35.808 23.048ZM55.008 7.424C55.8 7.424 57.288 8.6 57.288 9.032C57.288 9.224 57.072 10.28 57.048 10.496C57.024 10.64 56.928 11.6 56.928 12.224C56.928 12.728 57 12.848 57.432 13.064C57.648 13.184 57.792 13.304 57.792 13.544C57.792 13.616 57.768 13.904 57.576 14.168C57.072 14.864 57 14.96 57 15.032C57 15.08 57.024 15.104 57.072 15.104C57.12 15.104 57.192 15.056 57.672 14.6C58.92 13.4 61.824 10.664 64.056 10.664C65.688 10.664 66.408 11.816 66.408 13.52C66.408 14.408 66.288 15.512 66.12 16.592C65.76 19.016 65.736 19.376 65.736 20.192C65.736 21.128 65.88 22.424 67.512 22.424C67.896 22.424 68.928 22.424 70.032 21.224C70.2 21.032 70.416 20.816 70.536 20.816C70.632 20.816 70.68 20.936 70.68 21.008C70.68 21.344 69.36 24.128 66.816 24.128C63.984 24.128 63.984 21.272 63.984 20.624C63.984 20.048 64.008 19.784 64.272 18.368C64.68 16.184 64.92 13.952 64.92 13.352C64.92 12.92 64.92 11.696 63.432 11.696C61.728 11.696 59.688 13.4 58.104 14.888C56.496 16.4 56.256 17.384 56.256 19.808C56.256 20.888 56.328 22.232 56.448 22.904C56.688 24.464 56.736 24.656 56.736 25.136C56.736 25.928 56.544 26.48 55.8 26.48C55.056 26.48 54.96 25.928 54.72 24.656C54.672 24.344 54.024 22.016 53.784 22.016C53.688 22.016 53.664 22.088 53.496 22.664C53.28 23.384 52.896 24.008 52.176 24.008C51.624 24.008 51.312 23.528 51.312 23.12C51.312 22.28 52.128 20.864 52.368 20.432C52.464 20.24 52.68 19.88 52.68 19.64C52.68 19.376 52.248 18.176 52.128 17.84C51.6 16.496 51.576 16.328 51.576 15.92C51.576 14.84 52.296 14.192 52.776 14.048C54.432 13.544 55.344 13.28 55.632 13.064C55.776 12.968 55.8 12.8 55.8 12.368C55.8 11.072 55.68 9.968 55.176 8.864C55.08 8.672 54.456 7.832 54.456 7.664C54.456 7.448 54.84 7.424 55.008 7.424ZM55.392 14.696C55.344 14.576 55.224 14.552 55.128 14.552C54.936 14.552 52.44 15.056 52.44 16.256C52.44 17.096 53.016 18.896 53.232 18.896C53.328 18.896 53.448 18.752 53.496 18.656C53.544 18.536 54.84 16.016 54.96 15.776C55.176 15.344 55.44 14.816 55.392 14.696ZM54.96 22.64C55.128 22.64 55.128 22.472 55.128 20.12C55.128 20 55.176 19.328 55.176 19.28C55.176 19.208 55.176 19.064 55.056 19.064C54.816 19.064 54.12 20.648 54.12 20.912C54.12 21.512 54.912 22.64 54.96 22.64ZM86.424 23.912C87.24 23.912 88.92 22.448 88.92 20.456C88.92 18.488 87.264 16.808 84.864 16.808C81.696 16.808 79.656 20.096 79.224 20.84C78.744 21.656 78.504 22.112 77.856 22.112C77.28 22.112 77.16 21.632 77.16 21.44C77.16 20.84 77.352 20.312 79.056 18.32C80.616 16.496 80.856 16.184 84.48 11.096C85.272 9.968 85.608 9.464 85.608 9.2C85.608 9.032 85.44 8.864 85.152 8.864C84.264 8.864 82.848 10.064 82.44 10.4C81.48 11.192 81.144 11.264 80.736 11.264C79.608 11.264 78.864 9.728 78.864 9.608C78.864 9.536 78.936 9.536 79.44 9.536C80.712 9.536 82.488 8.96 83.16 8.672C84.648 8.024 84.816 7.952 85.344 7.952C86.304 7.952 87.864 8.552 87.864 9.608C87.864 10.304 87.312 10.688 86.16 11.48C84.432 12.704 82.32 15.992 82.32 16.4C82.32 16.472 82.392 16.568 82.464 16.568C82.608 16.52 82.92 16.4 83.064 16.352C83.832 16.064 84.504 15.968 85.176 15.968C88.248 15.968 90.576 18.248 90.576 20.96C90.576 24.008 87.624 26.144 84.576 26.144C82.2 26.144 80.496 24.872 80.496 23.672C80.496 22.808 81.504 21.728 82.872 21.728C84 21.728 84.936 22.4 85.608 23.264C85.944 23.696 86.088 23.912 86.424 23.912ZM84.216 24.152C84.216 23.576 83.64 22.616 82.752 22.616C82.176 22.616 81.744 23.072 81.744 23.456C81.744 24.08 82.776 24.584 83.808 24.584C84.048 24.584 84.216 24.416 84.216 24.152ZM105.816 13.112C106.44 13.112 107.232 13.472 108.816 15.056C111.744 17.96 114.12 19.04 115.536 19.688C116.64 20.168 117.648 20.72 117.648 21.416C117.648 21.56 117.432 22.328 116.76 22.328C116.496 22.328 114.336 22.184 110.808 18.824C110.232 18.272 107.664 15.68 107.136 15.176C106.584 14.648 106.176 14.336 105.792 14.336C105 14.336 104.784 14.552 102.816 16.472C102.648 16.64 100.896 18.296 100.848 18.32C100.752 18.392 100.608 18.44 100.464 18.44C99.552 18.44 98.136 17.312 98.136 16.904C98.136 16.808 98.184 16.808 98.592 16.736C98.688 16.736 100.608 16.376 102.504 14.888C104.52 13.28 104.976 13.112 105.816 13.112ZM115.032 9.392C116.904 9.656 118.08 10.76 118.08 11.816C118.08 12.224 117.816 12.584 117.432 12.584C116.904 12.584 116.592 12.056 116.256 11.504C115.968 11 115.104 10.28 114.384 9.872C114.144 9.728 114.12 9.632 114.12 9.584C114.12 9.392 114.6 9.32 115.032 9.392ZM111.936 11.768C113.76 11.768 115.392 13.064 115.392 14.096C115.392 14.432 115.08 15.008 114.648 15.008C114.288 15.008 114.072 14.792 113.424 13.88C113.04 13.352 112.776 13.088 111.84 12.32C111.744 12.248 111.528 12.056 111.528 11.96C111.528 11.84 111.744 11.768 111.936 11.768ZM132.168 6.896C132.192 6.848 132.264 6.848 132.336 6.848C132.912 6.848 135.288 8.072 135.288 8.96C135.288 9.608 128.856 15.824 128.856 16.856C128.856 17.264 129.048 17.624 129.576 18.176C131.712 20.504 134.976 24.032 134.976 25.688C134.976 26.48 134.448 26.816 133.944 26.816C133.2 26.816 133.056 26.36 132.552 24.944C131.808 22.832 129.192 19.64 128.568 18.872C127.824 17.96 127.632 17.6 127.632 17.096C127.632 16.448 127.944 15.728 129.576 13.688C131.952 10.712 132.84 9.464 132.84 8.576C132.84 8.072 132.624 7.712 132.24 7.184C132.168 7.064 132.12 6.968 132.168 6.896ZM151.776 7.424C153.024 7.424 154.08 9.368 154.08 9.92C154.08 10.16 153.672 11.072 153.624 11.264C153.288 12.488 152.616 17.792 152.616 19.808C152.616 22.232 153.072 24.392 156.288 24.392C157.464 24.392 159.192 24.152 161.328 23.144C161.688 22.976 163.512 21.968 163.608 21.968C163.704 21.968 163.728 22.04 163.728 22.088C163.728 22.352 160.176 26.216 155.664 26.216C152.544 26.216 151.056 24.416 151.056 19.592C151.056 18.104 151.104 17.624 151.608 12.92C151.704 12.128 151.92 10.16 151.92 9.488C151.92 9.056 151.848 8.648 151.704 8.312C151.68 8.24 151.44 7.688 151.44 7.664C151.44 7.496 151.632 7.424 151.776 7.424ZM171.456 11.792C171.552 11.672 172.272 11.888 172.392 11.888C173.424 11.888 173.784 11.792 177.072 10.856C179.208 10.256 184.68 8.696 186.288 8.696C187.128 8.696 188.208 9.032 188.208 9.848C188.208 10.472 187.584 10.736 187.248 10.736C186.936 10.736 185.568 10.472 185.28 10.472C182.232 10.472 178.824 13.28 178.824 19.472C178.824 23.504 180.336 23.768 181.752 23.768C182.112 23.768 183.84 23.624 184.032 23.624C184.776 23.624 185.232 23.936 185.232 24.512C185.232 25.784 182.592 25.784 182.448 25.784C177.528 25.784 177.528 21.776 177.528 20.648C177.528 19.592 177.552 14.504 181.032 11.408C181.128 11.336 181.608 10.952 181.608 10.904C181.608 10.856 181.512 10.856 181.464 10.856C180.096 10.856 175.104 12.992 174.336 13.424C174 13.616 173.76 13.736 173.496 13.736C172.296 13.736 171.168 12.128 171.456 11.792ZM198.888 11.288H202.44C203.184 11.288 203.184 11 203.184 9.8C203.184 8.144 203.088 7.424 203.04 6.992C203.016 6.872 202.848 6.344 202.848 6.224C202.848 6.104 202.944 6.056 203.112 6.056C203.28 6.056 205.704 6.296 205.704 6.896C205.704 7.04 205.2 7.496 205.128 7.616C204.96 7.976 204.912 9.872 204.912 10.376C204.912 11 204.936 11.288 205.68 11.288H208.776C209.88 11.288 210 11.288 210.312 10.88C211.032 9.896 211.104 9.8 211.32 9.8C211.584 9.8 213.504 11.408 213.504 11.624C213.504 11.936 212.952 11.936 212.232 11.936H205.656C205.392 11.936 205.056 11.936 204.936 12.344C204.888 12.536 204.888 16.28 204.888 16.976C204.888 17.72 204.936 18.008 205.68 18.008H208.056C209.184 18.008 209.304 18.008 209.592 17.6C210.336 16.616 210.408 16.52 210.624 16.52C210.888 16.52 212.808 18.128 212.808 18.344C212.808 18.656 212.256 18.656 211.512 18.656H205.704C205.008 18.656 204.936 18.896 204.936 19.472C204.936 20.192 204.96 25.352 204.984 25.472C205.08 25.832 205.368 25.88 205.752 25.88H210.144C211.248 25.88 211.368 25.88 211.68 25.472C212.4 24.488 212.472 24.368 212.688 24.368C212.952 24.368 214.872 25.976 214.872 26.192C214.872 26.504 214.32 26.504 213.6 26.504H197.664C195.552 26.504 194.856 26.552 194.64 26.576C194.544 26.576 194.208 26.624 194.112 26.624C194.04 26.624 193.992 26.576 193.92 26.48L193.44 25.928C193.344 25.808 193.344 25.808 193.344 25.76C193.344 25.712 193.368 25.712 193.44 25.712C193.584 25.712 194.328 25.784 194.496 25.784C195.672 25.832 196.656 25.88 197.784 25.88H202.368C202.8 25.88 203.16 25.88 203.16 25.016V19.232C203.16 18.944 203.016 18.656 202.464 18.656H199.656C197.544 18.656 196.848 18.704 196.632 18.704C196.536 18.728 196.2 18.776 196.128 18.776C196.032 18.776 195.984 18.704 195.912 18.608L195.432 18.056C195.36 17.96 195.336 17.936 195.336 17.912C195.336 17.864 195.36 17.84 195.432 17.84C195.6 17.84 196.32 17.912 196.488 17.936C197.664 17.984 198.648 18.008 199.776 18.008H202.44C203.16 18.008 203.16 17.648 203.16 17.264V12.56C203.112 12.104 202.896 11.936 202.464 11.936H198.504C197.76 11.936 197.712 12.008 197.112 13.016C195.792 15.224 194.16 17.192 193.776 17.192C193.68 17.192 193.656 17.12 193.656 17.048C193.656 17 194.04 16.28 194.256 15.896C196.896 11.024 197.352 7.928 197.424 7.448C197.472 6.992 197.52 6.944 197.568 6.944C197.616 6.944 199.92 7.88 199.92 8.288C199.92 8.48 199.152 9.008 199.056 9.152C198.912 9.344 198.288 10.76 198.288 10.976C198.288 11.288 198.576 11.288 198.888 11.288ZM228.384 8.552C228.384 8.072 228.072 7.328 227.952 7.064C227.928 6.992 227.784 6.752 227.784 6.704C227.784 6.536 228.24 6.536 228.384 6.536C229.032 6.536 230.328 7.136 230.328 7.64C230.328 7.88 229.8 8.744 229.728 8.912C229.56 9.296 229.368 10.136 229.368 10.472C229.368 10.52 229.368 10.616 229.464 10.616C229.536 10.616 229.608 10.592 230.136 10.4C230.352 10.328 230.688 10.208 231 10.208C231.24 10.208 231.696 10.28 231.696 10.664C231.696 11.552 230.064 12.032 229.392 12.248C229.2 12.296 229.152 12.32 229.128 12.68C229.104 12.752 229.008 14.024 229.008 15.008C229.008 15.56 229.008 15.704 229.32 15.704C229.584 15.704 231.312 15.224 231.312 14.456C231.312 14.384 231.216 14.096 231.216 14.024C231.216 13.952 231.288 13.952 231.336 13.952C231.456 13.952 231.96 14.072 232.08 14.072C233.064 14.144 233.688 14.192 233.688 14.72C233.688 15.56 231.024 16.664 229.92 17.024C229.176 17.288 229.104 17.312 229.104 17.552C229.104 18.008 229.368 20.768 229.392 21.008C229.488 21.8 229.488 21.896 229.992 22.088C231.864 22.856 233.4 24.128 233.4 25.256C233.4 25.88 232.968 26.264 232.584 26.264C232.248 26.264 232.152 26.144 231.288 25.112C230.808 24.512 229.872 23.816 229.608 23.816C229.464 23.816 229.416 23.936 229.296 24.2C228.792 25.328 227.184 26.624 225.216 26.624C222.96 26.624 222.144 25.016 222.144 24.032C222.144 22.592 223.608 21.488 226.464 21.488C226.68 21.488 227.568 21.56 227.736 21.56C228 21.56 228 21.488 228 20.672C228 20.192 227.976 18.584 227.952 17.936C227.952 17.72 227.952 17.576 227.712 17.576C227.376 17.576 225.936 17.696 225.624 17.696C225.072 17.696 223.392 17.72 222.312 16.712C221.976 16.376 221.616 15.8 221.616 15.608C221.616 15.56 221.616 15.512 221.688 15.512C221.832 15.512 222.48 15.8 222.6 15.848C223.68 16.208 224.76 16.28 225.504 16.28C226.08 16.28 227.688 16.28 227.856 15.824C227.88 15.752 228.072 12.608 228.072 12.584C228.072 12.464 227.952 12.464 227.568 12.44C225.864 12.32 224.352 11.096 224.352 10.16C224.352 10.112 224.376 9.992 224.448 9.992C224.472 9.992 225.048 10.328 225.12 10.376C226.176 11.024 227.088 11.024 227.448 11.024C227.952 11.024 228.192 10.904 228.24 10.664C228.312 10.424 228.384 9.056 228.384 8.552ZM227.808 23.048C227.64 22.64 225.96 22.544 225.528 22.544C225.48 22.544 222.96 22.544 222.96 23.912C222.96 24.824 224.208 25.112 224.88 25.112C225.672 25.112 226.704 24.728 227.256 24.224C227.688 23.84 227.904 23.264 227.808 23.048ZM247.008 7.424C247.8 7.424 249.288 8.6 249.288 9.032C249.288 9.224 249.072 10.28 249.048 10.496C249.024 10.64 248.928 11.6 248.928 12.224C248.928 12.728 249 12.848 249.432 13.064C249.648 13.184 249.792 13.304 249.792 13.544C249.792 13.616 249.768 13.904 249.576 14.168C249.072 14.864 249 14.96 249 15.032C249 15.08 249.024 15.104 249.072 15.104C249.12 15.104 249.192 15.056 249.672 14.6C250.92 13.4 253.824 10.664 256.056 10.664C257.688 10.664 258.408 11.816 258.408 13.52C258.408 14.408 258.288 15.512 258.12 16.592C257.76 19.016 257.736 19.376 257.736 20.192C257.736 21.128 257.88 22.424 259.512 22.424C259.896 22.424 260.928 22.424 262.032 21.224C262.2 21.032 262.416 20.816 262.536 20.816C262.632 20.816 262.68 20.936 262.68 21.008C262.68 21.344 261.36 24.128 258.816 24.128C255.984 24.128 255.984 21.272 255.984 20.624C255.984 20.048 256.008 19.784 256.272 18.368C256.68 16.184 256.92 13.952 256.92 13.352C256.92 12.92 256.92 11.696 255.432 11.696C253.728 11.696 251.688 13.4 250.104 14.888C248.496 16.4 248.256 17.384 248.256 19.808C248.256 20.888 248.328 22.232 248.448 22.904C248.688 24.464 248.736 24.656 248.736 25.136C248.736 25.928 248.544 26.48 247.8 26.48C247.056 26.48 246.96 25.928 246.72 24.656C246.672 24.344 246.024 22.016 245.784 22.016C245.688 22.016 245.664 22.088 245.496 22.664C245.28 23.384 244.896 24.008 244.176 24.008C243.624 24.008 243.312 23.528 243.312 23.12C243.312 22.28 244.128 20.864 244.368 20.432C244.464 20.24 244.68 19.88 244.68 19.64C244.68 19.376 244.248 18.176 244.128 17.84C243.6 16.496 243.576 16.328 243.576 15.92C243.576 14.84 244.296 14.192 244.776 14.048C246.432 13.544 247.344 13.28 247.632 13.064C247.776 12.968 247.8 12.8 247.8 12.368C247.8 11.072 247.68 9.968 247.176 8.864C247.08 8.672 246.456 7.832 246.456 7.664C246.456 7.448 246.84 7.424 247.008 7.424ZM247.392 14.696C247.344 14.576 247.224 14.552 247.128 14.552C246.936 14.552 244.44 15.056 244.44 16.256C244.44 17.096 245.016 18.896 245.232 18.896C245.328 18.896 245.448 18.752 245.496 18.656C245.544 18.536 246.84 16.016 246.96 15.776C247.176 15.344 247.44 14.816 247.392 14.696ZM246.96 22.64C247.128 22.64 247.128 22.472 247.128 20.12C247.128 20 247.176 19.328 247.176 19.28C247.176 19.208 247.176 19.064 247.056 19.064C246.816 19.064 246.12 20.648 246.12 20.912C246.12 21.512 246.912 22.64 246.96 22.64ZM267.48 24.344C267.48 24.056 267.6 23.816 268.344 22.424C270.816 17.744 271.512 13.616 271.512 13.592C271.512 13.352 271.416 13.352 270.648 13.352C270.144 13.352 269.304 13.328 268.512 12.92C267.744 12.536 267.264 11.864 267.264 11.624C267.264 11.552 267.336 11.528 267.36 11.528C267.456 11.528 267.816 11.72 267.912 11.744C268.272 11.864 269.256 12.008 270.048 12.008C270.408 12.008 271.56 11.96 271.752 11.792C271.944 11.624 272.016 9.992 272.016 9.824C272.016 9.632 272.016 8.816 271.728 8.336C271.632 8.216 271.056 7.616 271.056 7.448C271.056 7.208 271.512 6.896 272.136 6.896C273.216 6.896 274.056 7.88 274.056 8.168C274.056 8.288 273.792 8.768 273.792 8.888C273.792 9.344 275.712 9.752 275.952 9.752C276.048 9.752 276.576 9.704 276.696 9.704C276.888 9.704 277.488 9.704 277.488 10.448C277.488 11.792 275.448 12.488 273.864 12.92C273.048 13.136 272.952 13.16 272.856 13.592C271.632 18.824 271.608 18.848 271.104 20.408C269.448 25.4 268.584 25.4 268.128 25.4C267.552 25.4 267.48 24.608 267.48 24.344ZM273.312 11.144C273.288 11.312 273.264 11.456 273.408 11.456C273.528 11.456 275.352 10.808 275.352 10.496C275.352 10.256 274.056 9.728 273.792 9.728C273.648 9.728 273.576 9.776 273.528 10.016C273.432 10.496 273.432 10.568 273.312 11.144ZM276.048 14.552C275.88 14.24 277.968 13.28 280.536 13.28C282.816 13.28 284.544 13.952 284.544 15.008C284.544 15.584 284.04 15.584 283.848 15.584C283.632 15.584 282.696 15.512 282.504 15.512C282.072 15.512 281.712 15.512 280.728 15.896C280.128 16.112 279.888 16.208 279.72 16.208C279.672 16.208 279.6 16.208 279.6 16.136C279.6 15.968 280.848 15.056 280.848 14.792C280.848 14.432 279.144 14.408 278.784 14.408C278.256 14.408 277.608 14.432 277.056 14.504C276.912 14.528 276.36 14.6 276.264 14.6C276.24 14.6 276.072 14.6 276.048 14.552ZM274.968 20.96C275.064 20.96 275.208 21.56 275.232 21.632C275.736 23.72 278.328 24.176 280.152 24.176C280.56 24.176 282.384 24.008 282.768 24.008C283.584 24.008 284.688 24.416 284.688 25.208C284.688 25.904 283.8 26.024 281.76 26.024C277.872 26.024 274.632 25.04 274.632 22.016C274.632 21.464 274.776 20.96 274.968 20.96ZM52.944 46.608C53.088 46.608 55.176 46.752 55.584 46.752C57.744 46.752 62.856 46.32 63.384 45.984C64.248 45.408 64.344 45.36 64.56 45.36C65.04 45.36 67.344 46.896 67.344 47.52C67.344 47.736 67.272 47.808 66.528 48.36C66.096 48.672 66 49.032 65.184 52.368C65.136 52.584 64.8 53.64 64.8 53.784C64.8 54.096 65.016 54.12 65.376 54.192C65.976 54.288 66.864 54.6 66.864 55.2C66.864 55.848 65.76 55.848 65.568 55.848C64.968 55.848 62.304 55.68 61.752 55.68C60.264 55.68 55.704 56.184 55.32 56.28C55.176 56.304 54.576 56.568 54.456 56.568C54.024 56.568 52.608 55.488 52.608 54.648C52.608 54.552 52.704 54.48 52.824 54.48C52.944 54.48 53.448 54.576 53.544 54.6C54.072 54.672 54.48 54.672 54.768 54.672C56.424 54.672 62.712 54.24 63.072 54.048C63.36 53.904 63.456 53.616 63.624 52.416C63.912 50.304 64.128 48.216 64.128 47.736C64.128 47.328 64.032 47.232 63.768 47.232C63.024 47.232 57.072 48.192 56.136 48.408C55.92 48.456 55.08 48.792 54.888 48.792C54.36 48.792 52.656 47.328 52.656 46.848C52.656 46.656 52.824 46.608 52.944 46.608ZM79.104 43.272C79.248 43.272 79.824 43.512 79.968 43.536C80.352 43.632 80.904 43.632 81.24 43.632C82.368 43.632 83.952 43.584 85.08 43.368C85.44 43.296 87.096 42.888 87.432 42.888C87.84 42.888 88.896 43.104 88.896 43.8C88.896 44.544 88.056 44.616 86.664 44.736C86.28 44.784 81.12 45.24 80.952 45.24C79.68 45.24 78.96 43.608 78.96 43.44C78.96 43.32 79.008 43.272 79.104 43.272ZM78.504 59.664C78.552 59.616 79.224 59.304 79.368 59.232C86.856 55.2 88.824 50.016 88.824 49.512C88.824 49.224 88.656 49.056 88.32 49.056C87.504 49.056 81.48 50.112 80.424 50.424C80.256 50.472 79.488 50.832 79.32 50.832C78.288 50.832 76.584 48.768 76.584 48.096C76.584 48.024 76.656 47.976 76.728 47.976C76.8 47.976 77.088 48.144 77.16 48.168C77.616 48.36 78.528 48.576 79.536 48.576C81.504 48.576 86.28 47.952 87.168 47.856C87.216 47.856 88.8 47.712 88.824 47.712C88.944 47.664 89.4 47.448 89.52 47.448C89.928 47.448 91.632 48.864 91.632 49.416C91.632 49.776 91.536 49.872 90.984 50.328C90.576 50.664 90.336 51.024 89.688 52.032C87.792 54.912 86.304 56.712 82.92 58.44C80.784 59.52 78.888 60 78.672 60C78.48 60 78.456 59.856 78.456 59.808C78.456 59.76 78.48 59.688 78.504 59.664ZM108.552 50.064C108.552 51.216 108.672 56.328 108.672 57.36C108.672 57.72 108.672 59.304 107.4 59.304C106.872 59.304 106.824 59.16 106.32 57.768C106.032 57 105.912 56.808 105.432 56.064C105.336 55.896 105.288 55.848 105.288 55.776C105.288 55.704 105.336 55.68 105.384 55.68C105.552 55.68 106.344 55.992 106.512 55.992C106.824 55.992 106.944 55.728 106.992 55.344C107.112 54.216 107.112 51.816 107.112 50.52C107.112 49.368 107.064 48.936 106.416 48.936C106.272 48.936 103.392 49.344 101.976 49.704C101.832 49.752 101.16 49.968 101.016 49.968C100.488 49.968 99.288 48.336 99.288 47.856C99.288 47.736 99.312 47.64 99.456 47.64C99.552 47.64 99.6 47.664 99.912 47.784C100.464 48.024 101.688 48.024 102.048 48.024C102.6 48.024 105.192 47.88 105.912 47.856C106.824 47.808 107.064 47.64 107.064 46.848C107.064 46.056 106.92 44.472 106.56 43.776C106.512 43.656 106.104 43.272 106.104 43.152C106.104 43.08 106.368 42.912 106.92 42.912C108.576 42.912 109.176 43.968 109.176 44.16C109.176 44.304 108.792 44.832 108.744 44.952C108.528 45.384 108.528 46.56 108.528 46.8C108.528 47.544 108.84 47.664 109.464 47.664C110.232 47.664 111.384 47.472 111.792 47.424C112.104 47.376 113.376 47.064 113.64 47.064C114.36 47.064 115.176 47.424 115.968 47.88C116.232 48.048 116.568 48.24 116.568 48.648C116.568 49.104 116.04 49.128 115.944 49.128C115.584 49.128 114.024 48.864 113.688 48.816C112.776 48.72 111.024 48.696 110.832 48.696C108.768 48.696 108.552 48.696 108.552 50.064ZM115.776 57.216C115.104 57.216 114.888 56.664 114.456 55.632C114.048 54.624 113.304 53.376 112.512 52.68C112.152 52.344 111.552 51.792 111.552 51.672C111.552 51.552 111.672 51.552 111.72 51.552C112.992 51.552 116.856 53.88 116.856 55.896C116.856 56.448 116.568 57.24 115.776 57.216ZM99.96 56.664C99.648 56.568 99.264 56.256 99.264 55.776C99.264 55.32 99.48 55.08 100.176 54.648C101.112 54.072 102.336 52.968 102.528 52.8C102.648 52.68 102.912 52.44 103.008 52.44C103.104 52.44 103.128 52.656 103.128 52.728C103.128 53.856 102 56.76 100.416 56.76C100.224 56.76 100.08 56.712 99.96 56.664ZM115.2 41.328C117.192 41.328 118.56 42.384 118.56 43.416C118.56 43.704 118.368 44.136 117.96 44.136C117.456 44.136 117.144 43.776 116.712 43.224C116.304 42.744 115.392 42.168 114.624 41.88C114.384 41.784 114.312 41.688 114.312 41.616C114.312 41.448 114.744 41.328 115.2 41.328ZM112.944 43.368C114.24 43.368 114.792 43.368 115.632 43.896C116.376 44.352 116.688 44.928 116.688 45.264C116.688 45.744 116.4 46.2 116.016 46.2C115.728 46.2 115.536 46.104 114.72 45.24C114.216 44.712 113.928 44.544 112.92 43.944C112.8 43.872 112.536 43.704 112.536 43.608C112.536 43.536 112.728 43.368 112.944 43.368ZM128.784 46.416C128.784 46.608 128.448 47.76 128.4 48.024C128.304 48.528 128.208 49.152 128.208 52.536C128.208 53.232 128.208 53.808 129 53.808C130.032 53.808 136.176 51.216 140.4 47.544C140.736 47.256 140.784 47.208 140.952 47.208C141.072 47.208 141.144 47.304 141.144 47.4C141.144 47.64 137.592 51.528 131.712 54.6C128.928 56.04 128.736 56.184 128.232 56.808C128.112 56.976 128.064 57 127.968 57C127.776 57 126.336 55.824 126.336 55.176C126.336 55.056 126.528 54.096 126.552 54.048C126.672 53.496 126.672 52.608 126.672 50.952C126.672 47.784 126.672 47.136 126.048 46.008C125.952 45.864 125.52 45.216 125.52 45.072C125.52 44.976 125.664 44.952 125.76 44.952C126.024 44.952 128.784 45.432 128.784 46.416ZM150.552 50.328C151.344 50.328 159.72 50.016 163.224 49.824C163.368 49.824 163.632 49.8 163.752 49.8C165.216 49.8 165.432 50.688 165.432 50.856C165.432 51.528 164.448 51.6 163.44 51.6C162.888 51.6 160.488 51.552 160.008 51.552C156.696 51.552 151.2 51.864 150.624 51.984C150.336 52.032 149.04 52.416 148.752 52.416C147.72 52.416 146.616 50.928 146.616 50.112C146.616 49.968 146.688 49.824 146.808 49.824C146.928 49.824 147.504 50.088 147.624 50.112C148.032 50.232 149.016 50.328 150.552 50.328ZM175.296 59.232C174.768 59.232 174.528 58.848 173.928 57.744C173.856 57.624 173.424 57.12 173.352 57C173.28 56.88 173.208 56.688 173.208 56.544C173.208 56.448 173.28 56.376 173.424 56.376C173.64 56.376 174.552 56.688 174.744 56.688C175.776 56.688 182.232 53.088 187.968 46.584C188.088 46.44 188.928 45.504 189 45.504C189.048 45.504 189.096 45.528 189.096 45.6C189.096 45.864 186.984 51 177.048 57.96C176.76 58.152 175.608 59.232 175.296 59.232ZM174.384 48.168C175.416 48.168 176.88 49.128 176.88 50.304C176.88 50.784 176.52 51.504 175.944 51.504C175.584 51.504 175.464 51.36 175.104 50.76C174.6 49.896 173.784 49.272 172.92 48.768C172.848 48.72 172.704 48.624 172.704 48.528C172.704 48.192 174.072 48.168 174.384 48.168ZM177.168 43.584C179.76 43.584 179.76 45.456 179.76 45.528C179.76 46.08 179.376 46.608 178.992 46.608C178.728 46.608 178.608 46.512 177.744 45.48C177.096 44.712 176.256 44.376 175.68 44.208C175.584 44.184 175.32 44.112 175.32 44.04C175.32 43.968 175.992 43.584 177.168 43.584ZM198.528 49.08C198.624 49.08 199.104 49.248 199.392 49.344C199.776 49.464 200.52 49.464 200.784 49.464C201.672 49.464 205.776 49.296 206.76 48.936C206.952 48.864 207.624 48.288 207.792 48.288C207.984 48.288 209.4 49.368 209.4 49.848C209.4 50.088 209.328 50.16 208.992 50.544C208.872 50.688 208.776 50.88 208.752 51.336C208.68 52.92 208.632 54.72 208.632 56.304C208.632 56.544 208.68 57.6 208.68 57.816C208.68 58.92 208.104 59.352 207.744 59.352C207.384 59.352 207.072 58.968 206.976 58.416C206.928 58.104 206.928 58.032 206.592 58.032C205.8 58.032 201.96 58.488 201.312 58.608C201.12 58.632 200.376 58.848 200.112 58.848C199.464 58.848 198.744 57.312 198.744 57.12C198.744 57.024 198.768 56.832 198.96 56.832C199.032 56.832 199.104 56.856 199.752 57.072C199.848 57.096 200.304 57.264 200.904 57.264C201.864 57.264 206.592 56.784 206.808 56.688C207.072 56.544 207.072 56.328 207.096 55.656C207.096 55.464 207.144 54.456 207.144 54.36C207.144 54.048 207.048 53.904 206.76 53.904C206.664 53.904 204.936 54.144 204.048 54.264C203.4 54.336 200.832 54.672 200.424 54.672C199.752 54.672 198.792 54 198.792 53.208C198.792 52.968 198.84 52.896 198.96 52.896C199.032 52.896 199.32 53.04 199.536 53.136C199.824 53.256 200.232 53.304 200.736 53.304C202.872 53.304 206.856 52.896 207.072 52.656C207.24 52.464 207.264 51.048 207.264 50.712C207.264 50.304 207.144 50.184 206.784 50.184C206.64 50.184 203.904 50.472 202.176 50.688C201.84 50.736 200.376 50.976 200.088 50.976C199.2 50.976 198.312 49.68 198.312 49.344C198.312 49.2 198.432 49.08 198.528 49.08ZM226.92 46.56C226.92 47.28 226.512 47.76 225.888 47.76C225.24 47.76 225 47.376 224.208 46.176C223.392 44.952 222.696 44.592 222.024 44.208C221.928 44.16 221.808 44.088 221.808 43.992C221.808 43.896 222 43.776 222.336 43.776C224.904 43.776 226.92 45.144 226.92 46.56ZM236.904 46.344C236.904 46.56 234.096 51.048 227.856 55.656C227.232 56.112 226.008 57.024 225.504 57.624C225.048 58.176 225 58.224 224.64 58.224C223.344 58.224 221.568 56.688 221.568 55.728C221.568 55.56 221.592 54.456 221.808 54.456C221.904 54.456 222.432 54.864 222.528 54.912C222.84 55.104 223.632 55.464 224.16 55.464C225.336 55.464 231.696 51.216 235.68 47.28C236.064 46.896 236.736 46.224 236.784 46.224C236.832 46.224 236.904 46.296 236.904 46.344Z" fill="white"/>
</svg>
