<svg width="187" height="90" viewBox="0 0 187 90" fill="none" xmlns="http://www.w3.org/2000/svg">
<path d="M25.72 9.24H21.52C19.408 9.24 18.736 9.288 18.496 9.312C18.4 9.312 18.064 9.36 17.992 9.36C17.896 9.36 17.848 9.312 17.776 9.216L17.32 8.664C17.224 8.544 17.2 8.544 17.2 8.496C17.2 8.448 17.248 8.448 17.296 8.448C17.464 8.448 18.208 8.52 18.352 8.52C19.528 8.568 20.512 8.616 21.64 8.616H25.792C26.536 8.616 26.608 8.616 26.608 5.232C26.608 4.656 26.608 3.384 26.464 1.92C26.44 1.776 26.368 1.224 26.368 1.104C26.368 0.983999 26.368 0.912 26.512 0.912C26.896 0.912 28.696 1.368 29.008 1.464C29.32 1.536 29.536 1.656 29.536 1.896C29.536 2.088 29.416 2.232 29.152 2.448C28.696 2.832 28.696 2.952 28.648 4.08C28.624 4.704 28.456 7.488 28.456 8.064C28.456 8.616 28.888 8.616 29.272 8.616H33.424C34.528 8.616 34.648 8.616 34.96 8.208C35.728 7.224 35.824 7.128 36.112 7.128C36.64 7.128 38.56 8.664 38.56 8.904C38.56 9.24 38.08 9.24 37.288 9.24H29.632C29.104 9.24 28.936 9.24 28.936 9.624C28.936 11.088 32.056 18.216 38.848 20.88C39.496 21.144 39.496 21.144 39.496 21.24C39.496 21.408 39.376 21.432 39.016 21.456C38.272 21.504 37.648 21.576 36.856 21.912C36.736 21.984 36.208 22.344 36.064 22.344C35.632 22.344 33.496 20.424 32.224 18.6C30.472 16.104 29.2 13.392 28.48 10.464C28.456 10.32 28.36 9.984 28.312 9.984C28.24 9.984 28.24 10.056 28.144 10.56C27.664 13.248 26.776 18.24 20.584 21.696C18.808 22.704 17.2 22.992 17.008 22.992C16.96 22.992 16.864 22.968 16.864 22.896C16.864 22.776 17.392 22.536 17.632 22.416C19.312 21.624 24.328 18.696 25.984 12.192C26.248 11.112 26.368 9.84 26.368 9.768C26.368 9.24 26.104 9.24 25.72 9.24ZM52.456 3.12C52.408 3.192 52.384 3.264 52.384 3.408C52.384 3.408 52.672 9.168 55.864 14.4C56.272 15.048 58.984 19.44 62.68 20.4C62.752 20.424 62.92 20.472 62.92 20.568C62.92 20.688 62.848 20.688 62.08 20.856C61.24 21.048 60.664 21.408 60.424 21.576C59.968 21.912 59.896 21.984 59.824 21.984C59.728 21.984 56.68 20.088 54.352 15C53.92 14.04 52.384 10.752 52.048 5.712C52.024 5.448 52.024 5.424 51.928 5.424C51.784 5.424 51.784 5.52 51.688 6.384C51.616 7.152 50.992 12.744 48.616 16.656C46.048 20.928 41.848 22.368 41.632 22.368C41.56 22.368 41.488 22.344 41.488 22.248C41.488 22.176 41.608 22.08 41.8 21.96C43.192 21.024 45.88 18.888 47.488 15.792C50.224 10.584 50.224 3.72 50.224 3.456C50.224 2.76 50.224 2.496 50.128 1.992C50.104 1.92 50.032 1.584 50.032 1.512C50.032 1.392 50.152 1.32 50.224 1.32C50.368 1.32 51.4 1.656 51.616 1.704C52.768 2.016 53.248 2.16 53.248 2.592C53.248 2.856 53.056 2.928 52.84 2.976C52.648 3 52.528 3.024 52.456 3.12ZM76.528 4.68C76.048 4.68 76.024 4.872 76.024 5.016C76.024 5.088 76.072 5.184 76.072 5.28C76.168 6.048 76.312 6.816 76.312 7.872C76.312 9.48 75.952 11.712 73.84 14.904C71.92 17.832 70.696 18.408 69.736 18.408C68.152 18.408 66.736 15.936 66.736 13.008C66.736 11.736 67 9.312 69.4 6.888C72.448 3.768 75.664 3.768 77.056 3.768C79.24 3.768 80.248 4.2 80.92 4.536C83.512 5.808 85.096 8.376 85.096 11.52C85.096 14.64 83.296 18.48 79.048 19.968C77.008 20.688 75.424 20.856 75.064 20.856C74.968 20.856 74.824 20.832 74.824 20.688C74.824 20.616 74.872 20.592 75.472 20.352C77.968 19.368 83.176 17.304 83.176 11.328C83.176 10.392 83.08 4.68 76.528 4.68ZM75.184 4.752C72.904 4.752 68.224 7.848 68.224 12.384C68.224 13.944 68.848 16.08 70.312 16.08C71.008 16.08 71.584 15.792 73.24 13.296C74.512 11.352 75.592 8.688 75.592 6.312C75.592 4.872 75.496 4.752 75.184 4.752ZM95.032 2.544H105.256C105.616 2.544 106 2.448 106.216 2.16C106.432 1.848 106.456 1.824 106.6 1.824C106.816 1.824 108.592 2.784 108.592 3.192C108.592 3.336 108.376 3.504 108.088 3.744C107.824 3.96 107.824 4.128 107.824 5.688C107.824 6.336 107.872 9.192 107.872 9.792C107.872 10.536 107.872 10.824 107.68 11.016C107.344 11.4 106.84 11.448 106.6 11.448C106.12 11.448 106.096 11.208 106 10.68C105.928 10.176 105.544 10.176 105.304 10.176H94.768C94.048 10.176 94.048 10.512 94.024 10.848C94 11.544 93.304 11.832 92.68 11.832C92.44 11.832 92.152 11.784 92.152 11.208C92.152 11.016 92.248 10.176 92.248 10.008C92.272 8.952 92.272 7.44 92.272 6.36C92.272 4.392 92.224 3.504 92.152 2.544C92.128 2.352 92.104 2.016 92.104 1.848C92.104 1.752 92.104 1.632 92.248 1.632C92.416 1.632 93.496 2.136 93.784 2.28C94.312 2.52 94.744 2.544 95.032 2.544ZM98.44 3.168H94.624C93.88 3.168 93.88 3.528 93.88 4.248C93.88 5.808 93.88 5.976 94.624 5.976H98.44C99.208 5.976 99.208 5.808 99.208 4.176C99.208 3.528 99.184 3.168 98.44 3.168ZM94.624 9.528H98.464C99.208 9.528 99.208 9.216 99.208 8.4C99.208 6.792 99.208 6.624 98.464 6.624H94.624C93.88 6.624 93.88 6.816 93.88 8.472C93.88 9.192 93.88 9.528 94.624 9.528ZM101.56 9.528H105.4C105.664 9.528 105.904 9.504 106.048 9.264C106.144 9.12 106.144 7.464 106.144 7.2C106.144 6.624 105.568 6.624 105.4 6.624H101.56C101.368 6.624 100.96 6.624 100.84 7.008C100.816 7.128 100.816 8.64 100.816 8.952C100.816 9.528 101.368 9.528 101.56 9.528ZM105.4 3.168H101.536C100.816 3.168 100.816 3.336 100.816 4.608C100.816 5.784 100.816 5.976 101.536 5.976H105.4C106.12 5.976 106.12 5.784 106.12 4.608C106.096 3.336 106.12 3.168 105.4 3.168ZM101.008 13.584H105.976C106.288 13.584 106.624 13.536 106.84 13.32C106.96 13.224 107.368 12.552 107.536 12.552C107.728 12.552 109.744 13.512 109.744 13.896C109.744 14.04 109.552 14.184 109.432 14.256C109.24 14.4 108.856 14.664 108.832 14.976C108.784 16.248 108.688 17.544 108.256 19.32C107.584 22.032 105.088 22.656 104.584 22.656C104.44 22.656 104.368 22.464 104.32 22.296C104.176 21.84 103.984 21.624 103.168 21.096C102.928 20.928 101.632 20.232 101.632 20.136C101.632 20.064 101.704 20.064 101.752 20.064C101.944 20.064 104.176 20.304 104.632 20.304C105.352 20.304 106.216 19.992 106.552 19.008C106.912 17.928 107.152 15.672 107.152 14.88C107.152 14.232 106.672 14.208 106.432 14.208H100.984C100.408 14.208 100.072 14.376 99.904 15C98.848 18.672 96.712 20.136 95.896 20.664C94.672 21.48 92.368 22.392 90.544 22.392C90.472 22.392 90.232 22.392 90.232 22.272C90.232 22.224 90.664 22.08 90.712 22.056C92.8 21.432 94.72 20.592 96.232 18.768C97.672 17.064 98.176 15 98.176 14.76C98.176 14.232 97.672 14.208 97.456 14.208H94.192C93.616 14.208 91.984 14.232 91.168 14.28C91.096 14.28 90.736 14.328 90.64 14.328C90.568 14.328 90.52 14.28 90.448 14.184L89.968 13.632C89.872 13.512 89.872 13.512 89.872 13.464C89.872 13.416 89.92 13.416 89.968 13.416C90.112 13.416 90.832 13.488 91 13.488C91.696 13.536 92.944 13.584 94.312 13.584H97.672C98.32 13.584 98.488 13.512 98.488 11.688C98.488 11.424 98.464 11.232 98.368 10.968C98.296 10.896 98.128 10.704 98.128 10.656C98.128 10.512 98.488 10.512 98.632 10.512C99.304 10.512 100.864 10.776 100.864 11.208C100.864 11.28 100.504 11.592 100.432 11.664C100.312 11.88 100.264 12.696 100.264 12.936C100.264 13.584 100.768 13.584 101.008 13.584ZM120.664 8.328C120.664 9.504 119.92 9.816 119.608 9.816C119.2 9.816 119.2 9.336 119.2 9.096C119.2 8.4 119.128 7.56 119.008 6.792C118.984 6.672 118.816 6.192 118.816 6.096C118.816 6.072 118.84 6.024 118.888 6.024C119.2 6.024 120.664 6.96 120.664 8.328ZM118.024 3.168C118.048 4.392 117.928 10.632 117.928 12.144V19.656C117.928 19.944 118 21.12 118 21.36C118 22.344 117.472 22.776 116.92 22.776C116.584 22.776 116.152 22.656 116.152 21.672C116.152 21.552 116.224 20.472 116.224 20.376C116.368 18.336 116.368 15.816 116.368 13.344C116.368 11.424 116.368 3.456 116.272 2.184C116.248 2.04 116.08 1.344 116.08 1.2C116.08 1.08 116.152 1.008 116.32 1.008C116.416 1.008 118.24 1.344 118.624 1.536C118.696 1.584 118.792 1.656 118.792 1.8C118.792 2.016 118.624 2.136 118.384 2.352C118.096 2.568 118.024 2.76 118.024 3.168ZM115.24 8.712C115.24 10.368 114.592 12.096 113.68 12.096C113.2 12.096 112.792 11.592 112.792 11.016C112.792 10.56 112.936 10.32 113.656 9.024C114.136 8.184 114.448 7.008 114.592 6.024C114.616 5.904 114.616 5.88 114.664 5.88C114.976 5.88 115.24 7.704 115.24 8.712ZM124.288 6.888H125.632C126.376 6.888 126.376 6.504 126.376 6.048C126.376 5.568 126.328 3.528 126.328 3.12C126.328 2.328 126.328 2.232 126.256 1.968C126.232 1.872 126.016 1.344 126.016 1.224C126.016 0.983999 126.28 0.935999 126.448 0.935999C126.736 0.935999 128.248 1.32 128.56 1.416C128.776 1.488 128.872 1.656 128.872 1.824C128.872 2.04 128.752 2.16 128.488 2.376C128.128 2.688 128.08 2.904 128.08 4.248V6.432C128.152 6.84 128.464 6.888 128.8 6.888H130.072C131.104 6.888 131.224 6.888 131.632 6.216C131.776 5.976 132.088 5.544 132.28 5.544C132.568 5.544 134.344 6.96 134.344 7.224C134.344 7.512 133.816 7.512 133.048 7.512H128.8C128.584 7.512 128.248 7.56 128.104 7.872C128.008 8.088 128.008 11.592 128.008 11.928C128.008 13.296 128.008 13.56 128.776 13.56H129.952C130.816 13.56 131.128 13.56 131.44 13.248C131.584 13.08 132.112 12.192 132.304 12.192C132.472 12.192 134.368 13.488 134.368 13.896C134.368 14.208 133.864 14.208 133.072 14.208H128.776C128.584 14.208 128.2 14.208 128.08 14.592C128.008 14.808 128.008 18.6 128.008 19.008C128.008 20.784 128.008 20.88 128.776 20.88H130.672C131.44 20.88 131.656 20.88 131.92 20.664C132.136 20.448 132.808 19.2 133.072 19.2C133.384 19.2 135.16 20.76 135.16 21.168C135.16 21.528 134.632 21.528 133.84 21.528H123.472C121.384 21.528 120.688 21.576 120.448 21.576C120.376 21.6 120.016 21.648 119.944 21.648C119.848 21.648 119.824 21.576 119.728 21.48L119.272 20.928C119.224 20.856 119.176 20.808 119.176 20.784C119.176 20.736 119.2 20.712 119.248 20.712C119.416 20.712 120.16 20.808 120.304 20.808C121.48 20.856 122.464 20.88 123.592 20.88H125.632C126.4 20.88 126.4 20.712 126.4 18.504C126.4 14.976 126.4 14.568 126.232 14.376C126.088 14.208 125.968 14.208 125.056 14.208C123.76 14.208 122.776 14.232 122.392 14.28C122.32 14.28 121.96 14.328 121.888 14.328C121.816 14.328 121.768 14.28 121.672 14.16L121.216 13.608C121.12 13.512 121.12 13.488 121.12 13.464C121.12 13.416 121.144 13.416 121.192 13.416C121.36 13.416 122.104 13.488 122.272 13.488C124.192 13.56 124.984 13.56 125.728 13.56C126.424 13.56 126.424 13.08 126.424 12.696C126.424 9.36 126.424 9 126.4 8.352C126.376 7.848 126.376 7.512 125.632 7.512H124.072C123.472 7.512 123.4 7.656 122.872 8.832C122.272 10.128 121.552 11.496 120.232 12.888C120.136 13.008 120.064 13.08 119.992 13.08C119.944 13.08 119.92 13.032 119.92 13.008C119.92 12.96 121.096 10.224 121.288 9.696C121.816 8.328 122.776 5.448 122.776 3.84C122.776 3.72 122.68 3.144 122.68 3.048C122.68 2.856 122.872 2.832 122.968 2.832C123.04 2.832 125.344 3.408 125.344 3.984C125.344 4.152 125.272 4.2 124.768 4.536C124.288 4.824 123.856 6.48 123.856 6.552C123.856 6.888 124.144 6.888 124.288 6.888ZM145.816 7.488C146.44 7.488 147.232 7.848 148.816 9.432C151.72 12.336 154.096 13.392 155.536 14.04C156.664 14.568 157.648 15.096 157.648 15.792C157.648 15.936 157.432 16.704 156.76 16.704C156.544 16.704 154.384 16.632 150.808 13.2C150.232 12.648 147.664 10.056 147.136 9.552C146.584 9.024 146.176 8.712 145.792 8.712C145 8.712 144.784 8.928 142.816 10.848C142.648 11.016 140.896 12.672 140.848 12.696C140.752 12.768 140.608 12.816 140.464 12.816C139.552 12.816 138.136 11.688 138.136 11.28C138.136 11.184 138.184 11.16 138.592 11.112C139.696 11.016 141.448 10.104 142.504 9.264C144.52 7.656 145 7.488 145.816 7.488ZM166.648 21.24C166.648 21.816 166.168 22.392 165.712 22.392C165.208 22.392 165.112 22.224 164.32 20.784C163.84 19.944 163.216 19.104 161.8 18.216C161.728 18.168 161.464 18 161.464 17.928C161.464 17.856 161.536 17.76 161.728 17.76C162.568 17.76 166.648 19.008 166.648 21.24ZM11.032 47.896C11.032 48.52 12.76 53.416 12.76 54.472C12.76 54.928 12.592 55.384 12.232 55.384C11.176 55.384 10.792 53.296 10.6 52.288C10.48 51.688 9.952 49.072 9.832 48.52C9.76 48.088 9.64 47.776 9.208 47.776C9.112 47.776 6.256 48.448 5.08 48.832C4.84 48.904 3.856 49.456 3.616 49.456C3.256 49.456 0.856 48.4 0.856 47.68C0.856 47.488 1.024 47.44 1.144 47.44C1.36 47.44 2.368 47.536 2.584 47.536C4.408 47.536 5.848 47.248 8.416 46.72C9.04 46.6 9.184 46.504 9.184 46.096C9.184 45.712 9.016 45.016 8.68 43.696C8.512 43.096 8.416 42.856 8.056 42.856C7.504 42.856 4.792 43.768 4.72 43.768C4.168 43.768 2.536 42.904 2.536 42.472C2.536 42.304 2.824 42.304 3.04 42.304C3.64 42.304 5.368 42.184 6.736 41.896C7.576 41.704 7.936 41.56 7.936 41.104C7.936 41.008 7.648 38.728 6.592 37.816C6.424 37.672 5.488 37.048 5.488 36.952C5.488 36.808 6.208 36.544 6.736 36.544C7.216 36.544 8.896 37.072 8.968 37.552C9.016 37.888 9.064 39.28 9.112 39.568C9.328 41.128 9.592 41.128 9.928 41.128C10.168 41.128 11.68 40.624 12.016 40.48C13.048 40.024 13.168 39.976 13.504 39.976C14.272 39.976 14.92 40.48 14.92 40.864C14.92 41.344 14.464 41.44 12.712 41.776C10.768 42.16 10.552 42.232 10.288 42.304C9.856 42.448 9.832 42.64 9.832 42.904C9.832 43.312 10.144 44.584 10.264 45.064C10.48 45.88 10.576 46.096 11.008 46.096C11.44 46.096 13.504 45.448 14.08 45.184C14.872 44.824 15.4 44.584 16.456 44.584C17.728 44.584 18.256 45.232 18.256 45.64C18.256 46.36 17.272 46.384 16.408 46.384C15.04 46.408 12.784 46.912 12.088 47.08C11.08 47.296 11.032 47.44 11.032 47.896ZM17.776 36.064C19.072 36.064 21.04 36.904 21.04 38.272C21.04 38.536 20.848 38.992 20.416 38.992C19.912 38.992 19.6 38.584 19.192 38.032C18.856 37.576 17.92 36.928 17.176 36.592C16.936 36.472 16.864 36.376 16.864 36.304C16.864 36.064 17.632 36.064 17.776 36.064ZM15.448 38.152C17.176 38.152 18.856 39.424 18.856 40.504C18.856 40.792 18.568 41.416 18.112 41.416C17.776 41.416 17.56 41.2 16.912 40.264C16.576 39.76 16.408 39.616 15.328 38.704C15.256 38.632 15.016 38.416 15.016 38.32C15.016 38.2 15.232 38.152 15.448 38.152ZM26.44 39.736C26.56 39.736 26.704 39.808 26.896 39.88C27.448 40.144 28.384 40.408 28.888 40.408C29.872 40.408 36.904 39.712 37.936 39.256C38.68 38.92 38.776 38.872 38.944 38.872C39.472 38.872 39.856 39.208 40.6 39.856C41.68 40.816 41.824 41.08 41.824 41.416C41.824 41.728 41.704 41.848 41.272 42.28C40.888 42.64 40.792 42.832 40.336 43.792C36.568 51.616 28.192 54.976 27.952 54.976C27.832 54.976 27.784 54.88 27.784 54.832C27.784 54.736 27.856 54.688 28.096 54.52C32.272 51.592 35.656 48.424 37.576 45.016C38.752 42.952 39.208 41.2 39.208 40.96C39.208 40.552 38.8 40.528 38.68 40.528C38.416 40.528 31.432 41.704 30.04 42.256C29.848 42.352 28.984 42.784 28.792 42.784C28.48 42.784 28.312 42.784 27.064 41.632C26.608 41.224 26.368 40.984 26.368 40.288C26.368 40.096 26.392 39.976 26.44 39.736ZM54.808 37.096C54.832 36.88 55.456 36.88 55.48 36.88C56.344 36.88 58.072 37.648 58.072 38.416C58.072 38.584 57.832 39.28 57.784 39.424C57.664 40.024 57.568 42.16 57.568 42.76C57.568 43.288 57.664 43.36 58.36 43.528C59.824 43.864 63.544 45.616 63.544 47.416C63.544 48.208 62.8 48.256 62.68 48.256C62.08 48.256 62.008 48.16 60.4 46.072C59.728 45.184 58.6 44.056 57.856 44.056C57.616 44.056 57.52 44.056 57.52 45.832C57.52 48.376 57.544 49.648 57.64 51.808C57.664 52.072 57.688 52.672 57.688 53.032C57.688 53.632 57.688 55.216 56.992 55.216C56.272 55.216 55.648 53.584 55.648 52.96C55.648 52.864 55.744 52.36 55.744 52.264C55.912 50.272 55.96 49.648 55.96 46.696C55.96 39.832 55.96 39.064 55.672 38.296C55.48 37.792 55.24 37.552 54.856 37.192L54.808 37.096ZM75.616 48.088C75.616 48.808 75.856 49.528 76.24 49.528C76.648 49.528 76.864 49.144 77.392 47.656C77.536 47.248 77.608 47.056 77.728 47.056C77.848 47.056 77.848 47.296 77.848 47.344C77.848 47.608 77.296 50.416 77.296 50.992C77.296 51.4 77.632 52.12 77.68 52.24C77.848 52.576 77.968 52.984 77.968 53.296C77.968 53.776 77.584 54.112 77.176 54.112C75.688 54.112 74.584 50.032 74.584 47.728C74.584 46.192 74.776 45.496 75.592 42.496C76 41.032 76 40.432 76 40C76 39.232 75.856 38.584 75.76 38.296C75.736 38.224 75.616 37.936 75.616 37.864C75.616 37.792 75.712 37.744 75.808 37.744C76.912 37.744 77.92 39.928 77.92 40.792C77.92 41.056 77.92 41.08 77.464 41.896C77.2 42.4 75.616 45.928 75.616 48.088ZM88.048 39.208C88.48 39.28 89.056 39.688 89.056 40.24C89.056 41.416 86.392 41.416 86.104 41.416C83.392 41.416 81.904 39.952 81.904 39.64C81.904 39.592 81.928 39.52 82.072 39.52C82.144 39.52 82.432 39.616 82.744 39.688C83.296 39.808 83.944 39.832 84.376 39.832C85.552 39.832 86.68 39.592 87.016 39.472C87.736 39.208 87.808 39.184 88.048 39.208ZM89.08 51.112C89.992 51.112 90.184 51.64 90.184 51.928C90.184 52.864 89.464 53.152 86.104 53.152C83.752 53.152 82.864 52.552 82.36 52.072C82.24 51.952 81.616 51.328 81.616 50.872C81.616 50.824 81.616 50.632 81.736 50.632C81.832 50.632 82.216 50.92 82.312 50.968C83.008 51.328 83.992 51.376 84.88 51.376C85.504 51.376 86.368 51.376 86.968 51.304C87.304 51.28 88.984 51.112 89.08 51.112ZM104.872 35.464C105.592 35.392 107.272 36.976 107.272 37.624C107.272 37.84 106.144 39.856 106.144 40.264C106.144 40.432 106.264 40.6 106.576 40.816C107.152 41.224 107.44 41.488 107.44 41.848C107.44 42.232 107.176 42.424 105.664 42.952C105.016 43.168 104.968 43.336 104.512 44.848C104.368 45.352 104.008 46.504 104.008 46.936C104.008 47.32 104.104 47.32 105.784 47.464C106.36 47.512 107.488 47.872 107.488 48.472C107.488 48.904 106.84 49.168 106.24 49.168C105.88 49.168 104.152 48.856 104.032 48.856C103.432 48.856 103.432 49.984 103.432 50.512C103.456 51.592 103.744 54.088 106.744 54.088C107.752 54.088 110.2 53.656 110.2 50.824C110.2 49.792 109.984 48.424 107.824 45.4C107.752 45.304 107.728 45.232 107.728 45.16C107.728 44.944 108.256 45.4 108.328 45.448C111.088 47.68 112.168 49.576 112.168 51.256C112.168 53.536 109.864 55.576 107.056 55.576C106.6 55.576 102.472 55.576 102.472 51.232C102.472 50.848 102.664 49.216 102.664 48.88C102.664 48.592 102.616 48.424 102.208 48.112C101.344 47.464 100.912 46.816 100.912 46.072C100.912 45.352 101.176 44.56 102.688 43.336C103.936 42.328 104.08 42.232 104.08 41.896C104.08 41.584 103.96 41.488 103.432 41.08C102.736 40.528 101.824 39.808 101.824 38.8C101.824 38.632 101.872 38.368 102.04 38.368C102.16 38.368 102.568 38.872 102.664 38.944C103.312 39.472 104.008 39.784 104.296 39.784C104.968 39.784 105.16 37.648 105.16 37.312C105.16 36.832 105.04 36.04 104.92 35.704C104.872 35.608 104.872 35.536 104.872 35.464ZM103.6 44.08C103.6 43.888 103.6 43.672 103.288 43.672C102.736 43.672 101.536 44.488 101.536 45.4C101.536 46.12 102.28 46.84 102.76 46.84C102.856 46.84 102.976 46.768 103.024 46.648C103.24 46.24 103.6 44.2 103.6 44.08ZM119.92 44.92L119.464 44.368C119.368 44.272 119.368 44.248 119.368 44.224C119.368 44.176 119.392 44.152 119.44 44.152C119.608 44.152 120.352 44.224 120.496 44.248C121.672 44.296 122.656 44.32 123.784 44.32H136.456C137.584 44.32 137.704 44.32 137.992 43.912C138.496 43.216 138.568 43.12 138.784 43.12C139.072 43.12 140.776 44.464 140.776 44.632C140.776 44.968 140.272 44.968 139.48 44.968H130.432C130.24 44.968 129.736 44.968 129.736 45.64C129.736 46.48 129.712 50.152 129.736 50.896C129.736 51.64 129.808 54.976 129.808 55.672C129.808 56.752 128.776 56.824 128.632 56.824C128.056 56.824 127.912 56.512 127.912 56.104C127.912 55.696 128.032 53.872 128.032 53.488C128.032 53.008 127.84 52.912 127.576 52.912C127.384 52.912 122.512 54.232 121.648 54.832C121.528 54.928 121.024 55.432 120.88 55.432C120.568 55.432 119.68 53.608 119.68 53.536C119.68 53.272 119.896 53.272 120.208 53.272C122.512 53.272 122.8 53.2 122.8 52.528V46.144C122.8 45.304 122.8 44.968 122.032 44.968C121.744 44.968 120.352 45.088 120.136 45.088C120.04 45.088 120.016 45.016 119.92 44.92ZM127.384 47.728H125.104C124.36 47.728 124.36 48.04 124.36 48.928C124.36 49.552 124.36 49.912 125.104 49.912H127.384C128.128 49.912 128.128 49.672 128.128 48.496C128.128 47.92 127.912 47.728 127.384 47.728ZM127.432 44.968H125.056C124.384 44.968 124.384 45.256 124.384 46.408C124.384 47.104 124.864 47.104 125.056 47.104H127.432C128.128 47.104 128.128 46.816 128.128 45.64C128.128 44.968 127.648 44.968 127.432 44.968ZM127.36 50.56H125.08C124.36 50.56 124.36 50.824 124.36 52.072C124.36 52.72 124.84 52.768 124.984 52.768C125.008 52.768 127.624 52.432 127.816 52.336C128.08 52.192 128.08 51.904 128.08 51.256C128.08 50.56 127.576 50.56 127.36 50.56ZM134.512 46.72H135.52C135.904 46.72 136.072 46.72 136.336 46.288C136.72 45.688 136.768 45.616 136.96 45.616C136.984 45.616 137.728 45.928 138.112 46.096C138.472 46.24 139.048 46.48 139.048 46.792C139.048 46.984 138.304 47.776 138.184 47.992C138.016 48.328 137.128 50.68 136.912 51.184C136.816 51.376 136.288 52.36 136.288 52.432C136.288 52.528 136.288 52.576 136.36 52.648C137.08 53.32 138.016 53.896 139.072 54.4C139.36 54.544 140.896 55.12 140.896 55.24C140.896 55.336 140.68 55.408 140.656 55.408C139.912 55.696 139.624 55.792 139.36 56.056C139.264 56.128 138.88 56.608 138.76 56.608C138.64 56.608 137.368 55.72 136.6 55.072C136.36 54.88 135.376 53.728 135.184 53.728C135.112 53.728 135.04 53.776 134.464 54.256C132.448 55.888 131.056 56.344 130.768 56.344C130.72 56.344 130.672 56.344 130.672 56.296C130.672 56.176 131.824 55.384 132.04 55.216C133.552 54.016 134.464 52.648 134.464 52.528C134.464 52.456 134.416 52.36 134.368 52.264C134.248 52.048 133.384 50.584 132.712 48.304C132.472 47.464 132.448 47.368 131.968 47.368C131.8 47.368 131.032 47.464 130.84 47.464C130.768 47.464 130.72 47.416 130.624 47.32L130.168 46.768C130.072 46.648 130.072 46.648 130.072 46.6C130.072 46.552 130.12 46.552 130.144 46.552C130.312 46.552 131.032 46.624 131.2 46.624C131.896 46.648 133.144 46.72 134.512 46.72ZM135.856 47.344H133.576C133.432 47.344 133.168 47.344 133.168 47.68C133.168 48.28 134.632 51.328 135.112 51.328C135.52 51.328 136.408 48.568 136.408 47.752C136.408 47.344 136.096 47.344 135.856 47.344ZM133.168 42.568H126.592C125.944 42.568 125.92 42.592 125.728 42.88C125.56 43.168 125.368 43.48 124.624 43.48C123.856 43.48 123.832 43.072 123.832 42.496C123.832 42.016 123.928 39.64 123.928 39.112C123.928 37.768 123.832 36.832 123.808 36.64C123.808 36.52 123.712 35.992 123.712 35.872C123.712 35.776 123.736 35.584 123.88 35.584C124.096 35.584 125.056 35.992 125.296 36.088C125.728 36.232 125.992 36.28 126.616 36.28H133.192C134.176 36.28 134.296 36.28 134.584 35.944C134.776 35.704 134.872 35.584 135.016 35.584C135.064 35.584 136.792 36.376 136.792 36.832C136.792 37 136.72 37.072 136.384 37.384C136.024 37.696 136.024 37.696 136.024 41.704C136.024 42.352 136.024 43.312 134.824 43.312C134.392 43.312 134.32 43.144 134.152 42.832C134.032 42.592 133.816 42.568 133.168 42.568ZM126.352 39.088H133.648C133.888 39.088 134.368 39.088 134.368 38.392C134.368 37.192 134.368 36.904 133.648 36.904H126.352C126.112 36.904 125.608 36.904 125.608 37.624C125.608 38.824 125.608 39.088 126.352 39.088ZM126.4 41.944H133.6C133.84 41.944 134.344 41.944 134.344 41.272C134.344 39.928 134.344 39.736 133.6 39.736H126.4C126.136 39.736 125.656 39.736 125.656 40.384C125.656 41.752 125.656 41.944 126.4 41.944ZM160.744 42.136H152.704C152.44 42.136 151.936 42.136 151.936 42.808V51.52C151.936 51.976 151.888 52.72 150.952 52.72C150.304 52.72 150.304 52.144 150.304 51.88C150.304 51.544 150.4 50.008 150.4 49.696C150.496 47.272 150.496 47.224 150.496 43.384C150.496 43.024 150.424 41.512 150.424 41.2C150.424 40.984 150.472 40.816 150.736 40.816C151 40.816 151.24 40.936 151.96 41.344C152.272 41.512 152.44 41.512 152.68 41.512H153.64C153.76 41.512 153.928 41.512 153.928 41.32C153.928 41.176 153.52 39.712 153.304 39.232C152.872 38.32 152.776 38.296 152.224 38.296C152.152 38.296 151 38.32 150.376 38.368C150.328 38.368 150.088 38.392 150.04 38.392C149.968 38.392 149.872 38.32 149.824 38.248L149.368 37.696C149.32 37.624 149.272 37.576 149.272 37.528C149.272 37.504 149.296 37.48 149.344 37.48C149.512 37.48 150.256 37.552 150.4 37.576C151.576 37.624 152.584 37.648 153.712 37.648H155.128C155.32 37.648 155.752 37.648 155.752 37.12C155.752 36.928 155.704 36.232 155.632 35.848C155.608 35.728 155.488 35.296 155.488 35.2C155.488 35.056 155.584 34.936 155.776 34.936C155.944 34.936 157.888 35.152 157.888 35.704C157.888 35.872 157.864 35.896 157.6 36.184C157.432 36.352 157.336 36.544 157.336 36.976C157.336 37.6 157.528 37.648 158.032 37.648H159.904C160.984 37.648 161.104 37.648 161.44 37.216C162.112 36.352 162.184 36.256 162.4 36.256C162.664 36.256 164.464 37.576 164.464 37.936C164.464 38.272 164.08 38.272 163.36 38.272H160.072C159.88 38.272 159.76 38.296 159.76 38.392C159.76 38.464 160.048 38.608 160.216 38.752C160.552 38.992 160.84 39.184 160.84 39.472C160.84 39.64 160.768 39.664 160.216 39.856C159.76 40 158.512 41.32 158.512 41.392C158.512 41.512 158.656 41.512 158.752 41.512H160.648C160.912 41.512 161.056 41.488 161.224 41.272C161.584 40.768 161.656 40.648 161.824 40.648C162.064 40.648 163.504 41.56 163.504 42.016C163.504 42.208 163.432 42.256 163.072 42.496C162.904 42.616 162.856 42.832 162.856 43.216V46.264C162.856 46.936 162.976 49.84 162.976 50.416C162.976 51.664 162.736 52.144 162.376 52.456C162.232 52.576 161.776 52.936 161.2 52.936C160.624 52.936 160.6 52.72 160.6 52.384C160.6 51.856 160.24 51.544 160.168 51.496C160.072 51.448 159.616 51.256 159.616 51.184C159.616 51.088 159.712 51.088 159.76 51.088C159.904 51.088 160.528 51.184 160.672 51.184C161.44 51.184 161.44 50.896 161.44 49.744C161.44 48.664 161.464 43.888 161.464 42.928C161.464 42.136 160.984 42.136 160.744 42.136ZM157.456 51.28H155.608C155.224 51.28 155.176 51.352 155.104 51.64C155.008 52.12 154.576 52.312 154.216 52.312C153.784 52.312 153.736 51.952 153.736 51.688C153.736 51.4 153.784 49.264 153.784 48.808C153.784 48.592 153.736 47.488 153.736 47.248C153.736 47.152 153.76 46.936 154.048 46.936C154.24 46.936 155.152 47.416 155.392 47.416C155.776 47.416 155.848 47.224 155.848 46.912C155.848 45.592 155.848 45.448 155.176 45.448C154.936 45.448 153.76 45.544 153.568 45.544C153.496 45.544 153.448 45.496 153.352 45.4L152.896 44.848C152.8 44.728 152.8 44.728 152.8 44.68C152.8 44.632 152.848 44.632 152.872 44.632C153.208 44.632 154.888 44.752 155.248 44.752C155.824 44.752 155.872 44.536 155.872 44.248C155.872 43.888 155.848 43.504 155.776 43.096C155.752 42.88 155.656 42.688 155.656 42.616C155.656 42.472 155.728 42.448 156.04 42.448C156.064 42.448 157.672 42.472 157.672 43.048C157.672 43.216 157.552 43.312 157.36 43.48C157.216 43.6 157.192 43.96 157.192 44.152C157.192 44.728 157.336 44.824 157.984 44.824C158.488 44.824 158.632 44.728 158.896 44.368C159.208 43.96 159.376 43.816 159.544 43.816C159.808 43.816 160.84 44.68 160.84 45.088C160.84 45.4 160.648 45.448 159.472 45.448H157.984C157.192 45.448 157.192 45.568 157.192 46.84C157.192 47.08 157.288 47.416 157.672 47.416C157.912 47.416 158.032 47.248 158.104 47.176C158.344 46.888 158.368 46.816 158.56 46.816C158.872 46.816 159.88 47.464 159.88 47.8C159.88 47.92 159.472 48.352 159.448 48.472C159.4 48.784 159.448 50.608 159.448 50.824C159.448 52.144 158.608 52.144 158.536 52.144C158.224 52.144 158.104 51.928 158.032 51.688C157.912 51.304 157.864 51.28 157.456 51.28ZM158.344 38.272H154.168C153.928 38.272 153.76 38.296 153.76 38.392C153.76 38.464 153.808 38.488 154.192 38.776C154.672 39.112 155.272 39.76 155.272 40.36C155.272 40.648 155.176 40.888 155.104 41.056C155.08 41.104 154.912 41.32 154.912 41.368C154.912 41.512 155.104 41.512 155.176 41.512H157.168C157.552 41.512 157.672 41.512 158.08 40.744C158.224 40.48 158.824 39.232 158.824 38.608C158.824 38.32 158.704 38.272 158.344 38.272ZM157.432 48.04H155.8C155.128 48.04 155.128 48.28 155.128 49.432C155.128 50.392 155.128 50.656 155.8 50.656H157.432C158.08 50.656 158.08 50.416 158.08 49.288C158.08 48.304 158.08 48.04 157.432 48.04ZM145.504 36.568C148.36 37.936 148.84 39.784 148.84 40.216C148.84 40.768 148.432 41.08 148.024 41.08C147.592 41.08 147.496 40.936 146.512 39.544C146.08 38.92 144.496 36.904 144.256 36.64C144.064 36.424 143.896 36.232 143.656 35.992C143.656 35.944 143.728 35.92 143.752 35.92C143.968 35.92 145.12 36.376 145.504 36.568ZM143.512 45.472L143.056 44.92C142.96 44.8 142.96 44.8 142.96 44.752C142.96 44.704 143.008 44.704 143.032 44.704C143.32 44.704 145.312 44.848 145.744 44.848C146.08 44.848 146.224 44.704 146.416 44.488C146.752 44.08 146.92 43.888 147.16 43.888C147.424 43.888 148.696 44.824 148.696 45.208C148.696 45.376 148.552 45.496 148.48 45.544C147.976 45.856 147.88 45.928 147.808 46.12C147.736 46.312 147.736 50.056 147.736 50.512C147.736 51.16 147.736 51.736 148.096 52.336C149.2 54.184 151.672 54.184 153.136 54.184C156.904 54.184 161.752 54.184 164.344 53.512C164.512 53.464 165.328 53.176 165.424 53.176C165.448 53.176 165.496 53.2 165.496 53.248C165.496 53.296 165.472 53.32 165.232 53.584C164.848 54.016 164.344 54.64 164.248 55.048C164.104 55.552 164.056 55.72 163.888 55.816C163.696 55.912 158.608 55.912 158.2 55.912C154.504 55.912 152.296 55.912 150.712 55.312C148.84 54.616 148.096 53.704 147.832 53.296C147.712 53.104 147.256 52.24 147.088 52.24C146.872 52.24 145.24 54.136 144.688 54.832C144.16 55.528 144.112 55.6 143.992 55.6C143.632 55.6 142.456 53.848 142.456 53.584C142.456 53.392 142.552 53.392 142.96 53.392C143.152 53.392 145.816 52.168 146.08 51.712C146.176 51.544 146.176 51.016 146.176 46.336C146.176 45.544 145.864 45.544 145.288 45.544C145.072 45.544 143.872 45.64 143.728 45.64C143.632 45.64 143.608 45.568 143.512 45.472ZM174.448 38.848C174.616 38.704 174.664 38.32 174.664 38.104C174.664 37.744 174.544 37.384 174.328 37.048C174.256 36.928 173.872 36.472 173.872 36.376C173.872 36.088 174.376 35.872 174.856 35.872C175.816 35.872 176.2 36.4 176.584 36.928C176.704 37.096 176.944 37.192 177.664 37.384C178.12 37.504 179.032 37.768 179.032 38.44C179.032 39.352 177.688 39.784 175.744 40.36C175.528 40.432 175.504 40.504 175.288 41.344C175 42.544 172.936 50.656 170.728 50.656C170.08 50.656 169.984 50.224 169.984 49.984C169.984 49.648 170.056 49.528 170.776 48.496C173.392 44.656 174.088 40.792 174.088 40.672C174.088 40.456 173.92 40.432 173.56 40.408C170.728 40.168 170.728 38.488 170.728 38.464C170.728 38.368 170.752 38.176 170.896 38.176C170.992 38.176 171.064 38.2 171.544 38.488C171.808 38.656 172.48 38.992 173.392 38.992C173.44 38.992 174.28 38.992 174.448 38.848ZM175.96 38.632C176.032 38.704 177.472 38.392 177.472 38.032C177.472 37.864 176.632 37.432 176.488 37.432C176.08 37.432 175.912 38.416 175.912 38.488C175.912 38.536 175.936 38.608 175.96 38.632ZM181.72 52.744C181.624 52.792 181.624 52.888 181.576 53.128C181.264 55.216 179.44 55.744 178.192 55.744C175.912 55.744 174.568 54.16 174.568 52.96C174.568 51.4 176.272 50.584 178.432 50.584C178.624 50.584 179.512 50.632 179.68 50.632C179.896 50.632 180.016 50.608 180.016 50.368C180.016 50.008 179.92 48.4 179.92 48.064C179.92 45.424 180.064 44.152 182.08 43C183.568 42.136 183.736 42.064 183.736 41.44C183.736 40.912 183.208 40.36 183.064 40.216C182.848 40.024 182.752 39.928 182.752 39.832C182.752 39.76 182.824 39.712 182.92 39.712C183.088 39.712 183.832 39.928 184.336 40.12C185.992 40.744 186.088 42.208 186.088 42.568C186.088 43.48 185.44 43.816 184.96 43.816C184.936 43.816 184.648 43.816 184.408 43.72C183.496 43.384 183.4 43.336 183.112 43.336C182.536 43.336 181.744 43.672 181.36 44.056C180.808 44.584 180.784 45.448 180.784 46.048C180.784 46.648 181.024 50.368 181.744 50.872C181.96 51.04 183.088 51.424 183.304 51.544C183.808 51.808 185.2 52.576 185.2 53.464C185.2 53.872 185.032 54.304 184.552 54.304C184.312 54.304 184.168 54.232 183.808 53.92C183.16 53.344 182.056 52.6 181.72 52.744ZM180.088 52.12C179.968 51.76 178.672 51.76 178.12 51.76C177.568 51.76 175.408 51.76 175.408 53.032C175.408 53.608 176.128 54.328 177.568 54.328C179.896 54.328 180.232 52.504 180.088 52.12ZM10.5022 89H2.99022C2.84622 89 2.29422 88.976 2.29422 88.64C2.29422 87.368 3.83022 85.52 4.38222 84.872C10.0462 78.128 10.5502 77.504 10.5502 75.224C10.5502 73.088 8.99022 71.84 7.35822 71.84C5.91822 71.84 4.67022 72.824 4.67022 73.856C4.67022 73.928 4.67022 74.24 4.91022 74.576C5.22222 75.032 5.41422 75.296 5.41422 75.728C5.41422 76.424 4.83822 77.024 4.11822 77.024C3.30222 77.024 2.75022 76.304 2.75022 75.392C2.75022 73.352 4.86222 71.048 7.91022 71.048C10.5022 71.048 12.7102 72.728 12.7102 75.56C12.7102 78.032 11.1982 79.4 9.15822 81.104C5.53422 84.128 4.23822 86.36 4.23822 86.816C4.23822 87.176 5.00622 87.176 5.10222 87.176H7.57422C9.99822 87.176 11.3902 86.504 12.0622 84.92C12.4462 84.032 12.4462 84.008 12.5902 84.008C12.8302 84.008 12.8302 84.296 12.8302 84.344C12.8302 84.536 12.0622 87.632 11.9422 88.136C11.7262 89 10.8862 89 10.5022 89ZM18.5662 79.256C17.1262 79.256 15.7822 77.888 15.7822 77.192C15.7822 76.928 15.9262 76.808 16.1422 76.808C16.3822 76.808 17.3902 77.096 17.6062 77.096C18.2062 77.096 18.5182 76.952 21.4702 75.752C22.6222 75.296 25.9102 73.952 28.1902 73.952C31.7182 73.952 34.3102 76.688 34.3102 79.88C34.3342 84.248 29.8462 86.84 24.6862 86.84C24.4702 86.84 24.1102 86.84 24.1102 86.528C24.1102 86.336 24.2062 86.336 25.0942 86.216C31.0222 85.376 32.4622 81.152 32.4622 79.016C32.4622 76.232 30.2062 75.008 28.5742 75.008C26.2942 75.008 22.8622 76.832 20.7742 78.272C19.5742 79.112 19.2142 79.256 18.5662 79.256ZM50.1022 72.68C49.6222 72.68 49.5982 72.872 49.5982 73.016C49.5982 73.088 49.6462 73.184 49.6462 73.28C49.7422 74.048 49.8862 74.816 49.8862 75.872C49.8862 77.48 49.5262 79.712 47.4142 82.904C45.4942 85.832 44.2702 86.408 43.3102 86.408C41.7262 86.408 40.3102 83.936 40.3102 81.008C40.3102 79.736 40.5742 77.312 42.9742 74.888C46.0222 71.768 49.2382 71.768 50.6302 71.768C52.8142 71.768 53.8222 72.2 54.4942 72.536C57.0862 73.808 58.6702 76.376 58.6702 79.52C58.6702 82.64 56.8702 86.48 52.6222 87.968C50.5822 88.688 48.9982 88.856 48.6382 88.856C48.5422 88.856 48.3982 88.832 48.3982 88.688C48.3982 88.616 48.4462 88.592 49.0462 88.352C51.5422 87.368 56.7502 85.304 56.7502 79.328C56.7502 78.392 56.6542 72.68 50.1022 72.68ZM48.7582 72.752C46.4782 72.752 41.7982 75.848 41.7982 80.384C41.7982 81.944 42.4222 84.08 43.8862 84.08C44.5822 84.08 45.1582 83.792 46.8142 81.296C48.0862 79.352 49.1662 76.688 49.1662 74.312C49.1662 72.872 49.0702 72.752 48.7582 72.752ZM62.8462 71.504H70.0942C72.7822 71.504 76.1902 72.392 76.1902 75.368C76.1902 77.24 74.7982 78.68 73.2862 79.256C73.1422 79.304 72.7102 79.472 72.7102 79.592C72.7102 79.712 73.7182 79.928 73.9102 80C75.9742 80.816 77.1982 82.496 77.1982 84.176C77.1982 86.456 75.1582 89 70.6702 89H62.6302C62.2702 89 61.9102 89 61.9102 88.616C61.9102 88.232 62.2702 88.232 62.6542 88.232C63.4462 88.232 64.5022 88.232 64.7182 86.984C64.8142 86.504 64.8622 79.736 64.8622 78.8C64.8622 77.744 64.8862 73.832 64.6462 73.184C64.3342 72.296 63.2062 72.296 62.9662 72.296C62.1742 72.296 61.9102 72.296 61.9102 71.888C61.9102 71.504 62.1502 71.504 62.8462 71.504ZM67.2862 79.352H69.8782C72.1342 79.352 73.9582 78.152 73.9582 75.704C73.9582 73.376 72.3502 72.296 70.0942 72.296H68.3902C66.6622 72.296 66.6622 73.376 66.6622 75.464C66.6622 76.664 66.6622 78.824 66.7342 79.04C66.8302 79.256 67.1422 79.352 67.2862 79.352ZM70.5502 80.12H67.2862C67.1182 80.12 66.8302 80.216 66.7342 80.432C66.6382 80.648 66.6382 84.056 66.6382 84.608C66.6382 87.224 66.6382 88.232 68.3902 88.232H70.4782C73.0702 88.232 74.9182 86.768 74.9182 84.248C74.9182 82.136 73.4782 80.12 70.5502 80.12ZM94.9479 80.264C94.9479 85.64 91.7559 89.456 87.1239 89.456C82.4919 89.456 79.2759 85.664 79.2759 80.264C79.2759 74.864 82.4679 71.048 87.1239 71.048C91.7319 71.048 94.9479 74.84 94.9479 80.264ZM87.1239 88.664C92.4759 88.664 92.6679 81.68 92.6679 80.048C92.6679 77.84 92.0439 71.84 87.1239 71.84C81.7479 71.84 81.5559 78.896 81.5559 80.48C81.5559 82.784 82.2519 88.664 87.1239 88.664ZM103.079 89H97.7028C97.4148 89 97.0548 89 97.0548 88.616C97.0548 88.256 97.3668 88.232 97.6788 88.208C99.2388 88.088 100.727 85.832 102.167 83.624C102.455 83.192 103.655 81.368 103.919 80.984C103.967 80.912 104.183 80.576 104.183 80.336C104.183 80.12 104.111 80 103.463 78.92C100.415 73.976 100.079 73.424 99.6228 72.992C98.9508 72.344 98.4708 72.32 97.8228 72.296C97.5348 72.272 97.4388 72.056 97.4388 71.912C97.4388 71.504 97.7988 71.504 97.9908 71.504H103.895C104.183 71.504 104.543 71.504 104.543 71.912C104.543 72.296 104.159 72.296 104.063 72.296C103.607 72.296 102.503 72.296 102.503 73.256C102.503 73.688 102.671 73.976 104.207 76.448C104.471 76.88 104.879 77.552 105.143 77.96C105.215 78.08 105.383 78.344 105.527 78.344C105.695 78.344 105.887 78.008 106.247 77.48C106.631 76.904 108.527 74.144 108.695 73.76C108.791 73.568 108.863 73.352 108.863 73.136C108.863 72.296 107.975 72.296 107.591 72.296C107.039 72.296 106.751 72.296 106.751 71.912C106.751 71.504 107.111 71.504 107.351 71.504H112.295C112.487 71.504 112.847 71.504 112.847 71.912C112.847 72.008 112.799 72.296 112.415 72.296C110.591 72.296 109.511 73.904 107.999 76.232C107.735 76.64 106.583 78.344 106.367 78.704C106.319 78.776 106.103 79.112 106.103 79.328C106.103 79.568 106.175 79.688 106.823 80.744C109.895 85.736 110.231 86.288 110.711 86.84C111.383 87.632 112.343 88.208 113.399 88.232C113.687 88.232 113.807 88.448 113.807 88.616C113.807 89 113.447 89 113.159 89H106.967C106.655 89 106.319 89 106.319 88.616C106.319 88.232 106.655 88.232 106.991 88.232C107.351 88.232 108.263 88.088 108.263 87.176C108.263 86.744 108.239 86.72 107.063 84.824C106.439 83.792 105.263 81.872 105.167 81.728C105.095 81.632 104.903 81.344 104.783 81.344C104.591 81.344 103.943 82.328 103.727 82.64C103.055 83.648 101.951 85.232 101.327 86.24C101.231 86.408 101.015 86.768 101.015 87.248C101.015 88.112 101.903 88.232 102.959 88.232C103.487 88.232 103.775 88.232 103.775 88.616C103.775 89 103.439 89 103.079 89ZM117.906 78.512C117.978 78.512 118.002 78.512 118.338 78.608C118.554 78.656 118.986 78.68 119.226 78.68C120.186 78.68 120.594 78.56 124.242 77.6C124.89 77.432 124.938 77.24 124.938 75.968C124.938 73.376 124.65 72.968 124.074 72.104C124.05 72.056 123.786 71.696 123.786 71.648C123.786 71.432 124.674 71.24 124.89 71.24C125.178 71.24 125.442 71.36 126.546 72.296C126.618 72.368 127.05 72.776 127.05 73.016C127.05 73.208 126.642 73.952 126.594 74.096C126.402 74.864 126.234 76.304 126.234 76.4C126.234 76.712 126.426 76.856 126.714 76.856C126.858 76.856 129.642 76.16 130.314 75.848C130.482 75.776 131.178 75.344 131.346 75.344C131.994 75.344 134.562 77.192 134.562 78.176C134.562 78.344 134.442 78.536 134.13 78.536C134.034 78.536 133.578 78.488 133.482 78.488C132.978 78.488 132.714 78.656 131.85 79.184C131.25 79.568 130.146 80.264 130.05 80.264C129.978 80.264 129.906 80.216 129.906 80.12C129.906 80.096 130.314 79.424 130.362 79.328C130.722 78.752 131.034 77.984 131.034 77.336C131.034 77.192 131.01 76.856 130.746 76.856C130.698 76.856 127.098 78.032 126.786 78.128C126.234 78.32 126.042 78.536 126.042 79.16C126.042 81.176 126.042 83.336 126.09 83.792C126.282 85.688 127.626 85.904 129.066 85.904C129.978 85.904 131.49 85.712 131.706 85.664C132.45 85.472 133.194 85.328 133.698 85.328C134.274 85.328 134.706 85.712 134.706 86.096C134.706 87.632 130.674 87.632 129.378 87.632C125.226 87.632 124.722 86.552 124.722 82.568C124.722 82.088 124.77 80 124.77 79.592C124.77 79.208 124.626 79.04 124.29 79.04C124.05 79.04 122.226 79.616 122.034 79.712C120.618 80.456 120.474 80.528 119.946 80.528C118.722 80.528 117.762 78.704 117.762 78.608C117.762 78.536 117.858 78.512 117.906 78.512ZM154.818 78.08C154.818 77.6 154.77 77.336 154.65 77.048C154.65 77.024 154.602 76.904 154.602 76.832C154.602 76.712 154.698 76.664 154.77 76.664C154.962 76.664 155.682 77.168 155.85 77.264C156.234 77.456 157.194 78.032 157.194 78.728C157.194 78.92 157.098 78.944 156.69 79.184C156.498 79.304 155.658 80.936 155.466 81.248C151.794 87.344 145.89 89.72 145.698 89.72C145.626 89.72 145.554 89.648 145.554 89.576C145.554 89.456 146.682 88.736 146.898 88.568C152.01 84.656 154.818 80.144 154.818 78.08ZM144.306 78.872C144.882 78.872 147.234 80.072 147.234 81.992C147.234 82.664 146.682 82.904 146.418 82.904C145.89 82.904 145.722 82.352 145.554 81.824C145.338 81.152 144.81 80.216 144.162 79.4C144.042 79.232 143.994 79.16 143.994 79.088C143.994 78.944 144.138 78.872 144.306 78.872ZM148.458 76.664C149.586 76.832 150.906 78.032 150.906 79.376C150.906 80.072 150.522 80.6 150.09 80.6C149.562 80.6 149.442 80 149.37 79.592C149.202 78.824 149.13 78.608 148.482 77.312C148.434 77.216 148.218 76.88 148.218 76.784C148.218 76.712 148.338 76.64 148.458 76.664ZM171.234 71.096C171.258 70.88 171.882 70.88 171.906 70.88C172.77 70.88 174.498 71.648 174.498 72.416C174.498 72.584 174.258 73.28 174.21 73.424C174.09 74.024 173.994 76.16 173.994 76.76C173.994 77.288 174.09 77.36 174.786 77.528C176.25 77.864 179.97 79.616 179.97 81.416C179.97 82.208 179.226 82.256 179.106 82.256C178.506 82.256 178.434 82.16 176.826 80.072C176.154 79.184 175.026 78.056 174.282 78.056C174.042 78.056 173.946 78.056 173.946 79.832C173.946 82.376 173.97 83.648 174.066 85.808C174.09 86.072 174.114 86.672 174.114 87.032C174.114 87.632 174.114 89.216 173.418 89.216C172.698 89.216 172.074 87.584 172.074 86.96C172.074 86.864 172.17 86.36 172.17 86.264C172.338 84.272 172.386 83.648 172.386 80.696C172.386 73.832 172.386 73.064 172.098 72.296C171.906 71.792 171.666 71.552 171.282 71.192L171.234 71.096Z" fill="white"/>
</svg>
