<svg width="284" height="54" viewBox="0 0 284 54" fill="none" xmlns="http://www.w3.org/2000/svg">
<path d="M5.888 5.288H9.44C10.184 5.288 10.184 5 10.184 3.8C10.184 2.144 10.088 1.424 10.04 0.991999C10.016 0.871999 9.848 0.343998 9.848 0.223999C9.848 0.103999 9.944 0.0559993 10.112 0.0559993C10.28 0.0559993 12.704 0.295999 12.704 0.895998C12.704 1.04 12.2 1.496 12.128 1.616C11.96 1.976 11.912 3.872 11.912 4.376C11.912 5 11.936 5.288 12.68 5.288H15.776C16.88 5.288 17 5.288 17.312 4.88C18.032 3.896 18.104 3.8 18.32 3.8C18.584 3.8 20.504 5.408 20.504 5.624C20.504 5.936 19.952 5.936 19.232 5.936H12.656C12.392 5.936 12.056 5.936 11.936 6.344C11.888 6.536 11.888 10.28 11.888 10.976C11.888 11.72 11.936 12.008 12.68 12.008H15.056C16.184 12.008 16.304 12.008 16.592 11.6C17.336 10.616 17.408 10.52 17.624 10.52C17.888 10.52 19.808 12.128 19.808 12.344C19.808 12.656 19.256 12.656 18.512 12.656H12.704C12.008 12.656 11.936 12.896 11.936 13.472C11.936 14.192 11.96 19.352 11.984 19.472C12.08 19.832 12.368 19.88 12.752 19.88H17.144C18.248 19.88 18.368 19.88 18.68 19.472C19.4 18.488 19.472 18.368 19.688 18.368C19.952 18.368 21.872 19.976 21.872 20.192C21.872 20.504 21.32 20.504 20.6 20.504H4.664C2.552 20.504 1.856 20.552 1.64 20.576C1.544 20.576 1.208 20.624 1.112 20.624C1.04 20.624 0.992 20.576 0.92 20.48L0.44 19.928C0.344 19.808 0.344 19.808 0.344 19.76C0.344 19.712 0.368 19.712 0.44 19.712C0.584 19.712 1.328 19.784 1.496 19.784C2.672 19.832 3.656 19.88 4.784 19.88H9.368C9.8 19.88 10.16 19.88 10.16 19.016V13.232C10.16 12.944 10.016 12.656 9.464 12.656H6.656C4.544 12.656 3.848 12.704 3.632 12.704C3.536 12.728 3.2 12.776 3.128 12.776C3.032 12.776 2.984 12.704 2.912 12.608L2.432 12.056C2.36 11.96 2.336 11.936 2.336 11.912C2.336 11.864 2.36 11.84 2.432 11.84C2.6 11.84 3.32 11.912 3.488 11.936C4.664 11.984 5.648 12.008 6.776 12.008H9.44C10.16 12.008 10.16 11.648 10.16 11.264V6.56C10.112 6.104 9.896 5.936 9.464 5.936H5.504C4.76 5.936 4.712 6.008 4.112 7.016C2.792 9.224 1.16 11.192 0.776 11.192C0.68 11.192 0.656 11.12 0.656 11.048C0.656 11 1.04 10.28 1.256 9.896C3.896 5.024 4.352 1.928 4.424 1.448C4.472 0.991999 4.52 0.943999 4.568 0.943999C4.616 0.943999 6.92 1.88 6.92 2.288C6.92 2.48 6.152 3.008 6.056 3.152C5.912 3.344 5.288 4.76 5.288 4.976C5.288 5.288 5.576 5.288 5.888 5.288ZM35.384 2.552C35.384 2.072 35.072 1.328 34.952 1.064C34.928 0.991999 34.784 0.751999 34.784 0.704C34.784 0.535999 35.24 0.535999 35.384 0.535999C36.032 0.535999 37.328 1.136 37.328 1.64C37.328 1.88 36.8 2.744 36.728 2.912C36.56 3.296 36.368 4.136 36.368 4.472C36.368 4.52 36.368 4.616 36.464 4.616C36.536 4.616 36.608 4.592 37.136 4.4C37.352 4.328 37.688 4.208 38 4.208C38.24 4.208 38.696 4.28 38.696 4.664C38.696 5.552 37.064 6.032 36.392 6.248C36.2 6.296 36.152 6.32 36.128 6.68C36.104 6.752 36.008 8.024 36.008 9.008C36.008 9.56 36.008 9.704 36.32 9.704C36.584 9.704 38.312 9.224 38.312 8.456C38.312 8.384 38.216 8.096 38.216 8.024C38.216 7.952 38.288 7.952 38.336 7.952C38.456 7.952 38.96 8.072 39.08 8.072C40.064 8.144 40.688 8.192 40.688 8.72C40.688 9.56 38.024 10.664 36.92 11.024C36.176 11.288 36.104 11.312 36.104 11.552C36.104 12.008 36.368 14.768 36.392 15.008C36.488 15.8 36.488 15.896 36.992 16.088C38.864 16.856 40.4 18.128 40.4 19.256C40.4 19.88 39.968 20.264 39.584 20.264C39.248 20.264 39.152 20.144 38.288 19.112C37.808 18.512 36.872 17.816 36.608 17.816C36.464 17.816 36.416 17.936 36.296 18.2C35.792 19.328 34.184 20.624 32.216 20.624C29.96 20.624 29.144 19.016 29.144 18.032C29.144 16.592 30.608 15.488 33.464 15.488C33.68 15.488 34.568 15.56 34.736 15.56C35 15.56 35 15.488 35 14.672C35 14.192 34.976 12.584 34.952 11.936C34.952 11.72 34.952 11.576 34.712 11.576C34.376 11.576 32.936 11.696 32.624 11.696C32.072 11.696 30.392 11.72 29.312 10.712C28.976 10.376 28.616 9.8 28.616 9.608C28.616 9.56 28.616 9.512 28.688 9.512C28.832 9.512 29.48 9.8 29.6 9.848C30.68 10.208 31.76 10.28 32.504 10.28C33.08 10.28 34.688 10.28 34.856 9.824C34.88 9.752 35.072 6.608 35.072 6.584C35.072 6.464 34.952 6.464 34.568 6.44C32.864 6.32 31.352 5.096 31.352 4.16C31.352 4.112 31.376 3.992 31.448 3.992C31.472 3.992 32.048 4.328 32.12 4.376C33.176 5.024 34.088 5.024 34.448 5.024C34.952 5.024 35.192 4.904 35.24 4.664C35.312 4.424 35.384 3.056 35.384 2.552ZM34.808 17.048C34.64 16.64 32.96 16.544 32.528 16.544C32.48 16.544 29.96 16.544 29.96 17.912C29.96 18.824 31.208 19.112 31.88 19.112C32.672 19.112 33.704 18.728 34.256 18.224C34.688 17.84 34.904 17.264 34.808 17.048ZM54.008 1.424C54.8 1.424 56.288 2.6 56.288 3.032C56.288 3.224 56.072 4.28 56.048 4.496C56.024 4.64 55.928 5.6 55.928 6.224C55.928 6.728 56 6.848 56.432 7.064C56.648 7.184 56.792 7.304 56.792 7.544C56.792 7.616 56.768 7.904 56.576 8.168C56.072 8.864 56 8.96 56 9.032C56 9.08 56.024 9.104 56.072 9.104C56.12 9.104 56.192 9.056 56.672 8.6C57.92 7.4 60.824 4.664 63.056 4.664C64.688 4.664 65.408 5.816 65.408 7.52C65.408 8.408 65.288 9.512 65.12 10.592C64.76 13.016 64.736 13.376 64.736 14.192C64.736 15.128 64.88 16.424 66.512 16.424C66.896 16.424 67.928 16.424 69.032 15.224C69.2 15.032 69.416 14.816 69.536 14.816C69.632 14.816 69.68 14.936 69.68 15.008C69.68 15.344 68.36 18.128 65.816 18.128C62.984 18.128 62.984 15.272 62.984 14.624C62.984 14.048 63.008 13.784 63.272 12.368C63.68 10.184 63.92 7.952 63.92 7.352C63.92 6.92 63.92 5.696 62.432 5.696C60.728 5.696 58.688 7.4 57.104 8.888C55.496 10.4 55.256 11.384 55.256 13.808C55.256 14.888 55.328 16.232 55.448 16.904C55.688 18.464 55.736 18.656 55.736 19.136C55.736 19.928 55.544 20.48 54.8 20.48C54.056 20.48 53.96 19.928 53.72 18.656C53.672 18.344 53.024 16.016 52.784 16.016C52.688 16.016 52.664 16.088 52.496 16.664C52.28 17.384 51.896 18.008 51.176 18.008C50.624 18.008 50.312 17.528 50.312 17.12C50.312 16.28 51.128 14.864 51.368 14.432C51.464 14.24 51.68 13.88 51.68 13.64C51.68 13.376 51.248 12.176 51.128 11.84C50.6 10.496 50.576 10.328 50.576 9.92C50.576 8.84 51.296 8.192 51.776 8.048C53.432 7.544 54.344 7.28 54.632 7.064C54.776 6.968 54.8 6.8 54.8 6.368C54.8 5.072 54.68 3.968 54.176 2.864C54.08 2.672 53.456 1.832 53.456 1.664C53.456 1.448 53.84 1.424 54.008 1.424ZM54.392 8.696C54.344 8.576 54.224 8.552 54.128 8.552C53.936 8.552 51.44 9.056 51.44 10.256C51.44 11.096 52.016 12.896 52.232 12.896C52.328 12.896 52.448 12.752 52.496 12.656C52.544 12.536 53.84 10.016 53.96 9.776C54.176 9.344 54.44 8.816 54.392 8.696ZM53.96 16.64C54.128 16.64 54.128 16.472 54.128 14.12C54.128 14 54.176 13.328 54.176 13.28C54.176 13.208 54.176 13.064 54.056 13.064C53.816 13.064 53.12 14.648 53.12 14.912C53.12 15.512 53.912 16.64 53.96 16.64ZM85.424 17.912C86.24 17.912 87.92 16.448 87.92 14.456C87.92 12.488 86.264 10.808 83.864 10.808C80.696 10.808 78.656 14.096 78.224 14.84C77.744 15.656 77.504 16.112 76.856 16.112C76.28 16.112 76.16 15.632 76.16 15.44C76.16 14.84 76.352 14.312 78.056 12.32C79.616 10.496 79.856 10.184 83.48 5.096C84.272 3.968 84.608 3.464 84.608 3.2C84.608 3.032 84.44 2.864 84.152 2.864C83.264 2.864 81.848 4.064 81.44 4.4C80.48 5.192 80.144 5.264 79.736 5.264C78.608 5.264 77.864 3.728 77.864 3.608C77.864 3.536 77.936 3.536 78.44 3.536C79.712 3.536 81.488 2.96 82.16 2.672C83.648 2.024 83.816 1.952 84.344 1.952C85.304 1.952 86.864 2.552 86.864 3.608C86.864 4.304 86.312 4.688 85.16 5.48C83.432 6.704 81.32 9.992 81.32 10.4C81.32 10.472 81.392 10.568 81.464 10.568C81.608 10.52 81.92 10.4 82.064 10.352C82.832 10.064 83.504 9.968 84.176 9.968C87.248 9.968 89.576 12.248 89.576 14.96C89.576 18.008 86.624 20.144 83.576 20.144C81.2 20.144 79.496 18.872 79.496 17.672C79.496 16.808 80.504 15.728 81.872 15.728C83 15.728 83.936 16.4 84.608 17.264C84.944 17.696 85.088 17.912 85.424 17.912ZM83.216 18.152C83.216 17.576 82.64 16.616 81.752 16.616C81.176 16.616 80.744 17.072 80.744 17.456C80.744 18.08 81.776 18.584 82.808 18.584C83.048 18.584 83.216 18.416 83.216 18.152ZM104.816 7.112C105.44 7.112 106.232 7.472 107.816 9.056C110.744 11.96 113.12 13.04 114.536 13.688C115.64 14.168 116.648 14.72 116.648 15.416C116.648 15.56 116.432 16.328 115.76 16.328C115.496 16.328 113.336 16.184 109.808 12.824C109.232 12.272 106.664 9.68 106.136 9.176C105.584 8.648 105.176 8.336 104.792 8.336C104 8.336 103.784 8.552 101.816 10.472C101.648 10.64 99.896 12.296 99.848 12.32C99.752 12.392 99.608 12.44 99.464 12.44C98.552 12.44 97.136 11.312 97.136 10.904C97.136 10.808 97.184 10.808 97.592 10.736C97.688 10.736 99.608 10.376 101.504 8.888C103.52 7.28 103.976 7.112 104.816 7.112ZM114.032 3.392C115.904 3.656 117.08 4.76 117.08 5.816C117.08 6.224 116.816 6.584 116.432 6.584C115.904 6.584 115.592 6.056 115.256 5.504C114.968 5 114.104 4.28 113.384 3.872C113.144 3.728 113.12 3.632 113.12 3.584C113.12 3.392 113.6 3.32 114.032 3.392ZM110.936 5.768C112.76 5.768 114.392 7.064 114.392 8.096C114.392 8.432 114.08 9.008 113.648 9.008C113.288 9.008 113.072 8.792 112.424 7.88C112.04 7.352 111.776 7.088 110.84 6.32C110.744 6.248 110.528 6.056 110.528 5.96C110.528 5.84 110.744 5.768 110.936 5.768ZM131.168 0.895998C131.192 0.847999 131.264 0.847999 131.336 0.847999C131.912 0.847999 134.288 2.072 134.288 2.96C134.288 3.608 127.856 9.824 127.856 10.856C127.856 11.264 128.048 11.624 128.576 12.176C130.712 14.504 133.976 18.032 133.976 19.688C133.976 20.48 133.448 20.816 132.944 20.816C132.2 20.816 132.056 20.36 131.552 18.944C130.808 16.832 128.192 13.64 127.568 12.872C126.824 11.96 126.632 11.6 126.632 11.096C126.632 10.448 126.944 9.728 128.576 7.688C130.952 4.712 131.84 3.464 131.84 2.576C131.84 2.072 131.624 1.712 131.24 1.184C131.168 1.064 131.12 0.967999 131.168 0.895998ZM150.776 1.424C152.024 1.424 153.08 3.368 153.08 3.92C153.08 4.16 152.672 5.072 152.624 5.264C152.288 6.488 151.616 11.792 151.616 13.808C151.616 16.232 152.072 18.392 155.288 18.392C156.464 18.392 158.192 18.152 160.328 17.144C160.688 16.976 162.512 15.968 162.608 15.968C162.704 15.968 162.728 16.04 162.728 16.088C162.728 16.352 159.176 20.216 154.664 20.216C151.544 20.216 150.056 18.416 150.056 13.592C150.056 12.104 150.104 11.624 150.608 6.92C150.704 6.128 150.92 4.16 150.92 3.488C150.92 3.056 150.848 2.648 150.704 2.312C150.68 2.24 150.44 1.688 150.44 1.664C150.44 1.496 150.632 1.424 150.776 1.424ZM170.456 5.792C170.552 5.672 171.272 5.888 171.392 5.888C172.424 5.888 172.784 5.792 176.072 4.856C178.208 4.256 183.68 2.696 185.288 2.696C186.128 2.696 187.208 3.032 187.208 3.848C187.208 4.472 186.584 4.736 186.248 4.736C185.936 4.736 184.568 4.472 184.28 4.472C181.232 4.472 177.824 7.28 177.824 13.472C177.824 17.504 179.336 17.768 180.752 17.768C181.112 17.768 182.84 17.624 183.032 17.624C183.776 17.624 184.232 17.936 184.232 18.512C184.232 19.784 181.592 19.784 181.448 19.784C176.528 19.784 176.528 15.776 176.528 14.648C176.528 13.592 176.552 8.504 180.032 5.408C180.128 5.336 180.608 4.952 180.608 4.904C180.608 4.856 180.512 4.856 180.464 4.856C179.096 4.856 174.104 6.992 173.336 7.424C173 7.616 172.76 7.736 172.496 7.736C171.296 7.736 170.168 6.128 170.456 5.792ZM197.888 5.288H201.44C202.184 5.288 202.184 5 202.184 3.8C202.184 2.144 202.088 1.424 202.04 0.991999C202.016 0.871999 201.848 0.343998 201.848 0.223999C201.848 0.103999 201.944 0.0559993 202.112 0.0559993C202.28 0.0559993 204.704 0.295999 204.704 0.895998C204.704 1.04 204.2 1.496 204.128 1.616C203.96 1.976 203.912 3.872 203.912 4.376C203.912 5 203.936 5.288 204.68 5.288H207.776C208.88 5.288 209 5.288 209.312 4.88C210.032 3.896 210.104 3.8 210.32 3.8C210.584 3.8 212.504 5.408 212.504 5.624C212.504 5.936 211.952 5.936 211.232 5.936H204.656C204.392 5.936 204.056 5.936 203.936 6.344C203.888 6.536 203.888 10.28 203.888 10.976C203.888 11.72 203.936 12.008 204.68 12.008H207.056C208.184 12.008 208.304 12.008 208.592 11.6C209.336 10.616 209.408 10.52 209.624 10.52C209.888 10.52 211.808 12.128 211.808 12.344C211.808 12.656 211.256 12.656 210.512 12.656H204.704C204.008 12.656 203.936 12.896 203.936 13.472C203.936 14.192 203.96 19.352 203.984 19.472C204.08 19.832 204.368 19.88 204.752 19.88H209.144C210.248 19.88 210.368 19.88 210.68 19.472C211.4 18.488 211.472 18.368 211.688 18.368C211.952 18.368 213.872 19.976 213.872 20.192C213.872 20.504 213.32 20.504 212.6 20.504H196.664C194.552 20.504 193.856 20.552 193.64 20.576C193.544 20.576 193.208 20.624 193.112 20.624C193.04 20.624 192.992 20.576 192.92 20.48L192.44 19.928C192.344 19.808 192.344 19.808 192.344 19.76C192.344 19.712 192.368 19.712 192.44 19.712C192.584 19.712 193.328 19.784 193.496 19.784C194.672 19.832 195.656 19.88 196.784 19.88H201.368C201.8 19.88 202.16 19.88 202.16 19.016V13.232C202.16 12.944 202.016 12.656 201.464 12.656H198.656C196.544 12.656 195.848 12.704 195.632 12.704C195.536 12.728 195.2 12.776 195.128 12.776C195.032 12.776 194.984 12.704 194.912 12.608L194.432 12.056C194.36 11.96 194.336 11.936 194.336 11.912C194.336 11.864 194.36 11.84 194.432 11.84C194.6 11.84 195.32 11.912 195.488 11.936C196.664 11.984 197.648 12.008 198.776 12.008H201.44C202.16 12.008 202.16 11.648 202.16 11.264V6.56C202.112 6.104 201.896 5.936 201.464 5.936H197.504C196.76 5.936 196.712 6.008 196.112 7.016C194.792 9.224 193.16 11.192 192.776 11.192C192.68 11.192 192.656 11.12 192.656 11.048C192.656 11 193.04 10.28 193.256 9.896C195.896 5.024 196.352 1.928 196.424 1.448C196.472 0.991999 196.52 0.943999 196.568 0.943999C196.616 0.943999 198.92 1.88 198.92 2.288C198.92 2.48 198.152 3.008 198.056 3.152C197.912 3.344 197.288 4.76 197.288 4.976C197.288 5.288 197.576 5.288 197.888 5.288ZM227.384 2.552C227.384 2.072 227.072 1.328 226.952 1.064C226.928 0.991999 226.784 0.751999 226.784 0.704C226.784 0.535999 227.24 0.535999 227.384 0.535999C228.032 0.535999 229.328 1.136 229.328 1.64C229.328 1.88 228.8 2.744 228.728 2.912C228.56 3.296 228.368 4.136 228.368 4.472C228.368 4.52 228.368 4.616 228.464 4.616C228.536 4.616 228.608 4.592 229.136 4.4C229.352 4.328 229.688 4.208 230 4.208C230.24 4.208 230.696 4.28 230.696 4.664C230.696 5.552 229.064 6.032 228.392 6.248C228.2 6.296 228.152 6.32 228.128 6.68C228.104 6.752 228.008 8.024 228.008 9.008C228.008 9.56 228.008 9.704 228.32 9.704C228.584 9.704 230.312 9.224 230.312 8.456C230.312 8.384 230.216 8.096 230.216 8.024C230.216 7.952 230.288 7.952 230.336 7.952C230.456 7.952 230.96 8.072 231.08 8.072C232.064 8.144 232.688 8.192 232.688 8.72C232.688 9.56 230.024 10.664 228.92 11.024C228.176 11.288 228.104 11.312 228.104 11.552C228.104 12.008 228.368 14.768 228.392 15.008C228.488 15.8 228.488 15.896 228.992 16.088C230.864 16.856 232.4 18.128 232.4 19.256C232.4 19.88 231.968 20.264 231.584 20.264C231.248 20.264 231.152 20.144 230.288 19.112C229.808 18.512 228.872 17.816 228.608 17.816C228.464 17.816 228.416 17.936 228.296 18.2C227.792 19.328 226.184 20.624 224.216 20.624C221.96 20.624 221.144 19.016 221.144 18.032C221.144 16.592 222.608 15.488 225.464 15.488C225.68 15.488 226.568 15.56 226.736 15.56C227 15.56 227 15.488 227 14.672C227 14.192 226.976 12.584 226.952 11.936C226.952 11.72 226.952 11.576 226.712 11.576C226.376 11.576 224.936 11.696 224.624 11.696C224.072 11.696 222.392 11.72 221.312 10.712C220.976 10.376 220.616 9.8 220.616 9.608C220.616 9.56 220.616 9.512 220.688 9.512C220.832 9.512 221.48 9.8 221.6 9.848C222.68 10.208 223.76 10.28 224.504 10.28C225.08 10.28 226.688 10.28 226.856 9.824C226.88 9.752 227.072 6.608 227.072 6.584C227.072 6.464 226.952 6.464 226.568 6.44C224.864 6.32 223.352 5.096 223.352 4.16C223.352 4.112 223.376 3.992 223.448 3.992C223.472 3.992 224.048 4.328 224.12 4.376C225.176 5.024 226.088 5.024 226.448 5.024C226.952 5.024 227.192 4.904 227.24 4.664C227.312 4.424 227.384 3.056 227.384 2.552ZM226.808 17.048C226.64 16.64 224.96 16.544 224.528 16.544C224.48 16.544 221.96 16.544 221.96 17.912C221.96 18.824 223.208 19.112 223.88 19.112C224.672 19.112 225.704 18.728 226.256 18.224C226.688 17.84 226.904 17.264 226.808 17.048ZM246.008 1.424C246.8 1.424 248.288 2.6 248.288 3.032C248.288 3.224 248.072 4.28 248.048 4.496C248.024 4.64 247.928 5.6 247.928 6.224C247.928 6.728 248 6.848 248.432 7.064C248.648 7.184 248.792 7.304 248.792 7.544C248.792 7.616 248.768 7.904 248.576 8.168C248.072 8.864 248 8.96 248 9.032C248 9.08 248.024 9.104 248.072 9.104C248.12 9.104 248.192 9.056 248.672 8.6C249.92 7.4 252.824 4.664 255.056 4.664C256.688 4.664 257.408 5.816 257.408 7.52C257.408 8.408 257.288 9.512 257.12 10.592C256.76 13.016 256.736 13.376 256.736 14.192C256.736 15.128 256.88 16.424 258.512 16.424C258.896 16.424 259.928 16.424 261.032 15.224C261.2 15.032 261.416 14.816 261.536 14.816C261.632 14.816 261.68 14.936 261.68 15.008C261.68 15.344 260.36 18.128 257.816 18.128C254.984 18.128 254.984 15.272 254.984 14.624C254.984 14.048 255.008 13.784 255.272 12.368C255.68 10.184 255.92 7.952 255.92 7.352C255.92 6.92 255.92 5.696 254.432 5.696C252.728 5.696 250.688 7.4 249.104 8.888C247.496 10.4 247.256 11.384 247.256 13.808C247.256 14.888 247.328 16.232 247.448 16.904C247.688 18.464 247.736 18.656 247.736 19.136C247.736 19.928 247.544 20.48 246.8 20.48C246.056 20.48 245.96 19.928 245.72 18.656C245.672 18.344 245.024 16.016 244.784 16.016C244.688 16.016 244.664 16.088 244.496 16.664C244.28 17.384 243.896 18.008 243.176 18.008C242.624 18.008 242.312 17.528 242.312 17.12C242.312 16.28 243.128 14.864 243.368 14.432C243.464 14.24 243.68 13.88 243.68 13.64C243.68 13.376 243.248 12.176 243.128 11.84C242.6 10.496 242.576 10.328 242.576 9.92C242.576 8.84 243.296 8.192 243.776 8.048C245.432 7.544 246.344 7.28 246.632 7.064C246.776 6.968 246.8 6.8 246.8 6.368C246.8 5.072 246.68 3.968 246.176 2.864C246.08 2.672 245.456 1.832 245.456 1.664C245.456 1.448 245.84 1.424 246.008 1.424ZM246.392 8.696C246.344 8.576 246.224 8.552 246.128 8.552C245.936 8.552 243.44 9.056 243.44 10.256C243.44 11.096 244.016 12.896 244.232 12.896C244.328 12.896 244.448 12.752 244.496 12.656C244.544 12.536 245.84 10.016 245.96 9.776C246.176 9.344 246.44 8.816 246.392 8.696ZM245.96 16.64C246.128 16.64 246.128 16.472 246.128 14.12C246.128 14 246.176 13.328 246.176 13.28C246.176 13.208 246.176 13.064 246.056 13.064C245.816 13.064 245.12 14.648 245.12 14.912C245.12 15.512 245.912 16.64 245.96 16.64ZM266.48 18.344C266.48 18.056 266.6 17.816 267.344 16.424C269.816 11.744 270.512 7.616 270.512 7.592C270.512 7.352 270.416 7.352 269.648 7.352C269.144 7.352 268.304 7.328 267.512 6.92C266.744 6.536 266.264 5.864 266.264 5.624C266.264 5.552 266.336 5.528 266.36 5.528C266.456 5.528 266.816 5.72 266.912 5.744C267.272 5.864 268.256 6.008 269.048 6.008C269.408 6.008 270.56 5.96 270.752 5.792C270.944 5.624 271.016 3.992 271.016 3.824C271.016 3.632 271.016 2.816 270.728 2.336C270.632 2.216 270.056 1.616 270.056 1.448C270.056 1.208 270.512 0.895998 271.136 0.895998C272.216 0.895998 273.056 1.88 273.056 2.168C273.056 2.288 272.792 2.768 272.792 2.888C272.792 3.344 274.712 3.752 274.952 3.752C275.048 3.752 275.576 3.704 275.696 3.704C275.888 3.704 276.488 3.704 276.488 4.448C276.488 5.792 274.448 6.488 272.864 6.92C272.048 7.136 271.952 7.16 271.856 7.592C270.632 12.824 270.608 12.848 270.104 14.408C268.448 19.4 267.584 19.4 267.128 19.4C266.552 19.4 266.48 18.608 266.48 18.344ZM272.312 5.144C272.288 5.312 272.264 5.456 272.408 5.456C272.528 5.456 274.352 4.808 274.352 4.496C274.352 4.256 273.056 3.728 272.792 3.728C272.648 3.728 272.576 3.776 272.528 4.016C272.432 4.496 272.432 4.568 272.312 5.144ZM275.048 8.552C274.88 8.24 276.968 7.28 279.536 7.28C281.816 7.28 283.544 7.952 283.544 9.008C283.544 9.584 283.04 9.584 282.848 9.584C282.632 9.584 281.696 9.512 281.504 9.512C281.072 9.512 280.712 9.512 279.728 9.896C279.128 10.112 278.888 10.208 278.72 10.208C278.672 10.208 278.6 10.208 278.6 10.136C278.6 9.968 279.848 9.056 279.848 8.792C279.848 8.432 278.144 8.408 277.784 8.408C277.256 8.408 276.608 8.432 276.056 8.504C275.912 8.528 275.36 8.6 275.264 8.6C275.24 8.6 275.072 8.6 275.048 8.552ZM273.968 14.96C274.064 14.96 274.208 15.56 274.232 15.632C274.736 17.72 277.328 18.176 279.152 18.176C279.56 18.176 281.384 18.008 281.768 18.008C282.584 18.008 283.688 18.416 283.688 19.208C283.688 19.904 282.8 20.024 280.76 20.024C276.872 20.024 273.632 19.04 273.632 16.016C273.632 15.464 273.776 14.96 273.968 14.96ZM51.944 40.608C52.088 40.608 54.176 40.752 54.584 40.752C56.744 40.752 61.856 40.32 62.384 39.984C63.248 39.408 63.344 39.36 63.56 39.36C64.04 39.36 66.344 40.896 66.344 41.52C66.344 41.736 66.272 41.808 65.528 42.36C65.096 42.672 65 43.032 64.184 46.368C64.136 46.584 63.8 47.64 63.8 47.784C63.8 48.096 64.016 48.12 64.376 48.192C64.976 48.288 65.864 48.6 65.864 49.2C65.864 49.848 64.76 49.848 64.568 49.848C63.968 49.848 61.304 49.68 60.752 49.68C59.264 49.68 54.704 50.184 54.32 50.28C54.176 50.304 53.576 50.568 53.456 50.568C53.024 50.568 51.608 49.488 51.608 48.648C51.608 48.552 51.704 48.48 51.824 48.48C51.944 48.48 52.448 48.576 52.544 48.6C53.072 48.672 53.48 48.672 53.768 48.672C55.424 48.672 61.712 48.24 62.072 48.048C62.36 47.904 62.456 47.616 62.624 46.416C62.912 44.304 63.128 42.216 63.128 41.736C63.128 41.328 63.032 41.232 62.768 41.232C62.024 41.232 56.072 42.192 55.136 42.408C54.92 42.456 54.08 42.792 53.888 42.792C53.36 42.792 51.656 41.328 51.656 40.848C51.656 40.656 51.824 40.608 51.944 40.608ZM78.104 37.272C78.248 37.272 78.824 37.512 78.968 37.536C79.352 37.632 79.904 37.632 80.24 37.632C81.368 37.632 82.952 37.584 84.08 37.368C84.44 37.296 86.096 36.888 86.432 36.888C86.84 36.888 87.896 37.104 87.896 37.8C87.896 38.544 87.056 38.616 85.664 38.736C85.28 38.784 80.12 39.24 79.952 39.24C78.68 39.24 77.96 37.608 77.96 37.44C77.96 37.32 78.008 37.272 78.104 37.272ZM77.504 53.664C77.552 53.616 78.224 53.304 78.368 53.232C85.856 49.2 87.824 44.016 87.824 43.512C87.824 43.224 87.656 43.056 87.32 43.056C86.504 43.056 80.48 44.112 79.424 44.424C79.256 44.472 78.488 44.832 78.32 44.832C77.288 44.832 75.584 42.768 75.584 42.096C75.584 42.024 75.656 41.976 75.728 41.976C75.8 41.976 76.088 42.144 76.16 42.168C76.616 42.36 77.528 42.576 78.536 42.576C80.504 42.576 85.28 41.952 86.168 41.856C86.216 41.856 87.8 41.712 87.824 41.712C87.944 41.664 88.4 41.448 88.52 41.448C88.928 41.448 90.632 42.864 90.632 43.416C90.632 43.776 90.536 43.872 89.984 44.328C89.576 44.664 89.336 45.024 88.688 46.032C86.792 48.912 85.304 50.712 81.92 52.44C79.784 53.52 77.888 54 77.672 54C77.48 54 77.456 53.856 77.456 53.808C77.456 53.76 77.48 53.688 77.504 53.664ZM107.552 44.064C107.552 45.216 107.672 50.328 107.672 51.36C107.672 51.72 107.672 53.304 106.4 53.304C105.872 53.304 105.824 53.16 105.32 51.768C105.032 51 104.912 50.808 104.432 50.064C104.336 49.896 104.288 49.848 104.288 49.776C104.288 49.704 104.336 49.68 104.384 49.68C104.552 49.68 105.344 49.992 105.512 49.992C105.824 49.992 105.944 49.728 105.992 49.344C106.112 48.216 106.112 45.816 106.112 44.52C106.112 43.368 106.064 42.936 105.416 42.936C105.272 42.936 102.392 43.344 100.976 43.704C100.832 43.752 100.16 43.968 100.016 43.968C99.488 43.968 98.288 42.336 98.288 41.856C98.288 41.736 98.312 41.64 98.456 41.64C98.552 41.64 98.6 41.664 98.912 41.784C99.464 42.024 100.688 42.024 101.048 42.024C101.6 42.024 104.192 41.88 104.912 41.856C105.824 41.808 106.064 41.64 106.064 40.848C106.064 40.056 105.92 38.472 105.56 37.776C105.512 37.656 105.104 37.272 105.104 37.152C105.104 37.08 105.368 36.912 105.92 36.912C107.576 36.912 108.176 37.968 108.176 38.16C108.176 38.304 107.792 38.832 107.744 38.952C107.528 39.384 107.528 40.56 107.528 40.8C107.528 41.544 107.84 41.664 108.464 41.664C109.232 41.664 110.384 41.472 110.792 41.424C111.104 41.376 112.376 41.064 112.64 41.064C113.36 41.064 114.176 41.424 114.968 41.88C115.232 42.048 115.568 42.24 115.568 42.648C115.568 43.104 115.04 43.128 114.944 43.128C114.584 43.128 113.024 42.864 112.688 42.816C111.776 42.72 110.024 42.696 109.832 42.696C107.768 42.696 107.552 42.696 107.552 44.064ZM114.776 51.216C114.104 51.216 113.888 50.664 113.456 49.632C113.048 48.624 112.304 47.376 111.512 46.68C111.152 46.344 110.552 45.792 110.552 45.672C110.552 45.552 110.672 45.552 110.72 45.552C111.992 45.552 115.856 47.88 115.856 49.896C115.856 50.448 115.568 51.24 114.776 51.216ZM98.96 50.664C98.648 50.568 98.264 50.256 98.264 49.776C98.264 49.32 98.48 49.08 99.176 48.648C100.112 48.072 101.336 46.968 101.528 46.8C101.648 46.68 101.912 46.44 102.008 46.44C102.104 46.44 102.128 46.656 102.128 46.728C102.128 47.856 101 50.76 99.416 50.76C99.224 50.76 99.08 50.712 98.96 50.664ZM114.2 35.328C116.192 35.328 117.56 36.384 117.56 37.416C117.56 37.704 117.368 38.136 116.96 38.136C116.456 38.136 116.144 37.776 115.712 37.224C115.304 36.744 114.392 36.168 113.624 35.88C113.384 35.784 113.312 35.688 113.312 35.616C113.312 35.448 113.744 35.328 114.2 35.328ZM111.944 37.368C113.24 37.368 113.792 37.368 114.632 37.896C115.376 38.352 115.688 38.928 115.688 39.264C115.688 39.744 115.4 40.2 115.016 40.2C114.728 40.2 114.536 40.104 113.72 39.24C113.216 38.712 112.928 38.544 111.92 37.944C111.8 37.872 111.536 37.704 111.536 37.608C111.536 37.536 111.728 37.368 111.944 37.368ZM127.784 40.416C127.784 40.608 127.448 41.76 127.4 42.024C127.304 42.528 127.208 43.152 127.208 46.536C127.208 47.232 127.208 47.808 128 47.808C129.032 47.808 135.176 45.216 139.4 41.544C139.736 41.256 139.784 41.208 139.952 41.208C140.072 41.208 140.144 41.304 140.144 41.4C140.144 41.64 136.592 45.528 130.712 48.6C127.928 50.04 127.736 50.184 127.232 50.808C127.112 50.976 127.064 51 126.968 51C126.776 51 125.336 49.824 125.336 49.176C125.336 49.056 125.528 48.096 125.552 48.048C125.672 47.496 125.672 46.608 125.672 44.952C125.672 41.784 125.672 41.136 125.048 40.008C124.952 39.864 124.52 39.216 124.52 39.072C124.52 38.976 124.664 38.952 124.76 38.952C125.024 38.952 127.784 39.432 127.784 40.416ZM149.552 44.328C150.344 44.328 158.72 44.016 162.224 43.824C162.368 43.824 162.632 43.8 162.752 43.8C164.216 43.8 164.432 44.688 164.432 44.856C164.432 45.528 163.448 45.6 162.44 45.6C161.888 45.6 159.488 45.552 159.008 45.552C155.696 45.552 150.2 45.864 149.624 45.984C149.336 46.032 148.04 46.416 147.752 46.416C146.72 46.416 145.616 44.928 145.616 44.112C145.616 43.968 145.688 43.824 145.808 43.824C145.928 43.824 146.504 44.088 146.624 44.112C147.032 44.232 148.016 44.328 149.552 44.328ZM174.296 53.232C173.768 53.232 173.528 52.848 172.928 51.744C172.856 51.624 172.424 51.12 172.352 51C172.28 50.88 172.208 50.688 172.208 50.544C172.208 50.448 172.28 50.376 172.424 50.376C172.64 50.376 173.552 50.688 173.744 50.688C174.776 50.688 181.232 47.088 186.968 40.584C187.088 40.44 187.928 39.504 188 39.504C188.048 39.504 188.096 39.528 188.096 39.6C188.096 39.864 185.984 45 176.048 51.96C175.76 52.152 174.608 53.232 174.296 53.232ZM173.384 42.168C174.416 42.168 175.88 43.128 175.88 44.304C175.88 44.784 175.52 45.504 174.944 45.504C174.584 45.504 174.464 45.36 174.104 44.76C173.6 43.896 172.784 43.272 171.92 42.768C171.848 42.72 171.704 42.624 171.704 42.528C171.704 42.192 173.072 42.168 173.384 42.168ZM176.168 37.584C178.76 37.584 178.76 39.456 178.76 39.528C178.76 40.08 178.376 40.608 177.992 40.608C177.728 40.608 177.608 40.512 176.744 39.48C176.096 38.712 175.256 38.376 174.68 38.208C174.584 38.184 174.32 38.112 174.32 38.04C174.32 37.968 174.992 37.584 176.168 37.584ZM197.528 43.08C197.624 43.08 198.104 43.248 198.392 43.344C198.776 43.464 199.52 43.464 199.784 43.464C200.672 43.464 204.776 43.296 205.76 42.936C205.952 42.864 206.624 42.288 206.792 42.288C206.984 42.288 208.4 43.368 208.4 43.848C208.4 44.088 208.328 44.16 207.992 44.544C207.872 44.688 207.776 44.88 207.752 45.336C207.68 46.92 207.632 48.72 207.632 50.304C207.632 50.544 207.68 51.6 207.68 51.816C207.68 52.92 207.104 53.352 206.744 53.352C206.384 53.352 206.072 52.968 205.976 52.416C205.928 52.104 205.928 52.032 205.592 52.032C204.8 52.032 200.96 52.488 200.312 52.608C200.12 52.632 199.376 52.848 199.112 52.848C198.464 52.848 197.744 51.312 197.744 51.12C197.744 51.024 197.768 50.832 197.96 50.832C198.032 50.832 198.104 50.856 198.752 51.072C198.848 51.096 199.304 51.264 199.904 51.264C200.864 51.264 205.592 50.784 205.808 50.688C206.072 50.544 206.072 50.328 206.096 49.656C206.096 49.464 206.144 48.456 206.144 48.36C206.144 48.048 206.048 47.904 205.76 47.904C205.664 47.904 203.936 48.144 203.048 48.264C202.4 48.336 199.832 48.672 199.424 48.672C198.752 48.672 197.792 48 197.792 47.208C197.792 46.968 197.84 46.896 197.96 46.896C198.032 46.896 198.32 47.04 198.536 47.136C198.824 47.256 199.232 47.304 199.736 47.304C201.872 47.304 205.856 46.896 206.072 46.656C206.24 46.464 206.264 45.048 206.264 44.712C206.264 44.304 206.144 44.184 205.784 44.184C205.64 44.184 202.904 44.472 201.176 44.688C200.84 44.736 199.376 44.976 199.088 44.976C198.2 44.976 197.312 43.68 197.312 43.344C197.312 43.2 197.432 43.08 197.528 43.08ZM225.92 40.56C225.92 41.28 225.512 41.76 224.888 41.76C224.24 41.76 224 41.376 223.208 40.176C222.392 38.952 221.696 38.592 221.024 38.208C220.928 38.16 220.808 38.088 220.808 37.992C220.808 37.896 221 37.776 221.336 37.776C223.904 37.776 225.92 39.144 225.92 40.56ZM235.904 40.344C235.904 40.56 233.096 45.048 226.856 49.656C226.232 50.112 225.008 51.024 224.504 51.624C224.048 52.176 224 52.224 223.64 52.224C222.344 52.224 220.568 50.688 220.568 49.728C220.568 49.56 220.592 48.456 220.808 48.456C220.904 48.456 221.432 48.864 221.528 48.912C221.84 49.104 222.632 49.464 223.16 49.464C224.336 49.464 230.696 45.216 234.68 41.28C235.064 40.896 235.736 40.224 235.784 40.224C235.832 40.224 235.904 40.296 235.904 40.344Z" fill="white"/>
</svg>
