<svg width="328" height="69" viewBox="0 0 328 69" fill="none" xmlns="http://www.w3.org/2000/svg">
<path d="M9.9448 42.3355L5.91375 48.9653V42.3355H2.27148V59.3805H5.91375V51.6868L10.2722 59.3805H14.2828L9.12631 50.2749L13.9554 42.3355H9.9448Z" fill="white"/>
<path d="M28.2994 8.4707L20.6875 33.4959H26.11L27.706 27.5824H34.7859L36.2388 33.4959H42.0091L34.6427 8.4707H28.2994ZM28.811 23.4286L31.4097 13.7909L33.7628 23.4286H28.811Z" fill="white"/>
<path d="M106.076 8C99.9778 8 96.1514 12.6245 96.1514 20.9526C96.1514 29.2807 99.9369 33.8846 106.076 33.8846C112.214 33.8846 116 29.3011 116 20.9526C116 12.604 112.173 8 106.076 8ZM106.076 29.649C103.436 29.649 101.86 26.641 101.86 20.9526C101.86 15.2641 103.436 12.2152 106.076 12.2152C108.715 12.2152 110.291 15.2436 110.291 20.9526C110.291 26.6615 108.715 29.649 106.076 29.649Z" fill="white"/>
<path d="M112.603 42.3355H108.961V59.3805H112.603V42.3355Z" fill="white"/>
<path d="M92.9596 52.1165H96.8474V59.3805H100.49V42.3355H96.8474V49.0267H92.9596V42.3355H89.2969V59.3805H92.9596V52.1165Z" fill="white"/>
<path d="M88.2127 29.3217H79.4959V22.7942H87.4352V18.6404H79.4959V12.6245H87.8853V8.4707H74.1348V33.4755H88.2127V29.3217Z" fill="white"/>
<path d="M54.613 22.1804L60.9972 33.4755H66.8699L59.3193 20.1137L66.4197 8.4707H60.5471L54.613 18.1698V8.4707H49.252V33.4755H54.613V22.1804Z" fill="white"/>
<path d="M51.4014 42.3355V52.7917C51.4014 57.4162 53.1816 59.6465 57.1308 59.6465C61.08 59.6465 62.8806 57.4162 62.8806 52.7917V42.3355H59.3816V53.2419C59.3816 55.6564 58.9519 56.7818 57.2126 56.7818C55.4733 56.7818 55.0846 55.636 55.0846 53.2419V42.3355H51.4014Z" fill="white"/>
<path d="M36.7087 42.3355H33.0664V59.3805H36.7087V51.6868L41.0467 59.3805H45.0572L39.9212 50.2749L44.7503 42.3355H40.7397L36.7087 48.9653V42.3355Z" fill="white"/>
<path d="M78.0837 59.667C79.4137 59.667 80.6619 59.4419 81.8282 58.9508V55.6768C80.846 56.3112 79.7002 56.6386 78.6566 56.6386C75.9556 56.6386 74.3595 54.5924 74.3595 50.8478C74.3595 47.1032 75.8942 45.1388 78.5134 45.1388C79.6183 45.1388 80.7233 45.3844 81.7259 46.0392V42.8471C80.4573 42.2946 79.2091 42.049 77.9609 42.049C73.5001 42.049 70.4922 45.4458 70.4922 50.8478C70.4922 56.2498 73.4592 59.667 78.0837 59.667Z" fill="white"/>
<path d="M5.68848 33.4755H11.0496V12.9928H16.6767V8.4707H0V12.9928H5.68848V33.4755Z" fill="white"/>
<path d="M24.5338 42.3355H20.8711V59.3805H24.5338V42.3355Z" fill="white"/>
<path d="M144 14C145.506 15.5059 171.294 41.2941 184 54" stroke="white" stroke-width="1.024"/>
<path d="M184 14C182.494 15.5059 156.706 41.2941 144 54" stroke="white" stroke-width="1.024"/>
<path d="M260.095 46.2656C260.095 46.2656 260.135 46.2656 260.149 46.2928C260.149 46.3201 260.135 46.3473 260.095 46.3882C259.685 46.8106 259.454 47.3147 259.399 47.8734C259.372 48.0914 259.358 48.4048 259.358 48.7999V49.9445C259.358 50.217 259.358 50.5577 259.358 50.9937C259.358 51.1981 259.358 51.5523 259.385 52.0429C259.413 52.547 259.44 52.874 259.467 53.0375C259.576 53.7869 259.904 54.3728 260.436 54.7952L260.381 54.8497C259.113 54.8089 258.144 54.7816 257.517 54.7816C256.712 54.7816 256.03 54.8089 255.458 54.8497C255.567 54.7544 255.758 54.5227 256.03 54.1684C256.29 53.6916 256.426 53.2692 256.426 52.9149C256.426 51.5523 256.412 50.4214 256.371 49.4949C256.371 49.454 256.33 49.4403 256.262 49.4403C255.867 50.0944 255.458 50.8165 255.062 51.6205C254.912 51.9066 254.721 52.2881 254.489 52.765L254.067 53.6779C253.957 53.9096 253.821 54.223 253.657 54.6045C253.521 54.8906 253.439 55.0541 253.439 55.0814C253.344 54.9315 253.276 54.7816 253.207 54.6317L252.948 54.0594C252.921 53.9777 252.839 53.8142 252.703 53.5553C252.553 53.2692 252.321 52.8059 251.98 52.1791C251.448 51.2253 250.862 50.2715 250.207 49.3313C250.193 49.2905 250.166 49.2632 250.139 49.2632C250.098 49.2632 250.071 49.2905 250.057 49.3586C250.057 49.3586 250.057 49.3722 250.057 49.3995C250.057 49.5085 250.057 49.7537 250.057 50.0944C250.057 51.0073 250.125 51.784 250.275 52.4244C250.439 53.1738 250.725 53.8142 251.134 54.3728C251.284 54.5227 251.489 54.6862 251.762 54.8634C251.762 54.8634 251.762 54.8634 251.734 54.877C251.707 54.8906 251.707 54.877 251.68 54.877C251.666 54.877 251.653 54.877 251.639 54.8906C251.134 54.8497 250.562 54.8361 249.893 54.8361H248.148C248.748 54.3592 249.17 53.7052 249.402 52.874C249.566 52.2745 249.648 51.4842 249.648 50.5168C249.648 50.2306 249.648 49.9445 249.648 49.6856V48.8681C249.634 48.7727 249.62 48.6092 249.62 48.3912C249.361 47.9415 248.939 47.4374 248.325 46.8651C248.161 46.7016 247.97 46.5245 247.766 46.3337H249.798C250.902 46.3337 251.68 46.3201 252.116 46.2928C252.116 46.2928 252.116 46.3064 252.144 46.3201C252.157 46.3201 252.171 46.3337 252.171 46.3473C252.375 47.0422 252.771 47.8189 253.344 48.6773C253.371 48.7182 253.562 49.018 253.917 49.5494C254.094 49.7946 254.353 50.1761 254.708 50.6939C254.721 50.6939 254.748 50.6939 254.776 50.7212C254.803 50.7348 254.83 50.762 254.844 50.7757L254.885 50.8029C254.885 50.8029 254.953 50.7893 254.994 50.7484C255.212 50.3941 255.539 49.8491 255.962 49.127C256.262 48.5683 256.412 48.0369 256.412 47.5328C256.412 47.3556 256.399 47.1512 256.358 46.9469C256.344 46.8787 256.29 46.7833 256.194 46.6198C256.099 46.47 256.044 46.361 256.017 46.3064H257.572C257.722 46.3201 258.008 46.3337 258.444 46.3337C259.167 46.3337 259.726 46.3201 260.135 46.2792L260.095 46.2656ZM261.827 46.3064C262.249 46.3064 262.795 46.3064 263.477 46.3473C264.281 46.3746 264.977 46.3882 265.591 46.3882C266.695 46.3882 267.827 46.361 268.973 46.3064V47.0831C268.973 47.3829 268.987 47.6554 269 47.887C269 48.1187 269 48.3912 269 48.6909C269 48.7182 269 48.7318 268.959 48.7318C268.918 48.7318 268.85 48.6228 268.7 48.3912C268.659 48.323 268.605 48.2549 268.55 48.1868C268.496 48.1187 268.468 48.0642 268.441 48.0369C268.414 48.0097 268.4 47.9824 268.4 47.9824C267.65 47.1649 266.914 46.7561 266.218 46.7561C266.109 46.7561 266 46.7561 265.877 46.797C265.713 46.9605 265.632 47.2602 265.618 47.7099C265.618 48.0097 265.618 48.4729 265.618 49.1133C265.618 49.8764 265.659 50.2579 265.754 50.2579C266.273 50.2579 266.791 50.0263 267.309 49.563C267.514 49.3858 267.718 49.1678 267.936 48.8953C267.964 48.8953 267.977 49.5085 267.977 50.7484V51.8521C267.718 51.4978 267.405 51.2117 267.009 51.0073C266.614 50.8029 266.204 50.6939 265.768 50.6939C265.673 50.7075 265.632 51.2117 265.632 52.2064C265.632 52.9285 265.673 53.5553 265.754 54.0594C265.795 54.2638 265.945 54.3728 266.204 54.3592H266.75C267.486 54.3183 268.168 53.8823 268.796 53.0648C269.028 52.7514 269.3 52.3562 269.573 51.8793C269.573 52.1655 269.573 52.438 269.573 52.6696C269.573 52.9013 269.573 53.1738 269.573 53.4599C269.573 53.7869 269.573 54.2502 269.6 54.8497L267.623 54.8089H266.014C264.636 54.8089 263.286 54.8361 261.949 54.9042C261.881 54.8906 261.854 54.8634 261.854 54.8361C261.854 54.8089 261.868 54.7544 261.895 54.6999C262.454 54.0458 262.727 53.0512 262.727 51.7022V51.0618V50.8029V49.5494C262.727 48.5547 262.672 47.8734 262.563 47.4783C262.468 47.1512 262.236 46.7561 261.854 46.3064H261.827ZM275.397 46.3064C275.601 46.3064 275.71 46.3201 275.71 46.3882C275.683 46.47 275.669 46.579 275.669 46.7288C275.683 47.015 275.765 47.2602 275.901 47.451C276.01 47.6145 276.283 47.9688 276.706 48.5138C277.129 49.0452 277.701 49.7265 278.438 50.5577C278.533 50.653 278.601 50.7075 278.67 50.7075C278.724 50.7075 278.752 50.6667 278.752 50.5849C278.752 49.4676 278.697 48.6637 278.601 48.1732C278.451 47.3829 278.124 46.8242 277.62 46.4972C277.524 46.4291 277.483 46.3746 277.483 46.3473C277.483 46.3201 277.565 46.3064 277.742 46.3064H280.102C280.197 46.3064 280.252 46.3064 280.252 46.3337C280.252 46.361 280.211 46.4155 280.129 46.47C279.638 46.8378 279.324 47.5191 279.202 48.5002C279.147 48.9089 279.12 49.3858 279.12 49.9445C279.12 50.0263 279.12 50.326 279.147 50.871L279.188 51.9202C279.202 52.1927 279.215 52.6151 279.229 53.1602L279.256 53.7324C279.283 54.223 279.297 54.5636 279.297 54.7816C279.297 54.8497 279.215 54.8906 279.052 54.8906H278.533C278.138 54.8906 277.92 54.8634 277.879 54.7952C277.374 54.0322 276.706 53.1329 275.86 52.0701C274.919 50.871 274.046 49.8355 273.228 48.9635C273.187 48.9226 273.146 48.909 273.105 48.909C273.037 48.909 273.01 48.9362 272.996 48.9771C272.996 49.1133 272.996 49.3995 272.996 49.8491C272.996 50.9664 273.092 51.8521 273.269 52.5334C273.542 53.528 274.046 54.2502 274.756 54.6999C274.837 54.7544 274.878 54.8089 274.878 54.8497C274.878 54.9042 274.837 54.9179 274.742 54.9042C274.155 54.877 273.596 54.8634 273.078 54.8634C272.723 54.8634 272.396 54.8634 272.11 54.8634C271.823 54.8634 271.51 54.8634 271.155 54.8634C271.101 54.8634 271.073 54.8634 271.073 54.8361C271.073 54.8089 271.114 54.768 271.196 54.6862C271.782 54.1548 272.192 53.5008 272.396 52.7378C272.492 52.3699 272.533 51.9747 272.546 51.5251C272.573 50.6939 272.587 50.1353 272.587 49.8355C272.587 49.1542 272.573 48.5956 272.546 48.1595C272.042 47.5873 271.632 47.1921 271.332 46.9469C271.155 46.797 270.896 46.6198 270.555 46.4018L270.528 46.3746C270.528 46.3746 270.623 46.3064 270.787 46.3201C272.137 46.361 272.928 46.3746 273.187 46.3746C273.842 46.3746 274.578 46.3473 275.424 46.2928L275.397 46.3064ZM282.188 46.0476C282.557 46.0476 282.857 46.2247 283.102 46.579C283.238 46.7697 283.293 46.9877 283.293 47.233C283.293 47.6963 283.129 48.1187 282.816 48.4866C282.625 48.7182 282.338 48.8953 281.97 49.018C281.875 49.018 281.834 48.9635 281.834 48.8544C282.011 48.7454 282.216 48.6092 282.407 48.4457C282.475 48.3776 282.516 48.2822 282.516 48.1732C282.447 48.1459 282.325 48.1323 282.134 48.1323C282.052 48.1323 281.97 48.1323 281.916 48.105C281.397 47.9279 281.138 47.6009 281.138 47.124C281.138 46.8106 281.234 46.5517 281.425 46.3473C281.616 46.1429 281.861 46.0339 282.175 46.0339L282.188 46.0476ZM291.653 46.3473C291.653 46.3473 291.749 46.2656 291.776 46.2656C291.817 46.2656 291.83 46.3064 291.83 46.3746V47.0967C291.83 47.1785 291.83 47.3693 291.83 47.6826C291.83 48.1187 291.844 48.5411 291.885 48.9635C291.749 48.8681 291.599 48.7318 291.435 48.5547C291.176 48.2685 291.039 48.1187 291.026 48.105C290.385 47.4646 289.703 47.0422 289.007 46.8651C288.776 46.7833 288.516 46.7561 288.23 46.7561C287.575 46.7561 287.03 46.9605 286.593 47.3556C286.389 47.5328 286.28 47.7235 286.266 47.9279C286.225 48.105 286.198 48.2549 286.198 48.3367C286.198 48.5956 286.28 48.7999 286.43 48.9635C286.621 49.2223 286.948 49.3586 287.398 49.3586C287.453 49.3586 287.603 49.3586 287.848 49.3313C287.957 49.3313 288.312 49.2768 288.926 49.1815C289.376 49.1133 289.744 49.0725 290.003 49.0725C290.467 49.0725 290.835 49.1678 291.135 49.3586C291.271 49.4403 291.421 49.563 291.585 49.7537C292.035 50.2715 292.253 50.9255 292.253 51.7022C292.253 52.1655 292.171 52.5743 292.008 52.9013C291.79 53.4054 291.435 53.8414 290.971 54.1957C290.726 54.3865 290.48 54.5227 290.235 54.6045C290.194 54.6045 290.139 54.6317 290.071 54.6454C290.003 54.659 289.907 54.6862 289.771 54.7271C289.635 54.768 289.526 54.7952 289.43 54.8089C289.266 54.8497 289.048 54.877 288.789 54.877C288.53 54.877 288.23 54.8497 287.875 54.7952C287.33 54.7135 287.03 54.6726 286.975 54.659C286.853 54.659 286.675 54.659 286.457 54.659C285.952 54.659 285.516 54.768 285.161 54.9724C285.08 54.9724 285.039 54.9724 285.039 54.9451C285.066 54.5363 285.08 54.0322 285.08 53.4327C285.08 52.9694 285.08 52.5061 285.039 52.0565C285.039 52.0565 285.08 52.0565 285.134 52.0565C285.666 52.7923 286.225 53.3645 286.825 53.7869C287.521 54.2638 288.244 54.5091 288.994 54.5091C289.58 54.5091 290.044 54.3728 290.398 54.1003C290.617 53.9368 290.753 53.7324 290.835 53.5144C290.876 53.419 290.889 53.2828 290.889 53.1329C290.889 52.8468 290.821 52.6015 290.685 52.4107C290.48 52.0837 290.071 51.9202 289.457 51.9338C289.294 51.9338 288.912 51.9883 288.312 52.0974C287.725 52.22 287.289 52.2745 286.989 52.2745C286.321 52.2745 285.816 52.0701 285.461 51.6477C285.08 51.1981 284.889 50.5849 284.889 49.8082C284.889 49.3858 284.97 48.9635 285.12 48.5138C285.271 48.105 285.461 47.7644 285.693 47.5191C286.252 46.9196 286.934 46.5926 287.739 46.5245C287.889 46.4972 288.053 46.4836 288.257 46.4836C288.462 46.4836 288.816 46.5108 289.321 46.579C289.826 46.6335 290.18 46.6743 290.385 46.6743C290.876 46.6743 291.285 46.579 291.626 46.3882L291.653 46.3473ZM238.751 59.7686C238.751 59.7686 238.846 59.6868 238.874 59.6868C238.915 59.6868 238.928 59.7277 238.928 59.7958V60.518C238.928 60.5998 238.928 60.7905 238.928 61.1039C238.928 61.5399 238.942 61.9623 238.983 62.3847C238.846 62.2893 238.696 62.1531 238.533 61.976C238.274 61.6898 238.137 61.5399 238.124 61.5263C237.483 60.8859 236.801 60.4635 236.105 60.2864C235.873 60.2046 235.614 60.1774 235.328 60.1774C234.673 60.1774 234.128 60.3818 233.691 60.7769C233.487 60.954 233.378 61.1448 233.364 61.3492C233.323 61.5263 233.296 61.6762 233.296 61.7579C233.296 62.0168 233.378 62.2212 233.528 62.3847C233.718 62.6436 234.046 62.7799 234.496 62.7799C234.55 62.7799 234.7 62.7799 234.946 62.7526C235.055 62.7526 235.41 62.6981 236.023 62.6027C236.473 62.5346 236.842 62.4937 237.101 62.4937C237.564 62.4937 237.933 62.5891 238.233 62.7799C238.369 62.8616 238.519 62.9842 238.683 63.175C239.133 63.6928 239.351 64.3468 239.351 65.1235C239.351 65.5868 239.269 65.9955 239.106 66.3225C238.887 66.8267 238.533 67.2627 238.069 67.617C237.824 67.8077 237.578 67.944 237.333 68.0257C237.292 68.0257 237.237 68.053 237.169 68.0666C237.101 68.0802 237.005 68.1075 236.869 68.1484C236.732 68.1893 236.623 68.2165 236.528 68.2301C236.364 68.271 236.146 68.2983 235.887 68.2983C235.628 68.2983 235.328 68.271 234.973 68.2165C234.428 68.1348 234.128 68.0939 234.073 68.0802C233.95 68.0802 233.773 68.0802 233.555 68.0802C233.05 68.0802 232.614 68.1893 232.259 68.3936C232.177 68.3936 232.136 68.3936 232.136 68.3664C232.164 67.9576 232.177 67.4535 232.177 66.8539C232.177 66.3907 232.177 65.9274 232.136 65.4778C232.136 65.4778 232.177 65.4778 232.232 65.4778C232.764 66.2135 233.323 66.7858 233.923 67.2082C234.619 67.6851 235.341 67.9304 236.091 67.9304C236.678 67.9304 237.142 67.7941 237.496 67.5216C237.714 67.3581 237.851 67.1537 237.933 66.9357C237.974 66.8403 237.987 66.7041 237.987 66.5542C237.987 66.268 237.919 66.0228 237.783 65.832C237.578 65.505 237.169 65.3415 236.555 65.3551C236.392 65.3551 236.01 65.4096 235.41 65.5186C234.823 65.6413 234.387 65.6958 234.087 65.6958C233.418 65.6958 232.914 65.4914 232.559 65.069C232.177 64.6193 231.986 64.0062 231.986 63.2295C231.986 62.8071 232.068 62.3847 232.218 61.9351C232.368 61.5263 232.559 61.1857 232.791 60.9404C233.35 60.3409 234.032 60.0139 234.837 59.9457C234.987 59.9185 235.15 59.9049 235.355 59.9049C235.56 59.9049 235.914 59.9321 236.419 60.0002C236.923 60.0547 237.278 60.0956 237.483 60.0956C237.974 60.0956 238.383 60.0002 238.724 59.8095L238.751 59.7686ZM245.979 59.7413H249.975C249.907 59.7958 249.743 59.8776 249.498 60.0002C249.252 60.1092 249.089 60.2046 249.02 60.2591C248.516 60.5316 247.902 60.9949 247.179 61.6762L246.252 62.5346C246.034 62.7526 245.775 62.9706 245.488 63.2023C245.488 63.284 245.529 63.3249 245.597 63.3249C246.306 63.2023 246.825 63.1341 247.166 63.1341C247.698 63.1341 248.134 63.2568 248.461 63.4748C248.666 63.611 248.829 63.7882 248.939 63.9926C249.089 64.2378 249.157 64.5648 249.157 64.9872C249.157 65.178 249.13 65.4641 249.089 65.832C249.048 66.2544 249.034 66.5406 249.034 66.6768C249.034 66.8131 249.034 66.9629 249.075 67.1128L249.116 67.2218C249.157 67.3172 249.211 67.3581 249.293 67.3717C249.457 67.3717 249.607 67.29 249.743 67.1128C249.771 67.0719 249.825 66.8676 249.893 66.4997C249.921 66.4043 249.961 66.3225 250.016 66.2408C250.125 66.2408 250.193 66.2817 250.193 66.3634C250.193 67.181 249.88 67.7805 249.239 68.1756C248.898 68.3936 248.489 68.5026 247.984 68.5026C247.561 68.5026 247.193 68.4073 246.879 68.2438C246.429 67.9304 246.211 67.4398 246.211 66.7722C246.211 66.5678 246.225 66.3089 246.252 66.0091C246.279 65.7094 246.293 65.4369 246.293 65.2325C246.293 64.8237 246.225 64.4831 246.088 64.2242C245.884 63.9108 245.556 63.7609 245.12 63.7609C245.093 63.7609 244.997 63.7609 244.847 63.7882C244.779 63.7882 244.67 63.8154 244.533 63.8563C244.506 63.8563 244.479 63.8972 244.452 63.9653C244.465 64.6466 244.493 65.4096 244.533 66.2408C244.602 67.0038 244.82 67.6306 245.202 68.1211C245.243 68.1756 245.256 68.2165 245.256 68.2301L245.215 68.2574C245.215 68.2574 245.174 68.2846 245.174 68.2983C244.288 68.271 243.538 68.2574 242.924 68.2574C242.31 68.2574 241.601 68.271 240.66 68.2983C240.66 68.2983 240.66 68.2846 240.674 68.2574C240.674 68.2438 240.701 68.2165 240.715 68.1893C240.728 68.162 240.742 68.1348 240.756 68.1075C241.233 67.4943 241.465 66.2953 241.465 64.5103V63.7609C241.465 63.6655 241.465 63.4612 241.465 63.1341C241.465 62.7117 241.438 62.1258 241.383 61.4037C241.288 60.845 241.097 60.3545 240.81 59.9185C240.769 59.864 240.756 59.8367 240.756 59.8095C240.756 59.7686 240.797 59.7413 240.865 59.755C241.806 59.7822 242.46 59.7958 242.842 59.7958H243.988C244.07 59.7822 244.288 59.7686 244.656 59.7686C244.752 59.7686 244.806 59.7822 244.806 59.8367L244.752 59.973C244.533 60.3681 244.411 61.0358 244.411 61.9623V62.5891C244.411 62.7799 244.411 62.9979 244.411 63.2295C244.411 63.2704 244.452 63.2976 244.52 63.2976C245.12 63.0796 245.584 62.739 245.925 62.2757C246.238 61.8397 246.402 61.3764 246.402 60.8859C246.402 60.6679 246.361 60.4499 246.266 60.2455C246.17 60.1365 246.061 59.9594 245.938 59.7277L245.979 59.7413ZM255.553 59.7413C255.553 59.7413 255.608 59.7413 255.608 59.7822C255.608 59.8231 255.58 59.8776 255.512 59.9457C255.239 60.2319 255.103 60.7224 255.103 61.4173V66.4997C255.103 66.8812 255.212 67.2627 255.417 67.6579C255.471 67.7805 255.635 67.9712 255.894 68.271C254.939 68.2301 254.203 68.2029 253.698 68.2029C253.057 68.2029 252.334 68.2301 251.53 68.271C251.53 68.2029 251.598 68.1348 251.734 68.0257C252.021 67.7669 252.171 67.3445 252.171 66.7313V61.4854C252.171 61.1039 252.144 60.8314 252.089 60.6679C252.021 60.4499 251.884 60.2182 251.653 59.9866C251.571 59.9049 251.543 59.8504 251.543 59.8095C251.543 59.7822 251.543 59.755 251.584 59.7413C252.525 59.7822 253.194 59.7958 253.603 59.7958C254.162 59.7958 254.803 59.7686 255.553 59.7141V59.7413ZM261.977 59.7413C262.181 59.7413 262.29 59.755 262.29 59.8231C262.263 59.9049 262.249 60.0139 262.249 60.1637C262.263 60.4499 262.345 60.6951 262.481 60.8859C262.59 61.0494 262.863 61.4037 263.286 61.9487C263.709 62.4801 264.281 63.1614 265.018 63.9926C265.113 64.0879 265.182 64.1424 265.25 64.1424C265.304 64.1424 265.332 64.1016 265.332 64.0198C265.332 62.9025 265.277 62.0986 265.182 61.6081C265.032 60.8178 264.704 60.2591 264.2 59.9321C264.104 59.864 264.063 59.8095 264.063 59.7822C264.063 59.755 264.145 59.7413 264.322 59.7413H266.682C266.777 59.7413 266.832 59.7413 266.832 59.7686C266.832 59.7958 266.791 59.8504 266.709 59.9049C266.218 60.2727 265.904 60.954 265.782 61.9351C265.727 62.3438 265.7 62.8207 265.7 63.3794C265.7 63.4612 265.7 63.7609 265.727 64.3059L265.768 65.3551C265.782 65.6276 265.795 66.05 265.809 66.5951L265.836 67.1673C265.863 67.6579 265.877 67.9985 265.877 68.2165C265.877 68.2846 265.795 68.3255 265.632 68.3255H265.113C264.718 68.3255 264.5 68.2983 264.459 68.2301C263.954 67.4671 263.286 66.5678 262.44 65.505C261.499 64.3059 260.626 63.2704 259.808 62.3983C259.767 62.3575 259.726 62.3438 259.685 62.3438C259.617 62.3438 259.59 62.3711 259.576 62.412C259.576 62.5482 259.576 62.8344 259.576 63.284C259.576 64.4013 259.672 65.287 259.849 65.9683C260.122 66.9629 260.626 67.6851 261.336 68.1348C261.417 68.1892 261.458 68.2438 261.458 68.2846C261.458 68.3391 261.417 68.3528 261.322 68.3391C260.736 68.3119 260.176 68.2983 259.658 68.2983C259.304 68.2983 258.976 68.2983 258.69 68.2983C258.403 68.2983 258.09 68.2983 257.735 68.2983C257.681 68.2983 257.653 68.2983 257.653 68.271C257.653 68.2438 257.694 68.2029 257.776 68.1211C258.363 67.5897 258.772 66.9357 258.976 66.1727C259.072 65.8048 259.113 65.4096 259.126 64.96C259.154 64.1288 259.167 63.5702 259.167 63.2704C259.167 62.5891 259.154 62.0305 259.126 61.5944C258.622 61.0222 258.213 60.627 257.912 60.3818C257.735 60.2319 257.476 60.0547 257.135 59.8367L257.108 59.8095C257.108 59.8095 257.203 59.7413 257.367 59.755C258.717 59.7958 259.508 59.8095 259.767 59.8095C260.422 59.8095 261.158 59.7822 262.004 59.7277L261.977 59.7413ZM277.974 59.7413C278.07 59.7413 278.111 59.8095 278.111 59.9457V60.5044V61.1584C278.111 61.4991 278.111 61.8261 278.07 62.1531C277.988 61.9487 277.851 61.6762 277.66 61.3628C277.142 60.5861 276.528 60.191 275.792 60.191C275.247 60.2591 274.878 60.4771 274.674 60.8723C274.592 61.1039 274.524 61.3764 274.483 61.6762C274.483 61.7171 274.483 61.7579 274.483 61.8124C274.483 61.8669 274.469 61.9215 274.455 61.9896C274.455 62.0577 274.442 62.1122 274.428 62.1667V64.0743C274.401 64.9191 274.428 65.614 274.483 66.1727C274.619 66.6904 274.796 67.0719 274.987 67.3172C275.11 67.4671 275.287 67.5897 275.506 67.6851C275.724 67.7805 275.942 67.835 276.174 67.835C276.679 67.835 277.129 67.6715 277.51 67.3581C277.715 67.1401 277.96 66.8131 278.247 66.377L278.315 66.3498C278.315 66.3498 278.411 66.3907 278.411 66.486C278.274 66.9221 278.001 67.3036 277.592 67.6306C277.183 67.9576 276.747 68.1484 276.297 68.2301C275.942 68.2846 275.628 68.3255 275.342 68.3255C273.91 68.3255 272.792 67.7396 272.001 66.5542C271.701 66.0909 271.496 65.5731 271.387 65.0008C271.346 64.7147 271.319 64.4286 271.319 64.1424C271.319 63.3249 271.496 62.5755 271.837 61.8806C272.369 60.8586 273.214 60.2182 274.387 59.9457C274.769 59.864 275.137 59.8231 275.533 59.8231C275.737 59.8231 275.915 59.8231 276.078 59.864C276.501 59.9049 276.829 59.9321 277.074 59.9321C277.429 59.9321 277.729 59.8776 277.988 59.755L277.974 59.7413ZM281.534 59.7413C282.297 59.7686 282.925 59.7686 283.416 59.7686C283.77 59.7686 284.248 59.7686 284.848 59.7413C284.998 59.7413 285.107 59.7413 285.148 59.7958C285.189 59.8367 285.23 59.9457 285.257 60.0956L285.366 60.5453C285.666 61.4173 286.048 62.5482 286.498 63.938C286.948 65.3006 287.289 66.268 287.507 66.8267C287.644 67.1673 287.78 67.4535 287.916 67.6715C287.985 67.7669 288.08 67.8895 288.216 68.0394L288.325 68.1211C288.325 68.1211 288.421 68.2165 288.421 68.2301C288.421 68.2574 288.353 68.271 288.216 68.271C287.507 68.2438 286.798 68.2301 286.075 68.2301C285.298 68.2301 284.589 68.2438 283.948 68.271C283.92 68.271 283.907 68.271 283.907 68.2301C283.907 68.2165 283.907 68.2029 283.907 68.1893C284.234 67.9576 284.384 67.6306 284.384 67.2218C284.384 66.8948 284.234 66.3634 283.92 65.6276C283.77 65.2325 283.675 65.0145 283.661 64.9463C283.607 64.851 283.552 64.7965 283.484 64.7965H281.875C281.67 64.7965 281.561 65.0417 281.561 65.5459V65.9001C281.561 66.268 281.588 66.5542 281.643 66.7449C281.684 66.9221 281.793 67.1946 281.956 67.5216C282.093 67.8077 282.284 68.0394 282.529 68.2438C281.956 68.2165 281.315 68.2029 280.62 68.2029C279.924 68.2029 279.283 68.2029 278.656 68.2438C278.615 68.2301 278.588 68.2165 278.588 68.2029C278.588 68.1756 278.642 68.1211 278.738 68.053C279.161 67.7941 279.57 67.4535 279.938 67.0311C280.511 66.3362 280.988 65.4914 281.37 64.4831C282.079 62.4392 282.434 61.39 282.447 61.3355C282.447 61.1312 282.352 60.8859 282.161 60.5998C281.997 60.3409 281.82 60.1365 281.629 59.973C281.493 59.864 281.438 59.7822 281.438 59.7141C281.438 59.6868 281.465 59.6732 281.52 59.6732L281.534 59.7413ZM282.884 62.4801C282.802 62.2757 282.734 62.1667 282.679 62.1667C282.625 62.1667 282.57 62.2348 282.502 62.3575C282.502 62.3575 282.502 62.3847 282.488 62.4256C282.488 62.4665 282.461 62.4937 282.461 62.5074C282.434 62.5891 282.379 62.7799 282.27 63.0933C282.161 63.4067 282.066 63.6792 281.997 63.9108C281.956 64.0334 281.929 64.1424 281.929 64.2378C281.929 64.3877 281.984 64.4695 282.106 64.4695H283.307C283.443 64.4695 283.511 64.4013 283.511 64.2651C283.511 64.2378 283.511 64.2242 283.511 64.1969C283.511 64.1697 283.484 64.1152 283.457 64.0198C283.429 63.938 283.388 63.8154 283.334 63.6655C283.279 63.5157 283.238 63.3658 283.184 63.2295C283.116 63.0388 283.02 62.7799 282.911 62.4665L282.884 62.4801ZM296.113 59.7277C296.508 59.7277 296.877 59.7822 297.204 59.9321C297.749 60.191 298.022 60.7633 298.022 61.6489C298.022 61.9351 297.981 62.1667 297.886 62.3438C297.708 62.6027 297.49 62.7935 297.245 62.9161C296.74 63.1205 296.454 63.2431 296.386 63.2704C296.317 63.2976 296.276 63.3249 296.276 63.3521C296.276 63.3794 296.345 63.4067 296.481 63.4339C297.067 63.5293 297.504 63.7882 297.777 64.2242C297.886 64.4967 297.94 64.8101 297.94 65.1371C297.94 65.3279 297.913 65.6413 297.845 66.1181C297.79 66.5133 297.763 66.8403 297.763 67.0992C297.763 67.29 297.818 67.399 297.94 67.4262C298.09 67.4262 298.199 67.3308 298.281 67.1401C298.336 67.0856 298.39 66.9493 298.431 66.7722C298.486 66.5269 298.527 66.3907 298.54 66.3634C298.581 66.3225 298.636 66.2953 298.677 66.2953C298.704 66.2953 298.731 66.2953 298.731 66.2953C298.8 66.3634 298.827 66.4588 298.827 66.5951C298.827 66.7177 298.813 66.8403 298.786 66.9493C298.704 67.2763 298.54 67.5761 298.295 67.8486C298.036 68.1211 297.736 68.2846 297.422 68.3391C297.095 68.3936 296.822 68.4345 296.577 68.4345C295.99 68.4345 295.54 68.271 295.226 67.9304C295.049 67.6987 294.954 67.3853 294.954 67.0038C294.954 66.8539 294.967 66.6223 295.008 66.3089C295.022 66.1999 295.035 66.0909 295.049 65.9819C295.049 65.8729 295.076 65.7911 295.076 65.7366C295.076 65.6821 295.076 65.6413 295.076 65.614C295.076 65.5186 295.076 65.3551 295.076 65.1371C295.076 64.5921 294.913 64.2242 294.599 64.0334C294.422 63.938 294.203 63.8835 293.931 63.8835C293.767 63.8835 293.631 63.8972 293.535 63.9244C293.426 64.0062 293.358 64.0879 293.358 64.1833V64.8918C293.358 64.96 293.358 65.0281 293.358 65.0962C293.358 65.1644 293.358 65.2189 293.358 65.2597V65.614C293.358 66.7586 293.508 67.5625 293.808 68.0121C293.808 68.0121 293.822 68.053 293.835 68.0802C293.835 68.0939 293.863 68.1211 293.876 68.1348C293.876 68.1348 293.876 68.162 293.876 68.2029C293.876 68.2438 293.835 68.2574 293.767 68.2574C292.553 68.1892 291.858 68.162 291.68 68.162C291.162 68.162 290.508 68.1893 289.717 68.2438C289.607 68.2438 289.539 68.2438 289.539 68.2029C289.539 68.162 289.567 68.1211 289.621 68.0666C290.194 67.4807 290.48 66.595 290.48 65.4369C290.48 65.3824 290.48 65.1099 290.453 64.6193C290.439 64.1152 290.426 63.829 290.426 63.7745C290.426 63.7064 290.426 63.6383 290.426 63.5565C290.426 63.4748 290.426 63.3658 290.426 63.2295C290.426 62.8207 290.426 62.3983 290.385 61.9896C290.33 61.2538 290.085 60.6406 289.689 60.1365C289.648 60.082 289.621 60.0275 289.621 59.973C289.621 59.9321 289.717 59.9049 289.88 59.9049C290.412 59.9457 290.971 59.973 291.571 59.973C292.24 59.973 292.962 59.9457 293.726 59.8912C293.767 59.8912 293.944 59.8912 294.217 59.8504C294.49 59.8095 294.735 59.8095 294.926 59.7958C295.022 59.7822 295.39 59.755 296.045 59.7005L296.113 59.7277ZM294.585 60.409C294.435 60.3272 294.244 60.3 293.985 60.3C293.822 60.3 293.658 60.3954 293.508 60.5725C293.358 60.736 293.29 60.9132 293.29 61.0767C293.29 61.5127 293.29 61.8806 293.29 62.194C293.29 62.5482 293.29 62.9297 293.29 63.3249C293.29 63.4884 293.372 63.5838 293.549 63.5838C293.794 63.5838 294.163 63.393 294.667 63.0251C294.981 62.7935 295.131 62.3711 295.131 61.7579C295.131 61.5127 295.09 61.2674 294.994 61.0085C294.885 60.7088 294.735 60.518 294.558 60.4226L294.585 60.409ZM300.191 59.755C300.613 59.755 301.159 59.755 301.841 59.7958C302.645 59.8231 303.341 59.8367 303.955 59.8367C305.059 59.8367 306.191 59.8095 307.337 59.755V60.5316C307.337 60.8314 307.351 61.1039 307.364 61.3355C307.364 61.5672 307.364 61.8397 307.364 62.1395C307.364 62.1667 307.364 62.1803 307.323 62.1803C307.282 62.1803 307.214 62.0713 307.064 61.8397C307.023 61.7716 306.969 61.7034 306.914 61.6353C306.86 61.5672 306.832 61.5127 306.805 61.4854C306.778 61.4582 306.764 61.4309 306.764 61.4309C306.014 60.6134 305.278 60.2046 304.582 60.2046C304.473 60.2046 304.364 60.2046 304.241 60.2455C304.077 60.409 303.996 60.7088 303.982 61.1584C303.982 61.4582 303.982 61.9214 303.982 62.5619C303.982 63.3249 304.023 63.7064 304.118 63.7064C304.637 63.7064 305.155 63.4748 305.673 63.0115C305.878 62.8344 306.082 62.6164 306.3 62.3438C306.328 62.3438 306.341 62.957 306.341 64.1969V65.3006C306.082 64.9464 305.769 64.6602 305.373 64.4558C304.978 64.2514 304.568 64.1424 304.132 64.1424C304.037 64.1561 303.996 64.6602 303.996 65.6549C303.996 66.377 304.037 67.0038 304.118 67.508C304.159 67.7124 304.309 67.8214 304.568 67.8077H305.114C305.85 67.7669 306.532 67.3308 307.16 66.5133C307.392 66.1999 307.664 65.8048 307.937 65.3279C307.937 65.614 307.937 65.8865 307.937 66.1181C307.937 66.3498 307.937 66.6223 307.937 66.9084C307.937 67.2355 307.937 67.6987 307.964 68.2983L305.987 68.2574H304.378C303 68.2574 301.65 68.2846 300.313 68.3528C300.245 68.3391 300.218 68.3119 300.218 68.2846C300.218 68.2574 300.232 68.2029 300.259 68.1484C300.818 67.4943 301.091 66.4997 301.091 65.1507V64.5103V64.2514V62.9979C301.091 62.0032 301.036 61.3219 300.927 60.9268C300.832 60.5998 300.6 60.2046 300.218 59.755H300.191ZM231.659 21.0036C231.891 20.9219 232.027 20.8946 232.041 20.9491C232.055 21.0036 232.041 21.0717 231.986 21.1807C231.427 22.3798 231.045 24.0421 230.827 26.1405C230.718 27.1897 230.65 28.1571 230.609 29.0427L230.486 31.5635C230.35 33.7708 230.323 35.8692 230.432 37.8449C230.514 39.589 230.568 40.6109 230.595 40.9107C230.623 41.1151 230.595 41.2513 230.568 41.3058C230.527 41.3603 230.404 41.4285 230.2 41.5102L228.222 42.2188C227.554 42.464 226.94 42.682 226.395 42.9C226.19 42.9682 225.999 42.9137 225.849 42.7229C224.049 40.4065 221.758 37.7087 218.976 34.6156C218.853 34.4658 218.471 34.0434 217.83 33.3348C217.189 32.6263 216.712 32.0949 216.371 31.6997C215.28 30.5279 214.339 29.6423 213.534 29.0564C213.466 28.9882 213.179 28.8384 212.702 28.6067C212.252 28.3615 212.02 28.2116 212.007 28.1843C211.966 28.0889 212.116 28.0072 212.443 27.9118C213.166 27.6665 214.243 27.285 215.689 26.7673C217.762 26.0315 219.508 25.3638 220.953 24.7779C220.98 24.8597 220.953 25.1458 220.885 25.6363C220.83 25.7998 220.83 25.9225 220.858 26.0178C220.858 26.2359 220.926 26.522 221.062 26.8899C221.24 27.3668 221.485 27.8164 221.812 28.2388C221.949 28.3887 222.208 28.6612 222.562 29.0427C222.917 29.4243 223.19 29.7376 223.367 29.942L225.072 31.7815C226.218 33.0214 226.886 33.7436 227.09 33.9616L228.822 35.7874C228.945 35.9237 229.068 35.9646 229.191 35.9237C229.3 35.8828 229.368 35.8011 229.368 35.6648C229.491 34.7246 229.572 33.5256 229.586 32.0949C229.613 29.9284 229.422 28.2797 229.013 27.1352C228.727 26.3312 228.318 25.6363 227.786 25.0777C227.227 24.4509 226.504 23.9467 225.658 23.5516C225.481 23.4699 225.386 23.4017 225.358 23.3336C225.345 23.2791 225.358 23.2518 225.426 23.2246L231.632 21.0036H231.659ZM238.696 19.6683C240.36 19.4094 241.738 19.1914 242.801 19.0006C243.565 18.8644 244.588 18.6464 245.884 18.3602C246.211 18.2785 246.429 18.2785 246.552 18.3602C246.675 18.4284 246.797 18.6327 246.92 18.9734L247.316 19.8999C248.311 21.6713 249.566 23.974 251.107 26.7945C252.621 29.5741 253.739 31.5226 254.448 32.6399C254.858 33.3212 255.28 33.8799 255.676 34.3159C255.867 34.5066 256.126 34.7383 256.467 34.9972L256.753 35.1198C256.903 35.2288 256.999 35.2969 256.999 35.3378C256.999 35.4059 256.862 35.4604 256.562 35.5149C255.021 35.7329 253.466 35.9782 251.912 36.2643C250.234 36.5641 248.707 36.8775 247.316 37.2045C247.261 37.2045 247.234 37.2045 247.234 37.15C247.234 37.1228 247.234 37.0955 247.234 37.0683C247.848 36.4415 248.066 35.6784 247.902 34.7791C247.779 34.0842 247.234 32.9942 246.279 31.5226C245.788 30.7323 245.515 30.2827 245.434 30.16C245.284 29.9693 245.134 29.8875 244.997 29.9012L241.506 30.5416C241.056 30.6233 240.933 31.2092 241.124 32.2856L241.26 33.0623C241.41 33.8526 241.574 34.4521 241.765 34.8473C241.942 35.2288 242.27 35.7466 242.747 36.4142C243.156 36.9729 243.674 37.4225 244.274 37.7495C243.02 37.9267 241.629 38.1583 240.128 38.4308C238.669 38.7033 237.251 38.9758 235.873 39.2892C235.764 39.2756 235.71 39.262 235.71 39.2347C235.71 39.1666 235.791 39.044 235.969 38.8532C236.801 38.1311 237.523 37.2454 238.151 36.169C239.119 34.4249 239.815 32.4083 240.237 30.1055C240.96 25.3911 241.329 22.9793 241.342 22.8839C241.26 22.4343 240.96 21.9438 240.428 21.3988C239.965 20.9219 239.501 20.5403 239.037 20.2678C238.71 20.0907 238.533 19.9272 238.519 19.8045C238.519 19.7364 238.56 19.6955 238.669 19.6683H238.696ZM242.692 25.0641C242.447 24.6417 242.256 24.4509 242.12 24.4781C241.997 24.5054 241.901 24.6689 241.82 24.9687C241.82 24.9823 241.82 25.0368 241.82 25.1186C241.82 25.2003 241.792 25.2684 241.792 25.3229C241.779 25.5001 241.71 25.9497 241.601 26.6719C241.492 27.394 241.397 28.0208 241.329 28.5522C241.274 28.8384 241.274 29.0836 241.315 29.3016C241.369 29.6286 241.533 29.7785 241.779 29.7376L244.37 29.2608C244.67 29.2062 244.793 29.0291 244.738 28.7294C244.738 28.6749 244.711 28.634 244.684 28.5795C244.656 28.5113 244.588 28.4023 244.493 28.2252C244.397 28.0481 244.261 27.8164 244.097 27.5167C243.933 27.2169 243.77 26.9171 243.606 26.6174C243.388 26.2359 243.088 25.7181 242.706 25.0777L242.692 25.0641ZM273.324 16.4118C274.196 16.3845 275.001 16.5344 275.737 16.8478C276.938 17.3928 277.551 18.6464 277.579 20.6085C277.579 21.2352 277.483 21.753 277.292 22.1618C276.91 22.7341 276.447 23.1701 275.888 23.4426C274.783 23.9059 274.142 24.1784 273.992 24.2465C273.842 24.301 273.76 24.3555 273.76 24.4236C273.76 24.4918 273.91 24.5463 274.224 24.6008C275.533 24.7915 276.488 25.3638 277.101 26.3176C277.347 26.9171 277.47 27.5848 277.47 28.3206C277.47 28.7294 277.415 29.4379 277.292 30.4734C277.183 31.3591 277.129 32.0676 277.142 32.6263C277.142 33.0487 277.279 33.2939 277.524 33.3621C277.851 33.3621 278.083 33.1441 278.247 32.7217C278.37 32.5854 278.465 32.3129 278.574 31.9041C278.697 31.3591 278.779 31.0593 278.82 31.0185C278.915 30.9231 279.024 30.8686 279.12 30.8686C279.188 30.8686 279.229 30.8686 279.242 30.8958C279.379 31.0321 279.447 31.2501 279.447 31.5499C279.447 31.8224 279.42 32.0813 279.352 32.3401C279.188 33.0487 278.833 33.7163 278.288 34.3295C277.715 34.9427 277.088 35.3105 276.378 35.4332C275.669 35.5694 275.042 35.6512 274.51 35.6512C273.228 35.6512 272.232 35.2969 271.537 34.5611C271.128 34.0434 270.923 33.3621 270.91 32.5173C270.91 32.1766 270.937 31.6725 271.019 30.9912C271.046 30.7596 271.073 30.5143 271.101 30.2827C271.128 30.051 271.141 29.8603 271.155 29.7376C271.169 29.615 271.182 29.5196 271.182 29.4651C271.196 29.2471 271.196 28.8929 271.196 28.4296C271.196 27.2305 270.828 26.4266 270.105 26.0042C269.709 25.7862 269.218 25.6772 268.632 25.6908C268.264 25.6908 267.977 25.7317 267.773 25.7998C267.527 25.9906 267.391 26.1677 267.405 26.3585V27.1897L267.418 27.8982C267.418 28.0481 267.418 28.198 267.418 28.3478C267.418 28.4977 267.418 28.6203 267.418 28.7157C267.418 28.8111 267.418 28.9201 267.418 29.0019C267.418 29.0972 267.418 29.1654 267.418 29.2335C267.418 29.288 267.418 29.3425 267.418 29.397C267.418 29.4515 267.418 29.4788 267.418 29.4924C267.446 32.0131 267.786 33.7708 268.455 34.7791L268.482 34.8064C268.482 34.8064 268.523 34.8745 268.55 34.9154C268.577 34.9563 268.605 34.9972 268.646 35.0244C268.659 35.038 268.673 35.0925 268.673 35.1743C268.673 35.256 268.591 35.2969 268.441 35.2969C265.768 35.1879 264.241 35.1334 263.859 35.1334C262.727 35.1334 261.281 35.2152 259.522 35.3514C259.263 35.365 259.14 35.3514 259.14 35.256C259.14 35.1743 259.194 35.0653 259.317 34.9563C260.572 33.6482 261.186 31.6997 261.158 29.1381C261.158 29.0155 261.131 28.416 261.09 27.3395C261.049 26.2222 261.022 25.6091 261.022 25.4728C261.022 25.3229 261.022 25.1594 261.049 24.9959C261.063 24.8052 261.077 24.5735 261.063 24.2874C261.063 23.3745 261.036 22.4616 260.954 21.5486C260.804 19.9272 260.272 18.5782 259.372 17.4882C259.263 17.3656 259.222 17.2565 259.222 17.1339C259.235 17.0385 259.426 16.984 259.781 16.9704C260.954 17.0658 262.195 17.093 263.504 17.0794C264.991 17.0658 266.573 16.984 268.237 16.8614C268.332 16.8614 268.7 16.8342 269.328 16.7797C269.955 16.7251 270.473 16.6706 270.896 16.6434C271.101 16.6025 271.919 16.5344 273.351 16.4118H273.324ZM269.969 17.9378C269.641 17.7743 269.205 17.6926 268.646 17.6926C268.277 17.6926 267.923 17.897 267.609 18.3057C267.295 18.6736 267.132 19.0551 267.145 19.423C267.145 20.3632 267.173 21.1807 267.2 21.8756C267.227 22.6523 267.241 23.4835 267.255 24.3555C267.255 24.7234 267.459 24.9142 267.841 24.9005C268.387 24.9005 269.191 24.4781 270.282 23.6334C270.951 23.1156 271.278 22.189 271.264 20.8401C271.264 20.2951 271.155 19.75 270.937 19.205C270.678 18.551 270.35 18.115 269.955 17.9242L269.969 17.9378ZM298.363 19.8727C299.059 20.3223 299.727 20.881 300.354 21.535C300.9 22.1482 301.377 22.9112 301.759 23.7832C302.468 25.3502 302.659 27.0943 302.345 29.0291C302.032 30.964 301.309 32.599 300.163 33.9344C299.059 35.256 297.722 36.1826 296.167 36.7004C294.667 37.1773 293.058 37.2726 291.339 37.0001C290.726 36.9047 290.112 36.7549 289.485 36.5505C287.889 36.0463 286.484 35.1334 285.257 33.8117C283.989 32.4764 283.238 30.9912 283.007 29.3698C282.87 28.5113 282.897 27.4894 283.088 26.304C283.593 23.1565 285.161 20.8401 287.766 19.3413C289.594 18.2921 291.762 17.9651 294.272 18.3739C295.867 18.6327 297.231 19.1369 298.363 19.8863V19.8727ZM294.203 19.0688C292.785 18.8371 291.803 19.2868 291.23 20.4313C290.849 21.1671 290.603 21.8893 290.467 22.5842C290.098 24.1784 289.812 25.6363 289.607 26.9308C289.43 28.0344 289.226 29.5878 289.007 31.6044C288.803 33.3621 289.076 34.6838 289.798 35.5558C290.18 35.9101 290.685 36.1281 291.285 36.2371C292.69 36.4687 293.644 36.0191 294.149 34.9018C294.449 34.2205 294.694 33.4166 294.899 32.5037C295.267 30.7323 295.54 29.3561 295.704 28.3478C295.949 26.8081 296.154 25.1867 296.317 23.4698C296.386 22.7341 296.413 22.2027 296.413 21.9029C296.413 21.317 296.304 20.8128 296.126 20.3632C295.813 19.641 295.172 19.205 294.203 19.0551V19.0688ZM317.92 24.4509C318.357 24.5872 318.548 24.7234 318.507 24.846C318.397 24.9823 318.288 25.2139 318.179 25.5409C318.002 26.1405 317.975 26.6991 318.125 27.2169C318.234 27.6529 318.534 28.5795 319.011 30.0102C319.489 31.4136 320.184 33.2667 321.098 35.5422C321.221 35.8147 321.343 35.9782 321.466 36.0191C321.575 36.06 321.671 35.9918 321.725 35.8147C322.543 33.512 323.048 31.8088 323.212 30.6914C323.498 28.9474 323.239 27.5439 322.434 26.4811C322.298 26.2631 322.23 26.1269 322.257 26.0723C322.284 26.0042 322.462 26.0451 322.816 26.1677L327.712 27.9118C327.917 27.9799 328.012 28.0481 327.999 28.0889C327.971 28.1571 327.849 28.2116 327.63 28.2797C326.335 28.6749 325.189 29.8467 324.194 31.7815C323.785 32.5854 323.375 33.5528 322.966 34.6974C322.912 34.8609 322.694 35.5013 322.339 36.6186L321.63 38.8123C321.452 39.3982 321.18 40.2567 320.784 41.4148L320.402 42.6275C320.089 43.6494 319.857 44.3716 319.693 44.8213C319.639 44.9711 319.448 44.9711 319.12 44.8621L318.043 44.4806C317.238 44.1945 316.802 43.9628 316.747 43.7993C316.256 41.8509 315.547 39.4664 314.592 36.6595C313.542 33.4711 312.492 30.6778 311.428 28.2661C311.374 28.1571 311.306 28.0889 311.21 28.0481C311.087 28.0072 310.992 28.0208 310.937 28.1162C310.828 28.3751 310.596 28.9882 310.269 29.9148C309.451 32.2175 308.974 34.1387 308.851 35.6784C308.687 37.9267 309.178 39.7934 310.324 41.265C310.446 41.4557 310.501 41.592 310.474 41.6737C310.433 41.7827 310.324 41.7964 310.146 41.6874C308.946 41.1832 307.801 40.7472 306.723 40.352C305.973 40.0795 305.305 39.8615 304.705 39.6571C304.105 39.4664 303.45 39.2347 302.714 38.9758C302.605 38.935 302.55 38.8941 302.564 38.8668C302.577 38.8396 302.7 38.7578 302.932 38.6488C304.555 37.9675 305.864 36.9184 306.86 35.5013C307.323 34.8064 307.719 34.0025 308.06 33.1032C308.742 31.4136 309.192 30.2554 309.41 29.6286C309.915 28.2116 310.296 27.0398 310.556 26.1132C309.928 24.5599 309.383 23.429 308.946 22.7204C308.674 22.2844 308.278 21.7121 307.746 21.0309L307.719 20.9627C307.76 20.8537 307.951 20.881 308.305 21.0445C311.06 22.1209 312.697 22.7477 313.229 22.9384C314.579 23.4153 316.147 23.9195 317.92 24.4236V24.4509ZM308.564 13.3187C308.346 12.7465 307.814 12.3786 307.214 12.3513C307.023 12.3513 306.832 12.3786 306.655 12.4467C304.882 13.1144 302.877 13.4141 300.532 13.346C299.1 13.3051 297.518 13.128 295.84 12.8282C291.394 12.0107 288.121 10.6209 285.83 8.59063C285.571 8.359 285.23 8.22274 284.875 8.20912C284.439 8.20912 284.016 8.38625 283.729 8.71326C283.184 9.32642 283.238 10.2666 283.852 10.8116C286.566 13.2234 290.317 14.8312 295.308 15.7577C297.136 16.0984 298.868 16.2891 300.45 16.33C303.177 16.3981 305.55 16.0439 307.692 15.24C308.06 15.1037 308.36 14.8312 308.523 14.4633C308.687 14.109 308.701 13.7003 308.564 13.3324V13.3187ZM296.195 10.5255C298.418 10.9342 300.6 11.0296 302.686 10.8661L302.823 10.8934V10.8525L303.355 5.23872C303.696 3.23575 302.345 1.30091 300.341 0.933014L295.581 0.0609719C293.59 -0.306921 291.68 1.02839 291.339 3.03136L289.962 8.5225L290.017 8.54976C291.899 9.44905 293.985 10.1303 296.208 10.5391L296.195 10.5255Z" fill="white"/>
</svg>
