<svg width="254" height="131" viewBox="0 0 254 131" fill="none" xmlns="http://www.w3.org/2000/svg">
<path d="M14.688 7.416H17.536C18.048 7.416 18.496 7.256 18.496 6.52C18.496 2.52 18.496 2.232 18.368 1.56C18.336 1.4 18.112 0.727999 18.112 0.599998C18.112 0.279999 18.4 0.279999 18.56 0.279999C19.04 0.279999 21.984 1.08 21.984 1.752C21.984 2.008 21.888 2.072 21.44 2.456C20.928 2.872 20.768 3 20.768 6.52C20.768 7.416 21.536 7.416 21.792 7.416H23.296C24.48 7.416 24.736 7.352 24.928 7.128C25.152 6.84 25.984 5.304 26.304 5.304C26.752 5.304 28.992 7.352 28.992 7.832C28.992 8.248 28.8 8.248 27.264 8.248H21.728C20.8 8.248 20.736 8.824 20.736 9.272C20.736 9.336 20.736 13.88 20.8 14.04C20.992 14.52 21.472 14.52 21.696 14.52H24.64C26.048 14.52 26.208 14.52 26.496 14.264C26.784 13.976 27.84 12.472 28.192 12.472C28.576 12.472 30.848 14.328 30.848 14.872C30.848 15.384 30.304 15.384 29.248 15.384H23.168C22.144 15.384 22.112 15.768 22.112 16.76C22.112 18.072 22.112 24.216 22.24 25.08C22.336 25.848 22.464 26.488 25.056 26.488C27.68 26.488 27.904 25.976 28.576 23.928C29.152 22.232 29.184 22.072 29.312 21.528C29.344 21.496 29.408 21.208 29.504 21.208C29.632 21.208 29.696 21.944 29.728 22.136C29.92 24.344 29.952 24.6 30.336 25.24C30.752 25.944 30.816 26.04 30.816 26.232C30.816 26.392 30.368 28.6 25.76 28.6C20.352 28.6 20 27.416 20 23.864V16.12C19.904 15.384 19.328 15.384 19.072 15.384H16.704C16.64 15.384 16.544 15.384 16.544 15.48C16.544 15.544 17.152 15.864 17.248 15.896C17.568 16.088 17.728 16.152 17.728 16.344C17.728 16.536 17.056 16.952 16.992 17.08C16.768 17.496 16.64 19.544 16.576 19.928C16.352 21.368 15.552 26.36 10.496 28.472C9.984 28.696 8.672 29.112 8.16 29.112C8.096 29.112 8.064 29.08 8.064 29.048C8.064 28.952 9.248 28.312 9.472 28.184C10.88 27.256 14.848 24.696 14.848 17.048C14.848 16.056 14.848 15.384 13.952 15.384C13.472 15.384 11.616 15.384 10.752 15.448C10.624 15.48 10.176 15.544 10.048 15.544C9.952 15.544 9.888 15.448 9.792 15.32L9.152 14.584C9.024 14.456 9.024 14.424 9.024 14.392C9.024 14.328 9.056 14.296 9.152 14.296C9.344 14.296 10.336 14.424 10.56 14.424C12.128 14.488 13.44 14.52 14.944 14.52H17.472C17.952 14.52 18.496 14.52 18.496 13.656V8.952C18.4 8.248 17.888 8.248 17.6 8.248H14.144C13.856 8.248 13.536 8.248 13.088 8.856C12.736 9.336 10.816 11.832 10.4 11.832C10.304 11.832 10.304 11.768 10.304 11.736C10.304 11.672 11.456 9.24 11.648 8.824C12.384 7.064 13.408 4.28 13.408 2.584C13.408 1.912 13.408 1.72 13.696 1.72C13.888 1.72 16.416 2.904 16.416 3.736C16.416 4.056 16.256 4.12 15.968 4.248C15.584 4.408 15.488 4.568 14.688 6.104C14.304 6.84 14.272 6.904 14.272 7C14.272 7.032 14.272 7.416 14.688 7.416ZM4.416 8.44C4.928 8.664 6.336 9.432 6.336 10.808C6.336 11.608 5.856 12.056 5.312 12.056C4.672 12.056 4.544 11.864 3.36 10.168C2.784 9.336 2.112 8.76 1.792 8.504C1.696 8.44 1.28 8.152 1.28 8.088C1.28 7.864 1.6 7.864 1.664 7.864C2.496 7.864 3.648 8.088 4.416 8.44ZM5.984 1.4C6.816 1.72 8.736 2.616 8.736 3.992C8.736 4.824 8.224 5.464 7.584 5.464C6.816 5.464 6.464 4.888 5.6 3.48C5.056 2.584 4.544 1.976 3.808 1.208C3.712 1.144 3.584 1.016 3.584 0.887999C3.584 0.759998 3.744 0.759998 3.808 0.759998C4.16 0.759998 5.6 1.24 5.984 1.4ZM5.664 28.952C4.512 28.952 4.288 27.8 4.288 27C4.288 24.504 4.288 22.136 2.464 20.984C2.208 20.824 2.016 20.792 1.792 20.696C1.728 20.696 1.664 20.664 1.664 20.632C1.664 20.504 3.136 20.024 3.392 19.864C4.224 19.32 5.28 17.208 8.448 10.936C8.96 9.88 9.024 9.752 9.184 9.752C9.248 9.752 9.248 9.848 9.248 9.88C9.248 10.008 7.904 14.008 7.712 14.584C5.984 19.704 5.952 19.768 5.952 21.272C5.952 21.784 5.984 22.36 6.432 23.576C7.232 25.72 7.232 26.168 7.232 26.648C7.232 26.968 7.232 28.952 5.664 28.952ZM48.704 8.888H51.2C51.936 8.888 52.128 8.568 52.128 7.8C52.128 5.752 52.032 5.592 51.168 5.592H49.728C47.424 5.592 46.336 5.624 45.696 5.688C45.6 5.688 45.12 5.752 45.024 5.752C44.896 5.752 44.832 5.688 44.736 5.528L44.128 4.792C44 4.664 43.968 4.632 43.968 4.6C43.968 4.536 44.032 4.536 44.096 4.536C44.32 4.536 45.312 4.632 45.504 4.632C47.072 4.696 48.384 4.728 49.888 4.728H51.168C51.52 4.728 51.968 4.728 51.968 4.024C51.968 3.672 51.872 2.04 51.872 1.688C51.84 1.464 51.552 0.567999 51.552 0.375999C51.552 0.247999 51.712 0.247999 51.808 0.247999C52.032 0.247999 53.792 0.695999 54.24 0.823999C54.816 0.983999 55.008 1.016 55.008 1.336C55.008 1.656 54.656 1.88 54.496 1.976C54.112 2.168 54.016 2.296 54.016 2.744C54.016 4.504 54.016 4.728 55.04 4.728H57.024C57.92 4.728 58.368 4.728 58.592 4.632C58.912 4.472 59.968 3.224 60.256 3.224C60.672 3.224 62.528 4.952 62.528 5.144C62.528 5.592 61.888 5.592 60.832 5.592H55.04C54.112 5.592 53.984 5.88 53.984 6.776C53.984 8.664 53.984 8.888 55.008 8.888H57.44C57.792 8.888 58.112 8.888 58.496 8.664C58.656 8.568 59.328 8.024 59.488 8.024C59.936 8.024 61.44 9.24 61.44 9.656C61.44 9.88 61.344 9.944 60.832 10.296C60.544 10.488 60.48 10.744 60.48 11.096C60.48 11.992 60.672 15.96 60.672 16.76C60.672 17.752 60.192 18.648 59.328 18.648C58.752 18.648 58.624 18.328 58.496 18.072C58.336 17.752 58.208 17.592 57.504 17.592H55.264C55.04 17.592 54.688 17.624 54.688 18.04C54.688 18.616 57.728 23.48 62.528 25.368C62.784 25.464 62.944 25.624 62.944 25.688C62.656 25.784 61.408 26.232 61.184 26.328C60.96 26.424 59.968 27.064 59.744 27.064C59.2 27.064 57.088 24.76 54.752 20.312C54.304 19.48 54.272 19.384 54.176 19.384C53.984 19.384 53.984 19.544 53.984 19.896C53.984 21.112 54.112 27.032 54.112 27.448C54.112 28.984 53.216 29.528 52.544 29.528C52.032 29.528 52.032 28.984 52.032 28.792C52.032 27.256 52.224 20.472 52.224 19.064C52.224 18.904 52.16 18.776 52.032 18.776C51.936 18.776 51.424 19.48 51.136 19.896C49.248 22.488 47.232 25.016 44.192 26.808C43.776 27.064 42.784 27.64 42.336 27.64C42.016 27.64 43.904 26.104 44.224 25.816C47.712 22.424 49.92 18.36 49.92 17.944C49.92 17.592 49.664 17.592 49.472 17.592H48.64C48.416 17.592 47.936 17.592 47.712 17.976C47.36 18.616 46.912 18.84 46.4 18.84C45.632 18.84 45.632 18.296 45.632 18.04C45.632 17.848 45.696 16.984 45.696 16.792C45.792 12.632 45.824 12.152 45.824 11.384C45.824 10.968 45.536 8.44 45.536 8.312C45.536 8.248 45.568 8.184 45.664 8.184C45.952 8.184 47.104 8.632 47.328 8.696C47.936 8.888 48.448 8.888 48.704 8.888ZM48.704 16.728H51.104C52.128 16.728 52.128 16.248 52.128 15.064C52.128 14.04 52.096 13.56 51.104 13.56H48.704C47.712 13.56 47.68 14.04 47.68 15.128C47.68 16.216 47.68 16.728 48.704 16.728ZM54.976 12.696H57.632C58.624 12.696 58.624 12.376 58.624 11.064C58.624 10.136 58.624 9.72 57.632 9.72H54.976C53.984 9.72 53.984 10.04 53.984 11.384C53.984 12.28 53.984 12.696 54.976 12.696ZM51.168 9.72H48.672C47.648 9.72 47.648 10.04 47.648 11.512C47.648 12.216 47.648 12.696 48.672 12.696H51.168C52.16 12.696 52.16 12.248 52.16 11.48C52.16 10.04 52.16 9.72 51.168 9.72ZM57.536 13.56H55.04C53.984 13.56 53.984 13.88 53.984 15.224C53.984 16.376 53.984 16.728 55.04 16.728H57.536C58.592 16.728 58.624 16.408 58.624 15.128C58.624 13.912 58.592 13.56 57.536 13.56ZM34.72 18.232C34.752 18.072 34.912 17.976 35.04 17.976C35.392 17.976 36.832 18.552 37.152 18.616C37.408 18.712 37.568 18.808 37.568 19C37.568 19.16 37.024 19.704 36.928 19.832C36.896 19.896 36.192 22.2 36.032 22.616C35.456 24.152 33.888 27.832 33.344 27.832C33.216 27.832 33.248 27.704 33.6 26.712C34.336 24.664 34.848 21.88 34.848 19.8C34.848 19.544 34.72 18.36 34.72 18.232ZM42.336 14.168C42.4 14.104 42.4 14.04 42.4 13.976C42.4 13.528 41.6 11.48 41.6 11.416C41.6 11.352 41.632 11.32 41.664 11.32C41.728 11.32 43.136 12.696 43.392 12.92C44.64 14.136 45.024 14.68 45.024 15.544C45.024 16.472 44.48 17.08 43.744 17.08C43.2 17.08 43.104 16.568 42.912 15.832C42.816 15.416 42.656 15.192 42.176 15.192C40.64 15.192 40.64 15.704 40.64 16.664C40.64 21.848 40.64 22.424 40.768 26.648C40.768 26.904 40.864 28.024 40.864 28.248C40.864 28.824 40.064 29.432 39.296 29.432C38.624 29.432 38.432 29.144 38.432 28.472C38.432 28.12 38.528 26.552 38.528 26.232C38.592 23.48 38.592 22.008 38.592 17.272C38.592 16.184 38.592 15.832 37.92 15.832C37.792 15.832 35.904 16.152 35.584 16.216C35.36 16.28 34.528 16.792 34.336 16.792C33.76 16.792 33.44 13.88 33.44 13.816C33.44 13.688 33.536 13.56 33.632 13.56C33.76 13.56 34.272 13.848 34.4 13.88C35.008 14.072 35.744 14.232 36.384 14.232C37.216 14.232 37.408 14.072 39.648 9.016C40.192 7.768 40.672 6.648 40.96 5.112C41.088 4.408 41.088 4.312 41.28 4.312C41.6 4.312 43.968 5.56 43.968 5.912C43.968 6.168 43.776 6.232 43.168 6.52C42.816 6.648 41.344 9.336 40.992 9.848C38.752 13.08 38.368 13.688 38.368 13.944C38.368 14.392 38.752 14.392 40.64 14.392C42.048 14.392 42.208 14.392 42.336 14.168ZM38.112 1.08C38.112 0.311998 38.112 0.247999 38.432 0.247999C38.944 0.247999 41.504 1.304 41.504 1.688C41.504 1.88 41.408 1.912 40.512 2.36C40.352 2.424 37.664 5.816 37.664 6.552C37.664 6.776 37.824 6.904 38.272 7.32C38.592 7.64 38.72 8.184 38.72 8.632C38.72 9.304 38.4 10.264 37.632 10.264C37.088 10.264 36.928 9.944 36.32 8.76C35.552 7.224 34.432 6.136 33.92 5.72C33.856 5.656 33.472 5.336 33.472 5.304C33.472 5.24 33.536 5.24 33.632 5.24C33.92 5.24 34.624 5.432 35.232 5.688C36.032 6.04 36.128 6.072 36.32 6.072C37.152 6.072 38.112 2.36 38.112 1.08ZM41.696 18.168C41.824 18.008 45.056 20.184 45.056 21.912C45.056 22.84 44.448 23.832 43.744 23.832C43.328 23.832 43.264 23.64 42.784 21.752C42.528 20.664 42.24 19.608 41.824 18.584C41.792 18.552 41.664 18.2 41.696 18.168ZM73.312 22.232C73.312 21.336 73.568 19.128 75.744 17.048C76.704 16.152 77.12 15.736 77.12 15.32C77.12 15.224 76.896 14.488 76.832 14.328C76.448 13.112 76.288 12.376 76.288 10.584C76.288 9.848 76.448 6.136 76.448 5.304C76.448 3.704 76 3.224 75.488 2.712C74.816 2.008 74.72 1.912 74.72 1.816C74.72 1.688 75.488 1.656 75.584 1.656C77.408 1.656 79.04 3.128 79.04 4.056C79.04 4.344 78.656 5.784 78.592 6.104C78.464 7 78.304 8.472 78.304 10.328C78.304 11.544 78.304 14.136 79.136 14.136C79.584 14.136 79.776 14.008 81.504 12.92C81.856 12.696 83.872 11.416 84.8 11.416C85.536 11.416 86.016 12.056 86.016 12.6C86.016 13.56 84.704 14.072 83.552 14.52C75.936 17.592 74.848 19.928 74.848 22.008C74.848 24.184 76.704 24.984 79.296 24.984C80.896 24.984 82.176 24.664 83.136 24.408C84.576 24.024 84.928 23.928 85.536 23.928C86.624 23.928 87.648 24.664 87.648 25.464C87.648 27.096 81.12 27.256 79.424 27.256C77.952 27.256 73.312 27.256 73.312 22.232ZM100.16 3.064C103.776 5.272 104.16 7.352 104.16 8.024C104.16 8.664 103.808 9.176 103.104 9.176C102.496 9.176 102.336 8.952 101.12 7.128C100.384 5.976 99.104 4.152 97.632 2.456C97.152 1.944 97.12 1.848 97.12 1.816C97.12 1.72 97.184 1.688 97.248 1.688C97.696 1.688 99.456 2.616 100.16 3.064ZM98.08 14.136L97.472 13.4C97.344 13.24 97.344 13.24 97.344 13.176C97.344 13.112 97.408 13.112 97.44 13.112C97.664 13.112 98.848 13.208 99.104 13.208C99.712 13.24 99.936 13.24 101.088 13.24C101.44 13.24 101.664 13.24 101.952 12.856C102.368 12.28 102.592 11.96 102.816 11.96C103.168 11.96 105.088 13.304 105.088 13.784C105.088 13.976 104.896 14.072 104.16 14.392C103.552 14.648 103.552 15.16 103.552 19.704C103.552 21.784 103.552 22.776 105.248 24.024C106.848 25.24 108.928 25.752 115.744 25.752C120.992 25.752 124.704 24.856 125.696 24.632C125.888 24.6 126.816 24.312 126.944 24.312C127.008 24.312 127.104 24.344 127.104 24.44C127.104 24.536 126.752 24.856 126.464 25.144C126.144 25.464 125.184 26.488 125.056 27.448C125.024 27.832 124.992 27.896 124.8 28.024C124.48 28.248 121.376 28.248 120.736 28.248C117.92 28.248 110.688 28.12 108.096 27.48C105.824 26.904 104.352 25.176 103.36 23.64C102.912 22.968 102.848 22.904 102.752 22.904C102.592 22.904 100.64 25.016 99.616 26.776C98.944 27.896 98.944 27.896 98.752 27.896C98.176 27.896 96.96 25.528 96.96 25.176C96.96 24.888 97.184 24.888 97.536 24.888C98.304 24.888 101.088 23.224 101.376 22.648C101.504 22.36 101.536 22.36 101.536 15.16C101.536 14.168 100.928 14.168 100.64 14.168C100.288 14.168 98.624 14.328 98.368 14.328C98.24 14.328 98.208 14.264 98.08 14.136ZM125.12 6.424H117.408C116.576 6.424 116.512 6.488 115.872 7.32C115.136 8.28 113.792 9.272 113.792 9.272C113.76 9.272 113.728 9.24 113.728 9.208C113.728 9.176 113.792 9.08 114.112 8.408C116.032 4.472 116.352 2.072 116.384 1.304C116.416 0.439999 116.416 0.375999 116.928 0.375999C117.184 0.375999 119.616 0.599998 119.616 1.4C119.616 1.624 119.552 1.688 119.008 2.168C118.688 2.488 117.312 5.112 117.312 5.24C117.312 5.56 117.696 5.56 118.048 5.56H120.512C121.344 5.56 121.856 5.56 122.08 5.464C122.4 5.304 123.456 3.768 123.84 3.768C124.16 3.768 126.432 5.464 126.432 5.944C126.432 6.424 126.016 6.424 125.12 6.424ZM113.088 5.976H110.848C110.496 5.976 110.272 5.976 110.272 6.168C110.272 6.232 110.432 6.52 110.432 6.584C110.432 6.776 109.888 7.512 109.824 7.704C109.76 8.472 109.6 10.072 109.6 10.168C109.6 10.744 109.856 10.744 110.272 10.744H110.88C111.232 10.744 111.36 10.744 111.584 10.36C111.968 9.72 112.064 9.56 112.384 9.56C112.608 9.56 114.272 10.264 114.272 10.968C114.272 11.16 114.144 11.288 114.048 11.352C113.632 11.736 113.504 11.8 113.472 12.12C113.344 13.592 113.28 16.632 113.12 18.2C112.576 23.928 110.048 24.184 109.76 24.184C109.28 24.184 109.12 23.864 109.056 23.608C108.832 22.68 108.8 22.488 108.32 21.912C108.256 21.816 107.84 21.496 107.84 21.368C107.84 21.304 107.872 21.304 107.904 21.304C108 21.304 108.352 21.432 108.448 21.464C108.896 21.528 109.472 21.624 109.696 21.624C110.912 21.624 111.424 20.152 111.584 17.592C111.68 15.96 111.808 13.592 111.808 12.408C111.808 11.704 111.488 11.576 110.976 11.576H110.176C109.696 11.576 109.472 11.64 109.344 12.28C108.512 16.984 108.448 17.4 107.584 19.416C106.688 21.528 104.928 23.032 104.672 23.032C104.64 23.032 104.608 23.032 104.608 22.968C104.608 22.936 105.248 21.784 105.376 21.528C107.84 16.792 107.968 8.216 107.968 6.84C107.968 6.52 107.904 6.008 107.2 6.008C106.944 6.008 105.632 6.136 105.44 6.136C105.344 6.136 105.28 6.072 105.152 5.944L104.544 5.208C104.416 5.048 104.416 5.048 104.416 4.984C104.416 4.92 104.48 4.92 104.512 4.92C104.896 4.92 106.688 5.048 107.072 5.048C108.16 5.048 108.16 4.888 108.16 3.448C108.16 2.968 108.128 2.36 108 1.656C107.968 1.496 107.712 0.759998 107.712 0.599998C107.712 0.375999 107.872 0.279999 108.256 0.279999C108.8 0.279999 110.88 0.439999 110.88 1.144C110.88 1.272 110.464 1.688 110.432 1.816C110.368 2.072 110.176 4.408 110.176 4.536C110.176 5.08 110.624 5.144 111.264 5.144C111.584 5.144 111.84 5.048 112.16 4.568C112.64 3.832 112.768 3.64 113.088 3.64C113.664 3.64 114.528 5.176 114.528 5.528C114.528 5.976 114.368 5.976 113.088 5.976ZM125.856 16.792H122.272C121.44 16.792 121.376 17.24 121.376 17.656C121.376 18.232 121.472 20.696 121.472 21.208C121.472 23.064 121.12 23.768 120.32 24.44C119.936 24.728 119.456 24.952 118.976 24.952C118.272 24.952 118.272 24.696 118.24 24.28C118.208 23.16 117.312 22.552 117.12 22.424C116.992 22.36 116.48 22.168 116.48 22.072C116.48 21.976 116.672 21.976 116.736 21.976C117.088 21.976 118.592 22.008 118.88 21.976C119.264 21.944 119.488 21.848 119.488 20.632C119.488 20.024 119.488 18.008 119.424 17.528C119.392 17.144 119.296 16.792 118.528 16.792C117.728 16.792 116.672 16.792 115.872 16.856C115.776 16.888 115.296 16.952 115.2 16.952C114.976 16.952 114.144 15.832 114.144 15.8C114.144 15.736 114.208 15.704 114.272 15.704C114.336 15.704 115.36 15.8 115.52 15.8C116.224 15.832 118.08 15.928 118.656 15.928C119.328 15.928 119.328 15.352 119.328 15C119.328 13.816 119.168 12.952 119.104 12.6C119.072 12.44 118.88 11.736 118.88 11.608C118.88 11.48 118.976 11.448 119.04 11.448C119.328 11.448 120.544 11.864 120.8 11.864C121.344 11.864 121.952 10.392 121.952 10.072C121.952 9.88 121.824 9.784 121.312 9.784H119.648C119.232 9.784 117.76 9.848 117.12 9.912C117.056 9.944 116.864 9.976 116.832 9.976C116.704 9.976 116.672 9.88 116.544 9.752L115.936 9.016C115.808 8.888 115.808 8.856 115.808 8.824C115.808 8.76 115.84 8.728 115.904 8.728C116.128 8.728 117.12 8.824 117.344 8.856C118.56 8.888 120 8.952 121.184 8.952H122.144C122.528 8.952 122.688 8.888 123.04 8.504C123.168 8.344 123.424 8.024 123.68 8.024C123.808 8.024 126.016 9.208 126.016 9.944C126.016 10.424 125.504 10.456 125.024 10.456C124.48 10.488 124.32 10.552 122.784 11.448C122.4 11.672 121.696 12.088 121.696 12.28C121.696 12.568 121.696 12.856 121.568 12.984C121.28 13.368 121.248 13.464 121.248 14.52C121.248 15.64 121.376 15.928 121.888 15.928C122.4 15.928 122.656 15.576 122.848 15.352C123.776 14.232 123.872 14.104 124.16 14.104C124.48 14.104 126.72 15.832 126.72 16.312C126.72 16.792 126.144 16.792 125.856 16.792ZM135.392 6.104C135.584 6.104 137.472 5.944 139.264 5.304C141.088 4.632 141.28 4.568 141.664 4.568C142.464 4.568 142.688 5.272 142.688 5.464C142.688 6.2 142.112 6.392 140.896 6.808C138.72 7.512 134.816 15.576 134.816 19.512C134.816 20.888 135.584 24.728 139.808 24.728C142.976 24.728 145.344 22.68 146.176 21.272C148.384 17.592 148.384 10.744 148.384 9.72C148.384 8.472 148.32 7.544 147.968 6.232C147.552 4.792 147.52 4.632 147.52 4.28C147.52 3.384 148.192 3.128 148.576 3.128C149.6 3.128 149.696 3.704 150.336 6.872C150.624 8.344 151.552 11.48 154.368 13.432C156.064 14.616 156.352 14.968 156.352 15.576C156.352 16.312 155.712 16.92 155.2 16.92C153.792 16.92 152.32 14.392 151.488 12.92C151.168 12.376 149.568 9.304 149.44 9.304C149.344 9.304 149.312 9.624 149.312 9.688C149.312 13.4 149.312 16.632 148.448 20.152C147.136 25.4 142.688 27.224 139.616 27.224C135.68 27.224 132.832 24.28 132.832 20.472C132.832 17.112 134.304 13.912 135.872 11.096C136 10.84 137.632 7.928 137.632 7.896C137.632 7.8 137.504 7.736 137.408 7.736C137.088 7.736 135.808 8.408 135.52 8.408C134.304 8.408 133.728 6.264 133.728 6.232C133.728 6.072 133.792 5.944 133.92 5.944C134.016 5.944 135.168 6.104 135.392 6.104ZM154.016 0.0239983C156.544 0.0239983 158.496 1.368 158.496 2.84C158.496 3.192 158.24 3.768 157.664 3.768C156.992 3.768 156.576 3.32 156 2.584C155.52 1.976 154.272 1.144 153.216 0.759998C152.896 0.631998 152.832 0.471998 152.832 0.407999C152.832 0.183998 153.44 0.0239983 154.016 0.0239983ZM151.36 2.552C153.472 2.552 155.872 4.216 155.872 5.752C155.872 6.168 155.456 6.968 154.88 6.968C154.368 6.968 154.112 6.648 153.28 5.4C152.8 4.728 152.448 4.344 151.2 3.288C151.072 3.192 150.784 2.936 150.784 2.808C150.784 2.648 151.072 2.552 151.36 2.552ZM166.464 11.416C166.752 11.416 167.072 13.464 167.072 14.648C167.072 18.232 165.408 20.664 163.456 20.664C162.976 20.664 162.176 20.504 162.176 19.512C162.176 19.16 162.24 18.84 163.264 17.88C165.248 16.056 166.144 12.504 166.208 12.056C166.24 11.64 166.368 11.416 166.464 11.416ZM173.504 0.631998C173.536 0.567999 173.696 0.567999 173.728 0.567999C176.224 0.567999 181.216 3.672 181.216 5.848C181.216 6.936 180.48 7.544 180.096 7.544C179.744 7.544 179.424 7.288 178.72 6.168C177.536 4.28 174.848 1.752 173.76 0.952C173.536 0.823999 173.472 0.664 173.504 0.631998ZM184.736 10.296C185.056 10.008 190.016 14.168 190.016 18.2C190.016 19.672 189.12 20.92 188.16 20.92C187.104 20.92 187.104 20.056 187.104 19.608C187.104 16.504 187.104 16.152 186.4 14.2C185.984 12.984 185.408 11.736 184.864 10.776C184.704 10.52 184.704 10.328 184.736 10.296ZM170.944 4.984C171.072 4.888 174.24 5.688 174.24 6.2C174.24 6.456 173.408 7.192 173.376 7.384C173.152 8.184 173.056 21.048 173.056 22.328C173.056 25.208 173.152 25.976 176.256 25.976C181.184 25.976 181.824 25.24 183.072 21.656C183.104 21.528 183.52 20.408 183.584 20.408C183.68 20.408 183.744 21.752 183.744 21.784C183.776 22.296 183.84 23.576 184.352 24.344C184.48 24.536 185.088 25.272 185.088 25.464C185.088 26.84 182.528 28.248 177.056 28.248C170.848 28.248 170.848 26.456 170.848 23.416C170.848 22.328 170.976 17.464 171.008 16.472C171.008 15.608 171.04 11.832 171.04 9.496C171.04 8.696 171.008 7 170.944 6.232C170.944 6.104 170.88 5.752 170.88 5.432C170.88 5.336 170.88 5.048 170.944 4.984ZM197.536 21.752C199.616 21.752 201.088 23.48 201.088 25.304C201.088 27.096 199.648 28.856 197.504 28.856C195.36 28.856 193.984 27.064 193.984 25.272C193.984 22.84 196.096 21.752 197.536 21.752ZM197.504 22.648C195.808 22.648 194.88 24.024 194.88 25.272C194.88 26.744 196.064 27.96 197.568 27.96C198.944 27.96 200.224 26.872 200.224 25.336C200.224 24.088 199.264 22.648 197.504 22.648ZM24.512 57.68H26.208C26.464 57.68 26.848 57.68 27.104 57.456C27.264 57.328 27.872 56.464 28.096 56.464C28.224 56.464 29.056 57.04 29.376 57.232C30.496 58 30.624 58.096 30.624 58.32C30.624 58.512 30.56 58.576 29.856 59.088C29.664 59.216 29.568 59.376 29.536 59.664C29.472 60.304 29.536 63.376 29.536 64.048C29.536 64.976 29.792 69.488 29.792 70.512C29.792 72.208 28.448 72.208 28.352 72.208C27.36 72.208 27.36 71.792 27.36 70.576C27.36 69.776 26.784 69.776 26.336 69.776H24.352C24.032 69.776 23.52 69.808 23.392 70.384V74.576C23.392 75.408 23.392 77.488 23.424 78.16C23.424 78.32 23.488 78.992 23.488 79.152C23.488 79.92 22.688 80.336 22.112 80.336C21.344 80.336 21.088 79.92 21.088 79.472C21.088 79.248 21.216 77.36 21.248 76.944C21.28 76.016 21.408 71.056 21.408 70.704C21.408 69.84 20.96 69.776 20.416 69.776H18.816C18.016 69.776 17.856 70.096 17.856 70.64C17.856 71.728 17.824 72.816 16.384 72.816C16.096 72.816 15.456 72.752 15.456 72.016C15.456 71.92 15.488 71.504 15.488 71.408C15.52 70.992 15.648 68.208 15.648 65.712C15.648 64.112 15.488 58.896 15.424 58.16C15.424 58 15.264 57.168 15.264 56.976C15.264 56.88 15.264 56.688 15.424 56.688C15.808 56.688 16.64 57.072 17.312 57.36C17.952 57.648 18.304 57.68 18.912 57.68H20.64C21.536 57.68 21.536 57.168 21.536 56.4C21.536 55.696 21.504 55.184 21.248 52.624C21.216 52.464 21.024 51.792 21.024 51.664C21.024 51.44 21.12 51.248 21.344 51.248C21.408 51.248 23.616 52.016 23.776 52.08C23.872 52.112 24.48 52.368 24.48 52.592C24.48 52.752 23.776 53.264 23.68 53.424C23.488 53.648 23.488 53.936 23.488 54.832C23.488 55.184 23.488 57.072 23.584 57.264C23.776 57.68 24.256 57.68 24.512 57.68ZM18.752 68.912H20.48C21.536 68.912 21.536 68.688 21.536 66.544C21.536 64.176 21.536 63.92 20.48 63.92H18.688C17.632 63.92 17.632 64.368 17.632 65.392C17.632 68.912 17.824 68.912 18.752 68.912ZM26.336 58.544H24.48C23.424 58.544 23.424 58.768 23.424 60.464C23.424 60.848 23.424 62.448 23.488 62.64C23.648 63.088 24.192 63.088 24.48 63.088H26.336C27.392 63.088 27.392 62.864 27.392 60.944C27.392 58.768 27.392 58.544 26.336 58.544ZM18.624 63.088H20.544C21.536 63.088 21.536 62.8 21.536 60.464C21.536 58.768 21.536 58.544 20.544 58.544H18.624C17.6 58.544 17.6 58.8 17.6 61.136C17.6 62.864 17.6 63.088 18.624 63.088ZM26.336 63.92H24.448C23.36 63.92 23.36 64.208 23.36 66.672C23.36 68.688 23.36 68.912 24.448 68.912H26.336C27.424 68.912 27.424 68.656 27.424 66.16C27.424 64.144 27.424 63.92 26.336 63.92ZM12.192 64.208C12.16 63.952 11.744 62.8 11.744 62.576C11.744 62.48 11.808 62.48 11.84 62.48C12.256 62.48 14.688 64.624 14.688 66.608C14.688 67.728 14.016 68.4 13.184 68.4C12.224 68.4 12.224 67.536 12.224 67.152C12.224 65.84 12.224 65.68 11.776 65.68C11.488 65.68 10.176 65.936 9.984 66.032C9.472 66.256 9.472 66.768 9.472 67.12C9.472 73.008 9.472 73.68 9.568 77.968C9.568 78.128 9.6 78.896 9.6 79.024C9.6 79.856 8.832 80.208 8.096 80.208C7.68 80.208 7.456 80.112 7.456 78.8C7.456 78.192 7.584 71.472 7.584 71.216V67.44C7.584 66.96 7.36 66.64 6.88 66.64C6.592 66.64 3.68 67.12 3.456 67.248C3.328 67.312 2.88 67.664 2.752 67.696C2.688 67.76 2.592 67.76 2.56 67.76C2.368 67.76 2.304 67.568 2.112 66.928C2.048 66.704 1.408 64.72 1.408 64.624C1.408 64.528 1.472 64.432 1.632 64.432C1.792 64.432 2.336 64.656 2.432 64.688C3.392 64.88 4.672 64.976 5.632 64.976C6.496 64.976 6.848 64.976 8.544 62.032C9.92 59.664 10.592 57.616 10.688 56.944C10.752 56.432 10.784 56.144 11.04 56.144C11.2 56.144 12.8 56.688 13.28 56.88C13.888 57.104 14.144 57.168 14.144 57.456C14.144 57.84 13.76 57.936 13.28 58.096C12.8 58.224 8.224 64.432 8.224 64.656C8.224 64.976 8.672 65.04 8.96 65.04C9.536 65.04 11.456 65.008 11.904 64.848C12.128 64.784 12.256 64.624 12.192 64.208ZM7.808 51.248C8.128 51.312 9.504 51.824 9.792 51.92C10.72 52.24 10.816 52.272 10.816 52.496C10.816 52.784 10.656 52.88 10.08 53.104C9.792 53.232 8.608 54.864 8.256 55.376C7.936 55.792 6.624 57.552 6.368 57.936C6.272 58.128 6.112 58.352 6.112 58.576C6.112 58.832 6.176 58.896 6.656 59.408C6.848 59.6 7.2 60.08 7.2 60.752C7.2 61.712 6.528 62.16 6.08 62.16C5.792 62.16 5.696 62 4.864 60.656C4.384 59.92 4.096 59.408 1.984 57.392C1.856 57.264 1.728 57.136 1.728 57.104C1.728 57.072 1.76 57.04 1.792 57.04C2.144 57.04 4.384 58.128 4.832 58.128C5.696 58.128 6.624 55.152 7.2 53.36C7.264 53.104 7.36 51.792 7.424 51.536C7.456 51.344 7.52 51.216 7.808 51.248ZM10.304 69.68C10.528 69.36 12.096 70.544 12.224 70.64C14.272 72.176 14.624 72.784 14.624 73.808C14.624 75.056 14.016 75.792 13.056 75.792C12.352 75.792 12.32 75.6 12.064 73.776C12 73.328 11.808 72.048 11.008 70.736C10.88 70.576 10.208 69.808 10.304 69.68ZM3.456 69.776C3.392 69.584 3.36 69.328 3.648 69.328C3.808 69.328 5.76 70.096 5.792 70.128C6.016 70.224 6.432 70.448 6.432 70.704C6.432 70.864 5.824 71.344 5.728 71.472C5.632 71.536 3.936 75.184 3.552 75.856C2.656 77.52 2.08 78.16 1.568 78.736C1.504 78.8 1.12 79.184 1.056 79.184C0.96 79.184 1.184 78.704 1.28 78.576C2.592 75.984 3.584 71.152 3.584 70.64C3.584 70.384 3.52 70.064 3.456 69.776ZM45.76 63.408H39.168C36.352 63.408 35.456 63.472 35.136 63.472C35.008 63.504 34.56 63.568 34.464 63.568C34.336 63.568 34.272 63.472 34.176 63.344L33.568 62.608C33.44 62.48 33.408 62.448 33.408 62.416C33.408 62.352 33.472 62.32 33.536 62.32C33.76 62.32 34.752 62.416 34.944 62.448C36.512 62.512 37.824 62.544 39.328 62.544H45.728C46.048 62.544 46.688 62.544 46.688 61.648C46.688 59.28 46.592 56.88 46.432 54.544C46.4 54.128 45.984 52.272 45.984 52.016C45.984 51.888 46.112 51.824 46.24 51.824C46.272 51.824 48.448 52.336 49.088 52.528C49.952 52.784 50.432 52.944 50.432 53.2C50.432 53.488 49.408 54.224 49.344 54.448C49.184 54.96 49.184 60.304 49.184 61.136C49.184 62.128 49.184 62.544 50.176 62.544H56.416C57.856 62.544 57.984 62.544 58.464 62C59.36 60.944 59.456 60.848 59.744 60.848C59.936 60.848 62.752 62.544 62.752 62.96C62.752 63.408 62.112 63.408 61.024 63.408H50.176C49.632 63.408 49.152 63.472 49.152 64.432V76.944C49.152 77.36 49.28 77.808 50.144 77.808H54.432C55.872 77.808 56.032 77.808 56.48 77.264C57.376 76.208 57.472 76.08 57.76 76.08C57.984 76.08 60.768 77.776 60.768 78.192C60.768 78.64 60.128 78.64 59.04 78.64H40.992C38.208 78.64 37.28 78.704 36.96 78.736C36.864 78.736 36.384 78.8 36.288 78.8C36.16 78.8 36.096 78.736 36 78.608L35.392 77.872C35.264 77.712 35.264 77.712 35.264 77.648C35.264 77.584 35.296 77.584 35.36 77.584C35.584 77.584 36.576 77.68 36.768 77.68C38.336 77.744 39.648 77.808 41.152 77.808H45.6C45.952 77.808 46.528 77.808 46.592 76.944C46.592 76.912 46.688 71.632 46.688 65.008C46.688 63.888 46.688 63.408 45.76 63.408ZM71.488 68.784C71.488 69.744 71.808 70.704 72.32 70.704C72.864 70.704 73.152 70.192 73.856 68.208C74.048 67.664 74.144 67.408 74.304 67.408C74.464 67.408 74.464 67.728 74.464 67.792C74.464 68.144 73.728 71.888 73.728 72.656C73.728 73.2 74.176 74.16 74.24 74.32C74.464 74.768 74.624 75.312 74.624 75.728C74.624 76.368 74.112 76.816 73.568 76.816C71.584 76.816 70.112 71.376 70.112 68.304C70.112 66.256 70.368 65.328 71.456 61.328C72 59.376 72 58.576 72 58C72 56.976 71.808 56.112 71.68 55.728C71.648 55.632 71.488 55.248 71.488 55.152C71.488 55.056 71.616 54.992 71.744 54.992C73.216 54.992 74.56 57.904 74.56 59.056C74.56 59.408 74.56 59.44 73.952 60.528C73.6 61.2 71.488 65.904 71.488 68.784ZM88.064 56.944C88.64 57.04 89.408 57.584 89.408 58.32C89.408 59.888 85.856 59.888 85.472 59.888C81.856 59.888 79.872 57.936 79.872 57.52C79.872 57.456 79.904 57.36 80.096 57.36C80.192 57.36 80.576 57.488 80.992 57.584C81.728 57.744 82.592 57.776 83.168 57.776C84.736 57.776 86.24 57.456 86.688 57.296C87.648 56.944 87.744 56.912 88.064 56.944ZM89.44 72.816C90.656 72.816 90.912 73.52 90.912 73.904C90.912 75.152 89.952 75.536 85.472 75.536C82.336 75.536 81.152 74.736 80.48 74.096C80.32 73.936 79.488 73.104 79.488 72.496C79.488 72.432 79.488 72.176 79.648 72.176C79.776 72.176 80.288 72.56 80.416 72.624C81.344 73.104 82.656 73.168 83.84 73.168C84.672 73.168 85.824 73.168 86.624 73.072C87.072 73.04 89.312 72.816 89.44 72.816ZM121.696 66.704H113.312C112.736 66.704 112.512 66.768 112.352 67.376C112.192 67.952 111.04 68.4 110.688 68.4C110.048 68.4 110.048 67.696 110.048 67.504C110.048 66.832 110.176 63.44 110.176 62.672C110.176 61.488 110.176 60.432 110.016 59.152C109.984 58.864 109.728 57.328 109.728 57.104C109.728 56.976 109.728 56.72 109.984 56.72C110.688 56.72 111.136 57.04 111.872 57.52C112.224 57.776 113.248 57.808 113.696 57.808H121.088C121.632 57.808 122.08 57.808 122.4 57.584C122.592 57.424 123.328 56.464 123.584 56.464C123.712 56.464 125.856 57.648 125.856 58.096C125.856 58.16 125.312 58.704 125.184 58.832C124.928 59.088 124.768 59.312 124.736 59.728C124.64 60.528 124.768 64.656 124.768 65.584C124.768 66.384 124.768 67.536 123.296 67.536C122.88 67.536 122.784 67.44 122.56 67.12C122.272 66.704 121.952 66.704 121.696 66.704ZM115.392 58.672H113.248C112.256 58.672 112.256 59.216 112.256 60.176C112.256 61.2 112.256 61.776 113.248 61.776H115.392C116.256 61.776 116.352 61.36 116.352 60.24C116.352 59.12 116.256 58.672 115.392 58.672ZM121.632 62.608H119.2C118.24 62.608 118.24 63.184 118.24 63.984C118.24 65.36 118.24 65.84 119.232 65.84H121.6C122.592 65.84 122.592 65.392 122.592 63.824C122.592 63.216 122.592 62.608 121.632 62.608ZM115.392 62.608H113.28C112.32 62.608 112.32 63.184 112.32 63.856C112.32 65.328 112.32 65.84 113.344 65.84H115.36C116.352 65.84 116.352 65.296 116.352 63.952C116.352 63.216 116.352 62.608 115.392 62.608ZM121.536 58.672H119.232C118.272 58.672 118.272 59.216 118.272 60.176C118.272 61.2 118.272 61.776 119.232 61.776H121.536C122.528 61.776 122.528 61.2 122.528 60.24C122.528 59.216 122.528 58.672 121.536 58.672ZM104.576 71.76H102.56C102.08 71.76 101.472 71.76 101.472 72.752C101.472 73.008 101.6 73.104 101.824 73.264C103.488 74.352 103.552 74.416 103.552 74.608C103.552 74.832 103.2 75.056 103.04 75.12C102.4 75.376 102.4 75.376 101.984 75.792C99.68 78.192 97.28 79.44 97.28 79.184C97.28 79.056 98.944 76.976 99.264 76.528C100.416 74.896 100.8 73.808 100.8 73.52C100.8 73.2 100.672 73.2 100.096 73.2C99.264 73.2 99.264 72.656 99.264 71.92C99.264 70.544 99.456 63.76 99.456 62.224C99.456 59.888 99.392 57.744 99.2 55.44C99.168 55.152 98.912 53.712 98.912 53.36C98.912 53.264 98.912 52.976 99.168 52.976C99.52 52.976 100.032 53.232 101.184 53.808C101.728 54.096 102.272 54.096 102.592 54.096H104.384C104.8 54.096 105.184 54.096 105.696 53.488C106.08 53.008 106.24 52.88 106.432 52.88C106.624 52.88 106.912 53.072 107.072 53.2C107.296 53.392 107.552 53.616 107.712 53.712C108.416 54.16 108.608 54.288 108.608 54.608C108.608 54.768 108.032 55.28 108 55.44C107.936 55.664 107.936 57.424 107.936 57.552C107.936 57.776 107.872 64.176 107.872 64.816C107.872 65.776 107.936 70.48 107.936 71.536C107.936 72.304 107.936 73.232 106.272 73.232C105.632 73.232 105.6 72.848 105.536 72.432C105.472 71.76 104.864 71.76 104.576 71.76ZM104.832 60.624H102.464C101.504 60.624 101.504 61.104 101.504 62.32C101.504 65.072 101.504 65.424 102.496 65.424H104.8C105.792 65.424 105.792 65.2 105.792 62.48C105.792 61.04 105.792 60.624 104.832 60.624ZM104.8 54.928H102.4C101.44 54.928 101.44 55.024 101.44 57.968C101.44 59.408 101.44 59.792 102.4 59.792H104.8C105.76 59.792 105.76 59.504 105.76 56.912C105.76 55.376 105.76 54.928 104.8 54.928ZM104.736 66.256H102.56C101.568 66.256 101.568 66.736 101.568 67.92C101.568 70.576 101.6 70.928 102.592 70.928H104.704C105.664 70.928 105.696 70.608 105.696 67.984C105.696 66.736 105.696 66.256 104.736 66.256ZM116.128 69.776H119.808C120.224 69.776 120.832 69.776 121.248 69.264C121.632 68.784 121.664 68.72 121.92 68.72C122.304 68.72 124.384 70.032 124.384 70.448C124.384 70.608 123.84 71.088 123.744 71.216C123.552 71.536 123.552 71.888 123.552 72.496C123.552 73.296 123.616 74.416 123.616 74.8C123.648 75.28 123.872 77.584 123.872 78.096C123.872 78.992 123.36 79.664 122.368 79.664C121.856 79.664 121.728 79.504 121.568 79.248C121.312 78.8 120.928 78.8 120.64 78.8H115.52C115.2 78.8 114.816 78.864 114.656 79.216C114.304 79.952 113.6 80.336 112.992 80.336C112.416 80.336 112.32 79.856 112.32 79.152C112.32 78.608 112.416 75.984 112.416 75.376C112.416 73.296 112.384 72.4 112.288 70.928C112.288 70.64 112.096 69.36 112.096 69.072C112.096 68.944 112.096 68.656 112.352 68.656C112.864 68.656 113.312 68.912 114.144 69.392C114.848 69.776 115.648 69.776 116.128 69.776ZM120.48 70.64H115.52C114.56 70.64 114.56 71.184 114.56 72.208C114.56 73.296 114.56 73.84 115.52 73.84H120.48C121.44 73.84 121.44 73.296 121.44 72.272C121.44 71.152 121.44 70.64 120.48 70.64ZM120.48 74.704H115.552C114.592 74.704 114.592 75.28 114.592 75.984C114.592 77.488 114.592 77.968 115.584 77.968H120.48C121.44 77.968 121.44 77.424 121.44 76.368C121.44 75.216 121.44 74.704 120.48 74.704ZM111.872 51.6C112.064 51.408 116.16 53.488 116.16 55.632C116.16 56.368 115.552 57.04 114.848 57.04C114.304 57.04 114.208 56.88 113.728 55.344C113.248 53.84 112.448 52.72 112.032 52.176C111.808 51.856 111.808 51.632 111.872 51.6ZM121.504 50.96C121.6 50.864 124.768 52.144 124.768 52.56C124.768 52.752 124.672 52.816 124.224 52.944C123.552 53.168 119.52 57.2 118.656 57.2C118.592 57.2 118.592 57.168 118.592 57.136C118.592 57.072 120.736 53.84 121.056 53.168C121.344 52.624 121.408 52.272 121.408 51.856C121.408 51.312 121.44 51.024 121.504 50.96ZM105.152 73.392C105.312 73.2 106.56 74.064 106.752 74.192C108.224 75.216 109.216 76.272 109.216 77.456C109.216 78.064 108.96 78.832 108.224 78.832C107.456 78.832 107.36 78.608 106.624 76.592C106.24 75.6 105.824 74.736 105.248 73.776C105.216 73.744 105.088 73.488 105.152 73.392ZM147.232 75.216C148.32 75.216 150.56 73.264 150.56 70.608C150.56 67.984 148.352 65.744 145.152 65.744C140.928 65.744 138.208 70.128 137.632 71.12C136.992 72.208 136.672 72.816 135.808 72.816C135.04 72.816 134.88 72.176 134.88 71.92C134.88 71.12 135.136 70.416 137.408 67.76C139.488 65.328 139.808 64.912 144.64 58.128C145.696 56.624 146.144 55.952 146.144 55.6C146.144 55.376 145.92 55.152 145.536 55.152C144.352 55.152 142.464 56.752 141.92 57.2C140.64 58.256 140.192 58.352 139.648 58.352C138.144 58.352 137.152 56.304 137.152 56.144C137.152 56.048 137.248 56.048 137.92 56.048C139.616 56.048 141.984 55.28 142.88 54.896C144.864 54.032 145.088 53.936 145.792 53.936C147.072 53.936 149.152 54.736 149.152 56.144C149.152 57.072 148.416 57.584 146.88 58.64C144.576 60.272 141.76 64.656 141.76 65.2C141.76 65.296 141.856 65.424 141.952 65.424C142.144 65.36 142.56 65.2 142.752 65.136C143.776 64.752 144.672 64.624 145.568 64.624C149.664 64.624 152.768 67.664 152.768 71.28C152.768 75.344 148.832 78.192 144.768 78.192C141.6 78.192 139.328 76.496 139.328 74.896C139.328 73.744 140.672 72.304 142.496 72.304C144 72.304 145.248 73.2 146.144 74.352C146.592 74.928 146.784 75.216 147.232 75.216ZM144.288 75.536C144.288 74.768 143.52 73.488 142.336 73.488C141.568 73.488 140.992 74.096 140.992 74.608C140.992 75.44 142.368 76.112 143.744 76.112C144.064 76.112 144.288 75.888 144.288 75.536ZM6.592 111.144C6.784 111.144 9.568 111.336 10.112 111.336C12.992 111.336 19.808 110.76 20.512 110.312C21.664 109.544 21.792 109.48 22.08 109.48C22.72 109.48 25.792 111.528 25.792 112.36C25.792 112.648 25.696 112.744 24.704 113.48C24.128 113.896 24 114.376 22.912 118.824C22.848 119.112 22.4 120.52 22.4 120.712C22.4 121.128 22.688 121.16 23.168 121.256C23.968 121.384 25.152 121.8 25.152 122.6C25.152 123.464 23.68 123.464 23.424 123.464C22.624 123.464 19.072 123.24 18.336 123.24C16.352 123.24 10.272 123.912 9.76 124.04C9.568 124.072 8.768 124.424 8.608 124.424C8.032 124.424 6.144 122.984 6.144 121.864C6.144 121.736 6.272 121.64 6.432 121.64C6.592 121.64 7.264 121.768 7.392 121.8C8.096 121.896 8.64 121.896 9.024 121.896C11.232 121.896 19.616 121.32 20.096 121.064C20.48 120.872 20.608 120.488 20.832 118.888C21.216 116.072 21.504 113.288 21.504 112.648C21.504 112.104 21.376 111.976 21.024 111.976C20.032 111.976 12.096 113.256 10.848 113.544C10.56 113.608 9.44 114.056 9.184 114.056C8.48 114.056 6.208 112.104 6.208 111.464C6.208 111.208 6.432 111.144 6.592 111.144ZM41.472 106.696C41.664 106.696 42.432 107.016 42.624 107.048C43.136 107.176 43.872 107.176 44.32 107.176C45.824 107.176 47.936 107.112 49.44 106.824C49.92 106.728 52.128 106.184 52.576 106.184C53.12 106.184 54.528 106.472 54.528 107.4C54.528 108.392 53.408 108.488 51.552 108.648C51.04 108.712 44.16 109.32 43.936 109.32C42.24 109.32 41.28 107.144 41.28 106.92C41.28 106.76 41.344 106.696 41.472 106.696ZM40.672 128.552C40.736 128.488 41.632 128.072 41.824 127.976C51.808 122.6 54.432 115.688 54.432 115.016C54.432 114.632 54.208 114.408 53.76 114.408C52.672 114.408 44.64 115.816 43.232 116.232C43.008 116.296 41.984 116.776 41.76 116.776C40.384 116.776 38.112 114.024 38.112 113.128C38.112 113.032 38.208 112.968 38.304 112.968C38.4 112.968 38.784 113.192 38.88 113.224C39.488 113.48 40.704 113.768 42.048 113.768C44.672 113.768 51.04 112.936 52.224 112.808C52.288 112.808 54.4 112.616 54.432 112.616C54.592 112.552 55.2 112.264 55.36 112.264C55.904 112.264 58.176 114.152 58.176 114.888C58.176 115.368 58.048 115.496 57.312 116.104C56.768 116.552 56.448 117.032 55.584 118.376C53.056 122.216 51.072 124.616 46.56 126.92C43.712 128.36 41.184 129 40.896 129C40.64 129 40.608 128.808 40.608 128.744C40.608 128.68 40.64 128.584 40.672 128.552ZM80.736 115.752C80.736 117.288 80.896 124.104 80.896 125.48C80.896 125.96 80.896 128.072 79.2 128.072C78.496 128.072 78.432 127.88 77.76 126.024C77.376 125 77.216 124.744 76.576 123.752C76.448 123.528 76.384 123.464 76.384 123.368C76.384 123.272 76.448 123.24 76.512 123.24C76.736 123.24 77.792 123.656 78.016 123.656C78.432 123.656 78.592 123.304 78.656 122.792C78.816 121.288 78.816 118.088 78.816 116.36C78.816 114.824 78.752 114.248 77.888 114.248C77.696 114.248 73.856 114.792 71.968 115.272C71.776 115.336 70.88 115.624 70.688 115.624C69.984 115.624 68.384 113.448 68.384 112.808C68.384 112.648 68.416 112.52 68.608 112.52C68.736 112.52 68.8 112.552 69.216 112.712C69.952 113.032 71.584 113.032 72.064 113.032C72.8 113.032 76.256 112.84 77.216 112.808C78.432 112.744 78.752 112.52 78.752 111.464C78.752 110.408 78.56 108.296 78.08 107.368C78.016 107.208 77.472 106.696 77.472 106.536C77.472 106.44 77.824 106.216 78.56 106.216C80.768 106.216 81.568 107.624 81.568 107.88C81.568 108.072 81.056 108.776 80.992 108.936C80.704 109.512 80.704 111.08 80.704 111.4C80.704 112.392 81.12 112.552 81.952 112.552C82.976 112.552 84.512 112.296 85.056 112.232C85.472 112.168 87.168 111.752 87.52 111.752C88.48 111.752 89.568 112.232 90.624 112.84C90.976 113.064 91.424 113.32 91.424 113.864C91.424 114.472 90.72 114.504 90.592 114.504C90.112 114.504 88.032 114.152 87.584 114.088C86.368 113.96 84.032 113.928 83.776 113.928C81.024 113.928 80.736 113.928 80.736 115.752ZM90.368 125.288C89.472 125.288 89.184 124.552 88.608 123.176C88.064 121.832 87.072 120.168 86.016 119.24C85.536 118.792 84.736 118.056 84.736 117.896C84.736 117.736 84.896 117.736 84.96 117.736C86.656 117.736 91.808 120.84 91.808 123.528C91.808 124.264 91.424 125.32 90.368 125.288ZM69.28 124.552C68.864 124.424 68.352 124.008 68.352 123.368C68.352 122.76 68.64 122.44 69.568 121.864C70.816 121.096 72.448 119.624 72.704 119.4C72.864 119.24 73.216 118.92 73.344 118.92C73.472 118.92 73.504 119.208 73.504 119.304C73.504 120.808 72 124.68 69.888 124.68C69.632 124.68 69.44 124.616 69.28 124.552ZM89.6 104.104C92.256 104.104 94.08 105.512 94.08 106.888C94.08 107.272 93.824 107.848 93.28 107.848C92.608 107.848 92.192 107.368 91.616 106.632C91.072 105.992 89.856 105.224 88.832 104.84C88.512 104.712 88.416 104.584 88.416 104.488C88.416 104.264 88.992 104.104 89.6 104.104ZM86.592 106.824C88.32 106.824 89.056 106.824 90.176 107.528C91.168 108.136 91.584 108.904 91.584 109.352C91.584 109.992 91.2 110.6 90.688 110.6C90.304 110.6 90.048 110.472 88.96 109.32C88.288 108.616 87.904 108.392 86.56 107.592C86.4 107.496 86.048 107.272 86.048 107.144C86.048 107.048 86.304 106.824 86.592 106.824ZM107.712 110.888C107.712 111.144 107.264 112.68 107.2 113.032C107.072 113.704 106.944 114.536 106.944 119.048C106.944 119.976 106.944 120.744 108 120.744C109.376 120.744 117.568 117.288 123.2 112.392C123.648 112.008 123.712 111.944 123.936 111.944C124.096 111.944 124.192 112.072 124.192 112.2C124.192 112.52 119.456 117.704 111.616 121.8C107.904 123.72 107.648 123.912 106.976 124.744C106.816 124.968 106.752 125 106.624 125C106.368 125 104.448 123.432 104.448 122.568C104.448 122.408 104.704 121.128 104.736 121.064C104.896 120.328 104.896 119.144 104.896 116.936C104.896 112.712 104.896 111.848 104.064 110.344C103.936 110.152 103.36 109.288 103.36 109.096C103.36 108.968 103.552 108.936 103.68 108.936C104.032 108.936 107.712 109.576 107.712 110.888ZM136.736 116.104C137.792 116.104 148.96 115.688 153.632 115.432C153.824 115.432 154.176 115.4 154.336 115.4C156.288 115.4 156.576 116.584 156.576 116.808C156.576 117.704 155.264 117.8 153.92 117.8C153.184 117.8 149.984 117.736 149.344 117.736C144.928 117.736 137.6 118.152 136.832 118.312C136.448 118.376 134.72 118.888 134.336 118.888C132.96 118.888 131.488 116.904 131.488 115.816C131.488 115.624 131.584 115.432 131.744 115.432C131.904 115.432 132.672 115.784 132.832 115.816C133.376 115.976 134.688 116.104 136.736 116.104ZM167.488 127.976C166.784 127.976 166.464 127.464 165.664 125.992C165.568 125.832 164.992 125.16 164.896 125C164.8 124.84 164.704 124.584 164.704 124.392C164.704 124.264 164.8 124.168 164.992 124.168C165.28 124.168 166.496 124.584 166.752 124.584C168.128 124.584 176.736 119.784 184.384 111.112C184.544 110.92 185.664 109.672 185.76 109.672C185.824 109.672 185.888 109.704 185.888 109.8C185.888 110.152 183.072 117 169.824 126.28C169.44 126.536 167.904 127.976 167.488 127.976ZM166.272 113.224C167.648 113.224 169.6 114.504 169.6 116.072C169.6 116.712 169.12 117.672 168.352 117.672C167.872 117.672 167.712 117.48 167.232 116.68C166.56 115.528 165.472 114.696 164.32 114.024C164.224 113.96 164.032 113.832 164.032 113.704C164.032 113.256 165.856 113.224 166.272 113.224ZM169.984 107.112C173.44 107.112 173.44 109.608 173.44 109.704C173.44 110.44 172.928 111.144 172.416 111.144C172.064 111.144 171.904 111.016 170.752 109.64C169.888 108.616 168.768 108.168 168 107.944C167.872 107.912 167.52 107.816 167.52 107.72C167.52 107.624 168.416 107.112 169.984 107.112ZM193.984 114.44C194.112 114.44 194.752 114.664 195.136 114.792C195.648 114.952 196.64 114.952 196.992 114.952C198.176 114.952 203.648 114.728 204.96 114.248C205.216 114.152 206.112 113.384 206.336 113.384C206.592 113.384 208.48 114.824 208.48 115.464C208.48 115.784 208.384 115.88 207.936 116.392C207.776 116.584 207.648 116.84 207.616 117.448C207.52 119.56 207.456 121.96 207.456 124.072C207.456 124.392 207.52 125.8 207.52 126.088C207.52 127.56 206.752 128.136 206.272 128.136C205.792 128.136 205.376 127.624 205.248 126.888C205.184 126.472 205.184 126.376 204.736 126.376C203.68 126.376 198.56 126.984 197.696 127.144C197.44 127.176 196.448 127.464 196.096 127.464C195.232 127.464 194.272 125.416 194.272 125.16C194.272 125.032 194.304 124.776 194.56 124.776C194.656 124.776 194.752 124.808 195.616 125.096C195.744 125.128 196.352 125.352 197.152 125.352C198.432 125.352 204.736 124.712 205.024 124.584C205.376 124.392 205.376 124.104 205.408 123.208C205.408 122.952 205.472 121.608 205.472 121.48C205.472 121.064 205.344 120.872 204.96 120.872C204.832 120.872 202.528 121.192 201.344 121.352C200.48 121.448 197.056 121.896 196.512 121.896C195.616 121.896 194.336 121 194.336 119.944C194.336 119.624 194.4 119.528 194.56 119.528C194.656 119.528 195.04 119.72 195.328 119.848C195.712 120.008 196.256 120.072 196.928 120.072C199.776 120.072 205.088 119.528 205.376 119.208C205.6 118.952 205.632 117.064 205.632 116.616C205.632 116.072 205.472 115.912 204.992 115.912C204.8 115.912 201.152 116.296 198.848 116.584C198.4 116.648 196.448 116.968 196.064 116.968C194.88 116.968 193.696 115.24 193.696 114.792C193.696 114.6 193.856 114.44 193.984 114.44ZM227.36 111.08C227.36 112.04 226.816 112.68 225.984 112.68C225.12 112.68 224.8 112.168 223.744 110.568C222.656 108.936 221.728 108.456 220.832 107.944C220.704 107.88 220.544 107.784 220.544 107.656C220.544 107.528 220.8 107.368 221.248 107.368C224.672 107.368 227.36 109.192 227.36 111.08ZM240.672 110.792C240.672 111.08 236.928 117.064 228.608 123.208C227.776 123.816 226.144 125.032 225.472 125.832C224.864 126.568 224.8 126.632 224.32 126.632C222.592 126.632 220.224 124.584 220.224 123.304C220.224 123.08 220.256 121.608 220.544 121.608C220.672 121.608 221.376 122.152 221.504 122.216C221.92 122.472 222.976 122.952 223.68 122.952C225.248 122.952 233.728 117.288 239.04 112.04C239.552 111.528 240.448 110.632 240.512 110.632C240.576 110.632 240.672 110.728 240.672 110.792ZM250.336 123.752C252.416 123.752 253.888 125.48 253.888 127.304C253.888 129.096 252.448 130.856 250.304 130.856C248.16 130.856 246.784 129.064 246.784 127.272C246.784 124.84 248.896 123.752 250.336 123.752ZM250.304 124.648C248.608 124.648 247.68 126.024 247.68 127.272C247.68 128.744 248.864 129.96 250.368 129.96C251.744 129.96 253.024 128.872 253.024 127.336C253.024 126.088 252.064 124.648 250.304 124.648Z" fill="white"/>
</svg>
