<svg width="513" height="107" viewBox="0 0 513 107" fill="none" xmlns="http://www.w3.org/2000/svg">
<path d="M15.4313 66.2793L9.17621 76.5668V66.2793H3.52441V92.7284H9.17621V80.7898L15.9393 92.7284H22.1626L14.1612 78.5989L21.6546 66.2793H15.4313Z" fill="white"/>
<path d="M43.9124 13.7303L32.1008 52.5626H40.515L42.9916 43.3864H53.9777L56.2321 52.5626H65.186L53.7554 13.7303H43.9124ZM44.7062 36.9408L48.7387 21.9858L52.3901 36.9408H44.7062Z" fill="white"/>
<path d="M164.6 13C155.138 13 149.201 20.1759 149.201 33.0988C149.201 46.0217 155.075 53.1658 164.6 53.1658C174.126 53.1658 180 46.0534 180 33.0988C180 20.1441 174.062 13 164.6 13ZM164.6 46.5932C160.504 46.5932 158.06 41.9257 158.06 33.0988C158.06 24.2718 160.504 19.5408 164.6 19.5408C168.696 19.5408 171.141 24.2401 171.141 33.0988C171.141 41.9575 168.696 46.5932 164.6 46.5932Z" fill="white"/>
<path d="M174.729 66.2793H169.077V92.7284H174.729V66.2793Z" fill="white"/>
<path d="M144.248 81.4566H150.28V92.7284H155.932V66.2793H150.28V76.6621H144.248V66.2793H138.564V92.7284H144.248V81.4566Z" fill="white"/>
<path d="M136.881 46.0851H123.355V35.9564H135.675V29.5108H123.355V20.1758H136.373V13.7302H115.036V52.5307H136.881V46.0851Z" fill="white"/>
<path d="M84.7451 35.0038L94.6516 52.5307H103.764L92.048 31.7969L103.066 13.7302H93.9531L84.7451 28.7805V13.7302H76.4261V52.5307H84.7451V35.0038Z" fill="white"/>
<path d="M79.7601 66.2793V82.5044C79.7601 89.6802 82.5225 93.1412 88.6506 93.1412C94.7787 93.1412 97.5728 89.6802 97.5728 82.5044V66.2793H92.1433V83.2029C92.1433 86.9496 91.4765 88.6959 88.7776 88.6959C86.0787 88.6959 85.4754 86.9179 85.4754 83.2029V66.2793H79.7601Z" fill="white"/>
<path d="M56.9625 66.2793H51.3107V92.7284H56.9625V80.7898L63.6938 92.7284H69.9171L61.9475 78.5989L69.4409 66.2793H63.2175L56.9625 76.5668V66.2793Z" fill="white"/>
<path d="M121.164 93.1729C123.228 93.1729 125.165 92.8236 126.975 92.0616V86.9813C125.451 87.9656 123.673 88.4736 122.053 88.4736C117.862 88.4736 115.385 85.2985 115.385 79.4879C115.385 73.6774 117.767 70.6292 121.831 70.6292C123.546 70.6292 125.26 71.0102 126.816 72.0263V67.073C124.847 66.2157 122.911 65.8347 120.974 65.8347C114.052 65.8347 109.384 71.1055 109.384 79.4879C109.384 87.8704 113.988 93.1729 121.164 93.1729Z" fill="white"/>
<path d="M8.82695 52.5307H17.1459V20.7473H25.8776V13.7302H0V20.7473H8.82695V52.5307Z" fill="white"/>
<path d="M38.0703 66.2793H32.3867V92.7284H38.0703V66.2793Z" fill="white"/>
<path d="M220 17C222.711 19.7106 269.129 66.1294 292 89" stroke="white" stroke-width="1.6"/>
<path d="M292 17C289.289 19.7106 242.871 66.1294 220 89" stroke="white" stroke-width="1.6"/>
<path d="M406.643 71.8047C406.643 71.8047 406.707 71.8047 406.728 71.847C406.728 71.8893 406.707 71.9316 406.643 71.995C406.008 72.6506 405.649 73.433 405.564 74.3001C405.522 74.6384 405.5 75.1248 405.5 75.7381V77.5144C405.5 77.9374 405.5 78.4661 405.5 79.1428C405.5 79.46 405.5 80.0098 405.543 80.7711C405.585 81.5536 405.627 82.0611 405.67 82.3148C405.839 83.478 406.347 84.3873 407.173 85.0428L407.088 85.1274C405.119 85.064 403.617 85.0217 402.643 85.0217C401.394 85.0217 400.336 85.064 399.447 85.1274C399.616 84.9794 399.912 84.6199 400.336 84.0701C400.738 83.3299 400.95 82.6744 400.95 82.1245C400.95 80.0098 400.928 78.2546 400.865 76.8166C400.865 76.7532 400.801 76.732 400.696 76.732C400.082 77.7471 399.447 78.8679 398.833 80.1155C398.6 80.5596 398.304 81.1518 397.944 81.8919L397.288 83.3088C397.118 83.6683 396.907 84.1547 396.653 84.7468C396.441 85.1909 396.314 85.4446 396.314 85.4869C396.166 85.2543 396.06 85.0217 395.954 84.7891L395.552 83.9009C395.51 83.774 395.383 83.5202 395.171 83.1184C394.938 82.6744 394.578 81.9554 394.049 80.9826C393.224 79.5023 392.314 78.022 391.298 76.5628C391.276 76.4994 391.234 76.4571 391.192 76.4571C391.128 76.4571 391.086 76.4994 391.065 76.6051C391.065 76.6051 391.065 76.6263 391.065 76.6686C391.065 76.8377 391.065 77.2184 391.065 77.7471C391.065 79.1639 391.171 80.3693 391.403 81.3632C391.657 82.5263 392.102 83.5202 392.737 84.3873C392.97 84.6199 393.287 84.8737 393.711 85.1486C393.711 85.1486 393.711 85.1486 393.668 85.1697C393.626 85.1909 393.626 85.1697 393.584 85.1697C393.562 85.1697 393.541 85.1697 393.52 85.1909C392.737 85.1274 391.848 85.1063 390.811 85.1063H388.101C389.033 84.3661 389.689 83.3511 390.049 82.0611C390.303 81.1306 390.43 79.9041 390.43 78.4026C390.43 77.9585 390.43 77.5144 390.43 77.1126V75.8438C390.409 75.6958 390.387 75.442 390.387 75.1037C389.985 74.4058 389.329 73.6234 388.377 72.7352C388.123 72.4814 387.826 72.2065 387.509 71.9104H390.663C392.377 71.9104 393.584 71.8893 394.261 71.847C394.261 71.847 394.261 71.8681 394.303 71.8893C394.324 71.8893 394.346 71.9104 394.346 71.9316C394.663 73.0101 395.277 74.2155 396.166 75.5478C396.208 75.6112 396.505 76.0764 397.055 76.9012C397.33 77.2818 397.732 77.8739 398.283 78.6775C398.304 78.6775 398.346 78.6775 398.388 78.7198C398.431 78.741 398.473 78.7833 398.494 78.8044L398.558 78.8467C398.558 78.8467 398.664 78.8256 398.727 78.7621C399.066 78.2123 399.574 77.3664 400.23 76.2456C400.696 75.3786 400.928 74.5538 400.928 73.7714C400.928 73.4965 400.907 73.1793 400.844 72.8621C400.823 72.7563 400.738 72.6083 400.59 72.3545C400.442 72.1219 400.357 71.9527 400.315 71.8681H402.728C402.96 71.8893 403.405 71.9104 404.082 71.9104C405.204 71.9104 406.072 71.8893 406.707 71.8259L406.643 71.8047ZM409.331 71.8681C409.988 71.8681 410.834 71.8681 411.893 71.9316C413.141 71.9739 414.221 71.995 415.173 71.995C416.888 71.995 418.645 71.9527 420.423 71.8681V73.0735C420.423 73.5388 420.444 73.9617 420.465 74.3212C420.465 74.6807 420.465 75.1037 420.465 75.5689C420.465 75.6112 420.465 75.6323 420.402 75.6323C420.338 75.6323 420.232 75.4632 419.999 75.1037C419.936 74.9979 419.851 74.8922 419.767 74.7865C419.682 74.6807 419.64 74.5961 419.597 74.5538C419.555 74.5115 419.534 74.4693 419.534 74.4693C418.37 73.2004 417.227 72.566 416.147 72.566C415.978 72.566 415.808 72.566 415.618 72.6294C415.364 72.8832 415.237 73.3484 415.216 74.0463C415.216 74.5115 415.216 75.2305 415.216 76.2245C415.216 77.4087 415.279 78.0008 415.427 78.0008C416.232 78.0008 417.036 77.6413 417.84 76.9223C418.158 76.6474 418.475 76.3091 418.814 75.8861C418.856 75.8861 418.878 76.8377 418.878 78.7621V80.4751C418.475 79.9252 417.989 79.4811 417.375 79.1639C416.761 78.8467 416.126 78.6775 415.449 78.6775C415.3 78.6987 415.237 79.4811 415.237 81.0249C415.237 82.1457 415.3 83.1184 415.427 83.9009C415.491 84.2181 415.724 84.3873 416.126 84.3661H416.973C418.116 84.3027 419.174 83.626 420.148 82.3571C420.507 81.8708 420.931 81.2575 421.354 80.5173C421.354 80.9614 421.354 81.3844 421.354 81.7439C421.354 82.1034 421.354 82.5263 421.354 82.9704C421.354 83.478 421.354 84.1969 421.396 85.1274L418.327 85.064H415.83C413.692 85.064 411.596 85.1063 409.522 85.212C409.416 85.1909 409.374 85.1486 409.374 85.1063C409.374 85.064 409.395 84.9794 409.437 84.8948C410.305 83.8797 410.728 82.336 410.728 80.2424V79.2485V78.8467V76.9012C410.728 75.3574 410.644 74.3001 410.474 73.6868C410.326 73.1793 409.966 72.566 409.374 71.8681H409.331ZM430.392 71.8681C430.71 71.8681 430.879 71.8893 430.879 71.995C430.837 72.1219 430.815 72.2911 430.815 72.5237C430.837 72.9678 430.964 73.3484 431.175 73.6445C431.345 73.8983 431.768 74.4481 432.424 75.294C433.08 76.1187 433.969 77.1761 435.112 78.4661C435.26 78.6141 435.366 78.6987 435.472 78.6987C435.557 78.6987 435.599 78.6352 435.599 78.5084C435.599 76.7743 435.514 75.5266 435.366 74.7653C435.133 73.5388 434.625 72.6717 433.842 72.1642C433.694 72.0585 433.631 71.9739 433.631 71.9316C433.631 71.8893 433.758 71.8681 434.033 71.8681H437.695C437.843 71.8681 437.927 71.8681 437.927 71.9104C437.927 71.9527 437.864 72.0373 437.737 72.1219C436.975 72.6929 436.488 73.7502 436.298 75.2728C436.213 75.9073 436.171 76.6474 436.171 77.5144C436.171 77.6413 436.171 78.1066 436.213 78.9525L436.276 80.5808C436.298 81.0037 436.319 81.6593 436.34 82.5052L436.382 83.3934C436.425 84.1547 436.446 84.6833 436.446 85.0217C436.446 85.1274 436.319 85.1909 436.065 85.1909H435.26C434.647 85.1909 434.308 85.1486 434.244 85.0428C433.461 83.8586 432.424 82.4629 431.112 80.8134C429.651 78.9525 428.297 77.3453 427.027 75.9918C426.963 75.9284 426.9 75.9073 426.836 75.9073C426.73 75.9073 426.688 75.9496 426.667 76.013C426.667 76.2245 426.667 76.6686 426.667 77.3664C426.667 79.1005 426.815 80.4751 427.09 81.5324C427.514 83.0762 428.297 84.197 429.397 84.8948C429.524 84.9794 429.588 85.064 429.588 85.1274C429.588 85.212 429.524 85.2332 429.376 85.212C428.466 85.1697 427.598 85.1486 426.794 85.1486C426.244 85.1486 425.736 85.1486 425.291 85.1486C424.847 85.1486 424.36 85.1486 423.809 85.1486C423.725 85.1486 423.682 85.1486 423.682 85.1063C423.682 85.064 423.746 85.0005 423.873 84.8737C424.783 84.0489 425.418 83.0339 425.736 81.8496C425.884 81.2786 425.947 80.6654 425.968 79.9675C426.011 78.6775 426.032 77.8105 426.032 77.3453C426.032 76.2879 426.011 75.4209 425.968 74.7442C425.185 73.856 424.55 73.2427 424.085 72.8621C423.809 72.6294 423.407 72.3545 422.878 72.0162L422.836 71.9739C422.836 71.9739 422.984 71.8681 423.238 71.8893C425.333 71.9527 426.561 71.9739 426.963 71.9739C427.979 71.9739 429.122 71.9316 430.434 71.847L430.392 71.8681ZM440.933 71.4663C441.505 71.4663 441.97 71.7413 442.351 72.2911C442.563 72.5872 442.648 72.9255 442.648 73.3062C442.648 74.0252 442.394 74.6807 441.907 75.2517C441.61 75.6112 441.166 75.8861 440.594 76.0764C440.446 76.0764 440.383 75.9918 440.383 75.8227C440.658 75.6535 440.975 75.442 441.272 75.1883C441.378 75.0825 441.441 74.9345 441.441 74.7653C441.335 74.723 441.145 74.7019 440.848 74.7019C440.721 74.7019 440.594 74.7019 440.51 74.6596C439.705 74.3847 439.303 73.8771 439.303 73.137C439.303 72.6506 439.451 72.2488 439.748 71.9316C440.044 71.6144 440.425 71.4452 440.912 71.4452L440.933 71.4663ZM455.623 71.9316C455.623 71.9316 455.771 71.8047 455.813 71.8047C455.877 71.8047 455.898 71.8681 455.898 71.9739V73.0947C455.898 73.2216 455.898 73.5176 455.898 74.004C455.898 74.6807 455.919 75.3363 455.982 75.9918C455.771 75.8438 455.538 75.6323 455.284 75.3574C454.882 74.9133 454.67 74.6807 454.649 74.6596C453.654 73.6657 452.596 73.0101 451.516 72.7352C451.157 72.6083 450.754 72.566 450.31 72.566C449.294 72.566 448.447 72.8832 447.77 73.4965C447.452 73.7714 447.283 74.0675 447.262 74.3847C447.198 74.6596 447.156 74.8922 447.156 75.0191C447.156 75.4209 447.283 75.7381 447.516 75.9918C447.812 76.3936 448.32 76.6051 449.019 76.6051C449.103 76.6051 449.336 76.6051 449.717 76.5628C449.887 76.5628 450.437 76.4782 451.389 76.3302C452.088 76.2245 452.659 76.161 453.061 76.161C453.781 76.161 454.353 76.3091 454.818 76.6051C455.03 76.732 455.263 76.9223 455.517 77.2184C456.215 78.022 456.554 79.037 456.554 80.2424C456.554 80.9614 456.427 81.5959 456.173 82.1034C455.834 82.8858 455.284 83.5625 454.564 84.1124C454.183 84.4084 453.802 84.6199 453.421 84.7468C453.358 84.7468 453.273 84.7891 453.167 84.8102C453.061 84.8314 452.913 84.8737 452.702 84.9371C452.49 85.0005 452.321 85.0428 452.173 85.064C451.919 85.1274 451.58 85.1697 451.178 85.1697C450.776 85.1697 450.31 85.1274 449.76 85.0428C448.913 84.916 448.447 84.8525 448.363 84.8314C448.172 84.8314 447.897 84.8314 447.558 84.8314C446.775 84.8314 446.098 85.0005 445.547 85.3177C445.42 85.3177 445.357 85.3178 445.357 85.2755C445.399 84.641 445.42 83.8586 445.42 82.9281C445.42 82.2091 445.42 81.4901 445.357 80.7923C445.357 80.7923 445.42 80.7923 445.505 80.7923C446.331 81.9342 447.198 82.8224 448.13 83.4779C449.209 84.2181 450.331 84.5987 451.495 84.5987C452.405 84.5987 453.125 84.3873 453.675 83.9643C454.014 83.7106 454.226 83.3934 454.353 83.055C454.416 82.907 454.437 82.6955 454.437 82.4629C454.437 82.0188 454.331 81.6381 454.12 81.3421C453.802 80.8346 453.167 80.5808 452.215 80.6019C451.961 80.6019 451.368 80.6865 450.437 80.8557C449.527 81.046 448.849 81.1306 448.384 81.1306C447.347 81.1306 446.563 80.8134 446.013 80.1578C445.42 79.46 445.124 78.5084 445.124 77.303C445.124 76.6474 445.251 75.9918 445.484 75.294C445.717 74.6596 446.013 74.1309 446.373 73.7503C447.241 72.8198 448.299 72.3122 449.548 72.2065C449.781 72.1642 450.035 72.1431 450.352 72.1431C450.67 72.1431 451.22 72.1853 452.003 72.2911C452.786 72.3757 453.337 72.4391 453.654 72.4391C454.416 72.4391 455.051 72.2911 455.58 71.995L455.623 71.9316ZM373.518 92.7616C373.518 92.7616 373.666 92.6347 373.708 92.6347C373.772 92.6347 373.793 92.6981 373.793 92.8038V93.9247C373.793 94.0515 373.793 94.3476 373.793 94.834C373.793 95.5107 373.814 96.1663 373.878 96.8218C373.666 96.6738 373.433 96.4623 373.179 96.1874C372.777 95.7433 372.565 95.5107 372.544 95.4895C371.549 94.4956 370.491 93.8401 369.411 93.5651C369.052 93.4383 368.649 93.396 368.205 93.396C367.189 93.396 366.342 93.7132 365.665 94.3265C365.347 94.6014 365.178 94.8974 365.157 95.2146C365.093 95.4895 365.051 95.7222 365.051 95.8491C365.051 96.2508 365.178 96.5681 365.411 96.8218C365.707 97.2236 366.215 97.4351 366.914 97.4351C366.998 97.4351 367.231 97.4351 367.612 97.3928C367.782 97.3928 368.332 97.3082 369.284 97.1602C369.983 97.0544 370.554 96.991 370.957 96.991C371.676 96.991 372.248 97.139 372.713 97.4351C372.925 97.562 373.158 97.7523 373.412 98.0483C374.11 98.8519 374.449 99.867 374.449 101.072C374.449 101.791 374.322 102.426 374.068 102.933C373.729 103.716 373.179 104.393 372.459 104.942C372.078 105.238 371.697 105.45 371.316 105.577C371.253 105.577 371.168 105.619 371.062 105.64C370.957 105.661 370.808 105.704 370.597 105.767C370.385 105.831 370.216 105.873 370.068 105.894C369.814 105.957 369.475 106 369.073 106C368.671 106 368.205 105.957 367.655 105.873C366.808 105.746 366.342 105.682 366.258 105.661C366.067 105.661 365.792 105.661 365.453 105.661C364.67 105.661 363.993 105.831 363.442 106.148C363.315 106.148 363.252 106.148 363.252 106.105C363.294 105.471 363.315 104.689 363.315 103.758C363.315 103.039 363.315 102.32 363.252 101.622C363.252 101.622 363.315 101.622 363.4 101.622C364.226 102.764 365.093 103.652 366.025 104.308C367.104 105.048 368.226 105.429 369.39 105.429C370.3 105.429 371.02 105.217 371.57 104.794C371.909 104.541 372.121 104.223 372.248 103.885C372.311 103.737 372.332 103.525 372.332 103.293C372.332 102.849 372.227 102.468 372.015 102.172C371.697 101.665 371.062 101.411 370.11 101.432C369.856 101.432 369.263 101.516 368.332 101.686C367.422 101.876 366.744 101.961 366.279 101.961C365.242 101.961 364.458 101.643 363.908 100.988C363.315 100.29 363.019 99.3383 363.019 98.1329C363.019 97.4774 363.146 96.8218 363.379 96.124C363.612 95.4895 363.908 94.9609 364.268 94.5802C365.136 93.6497 366.194 93.1422 367.443 93.0365C367.676 92.9942 367.93 92.973 368.247 92.973C368.565 92.973 369.115 93.0153 369.898 93.1211C370.681 93.2057 371.232 93.2691 371.549 93.2691C372.311 93.2691 372.946 93.1211 373.475 92.825L373.518 92.7616ZM384.736 92.7193H390.938C390.832 92.8038 390.578 92.9307 390.197 93.1211C389.816 93.2902 389.562 93.4383 389.456 93.5229C388.673 93.9458 387.72 94.6648 386.599 95.7222L385.159 97.0544C384.821 97.3928 384.419 97.7311 383.974 98.0906C383.974 98.2175 384.038 98.281 384.143 98.281C385.244 98.0906 386.048 97.9849 386.577 97.9849C387.403 97.9849 388.08 98.1752 388.588 98.5136C388.906 98.7251 389.16 99 389.329 99.3172C389.562 99.6978 389.668 100.205 389.668 100.861C389.668 101.157 389.625 101.601 389.562 102.172C389.498 102.828 389.477 103.272 389.477 103.483C389.477 103.695 389.477 103.927 389.541 104.16L389.604 104.329C389.668 104.477 389.752 104.541 389.879 104.562C390.133 104.562 390.366 104.435 390.578 104.16C390.62 104.096 390.705 103.779 390.811 103.208C390.853 103.06 390.917 102.933 391.001 102.806C391.171 102.806 391.276 102.87 391.276 102.997C391.276 104.266 390.79 105.196 389.795 105.809C389.266 106.148 388.631 106.317 387.847 106.317C387.191 106.317 386.62 106.169 386.133 105.915C385.434 105.429 385.096 104.667 385.096 103.631C385.096 103.314 385.117 102.912 385.159 102.447C385.202 101.982 385.223 101.559 385.223 101.242C385.223 100.607 385.117 100.078 384.905 99.6767C384.588 99.1903 384.08 98.9577 383.403 98.9577C383.36 98.9577 383.212 98.9577 382.979 99C382.873 99 382.704 99.0423 382.492 99.1057C382.45 99.1057 382.408 99.1692 382.365 99.2749C382.387 100.332 382.429 101.516 382.492 102.806C382.598 103.991 382.937 104.963 383.53 105.725C383.593 105.809 383.614 105.873 383.614 105.894L383.551 105.936C383.551 105.936 383.487 105.979 383.487 106C382.111 105.957 380.947 105.936 379.995 105.936C379.042 105.936 377.942 105.957 376.481 106C376.481 106 376.481 105.979 376.502 105.936C376.502 105.915 376.545 105.873 376.566 105.831C376.587 105.788 376.608 105.746 376.629 105.704C377.37 104.752 377.73 102.891 377.73 100.121V98.9577C377.73 98.8096 377.73 98.4924 377.73 97.9849C377.73 97.3293 377.688 96.42 377.603 95.2992C377.455 94.4322 377.158 93.6709 376.714 92.9942C376.65 92.9096 376.629 92.8673 376.629 92.825C376.629 92.7616 376.693 92.7193 376.799 92.7404C378.259 92.7827 379.275 92.8038 379.868 92.8038H381.646C381.773 92.7827 382.111 92.7616 382.683 92.7616C382.831 92.7616 382.916 92.7827 382.916 92.8673L382.831 93.0788C382.492 93.692 382.302 94.7282 382.302 96.1663V97.139C382.302 97.4351 382.302 97.7734 382.302 98.1329C382.302 98.1964 382.365 98.2387 382.471 98.2387C383.403 97.9003 384.122 97.3716 384.651 96.6526C385.138 95.9759 385.392 95.2569 385.392 94.4956C385.392 94.1573 385.329 93.8189 385.18 93.5017C385.032 93.3325 384.863 93.0576 384.673 92.6981L384.736 92.7193ZM399.595 92.7193C399.595 92.7193 399.68 92.7193 399.68 92.7827C399.68 92.8461 399.637 92.9307 399.531 93.0365C399.108 93.4806 398.896 94.2419 398.896 95.3204V103.208C398.896 103.8 399.066 104.393 399.383 105.006C399.468 105.196 399.722 105.492 400.124 105.957C398.642 105.894 397.499 105.852 396.716 105.852C395.721 105.852 394.6 105.894 393.351 105.957C393.351 105.852 393.457 105.746 393.668 105.577C394.113 105.175 394.346 104.519 394.346 103.568V95.4261C394.346 94.834 394.303 94.411 394.219 94.1573C394.113 93.8189 393.901 93.4594 393.541 93.0999C393.414 92.973 393.372 92.8884 393.372 92.825C393.372 92.7827 393.372 92.7404 393.435 92.7193C394.896 92.7827 395.933 92.8038 396.568 92.8038C397.436 92.8038 398.431 92.7616 399.595 92.677V92.7193ZM409.564 92.7193C409.882 92.7193 410.051 92.7404 410.051 92.8461C410.009 92.973 409.988 93.1422 409.988 93.3748C410.009 93.8189 410.136 94.1996 410.347 94.4956C410.517 94.7494 410.94 95.2992 411.596 96.1451C412.252 96.9698 413.141 98.0272 414.284 99.3172C414.433 99.4652 414.538 99.5498 414.644 99.5498C414.729 99.5498 414.771 99.4864 414.771 99.3595C414.771 97.6254 414.687 96.3777 414.538 95.6164C414.306 94.3899 413.798 93.5229 413.014 93.0153C412.866 92.9096 412.803 92.825 412.803 92.7827C412.803 92.7404 412.93 92.7193 413.205 92.7193H416.867C417.015 92.7193 417.1 92.7193 417.1 92.7616C417.1 92.8038 417.036 92.8884 416.909 92.973C416.147 93.544 415.66 94.6014 415.47 96.124C415.385 96.7584 415.343 97.4985 415.343 98.3656C415.343 98.4924 415.343 98.9577 415.385 99.8036L415.449 101.432C415.47 101.855 415.491 102.51 415.512 103.356L415.554 104.244C415.597 105.006 415.618 105.534 415.618 105.873C415.618 105.979 415.491 106.042 415.237 106.042H414.433C413.819 106.042 413.48 106 413.417 105.894C412.633 104.71 411.596 103.314 410.284 101.665C408.823 99.8036 407.469 98.1964 406.199 96.843C406.135 96.7795 406.072 96.7584 406.008 96.7584C405.903 96.7584 405.86 96.8007 405.839 96.8641C405.839 97.0756 405.839 97.5197 405.839 98.2175C405.839 99.9516 405.987 101.326 406.262 102.384C406.686 103.927 407.469 105.048 408.569 105.746C408.696 105.831 408.76 105.915 408.76 105.979C408.76 106.063 408.696 106.084 408.548 106.063C407.638 106.021 406.77 106 405.966 106C405.416 106 404.908 106 404.463 106C404.019 106 403.532 106 402.982 106C402.897 106 402.855 106 402.855 105.957C402.855 105.915 402.918 105.852 403.045 105.725C403.955 104.9 404.59 103.885 404.908 102.701C405.056 102.13 405.119 101.516 405.141 100.819C405.183 99.5287 405.204 98.6616 405.204 98.1964C405.204 97.139 405.183 96.272 405.141 95.5953C404.357 94.7071 403.722 94.0938 403.257 93.7132C402.982 93.4806 402.579 93.2056 402.05 92.8673L402.008 92.825C402.008 92.825 402.156 92.7193 402.41 92.7404C404.506 92.8039 405.733 92.825 406.135 92.825C407.151 92.825 408.294 92.7827 409.607 92.6981L409.564 92.7193ZM434.393 92.7193C434.541 92.7193 434.604 92.825 434.604 93.0365V93.9035V94.9186C434.604 95.4473 434.604 95.9548 434.541 96.4623C434.414 96.1451 434.202 95.7222 433.906 95.2358C433.101 94.0304 432.149 93.4171 431.006 93.4171C430.159 93.5229 429.588 93.8612 429.27 94.4745C429.143 94.834 429.038 95.2569 428.974 95.7222C428.974 95.7856 428.974 95.849 428.974 95.9336C428.974 96.0182 428.953 96.1028 428.932 96.2085C428.932 96.3143 428.911 96.3989 428.889 96.4835V99.4441C428.847 100.755 428.889 101.834 428.974 102.701C429.186 103.504 429.461 104.096 429.757 104.477C429.948 104.71 430.223 104.9 430.561 105.048C430.9 105.196 431.239 105.281 431.599 105.281C432.382 105.281 433.08 105.027 433.673 104.541C433.99 104.202 434.371 103.695 434.816 103.018L434.922 102.976C434.922 102.976 435.07 103.039 435.07 103.187C434.858 103.864 434.435 104.456 433.8 104.963C433.165 105.471 432.488 105.767 431.789 105.894C431.239 105.979 430.752 106.042 430.308 106.042C428.085 106.042 426.349 105.133 425.122 103.293C424.656 102.574 424.339 101.77 424.169 100.882C424.106 100.438 424.063 99.9939 424.063 99.5498C424.063 98.281 424.339 97.1179 424.868 96.0394C425.693 94.4533 427.006 93.4594 428.826 93.0365C429.419 92.9096 429.99 92.8461 430.604 92.8461C430.921 92.8461 431.196 92.8461 431.45 92.9096C432.107 92.973 432.615 93.0153 432.996 93.0153C433.546 93.0153 434.012 92.9307 434.414 92.7404L434.393 92.7193ZM439.917 92.7193C441.102 92.7616 442.076 92.7616 442.838 92.7616C443.388 92.7616 444.129 92.7616 445.061 92.7193C445.293 92.7193 445.463 92.7193 445.526 92.8038C445.59 92.8673 445.653 93.0365 445.696 93.2691L445.865 93.9669C446.331 95.3204 446.923 97.0756 447.622 99.2326C448.32 101.347 448.849 102.849 449.188 103.716C449.4 104.244 449.611 104.689 449.823 105.027C449.929 105.175 450.077 105.365 450.289 105.598L450.458 105.725C450.458 105.725 450.606 105.873 450.606 105.894C450.606 105.936 450.5 105.957 450.289 105.957C449.188 105.915 448.087 105.894 446.966 105.894C445.759 105.894 444.658 105.915 443.664 105.957C443.621 105.957 443.6 105.957 443.6 105.894C443.6 105.873 443.6 105.852 443.6 105.831C444.108 105.471 444.341 104.963 444.341 104.329C444.341 103.822 444.108 102.997 443.621 101.855C443.388 101.242 443.24 100.903 443.219 100.797C443.134 100.649 443.05 100.565 442.944 100.565H440.446C440.129 100.565 439.959 100.946 439.959 101.728V102.278C439.959 102.849 440.002 103.293 440.086 103.589C440.15 103.864 440.319 104.287 440.573 104.794C440.785 105.238 441.081 105.598 441.462 105.915C440.573 105.873 439.578 105.852 438.499 105.852C437.419 105.852 436.425 105.852 435.451 105.915C435.387 105.894 435.345 105.873 435.345 105.852C435.345 105.809 435.43 105.725 435.578 105.619C436.234 105.217 436.869 104.689 437.441 104.033C438.33 102.954 439.07 101.643 439.663 100.078C440.764 96.9064 441.314 95.2781 441.335 95.1935C441.335 94.8763 441.187 94.4956 440.891 94.0515C440.637 93.6497 440.362 93.3325 440.065 93.0788C439.854 92.9096 439.769 92.7827 439.769 92.677C439.769 92.6347 439.811 92.6135 439.896 92.6135L439.917 92.7193ZM442.013 96.9698C441.886 96.6526 441.78 96.4835 441.695 96.4835C441.61 96.4835 441.526 96.5892 441.42 96.7795C441.42 96.7795 441.42 96.8218 441.399 96.8853C441.399 96.9487 441.356 96.991 441.356 97.0121C441.314 97.139 441.229 97.4351 441.06 97.9215C440.891 98.4079 440.743 98.8308 440.637 99.1903C440.573 99.3806 440.531 99.5498 440.531 99.6978C440.531 99.9305 440.616 100.057 440.806 100.057H442.669C442.88 100.057 442.986 99.9516 442.986 99.7401C442.986 99.6978 442.986 99.6767 442.986 99.6344C442.986 99.5921 442.944 99.5075 442.902 99.3595C442.859 99.2326 442.796 99.0423 442.711 98.8096C442.626 98.577 442.563 98.3444 442.478 98.1329C442.372 97.8369 442.224 97.4351 442.055 96.9487L442.013 96.9698ZM462.544 92.6981C463.158 92.6981 463.729 92.7827 464.237 93.0153C465.084 93.4171 465.507 94.3053 465.507 95.6799C465.507 96.124 465.444 96.4835 465.296 96.7584C465.021 97.1602 464.682 97.4562 464.301 97.6466C463.518 97.9638 463.073 98.1541 462.967 98.1964C462.862 98.2387 462.798 98.281 462.798 98.3233C462.798 98.3656 462.904 98.4079 463.116 98.4501C464.026 98.5982 464.703 99 465.126 99.6767C465.296 100.1 465.38 100.586 465.38 101.094C465.38 101.39 465.338 101.876 465.232 102.616C465.148 103.229 465.105 103.737 465.105 104.139C465.105 104.435 465.19 104.604 465.38 104.646C465.613 104.646 465.783 104.498 465.91 104.202C465.994 104.118 466.079 103.906 466.142 103.631C466.227 103.251 466.291 103.039 466.312 102.997C466.375 102.933 466.46 102.891 466.523 102.891C466.566 102.891 466.608 102.891 466.608 102.891C466.714 102.997 466.756 103.145 466.756 103.356C466.756 103.547 466.735 103.737 466.693 103.906C466.566 104.414 466.312 104.879 465.931 105.302C465.529 105.725 465.063 105.979 464.576 106.063C464.068 106.148 463.645 106.211 463.264 106.211C462.354 106.211 461.655 105.957 461.168 105.429C460.893 105.069 460.745 104.583 460.745 103.991C460.745 103.758 460.766 103.399 460.83 102.912C460.851 102.743 460.872 102.574 460.893 102.405C460.893 102.235 460.935 102.109 460.935 102.024C460.935 101.939 460.935 101.876 460.935 101.834C460.935 101.686 460.935 101.432 460.935 101.094C460.935 100.248 460.681 99.6767 460.195 99.3806C459.919 99.2326 459.581 99.148 459.157 99.148C458.903 99.148 458.692 99.1692 458.544 99.2114C458.374 99.3383 458.268 99.4652 458.268 99.6132V100.713C458.268 100.819 458.268 100.924 458.268 101.03C458.268 101.136 458.268 101.22 458.268 101.284V101.834C458.268 103.61 458.501 104.858 458.967 105.556C458.967 105.556 458.988 105.619 459.009 105.661C459.009 105.682 459.052 105.725 459.073 105.746C459.073 105.746 459.073 105.788 459.073 105.852C459.073 105.915 459.009 105.936 458.903 105.936C457.02 105.831 455.94 105.788 455.665 105.788C454.861 105.788 453.845 105.831 452.617 105.915C452.448 105.915 452.342 105.915 452.342 105.852C452.342 105.788 452.384 105.725 452.469 105.64C453.358 104.731 453.802 103.356 453.802 101.559C453.802 101.474 453.802 101.051 453.76 100.29C453.739 99.5075 453.718 99.0634 453.718 98.9788C453.718 98.8731 453.718 98.7674 453.718 98.6405C453.718 98.5136 453.718 98.3444 453.718 98.1329C453.718 97.4985 453.718 96.843 453.654 96.2085C453.569 95.0666 453.188 94.115 452.575 93.3325C452.511 93.2479 452.469 93.1634 452.469 93.0788C452.469 93.0153 452.617 92.973 452.871 92.973C453.696 93.0365 454.564 93.0788 455.496 93.0788C456.533 93.0788 457.655 93.0365 458.84 92.9519C458.903 92.9519 459.179 92.9519 459.602 92.8884C460.025 92.825 460.406 92.825 460.703 92.8038C460.851 92.7827 461.422 92.7404 462.438 92.6558L462.544 92.6981ZM460.173 93.7555C459.941 93.6286 459.644 93.5863 459.242 93.5863C458.988 93.5863 458.734 93.7343 458.501 94.0092C458.268 94.263 458.163 94.5379 458.163 94.7917C458.163 95.4684 458.163 96.0394 458.163 96.5258C458.163 97.0756 458.163 97.6677 458.163 98.281C458.163 98.5347 458.29 98.6828 458.565 98.6828C458.946 98.6828 459.517 98.3867 460.3 97.8157C460.787 97.4562 461.02 96.8007 461.02 95.8491C461.02 95.4684 460.957 95.0877 460.808 94.686C460.639 94.2207 460.406 93.9247 460.131 93.7766L460.173 93.7555ZM468.873 92.7404C469.529 92.7404 470.376 92.7404 471.434 92.8038C472.683 92.8461 473.762 92.8673 474.715 92.8673C476.429 92.8673 478.186 92.825 479.964 92.7404V93.9458C479.964 94.411 479.985 94.834 480.006 95.1935C480.006 95.553 480.006 95.9759 480.006 96.4412C480.006 96.4835 480.006 96.5046 479.943 96.5046C479.879 96.5046 479.774 96.3354 479.541 95.9759C479.477 95.8702 479.393 95.7645 479.308 95.6587C479.223 95.553 479.181 95.4684 479.139 95.4261C479.096 95.3838 479.075 95.3415 479.075 95.3415C477.911 94.0727 476.768 93.4383 475.688 93.4383C475.519 93.4383 475.35 93.4383 475.159 93.5017C474.905 93.7555 474.778 94.2207 474.757 94.9186C474.757 95.3838 474.757 96.1028 474.757 97.0967C474.757 98.281 474.821 98.8731 474.969 98.8731C475.773 98.8731 476.577 98.5136 477.382 97.7946C477.699 97.5197 478.017 97.1813 478.355 96.7584C478.398 96.7584 478.419 97.71 478.419 99.6344V101.347C478.017 100.797 477.53 100.353 476.916 100.036C476.302 99.719 475.667 99.5498 474.99 99.5498C474.842 99.571 474.778 100.353 474.778 101.897C474.778 103.018 474.842 103.991 474.969 104.773C475.032 105.09 475.265 105.26 475.667 105.238H476.514C477.657 105.175 478.715 104.498 479.689 103.229C480.049 102.743 480.472 102.13 480.895 101.39C480.895 101.834 480.895 102.257 480.895 102.616C480.895 102.976 480.895 103.399 480.895 103.843C480.895 104.35 480.895 105.069 480.938 106L477.869 105.936H475.371C473.233 105.936 471.138 105.979 469.063 106.084C468.958 106.063 468.915 106.021 468.915 105.979C468.915 105.936 468.936 105.852 468.979 105.767C469.847 104.752 470.27 103.208 470.27 101.115V100.121V99.719V97.7734C470.27 96.2297 470.185 95.1723 470.016 94.5591C469.868 94.0515 469.508 93.4383 468.915 92.7404H468.873ZM362.511 32.5978C362.871 32.471 363.083 32.4287 363.104 32.5133C363.125 32.5978 363.104 32.7036 363.019 32.8728C362.151 34.7337 361.559 37.3137 361.22 40.5703C361.051 42.1987 360.945 43.7001 360.881 45.0747L360.691 48.9869C360.479 52.4127 360.437 55.6694 360.606 58.7358C360.733 61.4426 360.818 63.0286 360.86 63.4939C360.903 63.8111 360.86 64.0225 360.818 64.1071C360.754 64.1917 360.564 64.2975 360.246 64.4243L357.177 65.524C356.14 65.9046 355.188 66.243 354.341 66.5814C354.023 66.6871 353.727 66.6025 353.494 66.3064C350.7 62.7114 347.144 58.5243 342.826 53.7239C342.636 53.4912 342.043 52.8357 341.048 51.736C340.054 50.6364 339.313 49.8116 338.784 49.1984C337.09 47.3797 335.63 46.0051 334.381 45.0958C334.275 44.9901 333.831 44.7575 333.09 44.398C332.391 44.0173 332.031 43.7847 332.01 43.7424C331.947 43.5944 332.18 43.4675 332.688 43.3195C333.809 42.9388 335.482 42.3467 337.725 41.5431C340.942 40.4011 343.652 39.3649 345.895 38.4556C345.938 38.5825 345.895 39.0266 345.79 39.7879C345.705 40.0416 345.705 40.232 345.747 40.38C345.747 40.7184 345.853 41.1624 346.065 41.7334C346.34 42.4736 346.721 43.1714 347.229 43.827C347.441 44.0596 347.843 44.4826 348.393 45.0747C348.943 45.6668 349.367 46.1532 349.642 46.4704L352.288 49.3253C354.066 51.2496 355.103 52.3704 355.42 52.7088L358.109 55.5425C358.299 55.754 358.49 55.8174 358.68 55.754C358.849 55.6906 358.955 55.5637 358.955 55.3522C359.146 53.893 359.273 52.0321 359.294 49.8116C359.336 46.4492 359.04 43.8904 358.405 42.1141C357.96 40.8664 357.325 39.7879 356.5 38.9208C355.632 37.9481 354.51 37.1656 353.198 36.5524C352.923 36.4255 352.775 36.3197 352.732 36.214C352.711 36.1294 352.732 36.0871 352.838 36.0448L362.469 32.5978H362.511ZM373.433 30.5254C376.015 30.1236 378.153 29.7853 379.804 29.4892C380.99 29.2777 382.577 28.9394 384.588 28.4953C385.096 28.3684 385.434 28.3684 385.625 28.4953C385.815 28.601 386.006 28.9182 386.196 29.4469L386.81 30.8849C388.355 33.6341 390.303 37.2079 392.695 41.5854C395.044 45.8994 396.78 48.9235 397.88 50.6575C398.515 51.7149 399.172 52.5819 399.785 53.2586C400.082 53.5547 400.484 53.9142 401.013 54.316L401.458 54.5063C401.69 54.6755 401.839 54.7812 401.839 54.8447C401.839 54.9504 401.627 55.035 401.161 55.1196C398.769 55.4579 396.356 55.8386 393.943 56.2827C391.34 56.7479 388.969 57.2343 386.81 57.7418C386.726 57.7418 386.683 57.7418 386.683 57.6572C386.683 57.615 386.683 57.5727 386.683 57.5304C387.636 56.5576 387.974 55.3734 387.72 53.9776C387.53 52.8991 386.683 51.2074 385.202 48.9235C384.44 47.6969 384.016 46.9991 383.889 46.8087C383.657 46.5127 383.424 46.3858 383.212 46.4069L377.793 47.4009C377.095 47.5277 376.904 48.4371 377.201 50.1077L377.412 51.3131C377.645 52.5396 377.899 53.4701 378.196 54.0834C378.471 54.6755 378.979 55.4791 379.72 56.5153C380.355 57.3823 381.159 58.0802 382.09 58.5877C380.143 58.8626 377.984 59.2221 375.656 59.6451C373.391 60.068 371.189 60.491 369.052 60.9774C368.882 60.9562 368.798 60.9351 368.798 60.8928C368.798 60.787 368.925 60.5967 369.2 60.3006C370.491 59.1798 371.613 57.8053 372.586 56.1346C374.089 53.4278 375.169 50.298 375.825 46.7242C376.947 39.4072 377.518 35.6642 377.539 35.5161C377.412 34.8183 376.947 34.057 376.121 33.2111C375.402 32.471 374.682 31.8788 373.962 31.4559C373.454 31.181 373.179 30.9272 373.158 30.7369C373.158 30.6312 373.221 30.5677 373.391 30.5254H373.433ZM379.635 38.8997C379.254 38.2441 378.958 37.9481 378.746 37.9904C378.555 38.0327 378.407 38.2864 378.28 38.7517C378.28 38.7728 378.28 38.8574 378.28 38.9843C378.28 39.1112 378.238 39.2169 378.238 39.3015C378.217 39.5764 378.111 40.2743 377.942 41.3951C377.772 42.5159 377.624 43.4886 377.518 44.3134C377.434 44.7575 377.434 45.1381 377.497 45.4765C377.582 45.984 377.836 46.2166 378.217 46.1532L382.238 45.413C382.704 45.3284 382.895 45.0535 382.81 44.5883C382.81 44.5037 382.768 44.4403 382.725 44.3557C382.683 44.2499 382.577 44.0808 382.429 43.8058C382.281 43.5309 382.069 43.1714 381.815 42.7062C381.561 42.241 381.307 41.7757 381.053 41.3105C380.714 40.7184 380.249 39.9148 379.656 38.9208L379.635 38.8997ZM427.175 25.4712C428.53 25.4289 429.778 25.6616 430.921 26.148C432.784 26.9938 433.736 28.9394 433.779 31.9846C433.779 32.9573 433.631 33.7609 433.334 34.3954C432.742 35.2835 432.022 35.9602 431.154 36.3832C429.44 37.1022 428.445 37.5251 428.212 37.6309C427.979 37.7155 427.852 37.8 427.852 37.9058C427.852 38.0115 428.085 38.0961 428.572 38.1807C430.604 38.4768 432.085 39.3649 433.038 40.8452C433.419 41.7757 433.609 42.8119 433.609 43.9539C433.609 44.5883 433.525 45.6879 433.334 47.2951C433.165 48.6697 433.08 49.7693 433.101 50.6364C433.101 51.2919 433.313 51.6726 433.694 51.7783C434.202 51.7783 434.562 51.44 434.816 50.7844C435.006 50.5729 435.155 50.15 435.324 49.5156C435.514 48.6697 435.641 48.2045 435.705 48.141C435.853 47.993 436.022 47.9084 436.171 47.9084C436.276 47.9084 436.34 47.9084 436.361 47.9507C436.573 48.1622 436.679 48.5005 436.679 48.9658C436.679 49.3887 436.636 49.7905 436.53 50.1923C436.276 51.2919 435.726 52.3282 434.879 53.2798C433.99 54.2314 433.017 54.8024 431.916 54.9927C430.815 55.2042 429.842 55.3311 429.016 55.3311C427.027 55.3311 425.482 54.7812 424.402 53.6393C423.767 52.8357 423.45 51.7783 423.428 50.4672C423.428 49.9385 423.471 49.1561 423.598 48.0987C423.64 47.7392 423.682 47.3586 423.725 46.9991C423.767 46.6396 423.788 46.3435 423.809 46.1532C423.831 45.9629 423.852 45.8148 423.852 45.7302C423.873 45.3919 423.873 44.8421 423.873 44.1231C423.873 42.2621 423.301 41.0144 422.18 40.3589C421.566 40.0205 420.804 39.8513 419.894 39.8725C419.322 39.8725 418.878 39.9359 418.56 40.0416C418.179 40.3377 417.967 40.6126 417.989 40.9087V42.1987L418.01 43.2983C418.01 43.5309 418.01 43.7635 418.01 43.9962C418.01 44.2288 418.01 44.4191 418.01 44.5671C418.01 44.7152 418.01 44.8843 418.01 45.0112C418.01 45.1593 418.01 45.265 418.01 45.3707C418.01 45.4553 418.01 45.5399 418.01 45.6245C418.01 45.7091 418.01 45.7514 418.01 45.7725C418.052 49.6848 418.581 52.4127 419.618 53.9776L419.661 54.0199C419.661 54.0199 419.724 54.1257 419.767 54.1891C419.809 54.2525 419.851 54.316 419.915 54.3583C419.936 54.3794 419.957 54.464 419.957 54.5909C419.957 54.7178 419.83 54.7812 419.597 54.7812C415.449 54.612 413.078 54.5275 412.485 54.5275C410.728 54.5275 408.485 54.6543 405.754 54.8658C405.352 54.887 405.162 54.8658 405.162 54.7178C405.162 54.5909 405.246 54.4217 405.437 54.2525C407.384 52.2224 408.337 49.1984 408.294 45.2227C408.294 45.0324 408.252 44.1019 408.188 42.4313C408.125 40.6972 408.083 39.7456 408.083 39.5341C408.083 39.3015 408.083 39.0477 408.125 38.794C408.146 38.4979 408.167 38.1384 408.146 37.6943C408.146 36.2774 408.104 34.8606 407.977 33.4437C407.744 30.9272 406.919 28.8336 405.522 27.1419C405.352 26.9515 405.289 26.7824 405.289 26.592C405.31 26.444 405.606 26.3594 406.157 26.3383C407.977 26.4863 409.903 26.5286 411.935 26.5075C414.242 26.4863 416.697 26.3594 419.28 26.1691C419.428 26.1691 419.999 26.1268 420.973 26.0422C421.947 25.9576 422.751 25.873 423.407 25.8307C423.725 25.7673 424.995 25.6616 427.217 25.4712H427.175ZM421.968 27.8397C421.46 27.586 420.783 27.4591 419.915 27.4591C419.343 27.4591 418.793 27.7763 418.306 28.4107C417.819 28.9817 417.565 29.5738 417.586 30.1448C417.586 31.6039 417.629 32.8727 417.671 33.9513C417.713 35.1566 417.735 36.4466 417.756 37.8C417.756 38.371 418.073 38.6671 418.666 38.6459C419.513 38.6459 420.761 37.9904 422.455 36.6792C423.492 35.8757 424 34.4376 423.979 32.3441C423.979 31.4982 423.809 30.6523 423.471 29.8064C423.069 28.7913 422.561 28.1146 421.947 27.8186L421.968 27.8397ZM466.037 30.8426C467.116 31.5405 468.153 32.4075 469.127 33.4226C469.974 34.3742 470.714 35.5584 471.307 36.9119C472.408 39.3438 472.704 42.0506 472.217 45.0535C471.73 48.0564 470.609 50.5941 468.831 52.6665C467.116 54.7178 465.042 56.1558 462.629 56.9594C460.3 57.6995 457.803 57.8476 455.136 57.4246C454.183 57.2766 453.231 57.044 452.257 56.7268C449.781 55.9443 447.601 54.5275 445.696 52.4762C443.727 50.4038 442.563 48.0987 442.203 45.5822C441.991 44.2499 442.034 42.6639 442.33 40.8241C443.113 35.9391 445.547 32.3441 449.59 30.0179C452.426 28.3896 455.792 27.882 459.687 28.5164C462.163 28.9182 464.28 29.7007 466.037 30.8638V30.8426ZM459.581 29.5949C457.379 29.2354 455.855 29.9333 454.966 31.7097C454.374 32.8516 453.993 33.9724 453.781 35.0509C453.21 37.5251 452.765 39.7879 452.448 41.7969C452.173 43.5098 451.855 45.9206 451.516 49.0503C451.199 51.7783 451.622 53.8296 452.744 55.183C453.337 55.7329 454.12 56.0712 455.051 56.2404C457.231 56.5999 458.713 55.902 459.496 54.168C459.962 53.1106 460.343 51.8629 460.66 50.4461C461.232 47.6969 461.655 45.5611 461.909 43.9962C462.29 41.6065 462.608 39.09 462.862 36.4255C462.967 35.2835 463.01 34.4588 463.01 33.9936C463.01 33.0842 462.84 32.3018 462.565 31.6039C462.078 30.4831 461.084 29.8064 459.581 29.5738V29.5949ZM496.389 37.9481C497.067 38.1595 497.363 38.371 497.299 38.5613C497.13 38.7728 496.961 39.1323 496.792 39.6399C496.516 40.5703 496.474 41.4374 496.707 42.241C496.876 42.9177 497.342 44.3557 498.083 46.5761C498.823 48.7543 499.903 51.6303 501.321 55.1619C501.512 55.5848 501.702 55.8386 501.893 55.902C502.062 55.9655 502.21 55.8597 502.295 55.5848C503.565 52.0109 504.348 49.3676 504.602 47.6335C505.046 44.9266 504.644 42.7485 503.395 41.099C503.184 40.7607 503.078 40.5492 503.12 40.4646C503.163 40.3589 503.438 40.4223 503.988 40.6126L511.587 43.3195C511.904 43.4252 512.053 43.5309 512.031 43.5944C511.989 43.7001 511.799 43.7847 511.46 43.8904C509.449 44.5037 507.671 46.3224 506.126 49.3253C505.491 50.5729 504.856 52.0744 504.221 53.8507C504.136 54.1045 503.798 55.0984 503.247 56.8325L502.147 60.2372C501.871 61.1465 501.448 62.4788 500.834 64.2763L500.242 66.1584C499.755 67.7444 499.395 68.8652 499.141 69.5631C499.056 69.7957 498.76 69.7957 498.252 69.6265L496.58 69.0344C495.331 68.5903 494.654 68.2308 494.569 67.9771C493.807 64.953 492.706 61.2523 491.225 56.8959C489.595 51.9475 487.965 47.6123 486.314 43.8693C486.229 43.7001 486.124 43.5944 485.975 43.5309C485.785 43.4675 485.637 43.4886 485.552 43.6367C485.383 44.0385 485.023 44.9901 484.515 46.4281C483.245 50.002 482.504 52.9837 482.314 55.3733C482.06 58.8626 482.822 61.7598 484.6 64.0437C484.79 64.3398 484.875 64.5512 484.832 64.6781C484.769 64.8473 484.6 64.8684 484.324 64.6993C482.462 63.9168 480.684 63.2401 479.012 62.6268C477.847 62.2039 476.81 61.8655 475.879 61.5483C474.948 61.2523 473.932 60.8928 472.789 60.491C472.619 60.4275 472.535 60.3641 472.556 60.3218C472.577 60.2795 472.768 60.1526 473.127 59.9834C475.646 58.9261 477.678 57.2977 479.223 55.0984C479.943 54.0199 480.557 52.7722 481.086 51.3765C482.144 48.7543 482.843 46.9568 483.181 45.984C483.965 43.7847 484.557 41.966 484.959 40.528C483.986 38.1173 483.139 36.362 482.462 35.2624C482.038 34.5857 481.425 33.6975 480.599 32.6401L480.557 32.5344C480.62 32.3652 480.917 32.4075 481.467 32.6613C485.743 34.3319 488.283 35.3047 489.108 35.6007C491.204 36.3409 493.638 37.1233 496.389 37.9058V37.9481ZM481.869 20.6708C481.53 19.7827 480.705 19.2117 479.774 19.1694C479.477 19.1694 479.181 19.2117 478.906 19.3174C476.154 20.3536 473.043 20.8189 469.402 20.7131C467.18 20.6497 464.724 20.3748 462.121 19.9095C455.22 18.6407 450.141 16.4837 446.585 13.3328C446.182 12.9733 445.653 12.7618 445.103 12.7406C444.426 12.7406 443.769 13.0156 443.325 13.5231C442.478 14.4747 442.563 15.9339 443.515 16.7798C447.728 20.5228 453.548 23.0182 461.295 24.4562C464.132 24.9849 466.82 25.2809 469.275 25.3444C473.508 25.4501 477.191 24.9003 480.514 23.6526C481.086 23.4411 481.552 23.0182 481.806 22.4472C482.06 21.8974 482.081 21.263 481.869 20.692V20.6708ZM462.671 16.3357C466.121 16.9701 469.508 17.1181 472.746 16.8643L472.958 16.9066V16.8432L473.784 8.13056C474.313 5.02192 472.217 2.01902 469.106 1.44805L461.719 0.0946292C458.628 -0.476345 455.665 1.59608 455.136 4.70471L452.998 13.227L453.083 13.2693C456.004 14.665 459.242 15.7224 462.692 16.3568L462.671 16.3357Z" fill="white"/>
</svg>
